<svg width="291" height="291" viewBox="0 0 291 291" fill="none" xmlns="http://www.w3.org/2000/svg">
<path fill-rule="evenodd" clip-rule="evenodd" d="M273.834 145.642V145.642L273.853 146.924L273.91 148.207L274.006 149.494L274.139 150.784L274.31 152.081L274.516 153.384L274.758 154.695L275.034 156.015L275.343 157.347L275.683 158.69L276.052 160.045L276.449 161.415L276.871 162.799L277.316 164.198L277.781 165.613L278.263 167.045L278.759 168.493L279.265 169.958L279.779 171.44L280.296 172.938L280.812 174.453L281.323 175.983L281.824 177.529L282.31 179.088L282.778 180.659L283.221 182.242L283.634 183.833L284.013 185.432L284.353 187.036L284.647 188.642L284.891 190.248L285.08 191.851L285.209 193.448L285.274 195.036L285.27 196.611L285.193 198.171L285.04 199.711L284.808 201.228L284.495 202.719L284.098 204.182L283.616 205.611L283.049 207.006L282.397 208.362L281.659 209.678L280.839 210.951L279.937 212.18L278.957 213.363L277.901 214.499L276.773 215.588L275.578 216.628L274.32 217.621L273.005 218.567L271.638 219.467L270.225 220.323L268.771 221.135L267.283 221.907L265.767 222.64L264.228 223.339L262.674 224.004L261.11 224.641L259.542 225.251L257.975 225.84L256.416 226.411L254.868 226.968L253.338 227.515L251.829 228.057L250.346 228.597L248.894 229.141L247.476 229.693L246.096 230.257L244.758 230.838L243.463 231.441L242.216 232.071L241.02 232.734L239.876 233.433L238.787 234.175L237.756 234.965L236.785 235.81L235.876 236.714L235.027 237.68L234.233 238.706L233.487 239.791L232.784 240.93L232.119 242.123L231.487 243.366L230.882 244.657L230.299 245.992L229.733 247.369L229.181 248.784L228.637 250.233L228.096 251.714L227.555 253.22L227.009 254.749L226.453 256.296L225.883 257.855L225.296 259.421L224.687 260.989L224.052 262.554L223.389 264.109L222.694 265.649L221.963 267.167L221.195 268.657L220.385 270.114L219.534 271.531L218.637 272.902L217.695 274.221L216.706 275.484L215.669 276.684L214.584 277.817L213.452 278.879L212.273 279.866L211.047 280.774L209.778 281.601L208.465 282.345L207.112 283.004L205.72 283.578L204.293 284.067L202.834 284.47L201.345 284.79L199.829 285.029L198.291 285.188L196.733 285.27L195.159 285.28L193.572 285.221L191.976 285.097L190.373 284.912L188.767 284.672L187.161 284.382L185.557 284.046L183.957 283.67L182.365 283.259L180.782 282.818L179.209 282.352L177.649 281.867L176.103 281.367L174.571 280.857L173.055 280.341L171.555 279.824L170.072 279.31L168.606 278.803L167.156 278.306L165.724 277.822L164.307 277.356L162.907 276.91L161.522 276.486L160.151 276.087L158.794 275.715L157.45 275.373L156.118 275.062L154.797 274.783L153.485 274.538L152.181 274.329L150.885 274.156L149.594 274.019L148.307 273.921L147.023 273.86L145.741 273.838L144.459 273.854L143.175 273.908L141.889 274.001L140.599 274.131L139.303 274.299L138.001 274.503L136.69 274.742L135.371 275.015L134.04 275.321L132.698 275.659L131.344 276.026L129.975 276.421L128.593 276.841L127.195 277.284L125.781 277.747L124.351 278.228L122.904 278.723L121.44 279.229L119.96 279.742L118.462 280.259L116.949 280.775L115.42 281.286L113.876 281.788L112.318 282.276L110.747 282.745L109.165 283.191L107.575 283.607L105.976 283.989L104.373 284.331L102.767 284.629L101.16 284.878L99.557 285.071L97.9595 285.205L96.3709 285.275L94.7946 285.277L93.2338 285.206L91.6921 285.059L90.1728 284.834L88.6792 284.527L87.2147 284.137L85.7822 283.662L84.3849 283.101L83.0254 282.456L81.7063 281.725L80.4295 280.911L79.1971 280.016L78.0105 279.042L76.8707 277.991L75.7784 276.869L74.734 275.679L73.7372 274.426L72.7875 273.116L71.8839 271.753L71.025 270.343L70.2092 268.892L69.4343 267.406L68.6978 265.892L67.997 264.356L67.3289 262.802L66.6903 261.239L66.0775 259.671L65.487 258.104L64.9148 256.543L64.3569 254.995L63.8091 253.462L63.2673 251.952L62.727 250.467L62.1837 249.012L61.6329 247.592L61.0701 246.209L60.4904 244.866L59.8891 243.568L59.2612 242.318L58.6016 241.117L57.9053 239.968L57.1669 238.875L56.3807 237.839L55.5411 236.863L54.642 235.949L53.6806 235.096L52.6589 234.298L51.5792 233.548L50.4438 232.842L49.2553 232.175L48.0162 231.54L46.7292 230.932L45.3973 230.348L44.0237 229.781L42.6116 229.228L41.1647 228.684L39.6868 228.143L38.182 227.602L36.6547 227.056L35.1095 226.501L33.5513 225.932L31.9854 225.347L30.417 224.74L28.8519 224.107L27.2958 223.447L25.7547 222.754L24.2347 222.026L22.7418 221.261L21.2822 220.455L19.862 219.606L18.4871 218.714L17.1633 217.775L15.8961 216.79L14.6907 215.757L13.552 214.676L12.4843 213.547L11.4915 212.372L10.577 211.15L9.7434 209.884L8.99289 208.575L8.3269 207.224L7.74622 205.836L7.25098 204.412L6.84063 202.954L6.51398 201.467L6.26923 199.954L6.10401 198.417L6.0154 196.861L6 195.288L6.05397 193.702L6.17311 192.106L6.35289 190.504L6.58855 188.898L6.87512 187.292L7.2075 185.687L7.58051 184.088L7.98895 182.495L8.42763 180.911L8.89142 179.337L9.3753 177.776L9.87438 176.229L10.3839 174.696L10.8994 173.178L11.4164 171.677L11.931 170.193L12.439 168.725L12.937 167.274L13.4214 165.84L13.8892 164.422L14.3373 163.021L14.763 161.634L15.1639 160.263L15.5378 158.905L15.8825 157.56L16.1963 156.227L16.4777 154.904L16.7251 153.592L16.9374 152.288L17.1136 150.99L17.2529 149.699L17.3546 148.412L17.4183 147.128L17.4436 145.846L17.4305 144.564L17.3791 143.28L17.2894 141.995L17.162 140.705L16.9975 139.409L16.7966 138.108L16.5602 136.798L16.2895 135.479L15.9859 134.149L15.6508 132.808L15.286 131.455L14.8935 130.087L14.4754 128.706L14.0342 127.309L13.5724 125.897L13.0929 124.468L12.5989 123.022L12.0937 121.56L11.5808 120.081L11.0641 118.585L10.5477 117.072L10.0358 115.544L9.53285 114.002L9.04361 112.445L8.57288 110.875L8.12565 109.294L7.70702 107.704L7.32215 106.106L6.97627 104.503L6.67455 102.897L6.42212 101.291L6.22401 99.6868L6.08505 98.0887L6.00986 96.4992L6.00273 94.9218L6.06763 93.3597L6.2081 91.8163L6.42723 90.2951L6.72757 88.7993L7.1111 87.3323L7.57921 85.8972L8.13266 84.497L8.77153 83.1344L9.49524 81.8119L10.3026 80.5317L11.1916 79.2957L12.1598 78.1053L13.204 76.9618L14.3206 75.8657L15.5052 74.8174L16.7532 73.8168L18.0596 72.8634L19.4188 71.9562L20.8253 71.0938L22.273 70.2746L23.7559 69.4965L25.268 68.7571L26.803 68.0536L28.355 67.383L29.9179 66.7421L31.4858 66.1274L33.0531 65.5352L34.6143 64.9617L36.1642 64.4028L37.6977 63.8544L39.2102 63.3122L40.6971 62.7719L42.1543 62.2291L43.5779 61.6791L44.9642 61.1174L46.3097 60.5392L47.6113 59.9398L48.866 59.3141L50.0709 58.6573L51.2235 57.9641L52.3212 57.2292L53.3616 56.4471L54.3424 55.6119L55.2614 54.7177L56.1194 53.7612L56.9219 52.7442L57.675 51.669L58.3841 50.538L59.0548 49.3536L59.6922 48.1184L60.3014 46.8351L60.8875 45.5067L61.4552 44.1363L62.0093 42.7271L62.5544 41.2828L63.0952 39.8072L63.6361 38.3044L64.1815 36.7787L64.7357 35.2347L65.3029 33.6774L65.8872 32.1119L66.4925 30.5435L67.1225 28.9779L67.7808 27.4209L68.4708 25.8783L69.1956 24.3563L69.958 22.8611L70.7606 21.3986L71.6055 19.975L72.4947 18.5963L73.4296 17.2682L74.4113 15.9963L75.4405 14.7858L76.5176 13.6416L77.6423 12.5681L78.8141 11.5692L80.0321 10.6483L81.2949 9.80817L82.6008 9.05097L83.9477 8.37821L85.3332 7.79072L86.7548 7.28868L88.2094 6.87159L89.6941 6.53833L91.2056 6.28715L92.7405 6.11569L94.2956 6.0211L95.8673 6L97.4523 6.04859L99.0474 6.1627L100.649 6.33783L102.255 6.56922L103.861 6.85193L105.466 7.18085L107.066 7.55083L108.66 7.95664L110.244 8.3931L111.819 8.85508L113.381 9.33755L114.929 9.8356L116.464 10.3445L117.982 10.8597L119.485 11.3767L120.97 11.8916L122.439 12.4003L123.892 12.8992L125.327 13.3849L126.746 13.8541L128.149 14.3038L129.537 14.7314L130.909 15.1344L132.268 15.5105L133.614 15.8576L134.948 16.174L136.271 16.458L137.584 16.7081L138.889 16.9233L140.187 17.1024L141.479 17.2447L142.766 17.3494L144.05 17.4161L145.333 17.4445L146.615 17.4345L147.898 17.386L149.183 17.2994L150.473 17.175L151.768 17.0134L153.069 16.8154L154.378 16.5818L155.696 16.3138L157.025 16.0127L158.365 15.6801L159.717 15.3176L161.083 14.9272L162.464 14.5111L163.859 14.0715L165.271 13.6113L166.698 13.1331L168.142 12.6401L169.603 12.1357L171.081 11.6233L172.576 11.1067L174.087 10.5901L175.613 10.0777L177.155 9.57387L178.711 9.08335L180.28 8.61096L181.86 8.16167L183.449 7.74057L185.047 7.35282L186.649 7.00364L188.255 6.69821L189.862 6.44167L191.466 6.23905L193.064 6.09521L194.655 6.01477L196.233 6.00207L197.796 6.0611L199.341 6.19544L200.865 6.40821L202.362 6.702L203.832 7.07885L205.27 7.5402L206.673 8.08684L208.038 8.71892L209.364 9.43593L210.648 10.2367L211.887 11.1193L213.081 12.0813L214.229 13.1196L215.329 14.2305L216.381 15.4099L217.385 16.6531L218.342 17.955L219.253 19.3103L220.119 20.7132L220.941 22.1578L221.723 23.6382L222.465 25.1482L223.171 26.6817L223.844 28.2325L224.488 29.7948L225.104 31.3625L225.698 32.9301L226.273 34.492L226.833 36.043L227.382 37.578L227.924 39.0923L228.465 40.5814L229.007 42.0412L229.556 43.4676L230.117 44.857L230.694 46.2059L231.291 47.5111L231.915 48.7696L232.569 49.9786L233.259 51.1355L233.99 52.2376L234.768 53.2827L235.599 54.2684L236.488 55.1924L237.44 56.055L238.452 56.8618L239.523 57.6185L240.649 58.331L241.83 59.0045L243.061 59.6444L244.34 60.2557L245.665 60.8435L247.033 61.4125L248.439 61.9675L249.88 62.5132L251.354 63.0541L252.854 63.5948L254.378 64.1397L255.921 64.6931L257.478 65.2591L259.043 65.8419L260.611 66.4454L262.177 67.0733L263.735 67.7293L265.279 68.4166L266.803 69.1386L268.3 69.8979L269.766 70.6972L271.192 71.5387L272.575 72.4243L273.907 73.3555L275.184 74.3334L276.399 75.3589L277.549 76.4321L278.628 77.5531L279.633 78.7212L280.56 79.9355L281.407 81.1948L282.171 82.4974L282.85 83.8411L283.445 85.2237L283.954 86.6425L284.377 88.0946L284.717 89.577L284.975 91.0865L285.153 92.6197L285.253 94.1733L285.28 95.7439L285.237 97.328L285.128 98.9224L284.957 100.524L284.73 102.129L284.451 103.736L284.126 105.341L283.759 106.941L283.356 108.535L282.922 110.121L282.462 111.696L281.981 113.259L281.484 114.809L280.975 116.344L280.461 117.864L279.944 119.368L279.428 120.855L278.919 122.326L278.419 123.779L277.932 125.216L277.462 126.636L277.01 128.04L276.581 129.429L276.176 130.803L275.798 132.163L275.448 133.51L275.129 134.845L274.843 136.169L274.59 137.483L274.372 138.788L274.19 140.087L274.044 141.379L273.937 142.666L273.867 143.951L273.836 145.233L273.834 145.642Z" fill="white"/>
<path fill-rule="evenodd" clip-rule="evenodd" d="M273.834 145.642V145.642L273.853 146.924L273.91 148.207L274.006 149.494L274.139 150.784L274.31 152.081L274.516 153.384L274.758 154.695L275.034 156.015L275.343 157.347L275.683 158.69L276.052 160.045L276.449 161.415L276.871 162.799L277.316 164.198L277.781 165.613L278.263 167.045L278.759 168.493L279.265 169.958L279.779 171.44L280.296 172.938L280.812 174.453L281.323 175.983L281.824 177.529L282.31 179.088L282.778 180.659L283.221 182.242L283.634 183.833L284.013 185.432L284.353 187.036L284.647 188.642L284.891 190.248L285.08 191.851L285.209 193.448L285.274 195.036L285.27 196.611L285.193 198.171L285.04 199.711L284.808 201.228L284.495 202.719L284.098 204.182L283.616 205.611L283.049 207.006L282.397 208.362L281.659 209.678L280.839 210.951L279.937 212.18L278.957 213.363L277.901 214.499L276.773 215.588L275.578 216.628L274.32 217.621L273.005 218.567L271.638 219.467L270.225 220.323L268.771 221.135L267.283 221.907L265.767 222.64L264.228 223.339L262.674 224.004L261.11 224.641L259.542 225.251L257.975 225.84L256.416 226.411L254.868 226.968L253.338 227.515L251.829 228.057L250.346 228.597L248.894 229.141L247.476 229.693L246.096 230.257L244.758 230.838L243.463 231.441L242.216 232.071L241.02 232.734L239.876 233.433L238.787 234.175L237.756 234.965L236.785 235.81L235.876 236.714L235.027 237.68L234.233 238.706L233.487 239.791L232.784 240.93L232.119 242.123L231.487 243.366L230.882 244.657L230.299 245.992L229.733 247.369L229.181 248.784L228.637 250.233L228.096 251.714L227.555 253.22L227.009 254.749L226.453 256.296L225.883 257.855L225.296 259.421L224.687 260.989L224.052 262.554L223.389 264.109L222.694 265.649L221.963 267.167L221.195 268.657L220.385 270.114L219.534 271.531L218.637 272.902L217.695 274.221L216.706 275.484L215.669 276.684L214.584 277.817L213.452 278.879L212.273 279.866L211.047 280.774L209.778 281.601L208.465 282.345L207.112 283.004L205.72 283.578L204.293 284.067L202.834 284.47L201.345 284.79L199.829 285.029L198.291 285.188L196.733 285.27L195.159 285.28L193.572 285.221L191.976 285.097L190.373 284.912L188.767 284.672L187.161 284.382L185.557 284.046L183.957 283.67L182.365 283.259L180.782 282.818L179.209 282.352L177.649 281.867L176.103 281.367L174.571 280.857L173.055 280.341L171.555 279.824L170.072 279.31L168.606 278.803L167.156 278.306L165.724 277.822L164.307 277.356L162.907 276.91L161.522 276.486L160.151 276.087L158.794 275.715L157.45 275.373L156.118 275.062L154.797 274.783L153.485 274.538L152.181 274.329L150.885 274.156L149.594 274.019L148.307 273.921L147.023 273.86L145.741 273.838L144.459 273.854L143.175 273.908L141.889 274.001L140.599 274.131L139.303 274.299L138.001 274.503L136.69 274.742L135.371 275.015L134.04 275.321L132.698 275.659L131.344 276.026L129.975 276.421L128.593 276.841L127.195 277.284L125.781 277.747L124.351 278.228L122.904 278.723L121.44 279.229L119.96 279.742L118.462 280.259L116.949 280.775L115.42 281.286L113.876 281.788L112.318 282.276L110.747 282.745L109.165 283.191L107.575 283.607L105.976 283.989L104.373 284.331L102.767 284.629L101.16 284.878L99.557 285.071L97.9595 285.205L96.3709 285.275L94.7946 285.277L93.2338 285.206L91.6921 285.059L90.1728 284.834L88.6792 284.527L87.2147 284.137L85.7822 283.662L84.3849 283.101L83.0254 282.456L81.7063 281.725L80.4295 280.911L79.1971 280.016L78.0105 279.042L76.8707 277.991L75.7784 276.869L74.734 275.679L73.7372 274.426L72.7875 273.116L71.8839 271.753L71.025 270.343L70.2092 268.892L69.4343 267.406L68.6978 265.892L67.997 264.356L67.3289 262.802L66.6903 261.239L66.0775 259.671L65.487 258.104L64.9148 256.543L64.3569 254.995L63.8091 253.462L63.2673 251.952L62.727 250.467L62.1837 249.012L61.6329 247.592L61.0701 246.209L60.4904 244.866L59.8891 243.568L59.2612 242.318L58.6016 241.117L57.9053 239.968L57.1669 238.875L56.3807 237.839L55.5411 236.863L54.642 235.949L53.6806 235.096L52.6589 234.298L51.5792 233.548L50.4438 232.842L49.2553 232.175L48.0162 231.54L46.7292 230.932L45.3973 230.348L44.0237 229.781L42.6116 229.228L41.1647 228.684L39.6868 228.143L38.182 227.602L36.6547 227.056L35.1095 226.501L33.5513 225.932L31.9854 225.347L30.417 224.74L28.8519 224.107L27.2958 223.447L25.7547 222.754L24.2347 222.026L22.7418 221.261L21.2822 220.455L19.862 219.606L18.4871 218.714L17.1633 217.775L15.8961 216.79L14.6907 215.757L13.552 214.676L12.4843 213.547L11.4915 212.372L10.577 211.15L9.7434 209.884L8.99289 208.575L8.3269 207.224L7.74622 205.836L7.25098 204.412L6.84063 202.954L6.51398 201.467L6.26923 199.954L6.10401 198.417L6.0154 196.861L6 195.288L6.05397 193.702L6.17311 192.106L6.35289 190.504L6.58855 188.898L6.87512 187.292L7.2075 185.687L7.58051 184.088L7.98895 182.495L8.42763 180.911L8.89142 179.337L9.3753 177.776L9.87438 176.229L10.3839 174.696L10.8994 173.178L11.4164 171.677L11.931 170.193L12.439 168.725L12.937 167.274L13.4214 165.84L13.8892 164.422L14.3373 163.021L14.763 161.634L15.1639 160.263L15.5378 158.905L15.8825 157.56L16.1963 156.227L16.4777 154.904L16.7251 153.592L16.9374 152.288L17.1136 150.99L17.2529 149.699L17.3546 148.412L17.4183 147.128L17.4436 145.846L17.4305 144.564L17.3791 143.28L17.2894 141.995L17.162 140.705L16.9975 139.409L16.7966 138.108L16.5602 136.798L16.2895 135.479L15.9859 134.149L15.6508 132.808L15.286 131.455L14.8935 130.087L14.4754 128.706L14.0342 127.309L13.5724 125.897L13.0929 124.468L12.5989 123.022L12.0937 121.56L11.5808 120.081L11.0641 118.585L10.5477 117.072L10.0358 115.544L9.53285 114.002L9.04361 112.445L8.57288 110.875L8.12565 109.294L7.70702 107.704L7.32215 106.106L6.97627 104.503L6.67455 102.897L6.42212 101.291L6.22401 99.6868L6.08505 98.0887L6.00986 96.4992L6.00273 94.9218L6.06763 93.3597L6.2081 91.8163L6.42723 90.2951L6.72757 88.7993L7.1111 87.3323L7.57921 85.8972L8.13266 84.497L8.77153 83.1344L9.49524 81.8119L10.3026 80.5317L11.1916 79.2957L12.1598 78.1053L13.204 76.9618L14.3206 75.8657L15.5052 74.8174L16.7532 73.8168L18.0596 72.8634L19.4188 71.9562L20.8253 71.0938L22.273 70.2746L23.7559 69.4965L25.268 68.7571L26.803 68.0536L28.355 67.383L29.9179 66.7421L31.4858 66.1274L33.0531 65.5352L34.6143 64.9617L36.1642 64.4028L37.6977 63.8544L39.2102 63.3122L40.6971 62.7719L42.1543 62.2291L43.5779 61.6791L44.9642 61.1174L46.3097 60.5392L47.6113 59.9398L48.866 59.3141L50.0709 58.6573L51.2235 57.9641L52.3212 57.2292L53.3616 56.4471L54.3424 55.6119L55.2614 54.7177L56.1194 53.7612L56.9219 52.7442L57.675 51.669L58.3841 50.538L59.0548 49.3536L59.6922 48.1184L60.3014 46.8351L60.8875 45.5067L61.4552 44.1363L62.0093 42.7271L62.5544 41.2828L63.0952 39.8072L63.6361 38.3044L64.1815 36.7787L64.7357 35.2347L65.3029 33.6774L65.8872 32.1119L66.4925 30.5435L67.1225 28.9779L67.7808 27.4209L68.4708 25.8783L69.1956 24.3563L69.958 22.8611L70.7606 21.3986L71.6055 19.975L72.4947 18.5963L73.4296 17.2682L74.4113 15.9963L75.4405 14.7858L76.5176 13.6416L77.6423 12.5681L78.8141 11.5692L80.0321 10.6483L81.2949 9.80817L82.6008 9.05097L83.9477 8.37821L85.3332 7.79072L86.7548 7.28868L88.2094 6.87159L89.6941 6.53833L91.2056 6.28715L92.7405 6.11569L94.2956 6.0211L95.8673 6L97.4523 6.04859L99.0474 6.1627L100.649 6.33783L102.255 6.56922L103.861 6.85193L105.466 7.18085L107.066 7.55083L108.66 7.95664L110.244 8.3931L111.819 8.85508L113.381 9.33755L114.929 9.8356L116.464 10.3445L117.982 10.8597L119.485 11.3767L120.97 11.8916L122.439 12.4003L123.892 12.8992L125.327 13.3849L126.746 13.8541L128.149 14.3038L129.537 14.7314L130.909 15.1344L132.268 15.5105L133.614 15.8576L134.948 16.174L136.271 16.458L137.584 16.7081L138.889 16.9233L140.187 17.1024L141.479 17.2447L142.766 17.3494L144.05 17.4161L145.333 17.4445L146.615 17.4345L147.898 17.386L149.183 17.2994L150.473 17.175L151.768 17.0134L153.069 16.8154L154.378 16.5818L155.696 16.3138L157.025 16.0127L158.365 15.6801L159.717 15.3176L161.083 14.9272L162.464 14.5111L163.859 14.0715L165.271 13.6113L166.698 13.1331L168.142 12.6401L169.603 12.1357L171.081 11.6233L172.576 11.1067L174.087 10.5901L175.613 10.0777L177.155 9.57387L178.711 9.08335L180.28 8.61096L181.86 8.16167L183.449 7.74057L185.047 7.35282L186.649 7.00364L188.255 6.69821L189.862 6.44167L191.466 6.23905L193.064 6.09521L194.655 6.01477L196.233 6.00207L197.796 6.0611L199.341 6.19544L200.865 6.40821L202.362 6.702L203.832 7.07885L205.27 7.5402L206.673 8.08684L208.038 8.71892L209.364 9.43593L210.648 10.2367L211.887 11.1193L213.081 12.0813L214.229 13.1196L215.329 14.2305L216.381 15.4099L217.385 16.6531L218.342 17.955L219.253 19.3103L220.119 20.7132L220.941 22.1578L221.723 23.6382L222.465 25.1482L223.171 26.6817L223.844 28.2325L224.488 29.7948L225.104 31.3625L225.698 32.9301L226.273 34.492L226.833 36.043L227.382 37.578L227.924 39.0923L228.465 40.5814L229.007 42.0412L229.556 43.4676L230.117 44.857L230.694 46.2059L231.291 47.5111L231.915 48.7696L232.569 49.9786L233.259 51.1355L233.99 52.2376L234.768 53.2827L235.599 54.2684L236.488 55.1924L237.44 56.055L238.452 56.8618L239.523 57.6185L240.649 58.331L241.83 59.0045L243.061 59.6444L244.34 60.2557L245.665 60.8435L247.033 61.4125L248.439 61.9675L249.88 62.5132L251.354 63.0541L252.854 63.5948L254.378 64.1397L255.921 64.6931L257.478 65.2591L259.043 65.8419L260.611 66.4454L262.177 67.0733L263.735 67.7293L265.279 68.4166L266.803 69.1386L268.3 69.8979L269.766 70.6972L271.192 71.5387L272.575 72.4243L273.907 73.3555L275.184 74.3334L276.399 75.3589L277.549 76.4321L278.628 77.5531L279.633 78.7212L280.56 79.9355L281.407 81.1948L282.171 82.4974L282.85 83.8411L283.445 85.2237L283.954 86.6425L284.377 88.0946L284.717 89.577L284.975 91.0865L285.153 92.6197L285.253 94.1733L285.28 95.7439L285.237 97.328L285.128 98.9224L284.957 100.524L284.73 102.129L284.451 103.736L284.126 105.341L283.759 106.941L283.356 108.535L282.922 110.121L282.462 111.696L281.981 113.259L281.484 114.809L280.975 116.344L280.461 117.864L279.944 119.368L279.428 120.855L278.919 122.326L278.419 123.779L277.932 125.216L277.462 126.636L277.01 128.04L276.581 129.429L276.176 130.803L275.798 132.163L275.448 133.51L275.129 134.845L274.843 136.169L274.59 137.483L274.372 138.788L274.19 140.087L274.044 141.379L273.937 142.666L273.867 143.951L273.836 145.233L273.834 145.642Z" fill="white"/>
<path fill-rule="evenodd" clip-rule="evenodd" d="M273.834 145.642V145.642L273.853 146.924L273.91 148.207L274.006 149.494L274.139 150.784L274.31 152.081L274.516 153.384L274.758 154.695L275.034 156.015L275.343 157.347L275.683 158.69L276.052 160.045L276.449 161.415L276.871 162.799L277.316 164.198L277.781 165.613L278.263 167.045L278.759 168.493L279.265 169.958L279.779 171.44L280.296 172.938L280.812 174.453L281.323 175.983L281.824 177.529L282.31 179.088L282.778 180.659L283.221 182.242L283.634 183.833L284.013 185.432L284.353 187.036L284.647 188.642L284.891 190.248L285.08 191.851L285.209 193.448L285.274 195.036L285.27 196.611L285.193 198.171L285.04 199.711L284.808 201.228L284.495 202.719L284.098 204.182L283.616 205.611L283.049 207.006L282.397 208.362L281.659 209.678L280.839 210.951L279.937 212.18L278.957 213.363L277.901 214.499L276.773 215.588L275.578 216.628L274.32 217.621L273.005 218.567L271.638 219.467L270.225 220.323L268.771 221.135L267.283 221.907L265.767 222.64L264.228 223.339L262.674 224.004L261.11 224.641L259.542 225.251L257.975 225.84L256.416 226.411L254.868 226.968L253.338 227.515L251.829 228.057L250.346 228.597L248.894 229.141L247.476 229.693L246.096 230.257L244.758 230.838L243.463 231.441L242.216 232.071L241.02 232.734L239.876 233.433L238.787 234.175L237.756 234.965L236.785 235.81L235.876 236.714L235.027 237.68L234.233 238.706L233.487 239.791L232.784 240.93L232.119 242.123L231.487 243.366L230.882 244.657L230.299 245.992L229.733 247.369L229.181 248.784L228.637 250.233L228.096 251.714L227.555 253.22L227.009 254.749L226.453 256.296L225.883 257.855L225.296 259.421L224.687 260.989L224.052 262.554L223.389 264.109L222.694 265.649L221.963 267.167L221.195 268.657L220.385 270.114L219.534 271.531L218.637 272.902L217.695 274.221L216.706 275.484L215.669 276.684L214.584 277.817L213.452 278.879L212.273 279.866L211.047 280.774L209.778 281.601L208.465 282.345L207.112 283.004L205.72 283.578L204.293 284.067L202.834 284.47L201.345 284.79L199.829 285.029L198.291 285.188L196.733 285.27L195.159 285.28L193.572 285.221L191.976 285.097L190.373 284.912L188.767 284.672L187.161 284.382L185.557 284.046L183.957 283.67L182.365 283.259L180.782 282.818L179.209 282.352L177.649 281.867L176.103 281.367L174.571 280.857L173.055 280.341L171.555 279.824L170.072 279.31L168.606 278.803L167.156 278.306L165.724 277.822L164.307 277.356L162.907 276.91L161.522 276.486L160.151 276.087L158.794 275.715L157.45 275.373L156.118 275.062L154.797 274.783L153.485 274.538L152.181 274.329L150.885 274.156L149.594 274.019L148.307 273.921L147.023 273.86L145.741 273.838L144.459 273.854L143.175 273.908L141.889 274.001L140.599 274.131L139.303 274.299L138.001 274.503L136.69 274.742L135.371 275.015L134.04 275.321L132.698 275.659L131.344 276.026L129.975 276.421L128.593 276.841L127.195 277.284L125.781 277.747L124.351 278.228L122.904 278.723L121.44 279.229L119.96 279.742L118.462 280.259L116.949 280.775L115.42 281.286L113.876 281.788L112.318 282.276L110.747 282.745L109.165 283.191L107.575 283.607L105.976 283.989L104.373 284.331L102.767 284.629L101.16 284.878L99.557 285.071L97.9595 285.205L96.3709 285.275L94.7946 285.277L93.2338 285.206L91.6921 285.059L90.1728 284.834L88.6792 284.527L87.2147 284.137L85.7822 283.662L84.3849 283.101L83.0254 282.456L81.7063 281.725L80.4295 280.911L79.1971 280.016L78.0105 279.042L76.8707 277.991L75.7784 276.869L74.734 275.679L73.7372 274.426L72.7875 273.116L71.8839 271.753L71.025 270.343L70.2092 268.892L69.4343 267.406L68.6978 265.892L67.997 264.356L67.3289 262.802L66.6903 261.239L66.0775 259.671L65.487 258.104L64.9148 256.543L64.3569 254.995L63.8091 253.462L63.2673 251.952L62.727 250.467L62.1837 249.012L61.6329 247.592L61.0701 246.209L60.4904 244.866L59.8891 243.568L59.2612 242.318L58.6016 241.117L57.9053 239.968L57.1669 238.875L56.3807 237.839L55.5411 236.863L54.642 235.949L53.6806 235.096L52.6589 234.298L51.5792 233.548L50.4438 232.842L49.2553 232.175L48.0162 231.54L46.7292 230.932L45.3973 230.348L44.0237 229.781L42.6116 229.228L41.1647 228.684L39.6868 228.143L38.182 227.602L36.6547 227.056L35.1095 226.501L33.5513 225.932L31.9854 225.347L30.417 224.74L28.8519 224.107L27.2958 223.447L25.7547 222.754L24.2347 222.026L22.7418 221.261L21.2822 220.455L19.862 219.606L18.4871 218.714L17.1633 217.775L15.8961 216.79L14.6907 215.757L13.552 214.676L12.4843 213.547L11.4915 212.372L10.577 211.15L9.7434 209.884L8.99289 208.575L8.3269 207.224L7.74622 205.836L7.25098 204.412L6.84063 202.954L6.51398 201.467L6.26923 199.954L6.10401 198.417L6.0154 196.861L6 195.288L6.05397 193.702L6.17311 192.106L6.35289 190.504L6.58855 188.898L6.87512 187.292L7.2075 185.687L7.58051 184.088L7.98895 182.495L8.42763 180.911L8.89142 179.337L9.3753 177.776L9.87438 176.229L10.3839 174.696L10.8994 173.178L11.4164 171.677L11.931 170.193L12.439 168.725L12.937 167.274L13.4214 165.84L13.8892 164.422L14.3373 163.021L14.763 161.634L15.1639 160.263L15.5378 158.905L15.8825 157.56L16.1963 156.227L16.4777 154.904L16.7251 153.592L16.9374 152.288L17.1136 150.99L17.2529 149.699L17.3546 148.412L17.4183 147.128L17.4436 145.846L17.4305 144.564L17.3791 143.28L17.2894 141.995L17.162 140.705L16.9975 139.409L16.7966 138.108L16.5602 136.798L16.2895 135.479L15.9859 134.149L15.6508 132.808L15.286 131.455L14.8935 130.087L14.4754 128.706L14.0342 127.309L13.5724 125.897L13.0929 124.468L12.5989 123.022L12.0937 121.56L11.5808 120.081L11.0641 118.585L10.5477 117.072L10.0358 115.544L9.53285 114.002L9.04361 112.445L8.57288 110.875L8.12565 109.294L7.70702 107.704L7.32215 106.106L6.97627 104.503L6.67455 102.897L6.42212 101.291L6.22401 99.6868L6.08505 98.0887L6.00986 96.4992L6.00273 94.9218L6.06763 93.3597L6.2081 91.8163L6.42723 90.2951L6.72757 88.7993L7.1111 87.3323L7.57921 85.8972L8.13266 84.497L8.77153 83.1344L9.49524 81.8119L10.3026 80.5317L11.1916 79.2957L12.1598 78.1053L13.204 76.9618L14.3206 75.8657L15.5052 74.8174L16.7532 73.8168L18.0596 72.8634L19.4188 71.9562L20.8253 71.0938L22.273 70.2746L23.7559 69.4965L25.268 68.7571L26.803 68.0536L28.355 67.383L29.9179 66.7421L31.4858 66.1274L33.0531 65.5352L34.6143 64.9617L36.1642 64.4028L37.6977 63.8544L39.2102 63.3122L40.6971 62.7719L42.1543 62.2291L43.5779 61.6791L44.9642 61.1174L46.3097 60.5392L47.6113 59.9398L48.866 59.3141L50.0709 58.6573L51.2235 57.9641L52.3212 57.2292L53.3616 56.4471L54.3424 55.6119L55.2614 54.7177L56.1194 53.7612L56.9219 52.7442L57.675 51.669L58.3841 50.538L59.0548 49.3536L59.6922 48.1184L60.3014 46.8351L60.8875 45.5067L61.4552 44.1363L62.0093 42.7271L62.5544 41.2828L63.0952 39.8072L63.6361 38.3044L64.1815 36.7787L64.7357 35.2347L65.3029 33.6774L65.8872 32.1119L66.4925 30.5435L67.1225 28.9779L67.7808 27.4209L68.4708 25.8783L69.1956 24.3563L69.958 22.8611L70.7606 21.3986L71.6055 19.975L72.4947 18.5963L73.4296 17.2682L74.4113 15.9963L75.4405 14.7858L76.5176 13.6416L77.6423 12.5681L78.8141 11.5692L80.0321 10.6483L81.2949 9.80817L82.6008 9.05097L83.9477 8.37821L85.3332 7.79072L86.7548 7.28868L88.2094 6.87159L89.6941 6.53833L91.2056 6.28715L92.7405 6.11569L94.2956 6.0211L95.8673 6L97.4523 6.04859L99.0474 6.1627L100.649 6.33783L102.255 6.56922L103.861 6.85193L105.466 7.18085L107.066 7.55083L108.66 7.95664L110.244 8.3931L111.819 8.85508L113.381 9.33755L114.929 9.8356L116.464 10.3445L117.982 10.8597L119.485 11.3767L120.97 11.8916L122.439 12.4003L123.892 12.8992L125.327 13.3849L126.746 13.8541L128.149 14.3038L129.537 14.7314L130.909 15.1344L132.268 15.5105L133.614 15.8576L134.948 16.174L136.271 16.458L137.584 16.7081L138.889 16.9233L140.187 17.1024L141.479 17.2447L142.766 17.3494L144.05 17.4161L145.333 17.4445L146.615 17.4345L147.898 17.386L149.183 17.2994L150.473 17.175L151.768 17.0134L153.069 16.8154L154.378 16.5818L155.696 16.3138L157.025 16.0127L158.365 15.6801L159.717 15.3176L161.083 14.9272L162.464 14.5111L163.859 14.0715L165.271 13.6113L166.698 13.1331L168.142 12.6401L169.603 12.1357L171.081 11.6233L172.576 11.1067L174.087 10.5901L175.613 10.0777L177.155 9.57387L178.711 9.08335L180.28 8.61096L181.86 8.16167L183.449 7.74057L185.047 7.35282L186.649 7.00364L188.255 6.69821L189.862 6.44167L191.466 6.23905L193.064 6.09521L194.655 6.01477L196.233 6.00207L197.796 6.0611L199.341 6.19544L200.865 6.40821L202.362 6.702L203.832 7.07885L205.27 7.5402L206.673 8.08684L208.038 8.71892L209.364 9.43593L210.648 10.2367L211.887 11.1193L213.081 12.0813L214.229 13.1196L215.329 14.2305L216.381 15.4099L217.385 16.6531L218.342 17.955L219.253 19.3103L220.119 20.7132L220.941 22.1578L221.723 23.6382L222.465 25.1482L223.171 26.6817L223.844 28.2325L224.488 29.7948L225.104 31.3625L225.698 32.9301L226.273 34.492L226.833 36.043L227.382 37.578L227.924 39.0923L228.465 40.5814L229.007 42.0412L229.556 43.4676L230.117 44.857L230.694 46.2059L231.291 47.5111L231.915 48.7696L232.569 49.9786L233.259 51.1355L233.99 52.2376L234.768 53.2827L235.599 54.2684L236.488 55.1924L237.44 56.055L238.452 56.8618L239.523 57.6185L240.649 58.331L241.83 59.0045L243.061 59.6444L244.34 60.2557L245.665 60.8435L247.033 61.4125L248.439 61.9675L249.88 62.5132L251.354 63.0541L252.854 63.5948L254.378 64.1397L255.921 64.6931L257.478 65.2591L259.043 65.8419L260.611 66.4454L262.177 67.0733L263.735 67.7293L265.279 68.4166L266.803 69.1386L268.3 69.8979L269.766 70.6972L271.192 71.5387L272.575 72.4243L273.907 73.3555L275.184 74.3334L276.399 75.3589L277.549 76.4321L278.628 77.5531L279.633 78.7212L280.56 79.9355L281.407 81.1948L282.171 82.4974L282.85 83.8411L283.445 85.2237L283.954 86.6425L284.377 88.0946L284.717 89.577L284.975 91.0865L285.153 92.6197L285.253 94.1733L285.28 95.7439L285.237 97.328L285.128 98.9224L284.957 100.524L284.73 102.129L284.451 103.736L284.126 105.341L283.759 106.941L283.356 108.535L282.922 110.121L282.462 111.696L281.981 113.259L281.484 114.809L280.975 116.344L280.461 117.864L279.944 119.368L279.428 120.855L278.919 122.326L278.419 123.779L277.932 125.216L277.462 126.636L277.01 128.04L276.581 129.429L276.176 130.803L275.798 132.163L275.448 133.51L275.129 134.845L274.843 136.169L274.59 137.483L274.372 138.788L274.19 140.087L274.044 141.379L273.937 142.666L273.867 143.951L273.836 145.233L273.834 145.642Z" fill="white"/>
<path fill-rule="evenodd" clip-rule="evenodd" d="M273.834 145.642V145.642L273.853 146.924L273.91 148.207L274.006 149.494L274.139 150.784L274.31 152.081L274.516 153.384L274.758 154.695L275.034 156.015L275.343 157.347L275.683 158.69L276.052 160.045L276.449 161.415L276.871 162.799L277.316 164.198L277.781 165.613L278.263 167.045L278.759 168.493L279.265 169.958L279.779 171.44L280.296 172.938L280.812 174.453L281.323 175.983L281.824 177.529L282.31 179.088L282.778 180.659L283.221 182.242L283.634 183.833L284.013 185.432L284.353 187.036L284.647 188.642L284.891 190.248L285.08 191.851L285.209 193.448L285.274 195.036L285.27 196.611L285.193 198.171L285.04 199.711L284.808 201.228L284.495 202.719L284.098 204.182L283.616 205.611L283.049 207.006L282.397 208.362L281.659 209.678L280.839 210.951L279.937 212.18L278.957 213.363L277.901 214.499L276.773 215.588L275.578 216.628L274.32 217.621L273.005 218.567L271.638 219.467L270.225 220.323L268.771 221.135L267.283 221.907L265.767 222.64L264.228 223.339L262.674 224.004L261.11 224.641L259.542 225.251L257.975 225.84L256.416 226.411L254.868 226.968L253.338 227.515L251.829 228.057L250.346 228.597L248.894 229.141L247.476 229.693L246.096 230.257L244.758 230.838L243.463 231.441L242.216 232.071L241.02 232.734L239.876 233.433L238.787 234.175L237.756 234.965L236.785 235.81L235.876 236.714L235.027 237.68L234.233 238.706L233.487 239.791L232.784 240.93L232.119 242.123L231.487 243.366L230.882 244.657L230.299 245.992L229.733 247.369L229.181 248.784L228.637 250.233L228.096 251.714L227.555 253.22L227.009 254.749L226.453 256.296L225.883 257.855L225.296 259.421L224.687 260.989L224.052 262.554L223.389 264.109L222.694 265.649L221.963 267.167L221.195 268.657L220.385 270.114L219.534 271.531L218.637 272.902L217.695 274.221L216.706 275.484L215.669 276.684L214.584 277.817L213.452 278.879L212.273 279.866L211.047 280.774L209.778 281.601L208.465 282.345L207.112 283.004L205.72 283.578L204.293 284.067L202.834 284.47L201.345 284.79L199.829 285.029L198.291 285.188L196.733 285.27L195.159 285.28L193.572 285.221L191.976 285.097L190.373 284.912L188.767 284.672L187.161 284.382L185.557 284.046L183.957 283.67L182.365 283.259L180.782 282.818L179.209 282.352L177.649 281.867L176.103 281.367L174.571 280.857L173.055 280.341L171.555 279.824L170.072 279.31L168.606 278.803L167.156 278.306L165.724 277.822L164.307 277.356L162.907 276.91L161.522 276.486L160.151 276.087L158.794 275.715L157.45 275.373L156.118 275.062L154.797 274.783L153.485 274.538L152.181 274.329L150.885 274.156L149.594 274.019L148.307 273.921L147.023 273.86L145.741 273.838L144.459 273.854L143.175 273.908L141.889 274.001L140.599 274.131L139.303 274.299L138.001 274.503L136.69 274.742L135.371 275.015L134.04 275.321L132.698 275.659L131.344 276.026L129.975 276.421L128.593 276.841L127.195 277.284L125.781 277.747L124.351 278.228L122.904 278.723L121.44 279.229L119.96 279.742L118.462 280.259L116.949 280.775L115.42 281.286L113.876 281.788L112.318 282.276L110.747 282.745L109.165 283.191L107.575 283.607L105.976 283.989L104.373 284.331L102.767 284.629L101.16 284.878L99.557 285.071L97.9595 285.205L96.3709 285.275L94.7946 285.277L93.2338 285.206L91.6921 285.059L90.1728 284.834L88.6792 284.527L87.2147 284.137L85.7822 283.662L84.3849 283.101L83.0254 282.456L81.7063 281.725L80.4295 280.911L79.1971 280.016L78.0105 279.042L76.8707 277.991L75.7784 276.869L74.734 275.679L73.7372 274.426L72.7875 273.116L71.8839 271.753L71.025 270.343L70.2092 268.892L69.4343 267.406L68.6978 265.892L67.997 264.356L67.3289 262.802L66.6903 261.239L66.0775 259.671L65.487 258.104L64.9148 256.543L64.3569 254.995L63.8091 253.462L63.2673 251.952L62.727 250.467L62.1837 249.012L61.6329 247.592L61.0701 246.209L60.4904 244.866L59.8891 243.568L59.2612 242.318L58.6016 241.117L57.9053 239.968L57.1669 238.875L56.3807 237.839L55.5411 236.863L54.642 235.949L53.6806 235.096L52.6589 234.298L51.5792 233.548L50.4438 232.842L49.2553 232.175L48.0162 231.54L46.7292 230.932L45.3973 230.348L44.0237 229.781L42.6116 229.228L41.1647 228.684L39.6868 228.143L38.182 227.602L36.6547 227.056L35.1095 226.501L33.5513 225.932L31.9854 225.347L30.417 224.74L28.8519 224.107L27.2958 223.447L25.7547 222.754L24.2347 222.026L22.7418 221.261L21.2822 220.455L19.862 219.606L18.4871 218.714L17.1633 217.775L15.8961 216.79L14.6907 215.757L13.552 214.676L12.4843 213.547L11.4915 212.372L10.577 211.15L9.7434 209.884L8.99289 208.575L8.3269 207.224L7.74622 205.836L7.25098 204.412L6.84063 202.954L6.51398 201.467L6.26923 199.954L6.10401 198.417L6.0154 196.861L6 195.288L6.05397 193.702L6.17311 192.106L6.35289 190.504L6.58855 188.898L6.87512 187.292L7.2075 185.687L7.58051 184.088L7.98895 182.495L8.42763 180.911L8.89142 179.337L9.3753 177.776L9.87438 176.229L10.3839 174.696L10.8994 173.178L11.4164 171.677L11.931 170.193L12.439 168.725L12.937 167.274L13.4214 165.84L13.8892 164.422L14.3373 163.021L14.763 161.634L15.1639 160.263L15.5378 158.905L15.8825 157.56L16.1963 156.227L16.4777 154.904L16.7251 153.592L16.9374 152.288L17.1136 150.99L17.2529 149.699L17.3546 148.412L17.4183 147.128L17.4436 145.846L17.4305 144.564L17.3791 143.28L17.2894 141.995L17.162 140.705L16.9975 139.409L16.7966 138.108L16.5602 136.798L16.2895 135.479L15.9859 134.149L15.6508 132.808L15.286 131.455L14.8935 130.087L14.4754 128.706L14.0342 127.309L13.5724 125.897L13.0929 124.468L12.5989 123.022L12.0937 121.56L11.5808 120.081L11.0641 118.585L10.5477 117.072L10.0358 115.544L9.53285 114.002L9.04361 112.445L8.57288 110.875L8.12565 109.294L7.70702 107.704L7.32215 106.106L6.97627 104.503L6.67455 102.897L6.42212 101.291L6.22401 99.6868L6.08505 98.0887L6.00986 96.4992L6.00273 94.9218L6.06763 93.3597L6.2081 91.8163L6.42723 90.2951L6.72757 88.7993L7.1111 87.3323L7.57921 85.8972L8.13266 84.497L8.77153 83.1344L9.49524 81.8119L10.3026 80.5317L11.1916 79.2957L12.1598 78.1053L13.204 76.9618L14.3206 75.8657L15.5052 74.8174L16.7532 73.8168L18.0596 72.8634L19.4188 71.9562L20.8253 71.0938L22.273 70.2746L23.7559 69.4965L25.268 68.7571L26.803 68.0536L28.355 67.383L29.9179 66.7421L31.4858 66.1274L33.0531 65.5352L34.6143 64.9617L36.1642 64.4028L37.6977 63.8544L39.2102 63.3122L40.6971 62.7719L42.1543 62.2291L43.5779 61.6791L44.9642 61.1174L46.3097 60.5392L47.6113 59.9398L48.866 59.3141L50.0709 58.6573L51.2235 57.9641L52.3212 57.2292L53.3616 56.4471L54.3424 55.6119L55.2614 54.7177L56.1194 53.7612L56.9219 52.7442L57.675 51.669L58.3841 50.538L59.0548 49.3536L59.6922 48.1184L60.3014 46.8351L60.8875 45.5067L61.4552 44.1363L62.0093 42.7271L62.5544 41.2828L63.0952 39.8072L63.6361 38.3044L64.1815 36.7787L64.7357 35.2347L65.3029 33.6774L65.8872 32.1119L66.4925 30.5435L67.1225 28.9779L67.7808 27.4209L68.4708 25.8783L69.1956 24.3563L69.958 22.8611L70.7606 21.3986L71.6055 19.975L72.4947 18.5963L73.4296 17.2682L74.4113 15.9963L75.4405 14.7858L76.5176 13.6416L77.6423 12.5681L78.8141 11.5692L80.0321 10.6483L81.2949 9.80817L82.6008 9.05097L83.9477 8.37821L85.3332 7.79072L86.7548 7.28868L88.2094 6.87159L89.6941 6.53833L91.2056 6.28715L92.7405 6.11569L94.2956 6.0211L95.8673 6L97.4523 6.04859L99.0474 6.1627L100.649 6.33783L102.255 6.56922L103.861 6.85193L105.466 7.18085L107.066 7.55083L108.66 7.95664L110.244 8.3931L111.819 8.85508L113.381 9.33755L114.929 9.8356L116.464 10.3445L117.982 10.8597L119.485 11.3767L120.97 11.8916L122.439 12.4003L123.892 12.8992L125.327 13.3849L126.746 13.8541L128.149 14.3038L129.537 14.7314L130.909 15.1344L132.268 15.5105L133.614 15.8576L134.948 16.174L136.271 16.458L137.584 16.7081L138.889 16.9233L140.187 17.1024L141.479 17.2447L142.766 17.3494L144.05 17.4161L145.333 17.4445L146.615 17.4345L147.898 17.386L149.183 17.2994L150.473 17.175L151.768 17.0134L153.069 16.8154L154.378 16.5818L155.696 16.3138L157.025 16.0127L158.365 15.6801L159.717 15.3176L161.083 14.9272L162.464 14.5111L163.859 14.0715L165.271 13.6113L166.698 13.1331L168.142 12.6401L169.603 12.1357L171.081 11.6233L172.576 11.1067L174.087 10.5901L175.613 10.0777L177.155 9.57387L178.711 9.08335L180.28 8.61096L181.86 8.16167L183.449 7.74057L185.047 7.35282L186.649 7.00364L188.255 6.69821L189.862 6.44167L191.466 6.23905L193.064 6.09521L194.655 6.01477L196.233 6.00207L197.796 6.0611L199.341 6.19544L200.865 6.40821L202.362 6.702L203.832 7.07885L205.27 7.5402L206.673 8.08684L208.038 8.71892L209.364 9.43593L210.648 10.2367L211.887 11.1193L213.081 12.0813L214.229 13.1196L215.329 14.2305L216.381 15.4099L217.385 16.6531L218.342 17.955L219.253 19.3103L220.119 20.7132L220.941 22.1578L221.723 23.6382L222.465 25.1482L223.171 26.6817L223.844 28.2325L224.488 29.7948L225.104 31.3625L225.698 32.9301L226.273 34.492L226.833 36.043L227.382 37.578L227.924 39.0923L228.465 40.5814L229.007 42.0412L229.556 43.4676L230.117 44.857L230.694 46.2059L231.291 47.5111L231.915 48.7696L232.569 49.9786L233.259 51.1355L233.99 52.2376L234.768 53.2827L235.599 54.2684L236.488 55.1924L237.44 56.055L238.452 56.8618L239.523 57.6185L240.649 58.331L241.83 59.0045L243.061 59.6444L244.34 60.2557L245.665 60.8435L247.033 61.4125L248.439 61.9675L249.88 62.5132L251.354 63.0541L252.854 63.5948L254.378 64.1397L255.921 64.6931L257.478 65.2591L259.043 65.8419L260.611 66.4454L262.177 67.0733L263.735 67.7293L265.279 68.4166L266.803 69.1386L268.3 69.8979L269.766 70.6972L271.192 71.5387L272.575 72.4243L273.907 73.3555L275.184 74.3334L276.399 75.3589L277.549 76.4321L278.628 77.5531L279.633 78.7212L280.56 79.9355L281.407 81.1948L282.171 82.4974L282.85 83.8411L283.445 85.2237L283.954 86.6425L284.377 88.0946L284.717 89.577L284.975 91.0865L285.153 92.6197L285.253 94.1733L285.28 95.7439L285.237 97.328L285.128 98.9224L284.957 100.524L284.73 102.129L284.451 103.736L284.126 105.341L283.759 106.941L283.356 108.535L282.922 110.121L282.462 111.696L281.981 113.259L281.484 114.809L280.975 116.344L280.461 117.864L279.944 119.368L279.428 120.855L278.919 122.326L278.419 123.779L277.932 125.216L277.462 126.636L277.01 128.04L276.581 129.429L276.176 130.803L275.798 132.163L275.448 133.51L275.129 134.845L274.843 136.169L274.59 137.483L274.372 138.788L274.19 140.087L274.044 141.379L273.937 142.666L273.867 143.951L273.836 145.233L273.834 145.642Z" fill="white"/>
<path fill-rule="evenodd" clip-rule="evenodd" d="M273.834 145.642V145.642L273.853 146.924L273.91 148.207L274.006 149.494L274.139 150.784L274.31 152.081L274.516 153.384L274.758 154.695L275.034 156.015L275.343 157.347L275.683 158.69L276.052 160.045L276.449 161.415L276.871 162.799L277.316 164.198L277.781 165.613L278.263 167.045L278.759 168.493L279.265 169.958L279.779 171.44L280.296 172.938L280.812 174.453L281.323 175.983L281.824 177.529L282.31 179.088L282.778 180.659L283.221 182.242L283.634 183.833L284.013 185.432L284.353 187.036L284.647 188.642L284.891 190.248L285.08 191.851L285.209 193.448L285.274 195.036L285.27 196.611L285.193 198.171L285.04 199.711L284.808 201.228L284.495 202.719L284.098 204.182L283.616 205.611L283.049 207.006L282.397 208.362L281.659 209.678L280.839 210.951L279.937 212.18L278.957 213.363L277.901 214.499L276.773 215.588L275.578 216.628L274.32 217.621L273.005 218.567L271.638 219.467L270.225 220.323L268.771 221.135L267.283 221.907L265.767 222.64L264.228 223.339L262.674 224.004L261.11 224.641L259.542 225.251L257.975 225.84L256.416 226.411L254.868 226.968L253.338 227.515L251.829 228.057L250.346 228.597L248.894 229.141L247.476 229.693L246.096 230.257L244.758 230.838L243.463 231.441L242.216 232.071L241.02 232.734L239.876 233.433L238.787 234.175L237.756 234.965L236.785 235.81L235.876 236.714L235.027 237.68L234.233 238.706L233.487 239.791L232.784 240.93L232.119 242.123L231.487 243.366L230.882 244.657L230.299 245.992L229.733 247.369L229.181 248.784L228.637 250.233L228.096 251.714L227.555 253.22L227.009 254.749L226.453 256.296L225.883 257.855L225.296 259.421L224.687 260.989L224.052 262.554L223.389 264.109L222.694 265.649L221.963 267.167L221.195 268.657L220.385 270.114L219.534 271.531L218.637 272.902L217.695 274.221L216.706 275.484L215.669 276.684L214.584 277.817L213.452 278.879L212.273 279.866L211.047 280.774L209.778 281.601L208.465 282.345L207.112 283.004L205.72 283.578L204.293 284.067L202.834 284.47L201.345 284.79L199.829 285.029L198.291 285.188L196.733 285.27L195.159 285.28L193.572 285.221L191.976 285.097L190.373 284.912L188.767 284.672L187.161 284.382L185.557 284.046L183.957 283.67L182.365 283.259L180.782 282.818L179.209 282.352L177.649 281.867L176.103 281.367L174.571 280.857L173.055 280.341L171.555 279.824L170.072 279.31L168.606 278.803L167.156 278.306L165.724 277.822L164.307 277.356L162.907 276.91L161.522 276.486L160.151 276.087L158.794 275.715L157.45 275.373L156.118 275.062L154.797 274.783L153.485 274.538L152.181 274.329L150.885 274.156L149.594 274.019L148.307 273.921L147.023 273.86L145.741 273.838L144.459 273.854L143.175 273.908L141.889 274.001L140.599 274.131L139.303 274.299L138.001 274.503L136.69 274.742L135.371 275.015L134.04 275.321L132.698 275.659L131.344 276.026L129.975 276.421L128.593 276.841L127.195 277.284L125.781 277.747L124.351 278.228L122.904 278.723L121.44 279.229L119.96 279.742L118.462 280.259L116.949 280.775L115.42 281.286L113.876 281.788L112.318 282.276L110.747 282.745L109.165 283.191L107.575 283.607L105.976 283.989L104.373 284.331L102.767 284.629L101.16 284.878L99.557 285.071L97.9595 285.205L96.3709 285.275L94.7946 285.277L93.2338 285.206L91.6921 285.059L90.1728 284.834L88.6792 284.527L87.2147 284.137L85.7822 283.662L84.3849 283.101L83.0254 282.456L81.7063 281.725L80.4295 280.911L79.1971 280.016L78.0105 279.042L76.8707 277.991L75.7784 276.869L74.734 275.679L73.7372 274.426L72.7875 273.116L71.8839 271.753L71.025 270.343L70.2092 268.892L69.4343 267.406L68.6978 265.892L67.997 264.356L67.3289 262.802L66.6903 261.239L66.0775 259.671L65.487 258.104L64.9148 256.543L64.3569 254.995L63.8091 253.462L63.2673 251.952L62.727 250.467L62.1837 249.012L61.6329 247.592L61.0701 246.209L60.4904 244.866L59.8891 243.568L59.2612 242.318L58.6016 241.117L57.9053 239.968L57.1669 238.875L56.3807 237.839L55.5411 236.863L54.642 235.949L53.6806 235.096L52.6589 234.298L51.5792 233.548L50.4438 232.842L49.2553 232.175L48.0162 231.54L46.7292 230.932L45.3973 230.348L44.0237 229.781L42.6116 229.228L41.1647 228.684L39.6868 228.143L38.182 227.602L36.6547 227.056L35.1095 226.501L33.5513 225.932L31.9854 225.347L30.417 224.74L28.8519 224.107L27.2958 223.447L25.7547 222.754L24.2347 222.026L22.7418 221.261L21.2822 220.455L19.862 219.606L18.4871 218.714L17.1633 217.775L15.8961 216.79L14.6907 215.757L13.552 214.676L12.4843 213.547L11.4915 212.372L10.577 211.15L9.7434 209.884L8.99289 208.575L8.3269 207.224L7.74622 205.836L7.25098 204.412L6.84063 202.954L6.51398 201.467L6.26923 199.954L6.10401 198.417L6.0154 196.861L6 195.288L6.05397 193.702L6.17311 192.106L6.35289 190.504L6.58855 188.898L6.87512 187.292L7.2075 185.687L7.58051 184.088L7.98895 182.495L8.42763 180.911L8.89142 179.337L9.3753 177.776L9.87438 176.229L10.3839 174.696L10.8994 173.178L11.4164 171.677L11.931 170.193L12.439 168.725L12.937 167.274L13.4214 165.84L13.8892 164.422L14.3373 163.021L14.763 161.634L15.1639 160.263L15.5378 158.905L15.8825 157.56L16.1963 156.227L16.4777 154.904L16.7251 153.592L16.9374 152.288L17.1136 150.99L17.2529 149.699L17.3546 148.412L17.4183 147.128L17.4436 145.846L17.4305 144.564L17.3791 143.28L17.2894 141.995L17.162 140.705L16.9975 139.409L16.7966 138.108L16.5602 136.798L16.2895 135.479L15.9859 134.149L15.6508 132.808L15.286 131.455L14.8935 130.087L14.4754 128.706L14.0342 127.309L13.5724 125.897L13.0929 124.468L12.5989 123.022L12.0937 121.56L11.5808 120.081L11.0641 118.585L10.5477 117.072L10.0358 115.544L9.53285 114.002L9.04361 112.445L8.57288 110.875L8.12565 109.294L7.70702 107.704L7.32215 106.106L6.97627 104.503L6.67455 102.897L6.42212 101.291L6.22401 99.6868L6.08505 98.0887L6.00986 96.4992L6.00273 94.9218L6.06763 93.3597L6.2081 91.8163L6.42723 90.2951L6.72757 88.7993L7.1111 87.3323L7.57921 85.8972L8.13266 84.497L8.77153 83.1344L9.49524 81.8119L10.3026 80.5317L11.1916 79.2957L12.1598 78.1053L13.204 76.9618L14.3206 75.8657L15.5052 74.8174L16.7532 73.8168L18.0596 72.8634L19.4188 71.9562L20.8253 71.0938L22.273 70.2746L23.7559 69.4965L25.268 68.7571L26.803 68.0536L28.355 67.383L29.9179 66.7421L31.4858 66.1274L33.0531 65.5352L34.6143 64.9617L36.1642 64.4028L37.6977 63.8544L39.2102 63.3122L40.6971 62.7719L42.1543 62.2291L43.5779 61.6791L44.9642 61.1174L46.3097 60.5392L47.6113 59.9398L48.866 59.3141L50.0709 58.6573L51.2235 57.9641L52.3212 57.2292L53.3616 56.4471L54.3424 55.6119L55.2614 54.7177L56.1194 53.7612L56.9219 52.7442L57.675 51.669L58.3841 50.538L59.0548 49.3536L59.6922 48.1184L60.3014 46.8351L60.8875 45.5067L61.4552 44.1363L62.0093 42.7271L62.5544 41.2828L63.0952 39.8072L63.6361 38.3044L64.1815 36.7787L64.7357 35.2347L65.3029 33.6774L65.8872 32.1119L66.4925 30.5435L67.1225 28.9779L67.7808 27.4209L68.4708 25.8783L69.1956 24.3563L69.958 22.8611L70.7606 21.3986L71.6055 19.975L72.4947 18.5963L73.4296 17.2682L74.4113 15.9963L75.4405 14.7858L76.5176 13.6416L77.6423 12.5681L78.8141 11.5692L80.0321 10.6483L81.2949 9.80817L82.6008 9.05097L83.9477 8.37821L85.3332 7.79072L86.7548 7.28868L88.2094 6.87159L89.6941 6.53833L91.2056 6.28715L92.7405 6.11569L94.2956 6.0211L95.8673 6L97.4523 6.04859L99.0474 6.1627L100.649 6.33783L102.255 6.56922L103.861 6.85193L105.466 7.18085L107.066 7.55083L108.66 7.95664L110.244 8.3931L111.819 8.85508L113.381 9.33755L114.929 9.8356L116.464 10.3445L117.982 10.8597L119.485 11.3767L120.97 11.8916L122.439 12.4003L123.892 12.8992L125.327 13.3849L126.746 13.8541L128.149 14.3038L129.537 14.7314L130.909 15.1344L132.268 15.5105L133.614 15.8576L134.948 16.174L136.271 16.458L137.584 16.7081L138.889 16.9233L140.187 17.1024L141.479 17.2447L142.766 17.3494L144.05 17.4161L145.333 17.4445L146.615 17.4345L147.898 17.386L149.183 17.2994L150.473 17.175L151.768 17.0134L153.069 16.8154L154.378 16.5818L155.696 16.3138L157.025 16.0127L158.365 15.6801L159.717 15.3176L161.083 14.9272L162.464 14.5111L163.859 14.0715L165.271 13.6113L166.698 13.1331L168.142 12.6401L169.603 12.1357L171.081 11.6233L172.576 11.1067L174.087 10.5901L175.613 10.0777L177.155 9.57387L178.711 9.08335L180.28 8.61096L181.86 8.16167L183.449 7.74057L185.047 7.35282L186.649 7.00364L188.255 6.69821L189.862 6.44167L191.466 6.23905L193.064 6.09521L194.655 6.01477L196.233 6.00207L197.796 6.0611L199.341 6.19544L200.865 6.40821L202.362 6.702L203.832 7.07885L205.27 7.5402L206.673 8.08684L208.038 8.71892L209.364 9.43593L210.648 10.2367L211.887 11.1193L213.081 12.0813L214.229 13.1196L215.329 14.2305L216.381 15.4099L217.385 16.6531L218.342 17.955L219.253 19.3103L220.119 20.7132L220.941 22.1578L221.723 23.6382L222.465 25.1482L223.171 26.6817L223.844 28.2325L224.488 29.7948L225.104 31.3625L225.698 32.9301L226.273 34.492L226.833 36.043L227.382 37.578L227.924 39.0923L228.465 40.5814L229.007 42.0412L229.556 43.4676L230.117 44.857L230.694 46.2059L231.291 47.5111L231.915 48.7696L232.569 49.9786L233.259 51.1355L233.99 52.2376L234.768 53.2827L235.599 54.2684L236.488 55.1924L237.44 56.055L238.452 56.8618L239.523 57.6185L240.649 58.331L241.83 59.0045L243.061 59.6444L244.34 60.2557L245.665 60.8435L247.033 61.4125L248.439 61.9675L249.88 62.5132L251.354 63.0541L252.854 63.5948L254.378 64.1397L255.921 64.6931L257.478 65.2591L259.043 65.8419L260.611 66.4454L262.177 67.0733L263.735 67.7293L265.279 68.4166L266.803 69.1386L268.3 69.8979L269.766 70.6972L271.192 71.5387L272.575 72.4243L273.907 73.3555L275.184 74.3334L276.399 75.3589L277.549 76.4321L278.628 77.5531L279.633 78.7212L280.56 79.9355L281.407 81.1948L282.171 82.4974L282.85 83.8411L283.445 85.2237L283.954 86.6425L284.377 88.0946L284.717 89.577L284.975 91.0865L285.153 92.6197L285.253 94.1733L285.28 95.7439L285.237 97.328L285.128 98.9224L284.957 100.524L284.73 102.129L284.451 103.736L284.126 105.341L283.759 106.941L283.356 108.535L282.922 110.121L282.462 111.696L281.981 113.259L281.484 114.809L280.975 116.344L280.461 117.864L279.944 119.368L279.428 120.855L278.919 122.326L278.419 123.779L277.932 125.216L277.462 126.636L277.01 128.04L276.581 129.429L276.176 130.803L275.798 132.163L275.448 133.51L275.129 134.845L274.843 136.169L274.59 137.483L274.372 138.788L274.19 140.087L274.044 141.379L273.937 142.666L273.867 143.951L273.836 145.233L273.834 145.642Z" fill="white"/>
<path d="M273.834 145.642V145.642ZM273.834 145.642L273.853 146.924L273.91 148.207L274.006 149.494L274.139 150.784L274.31 152.081L274.516 153.384L274.758 154.695L275.034 156.015L275.343 157.347L275.683 158.69L276.052 160.045L276.449 161.415L276.871 162.799L277.316 164.198L277.781 165.613L278.263 167.045L278.759 168.493L279.265 169.958L279.779 171.44L280.296 172.938L280.812 174.453L281.323 175.983L281.824 177.529L282.31 179.088L282.778 180.659L283.221 182.242L283.634 183.833L284.013 185.432L284.353 187.036L284.647 188.642L284.891 190.248L285.08 191.851L285.209 193.448L285.274 195.036L285.27 196.611L285.193 198.171L285.04 199.711L284.808 201.228L284.495 202.719L284.098 204.182L283.616 205.611L283.049 207.006L282.397 208.362L281.659 209.678L280.839 210.951L279.937 212.18L278.957 213.363L277.901 214.499L276.773 215.588L275.578 216.628L274.32 217.621L273.005 218.567L271.638 219.467L270.225 220.323L268.771 221.135L267.283 221.907L265.767 222.64L264.228 223.339L262.674 224.004L261.11 224.641L259.542 225.251L257.975 225.84L256.416 226.411L254.868 226.968L253.338 227.515L251.829 228.057L250.346 228.597L248.894 229.141L247.476 229.693L246.096 230.257L244.758 230.838L243.463 231.441L242.216 232.071L241.02 232.734L239.876 233.433L238.787 234.175L237.756 234.965L236.785 235.81L235.876 236.714L235.027 237.68L234.233 238.706L233.487 239.791L232.784 240.93L232.119 242.123L231.487 243.366L230.882 244.657L230.299 245.992L229.733 247.369L229.181 248.784L228.637 250.233L228.096 251.714L227.555 253.22L227.009 254.749L226.453 256.296L225.883 257.855L225.296 259.421L224.687 260.989L224.052 262.554L223.389 264.109L222.694 265.649L221.963 267.167L221.195 268.657L220.385 270.114L219.534 271.531L218.637 272.902L217.695 274.221L216.706 275.484L215.669 276.684L214.584 277.817L213.452 278.879L212.273 279.866L211.047 280.774L209.778 281.601L208.465 282.345L207.112 283.004L205.72 283.578L204.293 284.067L202.834 284.47L201.345 284.79L199.829 285.029L198.291 285.188L196.733 285.27L195.159 285.28L193.572 285.221L191.976 285.097L190.373 284.912L188.767 284.672L187.161 284.382L185.557 284.046L183.957 283.67L182.365 283.259L180.782 282.818L179.209 282.352L177.649 281.867L176.103 281.367L174.571 280.857L173.055 280.341L171.555 279.824L170.072 279.31L168.606 278.803L167.156 278.306L165.724 277.822L164.307 277.356L162.907 276.91L161.522 276.486L160.151 276.087L158.794 275.715L157.45 275.373L156.118 275.062L154.797 274.783L153.485 274.538L152.181 274.329L150.885 274.156L149.594 274.019L148.307 273.921L147.023 273.86L145.741 273.838L144.459 273.854L143.175 273.908L141.889 274.001L140.599 274.131L139.303 274.299L138.001 274.503L136.69 274.742L135.371 275.015L134.04 275.321L132.698 275.659L131.344 276.026L129.975 276.421L128.593 276.841L127.195 277.284L125.781 277.747L124.351 278.228L122.904 278.723L121.44 279.229L119.96 279.742L118.462 280.259L116.949 280.775L115.42 281.286L113.876 281.788L112.318 282.276L110.747 282.745L109.165 283.191L107.575 283.607L105.976 283.989L104.373 284.331L102.767 284.629L101.16 284.878L99.557 285.071L97.9595 285.205L96.3709 285.275L94.7946 285.277L93.2338 285.206L91.6921 285.059L90.1728 284.834L88.6792 284.527L87.2147 284.137L85.7822 283.662L84.3849 283.101L83.0254 282.456L81.7063 281.725L80.4295 280.911L79.1971 280.016L78.0105 279.042L76.8707 277.991L75.7784 276.869L74.734 275.679L73.7372 274.426L72.7875 273.116L71.8839 271.753L71.025 270.343L70.2092 268.892L69.4343 267.406L68.6978 265.892L67.997 264.356L67.3289 262.802L66.6903 261.239L66.0775 259.671L65.487 258.104L64.9148 256.543L64.3569 254.995L63.8091 253.462L63.2673 251.952L62.727 250.467L62.1837 249.012L61.6329 247.592L61.0701 246.209L60.4904 244.866L59.8891 243.568L59.2612 242.318L58.6016 241.117L57.9053 239.968L57.1669 238.875L56.3807 237.839L55.5411 236.863L54.642 235.949L53.6806 235.096L52.6589 234.298L51.5792 233.548L50.4438 232.842L49.2553 232.175L48.0162 231.54L46.7292 230.932L45.3973 230.348L44.0237 229.781L42.6116 229.228L41.1647 228.684L39.6868 228.143L38.182 227.602L36.6547 227.056L35.1095 226.501L33.5513 225.932L31.9854 225.347L30.417 224.74L28.8519 224.107L27.2958 223.447L25.7547 222.754L24.2347 222.026L22.7418 221.261L21.2822 220.455L19.862 219.606L18.4871 218.714L17.1633 217.775L15.8961 216.79L14.6907 215.757L13.552 214.676L12.4843 213.547L11.4915 212.372L10.577 211.15L9.7434 209.884L8.99289 208.575L8.3269 207.224L7.74622 205.836L7.25098 204.412L6.84063 202.954L6.51398 201.467L6.26923 199.954L6.10401 198.417L6.0154 196.861L6 195.288L6.05397 193.702L6.17311 192.106L6.35289 190.504L6.58855 188.898L6.87512 187.292L7.2075 185.687L7.58051 184.088L7.98895 182.495L8.42763 180.911L8.89142 179.337L9.3753 177.776L9.87438 176.229L10.3839 174.696L10.8994 173.178L11.4164 171.677L11.931 170.193L12.439 168.725L12.937 167.274L13.4214 165.84L13.8892 164.422L14.3373 163.021L14.763 161.634L15.1639 160.263L15.5378 158.905L15.8825 157.56L16.1963 156.227L16.4777 154.904L16.7251 153.592L16.9374 152.288L17.1136 150.99L17.2529 149.699L17.3546 148.412L17.4183 147.128L17.4436 145.846L17.4305 144.564L17.3791 143.28L17.2894 141.995L17.162 140.705L16.9975 139.409L16.7966 138.108L16.5602 136.798L16.2895 135.479L15.9859 134.149L15.6508 132.808L15.286 131.455L14.8935 130.087L14.4754 128.706L14.0342 127.309L13.5724 125.897L13.0929 124.468L12.5989 123.022L12.0937 121.56L11.5808 120.081L11.0641 118.585L10.5477 117.072L10.0358 115.544L9.53285 114.002L9.04361 112.445L8.57288 110.875L8.12565 109.294L7.70702 107.704L7.32215 106.106L6.97627 104.503L6.67455 102.897L6.42212 101.291L6.22401 99.6868L6.08505 98.0887L6.00986 96.4992L6.00273 94.9218L6.06763 93.3597L6.2081 91.8163L6.42723 90.2951L6.72757 88.7993L7.1111 87.3323L7.57921 85.8972L8.13266 84.497L8.77153 83.1344L9.49524 81.8119L10.3026 80.5317L11.1916 79.2957L12.1598 78.1053L13.204 76.9618L14.3206 75.8657L15.5052 74.8174L16.7532 73.8168L18.0596 72.8634L19.4188 71.9562L20.8253 71.0938L22.273 70.2746L23.7559 69.4965L25.268 68.7571L26.803 68.0536L28.355 67.383L29.9179 66.7421L31.4858 66.1274L33.0531 65.5352L34.6143 64.9617L36.1642 64.4028L37.6977 63.8544L39.2102 63.3122L40.6971 62.7719L42.1543 62.2291L43.5779 61.6791L44.9642 61.1174L46.3097 60.5392L47.6113 59.9398L48.866 59.3141L50.0709 58.6573L51.2235 57.9641L52.3212 57.2292L53.3616 56.4471L54.3424 55.6119L55.2614 54.7177L56.1194 53.7612L56.9219 52.7442L57.675 51.669L58.3841 50.538L59.0548 49.3536L59.6922 48.1184L60.3014 46.8351L60.8875 45.5067L61.4552 44.1363L62.0093 42.7271L62.5544 41.2828L63.0952 39.8072L63.6361 38.3044L64.1815 36.7787L64.7357 35.2347L65.3029 33.6774L65.8872 32.1119L66.4925 30.5435L67.1225 28.9779L67.7808 27.4209L68.4708 25.8783L69.1956 24.3563L69.958 22.8611L70.7606 21.3986L71.6055 19.975L72.4947 18.5963L73.4296 17.2682L74.4113 15.9963L75.4405 14.7858L76.5176 13.6416L77.6423 12.5681L78.8141 11.5692L80.0321 10.6483L81.2949 9.80817L82.6008 9.05097L83.9477 8.37821L85.3332 7.79072L86.7548 7.28868L88.2094 6.87159L89.6941 6.53833L91.2056 6.28715L92.7405 6.11569L94.2956 6.0211L95.8673 6L97.4523 6.04859L99.0474 6.1627L100.649 6.33783L102.255 6.56922L103.861 6.85193L105.466 7.18085L107.066 7.55083L108.66 7.95664L110.244 8.3931L111.819 8.85508L113.381 9.33755L114.929 9.8356L116.464 10.3445L117.982 10.8597L119.485 11.3767L120.97 11.8916L122.439 12.4003L123.892 12.8992L125.327 13.3849L126.746 13.8541L128.149 14.3038L129.537 14.7314L130.909 15.1344L132.268 15.5105L133.614 15.8576L134.948 16.174L136.271 16.458L137.584 16.7081L138.889 16.9233L140.187 17.1024L141.479 17.2447L142.766 17.3494L144.05 17.4161L145.333 17.4445L146.615 17.4345L147.898 17.386L149.183 17.2994L150.473 17.175L151.768 17.0134L153.069 16.8154L154.378 16.5818L155.696 16.3138L157.025 16.0127L158.365 15.6801L159.717 15.3176L161.083 14.9272L162.464 14.5111L163.859 14.0715L165.271 13.6113L166.698 13.1331L168.142 12.6401L169.603 12.1357L171.081 11.6233L172.576 11.1067L174.087 10.5901L175.613 10.0777L177.155 9.57387L178.711 9.08335L180.28 8.61096L181.86 8.16167L183.449 7.74057L185.047 7.35282L186.649 7.00364L188.255 6.69821L189.862 6.44167L191.466 6.23905L193.064 6.09521L194.655 6.01477L196.233 6.00207L197.796 6.0611L199.341 6.19544L200.865 6.40821L202.362 6.702L203.832 7.07885L205.27 7.5402L206.673 8.08684L208.038 8.71892L209.364 9.43593L210.648 10.2367L211.887 11.1193L213.081 12.0813L214.229 13.1196L215.329 14.2305L216.381 15.4099L217.385 16.6531L218.342 17.955L219.253 19.3103L220.119 20.7132L220.941 22.1578L221.723 23.6382L222.465 25.1482L223.171 26.6817L223.844 28.2325L224.488 29.7948L225.104 31.3625L225.698 32.9301L226.273 34.492L226.833 36.043L227.382 37.578L227.924 39.0923L228.465 40.5814L229.007 42.0412L229.556 43.4676L230.117 44.857L230.694 46.2059L231.291 47.5111L231.915 48.7696L232.569 49.9786L233.259 51.1355L233.99 52.2376L234.768 53.2827L235.599 54.2684L236.488 55.1924L237.44 56.055L238.452 56.8618L239.523 57.6185L240.649 58.331L241.83 59.0045L243.061 59.6444L244.34 60.2557L245.665 60.8435L247.033 61.4125L248.439 61.9675L249.88 62.5132L251.354 63.0541L252.854 63.5948L254.378 64.1397L255.921 64.6931L257.478 65.2591L259.043 65.8419L260.611 66.4454L262.177 67.0733L263.735 67.7293L265.279 68.4166L266.803 69.1386L268.3 69.8979L269.766 70.6972L271.192 71.5387L272.575 72.4243L273.907 73.3555L275.184 74.3334L276.399 75.3589L277.549 76.4321L278.628 77.5531L279.633 78.7212L280.56 79.9355L281.407 81.1948L282.171 82.4974L282.85 83.8411L283.445 85.2237L283.954 86.6425L284.377 88.0946L284.717 89.577L284.975 91.0865L285.153 92.6197L285.253 94.1733L285.28 95.7439L285.237 97.328L285.128 98.9224L284.957 100.524L284.73 102.129L284.451 103.736L284.126 105.341L283.759 106.941L283.356 108.535L282.922 110.121L282.462 111.696L281.981 113.259L281.484 114.809L280.975 116.344L280.461 117.864L279.944 119.368L279.428 120.855L278.919 122.326L278.419 123.779L277.932 125.216L277.462 126.636L277.01 128.04L276.581 129.429L276.176 130.803L275.798 132.163L275.448 133.51L275.129 134.845L274.843 136.169L274.59 137.483L274.372 138.788L274.19 140.087L274.044 141.379L273.937 142.666L273.867 143.951L273.836 145.233L273.834 145.642Z" stroke="#BF561C" stroke-width="10.8681"/>
<circle cx="145.482" cy="145.64" r="75.1431" fill="url(#paint0_linear_77_156)"/>
<path d="M172.808 178.007C172.808 178.007 191.298 168.755 197.922 158.151C204.168 148.154 204.964 128.8 204.964 128.8L202.695 124.665L196.605 113.565L186.93 114.054L183.405 128.015L180.863 133.939L177.297 142.187L171.631 147.938L159.245 151.997L137.103 150.598L125.269 145.503L118.709 144.735L114.118 144.341L112.369 142.499L113.254 147.59L107.889 152.336L105.91 150.534L107.236 158.17L115.274 171.553L137.817 180.748L158.482 180.496L172.808 178.007Z" fill="#FDCA4D"/>
<path d="M183.213 106.356L181.355 116.214L176.604 131.342L169.913 144.899L159.245 151.997L171.631 147.938L177.297 142.187L180.863 133.939L183.405 128.015L186.93 114.054L183.213 106.356Z" fill="#DC941B"/>
<path d="M176.604 131.342L181.355 116.214L175.458 111.041L171.62 119.097L166.738 126.619C166.738 126.619 161.668 134.688 156.833 138.113C150.724 142.441 138.56 143.909 138.56 143.909L127.288 142.053L126.076 141.771L114.389 139.05L106.874 134.157L99.5603 130.422L89.4137 129.562L88.7005 132.308L86.3297 135.103L83.0749 138.291L80.3222 136.147L81.4476 142.626L85.808 154.026L96.5776 161.213L107.175 167.477L109.045 168.583L112.159 170.068L115.274 171.553L107.236 158.17L105.91 150.534L105.023 145.428L108.441 143.181L112.369 142.499L114.118 144.341L118.709 144.735L125.269 145.503L137.103 150.598L159.245 151.997L169.913 144.899L176.604 131.342Z" fill="#FDCA4D"/>
<path d="M127.288 142.053L138.56 143.909C138.56 143.909 150.724 142.441 156.833 138.113C161.668 134.688 166.738 126.619 166.738 126.619L171.62 119.097L175.458 111.041L170.374 111.924L164.849 115.744C164.849 115.744 159.323 123.89 155.185 128.626C152.424 131.787 151.106 133.876 147.721 136.359C143.53 139.433 135.576 141.806 135.576 141.806L127.288 142.053Z" fill="#F5D161"/>
<path d="M196.605 113.565L193.43 106.25L191.501 95.1435L189.19 95.5449L187.372 105.634L186.93 114.054L196.605 113.565Z" fill="#FDCA4D"/>
<path d="M198.624 99.1506L195.168 95.6985L191.501 95.1435L194.233 99.9131L197.71 106.222L200.995 112.803L206.912 115.351L198.624 99.1506Z" fill="#FDCA4D"/>
<path d="M207.284 107.896L201.426 97.4719L198.624 99.1506L206.912 115.351L210.699 111.117L207.284 107.896Z" fill="#FDCA4D"/>
<path d="M189.19 95.5449L186.267 91.0468L185.222 85.0306L183.394 93.6912L183.213 106.356L186.93 114.054L187.372 105.634L189.19 95.5449Z" fill="#FDCA4D"/>
<path d="M183.213 106.356L183.394 93.6912L181.364 95.7123L177.919 104.654L175.458 111.041L181.355 116.214L183.213 106.356Z" fill="#FDCA4D"/>
<path d="M175.458 111.041L177.919 104.654L181.364 95.7123L182.67 89.5262L184.619 81.5597L181.645 80.8843L177.858 85.1178L176.894 90.5295L176.914 98.8691L170.374 111.924L175.458 111.041Z" fill="#FDCA4D"/>
<path d="M173.428 91.1315L168.164 99.1971L161.885 105.532L163.804 109.728L170.374 111.924L176.914 98.8691L176.894 90.5295L173.428 91.1315Z" fill="#FDCA4D"/>
<path d="M164.849 115.744L170.374 111.924L163.804 109.728L156.531 117.189C156.531 117.189 152.846 121.419 150.333 123.986C147.044 127.346 145.252 129.328 141.523 132.191C138.365 134.616 132.964 137.73 132.964 137.73L126.076 141.771L127.288 142.053L135.576 141.806C135.576 141.806 143.53 139.433 147.721 136.359C151.106 133.876 152.424 131.787 155.185 128.626C159.323 123.89 164.849 115.744 164.849 115.744Z" fill="#DC941B"/>
<path d="M161.885 105.532L158.048 108.105L148.886 115.656L136.469 126.394L123.299 134.165L114.027 136.967L106.874 134.157L114.389 139.05L126.076 141.771L132.964 137.73C132.964 137.73 138.365 134.616 141.523 132.191C145.252 129.328 147.044 127.346 150.333 123.986C152.846 121.419 156.531 117.189 156.531 117.189L163.804 109.728L161.885 105.532Z" fill="#FDCA4D"/>
<path d="M81.4476 142.626L80.3222 136.147L82.0099 134.9L75.7914 133.358L67.9253 133.294L68.0561 140.9L64.098 142.779L62.0185 143.14L65.8263 152.729L74.7174 161.435L89.4451 166.743L101.41 168.479L107.175 167.477L96.5776 161.213L85.808 154.026L81.4476 142.626Z" fill="#FDCA4D"/>
<path d="M109.045 168.583L107.175 167.477L101.41 168.479L98.1853 170.469L92.6399 171.432L96.4576 176.967L94.0868 179.762L90.3899 180.404L92.8212 186.18L100.024 190.65L108.061 193.068L111.516 192.468L109.729 188.964L106.002 185.321L104.715 177.916L103.952 173.52L107.617 170.023L109.045 168.583Z" fill="#EFA005"/>
<path d="M109.729 188.964L111.516 192.468L124.758 198.749L137.969 199.792L133.729 194.211L126.948 192.171L115.636 184.601L108.863 177.196L104.715 177.916L106.002 185.321L109.729 188.964Z" fill="#DD9006"/>
<path d="M137.817 180.748L115.274 171.553L112.159 170.068L110.09 174.599L108.863 177.196L115.636 184.601L126.948 192.171L133.729 194.211L131.569 191.368L130.524 185.352L134.321 182.547L137.817 180.748Z" fill="#EFA005"/>
<path d="M223.046 123.275L210.699 111.117L206.912 115.351L210.539 126.639C210.539 126.639 212.79 136.62 211.695 142.886C210.376 150.436 202.835 160.396 202.835 160.396L187.977 174.896L166.318 181.757L152.254 183.008L144.157 182.984L136.994 184.228L136.361 187.437L150.365 194.063L165.394 198.365L179.117 197.888L193.674 195.36L205.45 189.154C205.45 189.154 211.227 185.798 214.369 182.946C223.933 174.262 226.713 165.726 228.191 152.893C229.535 141.231 223.046 123.275 223.046 123.275Z" fill="#FDCA4D"/>
<path d="M197.922 158.151C191.298 168.755 172.808 178.007 172.808 178.007L158.482 180.496L144.157 182.984L152.254 183.008L166.318 181.757L187.977 174.896L202.835 160.396C202.835 160.396 210.376 150.436 211.695 142.886C212.79 136.62 210.539 126.639 210.539 126.639L206.912 115.351L200.995 112.803L202.201 119.745L202.695 124.665L204.964 128.8C204.964 128.8 204.168 148.154 197.922 158.151Z" fill="#DC941B"/>
<path d="M189.19 95.5449L191.501 95.1435L195.168 95.6985L198.624 99.1506L201.426 97.4719L196.534 87.1181L195.247 79.7135L191.55 74.8731L184.187 74.9603L177.506 73.4986L175.888 73.7795L176.532 77.4818L178.671 80.209L181.645 80.8843L184.619 81.5597L185.222 85.0306L186.267 91.0468L189.19 95.5449Z" fill="#795908"/>
<path d="M178.671 80.209L176.532 77.4818L173.819 81.0518L172.544 86.0409L173.428 91.1315L176.894 90.5295L177.858 85.1178L181.645 80.8843L178.671 80.209Z" fill="#C69B32"/>
<path d="M183.394 93.6912L185.222 85.0306L184.619 81.5597L182.67 89.5262L181.364 95.7123L183.394 93.6912Z" fill="#C8A245"/>
<path d="M158.483 207.909C167.08 208.93 172.318 208.959 180.605 206.45C191.919 203.024 205.45 189.154 205.45 189.154L193.674 195.36L179.117 197.888L165.394 198.365L150.365 194.063L136.361 187.437L135.728 190.646L131.569 191.368L133.729 194.211L137.969 199.792L140.209 202.74C140.209 202.74 151.118 207.034 158.483 207.909Z" fill="#C38B02"/>
<path d="M88.7005 132.308L89.4137 129.562L85.2044 128.624L81.7888 130.886L82.0099 134.9L80.3222 136.147L83.0749 138.291L86.3297 135.103L88.7005 132.308Z" fill="#83610E"/>
<path d="M96.4576 176.967L92.6399 171.432L91.0126 175.767L90.3899 180.404L94.0868 179.762L96.4576 176.967Z" fill="#926800"/>
<path d="M68.0561 140.9L67.9253 133.294L62.8521 135.606L62.0185 143.14L64.098 142.779L68.0561 140.9Z" fill="#8B6917"/>
<path d="M113.254 147.59L112.369 142.499L108.441 143.181L105.023 145.428L105.91 150.534L107.889 152.336L113.254 147.59Z" fill="#7C5C0D"/>
<path d="M131.569 191.368L135.728 190.646L136.361 187.437L136.994 184.228L137.817 180.748L134.321 182.547L130.524 185.352L131.569 191.368Z" fill="#795C15"/>
<path d="M103.952 173.52L104.715 177.916L108.863 177.196L110.09 174.599L112.159 170.068L109.045 168.583L107.617 170.023L103.952 173.52Z" fill="#735200"/>
<path d="M136.994 184.228L144.157 182.984L158.482 180.496L137.817 180.748L136.994 184.228Z" fill="#FDCA4D"/>
<path d="M201.426 97.4719L207.284 107.896L210.699 111.117M201.426 97.4719L198.624 99.1506M201.426 97.4719L196.534 87.1181L195.247 79.7135L191.55 74.8731L184.187 74.9603L177.506 73.4986L175.888 73.7795L176.532 77.4818M210.699 111.117L223.046 123.275C223.046 123.275 229.535 141.231 228.191 152.893C226.713 165.726 223.933 174.262 214.369 182.946C211.227 185.798 205.45 189.154 205.45 189.154M210.699 111.117L206.912 115.351M131.569 191.368L135.728 190.646L136.361 187.437M131.569 191.368L130.524 185.352L134.321 182.547L137.817 180.748M131.569 191.368L133.729 194.211M136.994 184.228L144.157 182.984M136.994 184.228L137.817 180.748M136.994 184.228L136.361 187.437M144.157 182.984L158.482 180.496M144.157 182.984L152.254 183.008L166.318 181.757L187.977 174.896L202.835 160.396C202.835 160.396 210.376 150.436 211.695 142.886C212.79 136.62 210.539 126.639 210.539 126.639L206.912 115.351M196.605 113.565L193.43 106.25L191.501 95.1435M196.605 113.565L202.695 124.665M196.605 113.565L186.93 114.054M191.501 95.1435L189.19 95.5449M191.501 95.1435L195.168 95.6985L198.624 99.1506M191.501 95.1435L194.233 99.9131L197.71 106.222L200.995 112.803M189.19 95.5449L186.267 91.0468L185.222 85.0306M189.19 95.5449L187.372 105.634L186.93 114.054M185.222 85.0306L183.394 93.6912M185.222 85.0306L184.619 81.5597M183.394 93.6912L183.213 106.356M183.394 93.6912L181.364 95.7123M183.213 106.356L181.355 116.214M183.213 106.356L186.93 114.054M181.355 116.214L176.604 131.342L169.913 144.899L159.245 151.997M181.355 116.214L175.458 111.041M159.245 151.997L137.103 150.598L125.269 145.503L118.709 144.735L114.118 144.341L112.369 142.499M159.245 151.997L171.631 147.938L177.297 142.187L180.863 133.939L183.405 128.015L186.93 114.054M112.369 142.499L113.254 147.59L107.889 152.336L105.91 150.534M112.369 142.499L108.441 143.181L105.023 145.428L105.91 150.534M105.91 150.534L107.236 158.17L115.274 171.553M115.274 171.553L137.817 180.748M115.274 171.553L112.159 170.068M137.817 180.748L158.482 180.496M158.482 180.496L172.808 178.007C172.808 178.007 191.298 168.755 197.922 158.151C204.168 148.154 204.964 128.8 204.964 128.8L202.695 124.665M198.624 99.1506L206.912 115.351M200.995 112.803L202.201 119.745L202.695 124.665M200.995 112.803L206.912 115.351M184.619 81.5597L181.645 80.8843M184.619 81.5597L182.67 89.5262L181.364 95.7123M176.532 77.4818L178.671 80.209L181.645 80.8843M176.532 77.4818L173.819 81.0518L172.544 86.0409L173.428 91.1315M173.428 91.1315L168.164 99.1971L161.885 105.532M173.428 91.1315L176.894 90.5295M161.885 105.532L158.048 108.105L148.886 115.656L136.469 126.394L123.299 134.165L114.027 136.967L106.874 134.157M161.885 105.532L163.804 109.728M106.874 134.157L99.5603 130.422L89.4137 129.562M106.874 134.157L114.389 139.05L126.076 141.771M89.4137 129.562L88.7005 132.308L86.3297 135.103L83.0749 138.291L80.3222 136.147M89.4137 129.562L85.2044 128.624L81.7888 130.886L82.0099 134.9M80.3222 136.147L81.4476 142.626L85.808 154.026L96.5776 161.213L107.175 167.477M80.3222 136.147L82.0099 134.9M109.045 168.583L107.175 167.477M109.045 168.583L107.617 170.023L103.952 173.52L104.715 177.916M109.045 168.583L112.159 170.068M127.288 142.053L138.56 143.909C138.56 143.909 150.724 142.441 156.833 138.113C161.668 134.688 166.738 126.619 166.738 126.619L171.62 119.097L175.458 111.041M127.288 142.053L135.576 141.806C135.576 141.806 143.53 139.433 147.721 136.359C151.106 133.876 152.424 131.787 155.185 128.626C159.323 123.89 164.849 115.744 164.849 115.744L170.374 111.924M127.288 142.053L126.076 141.771M175.458 111.041L177.919 104.654L181.364 95.7123M175.458 111.041L170.374 111.924M176.894 90.5295L176.914 98.8691L170.374 111.924M176.894 90.5295L177.858 85.1178L181.645 80.8843M170.374 111.924L163.804 109.728M170.736 97.5585L169.048 104.288L163.804 109.728M163.804 109.728L156.531 117.189C156.531 117.189 152.846 121.419 150.333 123.986C147.044 127.346 145.252 129.328 141.523 132.191C138.365 134.616 132.964 137.73 132.964 137.73L126.076 141.771M82.0099 134.9L75.7914 133.358L67.9253 133.294M67.9253 133.294L68.0561 140.9L64.098 142.779L62.0185 143.14M67.9253 133.294L62.8521 135.606L62.0185 143.14M62.0185 143.14L65.8263 152.729L74.7174 161.435L89.4451 166.743L101.41 168.479M101.41 168.479L107.175 167.477M101.41 168.479L98.1853 170.469L92.6399 171.432M92.6399 171.432L96.4576 176.967L94.0868 179.762L90.3899 180.404M92.6399 171.432L91.0126 175.767L90.3899 180.404M90.3899 180.404L92.8212 186.18L100.024 190.65L108.061 193.068L111.516 192.468M111.516 192.468L109.729 188.964L106.002 185.321L104.715 177.916M111.516 192.468L124.758 198.749L137.969 199.792M104.715 177.916L108.863 177.196M112.159 170.068L110.09 174.599L108.863 177.196M108.863 177.196L115.636 184.601L126.948 192.171L133.729 194.211M137.969 199.792L140.209 202.74C140.209 202.74 151.118 207.034 158.483 207.909C167.08 208.93 172.318 208.959 180.605 206.45C191.919 203.024 205.45 189.154 205.45 189.154M137.969 199.792L133.729 194.211M136.361 187.437L150.365 194.063L165.394 198.365L179.117 197.888L193.674 195.36L205.45 189.154" stroke="black" stroke-width="1.00399"/>
<path d="M164.892 36.4303C166.15 36.9297 167.045 37.5833 167.577 38.3912C168.118 39.2003 168.301 40.2108 168.128 41.4227C168.013 42.2306 167.829 42.8984 167.577 43.426C167.326 43.9454 167.043 44.3676 166.727 44.6927C166.413 45.0095 166.085 45.2445 165.743 45.3976C165.411 45.5436 165.107 45.6431 164.83 45.6961C164.553 45.7491 164.319 45.7703 164.127 45.7597C163.943 45.7503 163.847 45.745 163.839 45.7438C164.158 45.8062 164.495 45.8922 164.85 46.0017C165.212 46.1124 165.566 46.2555 165.911 46.431C166.256 46.6065 166.58 46.8167 166.881 47.0617C167.183 47.3067 167.436 47.5952 167.641 47.9273C167.855 48.2524 168.008 48.6275 168.098 49.0526C168.189 49.4778 168.197 49.9542 168.121 50.4818C168.006 51.2897 167.796 52.0252 167.491 52.6883C167.194 53.3525 166.753 53.9037 166.169 54.3418C165.594 54.7729 164.85 55.0703 163.934 55.234C163.019 55.3977 161.894 55.3841 160.558 55.1934L146.201 53.1424L146.968 47.7755L148.595 47.6924L149.752 39.5926L148.213 39.0573L148.915 34.1479L164.892 36.4303ZM161.24 42.117C161.3 41.6966 161.272 41.3644 161.156 41.1206C161.048 40.8698 160.883 40.6737 160.659 40.5324C160.435 40.391 160.172 40.2904 159.869 40.2303C159.567 40.1702 159.259 40.1178 158.946 40.0731L157.783 39.907L157.276 43.4561L158.439 43.6222C158.752 43.6669 159.062 43.7028 159.37 43.7299C159.678 43.7488 159.96 43.7176 160.216 43.6363C160.471 43.555 160.687 43.4007 160.862 43.1734C161.047 42.9391 161.173 42.5869 161.24 42.117ZM160.359 48.2877C160.419 47.8673 160.391 47.5352 160.274 47.2914C160.166 47.0488 160 46.8568 159.776 46.7155C159.552 46.5741 159.289 46.4734 158.986 46.4134C158.684 46.3533 158.376 46.3009 158.062 46.2562L156.9 46.0901L156.393 49.6392L157.555 49.8052C157.869 49.85 158.179 49.8859 158.486 49.913C158.795 49.9319 159.077 49.9006 159.332 49.8194C159.588 49.7381 159.804 49.5797 159.981 49.3442C160.166 49.1098 160.292 48.7576 160.359 48.2877Z" fill="#E9A803"/>
<path d="M184.227 62.5691L184.937 59.3539L180.178 57.2072L178.249 59.8729L171.77 56.9506L174.358 51.2115L175.887 51.5585L184.418 41.6067L193.824 45.8489L192.023 58.8359L193.295 59.7523L190.707 65.4914L184.227 62.5691ZM182.919 53.7431L185.72 55.0065L187.293 47.7816L182.919 53.7431Z" fill="#E9A803"/>
<path d="M206.395 64.8338L204.017 67.5669L205.026 68.8425L201.46 72.9421L195.428 67.6948L198.987 63.6046L200.398 64.4185L205.465 58.5941L204.463 57.3091L208.022 53.2189L215.26 59.5157L213.633 71.1306L216.305 68.0582L215.32 66.7543L218.879 62.6641L224.91 67.9114L221.352 72.0016L219.941 71.1877L214.874 77.0121L215.875 78.2971L212.317 82.3873L205.069 76.0823L206.395 64.8338Z" fill="#E9A803"/>
<path d="M223.501 97.7419L225.864 95.4493L223.073 91.0361L219.996 92.1991L216.197 86.1916L221.518 82.8267L222.603 83.9584L235.204 80.3498L240.719 89.0706L232.064 98.9189L232.621 100.384L227.3 103.749L223.501 97.7419ZM227.269 89.6541L228.911 92.2513L234.203 87.087L227.269 89.6541Z" fill="#E9A803"/>
<path d="M240.752 111.819L237.26 112.787L237.398 114.408L232.162 115.858L230.027 108.154L235.252 106.706L235.98 108.164L243.419 106.103L243.293 104.478L248.518 103.031L251.079 112.276L243.313 121.065L247.237 119.977L247.136 118.346L252.36 116.899L254.495 124.603L249.27 126.051L248.542 124.593L241.103 126.655L241.229 128.279L236.004 129.726L233.439 120.469L240.752 111.819Z" fill="#E9A803"/>
<path d="M254.552 164.092C254.061 165.353 253.413 166.253 252.609 166.791C251.804 167.337 250.794 167.527 249.581 167.362C248.773 167.253 248.104 167.073 247.574 166.825C247.053 166.578 246.629 166.297 246.302 165.984C245.983 165.672 245.746 165.345 245.59 165.005C245.442 164.674 245.341 164.37 245.286 164.093C245.231 163.817 245.208 163.583 245.217 163.391C245.225 163.207 245.23 163.111 245.231 163.103C245.171 163.422 245.087 163.76 244.98 164.115C244.872 164.478 244.731 164.833 244.558 165.18C244.385 165.526 244.177 165.851 243.934 166.154C243.691 166.457 243.404 166.712 243.074 166.919C242.75 167.136 242.376 167.291 241.951 167.384C241.527 167.478 241.051 167.489 240.523 167.417C239.714 167.307 238.977 167.102 238.312 166.801C237.646 166.509 237.091 166.073 236.649 165.491C236.214 164.92 235.912 164.177 235.742 163.263C235.572 162.349 235.578 161.223 235.76 159.887L237.713 145.516L243.085 146.246L243.179 147.872L251.286 148.974L251.811 147.432L256.725 148.1L254.552 164.092ZM248.84 160.479C249.261 160.537 249.593 160.506 249.836 160.388C250.086 160.279 250.281 160.112 250.421 159.887C250.561 159.663 250.66 159.399 250.718 159.096C250.776 158.793 250.826 158.484 250.869 158.171L251.027 157.007L247.474 156.524L247.316 157.688C247.273 158.001 247.24 158.312 247.215 158.62C247.198 158.928 247.231 159.21 247.314 159.465C247.397 159.72 247.553 159.935 247.781 160.109C248.017 160.292 248.37 160.415 248.84 160.479ZM242.664 159.64C243.085 159.697 243.416 159.667 243.659 159.548C243.901 159.438 244.092 159.271 244.232 159.046C244.372 158.822 244.471 158.558 244.529 158.255C244.587 157.951 244.637 157.643 244.68 157.33L244.838 156.166L241.285 155.683L241.127 156.847C241.084 157.16 241.051 157.471 241.026 157.778C241.009 158.087 241.042 158.369 241.125 158.624C241.208 158.879 241.368 159.094 241.605 159.269C241.84 159.452 242.193 159.576 242.664 159.64Z" fill="#E9A803"/>
<path d="M228.549 183.599L231.769 184.287L233.882 179.512L231.203 177.602L234.081 171.103L239.838 173.651L239.501 175.183L249.512 183.644L245.335 193.079L232.336 191.368L231.428 192.647L225.671 190.098L228.549 183.599ZM237.365 182.229L236.122 185.039L243.357 186.562L237.365 182.229Z" fill="#E9A803"/>
<path d="M226.435 205.784L223.685 203.425L222.417 204.443L218.293 200.904L223.499 194.837L227.613 198.368L226.809 199.784L232.668 204.812L233.946 203.801L238.06 207.332L231.813 214.613L220.187 213.064L223.278 215.716L224.575 214.722L228.689 218.253L223.483 224.32L219.369 220.79L220.173 219.373L214.314 214.346L213.036 215.356L208.922 211.825L215.177 204.535L226.435 205.784Z" fill="#E9A803"/>
<path d="M193.643 223.115L195.952 225.463L200.346 222.642L199.162 219.572L205.143 215.732L208.544 221.031L207.42 222.123L211.114 234.7L202.431 240.274L192.524 231.686L191.063 232.253L187.661 226.955L193.643 223.115ZM201.756 226.828L199.17 228.488L204.371 233.745L201.756 226.828Z" fill="#E9A803"/>
<path d="M179.688 240.461L178.696 236.976L177.077 237.126L175.589 231.899L183.279 229.711L184.763 234.926L183.31 235.664L185.423 243.089L187.046 242.952L188.53 248.166L179.302 250.791L170.46 243.086L171.575 247.003L173.205 246.89L174.689 252.104L166.999 254.292L165.516 249.078L166.968 248.34L164.855 240.914L163.232 241.052L161.748 235.837L170.988 233.208L179.688 240.461Z" fill="#E9A803"/>
<path d="M127.505 254.618C126.241 254.136 125.337 253.494 124.793 252.694C124.242 251.892 124.044 250.884 124.201 249.67C124.305 248.86 124.48 248.19 124.725 247.659C124.969 247.136 125.246 246.71 125.557 246.381C125.867 246.06 126.192 245.821 126.532 245.663C126.862 245.512 127.165 245.409 127.441 245.352C127.717 245.295 127.951 245.271 128.143 245.279C128.327 245.286 128.423 245.29 128.431 245.291C128.111 245.233 127.773 245.151 127.417 245.047C127.053 244.941 126.697 244.803 126.35 244.632C126.002 244.461 125.676 244.255 125.371 244.014C125.066 243.774 124.809 243.489 124.6 243.159C124.381 242.837 124.224 242.464 124.127 242.04C124.031 241.616 124.016 241.14 124.085 240.612C124.189 239.802 124.389 239.064 124.685 238.397C124.973 237.728 125.406 237.171 125.984 236.725C126.553 236.286 127.294 235.979 128.206 235.803C129.119 235.627 130.245 235.625 131.583 235.797L145.966 237.653L145.273 243.03L143.647 243.135L142.6 251.25L144.146 251.764L143.512 256.682L127.505 254.618ZM131.079 248.882C131.025 249.303 131.057 249.635 131.177 249.877C131.288 250.126 131.456 250.32 131.682 250.458C131.907 250.597 132.172 250.694 132.475 250.75C132.779 250.806 133.087 250.854 133.401 250.894L134.566 251.045L135.025 247.489L133.86 247.339C133.546 247.298 133.235 247.266 132.928 247.244C132.619 247.229 132.337 247.264 132.083 247.349C131.828 247.433 131.615 247.591 131.443 247.82C131.261 248.057 131.14 248.411 131.079 248.882ZM131.876 242.7C131.822 243.121 131.855 243.453 131.975 243.695C132.086 243.936 132.255 244.126 132.481 244.264C132.706 244.402 132.971 244.499 133.274 244.555C133.578 244.611 133.886 244.659 134.2 244.7L135.365 244.85L135.824 241.294L134.659 241.144C134.345 241.104 134.034 241.072 133.727 241.049C133.418 241.034 133.136 241.069 132.882 241.154C132.627 241.239 132.413 241.4 132.24 241.638C132.058 241.875 131.937 242.229 131.876 242.7Z" fill="#E9A803"/>
<path d="M107.828 228.753L107.163 231.978L111.952 234.058L113.843 231.366L120.362 234.198L117.854 239.973L116.32 239.647L107.928 249.716L98.4641 245.604L100.085 232.594L98.8003 231.695L101.309 225.921L107.828 228.753ZM109.259 237.56L106.441 236.335L104.968 243.581L109.259 237.56Z" fill="#E9A803"/>
<path d="M85.6252 226.789L87.9654 224.024L86.9386 222.762L90.449 218.615L96.5515 223.779L93.0493 227.918L91.627 227.123L86.6399 233.016L87.6586 234.287L84.1563 238.425L76.8332 232.228L78.3021 220.592L75.6714 223.7L76.674 224.991L73.1717 229.129L67.0691 223.964L70.5714 219.826L71.9937 220.621L76.9808 214.728L75.962 213.457L79.4643 209.318L86.7969 215.524L85.6252 226.789Z" fill="#E9A803"/>
<path d="M68.0691 194.114L65.7372 196.439L68.5878 200.813L71.6495 199.608L75.53 205.563L70.2552 209.001L69.1547 207.884L56.6038 211.664L50.9706 203.019L59.491 193.054L58.9138 191.596L64.1886 188.159L68.0691 194.114ZM64.4116 202.252L62.7339 199.678L57.513 204.914L64.4116 202.252Z" fill="#E9A803"/>
<path d="M50.6303 180.282L54.1077 179.267L53.9472 177.648L59.1633 176.124L61.4043 183.799L56.2003 185.318L55.4523 183.871L48.0419 186.035L48.1904 187.657L42.9863 189.177L40.2971 179.968L47.941 171.073L44.032 172.215L44.1565 173.844L38.9524 175.364L36.7114 167.69L41.9154 166.17L42.6634 167.617L50.0738 165.453L49.9253 163.831L55.1294 162.311L57.8221 171.532L50.6303 180.282Z" fill="#E9A803"/>
<path d="M36.1163 128.193C36.5899 126.925 37.2251 126.017 38.022 125.468C38.8199 124.911 39.8264 124.706 41.0416 124.855C41.8517 124.954 42.5231 125.124 43.0557 125.365C43.5801 125.605 44.008 125.88 44.3395 126.189C44.6626 126.497 44.9043 126.82 45.0643 127.158C45.2171 127.487 45.3228 127.789 45.3815 128.065C45.4401 128.341 45.4661 128.575 45.4594 128.767C45.4538 128.951 45.4504 129.047 45.4494 129.055C45.5053 128.735 45.5844 128.396 45.6866 128.039C45.7899 127.674 45.9257 127.318 46.0941 126.969C46.2625 126.62 46.4661 126.293 46.7048 125.987C46.9436 125.68 47.2269 125.421 47.5548 125.209C47.8754 124.988 48.2473 124.828 48.6705 124.729C49.0937 124.63 49.5699 124.612 50.0989 124.677C50.909 124.776 51.6487 124.971 52.3178 125.262C52.988 125.545 53.5481 125.974 53.998 126.55C54.4407 127.115 54.7533 127.854 54.9356 128.766C55.118 129.677 55.1275 130.802 54.964 132.142L53.2069 146.538L47.8254 145.881L47.7091 144.256L39.5873 143.265L39.0836 144.814L34.1609 144.213L36.1163 128.193ZM41.8765 131.727C41.4549 131.676 41.1234 131.711 40.882 131.832C40.6334 131.945 40.4408 132.114 40.304 132.341C40.1673 132.567 40.072 132.832 40.0181 133.136C39.9643 133.44 39.9182 133.749 39.8798 134.063L39.7376 135.229L43.2963 135.663L43.4386 134.498C43.4769 134.183 43.5065 133.872 43.5273 133.565C43.5398 133.256 43.5028 132.974 43.4164 132.72C43.3299 132.467 43.1712 132.254 42.9404 132.084C42.7023 131.903 42.3476 131.785 41.8765 131.727ZM48.0639 132.482C47.6423 132.431 47.3108 132.466 47.0695 132.588C46.8291 132.701 46.6406 132.871 46.5039 133.097C46.3672 133.324 46.2719 133.589 46.218 133.893C46.1641 134.197 46.118 134.506 46.0797 134.82L45.9374 135.986L49.4961 136.42L49.6384 135.254C49.6767 134.94 49.7063 134.629 49.7271 134.321C49.7396 134.012 49.7027 133.731 49.6162 133.477C49.5297 133.223 49.3669 133.011 49.1278 132.839C48.8897 132.659 48.5351 132.54 48.0639 132.482Z" fill="#E9A803"/>
<path d="M61.8422 108.346L58.6129 107.703L56.5656 112.506L59.2708 114.379L56.4839 120.917L50.6922 118.449L51.0074 116.913L40.8803 108.591L44.926 99.0988L57.9477 100.629L58.8374 99.3385L64.6291 101.807L61.8422 108.346ZM53.0452 109.838L54.2501 107.011L46.9941 105.588L53.0452 109.838Z" fill="#E9A803"/>
<path d="M63.6553 86.1261L66.4364 88.4474L67.6911 87.412L71.8628 90.894L66.7399 97.0316L62.5778 93.5576L63.3626 92.13L57.4359 87.1831L56.1716 88.2105L52.0095 84.7365L58.1571 77.3714L69.8028 78.7609L66.6764 76.1514L65.3929 77.1628L61.2308 73.6888L66.3538 67.5511L70.5159 71.0251L69.731 72.4528L75.6577 77.3996L76.922 76.3722L81.0841 79.8462L74.9286 87.221L63.6553 86.1261Z" fill="#E9A803"/>
<path d="M96.2127 68.3455L93.8722 66.0295L89.517 68.9099L90.7427 71.9632L84.8142 75.8842L81.3412 70.633L82.4505 69.5249L78.5849 57.0001L87.191 51.3081L97.2143 59.7604L98.6681 59.1733L102.141 64.4245L96.2127 68.3455ZM88.0495 64.7435L90.6126 63.0483L85.3411 57.8633L88.0495 64.7435Z" fill="#E9A803"/>
<path d="M109.921 50.8141L110.96 54.2844L112.578 54.1127L114.137 59.3181L106.479 61.6122L104.923 56.4188L106.365 55.6608L104.15 48.2656L102.529 48.4253L100.973 43.2318L110.163 40.4789L119.111 48.0612L117.942 44.1602L116.314 44.2959L114.758 39.1025L122.417 36.8084L123.972 42.0018L122.53 42.7598L124.746 50.155L126.367 49.9953L127.923 55.1887L118.72 57.9452L109.921 50.8141Z" fill="#E9A803"/>
<defs>
<linearGradient id="paint0_linear_77_156" x1="145.482" y1="70.4969" x2="145.482" y2="220.783" gradientUnits="userSpaceOnUse">
<stop stop-color="#BF561C"/>
<stop offset="1" stop-color="#F2B313"/>
</linearGradient>
</defs>
</svg>
