<svg width="141" height="141" viewBox="0 0 141 141" fill="none" xmlns="http://www.w3.org/2000/svg">
<path fill-rule="evenodd" clip-rule="evenodd" d="M129.846 70.1543L129.855 70.7517L129.882 71.3498L129.927 71.9491L129.989 72.5504L130.068 73.1543L130.165 73.7615L130.277 74.3724L130.406 74.9877L130.55 75.6079L130.708 76.2336L130.88 76.8653L131.065 77.5033L131.262 78.1481L131.469 78.8L131.685 79.4594L131.91 80.1263L132.141 80.801L132.377 81.4836L132.616 82.1741L132.857 82.8723L133.098 83.578L133.336 84.2911L133.569 85.011L133.796 85.7374L134.014 86.4696L134.22 87.2069L134.413 87.9485L134.589 88.6934L134.747 89.4406L134.884 90.189L134.998 90.9373L135.086 91.6842L135.146 92.4283L135.176 93.168L135.175 93.9019L135.139 94.6285L135.068 95.346L134.96 96.053L134.814 96.7478L134.629 97.4291L134.404 98.0952L134.14 98.7449L133.836 99.3769L133.493 99.99L133.11 100.583L132.69 101.156L132.233 101.707L131.741 102.236L131.216 102.743L130.659 103.228L130.073 103.691L129.46 104.132L128.823 104.551L128.165 104.949L127.488 105.328L126.794 105.688L126.088 106.029L125.371 106.355L124.647 106.665L123.918 106.961L123.188 107.246L122.458 107.52L121.731 107.786L121.01 108.046L120.297 108.301L119.594 108.553L118.903 108.805L118.227 109.058L117.566 109.315L116.923 109.578L116.299 109.849L115.696 110.13L115.115 110.423L114.558 110.732L114.025 111.058L113.518 111.404L113.037 111.772L112.585 112.165L112.161 112.586L111.766 113.036L111.396 113.515L111.048 114.02L110.721 114.551L110.411 115.107L110.116 115.686L109.834 116.287L109.563 116.909L109.299 117.551L109.042 118.21L108.789 118.885L108.537 119.575L108.285 120.277L108.03 120.989L107.771 121.71L107.505 122.436L107.232 123.166L106.948 123.897L106.652 124.626L106.344 125.35L106.02 126.068L105.679 126.775L105.321 127.469L104.944 128.148L104.547 128.808L104.129 129.447L103.69 130.062L103.23 130.65L102.746 131.209L102.241 131.737L101.714 132.232L101.164 132.692L100.593 133.115L100.002 133.5L99.3901 133.847L98.7597 134.154L98.1113 134.421L97.4465 134.649L96.7664 134.837L96.0726 134.986L95.3665 135.097L94.6497 135.171L93.9239 135.21L93.1905 135.214L92.4511 135.186L91.7074 135.129L90.9607 135.043L90.2124 134.931L89.464 134.796L88.7167 134.639L87.9715 134.464L87.2297 134.272L86.492 134.067L85.7594 133.85L85.0325 133.624L84.3121 133.391L83.5984 133.153L82.8921 132.913L82.1933 132.672L81.5022 132.433L80.819 132.196L80.1437 131.965L79.4761 131.74L78.8162 131.522L78.1637 131.314L77.5183 131.117L76.8798 130.931L76.2477 130.758L75.6215 130.598L75.0009 130.453L74.3852 130.323L73.7739 130.209L73.1666 130.112L72.5624 130.031L71.9609 129.968L71.3615 129.922L70.7633 129.893L70.1659 129.883L69.5685 129.891L68.9706 129.916L68.3713 129.959L67.7702 130.02L67.1666 130.098L66.5597 130.193L65.9491 130.304L65.3342 130.432L64.7144 130.574L64.0891 130.731L63.458 130.903L62.8205 131.086L62.1762 131.282L61.5249 131.488L60.8662 131.704L60.1999 131.928L59.5257 132.159L58.8438 132.395L58.154 132.634L57.4564 132.875L56.7512 133.115L56.0388 133.353L55.3193 133.587L54.5935 133.815L53.8617 134.033L53.1248 134.241L52.3835 134.435L51.6389 134.612L50.8918 134.772L50.1435 134.911L49.3951 135.027L48.6481 135.117L47.9037 135.179L47.1636 135.212L46.4292 135.213L45.702 135.18L44.9837 135.111L44.2758 135.006L43.5799 134.863L42.8976 134.681L42.2302 134.46L41.5791 134.199L40.9457 133.898L40.3311 133.558L39.7363 133.179L39.1621 132.762L38.6092 132.308L38.0781 131.818L37.5692 131.295L37.0826 130.741L36.6182 130.157L36.1757 129.547L35.7547 128.911L35.3546 128.255L34.9744 127.579L34.6134 126.886L34.2703 126.181L33.9438 125.465L33.6325 124.741L33.3349 124.013L33.0494 123.282L32.7743 122.552L32.5077 121.825L32.2477 121.104L31.9925 120.39L31.7401 119.686L31.4883 118.994L31.2352 118.316L30.9786 117.655L30.7164 117.01L30.4463 116.385L30.1661 115.78L29.8736 115.197L29.5663 114.638L29.2419 114.103L28.8978 113.593L28.5315 113.111L28.1403 112.656L27.7214 112.23L27.2735 111.833L26.7975 111.461L26.2944 111.112L25.7654 110.783L25.2117 110.471L24.6343 110.176L24.0347 109.893L23.4142 109.62L22.7742 109.356L22.1163 109.099L21.4421 108.845L20.7535 108.593L20.0524 108.341L19.3408 108.087L18.6209 107.828L17.8949 107.563L17.1653 107.29L16.4346 107.007L15.7054 106.713L14.9804 106.405L14.2624 106.082L13.5541 105.743L12.8586 105.387L12.1785 105.011L11.5168 104.616L10.8763 104.2L10.2595 103.762L9.66907 103.303L9.10747 102.822L8.57692 102.318L8.07947 101.793L7.61692 101.245L7.19081 100.676L6.80243 100.086L6.45275 99.4758L6.14246 98.8468L5.87191 98.1998L5.64117 97.5362L5.44998 96.8573L5.29779 96.1645L5.18376 95.4593L5.10678 94.7434L5.0655 94.0182L5.05832 93.2853L5.08346 92.5464L5.13897 91.8029L5.22274 91.0564L5.33253 90.3082L5.46605 89.5598L5.62091 88.8123L5.79471 88.0669L5.985 87.3248L6.18939 86.5867L6.40548 85.8537L6.63093 85.1263L6.86346 84.4053L7.10086 83.6911L7.34103 82.9842L7.58193 82.2847L7.82165 81.5931L8.05837 80.9092L8.29038 80.2332L8.51609 79.5651L8.73402 78.9045L8.94279 78.2514L9.14115 77.6055L9.32794 76.9664L9.50211 76.3338L9.66274 75.7072L9.80896 75.0861L9.94003 74.4701L10.0553 73.8585L10.1542 73.2508L10.2363 72.6464L10.3012 72.0447L10.3486 71.4451L10.3783 70.8469L10.3901 70.2494L10.384 69.6521L10.36 69.0542L10.3182 68.4551L10.2589 67.8541L10.1822 67.2507L10.0886 66.6441L9.9785 66.0338L9.85239 65.4193L9.71091 64.7998L9.55479 64.175L9.38483 63.5444L9.20195 62.9074L9.00716 62.2637L8.80157 61.6129L8.58642 60.9548L8.36303 60.2891L8.13286 59.6156L7.89746 58.9342L7.65851 58.2451L7.41778 57.5481L7.17716 56.8435L6.93865 56.1316L6.70433 55.4127L6.47639 54.6873L6.25706 53.956L6.04869 53.2195L5.85365 52.4785L5.67433 51.7341L5.51318 50.9871L5.3726 50.2388L5.25499 49.4904L5.16269 48.7432L5.09795 47.9986L5.06291 47.2581L5.05959 46.5231L5.08983 45.7953L5.15528 45.0762L5.25737 44.3675L5.3973 43.6706L5.576 42.9871L5.7941 42.3184L6.05196 41.666L6.34962 41.0312L6.68681 40.415L7.06295 39.8186L7.47717 39.2427L7.92827 38.6881L8.41479 38.1553L8.935 37.6446L9.48695 37.1562L10.0684 36.69L10.6771 36.2458L11.3104 35.8231L11.9656 35.4213L12.6402 35.0396L13.3311 34.6771L14.0356 34.3326L14.7508 34.0048L15.4739 33.6924L16.202 33.3938L16.9326 33.1074L17.6628 32.8315L18.3902 32.5642L19.1123 32.3038L19.8268 32.0483L20.5315 31.7957L21.2243 31.544L21.9032 31.2911L22.5665 31.0348L23.2124 30.7731L23.8393 30.5037L24.4457 30.2244L25.0303 29.9329L25.5917 29.6269L26.1287 29.304L26.6401 28.9616L27.1249 28.5971L27.5818 28.208L28.01 27.7914L28.4098 27.3457L28.7837 26.8719L29.1345 26.371L29.4649 25.844L29.7774 25.2922L30.0744 24.7167L30.3582 24.1188L30.6313 23.4998L30.8958 22.8613L31.154 22.2048L31.408 21.5319L31.6599 20.8444L31.9119 20.1442L32.166 19.4333L32.4242 18.714L32.6885 17.9884L32.9607 17.259L33.2427 16.5282L33.5363 15.7988L33.843 15.0733L34.1645 14.3547L34.5022 13.6455L34.8574 12.9489L35.2313 12.2675L35.625 11.6042L36.0393 10.9618L36.4749 10.343L36.9323 9.75044L37.4118 9.18646L37.9136 8.65336L38.4376 8.15319L38.9836 7.6878L39.5511 7.25873L40.1394 6.86731L40.7479 6.51451L41.3754 6.20106L42.021 5.92734L42.6833 5.69343L43.361 5.49911L44.0528 5.34384L44.757 5.2268L45.4722 5.14692L46.1967 5.10285L46.929 5.09302L47.6675 5.11566L48.4106 5.16882L49.157 5.25042L49.905 5.35823L50.6535 5.48994L51.4011 5.6432L52.1467 5.81557L52.8891 6.00465L53.6275 6.208L54.361 6.42325L55.0888 6.64804L55.8103 6.88008L56.5251 7.11718L57.2326 7.35721L57.9326 7.59813L58.6249 7.83801L59.3094 8.07503L59.986 8.30748L60.6548 8.53375L61.3159 8.75235L61.9696 8.9619L62.616 9.16114L63.2556 9.34889L63.8888 9.52411L64.5158 9.68584L65.1373 9.83324L65.7538 9.96555L66.3657 10.0821L66.9736 10.1824L67.5782 10.2658L68.1801 10.3321L68.7799 10.3809L69.3782 10.412L69.9757 10.4252L70.573 10.4205L71.1708 10.398L71.7698 10.3576L72.3706 10.2997L72.9738 10.2244L73.5801 10.1321L74.19 10.0232L74.8042 9.89838L75.4233 9.75811L76.0476 9.60312L76.6778 9.43423L77.3142 9.25234L77.9574 9.05846L78.6076 8.85368L79.2651 8.63924L79.9302 8.41646L80.6031 8.18677L81.2838 7.95172L81.9723 7.71299L82.6687 7.47233L83.3727 7.23163L84.084 6.99287L84.8023 6.75814L85.5272 6.5296L86.2581 6.30951L86.9942 6.10018L87.7348 5.90398L88.479 5.72332L89.2258 5.56063L89.974 5.41832L90.7224 5.2988L91.4698 5.2044L92.2146 5.13738L92.9556 5.0999L93.691 5.09398L94.4194 5.12149L95.1393 5.18408L95.8489 5.28321L96.5468 5.42009L97.2314 5.59567L97.9013 5.81062L98.555 6.06531L99.1913 6.35981L99.809 6.69387L100.407 7.06695L100.985 7.47817L101.541 7.92639L102.075 8.41015L102.588 8.92776L103.078 9.47726L103.546 10.0565L103.992 10.6631L104.416 11.2945L104.82 11.9481L105.203 12.6212L105.567 13.3109L105.913 14.0145L106.242 14.7289L106.556 15.4515L106.855 16.1794L107.143 16.9098L107.419 17.6402L107.687 18.3679L107.948 19.0905L108.204 19.8057L108.457 20.5113L108.708 21.2051L108.961 21.8852L109.217 22.5498L109.478 23.1971L109.747 23.8256L110.025 24.4337L110.316 25.0201L110.62 25.5834L110.942 26.1224L111.283 26.6359L111.645 27.1228L112.032 27.582L112.447 28.0126L112.89 28.4145L113.362 28.7903L113.86 29.1429L114.385 29.4749L114.935 29.7887L115.509 30.0868L116.105 30.3717L116.722 30.6455L117.359 30.9106L118.015 31.1692L118.686 31.4234L119.373 31.6755L120.072 31.9274L120.782 32.1813L121.501 32.4391L122.226 32.7028L122.955 32.9743L123.686 33.2555L124.415 33.5481L125.141 33.8537L125.861 34.174L126.571 34.5103L127.268 34.8641L127.951 35.2365L128.616 35.6286L129.26 36.0412L129.881 36.475L130.475 36.9307L131.042 37.4085L131.577 37.9085L132.08 38.4308L132.549 38.975L132.981 39.5408L133.375 40.1275L133.731 40.7344L134.047 41.3605L134.324 42.0046L134.561 42.6657L134.759 43.3422L134.917 44.0329L135.037 44.7362L135.12 45.4506L135.167 46.1744L135.179 46.9061L135.159 47.6442L135.109 48.3871L135.029 49.1332L134.923 49.8812L134.793 50.6297L134.642 51.3774L134.471 52.1232L134.283 52.8659L134.081 53.6047L133.866 54.3386L133.642 55.0669L133.411 55.7889L133.174 56.5043L132.934 57.2124L132.693 57.913L132.453 58.6059L132.216 59.291L131.983 59.9683L131.756 60.6377L131.537 61.2994L131.326 61.9537L131.126 62.6007L130.938 63.2408L130.761 63.8745L130.599 64.502L130.45 65.1239L130.317 65.7408L130.199 66.353L130.097 66.9613L130.012 67.5661L129.945 68.1682L129.894 68.7681L129.862 69.3665L129.847 69.9641L129.846 70.1543Z" fill="white"/>
<path fill-rule="evenodd" clip-rule="evenodd" d="M129.846 70.1543L129.855 70.7517L129.882 71.3498L129.927 71.9491L129.989 72.5504L130.068 73.1543L130.165 73.7615L130.277 74.3724L130.406 74.9877L130.55 75.6079L130.708 76.2336L130.88 76.8653L131.065 77.5033L131.262 78.1481L131.469 78.8L131.685 79.4594L131.91 80.1263L132.141 80.801L132.377 81.4836L132.616 82.1741L132.857 82.8723L133.098 83.578L133.336 84.2911L133.569 85.011L133.796 85.7374L134.014 86.4696L134.22 87.2069L134.413 87.9485L134.589 88.6934L134.747 89.4406L134.884 90.189L134.998 90.9373L135.086 91.6842L135.146 92.4283L135.176 93.168L135.175 93.9019L135.139 94.6285L135.068 95.346L134.96 96.053L134.814 96.7478L134.629 97.4291L134.404 98.0952L134.14 98.7449L133.836 99.3769L133.493 99.99L133.11 100.583L132.69 101.156L132.233 101.707L131.741 102.236L131.216 102.743L130.659 103.228L130.073 103.691L129.46 104.132L128.823 104.551L128.165 104.949L127.488 105.328L126.794 105.688L126.088 106.029L125.371 106.355L124.647 106.665L123.918 106.961L123.188 107.246L122.458 107.52L121.731 107.786L121.01 108.046L120.297 108.301L119.594 108.553L118.903 108.805L118.227 109.058L117.566 109.315L116.923 109.578L116.299 109.849L115.696 110.13L115.115 110.423L114.558 110.732L114.025 111.058L113.518 111.404L113.037 111.772L112.585 112.165L112.161 112.586L111.766 113.036L111.396 113.515L111.048 114.02L110.721 114.551L110.411 115.107L110.116 115.686L109.834 116.287L109.563 116.909L109.299 117.551L109.042 118.21L108.789 118.885L108.537 119.575L108.285 120.277L108.03 120.989L107.771 121.71L107.505 122.436L107.232 123.166L106.948 123.897L106.652 124.626L106.344 125.35L106.02 126.068L105.679 126.775L105.321 127.469L104.944 128.148L104.547 128.808L104.129 129.447L103.69 130.062L103.23 130.65L102.746 131.209L102.241 131.737L101.714 132.232L101.164 132.692L100.593 133.115L100.002 133.5L99.3901 133.847L98.7597 134.154L98.1113 134.421L97.4465 134.649L96.7664 134.837L96.0726 134.986L95.3665 135.097L94.6497 135.171L93.9239 135.21L93.1905 135.214L92.4511 135.186L91.7074 135.129L90.9607 135.043L90.2124 134.931L89.464 134.796L88.7167 134.639L87.9715 134.464L87.2297 134.272L86.492 134.067L85.7594 133.85L85.0325 133.624L84.3121 133.391L83.5984 133.153L82.8921 132.913L82.1933 132.672L81.5022 132.433L80.819 132.196L80.1437 131.965L79.4761 131.74L78.8162 131.522L78.1637 131.314L77.5183 131.117L76.8798 130.931L76.2477 130.758L75.6215 130.598L75.0009 130.453L74.3852 130.323L73.7739 130.209L73.1666 130.112L72.5624 130.031L71.9609 129.968L71.3615 129.922L70.7633 129.893L70.1659 129.883L69.5685 129.891L68.9706 129.916L68.3713 129.959L67.7702 130.02L67.1666 130.098L66.5597 130.193L65.9491 130.304L65.3342 130.432L64.7144 130.574L64.0891 130.731L63.458 130.903L62.8205 131.086L62.1762 131.282L61.5249 131.488L60.8662 131.704L60.1999 131.928L59.5257 132.159L58.8438 132.395L58.154 132.634L57.4564 132.875L56.7512 133.115L56.0388 133.353L55.3193 133.587L54.5935 133.815L53.8617 134.033L53.1248 134.241L52.3835 134.435L51.6389 134.612L50.8918 134.772L50.1435 134.911L49.3951 135.027L48.6481 135.117L47.9037 135.179L47.1636 135.212L46.4292 135.213L45.702 135.18L44.9837 135.111L44.2758 135.006L43.5799 134.863L42.8976 134.681L42.2302 134.46L41.5791 134.199L40.9457 133.898L40.3311 133.558L39.7363 133.179L39.1621 132.762L38.6092 132.308L38.0781 131.818L37.5692 131.295L37.0826 130.741L36.6182 130.157L36.1757 129.547L35.7547 128.911L35.3546 128.255L34.9744 127.579L34.6134 126.886L34.2703 126.181L33.9438 125.465L33.6325 124.741L33.3349 124.013L33.0494 123.282L32.7743 122.552L32.5077 121.825L32.2477 121.104L31.9925 120.39L31.7401 119.686L31.4883 118.994L31.2352 118.316L30.9786 117.655L30.7164 117.01L30.4463 116.385L30.1661 115.78L29.8736 115.197L29.5663 114.638L29.2419 114.103L28.8978 113.593L28.5315 113.111L28.1403 112.656L27.7214 112.23L27.2735 111.833L26.7975 111.461L26.2944 111.112L25.7654 110.783L25.2117 110.471L24.6343 110.176L24.0347 109.893L23.4142 109.62L22.7742 109.356L22.1163 109.099L21.4421 108.845L20.7535 108.593L20.0524 108.341L19.3408 108.087L18.6209 107.828L17.8949 107.563L17.1653 107.29L16.4346 107.007L15.7054 106.713L14.9804 106.405L14.2624 106.082L13.5541 105.743L12.8586 105.387L12.1785 105.011L11.5168 104.616L10.8763 104.2L10.2595 103.762L9.66907 103.303L9.10747 102.822L8.57692 102.318L8.07947 101.793L7.61692 101.245L7.19081 100.676L6.80243 100.086L6.45275 99.4758L6.14246 98.8468L5.87191 98.1998L5.64117 97.5362L5.44998 96.8573L5.29779 96.1645L5.18376 95.4593L5.10678 94.7434L5.0655 94.0182L5.05832 93.2853L5.08346 92.5464L5.13897 91.8029L5.22274 91.0564L5.33253 90.3082L5.46605 89.5598L5.62091 88.8123L5.79471 88.0669L5.985 87.3248L6.18939 86.5867L6.40548 85.8537L6.63093 85.1263L6.86346 84.4053L7.10086 83.6911L7.34103 82.9842L7.58193 82.2847L7.82165 81.5931L8.05837 80.9092L8.29038 80.2332L8.51609 79.5651L8.73402 78.9045L8.94279 78.2514L9.14115 77.6055L9.32794 76.9664L9.50211 76.3338L9.66274 75.7072L9.80896 75.0861L9.94003 74.4701L10.0553 73.8585L10.1542 73.2508L10.2363 72.6464L10.3012 72.0447L10.3486 71.4451L10.3783 70.8469L10.3901 70.2494L10.384 69.6521L10.36 69.0542L10.3182 68.4551L10.2589 67.8541L10.1822 67.2507L10.0886 66.6441L9.9785 66.0338L9.85239 65.4193L9.71091 64.7998L9.55479 64.175L9.38483 63.5444L9.20195 62.9074L9.00716 62.2637L8.80157 61.6129L8.58642 60.9548L8.36303 60.2891L8.13286 59.6156L7.89746 58.9342L7.65851 58.2451L7.41778 57.5481L7.17716 56.8435L6.93865 56.1316L6.70433 55.4127L6.47639 54.6873L6.25706 53.956L6.04869 53.2195L5.85365 52.4785L5.67433 51.7341L5.51318 50.9871L5.3726 50.2388L5.25499 49.4904L5.16269 48.7432L5.09795 47.9986L5.06291 47.2581L5.05959 46.5231L5.08983 45.7953L5.15528 45.0762L5.25737 44.3675L5.3973 43.6706L5.576 42.9871L5.7941 42.3184L6.05196 41.666L6.34962 41.0312L6.68681 40.415L7.06295 39.8186L7.47717 39.2427L7.92827 38.6881L8.41479 38.1553L8.935 37.6446L9.48695 37.1562L10.0684 36.69L10.6771 36.2458L11.3104 35.8231L11.9656 35.4213L12.6402 35.0396L13.3311 34.6771L14.0356 34.3326L14.7508 34.0048L15.4739 33.6924L16.202 33.3938L16.9326 33.1074L17.6628 32.8315L18.3902 32.5642L19.1123 32.3038L19.8268 32.0483L20.5315 31.7957L21.2243 31.544L21.9032 31.2911L22.5665 31.0348L23.2124 30.7731L23.8393 30.5037L24.4457 30.2244L25.0303 29.9329L25.5917 29.6269L26.1287 29.304L26.6401 28.9616L27.1249 28.5971L27.5818 28.208L28.01 27.7914L28.4098 27.3457L28.7837 26.8719L29.1345 26.371L29.4649 25.844L29.7774 25.2922L30.0744 24.7167L30.3582 24.1188L30.6313 23.4998L30.8958 22.8613L31.154 22.2048L31.408 21.5319L31.6599 20.8444L31.9119 20.1442L32.166 19.4333L32.4242 18.714L32.6885 17.9884L32.9607 17.259L33.2427 16.5282L33.5363 15.7988L33.843 15.0733L34.1645 14.3547L34.5022 13.6455L34.8574 12.9489L35.2313 12.2675L35.625 11.6042L36.0393 10.9618L36.4749 10.343L36.9323 9.75044L37.4118 9.18646L37.9136 8.65336L38.4376 8.15319L38.9836 7.6878L39.5511 7.25873L40.1394 6.86731L40.7479 6.51451L41.3754 6.20106L42.021 5.92734L42.6833 5.69343L43.361 5.49911L44.0528 5.34384L44.757 5.2268L45.4722 5.14692L46.1967 5.10285L46.929 5.09302L47.6675 5.11566L48.4106 5.16882L49.157 5.25042L49.905 5.35823L50.6535 5.48994L51.4011 5.6432L52.1467 5.81557L52.8891 6.00465L53.6275 6.208L54.361 6.42325L55.0888 6.64804L55.8103 6.88008L56.5251 7.11718L57.2326 7.35721L57.9326 7.59813L58.6249 7.83801L59.3094 8.07503L59.986 8.30748L60.6548 8.53375L61.3159 8.75235L61.9696 8.9619L62.616 9.16114L63.2556 9.34889L63.8888 9.52411L64.5158 9.68584L65.1373 9.83324L65.7538 9.96555L66.3657 10.0821L66.9736 10.1824L67.5782 10.2658L68.1801 10.3321L68.7799 10.3809L69.3782 10.412L69.9757 10.4252L70.573 10.4205L71.1708 10.398L71.7698 10.3576L72.3706 10.2997L72.9738 10.2244L73.5801 10.1321L74.19 10.0232L74.8042 9.89838L75.4233 9.75811L76.0476 9.60312L76.6778 9.43423L77.3142 9.25234L77.9574 9.05846L78.6076 8.85368L79.2651 8.63924L79.9302 8.41646L80.6031 8.18677L81.2838 7.95172L81.9723 7.71299L82.6687 7.47233L83.3727 7.23163L84.084 6.99287L84.8023 6.75814L85.5272 6.5296L86.2581 6.30951L86.9942 6.10018L87.7348 5.90398L88.479 5.72332L89.2258 5.56063L89.974 5.41832L90.7224 5.2988L91.4698 5.2044L92.2146 5.13738L92.9556 5.0999L93.691 5.09398L94.4194 5.12149L95.1393 5.18408L95.8489 5.28321L96.5468 5.42009L97.2314 5.59567L97.9013 5.81062L98.555 6.06531L99.1913 6.35981L99.809 6.69387L100.407 7.06695L100.985 7.47817L101.541 7.92639L102.075 8.41015L102.588 8.92776L103.078 9.47726L103.546 10.0565L103.992 10.6631L104.416 11.2945L104.82 11.9481L105.203 12.6212L105.567 13.3109L105.913 14.0145L106.242 14.7289L106.556 15.4515L106.855 16.1794L107.143 16.9098L107.419 17.6402L107.687 18.3679L107.948 19.0905L108.204 19.8057L108.457 20.5113L108.708 21.2051L108.961 21.8852L109.217 22.5498L109.478 23.1971L109.747 23.8256L110.025 24.4337L110.316 25.0201L110.62 25.5834L110.942 26.1224L111.283 26.6359L111.645 27.1228L112.032 27.582L112.447 28.0126L112.89 28.4145L113.362 28.7903L113.86 29.1429L114.385 29.4749L114.935 29.7887L115.509 30.0868L116.105 30.3717L116.722 30.6455L117.359 30.9106L118.015 31.1692L118.686 31.4234L119.373 31.6755L120.072 31.9274L120.782 32.1813L121.501 32.4391L122.226 32.7028L122.955 32.9743L123.686 33.2555L124.415 33.5481L125.141 33.8537L125.861 34.174L126.571 34.5103L127.268 34.8641L127.951 35.2365L128.616 35.6286L129.26 36.0412L129.881 36.475L130.475 36.9307L131.042 37.4085L131.577 37.9085L132.08 38.4308L132.549 38.975L132.981 39.5408L133.375 40.1275L133.731 40.7344L134.047 41.3605L134.324 42.0046L134.561 42.6657L134.759 43.3422L134.917 44.0329L135.037 44.7362L135.12 45.4506L135.167 46.1744L135.179 46.9061L135.159 47.6442L135.109 48.3871L135.029 49.1332L134.923 49.8812L134.793 50.6297L134.642 51.3774L134.471 52.1232L134.283 52.8659L134.081 53.6047L133.866 54.3386L133.642 55.0669L133.411 55.7889L133.174 56.5043L132.934 57.2124L132.693 57.913L132.453 58.6059L132.216 59.291L131.983 59.9683L131.756 60.6377L131.537 61.2994L131.326 61.9537L131.126 62.6007L130.938 63.2408L130.761 63.8745L130.599 64.502L130.45 65.1239L130.317 65.7408L130.199 66.353L130.097 66.9613L130.012 67.5661L129.945 68.1682L129.894 68.7681L129.862 69.3665L129.847 69.9641L129.846 70.1543Z" fill="white"/>
<path fill-rule="evenodd" clip-rule="evenodd" d="M129.846 70.1543L129.855 70.7517L129.882 71.3498L129.927 71.9491L129.989 72.5504L130.068 73.1543L130.165 73.7615L130.277 74.3724L130.406 74.9877L130.55 75.6079L130.708 76.2336L130.88 76.8653L131.065 77.5033L131.262 78.1481L131.469 78.8L131.685 79.4594L131.91 80.1263L132.141 80.801L132.377 81.4836L132.616 82.1741L132.857 82.8723L133.098 83.578L133.336 84.2911L133.569 85.011L133.796 85.7374L134.014 86.4696L134.22 87.2069L134.413 87.9485L134.589 88.6934L134.747 89.4406L134.884 90.189L134.998 90.9373L135.086 91.6842L135.146 92.4283L135.176 93.168L135.175 93.9019L135.139 94.6285L135.068 95.346L134.96 96.053L134.814 96.7478L134.629 97.4291L134.404 98.0952L134.14 98.7449L133.836 99.3769L133.493 99.99L133.11 100.583L132.69 101.156L132.233 101.707L131.741 102.236L131.216 102.743L130.659 103.228L130.073 103.691L129.46 104.132L128.823 104.551L128.165 104.949L127.488 105.328L126.794 105.688L126.088 106.029L125.371 106.355L124.647 106.665L123.918 106.961L123.188 107.246L122.458 107.52L121.731 107.786L121.01 108.046L120.297 108.301L119.594 108.553L118.903 108.805L118.227 109.058L117.566 109.315L116.923 109.578L116.299 109.849L115.696 110.13L115.115 110.423L114.558 110.732L114.025 111.058L113.518 111.404L113.037 111.772L112.585 112.165L112.161 112.586L111.766 113.036L111.396 113.515L111.048 114.02L110.721 114.551L110.411 115.107L110.116 115.686L109.834 116.287L109.563 116.909L109.299 117.551L109.042 118.21L108.789 118.885L108.537 119.575L108.285 120.277L108.03 120.989L107.771 121.71L107.505 122.436L107.232 123.166L106.948 123.897L106.652 124.626L106.344 125.35L106.02 126.068L105.679 126.775L105.321 127.469L104.944 128.148L104.547 128.808L104.129 129.447L103.69 130.062L103.23 130.65L102.746 131.209L102.241 131.737L101.714 132.232L101.164 132.692L100.593 133.115L100.002 133.5L99.3901 133.847L98.7597 134.154L98.1113 134.421L97.4465 134.649L96.7664 134.837L96.0726 134.986L95.3665 135.097L94.6497 135.171L93.9239 135.21L93.1905 135.214L92.4511 135.186L91.7074 135.129L90.9607 135.043L90.2124 134.931L89.464 134.796L88.7167 134.639L87.9715 134.464L87.2297 134.272L86.492 134.067L85.7594 133.85L85.0325 133.624L84.3121 133.391L83.5984 133.153L82.8921 132.913L82.1933 132.672L81.5022 132.433L80.819 132.196L80.1437 131.965L79.4761 131.74L78.8162 131.522L78.1637 131.314L77.5183 131.117L76.8798 130.931L76.2477 130.758L75.6215 130.598L75.0009 130.453L74.3852 130.323L73.7739 130.209L73.1666 130.112L72.5624 130.031L71.9609 129.968L71.3615 129.922L70.7633 129.893L70.1659 129.883L69.5685 129.891L68.9706 129.916L68.3713 129.959L67.7702 130.02L67.1666 130.098L66.5597 130.193L65.9491 130.304L65.3342 130.432L64.7144 130.574L64.0891 130.731L63.458 130.903L62.8205 131.086L62.1762 131.282L61.5249 131.488L60.8662 131.704L60.1999 131.928L59.5257 132.159L58.8438 132.395L58.154 132.634L57.4564 132.875L56.7512 133.115L56.0388 133.353L55.3193 133.587L54.5935 133.815L53.8617 134.033L53.1248 134.241L52.3835 134.435L51.6389 134.612L50.8918 134.772L50.1435 134.911L49.3951 135.027L48.6481 135.117L47.9037 135.179L47.1636 135.212L46.4292 135.213L45.702 135.18L44.9837 135.111L44.2758 135.006L43.5799 134.863L42.8976 134.681L42.2302 134.46L41.5791 134.199L40.9457 133.898L40.3311 133.558L39.7363 133.179L39.1621 132.762L38.6092 132.308L38.0781 131.818L37.5692 131.295L37.0826 130.741L36.6182 130.157L36.1757 129.547L35.7547 128.911L35.3546 128.255L34.9744 127.579L34.6134 126.886L34.2703 126.181L33.9438 125.465L33.6325 124.741L33.3349 124.013L33.0494 123.282L32.7743 122.552L32.5077 121.825L32.2477 121.104L31.9925 120.39L31.7401 119.686L31.4883 118.994L31.2352 118.316L30.9786 117.655L30.7164 117.01L30.4463 116.385L30.1661 115.78L29.8736 115.197L29.5663 114.638L29.2419 114.103L28.8978 113.593L28.5315 113.111L28.1403 112.656L27.7214 112.23L27.2735 111.833L26.7975 111.461L26.2944 111.112L25.7654 110.783L25.2117 110.471L24.6343 110.176L24.0347 109.893L23.4142 109.62L22.7742 109.356L22.1163 109.099L21.4421 108.845L20.7535 108.593L20.0524 108.341L19.3408 108.087L18.6209 107.828L17.8949 107.563L17.1653 107.29L16.4346 107.007L15.7054 106.713L14.9804 106.405L14.2624 106.082L13.5541 105.743L12.8586 105.387L12.1785 105.011L11.5168 104.616L10.8763 104.2L10.2595 103.762L9.66907 103.303L9.10747 102.822L8.57692 102.318L8.07947 101.793L7.61692 101.245L7.19081 100.676L6.80243 100.086L6.45275 99.4758L6.14246 98.8468L5.87191 98.1998L5.64117 97.5362L5.44998 96.8573L5.29779 96.1645L5.18376 95.4593L5.10678 94.7434L5.0655 94.0182L5.05832 93.2853L5.08346 92.5464L5.13897 91.8029L5.22274 91.0564L5.33253 90.3082L5.46605 89.5598L5.62091 88.8123L5.79471 88.0669L5.985 87.3248L6.18939 86.5867L6.40548 85.8537L6.63093 85.1263L6.86346 84.4053L7.10086 83.6911L7.34103 82.9842L7.58193 82.2847L7.82165 81.5931L8.05837 80.9092L8.29038 80.2332L8.51609 79.5651L8.73402 78.9045L8.94279 78.2514L9.14115 77.6055L9.32794 76.9664L9.50211 76.3338L9.66274 75.7072L9.80896 75.0861L9.94003 74.4701L10.0553 73.8585L10.1542 73.2508L10.2363 72.6464L10.3012 72.0447L10.3486 71.4451L10.3783 70.8469L10.3901 70.2494L10.384 69.6521L10.36 69.0542L10.3182 68.4551L10.2589 67.8541L10.1822 67.2507L10.0886 66.6441L9.9785 66.0338L9.85239 65.4193L9.71091 64.7998L9.55479 64.175L9.38483 63.5444L9.20195 62.9074L9.00716 62.2637L8.80157 61.6129L8.58642 60.9548L8.36303 60.2891L8.13286 59.6156L7.89746 58.9342L7.65851 58.2451L7.41778 57.5481L7.17716 56.8435L6.93865 56.1316L6.70433 55.4127L6.47639 54.6873L6.25706 53.956L6.04869 53.2195L5.85365 52.4785L5.67433 51.7341L5.51318 50.9871L5.3726 50.2388L5.25499 49.4904L5.16269 48.7432L5.09795 47.9986L5.06291 47.2581L5.05959 46.5231L5.08983 45.7953L5.15528 45.0762L5.25737 44.3675L5.3973 43.6706L5.576 42.9871L5.7941 42.3184L6.05196 41.666L6.34962 41.0312L6.68681 40.415L7.06295 39.8186L7.47717 39.2427L7.92827 38.6881L8.41479 38.1553L8.935 37.6446L9.48695 37.1562L10.0684 36.69L10.6771 36.2458L11.3104 35.8231L11.9656 35.4213L12.6402 35.0396L13.3311 34.6771L14.0356 34.3326L14.7508 34.0048L15.4739 33.6924L16.202 33.3938L16.9326 33.1074L17.6628 32.8315L18.3902 32.5642L19.1123 32.3038L19.8268 32.0483L20.5315 31.7957L21.2243 31.544L21.9032 31.2911L22.5665 31.0348L23.2124 30.7731L23.8393 30.5037L24.4457 30.2244L25.0303 29.9329L25.5917 29.6269L26.1287 29.304L26.6401 28.9616L27.1249 28.5971L27.5818 28.208L28.01 27.7914L28.4098 27.3457L28.7837 26.8719L29.1345 26.371L29.4649 25.844L29.7774 25.2922L30.0744 24.7167L30.3582 24.1188L30.6313 23.4998L30.8958 22.8613L31.154 22.2048L31.408 21.5319L31.6599 20.8444L31.9119 20.1442L32.166 19.4333L32.4242 18.714L32.6885 17.9884L32.9607 17.259L33.2427 16.5282L33.5363 15.7988L33.843 15.0733L34.1645 14.3547L34.5022 13.6455L34.8574 12.9489L35.2313 12.2675L35.625 11.6042L36.0393 10.9618L36.4749 10.343L36.9323 9.75044L37.4118 9.18646L37.9136 8.65336L38.4376 8.15319L38.9836 7.6878L39.5511 7.25873L40.1394 6.86731L40.7479 6.51451L41.3754 6.20106L42.021 5.92734L42.6833 5.69343L43.361 5.49911L44.0528 5.34384L44.757 5.2268L45.4722 5.14692L46.1967 5.10285L46.929 5.09302L47.6675 5.11566L48.4106 5.16882L49.157 5.25042L49.905 5.35823L50.6535 5.48994L51.4011 5.6432L52.1467 5.81557L52.8891 6.00465L53.6275 6.208L54.361 6.42325L55.0888 6.64804L55.8103 6.88008L56.5251 7.11718L57.2326 7.35721L57.9326 7.59813L58.6249 7.83801L59.3094 8.07503L59.986 8.30748L60.6548 8.53375L61.3159 8.75235L61.9696 8.9619L62.616 9.16114L63.2556 9.34889L63.8888 9.52411L64.5158 9.68584L65.1373 9.83324L65.7538 9.96555L66.3657 10.0821L66.9736 10.1824L67.5782 10.2658L68.1801 10.3321L68.7799 10.3809L69.3782 10.412L69.9757 10.4252L70.573 10.4205L71.1708 10.398L71.7698 10.3576L72.3706 10.2997L72.9738 10.2244L73.5801 10.1321L74.19 10.0232L74.8042 9.89838L75.4233 9.75811L76.0476 9.60312L76.6778 9.43423L77.3142 9.25234L77.9574 9.05846L78.6076 8.85368L79.2651 8.63924L79.9302 8.41646L80.6031 8.18677L81.2838 7.95172L81.9723 7.71299L82.6687 7.47233L83.3727 7.23163L84.084 6.99287L84.8023 6.75814L85.5272 6.5296L86.2581 6.30951L86.9942 6.10018L87.7348 5.90398L88.479 5.72332L89.2258 5.56063L89.974 5.41832L90.7224 5.2988L91.4698 5.2044L92.2146 5.13738L92.9556 5.0999L93.691 5.09398L94.4194 5.12149L95.1393 5.18408L95.8489 5.28321L96.5468 5.42009L97.2314 5.59567L97.9013 5.81062L98.555 6.06531L99.1913 6.35981L99.809 6.69387L100.407 7.06695L100.985 7.47817L101.541 7.92639L102.075 8.41015L102.588 8.92776L103.078 9.47726L103.546 10.0565L103.992 10.6631L104.416 11.2945L104.82 11.9481L105.203 12.6212L105.567 13.3109L105.913 14.0145L106.242 14.7289L106.556 15.4515L106.855 16.1794L107.143 16.9098L107.419 17.6402L107.687 18.3679L107.948 19.0905L108.204 19.8057L108.457 20.5113L108.708 21.2051L108.961 21.8852L109.217 22.5498L109.478 23.1971L109.747 23.8256L110.025 24.4337L110.316 25.0201L110.62 25.5834L110.942 26.1224L111.283 26.6359L111.645 27.1228L112.032 27.582L112.447 28.0126L112.89 28.4145L113.362 28.7903L113.86 29.1429L114.385 29.4749L114.935 29.7887L115.509 30.0868L116.105 30.3717L116.722 30.6455L117.359 30.9106L118.015 31.1692L118.686 31.4234L119.373 31.6755L120.072 31.9274L120.782 32.1813L121.501 32.4391L122.226 32.7028L122.955 32.9743L123.686 33.2555L124.415 33.5481L125.141 33.8537L125.861 34.174L126.571 34.5103L127.268 34.8641L127.951 35.2365L128.616 35.6286L129.26 36.0412L129.881 36.475L130.475 36.9307L131.042 37.4085L131.577 37.9085L132.08 38.4308L132.549 38.975L132.981 39.5408L133.375 40.1275L133.731 40.7344L134.047 41.3605L134.324 42.0046L134.561 42.6657L134.759 43.3422L134.917 44.0329L135.037 44.7362L135.12 45.4506L135.167 46.1744L135.179 46.9061L135.159 47.6442L135.109 48.3871L135.029 49.1332L134.923 49.8812L134.793 50.6297L134.642 51.3774L134.471 52.1232L134.283 52.8659L134.081 53.6047L133.866 54.3386L133.642 55.0669L133.411 55.7889L133.174 56.5043L132.934 57.2124L132.693 57.913L132.453 58.6059L132.216 59.291L131.983 59.9683L131.756 60.6377L131.537 61.2994L131.326 61.9537L131.126 62.6007L130.938 63.2408L130.761 63.8745L130.599 64.502L130.45 65.1239L130.317 65.7408L130.199 66.353L130.097 66.9613L130.012 67.5661L129.945 68.1682L129.894 68.7681L129.862 69.3665L129.847 69.9641L129.846 70.1543Z" fill="white"/>
<path fill-rule="evenodd" clip-rule="evenodd" d="M129.846 70.1543L129.855 70.7517L129.882 71.3498L129.927 71.9491L129.989 72.5504L130.068 73.1543L130.165 73.7615L130.277 74.3724L130.406 74.9877L130.55 75.6079L130.708 76.2336L130.88 76.8653L131.065 77.5033L131.262 78.1481L131.469 78.8L131.685 79.4594L131.91 80.1263L132.141 80.801L132.377 81.4836L132.616 82.1741L132.857 82.8723L133.098 83.578L133.336 84.2911L133.569 85.011L133.796 85.7374L134.014 86.4696L134.22 87.2069L134.413 87.9485L134.589 88.6934L134.747 89.4406L134.884 90.189L134.998 90.9373L135.086 91.6842L135.146 92.4283L135.176 93.168L135.175 93.9019L135.139 94.6285L135.068 95.346L134.96 96.053L134.814 96.7478L134.629 97.4291L134.404 98.0952L134.14 98.7449L133.836 99.3769L133.493 99.99L133.11 100.583L132.69 101.156L132.233 101.707L131.741 102.236L131.216 102.743L130.659 103.228L130.073 103.691L129.46 104.132L128.823 104.551L128.165 104.949L127.488 105.328L126.794 105.688L126.088 106.029L125.371 106.355L124.647 106.665L123.918 106.961L123.188 107.246L122.458 107.52L121.731 107.786L121.01 108.046L120.297 108.301L119.594 108.553L118.903 108.805L118.227 109.058L117.566 109.315L116.923 109.578L116.299 109.849L115.696 110.13L115.115 110.423L114.558 110.732L114.025 111.058L113.518 111.404L113.037 111.772L112.585 112.165L112.161 112.586L111.766 113.036L111.396 113.515L111.048 114.02L110.721 114.551L110.411 115.107L110.116 115.686L109.834 116.287L109.563 116.909L109.299 117.551L109.042 118.21L108.789 118.885L108.537 119.575L108.285 120.277L108.03 120.989L107.771 121.71L107.505 122.436L107.232 123.166L106.948 123.897L106.652 124.626L106.344 125.35L106.02 126.068L105.679 126.775L105.321 127.469L104.944 128.148L104.547 128.808L104.129 129.447L103.69 130.062L103.23 130.65L102.746 131.209L102.241 131.737L101.714 132.232L101.164 132.692L100.593 133.115L100.002 133.5L99.3901 133.847L98.7597 134.154L98.1113 134.421L97.4465 134.649L96.7664 134.837L96.0726 134.986L95.3665 135.097L94.6497 135.171L93.9239 135.21L93.1905 135.214L92.4511 135.186L91.7074 135.129L90.9607 135.043L90.2124 134.931L89.464 134.796L88.7167 134.639L87.9715 134.464L87.2297 134.272L86.492 134.067L85.7594 133.85L85.0325 133.624L84.3121 133.391L83.5984 133.153L82.8921 132.913L82.1933 132.672L81.5022 132.433L80.819 132.196L80.1437 131.965L79.4761 131.74L78.8162 131.522L78.1637 131.314L77.5183 131.117L76.8798 130.931L76.2477 130.758L75.6215 130.598L75.0009 130.453L74.3852 130.323L73.7739 130.209L73.1666 130.112L72.5624 130.031L71.9609 129.968L71.3615 129.922L70.7633 129.893L70.1659 129.883L69.5685 129.891L68.9706 129.916L68.3713 129.959L67.7702 130.02L67.1666 130.098L66.5597 130.193L65.9491 130.304L65.3342 130.432L64.7144 130.574L64.0891 130.731L63.458 130.903L62.8205 131.086L62.1762 131.282L61.5249 131.488L60.8662 131.704L60.1999 131.928L59.5257 132.159L58.8438 132.395L58.154 132.634L57.4564 132.875L56.7512 133.115L56.0388 133.353L55.3193 133.587L54.5935 133.815L53.8617 134.033L53.1248 134.241L52.3835 134.435L51.6389 134.612L50.8918 134.772L50.1435 134.911L49.3951 135.027L48.6481 135.117L47.9037 135.179L47.1636 135.212L46.4292 135.213L45.702 135.18L44.9837 135.111L44.2758 135.006L43.5799 134.863L42.8976 134.681L42.2302 134.46L41.5791 134.199L40.9457 133.898L40.3311 133.558L39.7363 133.179L39.1621 132.762L38.6092 132.308L38.0781 131.818L37.5692 131.295L37.0826 130.741L36.6182 130.157L36.1757 129.547L35.7547 128.911L35.3546 128.255L34.9744 127.579L34.6134 126.886L34.2703 126.181L33.9438 125.465L33.6325 124.741L33.3349 124.013L33.0494 123.282L32.7743 122.552L32.5077 121.825L32.2477 121.104L31.9925 120.39L31.7401 119.686L31.4883 118.994L31.2352 118.316L30.9786 117.655L30.7164 117.01L30.4463 116.385L30.1661 115.78L29.8736 115.197L29.5663 114.638L29.2419 114.103L28.8978 113.593L28.5315 113.111L28.1403 112.656L27.7214 112.23L27.2735 111.833L26.7975 111.461L26.2944 111.112L25.7654 110.783L25.2117 110.471L24.6343 110.176L24.0347 109.893L23.4142 109.62L22.7742 109.356L22.1163 109.099L21.4421 108.845L20.7535 108.593L20.0524 108.341L19.3408 108.087L18.6209 107.828L17.8949 107.563L17.1653 107.29L16.4346 107.007L15.7054 106.713L14.9804 106.405L14.2624 106.082L13.5541 105.743L12.8586 105.387L12.1785 105.011L11.5168 104.616L10.8763 104.2L10.2595 103.762L9.66907 103.303L9.10747 102.822L8.57692 102.318L8.07947 101.793L7.61692 101.245L7.19081 100.676L6.80243 100.086L6.45275 99.4758L6.14246 98.8468L5.87191 98.1998L5.64117 97.5362L5.44998 96.8573L5.29779 96.1645L5.18376 95.4593L5.10678 94.7434L5.0655 94.0182L5.05832 93.2853L5.08346 92.5464L5.13897 91.8029L5.22274 91.0564L5.33253 90.3082L5.46605 89.5598L5.62091 88.8123L5.79471 88.0669L5.985 87.3248L6.18939 86.5867L6.40548 85.8537L6.63093 85.1263L6.86346 84.4053L7.10086 83.6911L7.34103 82.9842L7.58193 82.2847L7.82165 81.5931L8.05837 80.9092L8.29038 80.2332L8.51609 79.5651L8.73402 78.9045L8.94279 78.2514L9.14115 77.6055L9.32794 76.9664L9.50211 76.3338L9.66274 75.7072L9.80896 75.0861L9.94003 74.4701L10.0553 73.8585L10.1542 73.2508L10.2363 72.6464L10.3012 72.0447L10.3486 71.4451L10.3783 70.8469L10.3901 70.2494L10.384 69.6521L10.36 69.0542L10.3182 68.4551L10.2589 67.8541L10.1822 67.2507L10.0886 66.6441L9.9785 66.0338L9.85239 65.4193L9.71091 64.7998L9.55479 64.175L9.38483 63.5444L9.20195 62.9074L9.00716 62.2637L8.80157 61.6129L8.58642 60.9548L8.36303 60.2891L8.13286 59.6156L7.89746 58.9342L7.65851 58.2451L7.41778 57.5481L7.17716 56.8435L6.93865 56.1316L6.70433 55.4127L6.47639 54.6873L6.25706 53.956L6.04869 53.2195L5.85365 52.4785L5.67433 51.7341L5.51318 50.9871L5.3726 50.2388L5.25499 49.4904L5.16269 48.7432L5.09795 47.9986L5.06291 47.2581L5.05959 46.5231L5.08983 45.7953L5.15528 45.0762L5.25737 44.3675L5.3973 43.6706L5.576 42.9871L5.7941 42.3184L6.05196 41.666L6.34962 41.0312L6.68681 40.415L7.06295 39.8186L7.47717 39.2427L7.92827 38.6881L8.41479 38.1553L8.935 37.6446L9.48695 37.1562L10.0684 36.69L10.6771 36.2458L11.3104 35.8231L11.9656 35.4213L12.6402 35.0396L13.3311 34.6771L14.0356 34.3326L14.7508 34.0048L15.4739 33.6924L16.202 33.3938L16.9326 33.1074L17.6628 32.8315L18.3902 32.5642L19.1123 32.3038L19.8268 32.0483L20.5315 31.7957L21.2243 31.544L21.9032 31.2911L22.5665 31.0348L23.2124 30.7731L23.8393 30.5037L24.4457 30.2244L25.0303 29.9329L25.5917 29.6269L26.1287 29.304L26.6401 28.9616L27.1249 28.5971L27.5818 28.208L28.01 27.7914L28.4098 27.3457L28.7837 26.8719L29.1345 26.371L29.4649 25.844L29.7774 25.2922L30.0744 24.7167L30.3582 24.1188L30.6313 23.4998L30.8958 22.8613L31.154 22.2048L31.408 21.5319L31.6599 20.8444L31.9119 20.1442L32.166 19.4333L32.4242 18.714L32.6885 17.9884L32.9607 17.259L33.2427 16.5282L33.5363 15.7988L33.843 15.0733L34.1645 14.3547L34.5022 13.6455L34.8574 12.9489L35.2313 12.2675L35.625 11.6042L36.0393 10.9618L36.4749 10.343L36.9323 9.75044L37.4118 9.18646L37.9136 8.65336L38.4376 8.15319L38.9836 7.6878L39.5511 7.25873L40.1394 6.86731L40.7479 6.51451L41.3754 6.20106L42.021 5.92734L42.6833 5.69343L43.361 5.49911L44.0528 5.34384L44.757 5.2268L45.4722 5.14692L46.1967 5.10285L46.929 5.09302L47.6675 5.11566L48.4106 5.16882L49.157 5.25042L49.905 5.35823L50.6535 5.48994L51.4011 5.6432L52.1467 5.81557L52.8891 6.00465L53.6275 6.208L54.361 6.42325L55.0888 6.64804L55.8103 6.88008L56.5251 7.11718L57.2326 7.35721L57.9326 7.59813L58.6249 7.83801L59.3094 8.07503L59.986 8.30748L60.6548 8.53375L61.3159 8.75235L61.9696 8.9619L62.616 9.16114L63.2556 9.34889L63.8888 9.52411L64.5158 9.68584L65.1373 9.83324L65.7538 9.96555L66.3657 10.0821L66.9736 10.1824L67.5782 10.2658L68.1801 10.3321L68.7799 10.3809L69.3782 10.412L69.9757 10.4252L70.573 10.4205L71.1708 10.398L71.7698 10.3576L72.3706 10.2997L72.9738 10.2244L73.5801 10.1321L74.19 10.0232L74.8042 9.89838L75.4233 9.75811L76.0476 9.60312L76.6778 9.43423L77.3142 9.25234L77.9574 9.05846L78.6076 8.85368L79.2651 8.63924L79.9302 8.41646L80.6031 8.18677L81.2838 7.95172L81.9723 7.71299L82.6687 7.47233L83.3727 7.23163L84.084 6.99287L84.8023 6.75814L85.5272 6.5296L86.2581 6.30951L86.9942 6.10018L87.7348 5.90398L88.479 5.72332L89.2258 5.56063L89.974 5.41832L90.7224 5.2988L91.4698 5.2044L92.2146 5.13738L92.9556 5.0999L93.691 5.09398L94.4194 5.12149L95.1393 5.18408L95.8489 5.28321L96.5468 5.42009L97.2314 5.59567L97.9013 5.81062L98.555 6.06531L99.1913 6.35981L99.809 6.69387L100.407 7.06695L100.985 7.47817L101.541 7.92639L102.075 8.41015L102.588 8.92776L103.078 9.47726L103.546 10.0565L103.992 10.6631L104.416 11.2945L104.82 11.9481L105.203 12.6212L105.567 13.3109L105.913 14.0145L106.242 14.7289L106.556 15.4515L106.855 16.1794L107.143 16.9098L107.419 17.6402L107.687 18.3679L107.948 19.0905L108.204 19.8057L108.457 20.5113L108.708 21.2051L108.961 21.8852L109.217 22.5498L109.478 23.1971L109.747 23.8256L110.025 24.4337L110.316 25.0201L110.62 25.5834L110.942 26.1224L111.283 26.6359L111.645 27.1228L112.032 27.582L112.447 28.0126L112.89 28.4145L113.362 28.7903L113.86 29.1429L114.385 29.4749L114.935 29.7887L115.509 30.0868L116.105 30.3717L116.722 30.6455L117.359 30.9106L118.015 31.1692L118.686 31.4234L119.373 31.6755L120.072 31.9274L120.782 32.1813L121.501 32.4391L122.226 32.7028L122.955 32.9743L123.686 33.2555L124.415 33.5481L125.141 33.8537L125.861 34.174L126.571 34.5103L127.268 34.8641L127.951 35.2365L128.616 35.6286L129.26 36.0412L129.881 36.475L130.475 36.9307L131.042 37.4085L131.577 37.9085L132.08 38.4308L132.549 38.975L132.981 39.5408L133.375 40.1275L133.731 40.7344L134.047 41.3605L134.324 42.0046L134.561 42.6657L134.759 43.3422L134.917 44.0329L135.037 44.7362L135.12 45.4506L135.167 46.1744L135.179 46.9061L135.159 47.6442L135.109 48.3871L135.029 49.1332L134.923 49.8812L134.793 50.6297L134.642 51.3774L134.471 52.1232L134.283 52.8659L134.081 53.6047L133.866 54.3386L133.642 55.0669L133.411 55.7889L133.174 56.5043L132.934 57.2124L132.693 57.913L132.453 58.6059L132.216 59.291L131.983 59.9683L131.756 60.6377L131.537 61.2994L131.326 61.9537L131.126 62.6007L130.938 63.2408L130.761 63.8745L130.599 64.502L130.45 65.1239L130.317 65.7408L130.199 66.353L130.097 66.9613L130.012 67.5661L129.945 68.1682L129.894 68.7681L129.862 69.3665L129.847 69.9641L129.846 70.1543Z" fill="white"/>
<path fill-rule="evenodd" clip-rule="evenodd" d="M129.846 70.1543L129.855 70.7517L129.882 71.3498L129.927 71.9491L129.989 72.5504L130.068 73.1543L130.165 73.7615L130.277 74.3724L130.406 74.9877L130.55 75.6079L130.708 76.2336L130.88 76.8653L131.065 77.5033L131.262 78.1481L131.469 78.8L131.685 79.4594L131.91 80.1263L132.141 80.801L132.377 81.4836L132.616 82.1741L132.857 82.8723L133.098 83.578L133.336 84.2911L133.569 85.011L133.796 85.7374L134.014 86.4696L134.22 87.2069L134.413 87.9485L134.589 88.6934L134.747 89.4406L134.884 90.189L134.998 90.9373L135.086 91.6842L135.146 92.4283L135.176 93.168L135.175 93.9019L135.139 94.6285L135.068 95.346L134.96 96.053L134.814 96.7478L134.629 97.4291L134.404 98.0952L134.14 98.7449L133.836 99.3769L133.493 99.99L133.11 100.583L132.69 101.156L132.233 101.707L131.741 102.236L131.216 102.743L130.659 103.228L130.073 103.691L129.46 104.132L128.823 104.551L128.165 104.949L127.488 105.328L126.794 105.688L126.088 106.029L125.371 106.355L124.647 106.665L123.918 106.961L123.188 107.246L122.458 107.52L121.731 107.786L121.01 108.046L120.297 108.301L119.594 108.553L118.903 108.805L118.227 109.058L117.566 109.315L116.923 109.578L116.299 109.849L115.696 110.13L115.115 110.423L114.558 110.732L114.025 111.058L113.518 111.404L113.037 111.772L112.585 112.165L112.161 112.586L111.766 113.036L111.396 113.515L111.048 114.02L110.721 114.551L110.411 115.107L110.116 115.686L109.834 116.287L109.563 116.909L109.299 117.551L109.042 118.21L108.789 118.885L108.537 119.575L108.285 120.277L108.03 120.989L107.771 121.71L107.505 122.436L107.232 123.166L106.948 123.897L106.652 124.626L106.344 125.35L106.02 126.068L105.679 126.775L105.321 127.469L104.944 128.148L104.547 128.808L104.129 129.447L103.69 130.062L103.23 130.65L102.746 131.209L102.241 131.737L101.714 132.232L101.164 132.692L100.593 133.115L100.002 133.5L99.3901 133.847L98.7597 134.154L98.1113 134.421L97.4465 134.649L96.7664 134.837L96.0726 134.986L95.3665 135.097L94.6497 135.171L93.9239 135.21L93.1905 135.214L92.4511 135.186L91.7074 135.129L90.9607 135.043L90.2124 134.931L89.464 134.796L88.7167 134.639L87.9715 134.464L87.2297 134.272L86.492 134.067L85.7594 133.85L85.0325 133.624L84.3121 133.391L83.5984 133.153L82.8921 132.913L82.1933 132.672L81.5022 132.433L80.819 132.196L80.1437 131.965L79.4761 131.74L78.8162 131.522L78.1637 131.314L77.5183 131.117L76.8798 130.931L76.2477 130.758L75.6215 130.598L75.0009 130.453L74.3852 130.323L73.7739 130.209L73.1666 130.112L72.5624 130.031L71.9609 129.968L71.3615 129.922L70.7633 129.893L70.1659 129.883L69.5685 129.891L68.9706 129.916L68.3713 129.959L67.7702 130.02L67.1666 130.098L66.5597 130.193L65.9491 130.304L65.3342 130.432L64.7144 130.574L64.0891 130.731L63.458 130.903L62.8205 131.086L62.1762 131.282L61.5249 131.488L60.8662 131.704L60.1999 131.928L59.5257 132.159L58.8438 132.395L58.154 132.634L57.4564 132.875L56.7512 133.115L56.0388 133.353L55.3193 133.587L54.5935 133.815L53.8617 134.033L53.1248 134.241L52.3835 134.435L51.6389 134.612L50.8918 134.772L50.1435 134.911L49.3951 135.027L48.6481 135.117L47.9037 135.179L47.1636 135.212L46.4292 135.213L45.702 135.18L44.9837 135.111L44.2758 135.006L43.5799 134.863L42.8976 134.681L42.2302 134.46L41.5791 134.199L40.9457 133.898L40.3311 133.558L39.7363 133.179L39.1621 132.762L38.6092 132.308L38.0781 131.818L37.5692 131.295L37.0826 130.741L36.6182 130.157L36.1757 129.547L35.7547 128.911L35.3546 128.255L34.9744 127.579L34.6134 126.886L34.2703 126.181L33.9438 125.465L33.6325 124.741L33.3349 124.013L33.0494 123.282L32.7743 122.552L32.5077 121.825L32.2477 121.104L31.9925 120.39L31.7401 119.686L31.4883 118.994L31.2352 118.316L30.9786 117.655L30.7164 117.01L30.4463 116.385L30.1661 115.78L29.8736 115.197L29.5663 114.638L29.2419 114.103L28.8978 113.593L28.5315 113.111L28.1403 112.656L27.7214 112.23L27.2735 111.833L26.7975 111.461L26.2944 111.112L25.7654 110.783L25.2117 110.471L24.6343 110.176L24.0347 109.893L23.4142 109.62L22.7742 109.356L22.1163 109.099L21.4421 108.845L20.7535 108.593L20.0524 108.341L19.3408 108.087L18.6209 107.828L17.8949 107.563L17.1653 107.29L16.4346 107.007L15.7054 106.713L14.9804 106.405L14.2624 106.082L13.5541 105.743L12.8586 105.387L12.1785 105.011L11.5168 104.616L10.8763 104.2L10.2595 103.762L9.66907 103.303L9.10747 102.822L8.57692 102.318L8.07947 101.793L7.61692 101.245L7.19081 100.676L6.80243 100.086L6.45275 99.4758L6.14246 98.8468L5.87191 98.1998L5.64117 97.5362L5.44998 96.8573L5.29779 96.1645L5.18376 95.4593L5.10678 94.7434L5.0655 94.0182L5.05832 93.2853L5.08346 92.5464L5.13897 91.8029L5.22274 91.0564L5.33253 90.3082L5.46605 89.5598L5.62091 88.8123L5.79471 88.0669L5.985 87.3248L6.18939 86.5867L6.40548 85.8537L6.63093 85.1263L6.86346 84.4053L7.10086 83.6911L7.34103 82.9842L7.58193 82.2847L7.82165 81.5931L8.05837 80.9092L8.29038 80.2332L8.51609 79.5651L8.73402 78.9045L8.94279 78.2514L9.14115 77.6055L9.32794 76.9664L9.50211 76.3338L9.66274 75.7072L9.80896 75.0861L9.94003 74.4701L10.0553 73.8585L10.1542 73.2508L10.2363 72.6464L10.3012 72.0447L10.3486 71.4451L10.3783 70.8469L10.3901 70.2494L10.384 69.6521L10.36 69.0542L10.3182 68.4551L10.2589 67.8541L10.1822 67.2507L10.0886 66.6441L9.9785 66.0338L9.85239 65.4193L9.71091 64.7998L9.55479 64.175L9.38483 63.5444L9.20195 62.9074L9.00716 62.2637L8.80157 61.6129L8.58642 60.9548L8.36303 60.2891L8.13286 59.6156L7.89746 58.9342L7.65851 58.2451L7.41778 57.5481L7.17716 56.8435L6.93865 56.1316L6.70433 55.4127L6.47639 54.6873L6.25706 53.956L6.04869 53.2195L5.85365 52.4785L5.67433 51.7341L5.51318 50.9871L5.3726 50.2388L5.25499 49.4904L5.16269 48.7432L5.09795 47.9986L5.06291 47.2581L5.05959 46.5231L5.08983 45.7953L5.15528 45.0762L5.25737 44.3675L5.3973 43.6706L5.576 42.9871L5.7941 42.3184L6.05196 41.666L6.34962 41.0312L6.68681 40.415L7.06295 39.8186L7.47717 39.2427L7.92827 38.6881L8.41479 38.1553L8.935 37.6446L9.48695 37.1562L10.0684 36.69L10.6771 36.2458L11.3104 35.8231L11.9656 35.4213L12.6402 35.0396L13.3311 34.6771L14.0356 34.3326L14.7508 34.0048L15.4739 33.6924L16.202 33.3938L16.9326 33.1074L17.6628 32.8315L18.3902 32.5642L19.1123 32.3038L19.8268 32.0483L20.5315 31.7957L21.2243 31.544L21.9032 31.2911L22.5665 31.0348L23.2124 30.7731L23.8393 30.5037L24.4457 30.2244L25.0303 29.9329L25.5917 29.6269L26.1287 29.304L26.6401 28.9616L27.1249 28.5971L27.5818 28.208L28.01 27.7914L28.4098 27.3457L28.7837 26.8719L29.1345 26.371L29.4649 25.844L29.7774 25.2922L30.0744 24.7167L30.3582 24.1188L30.6313 23.4998L30.8958 22.8613L31.154 22.2048L31.408 21.5319L31.6599 20.8444L31.9119 20.1442L32.166 19.4333L32.4242 18.714L32.6885 17.9884L32.9607 17.259L33.2427 16.5282L33.5363 15.7988L33.843 15.0733L34.1645 14.3547L34.5022 13.6455L34.8574 12.9489L35.2313 12.2675L35.625 11.6042L36.0393 10.9618L36.4749 10.343L36.9323 9.75044L37.4118 9.18646L37.9136 8.65336L38.4376 8.15319L38.9836 7.6878L39.5511 7.25873L40.1394 6.86731L40.7479 6.51451L41.3754 6.20106L42.021 5.92734L42.6833 5.69343L43.361 5.49911L44.0528 5.34384L44.757 5.2268L45.4722 5.14692L46.1967 5.10285L46.929 5.09302L47.6675 5.11566L48.4106 5.16882L49.157 5.25042L49.905 5.35823L50.6535 5.48994L51.4011 5.6432L52.1467 5.81557L52.8891 6.00465L53.6275 6.208L54.361 6.42325L55.0888 6.64804L55.8103 6.88008L56.5251 7.11718L57.2326 7.35721L57.9326 7.59813L58.6249 7.83801L59.3094 8.07503L59.986 8.30748L60.6548 8.53375L61.3159 8.75235L61.9696 8.9619L62.616 9.16114L63.2556 9.34889L63.8888 9.52411L64.5158 9.68584L65.1373 9.83324L65.7538 9.96555L66.3657 10.0821L66.9736 10.1824L67.5782 10.2658L68.1801 10.3321L68.7799 10.3809L69.3782 10.412L69.9757 10.4252L70.573 10.4205L71.1708 10.398L71.7698 10.3576L72.3706 10.2997L72.9738 10.2244L73.5801 10.1321L74.19 10.0232L74.8042 9.89838L75.4233 9.75811L76.0476 9.60312L76.6778 9.43423L77.3142 9.25234L77.9574 9.05846L78.6076 8.85368L79.2651 8.63924L79.9302 8.41646L80.6031 8.18677L81.2838 7.95172L81.9723 7.71299L82.6687 7.47233L83.3727 7.23163L84.084 6.99287L84.8023 6.75814L85.5272 6.5296L86.2581 6.30951L86.9942 6.10018L87.7348 5.90398L88.479 5.72332L89.2258 5.56063L89.974 5.41832L90.7224 5.2988L91.4698 5.2044L92.2146 5.13738L92.9556 5.0999L93.691 5.09398L94.4194 5.12149L95.1393 5.18408L95.8489 5.28321L96.5468 5.42009L97.2314 5.59567L97.9013 5.81062L98.555 6.06531L99.1913 6.35981L99.809 6.69387L100.407 7.06695L100.985 7.47817L101.541 7.92639L102.075 8.41015L102.588 8.92776L103.078 9.47726L103.546 10.0565L103.992 10.6631L104.416 11.2945L104.82 11.9481L105.203 12.6212L105.567 13.3109L105.913 14.0145L106.242 14.7289L106.556 15.4515L106.855 16.1794L107.143 16.9098L107.419 17.6402L107.687 18.3679L107.948 19.0905L108.204 19.8057L108.457 20.5113L108.708 21.2051L108.961 21.8852L109.217 22.5498L109.478 23.1971L109.747 23.8256L110.025 24.4337L110.316 25.0201L110.62 25.5834L110.942 26.1224L111.283 26.6359L111.645 27.1228L112.032 27.582L112.447 28.0126L112.89 28.4145L113.362 28.7903L113.86 29.1429L114.385 29.4749L114.935 29.7887L115.509 30.0868L116.105 30.3717L116.722 30.6455L117.359 30.9106L118.015 31.1692L118.686 31.4234L119.373 31.6755L120.072 31.9274L120.782 32.1813L121.501 32.4391L122.226 32.7028L122.955 32.9743L123.686 33.2555L124.415 33.5481L125.141 33.8537L125.861 34.174L126.571 34.5103L127.268 34.8641L127.951 35.2365L128.616 35.6286L129.26 36.0412L129.881 36.475L130.475 36.9307L131.042 37.4085L131.577 37.9085L132.08 38.4308L132.549 38.975L132.981 39.5408L133.375 40.1275L133.731 40.7344L134.047 41.3605L134.324 42.0046L134.561 42.6657L134.759 43.3422L134.917 44.0329L135.037 44.7362L135.12 45.4506L135.167 46.1744L135.179 46.9061L135.159 47.6442L135.109 48.3871L135.029 49.1332L134.923 49.8812L134.793 50.6297L134.642 51.3774L134.471 52.1232L134.283 52.8659L134.081 53.6047L133.866 54.3386L133.642 55.0669L133.411 55.7889L133.174 56.5043L132.934 57.2124L132.693 57.913L132.453 58.6059L132.216 59.291L131.983 59.9683L131.756 60.6377L131.537 61.2994L131.326 61.9537L131.126 62.6007L130.938 63.2408L130.761 63.8745L130.599 64.502L130.45 65.1239L130.317 65.7408L130.199 66.353L130.097 66.9613L130.012 67.5661L129.945 68.1682L129.894 68.7681L129.862 69.3665L129.847 69.9641L129.846 70.1543Z" fill="white"/>
<path d="M129.846 70.1543V70.1543ZM129.846 70.1543L129.855 70.7517L129.882 71.3498L129.927 71.9491L129.989 72.5504L130.068 73.1543L130.165 73.7615L130.277 74.3724L130.406 74.9877L130.55 75.6079L130.708 76.2336L130.88 76.8653L131.065 77.5033L131.262 78.1481L131.469 78.8L131.685 79.4593L131.91 80.1263L132.141 80.801L132.377 81.4836L132.616 82.1741L132.857 82.8723L133.098 83.578L133.336 84.2911L133.569 85.011L133.796 85.7374L134.014 86.4696L134.22 87.2069L134.413 87.9485L134.589 88.6934L134.747 89.4406L134.884 90.189L134.998 90.9373L135.086 91.6842L135.146 92.4283L135.176 93.168L135.175 93.9019L135.139 94.6285L135.068 95.346L134.96 96.053L134.814 96.7479L134.629 97.4291L134.404 98.0952L134.14 98.7449L133.836 99.3769L133.493 99.99L133.11 100.583L132.69 101.156L132.233 101.707L131.741 102.236L131.216 102.743L130.659 103.228L130.073 103.691L129.46 104.132L128.823 104.551L128.165 104.949L127.488 105.328L126.794 105.688L126.088 106.029L125.371 106.355L124.647 106.665L123.918 106.961L123.188 107.246L122.458 107.52L121.731 107.786L121.01 108.046L120.297 108.301L119.594 108.553L118.903 108.805L118.227 109.058L117.566 109.315L116.923 109.578L116.299 109.849L115.696 110.13L115.115 110.423L114.558 110.732L114.025 111.058L113.518 111.404L113.037 111.772L112.585 112.165L112.161 112.586L111.766 113.036L111.396 113.515L111.048 114.02L110.721 114.551L110.411 115.107L110.116 115.686L109.834 116.287L109.563 116.909L109.299 117.551L109.042 118.21L108.789 118.885L108.537 119.575L108.285 120.277L108.03 120.989L107.771 121.71L107.505 122.436L107.232 123.166L106.948 123.897L106.652 124.626L106.344 125.35L106.02 126.068L105.679 126.775L105.321 127.469L104.944 128.148L104.547 128.808L104.129 129.447L103.69 130.062L103.23 130.65L102.746 131.209L102.241 131.737L101.714 132.232L101.164 132.692L100.593 133.115L100.002 133.5L99.3901 133.847L98.7597 134.154L98.1113 134.421L97.4465 134.649L96.7664 134.837L96.0726 134.986L95.3665 135.097L94.6497 135.171L93.9239 135.21L93.1905 135.214L92.4511 135.186L91.7074 135.129L90.9607 135.043L90.2124 134.931L89.464 134.796L88.7167 134.639L87.9715 134.464L87.2297 134.272L86.492 134.067L85.7594 133.85L85.0325 133.624L84.3121 133.391L83.5984 133.153L82.8921 132.913L82.1933 132.672L81.5022 132.433L80.819 132.196L80.1437 131.965L79.4761 131.74L78.8162 131.522L78.1637 131.314L77.5183 131.117L76.8798 130.931L76.2477 130.758L75.6215 130.598L75.0009 130.453L74.3852 130.323L73.774 130.209L73.1666 130.112L72.5624 130.031L71.9609 129.968L71.3615 129.922L70.7633 129.893L70.1659 129.883L69.5685 129.891L68.9706 129.916L68.3714 129.959L67.7702 130.02L67.1666 130.098L66.5597 130.193L65.9491 130.304L65.3342 130.432L64.7144 130.574L64.0891 130.732L63.458 130.903L62.8205 131.086L62.1762 131.282L61.5249 131.488L60.8662 131.704L60.1999 131.928L59.5257 132.159L58.8438 132.395L58.154 132.634L57.4564 132.875L56.7512 133.115L56.0388 133.353L55.3193 133.587L54.5935 133.815L53.8617 134.033L53.1248 134.241L52.3835 134.435L51.6389 134.612L50.8918 134.772L50.1435 134.911L49.3951 135.027L48.6481 135.117L47.9037 135.179L47.1636 135.212L46.4292 135.213L45.702 135.18L44.9837 135.111L44.2758 135.006L43.5799 134.863L42.8976 134.681L42.2302 134.46L41.5791 134.199L40.9457 133.898L40.3311 133.558L39.7363 133.179L39.1621 132.762L38.6092 132.308L38.0781 131.818L37.5692 131.295L37.0826 130.741L36.6182 130.157L36.1757 129.547L35.7547 128.911L35.3546 128.255L34.9744 127.579L34.6134 126.886L34.2702 126.181L33.9438 125.465L33.6325 124.741L33.3349 124.013L33.0494 123.282L32.7743 122.552L32.5077 121.825L32.2477 121.104L31.9925 120.39L31.7401 119.686L31.4883 118.994L31.2352 118.316L30.9786 117.655L30.7164 117.01L30.4463 116.385L30.1661 115.78L29.8736 115.197L29.5663 114.638L29.2419 114.103L28.8978 113.593L28.5315 113.111L28.1403 112.656L27.7214 112.23L27.2735 111.833L26.7975 111.461L26.2944 111.112L25.7654 110.783L25.2117 110.471L24.6343 110.176L24.0347 109.893L23.4142 109.62L22.7742 109.356L22.1163 109.099L21.4421 108.845L20.7535 108.593L20.0524 108.341L19.3408 108.087L18.6209 107.828L17.8949 107.563L17.1653 107.29L16.4346 107.007L15.7054 106.713L14.9804 106.405L14.2624 106.082L13.5542 105.743L12.8586 105.387L12.1785 105.011L11.5168 104.616L10.8763 104.2L10.2595 103.763L9.66907 103.303L9.10747 102.822L8.57692 102.318L8.07947 101.793L7.61692 101.245L7.19081 100.676L6.80243 100.086L6.45275 99.4758L6.14246 98.8468L5.87191 98.1998L5.64117 97.5362L5.44998 96.8573L5.29779 96.1645L5.18376 95.4593L5.10678 94.7434L5.0655 94.0182L5.05832 93.2853L5.08346 92.5464L5.13897 91.8029L5.22274 91.0564L5.33253 90.3082L5.46605 89.5598L5.62091 88.8123L5.79471 88.0669L5.985 87.3248L6.18939 86.5867L6.40548 85.8537L6.63093 85.1263L6.86346 84.4053L7.10086 83.6911L7.34103 82.9842L7.58193 82.2847L7.82165 81.5931L8.05837 80.9092L8.29038 80.2332L8.51609 79.5651L8.73402 78.9045L8.94279 78.2514L9.14115 77.6055L9.32794 76.9664L9.50211 76.3338L9.66274 75.7072L9.80896 75.0861L9.94003 74.4701L10.0553 73.8585L10.1542 73.2508L10.2363 72.6464L10.3012 72.0447L10.3486 71.4451L10.3783 70.8469L10.3901 70.2494L10.384 69.6521L10.36 69.0542L10.3182 68.4551L10.2589 67.8541L10.1822 67.2507L10.0886 66.6441L9.9785 66.0338L9.85239 65.4193L9.71091 64.7998L9.55479 64.175L9.38483 63.5444L9.20195 62.9074L9.00716 62.2637L8.80157 61.6129L8.58642 60.9548L8.36303 60.2891L8.13286 59.6156L7.89746 58.9342L7.65851 58.2451L7.41778 57.5481L7.17716 56.8435L6.93865 56.1316L6.70433 55.4127L6.47639 54.6873L6.25706 53.956L6.04869 53.2195L5.85365 52.4785L5.67433 51.7341L5.51318 50.9871L5.3726 50.2388L5.25499 49.4904L5.16269 48.7432L5.09795 47.9986L5.06291 47.2581L5.05959 46.5231L5.08983 45.7953L5.15528 45.0762L5.25737 44.3675L5.3973 43.6706L5.576 42.9871L5.7941 42.3184L6.05196 41.666L6.34962 41.0312L6.68681 40.415L7.06295 39.8186L7.47717 39.2427L7.92827 38.6881L8.41479 38.1553L8.935 37.6446L9.48694 37.1562L10.0684 36.69L10.6771 36.2458L11.3104 35.8231L11.9656 35.4213L12.6402 35.0396L13.3311 34.6771L14.0356 34.3326L14.7508 34.0048L15.4739 33.6924L16.202 33.3938L16.9326 33.1074L17.6628 32.8315L18.3902 32.5642L19.1123 32.3038L19.8268 32.0483L20.5315 31.7957L21.2243 31.544L21.9032 31.2911L22.5665 31.0348L23.2124 30.7731L23.8393 30.5037L24.4457 30.2244L25.0303 29.9329L25.5917 29.6269L26.1287 29.304L26.6401 28.9616L27.1249 28.5971L27.5818 28.208L28.01 27.7914L28.4098 27.3457L28.7837 26.8719L29.1345 26.371L29.4649 25.844L29.7774 25.2922L30.0744 24.7167L30.3582 24.1188L30.6313 23.4998L30.8958 22.8613L31.154 22.2048L31.408 21.5319L31.6599 20.8444L31.9119 20.1442L32.166 19.4333L32.4242 18.714L32.6885 17.9884L32.9607 17.259L33.2427 16.5282L33.5363 15.7988L33.843 15.0733L34.1645 14.3547L34.5022 13.6455L34.8574 12.9489L35.2313 12.2675L35.625 11.6042L36.0393 10.9618L36.4749 10.343L36.9323 9.75044L37.4118 9.18646L37.9136 8.65336L38.4376 8.15319L38.9836 7.6878L39.5511 7.25873L40.1394 6.86731L40.7479 6.51451L41.3754 6.20106L42.021 5.92734L42.6833 5.69343L43.361 5.49911L44.0528 5.34384L44.757 5.2268L45.4722 5.14692L46.1967 5.10285L46.929 5.09302L47.6675 5.11566L48.4106 5.16882L49.157 5.25042L49.905 5.35823L50.6535 5.48995L51.4011 5.6432L52.1467 5.81557L52.8891 6.00465L53.6275 6.208L54.361 6.42325L55.0888 6.64804L55.8103 6.88009L56.5251 7.11718L57.2326 7.35721L57.9326 7.59813L58.6249 7.83801L59.3094 8.07503L59.986 8.30748L60.6548 8.53375L61.3159 8.75235L61.9696 8.9619L62.616 9.16114L63.2556 9.34889L63.8888 9.52411L64.5158 9.68584L65.1373 9.83324L65.7538 9.96555L66.3657 10.0821L66.9736 10.1824L67.5782 10.2658L68.1801 10.3321L68.7799 10.3809L69.3782 10.412L69.9757 10.4252L70.573 10.4205L71.1708 10.398L71.7698 10.3576L72.3706 10.2997L72.9738 10.2244L73.5801 10.1321L74.19 10.0232L74.8042 9.89838L75.4233 9.75811L76.0476 9.60312L76.6778 9.43423L77.3142 9.25234L77.9574 9.05846L78.6076 8.85368L79.2651 8.63924L79.9302 8.41646L80.6031 8.18677L81.2838 7.95172L81.9723 7.71299L82.6687 7.47233L83.3726 7.23163L84.084 6.99287L84.8023 6.75814L85.5272 6.5296L86.2581 6.30951L86.9942 6.10018L87.7348 5.90398L88.479 5.72332L89.2258 5.56063L89.974 5.41832L90.7224 5.2988L91.4698 5.2044L92.2146 5.13738L92.9556 5.0999L93.691 5.09398L94.4194 5.12149L95.1393 5.18408L95.8489 5.28321L96.5468 5.42009L97.2314 5.59567L97.9013 5.81062L98.555 6.06531L99.1913 6.35981L99.809 6.69387L100.407 7.06695L100.985 7.47817L101.541 7.92639L102.075 8.41015L102.588 8.92776L103.078 9.47726L103.546 10.0565L103.992 10.6631L104.416 11.2945L104.82 11.9481L105.203 12.6212L105.567 13.3109L105.913 14.0145L106.242 14.7289L106.556 15.4515L106.855 16.1794L107.143 16.9098L107.419 17.6402L107.687 18.3679L107.948 19.0905L108.204 19.8057L108.457 20.5113L108.708 21.2051L108.961 21.8852L109.217 22.5498L109.478 23.1971L109.747 23.8256L110.025 24.4337L110.316 25.0201L110.62 25.5834L110.942 26.1224L111.283 26.6359L111.645 27.1228L112.032 27.582L112.447 28.0126L112.89 28.4145L113.362 28.7903L113.86 29.1429L114.385 29.4749L114.935 29.7887L115.509 30.0868L116.105 30.3717L116.722 30.6455L117.359 30.9106L118.015 31.1692L118.686 31.4234L119.373 31.6755L120.072 31.9274L120.782 32.1813L121.501 32.4391L122.226 32.7028L122.955 32.9743L123.686 33.2555L124.415 33.5481L125.141 33.8537L125.861 34.174L126.571 34.5103L127.268 34.8641L127.951 35.2365L128.616 35.6286L129.26 36.0412L129.881 36.475L130.475 36.9307L131.042 37.4085L131.577 37.9085L132.08 38.4308L132.549 38.975L132.981 39.5408L133.375 40.1275L133.731 40.7344L134.047 41.3605L134.324 42.0046L134.561 42.6657L134.759 43.3422L134.917 44.0329L135.037 44.7362L135.12 45.4506L135.167 46.1744L135.179 46.9061L135.159 47.6442L135.109 48.3871L135.029 49.1332L134.923 49.8812L134.793 50.6297L134.642 51.3774L134.471 52.1232L134.283 52.8659L134.081 53.6047L133.866 54.3386L133.642 55.0669L133.411 55.7889L133.174 56.5043L132.934 57.2124L132.693 57.913L132.453 58.6059L132.216 59.291L131.983 59.9683L131.756 60.6377L131.537 61.2994L131.326 61.9537L131.126 62.6007L130.938 63.2408L130.761 63.8745L130.599 64.502L130.45 65.1239L130.317 65.7408L130.199 66.353L130.097 66.9613L130.012 67.5661L129.945 68.1682L129.894 68.7681L129.862 69.3665L129.847 69.9641L129.846 70.1543Z" stroke="#BF561C" stroke-width="9.93416"/>
<circle cx="70.0455" cy="70.1536" r="35.0104" fill="url(#paint0_linear_68_164)"/>
<path d="M82.7768 85.2341C82.7768 85.2341 91.3915 80.923 94.4781 75.9826C97.388 71.3249 97.7587 62.3074 97.7587 62.3074L96.7016 60.3808L93.8642 55.2095L89.3568 55.4371L87.7141 61.9419L86.53 64.702L84.8685 68.5446L82.2287 71.2244L76.4575 73.1153L66.1414 72.4638L60.6275 70.0897L57.5711 69.7321L55.432 69.5483L54.6176 68.6902L55.0295 71.062L52.5302 73.2731L51.608 72.4338L52.226 75.9915L55.9707 82.2269L66.4742 86.5109L76.1023 86.3935L82.7768 85.2341Z" fill="#FDCA4D"/>
<path d="M87.6248 51.8507L86.7591 56.4436L84.5454 63.4919L81.4283 69.8085L76.4575 73.1153L82.2287 71.2244L84.8685 68.5446L86.53 64.702L87.7141 61.9419L89.3568 55.4371L87.6248 51.8507Z" fill="#DC941B"/>
<path d="M84.5454 63.4919L86.7591 56.4436L84.0114 54.0332L82.2236 57.7867L79.9489 61.2916C79.9489 61.2916 77.5868 65.0509 75.334 66.6467C72.4876 68.663 66.82 69.3472 66.82 69.3472L61.5683 68.4824L61.0039 68.351L55.5583 67.083L52.0571 64.8035L48.6496 63.0631L43.9221 62.6625L43.5898 63.9419L42.4853 65.2444L40.9688 66.7295L39.6863 65.7306L40.2106 68.7493L42.2422 74.0606L47.2599 77.4094L52.1974 80.3279L53.0687 80.8429L54.5197 81.5349L55.9707 82.2269L52.226 75.9915L51.608 72.4338L51.1948 70.0548L52.7874 69.0081L54.6176 68.6902L55.432 69.5483L57.5711 69.7321L60.6275 70.0897L66.1414 72.4638L76.4575 73.1153L81.4283 69.8085L84.5454 63.4919Z" fill="#FDCA4D"/>
<path d="M61.5683 68.4824L66.82 69.3472C66.82 69.3472 72.4876 68.663 75.334 66.6467C77.5868 65.0509 79.9489 61.2916 79.9489 61.2916L82.2236 57.7867L84.0114 54.0332L81.6431 54.4446L79.0688 56.2245C79.0688 56.2245 76.494 60.0199 74.5662 62.2265C73.2796 63.6991 72.6653 64.6726 71.0886 65.8292C69.1358 67.2618 65.4298 68.367 65.4298 68.367L61.5683 68.4824Z" fill="#F5D161"/>
<path d="M93.8642 55.2095L92.385 51.8013L91.4862 46.6265L90.4096 46.8134L89.5626 51.5141L89.3568 55.4371L93.8642 55.2095Z" fill="#FDCA4D"/>
<path d="M94.8048 48.4934L93.1946 46.885L91.4862 46.6265L92.7594 48.8487L94.379 51.7882L95.9096 54.8542L98.6666 56.0413L94.8048 48.4934Z" fill="#FDCA4D"/>
<path d="M98.8396 52.5683L96.1107 47.7113L94.8048 48.4934L98.6666 56.0413L100.431 54.0688L98.8396 52.5683Z" fill="#FDCA4D"/>
<path d="M90.4096 46.8134L89.0475 44.7177L88.5606 41.9147L87.7089 45.9498L87.6248 51.8507L89.3568 55.4371L89.5626 51.5141L90.4096 46.8134Z" fill="#FDCA4D"/>
<path d="M87.6248 51.8507L87.7089 45.9498L86.7634 46.8915L85.1581 51.0575L84.0114 54.0332L86.7591 56.4436L87.6248 51.8507Z" fill="#FDCA4D"/>
<path d="M84.0114 54.0332L85.1581 51.0575L86.7634 46.8915L87.3718 44.0092L88.2797 40.2975L86.8942 39.9829L85.1297 41.9553L84.6805 44.4767L84.6899 48.3622L81.6431 54.4446L84.0114 54.0332Z" fill="#FDCA4D"/>
<path d="M83.0656 44.7572L80.6131 48.5151L77.6878 51.4665L78.5819 53.4214L81.6431 54.4446L84.6899 48.3622L84.6805 44.4767L83.0656 44.7572Z" fill="#FDCA4D"/>
<path d="M79.0688 56.2245L81.6431 54.4446L78.5819 53.4214L75.1932 56.8977C75.1932 56.8977 73.4762 58.8686 72.3054 60.0648C70.7732 61.6302 69.938 62.5535 68.2006 63.8875C66.7293 65.0172 64.2128 66.4682 64.2128 66.4682L61.0039 68.351L61.5683 68.4824L65.4298 68.367C65.4298 68.367 69.1358 67.2618 71.0886 65.8292C72.6653 64.6726 73.2796 63.6991 74.5662 62.2265C76.494 60.0199 79.0688 56.2245 79.0688 56.2245Z" fill="#DC941B"/>
<path d="M77.6878 51.4665L75.8999 52.6656L71.6312 56.1836L65.8462 61.1867L59.71 64.807L55.3898 66.1127L52.0571 64.8035L55.5583 67.083L61.0039 68.351L64.2128 66.4682C64.2128 66.4682 66.7293 65.0172 68.2006 63.8875C69.938 62.5535 70.7732 61.6302 72.3054 60.0648C73.4762 58.8686 75.1932 56.8977 75.1932 56.8977L78.5819 53.4214L77.6878 51.4665Z" fill="#FDCA4D"/>
<path d="M40.2106 68.7493L39.6863 65.7306L40.4726 65.1497L37.5752 64.4313L33.9103 64.4015L33.9713 67.9449L32.1271 68.8206L31.1582 68.9889L32.9324 73.4564L37.0749 77.5125L43.9367 79.9857L49.5114 80.7944L52.1974 80.3279L47.2599 77.4094L42.2422 74.0606L40.2106 68.7493Z" fill="#FDCA4D"/>
<path d="M53.0687 80.8429L52.1974 80.3279L49.5114 80.7944L48.0089 81.7218L45.4253 82.1706L47.204 84.7492L46.0994 86.0517L44.3769 86.3509L45.5097 89.0418L48.8658 91.1243L52.6104 92.2509L54.2198 91.9714L53.3873 90.339L51.6507 88.6415L51.0515 85.1916L50.6957 83.1432L52.4034 81.5138L53.0687 80.8429Z" fill="#EFA005"/>
<path d="M53.3873 90.339L54.2198 91.9714L60.3897 94.8979L66.5449 95.3837L64.5694 92.7836L61.4099 91.8331L56.1394 88.306L52.9839 84.8559L51.0515 85.1916L51.6507 88.6415L53.3873 90.339Z" fill="#DD9006"/>
<path d="M66.4742 86.5109L55.9707 82.2269L54.5197 81.5349L53.5556 83.646L52.9839 84.8559L56.1394 88.306L61.4099 91.8331L64.5694 92.7836L63.563 91.4591L63.0761 88.6561L64.8454 87.3492L66.4742 86.5109Z" fill="#EFA005"/>
<path d="M106.184 59.7334L100.431 54.0688L98.6666 56.0413L100.356 61.3009C100.356 61.3009 101.405 65.9512 100.895 68.8706C100.28 72.3879 96.7669 77.0289 96.7669 77.0289L89.8445 83.7844L79.7532 86.981L73.2003 87.5639L69.4277 87.5528L66.0904 88.1325L65.7956 89.6275L72.3205 92.7145L79.3228 94.7191L85.7165 94.497L92.4987 93.319L97.9852 90.4276C97.9852 90.4276 100.677 88.864 102.141 87.5349C106.597 83.4891 107.892 79.5122 108.581 73.533C109.207 68.0992 106.184 59.7334 106.184 59.7334Z" fill="#FDCA4D"/>
<path d="M94.4781 75.9826C91.3915 80.923 82.7768 85.2341 82.7768 85.2341L76.1023 86.3935L69.4277 87.5528L73.2003 87.5639L79.7532 86.981L89.8445 83.7844L96.7669 77.0289C96.7669 77.0289 100.28 72.3879 100.895 68.8706C101.405 65.9512 100.356 61.3009 100.356 61.3009L98.6666 56.0413L95.9096 54.8542L96.4714 58.0885L96.7016 60.3808L97.7587 62.3074C97.7587 62.3074 97.388 71.3249 94.4781 75.9826Z" fill="#DC941B"/>
<path d="M90.4096 46.8134L91.4862 46.6265L93.1946 46.885L94.8048 48.4934L96.1107 47.7113L93.831 42.8873L93.2318 39.4374L91.5093 37.1821L88.0784 37.2227L84.9657 36.5417L84.2121 36.6726L84.5117 38.3976L85.5088 39.6682L86.8942 39.9829L88.2797 40.2975L88.5606 41.9147L89.0475 44.7177L90.4096 46.8134Z" fill="#795908"/>
<path d="M85.5088 39.6682L84.5117 38.3976L83.248 40.0609L82.6537 42.3854L83.0656 44.7572L84.6805 44.4767L85.1297 41.9553L86.8942 39.9829L85.5088 39.6682Z" fill="#C69B32"/>
<path d="M87.7089 45.9498L88.5606 41.9147L88.2797 40.2975L87.3718 44.0092L86.7634 46.8915L87.7089 45.9498Z" fill="#C8A245"/>
<path d="M76.1027 99.1656C80.1083 99.6414 82.5488 99.6551 86.4094 98.486C91.6811 96.8895 97.9852 90.4276 97.9852 90.4276L92.4987 93.319L85.7165 94.497L79.3228 94.7191L72.3205 92.7145L65.7956 89.6275L65.5008 91.1225L63.563 91.4591L64.5694 92.7836L66.5449 95.3837L67.5885 96.7573C67.5885 96.7573 72.6714 98.758 76.1027 99.1656Z" fill="#C38B02"/>
<path d="M43.5898 63.9419L43.9221 62.6625L41.9609 62.2257L40.3695 63.2796L40.4726 65.1497L39.6863 65.7306L40.9688 66.7295L42.4853 65.2444L43.5898 63.9419Z" fill="#83610E"/>
<path d="M47.204 84.7492L45.4253 82.1706L44.6671 84.1903L44.3769 86.3509L46.0994 86.0517L47.204 84.7492Z" fill="#926800"/>
<path d="M33.9713 67.9449L33.9103 64.4015L31.5466 65.4785L31.1582 68.9889L32.1271 68.8206L33.9713 67.9449Z" fill="#8B6917"/>
<path d="M55.0295 71.062L54.6176 68.6902L52.7874 69.0081L51.1948 70.0548L51.608 72.4338L52.5302 73.2731L55.0295 71.062Z" fill="#7C5C0D"/>
<path d="M63.563 91.4591L65.5008 91.1225L65.7956 89.6275L66.0904 88.1325L66.4742 86.5109L64.8454 87.3492L63.0761 88.6561L63.563 91.4591Z" fill="#795C15"/>
<path d="M50.6957 83.1432L51.0515 85.1916L52.9839 84.8559L53.5556 83.646L54.5197 81.5349L53.0687 80.8429L52.4034 81.5138L50.6957 83.1432Z" fill="#735200"/>
<path d="M66.0904 88.1325L69.4277 87.5528L76.1023 86.3935L66.4742 86.5109L66.0904 88.1325Z" fill="#FDCA4D"/>
<path d="M96.1107 47.7113L98.8396 52.5683L100.431 54.0688M96.1107 47.7113L94.8048 48.4934M96.1107 47.7113L93.831 42.8873L93.2318 39.4374L91.5093 37.1821L88.0784 37.2227L84.9657 36.5417L84.2121 36.6726L84.5117 38.3976M100.431 54.0688L106.184 59.7334C106.184 59.7334 109.207 68.0992 108.581 73.533C107.892 79.5122 106.597 83.4891 102.141 87.5349C100.677 88.864 97.9852 90.4276 97.9852 90.4276M100.431 54.0688L98.6666 56.0413M63.563 91.4591L65.5008 91.1225L65.7956 89.6275M63.563 91.4591L63.0761 88.6561L64.8454 87.3492L66.4742 86.5109M63.563 91.4591L64.5694 92.7836M66.0904 88.1325L69.4277 87.5528M66.0904 88.1325L66.4742 86.5109M66.0904 88.1325L65.7956 89.6275M69.4277 87.5528L76.1023 86.3935M69.4277 87.5528L73.2003 87.5639L79.7532 86.981L89.8445 83.7844L96.7669 77.0289C96.7669 77.0289 100.28 72.3879 100.895 68.8706C101.405 65.9512 100.356 61.3009 100.356 61.3009L98.6666 56.0413M93.8642 55.2095L92.385 51.8013L91.4862 46.6265M93.8642 55.2095L96.7016 60.3808M93.8642 55.2095L89.3568 55.4371M91.4862 46.6265L90.4096 46.8134M91.4862 46.6265L93.1946 46.885L94.8048 48.4934M91.4862 46.6265L92.7594 48.8487L94.379 51.7882L95.9096 54.8542M90.4096 46.8134L89.0475 44.7177L88.5606 41.9147M90.4096 46.8134L89.5626 51.5141L89.3568 55.4371M88.5606 41.9147L87.7089 45.9498M88.5606 41.9147L88.2797 40.2975M87.7089 45.9498L87.6248 51.8507M87.7089 45.9498L86.7634 46.8915M87.6248 51.8507L86.7591 56.4436M87.6248 51.8507L89.3568 55.4371M86.7591 56.4436L84.5453 63.4919L81.4283 69.8085L76.4575 73.1153M86.7591 56.4436L84.0114 54.0332M76.4575 73.1153L66.1414 72.4638L60.6275 70.0897L57.5711 69.7321L55.432 69.5483L54.6176 68.6902M76.4575 73.1153L82.2287 71.2244L84.8685 68.5446L86.53 64.702L87.7141 61.9419L89.3568 55.4371M54.6176 68.6902L55.0295 71.062L52.5302 73.2731L51.608 72.4338M54.6176 68.6902L52.7874 69.0081L51.1948 70.0548L51.608 72.4338M51.608 72.4338L52.226 75.9915L55.9707 82.2269M55.9707 82.2269L66.4742 86.5109M55.9707 82.2269L54.5197 81.5349M66.4742 86.5109L76.1023 86.3935M76.1023 86.3935L82.7768 85.2341C82.7768 85.2341 91.3915 80.923 94.4781 75.9826C97.388 71.3249 97.7587 62.3074 97.7587 62.3074L96.7016 60.3808M94.8048 48.4934L98.6666 56.0413M95.9096 54.8542L96.4714 58.0885L96.7016 60.3808M95.9096 54.8542L98.6666 56.0413M88.2797 40.2975L86.8942 39.9829M88.2797 40.2975L87.3718 44.0092L86.7634 46.8915M84.5117 38.3976L85.5088 39.6682L86.8942 39.9829M84.5117 38.3976L83.248 40.0609L82.6537 42.3854L83.0656 44.7572M83.0656 44.7572L80.6131 48.5151L77.6878 51.4665M83.0656 44.7572L84.6805 44.4767M77.6878 51.4665L75.8999 52.6656L71.6312 56.1836L65.8462 61.1867L59.71 64.807L55.3898 66.1127L52.0571 64.8035M77.6878 51.4665L78.5819 53.4214M52.0571 64.8035L48.6496 63.0631L43.9221 62.6625M52.0571 64.8035L55.5583 67.083L61.0039 68.351M43.9221 62.6625L43.5898 63.9419L42.4853 65.2444L40.9688 66.7295L39.6863 65.7306M43.9221 62.6625L41.9609 62.2257L40.3695 63.2796L40.4726 65.1497M39.6863 65.7306L40.2106 68.7493L42.2422 74.0606L47.2599 77.4094L52.1974 80.3279M39.6863 65.7306L40.4726 65.1497M53.0687 80.8429L52.1974 80.3279M53.0687 80.8429L52.4034 81.5138L50.6957 83.1432L51.0515 85.1916M53.0687 80.8429L54.5197 81.5349M61.5683 68.4824L66.82 69.3472C66.82 69.3472 72.4876 68.663 75.334 66.6467C77.5868 65.0509 79.9489 61.2916 79.9489 61.2916L82.2236 57.7867L84.0114 54.0332M61.5683 68.4824L65.4298 68.367C65.4298 68.367 69.1358 67.2618 71.0886 65.8292C72.6654 64.6726 73.2796 63.6991 74.5662 62.2265C76.494 60.0199 79.0688 56.2245 79.0688 56.2245L81.6431 54.4446M61.5683 68.4824L61.0039 68.351M84.0114 54.0332L85.1581 51.0575L86.7634 46.8915M84.0114 54.0332L81.6431 54.4446M84.6805 44.4767L84.6899 48.3622L81.6431 54.4446M84.6805 44.4767L85.1297 41.9553L86.8942 39.9829M81.6431 54.4446L78.5819 53.4214M81.8113 47.7516L81.0251 50.8869L78.5819 53.4214M78.5819 53.4214L75.1932 56.8977C75.1932 56.8977 73.4762 58.8686 72.3054 60.0648C70.7732 61.6302 69.938 62.5535 68.2006 63.8875C66.7293 65.0172 64.2128 66.4682 64.2128 66.4682L61.0039 68.351M40.4726 65.1497L37.5752 64.4313L33.9103 64.4015M33.9103 64.4015L33.9713 67.9449L32.1271 68.8206L31.1582 68.9889M33.9103 64.4015L31.5466 65.4785L31.1582 68.9889M31.1582 68.9889L32.9324 73.4564L37.0749 77.5125L43.9367 79.9857L49.5114 80.7944M49.5114 80.7944L52.1974 80.3279M49.5114 80.7944L48.0089 81.7218L45.4253 82.1706M45.4253 82.1706L47.204 84.7492L46.0994 86.0517L44.3769 86.3509M45.4253 82.1706L44.6671 84.1903L44.3769 86.3509M44.3769 86.3509L45.5097 89.0418L48.8658 91.1243L52.6104 92.2509L54.2198 91.9714M54.2198 91.9714L53.3873 90.339L51.6507 88.6415L51.0515 85.1916M54.2198 91.9714L60.3897 94.8979L66.5449 95.3837M51.0515 85.1916L52.9839 84.8559M54.5197 81.5349L53.5556 83.646L52.9839 84.8559M52.9839 84.8559L56.1394 88.306L61.4099 91.8331L64.5694 92.7836M66.5449 95.3837L67.5885 96.7573C67.5885 96.7573 72.6714 98.758 76.1027 99.1656C80.1083 99.6414 82.5488 99.6551 86.4094 98.486C91.6811 96.8895 97.9852 90.4276 97.9852 90.4276M66.5449 95.3837L64.5694 92.7836M65.7956 89.6275L72.3205 92.7145L79.3228 94.7191L85.7165 94.497L92.4987 93.319L97.9852 90.4276" stroke="black" stroke-width="0.917716"/>
<path d="M85.9854 25.2645C87.1351 25.7209 87.9533 26.3184 88.4399 27.0569C88.934 27.7964 89.1019 28.7201 88.9437 29.8278C88.8382 30.5663 88.6703 31.1767 88.4399 31.659C88.2106 32.1338 87.9517 32.5197 87.6632 32.8168C87.3758 33.1064 87.0759 33.3212 86.7638 33.4611C86.4602 33.5946 86.1819 33.6856 85.9289 33.734C85.6759 33.7825 85.4617 33.8018 85.2862 33.7921C85.1183 33.7835 85.0306 33.7787 85.023 33.7776C85.3148 33.8347 85.6226 33.9133 85.9467 34.0134C86.2782 34.1146 86.6017 34.2454 86.9172 34.4058C87.2326 34.5662 87.5281 34.7583 87.8037 34.9822C88.0793 35.2061 88.3107 35.4699 88.498 35.7735C88.694 36.0706 88.8334 36.4135 88.9163 36.8021C88.9992 37.1907 89.0062 37.6262 88.9373 38.1084C88.8318 38.8469 88.6396 39.5192 88.3608 40.1253C88.0895 40.7325 87.6869 41.2363 87.1529 41.6368C86.6276 42.0308 85.9467 42.3026 85.1102 42.4522C84.2738 42.6019 83.2452 42.5895 82.0244 42.4151L68.901 40.5404L69.6018 35.6347L71.0891 35.5588L72.1467 28.155L70.7402 27.6657L71.3813 23.1782L85.9854 25.2645ZM82.6477 30.4625C82.7026 30.0782 82.6767 29.7746 82.5701 29.5517C82.4722 29.3224 82.3209 29.1432 82.1164 29.014C81.9119 28.8848 81.6712 28.7928 81.3946 28.7379C81.1179 28.683 80.8364 28.6351 80.55 28.5942L79.4875 28.4424L79.0241 31.6865L80.0866 31.8383C80.373 31.8792 80.6566 31.912 80.9376 31.9368C81.2197 31.954 81.4775 31.9255 81.7111 31.8512C81.9447 31.7769 82.1417 31.6359 82.3021 31.4281C82.4711 31.2139 82.5863 30.892 82.6477 30.4625ZM81.8419 36.1029C81.8968 35.7186 81.871 35.415 81.7644 35.1922C81.6653 34.9704 81.5136 34.7949 81.309 34.6658C81.1045 34.5366 80.8639 34.4445 80.5872 34.3896C80.3105 34.3347 80.029 34.2868 79.7427 34.2459L78.6801 34.0941L78.2167 37.3382L79.2792 37.49C79.5656 37.5309 79.8493 37.5638 80.1302 37.5885C80.4123 37.6057 80.6701 37.5772 80.9037 37.5029C81.1373 37.4287 81.3349 37.2839 81.4963 37.0686C81.6654 36.8543 81.7805 36.5324 81.8419 36.1029Z" fill="#E9A803"/>
<path d="M88.3975 46.4564L89.0466 43.5175L84.6958 41.5552L82.933 43.9919L77.0105 41.3207L79.3765 36.0748L80.7741 36.392L88.572 27.2954L97.1694 31.173L95.5231 43.044L96.686 43.8817L94.32 49.1276L88.3975 46.4564ZM87.2011 38.3888L89.7617 39.5437L91.1995 32.9397L87.2011 38.3888Z" fill="#E9A803"/>
<path d="M94.8729 41.8251L92.6995 44.3234L93.6223 45.4894L90.3622 49.2367L84.8489 44.4403L88.1015 40.7016L89.3915 41.4455L94.023 36.1217L93.1077 34.9471L96.3603 31.2084L102.976 36.9641L101.489 47.5808L103.932 44.7725L103.032 43.5806L106.284 39.8419L111.798 44.6383L108.545 48.377L107.255 47.6331L102.623 52.9569L103.539 54.1315L100.286 57.8703L93.6616 52.1071L94.8729 41.8251Z" fill="#E9A803"/>
<path d="M98.3814 60.5286L100.542 58.433L97.9908 54.399L95.1775 55.4621L91.7051 49.9709L96.569 46.8951L97.5609 47.9296L109.079 44.6311L114.12 52.6025L106.208 61.6044L106.718 62.944L101.854 66.0198L98.3814 60.5286ZM101.826 53.1358L103.327 55.5098L108.164 50.7893L101.826 53.1358Z" fill="#E9A803"/>
<path d="M106.327 60.2085L103.136 61.0926L103.262 62.5743L98.4754 63.9004L96.5242 56.858L101.3 55.5349L101.965 56.8672L108.765 54.9831L108.65 53.4985L113.426 52.1753L115.767 60.6262L108.668 68.6594L112.255 67.6655L112.162 66.1748L116.938 64.8516L118.889 71.894L114.113 73.2171L113.448 71.8849L106.648 73.7689L106.763 75.2536L101.987 76.5767L99.643 68.1149L106.327 60.2085Z" fill="#E9A803"/>
<path d="M114.916 85.6882C114.468 86.841 113.876 87.6632 113.141 88.1548C112.404 88.6539 111.482 88.8282 110.373 88.6775C109.634 88.577 109.022 88.4132 108.539 88.1861C108.062 87.9601 107.675 87.7038 107.376 87.4173C107.084 87.1319 106.867 86.8335 106.725 86.5223C106.59 86.2196 106.497 85.942 106.447 85.6893C106.396 85.4367 106.376 85.2226 106.384 85.0471C106.392 84.8791 106.396 84.7913 106.397 84.7838C106.342 85.0759 106.265 85.3843 106.167 85.709C106.068 86.0413 105.94 86.3656 105.782 86.6821C105.623 86.9986 105.433 87.2955 105.211 87.5726C104.989 87.8497 104.727 88.0829 104.425 88.2723C104.129 88.4702 103.787 88.612 103.399 88.6975C103.011 88.7831 102.575 88.793 102.093 88.7274C101.354 88.6269 100.68 88.4394 100.072 88.1647C99.463 87.8975 98.9564 87.4984 98.5523 86.9672C98.1548 86.4445 97.8783 85.7655 97.723 84.9301C97.5676 84.0946 97.573 83.066 97.7391 81.844L99.5244 68.7082L104.435 69.3756L104.521 70.8623L111.932 71.8695L112.411 70.4597L116.903 71.0702L114.916 85.6882ZM109.696 82.3859C110.08 82.4382 110.384 82.4103 110.606 82.3022C110.834 82.2027 111.013 82.0502 111.14 81.8448C111.268 81.6394 111.359 81.3981 111.412 81.1211C111.465 80.8441 111.511 80.5622 111.55 80.2756L111.694 79.2121L108.447 78.7707L108.302 79.8343C108.264 80.1209 108.233 80.4048 108.21 80.6859C108.194 80.9681 108.225 81.2257 108.301 81.4588C108.376 81.6919 108.519 81.8879 108.728 82.0469C108.943 82.2145 109.266 82.3275 109.696 82.3859ZM104.05 81.6186C104.435 81.6708 104.738 81.6429 104.96 81.5348C105.181 81.4343 105.356 81.2813 105.483 81.0759C105.611 80.8705 105.702 80.6293 105.755 80.3522C105.808 80.0752 105.854 79.7934 105.893 79.5067L106.037 78.4432L102.79 78.0019L102.645 79.0654C102.606 79.352 102.576 79.6359 102.553 79.917C102.537 80.1992 102.568 80.4568 102.644 80.6899C102.719 80.923 102.866 81.1196 103.082 81.2796C103.297 81.4471 103.62 81.5601 104.05 81.6186Z" fill="#E9A803"/>
<path d="M93.7429 88.2432L96.6862 88.872L98.6183 84.5077L96.1696 82.7618L98.7996 76.821L104.062 79.1506L103.754 80.5503L112.905 88.285L109.087 96.9091L97.2046 95.345L96.375 96.5137L91.1128 94.1841L93.7429 88.2432ZM101.802 86.991L100.665 89.5595L107.279 90.9515L101.802 86.991Z" fill="#E9A803"/>
<path d="M98.4179 94.6866L95.905 92.5303L94.7453 93.461L90.9758 90.2265L95.7345 84.6807L99.4953 87.9077L98.7602 89.2028L104.115 93.7979L105.284 92.8746L109.045 96.1017L103.334 102.757L92.7074 101.342L95.5324 103.766L96.7181 102.857L100.479 106.084L95.7201 111.63L91.9593 108.403L92.6945 107.108L87.3392 102.513L86.1709 103.436L82.4101 100.209L88.128 93.5454L98.4179 94.6866Z" fill="#E9A803"/>
<path d="M79.7383 98.3232L81.8486 100.469L85.8651 97.8908L84.7829 95.0848L90.2502 91.575L93.3591 96.4178L92.3315 97.4167L95.7085 108.912L87.7717 114.007L78.7159 106.157L77.3799 106.676L74.271 101.833L79.7383 98.3232ZM87.1545 101.717L84.7908 103.234L89.5441 108.039L87.1545 101.717Z" fill="#E9A803"/>
<path d="M80.1138 106.267L79.2076 103.082L77.7269 103.218L76.3676 98.4408L83.3963 96.4409L84.7525 101.207L83.4248 101.882L85.356 108.669L86.8398 108.543L88.196 113.31L79.7615 115.71L71.6794 108.666L72.698 112.247L74.1882 112.143L75.5443 116.91L68.5156 118.909L67.1595 114.143L68.4871 113.469L66.556 106.681L65.0721 106.807L63.7159 102.041L72.1614 99.6376L80.1138 106.267Z" fill="#E9A803"/>
<path d="M54.6918 115.029C53.536 114.588 52.7097 114.002 52.2131 113.27C51.709 112.538 51.5285 111.616 51.6716 110.507C51.767 109.767 51.9267 109.154 52.1504 108.669C52.3732 108.191 52.6269 107.801 52.9113 107.5C53.1948 107.207 53.4916 106.988 53.8019 106.844C54.1036 106.706 54.3806 106.612 54.6329 106.56C54.8852 106.508 55.0992 106.485 55.2748 106.493C55.4428 106.499 55.5306 106.503 55.5381 106.504C55.2457 106.451 54.9367 106.376 54.6114 106.281C54.2784 106.184 53.9532 106.058 53.6356 105.901C53.318 105.745 53.0199 105.557 52.7413 105.337C52.4627 105.117 52.2277 104.856 52.0363 104.555C51.8363 104.261 51.6922 103.92 51.6041 103.533C51.5159 103.145 51.5029 102.71 51.5653 102.227C51.6607 101.487 51.8437 100.812 52.1142 100.202C52.3772 99.5913 52.7729 99.082 53.3014 98.6743C53.8213 98.2732 54.4984 97.9921 55.3328 97.8311C56.1671 97.6701 57.1958 97.6684 58.4188 97.8262L71.5665 99.522L70.9326 104.437L69.4465 104.533L68.4898 111.95L69.9028 112.421L69.323 116.916L54.6918 115.029ZM57.9584 109.786C57.9088 110.171 57.9387 110.474 58.0483 110.696C58.1494 110.924 58.3031 111.101 58.5094 111.227C58.7157 111.354 58.9575 111.442 59.2349 111.494C59.5123 111.545 59.7944 111.589 60.0813 111.626L61.1458 111.763L61.565 108.513L60.5005 108.376C60.2136 108.339 59.9295 108.31 59.6482 108.289C59.366 108.275 59.1086 108.307 58.876 108.385C58.6434 108.462 58.4484 108.606 58.2908 108.816C58.1247 109.032 58.0139 109.356 57.9584 109.786ZM58.6873 104.135C58.6376 104.52 58.6676 104.824 58.7772 105.045C58.8793 105.265 59.0334 105.439 59.2397 105.565C59.446 105.691 59.6878 105.78 59.9652 105.831C60.2426 105.882 60.5247 105.927 60.8116 105.964L61.8761 106.101L62.2953 102.851L61.2308 102.713C60.9439 102.676 60.6598 102.647 60.3786 102.627C60.0963 102.613 59.8389 102.645 59.6063 102.723C59.3737 102.8 59.1782 102.948 59.0197 103.165C58.8536 103.382 58.7428 103.705 58.6873 104.135Z" fill="#E9A803"/>
<path d="M51.9937 93.8758L51.3854 96.8234L55.7629 98.7252L57.4918 96.2644L63.4507 98.8532L61.1577 104.131L59.7558 103.834L52.0847 113.037L43.4344 109.279L44.9161 97.3866L43.7417 96.5652L46.0347 91.287L51.9937 93.8758ZM53.3017 101.926L50.7254 100.807L49.3793 107.43L53.3017 101.926Z" fill="#E9A803"/>
<path d="M45.5823 98.5944L47.7214 96.0668L46.7828 94.9135L49.9915 91.1221L55.5696 95.8429L52.3683 99.6256L51.0683 98.8993L46.5097 104.286L47.441 105.448L44.2396 109.231L37.5459 103.565L38.8885 92.9294L36.4838 95.7708L37.4003 96.9503L34.199 100.733L28.6208 96.0122L31.8221 92.2295L33.1222 92.9557L37.6807 87.5693L36.7495 86.4073L39.9508 82.6246L46.6533 88.297L45.5823 98.5944Z" fill="#E9A803"/>
<path d="M41.8175 79.9387L39.686 82.0636L42.2917 86.0624L45.0902 84.9611L48.6372 90.4044L43.8158 93.5462L42.8099 92.5254L31.3375 95.9807L26.1884 88.0788L33.9766 78.9698L33.449 77.6372L38.2705 74.4954L41.8175 79.9387ZM38.4743 87.3778L36.9408 85.0245L32.1686 89.8105L38.4743 87.3778Z" fill="#E9A803"/>
<path d="M33.877 80.3697L37.0555 79.4415L36.9088 77.9617L41.6766 76.5694L43.7251 83.5841L38.9683 84.9732L38.2846 83.6503L31.511 85.6283L31.6467 87.1113L26.8899 88.5004L24.4317 80.0828L31.4188 71.9521L27.8457 72.9955L27.9594 74.4849L23.2026 75.874L21.1541 68.8593L25.911 67.4702L26.5947 68.7931L33.3682 66.815L33.2325 65.3321L37.9894 63.9429L40.4508 72.3715L33.877 80.3697Z" fill="#E9A803"/>
<path d="M24.9412 55.0067C25.3741 53.8479 25.9547 53.0177 26.6831 52.5161C27.4124 52.007 28.3325 51.8202 29.4432 51.9558C30.1837 52.0462 30.7974 52.2016 31.2843 52.4221C31.7636 52.6416 32.1548 52.8926 32.4577 53.175C32.7531 53.4564 32.974 53.7518 33.1203 54.061C33.2599 54.3618 33.3566 54.6382 33.4102 54.8901C33.4638 55.1421 33.4875 55.3559 33.4814 55.5315C33.4762 55.6996 33.4732 55.7874 33.4723 55.795C33.5233 55.5021 33.5956 55.1927 33.6891 54.8667C33.7835 54.5331 33.9077 54.207 34.0616 53.8884C34.2155 53.5697 34.4016 53.2704 34.6198 52.9903C34.838 52.7101 35.097 52.4734 35.3967 52.2799C35.6898 52.0779 36.0297 51.9315 36.4166 51.8407C36.8034 51.7499 37.2386 51.734 37.7222 51.793C38.4627 51.8834 39.1388 52.0618 39.7504 52.3282C40.363 52.587 40.8749 52.9792 41.2862 53.5049C41.6909 54.022 41.9766 54.6972 42.1433 55.5305C42.31 56.3637 42.3186 57.3924 42.1692 58.6164L40.5631 71.7754L35.6441 71.175L35.5378 69.6896L28.1139 68.7835L27.6535 70.1996L23.1539 69.6504L24.9412 55.0067ZM30.2064 58.2376C29.821 58.1905 29.518 58.2226 29.2974 58.3337C29.0701 58.4363 28.894 58.5912 28.7691 58.7983C28.6441 59.0055 28.557 59.2479 28.5077 59.5256C28.4585 59.8033 28.4164 60.0858 28.3813 60.3729L28.2513 61.4383L31.5042 61.8354L31.6342 60.77C31.6693 60.4828 31.6963 60.1985 31.7153 59.9171C31.7268 59.6348 31.693 59.3776 31.6139 59.1456C31.5349 58.9135 31.3899 58.7194 31.1789 58.5633C30.9612 58.3987 30.6371 58.2901 30.2064 58.2376ZM35.8621 58.9279C35.4767 58.8808 35.1737 58.9129 34.9531 59.024C34.7334 59.1275 34.5611 59.2829 34.4361 59.49C34.3111 59.6972 34.224 59.9396 34.1748 60.2173C34.1256 60.4951 34.0834 60.7775 34.0484 61.0646L33.9183 62.13L37.1712 62.5271L37.3013 61.4617C37.3363 61.1745 37.3634 60.8903 37.3824 60.6088C37.3938 60.3265 37.36 60.0693 37.281 59.8373C37.2019 59.6052 37.0532 59.4107 36.8346 59.2536C36.617 59.089 36.2928 58.9805 35.8621 58.9279Z" fill="#E9A803"/>
<path d="M46.0736 52.1654L43.1219 51.5776L41.2505 55.9682L43.7232 57.68L41.1758 63.6567L35.8819 61.4003L36.1699 59.9964L26.9131 52.3895L30.6111 43.7132L42.5138 45.1123L43.327 43.9323L48.621 46.1887L46.0736 52.1654ZM38.0327 53.5293L39.134 50.9453L32.5015 49.6451L38.0327 53.5293Z" fill="#E9A803"/>
<path d="M41.312 45.7864L43.8541 47.9082L45.001 46.9618L48.8142 50.1445L44.1315 55.7547L40.3271 52.5793L41.0445 51.2743L35.6271 46.7526L34.4714 47.6917L30.667 44.5162L36.2862 37.784L46.9312 39.0541L44.0735 36.6689L42.9003 37.5933L39.0959 34.4179L43.7786 28.8077L47.583 31.9831L46.8656 33.2881L52.283 37.8098L53.4386 36.8707L57.2431 40.0462L51.6165 46.7872L41.312 45.7864Z" fill="#E9A803"/>
<path d="M59.9427 41.8936L57.8033 39.7766L53.8224 42.4095L54.9427 45.2005L49.5237 48.7845L46.3491 43.9845L47.3631 42.9717L43.8297 31.5232L51.6963 26.3203L60.8582 34.0463L62.1871 33.5096L65.3617 38.3096L59.9427 41.8936ZM52.4809 38.6012L54.8238 37.0517L50.0053 32.3122L52.4809 38.6012Z" fill="#E9A803"/>
<path d="M59.4563 33.9561L60.4065 37.1282L61.8852 36.9713L63.3104 41.7293L56.3101 43.8263L54.8881 39.0792L56.2062 38.3863L54.1814 31.6266L52.6994 31.7725L51.2774 27.0254L59.6778 24.5091L67.8567 31.4398L66.7886 27.874L65.3 27.998L63.878 23.2509L70.8784 21.154L72.3004 25.9011L70.9822 26.5939L73.0071 33.3536L74.4891 33.2077L75.9111 37.9548L67.4997 40.4744L59.4563 33.9561Z" fill="#E9A803"/>
<defs>
<linearGradient id="paint0_linear_68_164" x1="70.0455" y1="35.1432" x2="70.0455" y2="105.164" gradientUnits="userSpaceOnUse">
<stop stop-color="#BF561C"/>
<stop offset="1" stop-color="#F2B313"/>
</linearGradient>
</defs>
</svg>
