<svg width="141" height="141" viewBox="0 0 141 141" fill="none" xmlns="http://www.w3.org/2000/svg">
<path fill-rule="evenodd" clip-rule="evenodd" d="M130.301 70.2799L130.31 70.8773L130.336 71.4753L130.381 72.0747L130.443 72.676L130.522 73.2799L130.619 73.887L130.731 74.4979L130.86 75.1132L131.004 75.7335L131.162 76.3592L131.334 76.9908L131.519 77.6288L131.716 78.2736L131.923 78.9256L132.14 79.5849L132.364 80.2518L132.595 80.9266L132.831 81.6092L133.071 82.2996L133.311 82.9978L133.552 83.7036L133.79 84.4166L134.023 85.1366L134.25 85.863L134.468 86.5951L134.674 87.3324L134.867 88.074L135.043 88.8189L135.202 89.5661L135.339 90.3145L135.452 91.0628L135.54 91.8097L135.601 92.5538L135.631 93.2935L135.629 94.0274L135.593 94.754L135.522 95.4715L135.414 96.1785L135.268 96.8734L135.083 97.5546L134.858 98.2207L134.594 98.8704L134.29 99.5023L133.947 100.115L133.564 100.709L133.144 101.281L132.687 101.832L132.195 102.362L131.67 102.869L131.113 103.354L130.527 103.816L129.915 104.257L129.278 104.676L128.619 105.075L127.942 105.453L127.248 105.813L126.542 106.155L125.825 106.48L125.101 106.79L124.373 107.087L123.642 107.371L122.912 107.646L122.185 107.912L121.464 108.171L120.751 108.426L120.048 108.678L119.358 108.93L118.681 109.184L118.02 109.441L117.377 109.703L116.754 109.974L116.151 110.255L115.57 110.549L115.012 110.857L114.479 111.183L113.972 111.529L113.491 111.897L113.039 112.291L112.615 112.712L112.22 113.162L111.85 113.64L111.502 114.145L111.175 114.676L110.865 115.232L110.571 115.811L110.289 116.412L110.017 117.035L109.754 117.676L109.496 118.335L109.243 119.011L108.991 119.7L108.739 120.402L108.484 121.115L108.225 121.835L107.96 122.562L107.686 123.291L107.402 124.022L107.107 124.751L106.798 125.476L106.474 126.193L106.133 126.9L105.775 127.595L105.398 128.274L105.001 128.934L104.584 129.572L104.145 130.187L103.684 130.775L103.201 131.335L102.695 131.863L102.168 132.357L101.618 132.817L101.048 133.24L100.456 133.626L99.8444 133.972L99.2139 134.279L98.5656 134.547L97.9007 134.774L97.2207 134.962L96.5268 135.111L95.8208 135.222L95.104 135.296L94.3781 135.335L93.6448 135.34L92.9054 135.312L92.1617 135.254L91.415 135.168L90.6667 135.056L89.9183 134.921L89.171 134.765L88.4258 134.589L87.684 134.398L86.9463 134.192L86.2137 133.976L85.4868 133.749L84.7664 133.516L84.0527 133.279L83.3464 133.038L82.6476 132.798L81.9565 132.558L81.2733 132.322L80.598 132.09L79.9304 131.865L79.2705 131.648L78.618 131.44L77.9727 131.242L77.3341 131.056L76.702 130.883L76.0758 130.724L75.4552 130.579L74.8395 130.449L74.2283 130.335L73.6209 130.237L73.0168 130.157L72.4153 130.093L71.8158 130.047L71.2177 130.019L70.6202 130.008L70.0229 130.016L69.4249 130.041L68.8257 130.085L68.2246 130.145L67.6209 130.223L67.0141 130.318L66.4035 130.43L65.7885 130.557L65.1687 130.7L64.5435 130.857L63.9123 131.028L63.2748 131.212L62.6306 131.408L61.9793 131.614L61.3205 131.83L60.6542 132.054L59.9801 132.284L59.2982 132.52L58.6084 132.759L57.9108 133L57.2056 133.241L56.4931 133.479L55.7737 133.713L55.0478 133.94L54.3161 134.159L53.5792 134.366L52.8379 134.56L52.0932 134.738L51.3462 134.898L50.5978 135.036L49.8495 135.152L49.1025 135.242L48.3581 135.305L47.618 135.337L46.8836 135.338L46.1564 135.305L45.4381 135.237L44.7302 135.132L44.0343 134.989L43.352 134.807L42.6846 134.586L42.0335 134.324L41.4001 134.024L40.7855 133.683L40.1907 133.304L39.6165 132.887L39.0636 132.433L38.5325 131.944L38.0236 131.421L37.537 130.866L37.0726 130.283L36.6301 129.672L36.2091 129.037L35.809 128.38L35.4289 127.704L35.0678 127.012L34.7247 126.306L34.3982 125.591L34.0869 124.867L33.7893 124.138L33.5038 123.408L33.2287 122.678L32.9621 121.951L32.7022 121.229L32.447 120.515L32.1945 119.811L31.9428 119.12L31.6896 118.442L31.4331 117.78L31.1708 117.136L30.9007 116.51L30.6205 115.905L30.328 115.323L30.0207 114.763L29.6963 114.228L29.3522 113.719L28.986 113.236L28.5948 112.782L28.1758 112.356L27.7279 111.958L27.2519 111.586L26.7488 111.237L26.2199 110.908L25.6661 110.597L25.0888 110.301L24.4892 110.018L23.8686 109.746L23.2286 109.482L22.5707 109.224L21.8966 108.97L21.208 108.719L20.5069 108.466L19.7953 108.212L19.0754 107.953L18.3494 107.689L17.6198 107.416L16.8891 107.133L16.1599 106.838L15.4349 106.53L14.7168 106.208L14.0086 105.869L13.3131 105.512L12.633 105.137L11.9713 104.741L11.3307 104.325L10.714 103.888L10.1236 103.429L9.56196 102.948L9.03141 102.444L8.53396 101.918L8.07141 101.37L7.64531 100.801L7.25693 100.211L6.90725 99.6013L6.59695 98.9723L6.32641 98.3253L6.09567 97.6617L5.90448 96.9828L5.75229 96.29L5.63826 95.5848L5.56128 94.8689L5.51999 94.1437L5.51282 93.4108L5.53796 92.6719L5.59347 91.9284L5.67723 91.1819L5.78703 90.4337L5.92055 89.6853L6.07541 88.9378L6.2492 88.1925L6.4395 87.4503L6.64389 86.7122L6.85997 85.9792L7.08542 85.2518L7.31795 84.5308L7.55536 83.8166L7.79552 83.1097L8.03642 82.4103L8.27614 81.7186L8.51286 81.0348L8.74487 80.3588L8.97058 79.6906L9.18851 79.0301L9.39728 78.377L9.59564 77.7311L9.78243 77.092L9.9566 76.4594L10.1172 75.8327L10.2634 75.2117L10.3945 74.5956L10.5098 73.984L10.6087 73.3764L10.6908 72.772L10.7557 72.1703L10.8031 71.5707L10.8328 70.9725L10.8446 70.375L10.8385 69.7777L10.8145 69.1798L10.7727 68.5807L10.7134 67.9797L10.6367 67.3762L10.5431 66.7697L10.433 66.1594L10.3069 65.5448L10.1654 64.9254L10.0093 64.3006L9.83932 63.67L9.65644 63.033L9.46165 62.3893L9.25606 61.7385L9.04091 61.0804L8.81752 60.4147L8.58735 59.7412L8.35195 59.0598L8.113 58.3707L7.87227 57.6737L7.63165 56.9691L7.39314 56.2572L7.15883 55.5383L6.93088 54.8129L6.71156 54.0816L6.50319 53.3451L6.30814 52.6041L6.12883 51.8597L5.96767 51.1127L5.8271 50.3645L5.70949 49.6161L5.61719 48.8689L5.55245 48.1243L5.51741 47.3837L5.51409 46.6488L5.54433 45.921L5.60978 45.2019L5.71187 44.4931L5.8518 43.7962L6.0305 43.1127L6.2486 42.4441L6.50645 41.7917L6.80411 41.1568L7.1413 40.5407L7.51745 39.9442L7.93166 39.3683L8.38276 38.8137L8.86928 38.2809L9.38949 37.7702L9.94143 37.2818L10.5229 36.8157L11.1316 36.3714L11.7649 35.9487L12.4201 35.547L13.0946 35.1653L13.7856 34.8027L14.4901 34.4582L15.2053 34.1304L15.9283 33.818L16.6565 33.5194L17.387 33.233L18.1173 32.9571L18.8447 32.6899L19.5668 32.4295L20.2813 32.174L20.9859 31.9214L21.6787 31.6697L22.3577 31.4167L23.0209 31.1605L23.6668 30.8988L24.2937 30.6294L24.9001 30.3501L25.4847 30.0586L26.0461 29.7526L26.5831 29.4296L27.0945 29.0872L27.5793 28.7228L28.0363 28.3337L28.4645 27.9171L28.8642 27.4714L29.2381 26.9976L29.589 26.4967L29.9194 25.9697L30.2318 25.4179L30.5288 24.8424L30.8127 24.2445L31.0857 23.6255L31.3502 22.987L31.6084 22.3305L31.8624 21.6576L32.1143 20.97L32.3663 20.2699L32.6205 19.559L32.8787 18.8396L33.1429 18.1141L33.4152 17.3847L33.6972 16.6539L33.9907 15.9245L34.2974 15.199L34.6189 14.4804L34.9566 13.7713L35.3118 13.0746L35.6858 12.3932L36.0794 11.7299L36.4937 11.0875L36.9293 10.4688L37.3867 9.87616L37.8662 9.31218L38.368 8.77908L38.892 8.27892L39.438 7.81352L40.0055 7.38446L40.5938 6.99303L41.2023 6.64024L41.8298 6.32679L42.4754 6.05307L43.1377 5.81916L43.8154 5.62484L44.5072 5.46957L45.2114 5.35254L45.9265 5.27265L46.6511 5.22858L47.3834 5.21875L48.1218 5.24139L48.865 5.29456L49.6113 5.37615L50.3594 5.48396L51.1079 5.61568L51.8555 5.76893L52.601 5.9413L53.3435 6.13038L54.0819 6.33373L54.8154 6.54898L55.5432 6.77376L56.2647 7.00581L56.9794 7.24291L57.687 7.48293L58.387 7.72385L59.0793 7.96373L59.7637 8.20076L60.4403 8.4332L61.1091 8.65947L61.7703 8.87808L62.4239 9.08763L63.0704 9.28686L63.71 9.47461L64.3431 9.64983L64.9702 9.81156L65.5917 9.95896L66.2081 10.0913L66.82 10.2078L67.428 10.3081L68.0326 10.3915L68.6344 10.4578L69.2342 10.5066L69.8325 10.5377L70.43 10.5509L71.0273 10.5462L71.6251 10.5237L72.2241 10.4833L72.8249 10.4254L73.4281 10.3501L74.0344 10.2578L74.6444 10.149L75.2586 10.0241L75.8776 9.88383L76.5019 9.72884L77.1321 9.55996L77.7685 9.37807L78.4117 9.18418L79.0619 8.97941L79.7194 8.76497L80.3845 8.54218L81.0574 8.31249L81.7381 8.07745L82.4266 7.83871L83.123 7.59805L83.8269 7.35736L84.5383 7.1186L85.2566 6.88387L85.9815 6.65533L86.7124 6.43524L87.4485 6.22591L88.1891 6.02971L88.9333 5.84905L89.6801 5.68636L90.4283 5.54406L91.1767 5.42453L91.9241 5.33013L92.6689 5.26311L93.4098 5.22563L94.1453 5.21972L94.8737 5.24722L95.5935 5.30981L96.3032 5.40894L97.0011 5.54582L97.6857 5.7214L98.3556 5.93635L99.0093 6.19104L99.6456 6.48554L100.263 6.8196L100.861 7.19267L101.439 7.6039L101.995 8.05211L102.53 8.53588L103.042 9.05348L103.532 9.60298L104 10.1822L104.446 10.7888L104.871 11.4202L105.274 12.0738L105.657 12.7469L106.021 13.4367L106.367 14.1402L106.696 14.8546L107.01 15.5772L107.309 16.3051L107.597 17.0355L107.873 17.7659L108.141 18.4936L108.402 19.2162L108.658 19.9314L108.911 20.637L109.162 21.3308L109.415 22.0109L109.671 22.6755L109.932 23.3228L110.201 23.9513L110.479 24.5594L110.77 25.1458L111.075 25.7091L111.396 26.248L111.737 26.7616L112.099 27.2485L112.487 27.7077L112.901 28.1382L113.344 28.5401L113.816 28.916L114.315 29.2686L114.84 29.6005L115.389 29.9144L115.963 30.2125L116.559 30.4973L117.177 30.7712L117.814 31.0363L118.469 31.2948L119.14 31.5491L119.827 31.8011L120.526 32.0531L121.236 32.3069L121.955 32.5647L122.68 32.8285L123.409 33.1L124.14 33.3812L124.87 33.6737L125.595 33.9793L126.315 34.2996L127.025 34.636L127.722 34.9897L128.405 35.3621L129.07 35.7542L129.714 36.1668L130.335 36.6007L130.93 37.0563L131.496 37.5341L132.032 38.0341L132.534 38.5564L133.003 39.1006L133.435 39.6664L133.829 40.2532L134.185 40.86L134.502 41.4861L134.779 42.1303L135.016 42.7913L135.213 43.4679L135.371 44.1586L135.491 44.8618L135.574 45.5762L135.621 46.3L135.634 47.0318L135.613 47.7698L135.563 48.5127L135.483 49.2588L135.377 50.0068L135.248 50.7553L135.096 51.503L134.925 52.2488L134.737 52.9915L134.535 53.7303L134.32 54.4642L134.096 55.1925L133.865 55.9146L133.628 56.6299L133.388 57.338L133.147 58.0386L132.907 58.7315L132.67 59.4166L132.437 60.0938L132.21 60.7633L131.991 61.425L131.781 62.0793L131.581 62.7263L131.392 63.3664L131.216 64.0001L131.053 64.6276L130.904 65.2495L130.771 65.8663L130.653 66.4786L130.551 67.0869L130.466 67.6917L130.399 68.2938L130.349 68.8937L130.316 69.4921L130.301 70.0896L130.301 70.2799Z" fill="#1714A5" stroke="#6EBBB1" stroke-width="9.61142"/>
<path d="M71.2505 67.7212C70.24 67.0845 68.663 66.0909 68.663 66.0909C68.663 66.0909 52.9903 66.3606 44.5907 70.5565C42.4424 71.6296 40.8903 71.9572 39.3372 73.6753C37.9225 75.2402 37.0632 78.4244 37.0632 78.4244V113.795H39.3372L40.9838 79.275C40.9838 79.275 50.7952 82.0218 57.2933 82.4647C60.8506 82.7072 66.4282 82.4647 66.4282 82.4647H68.663H75.5632C75.5632 82.4647 75.4524 78.0723 76.6609 75.5891C78.4585 71.8956 85.0509 68.5718 85.0509 68.5718C85.0509 68.5718 81.3679 68.6837 79.0133 68.5718C75.9637 68.4268 74.25 68.239 71.2505 67.7212Z" fill="#D9D9D9"/>
<path d="M86.0703 70.5565L85.0509 68.5718C85.0509 68.5718 78.4585 71.8956 76.6609 75.5891C75.4524 78.0723 75.5632 82.4647 75.5632 82.4647L76.6609 116.772H79.0133C79.0133 116.772 77.6803 97.421 77.6803 81.685C77.6803 79.7716 78.12 78.6706 79.0133 76.9359C80.658 73.7418 86.0703 70.5565 86.0703 70.5565Z" fill="#BEB6B6"/>
<path d="M59.5673 35.1152C58.3038 38.7315 56.8111 41.9671 59.5673 44.8261C62.2564 47.6157 65.1473 47.7134 68.663 45.8185C70.8677 46.1364 73.3584 46.8145 75.5632 47.1324C77.676 47.4371 80.9735 47.9125 80.9735 47.9125C80.9735 47.9125 83.8887 48.3328 85.7566 48.6021C87.4165 49.422 88.68 49.6042 90.5397 49.2917C95.4535 48.4662 94.659 42.7407 94.3034 38.2341C93.3336 25.9421 63.6729 23.3643 59.5673 35.1152Z" fill="#D9D9D9"/>
<path d="M80.9735 47.9125C80.9735 47.9125 92.5559 60.0139 87.7169 66.0909C86.844 67.1871 85.0509 68.5718 85.0509 68.5718L86.0703 70.5565H89.2067C89.2067 70.5565 92.6237 80.752 94.8131 87.2848C97.6638 95.7906 100.42 104.013 100.42 104.013H103.87C103.87 104.013 92.8302 70.2414 85.7566 48.6021C83.8887 48.3328 80.9735 47.9125 80.9735 47.9125Z" fill="#BEB6B6"/>
<path d="M66.4282 82.4647L64.5072 97.421H66.4282L68.663 82.4647H66.4282Z" fill="#BEB6B6"/>
<path d="M68.663 45.8185C69.1835 46.9796 70.8357 48.0963 71.2505 49.2917C73.4438 55.6118 68.663 66.0909 68.663 66.0909C68.663 66.0909 70.24 67.0845 71.2505 67.7212C72.2917 60.524 73.9165 49.2917 73.9165 49.2917C73.9165 49.2917 74.9201 47.9757 75.5632 47.1324C73.3584 46.8145 70.8677 46.1364 68.663 45.8185Z" fill="#BEB6B6"/>
<path d="M68.663 45.8185C65.1473 47.7134 62.2564 47.6157 59.5673 44.8261C56.8111 41.9671 58.3038 38.7315 59.5673 35.1152C63.6729 23.3643 93.3336 25.9421 94.3034 38.2341C94.659 42.7407 95.4535 48.4662 90.5397 49.2917C88.68 49.6042 87.4165 49.422 85.7566 48.6021M68.663 45.8185C69.1835 46.9796 70.8357 48.0963 71.2505 49.2917C73.4438 55.6118 68.663 66.0909 68.663 66.0909M68.663 45.8185C70.8677 46.1364 73.3584 46.8145 75.5632 47.1324M68.663 66.0909C68.663 66.0909 70.24 67.0845 71.2505 67.7212M68.663 66.0909C68.663 66.0909 52.9903 66.3606 44.5907 70.5565C42.4424 71.6296 40.8903 71.9572 39.3372 73.6753C37.9225 75.2402 37.0632 78.4244 37.0632 78.4244V113.795H39.3372L40.9838 79.275C40.9838 79.275 50.7952 82.0218 57.2933 82.4647C60.8506 82.7072 66.4282 82.4647 66.4282 82.4647M71.2505 67.7212C72.2917 60.524 73.9165 49.2917 73.9165 49.2917C73.9165 49.2917 74.9201 47.9757 75.5632 47.1324M71.2505 67.7212C74.25 68.239 75.9637 68.4268 79.0133 68.5718C81.3679 68.6837 85.0509 68.5718 85.0509 68.5718M75.5632 47.1324C77.676 47.4371 80.9735 47.9125 80.9735 47.9125M80.9735 47.9125C80.9735 47.9125 92.5559 60.0139 87.7169 66.0909C86.844 67.1871 85.0509 68.5718 85.0509 68.5718M80.9735 47.9125C80.9735 47.9125 83.8887 48.3328 85.7566 48.6021M85.0509 68.5718L86.0703 70.5565M85.0509 68.5718C85.0509 68.5718 78.4585 71.8956 76.6609 75.5891C75.4524 78.0723 75.5632 82.4647 75.5632 82.4647M86.0703 70.5565H89.2067C89.2067 70.5565 92.6237 80.752 94.8131 87.2848C97.6638 95.7907 100.42 104.013 100.42 104.013H103.87C103.87 104.013 92.8302 70.2414 85.7566 48.6021M86.0703 70.5565C86.0703 70.5565 80.658 73.7418 79.0133 76.9359C78.12 78.6706 77.6803 79.7716 77.6803 81.685C77.6803 97.421 79.0133 116.772 79.0133 116.772H76.6609L75.5632 82.4647M75.5632 82.4647H68.663M66.4282 82.4647L64.5072 97.421H66.4282L68.663 82.4647M66.4282 82.4647H68.663" stroke="black" stroke-width="1.12433"/>
<path d="M86.0703 70.5565L85.0509 68.5718C85.0509 68.5718 78.4585 71.8956 76.6609 75.5891C75.4524 78.0723 75.5632 82.4647 75.5632 82.4647L76.6609 116.772H79.0133C79.0133 116.772 77.6803 97.421 77.6803 81.685C77.6803 79.7716 78.12 78.6706 79.0133 76.9359C80.658 73.7418 86.0703 70.5565 86.0703 70.5565Z" fill="#CE45B8"/>
<path d="M59.5673 35.1152C58.3038 38.7315 56.8111 41.9671 59.5673 44.8261C62.2564 47.6157 65.1473 47.7134 68.663 45.8185C70.8677 46.1364 73.3584 46.8145 75.5632 47.1324C77.676 47.4371 80.9735 47.9125 80.9735 47.9125C80.9735 47.9125 83.8887 48.3328 85.7566 48.6021C87.4165 49.422 88.68 49.6042 90.5397 49.2917C95.4535 48.4662 94.659 42.7407 94.3035 38.2341C93.3337 25.9421 63.6729 23.3643 59.5673 35.1152Z" fill="#D9D9D9"/>
<path d="M80.9735 47.9125C80.9735 47.9125 92.5559 60.0139 87.7169 66.0909C86.844 67.1871 85.0509 68.5718 85.0509 68.5718L86.0703 70.5565H89.2067C89.2067 70.5565 92.6237 80.752 94.8131 87.2848C97.6638 95.7907 100.42 104.013 100.42 104.013H103.87C103.87 104.013 92.8302 70.2414 85.7566 48.6021C83.8887 48.3328 80.9735 47.9125 80.9735 47.9125Z" fill="#CE45B8"/>
<path d="M66.4282 82.4647L64.5072 97.421H66.4282L68.663 82.4647H66.4282Z" fill="#CE45B8"/>
<path d="M68.663 45.8185C69.1835 46.9796 70.8357 48.0963 71.2505 49.2917C73.4438 55.6118 68.663 66.0909 68.663 66.0909C68.663 66.0909 70.24 67.0845 71.2505 67.7212C72.2917 60.524 73.9165 49.2917 73.9165 49.2917C73.9165 49.2917 74.9201 47.9757 75.5632 47.1324C73.3584 46.8145 70.8677 46.1364 68.663 45.8185Z" fill="#CE45B8"/>
<path fill-rule="evenodd" clip-rule="evenodd" d="M68.663 66.0909L71.2505 67.7212C74.2501 68.239 75.9638 68.4268 79.0133 68.5718C81.3679 68.6837 85.0509 68.5718 85.0509 68.5718C85.0509 68.5718 78.4585 71.8956 76.6609 75.5891C75.4524 78.0723 75.5632 82.4647 75.5632 82.4647H68.663H66.4282C66.4282 82.4647 60.8506 82.7072 57.2933 82.4647C50.7952 82.0218 40.9838 79.275 40.9838 79.275L37.0632 78.4244C37.0632 78.4244 37.9225 75.2402 39.3372 73.6753C40.4903 72.3997 41.6428 71.8906 43.0392 71.2738C43.5236 71.0598 44.0374 70.8329 44.5907 70.5565C52.9903 66.3606 68.663 66.0909 68.663 66.0909Z" fill="#D9D9D9"/>
<path d="M39.3372 113.795L40.9838 79.275L37.0632 78.4244V113.795H39.3372Z" fill="#CE45B8"/>
<path d="M68.663 45.8185C65.1473 47.7134 62.2564 47.6157 59.5673 44.8261C56.8111 41.9671 58.3038 38.7315 59.5673 35.1152C63.6729 23.3643 93.3337 25.9421 94.3035 38.2341C94.659 42.7407 95.4535 48.4662 90.5397 49.2917C88.68 49.6042 87.4165 49.422 85.7566 48.6021M68.663 45.8185C69.1835 46.9796 70.8357 48.0963 71.2505 49.2917C73.4438 55.6118 68.663 66.0909 68.663 66.0909M68.663 45.8185C70.8677 46.1364 73.3584 46.8145 75.5632 47.1324M68.663 66.0909C68.663 66.0909 70.24 67.0845 71.2505 67.7212M68.663 66.0909C68.663 66.0909 52.9903 66.3606 44.5907 70.5565C44.0374 70.8329 43.5236 71.0598 43.0392 71.2738C41.6428 71.8906 40.4903 72.3997 39.3372 73.6753C37.9225 75.2402 37.0632 78.4244 37.0632 78.4244M68.663 66.0909L71.2505 67.7212M71.2505 67.7212C72.2917 60.524 73.9165 49.2917 73.9165 49.2917C73.9165 49.2917 74.9201 47.9757 75.5632 47.1324M71.2505 67.7212C74.2501 68.239 75.9638 68.4268 79.0133 68.5718C81.3679 68.6837 85.0509 68.5718 85.0509 68.5718M75.5632 47.1324C77.676 47.4371 80.9735 47.9125 80.9735 47.9125M80.9735 47.9125C80.9735 47.9125 92.5559 60.0139 87.7169 66.0909C86.844 67.1871 85.0509 68.5718 85.0509 68.5718M80.9735 47.9125C80.9735 47.9125 83.8887 48.3328 85.7566 48.6021M85.0509 68.5718L86.0703 70.5565M85.0509 68.5718C85.0509 68.5718 78.4585 71.8956 76.6609 75.5891C75.4524 78.0723 75.5632 82.4647 75.5632 82.4647M86.0703 70.5565H89.2067C89.2067 70.5565 92.6237 80.752 94.8131 87.2848C97.6638 95.7907 100.42 104.013 100.42 104.013H103.87C103.87 104.013 92.8302 70.2414 85.7566 48.6021M86.0703 70.5565C86.0703 70.5565 80.658 73.7418 79.0133 76.9359C78.12 78.6706 77.6803 79.7716 77.6803 81.685C77.6803 97.421 79.0133 116.772 79.0133 116.772H76.6609L75.5632 82.4647M75.5632 82.4647H68.663M40.9838 79.275C40.9838 79.275 50.7952 82.0218 57.2933 82.4647C60.8506 82.7072 66.4282 82.4647 66.4282 82.4647M40.9838 79.275L39.3372 113.795H37.0632V78.4244M40.9838 79.275L37.0632 78.4244M66.4282 82.4647L64.5072 97.421H66.4282L68.663 82.4647M66.4282 82.4647H68.663" stroke="black" stroke-width="1.30568"/>
<path d="M32.48 61.9934C33.1603 62.0866 33.7576 62.0797 34.2719 61.9728C34.7861 61.866 35.2242 61.6681 35.5861 61.3791C35.9491 61.0823 36.2388 60.7029 36.4552 60.241C36.6726 59.7711 36.8241 59.2237 36.9097 58.5988C37.0115 57.8552 37.0407 56.9647 36.9974 55.9272C36.9541 54.8898 36.8265 53.732 36.6147 52.4539L42.1679 53.2142C42.4206 54.5462 42.5591 55.8304 42.5833 57.0667C42.6085 58.2951 42.541 59.4947 42.3807 60.6654C42.1846 62.0972 41.8231 63.4137 41.296 64.6148C40.77 65.808 40.0481 66.8132 39.1303 67.6304C38.2057 68.4386 37.102 69.0249 35.8191 69.3892C34.5363 69.7535 33.0761 69.8235 31.4386 69.5994C29.8407 69.3806 28.4973 68.9509 27.4085 68.3102C26.3207 67.6616 25.4657 66.8434 24.8434 65.8557C24.2143 64.8589 23.8068 63.7152 23.6208 62.4245C23.436 61.1259 23.4475 59.7172 23.6555 58.1984C23.7833 57.265 23.9455 56.4329 24.1423 55.7024C24.3401 54.9639 24.5513 54.3038 24.776 53.7221C25.0007 53.1404 25.2355 52.6326 25.4802 52.1987C25.7182 51.7558 25.9451 51.3638 26.161 51.0226L31.6192 51.7699L31.1303 55.3415C30.5055 55.667 30.0245 56.0605 29.6873 56.522C29.3512 56.9756 29.1474 57.4635 29.0759 57.9856C29.0153 58.4285 29.0432 58.8716 29.1599 59.3147C29.2776 59.7498 29.4804 60.1523 29.7682 60.5221C30.056 60.892 30.4277 61.2088 30.8831 61.4726C31.3307 61.7354 31.863 61.909 32.48 61.9934Z" fill="#FDCA4D"/>
<path d="M45.5471 54.1333C45.176 55.0339 44.7617 55.8821 44.3042 56.6781C43.8497 57.4666 43.319 58.1676 42.7121 58.7811C42.1083 59.3872 41.4454 59.8955 40.7235 60.3062C39.9942 60.7138 39.2077 60.9984 38.3638 61.1602C37.5126 61.3189 36.6049 61.3421 35.6408 61.2298C34.6724 61.107 33.6456 60.8221 32.5604 60.3749C31.5417 59.9551 30.6713 59.4582 29.9493 58.8843C29.2272 58.3104 28.637 57.6786 28.1786 56.9888C27.7202 56.299 27.3853 55.5609 27.174 54.7743C26.9658 53.9804 26.8683 53.1587 26.8816 52.3092C26.8905 51.4493 26.9983 50.5697 27.2048 49.6704C27.4144 48.7636 27.7078 47.8526 28.085 46.9372C28.4622 46.0218 28.8959 45.1686 29.386 44.3775C29.8761 43.5863 30.4209 42.8825 31.0204 42.266C31.6198 41.6495 32.2716 41.1365 32.9757 40.7272C33.6829 40.3105 34.4421 40.0189 35.2534 39.8523C36.0647 39.6858 36.9287 39.6533 37.8454 39.7547C38.7548 39.8531 39.7189 40.1122 40.7376 40.532C42.3321 41.1891 43.5935 42.0155 44.5217 43.0111C45.4456 43.9964 46.0837 45.0883 46.436 46.2871C46.7883 47.4858 46.8715 48.7507 46.6857 50.0817C46.4925 51.4097 46.113 52.7602 45.5471 54.1333ZM33.1454 49.0226C32.9507 49.495 32.8491 49.9195 32.8408 50.296C32.8281 50.6621 32.8773 50.9933 32.9884 51.2895C33.1025 51.5783 33.2623 51.8298 33.4676 52.044C33.673 52.2582 33.8927 52.448 34.1267 52.6135C34.3638 52.7717 34.6026 52.9046 34.8432 53.0124C35.0837 53.1202 35.2963 53.2121 35.4808 53.2881C35.6654 53.3642 35.881 53.4487 36.1276 53.5417C36.3743 53.6347 36.6411 53.7102 36.9282 53.768C37.2109 53.8154 37.5042 53.837 37.8082 53.8327C38.1122 53.8285 38.4102 53.7656 38.7021 53.6441C38.9896 53.5121 39.2615 53.3133 39.5178 53.0476C39.7772 52.7745 40.0042 52.4017 40.1989 51.9293C40.3936 51.4568 40.4936 51.036 40.4989 50.6669C40.5073 50.2904 40.4559 49.954 40.3448 49.6578C40.2263 49.3585 40.0607 49.1003 39.848 48.8831C39.6383 48.6585 39.4149 48.4671 39.1778 48.309C38.9334 48.1478 38.6908 48.0133 38.4503 47.9056C38.2128 47.7904 38.0017 47.6948 37.8172 47.6188C37.6326 47.5427 37.4155 47.4619 37.1658 47.3762C36.9192 47.2832 36.656 47.2093 36.3763 47.1545C36.0967 47.0997 35.807 47.0797 35.5073 47.0944C35.2107 47.1016 34.9186 47.1713 34.6311 47.3032C34.3436 47.4352 34.0738 47.6392 33.8219 47.9153C33.5656 48.181 33.3401 48.5501 33.1454 49.0226Z" fill="#FDCA4D"/>
<path d="M50.8809 47.7287C50.2815 48.4965 49.6546 49.2023 49.0002 49.8462C48.3506 50.4837 47.6512 51.0164 46.9018 51.4444C46.1574 51.866 45.3824 52.1777 44.5767 52.3794C43.7648 52.5762 42.9306 52.6391 42.0743 52.5683C41.2117 52.4926 40.3312 52.2712 39.4327 51.9041C38.5328 51.5258 37.6203 50.9755 36.6951 50.2534C35.8265 49.5754 35.1215 48.8631 34.5801 48.1163C34.0387 47.3696 33.6398 46.6025 33.3835 45.8149C33.1272 45.0274 33.0029 44.2264 33.0106 43.412C33.0232 42.5913 33.15 41.7736 33.3909 40.9589C33.6304 40.133 33.9704 39.3147 34.4109 38.5038C34.8563 37.6867 35.3835 36.8879 35.9927 36.1075C36.6019 35.327 37.2488 34.6216 37.9333 33.9911C38.6179 33.3607 39.3317 32.829 40.0747 32.3961C40.8178 31.9632 41.5834 31.6442 42.3715 31.439C43.1646 31.2275 43.9742 31.1505 44.8004 31.2079C45.6267 31.2654 46.4677 31.4661 47.3235 31.81C48.173 32.149 49.0321 32.6575 49.9006 33.3354C51.2601 34.3966 52.2532 35.5313 52.88 36.7397C53.5053 37.9368 53.8267 39.1601 53.8442 40.4094C53.8616 41.6587 53.6021 42.8994 53.0657 44.1317C52.5229 45.359 51.7947 46.558 50.8809 47.7287ZM40.3072 39.4752C39.9928 39.878 39.781 40.2596 39.6718 40.6201C39.5613 40.9693 39.5197 41.3015 39.5472 41.6167C39.5796 41.9255 39.6659 42.2107 39.8062 42.4721C39.9465 42.7336 40.1071 42.9755 40.2881 43.1978C40.474 43.4138 40.6684 43.606 40.8711 43.7744C41.0739 43.9428 41.254 44.0884 41.4113 44.2112C41.5687 44.3341 41.7537 44.4734 41.9663 44.6292C42.1789 44.785 42.4157 44.9294 42.6766 45.0622C42.9362 45.1838 43.213 45.2833 43.507 45.3609C43.801 45.4384 44.1049 45.4578 44.4186 45.4192C44.731 45.3693 45.0464 45.2508 45.3646 45.0637C45.6878 44.8703 46.0066 44.5722 46.321 44.1693C46.6354 43.7665 46.8447 43.3881 46.949 43.0339C47.0582 42.6735 47.099 42.3356 47.0715 42.0205C47.0378 41.7004 46.9476 41.4072 46.801 41.1408C46.6593 40.8682 46.4956 40.6238 46.3097 40.4078C46.1175 40.1869 45.92 39.9923 45.7172 39.8238C45.5193 39.6491 45.3417 39.5004 45.1844 39.3775C45.027 39.2547 44.8396 39.1185 44.6221 38.969C44.4094 38.8132 44.1758 38.6713 43.9211 38.5434C43.6665 38.4155 43.3928 38.3184 43.1002 38.2521C42.8125 38.1795 42.5125 38.1681 42.2001 38.218C41.8877 38.2679 41.573 38.392 41.2562 38.5903C40.9379 38.7774 40.6216 39.0724 40.3072 39.4752Z" fill="#FDCA4D"/>
<path d="M54.201 39.3711C54.5003 39.1317 54.7535 38.873 54.9605 38.595C55.1625 38.3107 55.3309 38.0227 55.4656 37.7309C55.6004 37.4392 55.7008 37.1493 55.7669 36.8613C55.8393 36.5682 55.8867 36.2952 55.9092 36.0421L57.4712 34.7929L61.301 39.5817L49.89 48.7074L46.6437 44.6481L47.6539 43.4568L43.0312 37.6765L41.647 38.4001L38.4007 34.3408L46.7812 27.6387L50.0275 31.698L49.0173 32.8893L54.201 39.3711Z" fill="#FDCA4D"/>
<path d="M69.8718 32.2475C70.1445 32.9895 70.2853 33.6875 70.2942 34.3416C70.3077 34.9854 70.2108 35.5857 70.0035 36.1425C69.7933 36.6918 69.4971 37.2054 69.1147 37.6834C68.7295 38.1539 68.2872 38.5863 67.7877 38.9806C67.2854 39.3674 66.7292 39.7021 66.119 39.9846C65.5192 40.2718 64.9057 40.5342 64.2786 40.772C63.1438 41.2022 62.1301 41.5352 61.2376 41.7711C60.7222 41.8982 59.9245 42.0127 58.8446 42.1147C57.9637 42.201 57.2503 42.2111 56.7043 42.1448L55.0274 37.7213L58.3982 36.4435C58.9902 36.8338 59.5769 37.0639 60.1584 37.1338C60.7474 37.2009 61.2994 37.1367 61.8146 36.9414C61.949 36.8905 62.094 36.8227 62.2498 36.738C62.4056 36.6534 62.5345 36.5319 62.6368 36.3736C62.7465 36.2125 62.8074 36.0015 62.8195 35.7408C62.8391 35.4772 62.7725 35.1438 62.6197 34.7406C61.955 34.9243 61.2841 35.0804 60.6071 35.209C59.9375 35.3348 59.2785 35.4096 58.63 35.4334C57.9816 35.4572 57.3521 35.4183 56.7415 35.3168C56.1355 35.205 55.5704 35.0094 55.0461 34.73C54.5292 34.4477 54.0601 34.0663 53.6388 33.5856C53.2221 33.0946 52.8737 32.4796 52.5935 31.7404C52.2935 30.9491 52.1348 30.2151 52.1174 29.5386C52.0972 28.8546 52.1842 28.2282 52.3784 27.6593C52.5772 27.0802 52.8655 26.5568 53.2433 26.0891C53.6256 25.6111 54.0642 25.1802 54.5591 24.7962C55.0614 24.4094 55.6064 24.0789 56.1941 23.8049C56.7893 23.528 57.3893 23.2749 57.994 23.0457C58.875 22.7117 59.6791 22.4453 60.4064 22.2465C61.1383 22.0373 61.8134 21.8924 62.4317 21.8117C63.0501 21.7309 63.6083 21.6944 64.1064 21.7019C64.6092 21.6992 65.062 21.7111 65.4648 21.7377L67.1205 26.1052L63.7497 27.383C63.1652 26.9899 62.5896 26.7555 62.0231 26.68C61.464 26.6016 60.938 26.6558 60.4453 26.8426C60.3109 26.8936 60.1649 26.9703 60.0074 27.0727C59.847 27.1676 59.7162 27.3069 59.615 27.4904C59.511 27.6665 59.452 27.8938 59.438 28.1723C59.4212 28.4433 59.4892 28.7805 59.6421 29.1836C60.9656 28.7331 62.1691 28.4391 63.2526 28.3016C64.3361 28.164 65.2984 28.2134 66.1393 28.4496C66.9849 28.6755 67.7186 29.1018 68.3404 29.7285C68.9594 30.3477 69.4699 31.1874 69.8718 32.2475Z" fill="#FDCA4D"/>
<path d="M76.5901 20.2387L77.4802 26.3057L75.4894 26.5977C75.3297 26.4436 75.1495 26.2885 74.9491 26.1323C74.7486 25.9761 74.5313 25.8426 74.2972 25.7317C74.0619 25.6129 73.8114 25.5286 73.5459 25.4787C73.2792 25.421 72.9997 25.4136 72.7074 25.4565L73.9122 33.6682L75.4724 33.742L76.2269 38.8847L65.6097 40.4423L64.8552 35.2996L66.3285 34.7808L65.1237 26.5691C64.8314 26.612 64.5658 26.6994 64.327 26.8313C64.0869 26.9552 63.8713 27.1079 63.68 27.2893C63.4876 27.4628 63.3178 27.6531 63.1706 27.8603C63.0235 28.0675 62.8955 28.2679 62.7867 28.4614L60.796 28.7534L59.9059 22.6864L76.5901 20.2387Z" fill="#FDCA4D"/>
<path d="M79.6528 40.7472C78.6831 40.6539 77.7511 40.5041 76.8565 40.2977C75.9699 40.0921 75.1449 39.7882 74.3815 39.3859C73.626 38.9844 72.9469 38.4979 72.3441 37.9266C71.7421 37.3473 71.241 36.6775 70.8409 35.9171C70.4416 35.1488 70.1555 34.2871 69.9827 33.332C69.8185 32.3697 69.7927 31.3044 69.905 30.1361C70.0105 29.0394 70.2329 28.0621 70.572 27.2044C70.9112 26.3467 71.3441 25.5982 71.8708 24.9591C72.3975 24.3199 73.0065 23.7849 73.6976 23.3541C74.3967 22.924 75.1546 22.5919 75.9712 22.3576C76.7965 22.1161 77.6695 21.9635 78.59 21.8996C79.5185 21.8365 80.4755 21.8524 81.461 21.9472C82.4465 22.0419 83.389 22.2088 84.2884 22.4477C85.1879 22.6866 86.0197 23.0033 86.7839 23.3976C87.5481 23.792 88.2283 24.2665 88.8247 24.8211C89.429 25.3766 89.9288 26.0182 90.324 26.746C90.7192 27.4739 91.0015 28.2911 91.171 29.1977C91.3413 30.0964 91.3736 31.0942 91.2681 32.1909C91.103 33.9076 90.6791 35.3547 89.9963 36.5323C89.3223 37.7028 88.463 38.6308 87.4184 39.3164C86.3739 40.002 85.1879 40.4494 83.8603 40.6586C82.5335 40.8598 81.131 40.8893 79.6528 40.7472ZM80.937 27.3952C80.4284 27.3463 79.9927 27.3726 79.63 27.474C79.276 27.5683 78.9735 27.7117 78.7224 27.9041C78.4792 28.0973 78.285 28.3233 78.1398 28.582C77.9946 28.8408 77.8768 29.1062 77.7865 29.3782C77.7041 29.651 77.6463 29.9182 77.6131 30.1797C77.58 30.4412 77.5538 30.6713 77.5347 30.87C77.5156 31.0687 77.4974 31.2995 77.4801 31.5626C77.4628 31.8256 77.4683 32.1029 77.4964 32.3943C77.5332 32.6786 77.5978 32.9656 77.6903 33.2552C77.7828 33.5448 77.9296 33.8116 78.1307 34.0555C78.3405 34.2923 78.6098 34.4947 78.9386 34.6626C79.2753 34.8314 79.6979 34.9402 80.2066 34.9891C80.7152 35.0381 81.1469 35.0114 81.5017 34.9092C81.8644 34.8077 82.1713 34.6607 82.4224 34.4683C82.6743 34.268 82.8732 34.0344 83.0192 33.7677C83.1731 33.5018 83.2912 33.2324 83.3736 32.9596C83.4568 32.6789 83.5149 32.4077 83.5481 32.1462C83.5892 31.8855 83.6193 31.6558 83.6385 31.4571C83.6576 31.2584 83.6718 31.0271 83.6811 30.7633C83.6984 30.5003 83.6926 30.227 83.6637 29.9435C83.6348 29.66 83.5698 29.377 83.4686 29.0946C83.3754 28.8129 83.2239 28.5537 83.0141 28.3169C82.8042 28.0802 82.5306 27.8814 82.1931 27.7206C81.8643 27.5526 81.4456 27.4441 80.937 27.3952Z" fill="#FDCA4D"/>
<path d="M88.4495 39.0679C88.8119 39.1925 89.166 39.2679 89.5117 39.2939C89.8599 39.3124 90.1933 39.3004 90.5119 39.258C90.8304 39.2156 91.1291 39.1452 91.4077 39.0468C91.694 38.9511 91.95 38.845 92.1758 38.7284L94.0671 39.379L92.0727 45.1775L78.256 40.4251L79.9466 35.51L81.4936 35.7255L83.9009 28.7265L82.5487 27.9448L84.2392 23.0296L94.3866 26.5199L92.696 31.435L91.149 31.2195L88.4495 39.0679Z" fill="#FDCA4D"/>
<path d="M98.1252 40.4475C97.708 40.9929 97.4188 41.5155 97.2575 42.0154C97.0962 42.5153 97.0517 42.9939 97.124 43.4514C97.2026 43.9136 97.3892 44.353 97.6838 44.7694C97.9848 45.1907 98.3858 45.5929 98.8868 45.9762C99.4828 46.4322 100.243 46.8978 101.166 47.373C102.089 47.8481 103.159 48.3095 104.374 48.7571L100.969 53.2086C99.6857 52.77 98.5009 52.2556 97.4142 51.6655C96.3339 51.0803 95.3245 50.4287 94.386 49.7106C93.2382 48.8325 92.2725 47.8675 91.4889 46.8156C90.7117 45.7686 90.1947 44.6442 89.9379 43.4425C89.6923 42.2392 89.7282 40.99 90.0456 39.6947C90.363 38.3994 91.0239 37.0955 92.0281 35.7828C93.0081 34.5019 94.0457 33.5465 95.1408 32.9166C96.2423 32.2916 97.3762 31.9527 98.5424 31.9C99.7199 31.8458 100.916 32.0569 102.129 32.5332C103.35 33.0144 104.569 33.7207 105.786 34.6522C106.534 35.2246 107.177 35.7769 107.715 36.3091C108.259 36.8461 108.729 37.356 109.123 37.8388C109.518 38.3217 109.844 38.7767 110.1 39.204C110.367 39.6297 110.596 40.0208 110.786 40.3771L107.438 44.7526L104.575 42.5621C104.601 41.8581 104.497 41.2455 104.262 40.7243C104.034 40.2079 103.71 39.7896 103.292 39.4694C102.937 39.1977 102.538 39.003 102.095 38.8854C101.659 38.7726 101.208 38.75 100.745 38.8174C100.281 38.8848 99.8218 39.0513 99.3673 39.3168C98.9177 39.576 98.5037 39.9529 98.1252 40.4475Z" fill="#FDCA4D"/>
<path d="M98.5584 55.724C97.9572 54.9577 97.4227 54.1795 96.9551 53.3894C96.4925 52.6057 96.1435 51.7987 95.9082 50.9684C95.6778 50.1445 95.5616 49.3173 95.5595 48.4867C95.5637 47.6513 95.703 46.8265 95.9776 46.0123C96.2585 45.1932 96.6851 44.3917 97.2574 43.6078C97.8409 42.8252 98.5944 42.0717 99.5178 41.3472C100.385 40.6671 101.246 40.154 102.101 39.808C102.956 39.462 103.796 39.2592 104.622 39.1997C105.448 39.1402 106.256 39.2121 107.044 39.4153C107.838 39.6249 108.601 39.9445 109.334 40.3742C110.078 40.8052 110.791 41.332 111.472 41.9544C112.158 42.5832 112.807 43.287 113.418 44.0659C114.029 44.8449 114.558 45.6424 115.006 46.4584C115.453 47.2744 115.797 48.0951 116.039 48.9204C116.281 49.7457 116.406 50.5655 116.416 51.3799C116.431 52.2006 116.311 53.005 116.056 53.7932C115.802 54.5813 115.405 55.3495 114.866 56.0975C114.332 56.8407 113.632 57.5523 112.765 58.2324C111.408 59.2969 110.068 59.9881 108.745 60.306C107.432 60.6253 106.168 60.6432 104.951 60.3598C103.734 60.0765 102.592 59.5263 101.525 58.7094C100.464 57.8875 99.4751 56.8924 98.5584 55.724ZM109.112 47.4443C108.796 47.0423 108.477 46.745 108.153 46.5524C107.841 46.3611 107.528 46.241 107.216 46.1918C106.908 46.149 106.61 46.1643 106.323 46.2376C106.035 46.311 105.762 46.4088 105.503 46.531C105.248 46.6595 105.015 46.802 104.803 46.9583C104.591 47.1147 104.406 47.2544 104.249 47.3777C104.092 47.5009 103.912 47.6469 103.71 47.8158C103.508 47.9848 103.311 48.1799 103.119 48.4013C102.938 48.6241 102.775 48.8688 102.629 49.1355C102.483 49.4022 102.392 49.6925 102.354 50.0064C102.327 50.3216 102.366 50.6562 102.471 51.0101C102.581 51.3703 102.794 51.7514 103.11 52.1534C103.425 52.5554 103.742 52.8496 104.061 53.0359C104.384 53.2286 104.702 53.3494 105.015 53.3985C105.334 53.4427 105.64 53.4256 105.934 53.3474C106.233 53.2754 106.509 53.1751 106.763 53.0466C107.024 52.9132 107.261 52.7683 107.473 52.6119C107.69 52.4618 107.877 52.3252 108.034 52.202C108.191 52.0788 108.368 51.9296 108.566 51.7544C108.768 51.5855 108.962 51.3928 109.147 51.1763C109.333 50.9598 109.493 50.7176 109.627 50.4495C109.767 50.1877 109.85 49.8992 109.877 49.584C109.904 49.2687 109.859 48.9335 109.742 48.5782C109.637 48.2243 109.427 47.8464 109.112 47.4443Z" fill="#FDCA4D"/>
<path d="M101.522 63.5263C101.148 62.6267 100.842 61.7336 100.604 60.8471C100.368 59.9679 100.249 59.0969 100.245 58.234C100.244 57.3784 100.354 56.5503 100.575 55.7497C100.803 54.946 101.159 54.1889 101.642 53.4782C102.132 52.7645 102.758 52.1069 103.52 51.5053C104.292 50.908 105.22 50.3842 106.304 49.9341C107.321 49.5115 108.288 49.2483 109.205 49.1443C110.121 49.0404 110.985 49.0706 111.797 49.2349C112.609 49.3992 113.367 49.6851 114.072 50.0925C114.781 50.5073 115.43 51.02 116.021 51.6305C116.622 52.2454 117.167 52.9441 117.656 53.7265C118.149 54.5163 118.585 55.3683 118.964 56.2827C119.344 57.197 119.64 58.1073 119.852 59.0134C120.064 59.9196 120.176 60.8026 120.187 61.6624C120.198 62.5223 120.099 63.3458 119.89 64.1329C119.684 64.9274 119.353 65.6702 118.896 66.3612C118.44 67.0522 117.851 67.6857 117.131 68.2615C116.418 68.8343 115.552 69.332 114.535 69.7546C112.942 70.416 111.466 70.7223 110.105 70.6734C108.755 70.6288 107.532 70.3068 106.436 69.7073C105.34 69.1078 104.387 68.2714 103.578 67.1981C102.777 66.1217 102.091 64.8978 101.522 63.5263ZM113.91 58.3818C113.714 57.9099 113.486 57.5377 113.226 57.2654C112.976 56.9973 112.707 56.7977 112.419 56.6665C112.134 56.5427 111.844 56.4776 111.547 56.4711C111.25 56.4646 110.961 56.4855 110.678 56.5336C110.399 56.5892 110.136 56.6638 109.889 56.7575C109.643 56.8512 109.428 56.9363 109.243 57.0128C109.059 57.0894 108.847 57.1819 108.606 57.2903C108.366 57.3987 108.124 57.5339 107.88 57.6957C107.646 57.8619 107.424 58.0539 107.211 58.2717C106.999 58.4894 106.833 58.7444 106.712 59.0366C106.602 59.3332 106.55 59.666 106.556 60.0351C106.565 60.4116 106.668 60.8358 106.864 61.3077C107.06 61.7796 107.287 62.1481 107.544 62.4131C107.804 62.6855 108.078 62.8873 108.366 63.0184C108.661 63.1465 108.961 63.2123 109.265 63.2157C109.572 63.2265 109.865 63.2041 110.144 63.1486C110.431 63.09 110.698 63.0138 110.944 62.9201C111.194 62.8338 111.411 62.7524 111.595 62.6758C111.779 62.5993 111.99 62.5031 112.227 62.3873C112.468 62.2789 112.706 62.1453 112.943 61.9865C113.179 61.8277 113.399 61.6373 113.6 61.4152C113.805 61.2004 113.963 60.9448 114.073 60.6483C114.183 60.3518 114.23 60.0168 114.213 59.6434C114.207 59.2742 114.106 58.8537 113.91 58.3818Z" fill="#FDCA4D"/>
<path d="M107.126 70.4951C107.186 70.8736 107.286 71.2215 107.425 71.539C107.573 71.8551 107.74 72.1439 107.927 72.4053C108.114 72.6666 108.316 72.8973 108.534 73.0972C108.752 73.3049 108.966 73.4812 109.175 73.6259L109.489 75.6012L103.433 76.5623L101.143 62.1317L106.276 61.317L106.812 62.7841L114.122 61.6241L114.178 60.0631L119.311 59.2485L120.993 69.8467L115.859 70.6614L115.323 69.1943L107.126 70.4951Z" fill="#FDCA4D"/>
<path d="M105.584 87.7196C104.804 87.5908 104.127 87.3689 103.554 87.0539C102.987 86.748 102.513 86.3676 102.131 85.9125C101.757 85.4587 101.456 84.9476 101.229 84.3792C101.01 83.812 100.852 83.214 100.755 82.585C100.667 81.9572 100.65 81.3083 100.705 80.6382C100.751 79.9747 100.826 79.3116 100.928 78.6488C101.114 77.4495 101.324 76.4035 101.56 75.5108C101.703 74.9998 101.997 74.2495 102.441 73.2598C102.801 72.451 103.144 71.8255 103.471 71.3833L108.146 72.107L107.595 75.6695C106.963 75.9918 106.473 76.3887 106.126 76.86C105.777 77.3392 105.56 77.8511 105.476 78.3955C105.454 78.5375 105.441 78.6971 105.438 78.8744C105.435 79.0516 105.477 79.2238 105.564 79.3908C105.65 79.5657 105.804 79.7228 106.024 79.862C106.244 80.0091 106.567 80.1156 106.993 80.1816C107.161 79.5128 107.356 78.8522 107.579 78.1999C107.8 77.5554 108.06 76.9453 108.359 76.3695C108.658 75.7937 109.002 75.2653 109.392 74.7843C109.788 74.3124 110.237 73.9174 110.739 73.5992C111.239 73.2888 111.803 73.069 112.429 72.9397C113.061 72.8195 113.768 72.8199 114.549 72.9408C115.386 73.0703 116.102 73.2944 116.699 73.613C117.304 73.9329 117.806 74.3176 118.205 74.7672C118.611 75.2259 118.924 75.7349 119.144 76.2942C119.371 76.8626 119.53 77.4567 119.62 78.0766C119.708 78.7043 119.727 79.3414 119.675 79.9879C119.622 80.6422 119.547 81.2889 119.448 81.928C119.303 82.8591 119.139 83.69 118.953 84.4206C118.773 85.1604 118.566 85.8192 118.332 86.3969C118.097 86.9745 117.853 87.4781 117.601 87.9077C117.355 88.3463 117.121 88.7343 116.9 89.0716L112.284 88.357L112.835 84.7945C113.466 84.4801 113.953 84.0951 114.299 83.6395C114.643 83.1919 114.855 82.7076 114.936 82.1869C114.958 82.0449 114.963 81.8801 114.952 81.6925C114.948 81.5061 114.892 81.3236 114.782 81.1451C114.68 80.9677 114.511 80.8043 114.276 80.6547C114.049 80.5064 113.722 80.3992 113.296 80.3333C113.035 81.7067 112.697 82.8986 112.282 83.9089C111.867 84.9193 111.349 85.7319 110.729 86.3468C110.115 86.9709 109.382 87.3988 108.53 87.6304C107.686 87.8633 106.704 87.8931 105.584 87.7196Z" fill="#FDCA4D"/>
<path d="M112.721 99.4867L107.004 97.2689L107.732 95.3931C107.945 95.3301 108.168 95.2499 108.403 95.1525C108.638 95.0552 108.861 94.932 109.073 94.783C109.293 94.6369 109.489 94.4606 109.664 94.2542C109.845 94.0507 109.99 93.8112 110.097 93.5358L102.359 90.534L101.525 91.8549L96.6793 89.9749L100.56 79.9705L105.406 81.8505L105.131 83.388L112.869 86.3898C112.976 86.1143 113.031 85.8402 113.034 85.5673C113.044 85.2974 113.018 85.0345 112.954 84.7786C112.898 84.5257 112.816 84.2841 112.709 84.0539C112.601 83.8237 112.49 83.6136 112.375 83.4235L113.103 81.5477L118.82 83.7655L112.721 99.4867Z" fill="#FDCA4D"/>
<path d="M93.414 91.9362C93.9743 91.1394 94.5651 90.4031 95.1866 89.7274C95.8035 89.0582 96.4754 88.4912 97.2024 88.0263C97.9248 87.5679 98.6833 87.2179 99.4779 86.9762C100.279 86.7391 101.109 86.6345 101.968 86.6624C102.833 86.695 103.724 86.8721 104.639 87.1938C105.557 87.5267 106.496 88.0306 107.456 88.7056C108.357 89.3394 109.097 90.0156 109.675 90.7343C110.253 91.453 110.69 92.1993 110.985 92.973C111.281 93.7468 111.445 94.5405 111.478 95.3543C111.506 96.1746 111.42 96.9976 111.221 97.8233C111.023 98.6601 110.724 99.4945 110.325 100.326C109.921 101.165 109.434 101.989 108.864 102.799C108.295 103.609 107.684 104.346 107.032 105.009C106.38 105.673 105.694 106.24 104.973 106.709C104.253 107.179 103.504 107.536 102.727 107.78C101.945 108.031 101.141 108.149 100.313 108.132C99.4846 108.116 98.6346 107.958 97.7626 107.657C96.8972 107.361 96.0138 106.896 95.1125 106.262C93.7017 105.271 92.6531 104.187 91.9667 103.011C91.2823 101.847 90.9002 100.641 90.8203 99.3945C90.7404 98.1476 90.9376 96.8954 91.4118 95.6379C91.8925 94.385 92.5599 93.1511 93.414 91.9362ZM104.387 99.6509C104.681 99.2329 104.873 98.8412 104.964 98.4757C105.057 98.1214 105.082 97.7875 105.039 97.4741C104.991 97.1672 104.891 96.8867 104.738 96.6326C104.584 96.3785 104.412 96.145 104.22 95.932C104.024 95.7256 103.82 95.5433 103.609 95.3853C103.398 95.2272 103.211 95.0908 103.048 94.9759C102.884 94.8611 102.693 94.7312 102.472 94.5862C102.252 94.4412 102.009 94.3089 101.741 94.1893C101.476 94.0809 101.195 93.9953 100.897 93.9325C100.6 93.8698 100.295 93.8655 99.9837 93.9198C99.6741 93.9853 99.3651 94.1194 99.0566 94.3222C98.7435 94.5315 98.4401 94.8452 98.1462 95.2632C97.8523 95.6812 97.6621 96.0697 97.5757 96.4286C97.4847 96.7941 97.4608 97.1335 97.5039 97.4469C97.5537 97.7649 97.6584 98.0532 97.8181 98.3119C97.9732 98.5772 98.149 98.813 98.3455 99.0194C98.5485 99.2305 98.7554 99.415 98.9664 99.5731C99.1728 99.7377 99.3576 99.8774 99.5209 99.9922C99.6842 100.107 99.8782 100.234 100.103 100.372C100.323 100.517 100.563 100.647 100.824 100.762C101.085 100.877 101.363 100.96 101.659 101.012C101.95 101.07 102.25 101.067 102.559 101.001C102.869 100.936 103.177 100.796 103.483 100.582C103.792 100.379 104.093 100.069 104.387 99.6509Z" fill="#FDCA4D"/>
<path d="M90.5124 100.449C90.2254 100.703 89.9854 100.974 89.7925 101.262C89.6048 101.556 89.451 101.852 89.3309 102.15C89.2109 102.448 89.125 102.743 89.0733 103.034C89.0156 103.33 88.9818 103.605 88.9719 103.859L87.474 105.184L83.4108 100.592L94.3537 90.9098L97.7979 94.8026L96.8482 96.0426L101.753 101.586L103.099 100.794L106.543 104.687L98.5066 111.798L95.0624 107.905L96.0121 106.665L90.5124 100.449Z" fill="#FDCA4D"/>
<path d="M84.5328 108.218C84.2632 107.587 83.9505 107.078 83.5946 106.691C83.2387 106.305 82.8438 106.031 82.41 105.869C81.9689 105.71 81.4946 105.656 80.9871 105.708C80.4722 105.763 79.9248 105.914 79.3446 106.162C78.6544 106.456 77.8753 106.889 77.0075 107.459C76.1397 108.029 75.2119 108.733 74.2241 109.571L72.0237 104.416C73.0367 103.515 74.0673 102.737 75.1156 102.081C76.1565 101.428 77.2204 100.87 78.3072 100.406C79.6363 99.8386 80.9515 99.4726 82.2528 99.3077C83.5467 99.1461 84.78 99.249 85.9526 99.6166C87.121 99.9946 88.191 100.64 89.1626 101.554C90.1342 102.467 90.9444 103.684 91.5933 105.204C92.2264 106.688 92.5479 108.061 92.5576 109.324C92.56 110.591 92.2973 111.745 91.7695 112.786C91.2375 113.838 90.4656 114.775 89.4537 115.597C88.4345 116.423 87.22 117.137 85.8101 117.739C84.9436 118.109 84.1464 118.397 83.4185 118.603C82.6833 118.813 82.0085 118.971 81.394 119.077C80.7794 119.183 80.2232 119.242 79.7252 119.255C79.223 119.279 78.7701 119.285 78.3665 119.275L76.2036 114.209L79.5191 112.793C80.1193 113.162 80.704 113.373 81.2732 113.425C81.835 113.48 82.3583 113.404 82.8429 113.198C83.2541 113.022 83.6199 112.77 83.9401 112.443C84.253 112.118 84.4941 111.737 84.6636 111.301C84.833 110.864 84.9139 110.382 84.9062 109.856C84.9017 109.337 84.7773 108.791 84.5328 108.218Z" fill="#FDCA4D"/>
<path d="M71.0711 101.039C72.0345 100.895 72.9752 100.815 73.8931 100.8C74.8031 100.785 75.6771 100.881 76.5151 101.086C77.3452 101.294 78.1217 101.602 78.8447 102.01C79.5688 102.427 80.2168 102.956 80.7888 103.597C81.3619 104.246 81.8477 105.013 82.2461 105.898C82.6378 106.793 82.9203 107.82 83.0935 108.981C83.2561 110.071 83.2764 111.073 83.1545 111.987C83.0325 112.901 82.7932 113.732 82.4365 114.48C82.0798 115.227 81.6182 115.893 81.0516 116.478C80.4771 117.064 79.8219 117.57 79.086 117.995C78.3435 118.428 77.5333 118.787 76.6554 119.072C75.7697 119.357 74.8372 119.573 73.858 119.719C72.8788 119.865 71.9239 119.931 70.9934 119.916C70.0628 119.902 69.1792 119.795 68.3424 119.597C67.5055 119.399 66.7308 119.103 66.0181 118.709C65.2975 118.316 64.6576 117.814 64.0982 117.203C63.5389 116.592 63.0675 115.868 62.684 115.029C62.3017 114.198 62.0293 113.237 61.8667 112.148C61.6122 110.442 61.674 108.935 62.0521 107.628C62.4235 106.329 63.0331 105.221 63.8811 104.303C64.729 103.386 65.7719 102.665 67.0096 102.141C68.2485 101.626 69.6023 101.258 71.0711 101.039ZM73.0504 114.306C73.5558 114.23 73.9722 114.1 74.2996 113.913C74.6203 113.736 74.8793 113.524 75.0765 113.277C75.2658 113.031 75.3996 112.764 75.478 112.478C75.5564 112.192 75.6066 111.906 75.6285 111.62C75.6426 111.336 75.6341 111.062 75.6031 110.801C75.5722 110.539 75.5419 110.309 75.5125 110.112C75.483 109.915 75.4449 109.686 75.3981 109.427C75.3514 109.167 75.2791 108.9 75.1814 108.623C75.077 108.357 74.945 108.094 74.7853 107.835C74.6256 107.576 74.4187 107.353 74.1646 107.165C73.9038 106.986 73.5936 106.854 73.234 106.771C72.8665 106.688 72.4301 106.685 71.9247 106.76C71.4193 106.836 71.0068 106.966 70.6873 107.151C70.3598 107.337 70.0975 107.553 69.9003 107.801C69.7043 108.056 69.5677 108.331 69.4905 108.625C69.4053 108.92 69.3558 109.21 69.3417 109.495C69.3289 109.787 69.3379 110.064 69.3689 110.326C69.392 110.589 69.4182 110.819 69.4477 111.017C69.4771 111.214 69.5192 111.442 69.5739 111.7C69.6207 111.96 69.6923 112.223 69.7888 112.492C69.8853 112.76 70.0168 113.019 70.1832 113.268C70.3417 113.519 70.5514 113.734 70.8122 113.913C71.073 114.092 71.3866 114.219 71.7529 114.293C72.1125 114.377 72.545 114.381 73.0504 114.306Z" fill="#FDCA4D"/>
<path d="M62.7362 99.7603C63.7029 99.8795 64.6307 100.054 65.5194 100.284C66.4002 100.514 67.2168 100.839 67.9692 101.262C68.7137 101.683 69.3796 102.188 69.9669 102.775C70.5532 103.37 71.0362 104.053 71.4158 104.824C71.7945 105.603 72.0575 106.472 72.2047 107.431C72.3431 108.398 72.3405 109.463 72.1969 110.628C72.0622 111.722 71.8138 112.693 71.4518 113.541C71.0899 114.389 70.6371 115.126 70.0935 115.751C69.5499 116.376 68.9269 116.894 68.2245 117.306C67.5142 117.718 66.7477 118.029 65.9251 118.242C65.0936 118.461 64.2169 118.59 63.295 118.63C62.3651 118.668 61.4089 118.626 60.4263 118.505C59.4437 118.384 58.506 118.192 57.6133 117.929C56.7205 117.667 55.8975 117.328 55.1441 116.913C54.3907 116.499 53.7234 116.006 53.142 115.436C52.5528 114.864 52.0703 114.209 51.6947 113.471C51.3191 112.733 51.0587 111.909 50.9135 110.998C50.7673 110.095 50.7616 109.097 50.8964 108.003C51.1073 106.292 51.5697 104.856 52.2837 103.697C52.9888 102.545 53.8726 101.641 54.935 100.983C55.9975 100.326 57.1951 99.9101 58.5277 99.7365C59.8594 99.5707 61.2623 99.5787 62.7362 99.7603ZM61.0957 113.073C61.6028 113.136 62.039 113.121 62.4043 113.029C62.7607 112.945 63.067 112.809 63.3231 112.624C63.5714 112.437 63.7715 112.216 63.9236 111.962C64.0757 111.707 64.2005 111.445 64.2981 111.175C64.3877 110.905 64.4526 110.639 64.4927 110.379C64.5329 110.118 64.5652 109.889 64.5896 109.691C64.614 109.492 64.6384 109.262 64.6627 109C64.687 108.737 64.6889 108.46 64.6686 108.168C64.6394 107.883 64.5825 107.594 64.4978 107.302C64.4131 107.01 64.2735 106.739 64.0789 106.49C63.8755 106.248 63.6117 106.038 63.2876 105.862C62.9555 105.684 62.5359 105.564 62.0287 105.501C61.5216 105.439 61.0893 105.454 60.732 105.547C60.3667 105.639 60.056 105.777 59.7998 105.963C59.5427 106.156 59.3376 106.385 59.1845 106.647C59.0235 106.909 58.8982 107.175 58.8086 107.446C58.718 107.724 58.6526 107.994 58.6124 108.254C58.5644 108.514 58.5281 108.743 58.5037 108.941C58.4793 109.139 58.4589 109.37 58.4425 109.633C58.4182 109.895 58.4167 110.169 58.438 110.453C58.4593 110.737 58.5167 111.022 58.6103 111.307C58.696 111.591 58.8406 111.854 59.044 112.096C59.2474 112.339 59.5157 112.545 59.8487 112.714C60.1729 112.891 60.5885 113.011 61.0957 113.073Z" fill="#FDCA4D"/>
<path d="M53.9067 101.203C53.5477 101.069 53.1959 100.984 52.851 100.948C52.5034 100.921 52.1698 100.924 51.8502 100.957C51.5306 100.991 51.2302 101.054 50.949 101.144C50.6603 101.232 50.4015 101.331 50.1726 101.442L48.2995 100.741L50.4494 94.998L64.1331 100.121L62.3107 104.989L60.7701 104.732L58.175 111.663L59.5057 112.481L57.6833 117.349L47.6337 113.586L49.4561 108.719L50.9967 108.976L53.9067 101.203Z" fill="#FDCA4D"/>
<path d="M39.7796 91.3921C40.2772 90.7779 40.8045 90.2994 41.3618 89.9567C41.9078 89.6153 42.473 89.391 43.0573 89.2839C43.6368 89.183 44.2296 89.1744 44.836 89.2579C45.4374 89.3477 46.0353 89.5061 46.6298 89.7332C47.2193 89.9664 47.7917 90.2727 48.3469 90.652C48.9008 91.0201 49.4404 91.4125 49.9658 91.8294C50.9166 92.5836 51.7219 93.2836 52.3816 93.9293C52.7548 94.3069 53.2617 94.9332 53.9025 95.8085C54.4278 96.5208 54.8019 97.1284 55.0247 97.6313L52.0846 101.337L49.2604 99.0969C49.2925 98.3885 49.1895 97.7667 48.9517 97.2315C48.7076 96.6913 48.3697 96.2501 47.9381 95.9077C47.8255 95.8183 47.693 95.7285 47.5405 95.6381C47.388 95.5477 47.2176 95.4991 47.0293 95.4924C46.8347 95.4807 46.6223 95.5365 46.3921 95.6596C46.1557 95.7778 45.9035 96.0057 45.6356 96.3435C46.1338 96.8203 46.6115 97.3165 47.0688 97.8321C47.5197 98.3428 47.9215 98.8705 48.2742 99.4152C48.6268 99.9599 48.9159 100.52 49.1414 101.097C49.3558 101.675 49.4772 102.26 49.5058 102.854C49.5282 103.442 49.4409 104.04 49.2438 104.648C49.0356 105.258 48.6858 105.872 48.1946 106.491C47.6686 107.154 47.1195 107.667 46.5474 108.028C45.9703 108.396 45.3878 108.642 44.7997 108.766C44.2005 108.892 43.6033 108.913 43.0081 108.828C42.4018 108.744 41.807 108.589 41.2237 108.36C40.6342 108.127 40.0712 107.828 39.5348 107.464C38.9921 107.094 38.4674 106.709 37.9608 106.307C37.2227 105.721 36.582 105.167 36.0387 104.644C35.4842 104.123 35.0139 103.617 34.6278 103.128C34.2418 102.638 33.9244 102.177 33.6758 101.745C33.4159 101.315 33.1942 100.92 33.0107 100.56L35.9136 96.9013L38.7377 99.1418C38.6994 99.8452 38.7929 100.46 39.0183 100.985C39.2374 101.505 39.5533 101.929 39.9662 102.257C40.0788 102.346 40.2194 102.432 40.3881 102.515C40.5518 102.604 40.7384 102.645 40.9478 102.638C41.1523 102.637 41.3777 102.571 41.6241 102.441C41.8655 102.316 42.1202 102.085 42.3881 101.747C41.3233 100.841 40.4543 99.9584 39.7812 99.0982C39.1081 98.2381 38.6576 97.3864 38.4297 96.5432C38.1906 95.7012 38.1809 94.8527 38.4006 93.9976C38.6153 93.1488 39.075 92.2803 39.7796 91.3921Z" fill="#FDCA4D"/>
<path d="M25.988 91.7992L30.733 87.9151L32.0075 89.4721C31.9575 89.6884 31.9171 89.9227 31.8863 90.1749C31.8554 90.4271 31.8527 90.6822 31.878 90.94C31.8972 91.2029 31.9537 91.4611 32.0476 91.7144C32.1353 91.9728 32.2727 92.2163 32.4598 92.4449L38.8822 87.1878L38.1429 85.8119L42.165 82.5196L48.962 90.8233L44.9399 94.1156L43.7372 93.119L37.3148 98.3761C37.5019 98.6047 37.7135 98.7875 37.9494 98.9245C38.1792 99.0666 38.4211 99.173 38.675 99.2437C38.9228 99.3195 39.1734 99.3672 39.4267 99.3868C39.6801 99.4064 39.9177 99.4131 40.1396 99.4069L41.4141 100.964L36.6691 104.848L25.988 91.7992Z" fill="#FDCA4D"/>
<path d="M42.0419 78.6973C42.4604 79.5769 42.8111 80.4534 43.0941 81.3267C43.3736 82.1929 43.5371 83.0568 43.5845 83.9184C43.6285 84.7728 43.5605 85.6054 43.3804 86.4161C43.193 87.2303 42.8761 88.0045 42.4297 88.7386C41.976 89.4761 41.384 90.1646 40.6536 90.8038C39.9127 91.4394 39.0123 92.0093 37.9524 92.5135C36.9575 92.987 36.005 93.2987 35.0949 93.4488C34.1849 93.5988 33.3204 93.6123 32.5013 93.4892C31.6823 93.366 30.9104 93.1188 30.1855 92.7475C29.4572 92.369 28.7827 91.8898 28.1619 91.3098C27.5304 90.7261 26.9507 90.0558 26.4226 89.2991C25.8911 88.5351 25.4127 87.7062 24.9873 86.8122C24.5619 85.9182 24.2205 85.024 23.9629 84.1297C23.7054 83.2354 23.5493 82.3592 23.4947 81.501C23.44 80.6428 23.4972 79.8154 23.6664 79.0187C23.8321 78.2148 24.1255 77.4563 24.5465 76.7431C24.9676 76.0299 25.5234 75.3675 26.2139 74.756C26.8972 74.148 27.7363 73.6072 28.7312 73.1338C30.2885 72.3928 31.7477 72.0124 33.1088 71.9926C34.4592 71.969 35.697 72.2288 36.822 72.7722C37.9471 73.3156 38.9406 74.1029 39.8026 75.134C40.6574 76.1685 41.4038 77.3563 42.0419 78.6973ZM29.9296 84.4606C30.1491 84.922 30.3957 85.2821 30.6692 85.5411C30.932 85.7962 31.2105 85.982 31.5047 86.0984C31.7954 86.2077 32.089 86.2581 32.3856 86.2496C32.6822 86.2411 32.9704 86.2056 33.2502 86.1432C33.5265 86.0736 33.7854 85.9858 34.0268 85.8799C34.2681 85.7739 34.4789 85.678 34.6591 85.5922C34.8394 85.5064 35.0468 85.4034 35.2812 85.2829C35.5157 85.1625 35.7507 85.0153 35.9863 84.8414C36.2112 84.6636 36.4241 84.4606 36.625 84.2324C36.8258 84.0042 36.9792 83.7411 37.085 83.4432C37.1802 83.1415 37.2153 82.8065 37.1903 82.4382C37.162 82.0626 37.038 81.6441 36.8185 81.1827C36.5989 80.7213 36.3541 80.3647 36.084 80.113C35.8105 79.8541 35.5267 79.6664 35.2325 79.55C34.9312 79.4369 34.6286 79.3864 34.3248 79.3983C34.0176 79.403 33.7258 79.4402 33.4494 79.5098C33.1659 79.5828 32.9034 79.6723 32.662 79.7783C32.4173 79.8771 32.2048 79.9694 32.0245 80.0552C31.8443 80.1409 31.6386 80.2476 31.4076 80.3752C31.1731 80.4957 30.9417 80.6411 30.7133 80.8117C30.485 80.9822 30.2757 81.1835 30.0855 81.4155C29.8918 81.6402 29.7474 81.9035 29.6522 82.2052C29.557 82.5069 29.5272 82.8438 29.5628 83.2159C29.5878 83.5843 29.71 83.9991 29.9296 84.4606Z" fill="#FDCA4D"/>
<path d="M36.0908 72.0087C36.0119 71.6337 35.8948 71.2911 35.7398 70.9811C35.5769 70.6727 35.3956 70.3927 35.1957 70.141C34.9958 69.8894 34.7822 69.6692 34.5548 69.4805C34.3257 69.2839 34.1032 69.1186 33.8873 68.9846L33.4751 67.0275L39.4754 65.7638L42.4866 80.0613L37.4005 81.1325L36.7915 79.6941L29.549 81.2195L29.572 82.7813L24.4858 83.8525L22.2743 73.352L27.3605 72.2808L27.9694 73.7192L36.0908 72.0087Z" fill="#FDCA4D"/>
</svg>
