<svg width="2560" height="2480" viewBox="0 0 2560 2480" fill="none" xmlns="http://www.w3.org/2000/svg">
<path fill-rule="evenodd" clip-rule="evenodd" d="M2371.83 1239.88L2371.99 1250.4L2372.46 1260.94L2373.25 1271.49L2374.34 1282.08L2375.74 1292.72L2377.44 1303.41L2379.42 1314.17L2381.69 1325.01L2384.22 1335.93L2387.01 1346.95L2390.04 1358.08L2393.3 1369.32L2396.76 1380.67L2400.41 1392.15L2404.22 1403.77L2408.18 1415.51L2412.25 1427.4L2416.41 1439.42L2420.62 1451.58L2424.86 1463.88L2429.1 1476.31L2433.29 1488.87L2437.4 1501.55L2441.39 1514.34L2445.23 1527.23L2448.86 1540.22L2452.26 1553.28L2455.37 1566.4L2458.15 1579.56L2460.57 1592.74L2462.57 1605.92L2464.12 1619.08L2465.18 1632.18L2465.71 1645.21L2465.68 1658.14L2465.05 1670.93L2463.79 1683.57L2461.89 1696.02L2459.32 1708.26L2456.06 1720.26L2452.11 1731.99L2447.46 1743.43L2442.1 1754.56L2436.05 1765.36L2429.32 1775.81L2421.92 1785.89L2413.87 1795.6L2405.21 1804.92L2395.95 1813.85L2386.15 1822.39L2375.83 1830.54L2365.03 1838.3L2353.82 1845.69L2342.22 1852.71L2330.29 1859.38L2318.08 1865.71L2305.64 1871.73L2293.01 1877.46L2280.26 1882.92L2267.43 1888.14L2254.56 1893.15L2241.7 1897.99L2228.9 1902.67L2216.2 1907.24L2203.64 1911.73L2191.26 1916.18L2179.1 1920.61L2167.18 1925.07L2155.55 1929.6L2144.22 1934.23L2133.24 1938.99L2122.62 1943.95L2112.38 1949.12L2102.56 1954.55L2093.18 1960.29L2084.24 1966.38L2075.78 1972.86L2067.81 1979.79L2060.35 1987.21L2053.39 1995.14L2046.87 2003.56L2040.75 2012.46L2034.99 2021.81L2029.53 2031.6L2024.34 2041.8L2019.37 2052.39L2014.59 2063.35L2009.95 2074.65L2005.42 2086.26L2000.95 2098.15L1996.52 2110.3L1992.07 2122.66L1987.59 2135.21L1983.03 2147.9L1978.35 2160.69L1973.53 2173.55L1968.54 2186.41L1963.33 2199.25L1957.89 2212.01L1952.18 2224.65L1946.19 2237.11L1939.88 2249.34L1933.24 2261.29L1926.25 2272.92L1918.89 2284.17L1911.16 2295L1903.04 2305.36L1894.54 2315.2L1885.64 2324.5L1876.34 2333.22L1866.67 2341.31L1856.61 2348.77L1846.19 2355.55L1835.42 2361.66L1824.32 2367.07L1812.9 2371.78L1801.19 2375.78L1789.21 2379.1L1776.99 2381.72L1764.56 2383.68L1751.93 2384.98L1739.15 2385.66L1726.23 2385.74L1713.21 2385.25L1700.11 2384.24L1686.96 2382.72L1673.78 2380.75L1660.6 2378.37L1647.44 2375.61L1634.31 2372.53L1621.25 2369.16L1608.25 2365.54L1595.35 2361.72L1582.55 2357.74L1569.86 2353.63L1557.29 2349.45L1544.85 2345.21L1532.54 2340.97L1520.37 2336.75L1508.34 2332.59L1496.44 2328.51L1484.69 2324.54L1473.06 2320.72L1461.57 2317.05L1450.2 2313.58L1438.96 2310.3L1427.82 2307.25L1416.8 2304.45L1405.87 2301.89L1395.02 2299.6L1384.26 2297.6L1373.56 2295.88L1362.92 2294.46L1352.32 2293.34L1341.77 2292.53L1331.23 2292.03L1320.71 2291.85L1310.19 2291.98L1299.66 2292.43L1289.1 2293.19L1278.52 2294.26L1267.88 2295.63L1257.2 2297.3L1246.44 2299.27L1235.61 2301.51L1224.69 2304.02L1213.68 2306.79L1202.57 2309.8L1191.34 2313.04L1179.99 2316.49L1168.52 2320.12L1156.92 2323.93L1145.18 2327.87L1133.31 2331.93L1121.3 2336.08L1109.15 2340.3L1096.86 2344.54L1084.44 2348.77L1071.89 2352.97L1059.22 2357.09L1046.44 2361.09L1033.55 2364.94L1020.57 2368.6L1007.52 2372.01L994.401 2375.14L981.243 2377.96L968.063 2380.4L954.883 2382.44L941.726 2384.03L928.616 2385.13L915.581 2385.7L902.645 2385.71L889.838 2385.13L877.187 2383.93L864.719 2382.08L852.463 2379.56L840.445 2376.36L828.69 2372.46L817.224 2367.86L806.068 2362.56L795.243 2356.57L784.766 2349.89L774.653 2342.54L764.915 2334.55L755.562 2325.93L746.599 2316.72L738.029 2306.96L729.849 2296.68L722.056 2285.92L714.641 2274.74L707.593 2263.17L700.899 2251.26L694.539 2239.07L688.496 2226.65L682.745 2214.04L677.263 2201.29L672.022 2188.46L666.994 2175.59L662.148 2162.74L657.452 2149.93L652.874 2137.22L648.38 2124.65L643.933 2112.25L639.499 2100.07L635.041 2088.13L630.522 2076.47L625.903 2065.12L621.146 2054.11L616.212 2043.46L611.059 2033.2L605.647 2023.34L599.933 2013.92L593.874 2004.95L587.422 1996.45L580.532 1988.44L573.154 1980.94L565.265 1973.94L556.881 1967.39L548.021 1961.24L538.704 1955.44L528.951 1949.96L518.783 1944.75L508.222 1939.77L497.293 1934.97L486.021 1930.33L474.434 1925.79L462.56 1921.32L450.433 1916.88L438.084 1912.44L425.551 1907.96L412.871 1903.41L400.085 1898.74L387.235 1893.93L374.365 1888.95L361.522 1883.77L348.753 1878.34L336.106 1872.66L323.633 1866.69L311.382 1860.41L299.405 1853.79L287.751 1846.83L276.468 1839.51L265.605 1831.8L255.207 1823.72L245.316 1815.24L235.971 1806.37L227.21 1797.11L219.063 1787.46L211.558 1777.44L204.718 1767.05L198.559 1756.3L193.094 1745.23L188.329 1733.83L184.265 1722.14L180.898 1710.19L178.217 1697.98L176.209 1685.56L174.853 1672.95L174.126 1660.18L174 1647.28L174.443 1634.26L175.42 1621.17L176.896 1608.02L178.829 1594.84L181.181 1581.66L183.908 1568.49L186.969 1555.37L190.321 1542.3L193.921 1529.3L197.727 1516.39L201.697 1503.58L205.793 1490.88L209.974 1478.3L214.204 1465.85L218.447 1453.53L222.669 1441.35L226.838 1429.3L230.925 1417.4L234.9 1405.63L238.738 1394L242.415 1382.49L245.909 1371.12L249.199 1359.86L252.266 1348.72L255.095 1337.68L257.671 1326.74L259.979 1315.89L262.01 1305.12L263.752 1294.42L265.198 1283.78L266.341 1273.18L267.176 1262.62L267.698 1252.08L267.906 1241.56L267.798 1231.04L267.376 1220.51L266.64 1209.96L265.595 1199.37L264.245 1188.74L262.596 1178.06L260.657 1167.31L258.435 1156.49L255.944 1145.58L253.194 1134.57L250.201 1123.47L246.98 1112.25L243.549 1100.91L239.928 1089.45L236.139 1077.86L232.204 1066.13L228.15 1054.27L224.004 1042.27L219.796 1030.13L215.556 1017.86L211.318 1005.45L207.117 992.91L202.99 980.249L198.976 967.473L195.113 954.593L191.443 941.62L188.007 928.571L184.849 915.459L182.011 902.304L179.535 889.125L177.464 875.944L175.838 862.784L174.698 849.669L174.081 836.627L174.022 823.682L174.555 810.864L175.707 798.199L177.506 785.716L179.97 773.442L183.117 761.404L186.959 749.628L191.5 738.138L196.743 726.956L202.682 716.104L209.306 705.599L216.602 695.456L224.547 685.688L233.116 676.304L242.278 667.31L251.999 658.708L262.24 650.498L272.96 642.674L284.114 635.229L295.655 628.153L307.535 621.431L319.704 615.046L332.112 608.978L344.709 603.205L357.444 597.702L370.269 592.443L383.135 587.399L395.997 582.539L408.808 577.833L421.526 573.247L434.11 568.747L446.521 564.298L458.723 559.864L470.681 555.41L482.363 550.897L493.739 546.287L504.78 541.543L515.461 536.624L525.756 531.49L535.644 526.1L545.102 520.412L554.11 514.381L562.647 507.963L570.696 501.11L578.237 493.772L585.278 485.923L591.863 477.578L598.043 468.755L603.862 459.474L609.365 449.755L614.596 439.619L619.596 429.089L624.405 418.188L629.063 406.942L633.61 395.379L638.084 383.527L642.521 371.418L646.96 359.086L651.435 346.566L655.983 333.897L660.638 321.118L665.432 308.271L670.399 295.401L675.569 282.554L680.971 269.777L686.634 257.119L692.581 244.63L698.837 232.36L705.423 220.359L712.357 208.677L719.653 197.363L727.325 186.465L735.381 176.028L743.827 166.095L752.665 156.706L761.894 147.897L771.51 139.7L781.505 132.143L791.867 125.249L802.583 119.036L813.636 113.515L825.006 108.694L836.671 104.575L848.608 101.152L860.791 98.4175L873.194 96.3563L885.79 94.9494L898.55 94.1731L911.448 94L924.455 94.3988L937.544 95.3351L950.689 96.7722L963.864 98.671L977.047 100.991L990.214 103.69L1003.34 106.726L1016.42 110.056L1029.43 113.638L1042.34 117.428L1055.16 121.388L1067.87 125.474L1080.46 129.65L1092.92 133.878L1105.25 138.121L1117.44 142.346L1129.5 146.52L1141.42 150.614L1153.19 154.599L1164.84 158.45L1176.35 162.14L1187.74 165.649L1199 168.956L1210.15 172.042L1221.2 174.891L1232.14 177.487L1243 179.817L1253.78 181.87L1264.49 183.635L1275.13 185.105L1285.73 186.273L1296.3 187.132L1306.84 187.679L1317.36 187.912L1327.88 187.83L1338.41 187.433L1348.96 186.722L1359.54 185.701L1370.16 184.375L1380.84 182.75L1391.58 180.833L1402.4 178.634L1413.3 176.163L1424.3 173.434L1435.4 170.459L1446.61 167.256L1457.94 163.841L1469.39 160.234L1480.97 156.457L1492.68 152.534L1504.53 148.488L1516.52 144.349L1528.65 140.144L1540.91 135.905L1553.31 131.666L1565.84 127.461L1578.49 123.327L1591.26 119.302L1604.13 115.425L1617.1 111.738L1630.14 108.283L1643.25 105.101L1656.4 102.236L1669.58 99.7294L1682.76 97.6243L1695.92 95.9617L1709.04 94.7813L1722.09 94.1212L1735.05 94.017L1747.88 94.5014L1760.55 95.6038L1773.05 97.3497L1785.34 99.7605L1797.4 102.853L1809.2 106.639L1820.71 111.124L1831.92 116.311L1842.8 122.195L1853.33 128.766L1863.5 136.008L1873.3 143.902L1882.72 152.423L1891.74 161.539L1900.38 171.217L1908.62 181.418L1916.47 192.102L1923.95 203.223L1931.05 214.735L1937.8 226.589L1944.21 238.737L1950.31 251.128L1956.1 263.711L1961.62 276.438L1966.9 289.257L1971.96 302.122L1976.83 314.985L1981.55 327.802L1986.15 340.529L1990.65 353.125L1995.1 365.552L1999.54 377.772L2003.99 389.75L2008.5 401.455L2013.1 412.856L2017.83 423.925L2022.73 434.635L2027.85 444.963L2033.22 454.884L2038.88 464.377L2044.88 473.421L2051.27 481.997L2058.08 490.085L2065.38 497.667L2073.19 504.746L2081.49 511.366L2090.28 517.576L2099.53 523.422L2109.21 528.949L2119.31 534.2L2129.81 539.217L2140.69 544.039L2151.91 548.708L2163.44 553.263L2175.27 557.741L2187.36 562.18L2199.68 566.617L2212.19 571.088L2224.84 575.629L2237.62 580.274L2250.46 585.056L2263.33 590.008L2276.18 595.161L2288.96 600.543L2301.63 606.184L2314.14 612.108L2326.43 618.339L2338.45 624.898L2350.16 631.803L2361.51 639.07L2372.44 646.712L2382.91 654.737L2392.89 663.151L2402.32 671.958L2411.18 681.156L2419.43 690.742L2427.03 700.707L2433.98 711.04L2440.25 721.729L2445.83 732.755L2450.7 744.101L2454.88 755.743L2458.36 767.659L2461.14 779.824L2463.26 792.211L2464.72 804.792L2465.54 817.54L2465.76 830.428L2465.41 843.427L2464.51 856.511L2463.11 869.652L2461.25 882.826L2458.96 896.009L2456.29 909.178L2453.28 922.313L2449.97 935.394L2446.41 948.405L2442.64 961.331L2438.69 974.158L2434.61 986.875L2430.44 999.474L2426.22 1011.95L2421.97 1024.29L2417.74 1036.49L2413.56 1048.56L2409.46 1060.48L2405.47 1072.27L2401.61 1083.93L2397.9 1095.45L2394.38 1106.85L2391.05 1118.12L2387.95 1129.28L2385.08 1140.33L2382.47 1151.29L2380.11 1162.15L2378.04 1172.93L2376.25 1183.65L2374.76 1194.3L2373.56 1204.9L2372.68 1215.47L2372.11 1226.01L2371.85 1236.53L2371.83 1239.88Z" fill="url(#paint0_linear_7_15)"/>
<path d="M2371.83 1239.88V1239.88ZM2371.83 1239.88L2371.99 1250.4L2372.46 1260.94L2373.25 1271.49L2374.34 1282.08L2375.74 1292.72L2377.44 1303.41L2379.42 1314.17L2381.69 1325.01L2384.22 1335.93L2387.01 1346.95L2390.04 1358.08L2393.3 1369.32L2396.76 1380.67L2400.41 1392.15L2404.22 1403.77L2408.18 1415.51L2412.25 1427.4L2416.41 1439.42L2420.62 1451.58L2424.86 1463.88L2429.1 1476.31L2433.29 1488.87L2437.4 1501.55L2441.39 1514.34L2445.23 1527.23L2448.86 1540.22L2452.26 1553.28L2455.37 1566.4L2458.15 1579.56L2460.57 1592.74L2462.57 1605.92L2464.12 1619.08L2465.18 1632.18L2465.71 1645.21L2465.68 1658.14L2465.05 1670.93L2463.79 1683.57L2461.89 1696.02L2459.32 1708.26L2456.06 1720.26L2452.11 1731.99L2447.46 1743.43L2442.1 1754.56L2436.05 1765.36L2429.32 1775.81L2421.92 1785.89L2413.87 1795.6L2405.21 1804.92L2395.95 1813.85L2386.15 1822.39L2375.83 1830.54L2365.03 1838.3L2353.82 1845.69L2342.22 1852.71L2330.29 1859.38L2318.08 1865.71L2305.64 1871.73L2293.01 1877.46L2280.26 1882.92L2267.43 1888.14L2254.56 1893.15L2241.7 1897.99L2228.9 1902.67L2216.2 1907.24L2203.64 1911.73L2191.26 1916.18L2179.1 1920.61L2167.18 1925.07L2155.55 1929.6L2144.22 1934.23L2133.24 1938.99L2122.62 1943.95L2112.38 1949.12L2102.56 1954.55L2093.18 1960.29L2084.24 1966.38L2075.78 1972.86L2067.81 1979.79L2060.35 1987.21L2053.39 1995.14L2046.87 2003.56L2040.75 2012.46L2034.99 2021.81L2029.53 2031.6L2024.34 2041.8L2019.37 2052.39L2014.59 2063.35L2009.95 2074.65L2005.42 2086.26L2000.95 2098.15L1996.52 2110.3L1992.07 2122.66L1987.59 2135.21L1983.03 2147.9L1978.35 2160.69L1973.53 2173.55L1968.54 2186.41L1963.33 2199.25L1957.89 2212.01L1952.18 2224.65L1946.19 2237.11L1939.88 2249.34L1933.24 2261.29L1926.25 2272.92L1918.89 2284.17L1911.16 2295L1903.04 2305.36L1894.54 2315.2L1885.64 2324.5L1876.34 2333.22L1866.67 2341.31L1856.61 2348.77L1846.19 2355.55L1835.42 2361.66L1824.32 2367.07L1812.9 2371.78L1801.19 2375.78L1789.21 2379.1L1776.99 2381.72L1764.56 2383.68L1751.93 2384.98L1739.15 2385.66L1726.23 2385.74L1713.21 2385.25L1700.11 2384.24L1686.96 2382.72L1673.78 2380.75L1660.6 2378.37L1647.44 2375.61L1634.31 2372.53L1621.25 2369.16L1608.25 2365.54L1595.35 2361.72L1582.55 2357.74L1569.86 2353.63L1557.29 2349.45L1544.85 2345.21L1532.54 2340.97L1520.37 2336.75L1508.34 2332.59L1496.44 2328.51L1484.69 2324.54L1473.06 2320.72L1461.57 2317.05L1450.2 2313.58L1438.96 2310.3L1427.82 2307.25L1416.8 2304.45L1405.87 2301.89L1395.02 2299.6L1384.26 2297.6L1373.56 2295.88L1362.92 2294.46L1352.32 2293.34L1341.77 2292.53L1331.23 2292.03L1320.71 2291.85L1310.19 2291.98L1299.66 2292.43L1289.1 2293.19L1278.52 2294.26L1267.88 2295.63L1257.2 2297.3L1246.44 2299.27L1235.61 2301.51L1224.69 2304.02L1213.68 2306.79L1202.57 2309.8L1191.34 2313.04L1179.99 2316.49L1168.52 2320.12L1156.92 2323.93L1145.18 2327.87L1133.31 2331.93L1121.3 2336.08L1109.15 2340.3L1096.86 2344.54L1084.44 2348.77L1071.89 2352.97L1059.22 2357.09L1046.44 2361.09L1033.55 2364.94L1020.57 2368.6L1007.52 2372.01L994.401 2375.14L981.243 2377.96L968.063 2380.4L954.883 2382.44L941.726 2384.03L928.616 2385.13L915.581 2385.7L902.645 2385.71L889.838 2385.13L877.187 2383.93L864.719 2382.08L852.463 2379.56L840.445 2376.36L828.69 2372.46L817.224 2367.86L806.068 2362.56L795.243 2356.57L784.766 2349.89L774.653 2342.54L764.915 2334.55L755.562 2325.93L746.599 2316.72L738.029 2306.96L729.849 2296.68L722.056 2285.92L714.641 2274.74L707.593 2263.17L700.899 2251.26L694.539 2239.07L688.496 2226.65L682.745 2214.04L677.263 2201.29L672.022 2188.46L666.994 2175.59L662.148 2162.74L657.452 2149.93L652.874 2137.22L648.38 2124.65L643.933 2112.25L639.499 2100.07L635.041 2088.13L630.522 2076.47L625.903 2065.12L621.146 2054.11L616.212 2043.46L611.059 2033.2L605.647 2023.34L599.933 2013.92L593.874 2004.95L587.422 1996.45L580.532 1988.44L573.154 1980.94L565.265 1973.94L556.881 1967.39L548.021 1961.24L538.704 1955.44L528.951 1949.96L518.783 1944.75L508.222 1939.77L497.293 1934.97L486.021 1930.33L474.434 1925.79L462.56 1921.32L450.433 1916.88L438.084 1912.44L425.551 1907.96L412.871 1903.41L400.085 1898.74L387.235 1893.93L374.365 1888.95L361.522 1883.76L348.753 1878.34L336.106 1872.66L323.633 1866.69L311.382 1860.41L299.405 1853.79L287.751 1846.83L276.468 1839.51L265.605 1831.8L255.207 1823.72L245.316 1815.24L235.971 1806.37L227.21 1797.11L219.063 1787.46L211.558 1777.44L204.718 1767.05L198.559 1756.3L193.094 1745.23L188.329 1733.83L184.265 1722.14L180.898 1710.19L178.217 1697.98L176.209 1685.56L174.853 1672.95L174.126 1660.18L174 1647.28L174.443 1634.26L175.42 1621.17L176.896 1608.02L178.829 1594.84L181.181 1581.66L183.908 1568.49L186.969 1555.37L190.321 1542.3L193.921 1529.3L197.727 1516.39L201.697 1503.58L205.793 1490.88L209.974 1478.3L214.204 1465.85L218.447 1453.53L222.669 1441.35L226.838 1429.3L230.925 1417.4L234.9 1405.63L238.738 1394L242.415 1382.49L245.909 1371.12L249.199 1359.86L252.266 1348.72L255.095 1337.68L257.671 1326.74L259.979 1315.89L262.01 1305.12L263.752 1294.42L265.198 1283.78L266.341 1273.18L267.176 1262.62L267.698 1252.08L267.906 1241.56L267.798 1231.04L267.376 1220.51L266.64 1209.96L265.595 1199.37L264.245 1188.74L262.596 1178.06L260.657 1167.31L258.435 1156.49L255.944 1145.58L253.194 1134.57L250.201 1123.47L246.98 1112.25L243.549 1100.91L239.928 1089.45L236.139 1077.86L232.204 1066.13L228.15 1054.27L224.004 1042.27L219.796 1030.13L215.556 1017.86L211.318 1005.45L207.117 992.91L202.99 980.249L198.976 967.473L195.113 954.593L191.443 941.62L188.007 928.571L184.849 915.459L182.011 902.304L179.535 889.125L177.464 875.944L175.838 862.784L174.698 849.669L174.081 836.627L174.022 823.683L174.555 810.864L175.707 798.199L177.506 785.716L179.97 773.442L183.117 761.404L186.959 749.628L191.5 738.138L196.743 726.956L202.682 716.104L209.306 705.599L216.602 695.456L224.547 685.688L233.116 676.304L242.278 667.31L251.999 658.708L262.24 650.498L272.96 642.674L284.114 635.229L295.655 628.153L307.535 621.431L319.704 615.046L332.112 608.978L344.709 603.205L357.444 597.702L370.269 592.443L383.135 587.399L395.997 582.539L408.808 577.833L421.526 573.247L434.11 568.747L446.521 564.298L458.723 559.864L470.681 555.41L482.363 550.897L493.739 546.287L504.78 541.543L515.461 536.624L525.756 531.49L535.644 526.1L545.102 520.412L554.11 514.381L562.647 507.963L570.696 501.11L578.237 493.772L585.278 485.923L591.863 477.578L598.043 468.755L603.862 459.474L609.365 449.755L614.596 439.619L619.596 429.089L624.405 418.188L629.063 406.942L633.61 395.379L638.084 383.527L642.521 371.418L646.96 359.086L651.435 346.566L655.983 333.897L660.638 321.118L665.432 308.271L670.399 295.401L675.569 282.554L680.971 269.777L686.634 257.119L692.581 244.63L698.837 232.36L705.423 220.359L712.357 208.677L719.653 197.363L727.325 186.465L735.381 176.028L743.827 166.095L752.665 156.706L761.894 147.897L771.51 139.7L781.505 132.143L791.867 125.249L802.583 119.036L813.636 113.515L825.006 108.694L836.671 104.575L848.608 101.152L860.791 98.4175L873.194 96.3563L885.79 94.9494L898.55 94.1731L911.448 94L924.455 94.3988L937.544 95.3351L950.689 96.7722L963.864 98.671L977.047 100.991L990.214 103.69L1003.34 106.726L1016.42 110.056L1029.43 113.638L1042.34 117.428L1055.16 121.388L1067.87 125.474L1080.46 129.65L1092.92 133.878L1105.25 138.121L1117.44 142.346L1129.5 146.52L1141.42 150.614L1153.19 154.599L1164.84 158.45L1176.35 162.14L1187.74 165.649L1199 168.956L1210.15 172.042L1221.2 174.891L1232.14 177.487L1243 179.817L1253.78 181.87L1264.49 183.635L1275.13 185.105L1285.73 186.273L1296.3 187.132L1306.84 187.679L1317.36 187.912L1327.88 187.83L1338.41 187.433L1348.96 186.722L1359.54 185.701L1370.16 184.375L1380.84 182.75L1391.58 180.833L1402.4 178.634L1413.3 176.163L1424.3 173.434L1435.4 170.459L1446.61 167.256L1457.94 163.841L1469.39 160.234L1480.97 156.457L1492.68 152.534L1504.53 148.488L1516.52 144.349L1528.65 140.144L1540.91 135.905L1553.31 131.666L1565.84 127.461L1578.49 123.327L1591.26 119.302L1604.13 115.425L1617.1 111.738L1630.14 108.283L1643.25 105.101L1656.4 102.236L1669.58 99.7294L1682.76 97.6243L1695.92 95.9617L1709.04 94.7813L1722.09 94.1212L1735.05 94.017L1747.88 94.5014L1760.55 95.6038L1773.05 97.3497L1785.34 99.7605L1797.4 102.853L1809.2 106.639L1820.71 111.124L1831.92 116.311L1842.8 122.195L1853.33 128.766L1863.5 136.008L1873.3 143.902L1882.72 152.423L1891.74 161.539L1900.38 171.217L1908.62 181.418L1916.47 192.102L1923.95 203.223L1931.05 214.735L1937.8 226.589L1944.21 238.737L1950.31 251.128L1956.1 263.711L1961.62 276.438L1966.9 289.257L1971.96 302.122L1976.83 314.985L1981.55 327.802L1986.15 340.529L1990.65 353.125L1995.1 365.552L1999.54 377.772L2003.99 389.75L2008.5 401.455L2013.1 412.856L2017.83 423.925L2022.73 434.635L2027.85 444.963L2033.22 454.884L2038.88 464.377L2044.88 473.421L2051.27 481.997L2058.08 490.085L2065.38 497.667L2073.19 504.746L2081.49 511.366L2090.28 517.576L2099.53 523.422L2109.21 528.949L2119.31 534.2L2129.81 539.217L2140.69 544.039L2151.91 548.708L2163.44 553.263L2175.27 557.741L2187.36 562.18L2199.68 566.617L2212.19 571.088L2224.84 575.629L2237.62 580.274L2250.46 585.056L2263.33 590.008L2276.18 595.161L2288.96 600.543L2301.63 606.184L2314.14 612.108L2326.43 618.339L2338.45 624.898L2350.16 631.803L2361.51 639.07L2372.44 646.712L2382.91 654.737L2392.89 663.151L2402.32 671.958L2411.18 681.156L2419.43 690.742L2427.03 700.707L2433.98 711.04L2440.25 721.729L2445.83 732.755L2450.7 744.101L2454.88 755.743L2458.36 767.659L2461.14 779.824L2463.26 792.21L2464.72 804.792L2465.54 817.54L2465.76 830.428L2465.41 843.427L2464.51 856.511L2463.11 869.652L2461.25 882.826L2458.96 896.009L2456.29 909.178L2453.28 922.313L2449.97 935.394L2446.41 948.405L2442.64 961.331L2438.69 974.158L2434.61 986.875L2430.44 999.474L2426.22 1011.95L2421.97 1024.29L2417.74 1036.49L2413.56 1048.56L2409.46 1060.48L2405.47 1072.27L2401.61 1083.93L2397.9 1095.45L2394.38 1106.85L2391.05 1118.12L2387.95 1129.28L2385.08 1140.33L2382.47 1151.29L2380.11 1162.15L2378.04 1172.93L2376.25 1183.65L2374.76 1194.3L2373.56 1204.9L2372.68 1215.47L2372.11 1226.01L2371.85 1236.53L2371.83 1239.88Z" stroke="#EB7D7D" stroke-width="186.518"/>
<path fill-rule="evenodd" clip-rule="evenodd" d="M2371.83 1239.88L2371.99 1250.4L2372.46 1260.94L2373.25 1271.49L2374.34 1282.08L2375.74 1292.72L2377.44 1303.41L2379.42 1314.17L2381.69 1325.01L2384.22 1335.93L2387.01 1346.95L2390.04 1358.08L2393.3 1369.32L2396.76 1380.67L2400.41 1392.15L2404.22 1403.77L2408.18 1415.51L2412.25 1427.4L2416.41 1439.42L2420.62 1451.58L2424.86 1463.88L2429.1 1476.31L2433.29 1488.87L2437.4 1501.55L2441.39 1514.34L2445.23 1527.23L2448.86 1540.22L2452.26 1553.28L2455.37 1566.4L2458.15 1579.56L2460.57 1592.74L2462.57 1605.92L2464.12 1619.08L2465.18 1632.18L2465.71 1645.21L2465.68 1658.14L2465.05 1670.93L2463.79 1683.57L2461.89 1696.02L2459.32 1708.26L2456.06 1720.26L2452.11 1731.99L2447.46 1743.43L2442.1 1754.56L2436.05 1765.36L2429.32 1775.81L2421.92 1785.89L2413.87 1795.6L2405.21 1804.92L2395.95 1813.85L2386.15 1822.39L2375.83 1830.54L2365.03 1838.3L2353.82 1845.69L2342.22 1852.71L2330.29 1859.38L2318.08 1865.71L2305.64 1871.73L2293.01 1877.46L2280.26 1882.92L2267.43 1888.14L2254.56 1893.15L2241.7 1897.99L2228.9 1902.67L2216.2 1907.24L2203.64 1911.73L2191.26 1916.18L2179.1 1920.61L2167.18 1925.07L2155.55 1929.6L2144.22 1934.23L2133.24 1938.99L2122.62 1943.95L2112.38 1949.12L2102.56 1954.55L2093.18 1960.29L2084.24 1966.38L2075.78 1972.86L2067.81 1979.79L2060.35 1987.21L2053.39 1995.14L2046.87 2003.56L2040.75 2012.46L2034.99 2021.81L2029.53 2031.6L2024.34 2041.8L2019.37 2052.39L2014.59 2063.35L2009.95 2074.65L2005.42 2086.26L2000.95 2098.15L1996.52 2110.3L1992.07 2122.66L1987.59 2135.21L1983.03 2147.9L1978.35 2160.69L1973.53 2173.55L1968.54 2186.41L1963.33 2199.25L1957.89 2212.01L1952.18 2224.65L1946.19 2237.11L1939.88 2249.34L1933.24 2261.29L1926.25 2272.92L1918.89 2284.17L1911.16 2295L1903.04 2305.36L1894.54 2315.2L1885.64 2324.5L1876.34 2333.22L1866.67 2341.31L1856.61 2348.77L1846.19 2355.55L1835.42 2361.66L1824.32 2367.07L1812.9 2371.78L1801.19 2375.78L1789.21 2379.1L1776.99 2381.72L1764.56 2383.68L1751.93 2384.98L1739.15 2385.66L1726.23 2385.74L1713.21 2385.25L1700.11 2384.24L1686.96 2382.72L1673.78 2380.75L1660.6 2378.37L1647.44 2375.61L1634.31 2372.53L1621.25 2369.16L1608.25 2365.54L1595.35 2361.72L1582.55 2357.74L1569.86 2353.63L1557.29 2349.45L1544.85 2345.21L1532.54 2340.97L1520.37 2336.75L1508.34 2332.59L1496.44 2328.51L1484.69 2324.54L1473.06 2320.72L1461.57 2317.05L1450.2 2313.58L1438.96 2310.3L1427.82 2307.25L1416.8 2304.45L1405.87 2301.89L1395.02 2299.6L1384.26 2297.6L1373.56 2295.88L1362.92 2294.46L1352.32 2293.34L1341.77 2292.53L1331.23 2292.03L1320.71 2291.85L1310.19 2291.98L1299.66 2292.43L1289.1 2293.19L1278.52 2294.26L1267.88 2295.63L1257.2 2297.3L1246.44 2299.27L1235.61 2301.51L1224.69 2304.02L1213.68 2306.79L1202.57 2309.8L1191.34 2313.04L1179.99 2316.49L1168.52 2320.12L1156.92 2323.93L1145.18 2327.87L1133.31 2331.93L1121.3 2336.08L1109.15 2340.3L1096.86 2344.54L1084.44 2348.77L1071.89 2352.97L1059.22 2357.09L1046.44 2361.09L1033.55 2364.94L1020.57 2368.6L1007.52 2372.01L994.401 2375.14L981.243 2377.96L968.063 2380.4L954.883 2382.44L941.726 2384.03L928.616 2385.13L915.581 2385.7L902.645 2385.71L889.838 2385.13L877.187 2383.93L864.719 2382.08L852.463 2379.56L840.445 2376.36L828.69 2372.46L817.224 2367.86L806.068 2362.56L795.243 2356.57L784.766 2349.89L774.653 2342.54L764.915 2334.55L755.562 2325.93L746.599 2316.72L738.029 2306.96L729.849 2296.68L722.056 2285.92L714.641 2274.74L707.593 2263.17L700.899 2251.26L694.539 2239.07L688.496 2226.65L682.745 2214.04L677.263 2201.29L672.022 2188.46L666.994 2175.59L662.148 2162.74L657.452 2149.93L652.874 2137.22L648.38 2124.65L643.933 2112.25L639.499 2100.07L635.041 2088.13L630.522 2076.47L625.903 2065.12L621.146 2054.11L616.212 2043.46L611.059 2033.2L605.647 2023.34L599.933 2013.92L593.874 2004.95L587.422 1996.45L580.532 1988.44L573.154 1980.94L565.265 1973.94L556.881 1967.39L548.021 1961.24L538.704 1955.44L528.951 1949.96L518.783 1944.75L508.222 1939.77L497.293 1934.97L486.021 1930.33L474.434 1925.79L462.56 1921.32L450.433 1916.88L438.084 1912.44L425.551 1907.96L412.871 1903.41L400.085 1898.74L387.235 1893.93L374.365 1888.95L361.522 1883.77L348.753 1878.34L336.106 1872.66L323.633 1866.69L311.382 1860.41L299.405 1853.79L287.751 1846.83L276.468 1839.51L265.605 1831.8L255.207 1823.72L245.316 1815.24L235.971 1806.37L227.21 1797.11L219.063 1787.46L211.558 1777.44L204.718 1767.05L198.559 1756.3L193.094 1745.23L188.329 1733.83L184.265 1722.14L180.898 1710.19L178.217 1697.98L176.209 1685.56L174.853 1672.95L174.126 1660.18L174 1647.28L174.443 1634.26L175.42 1621.17L176.896 1608.02L178.829 1594.84L181.181 1581.66L183.908 1568.49L186.969 1555.37L190.321 1542.3L193.921 1529.3L197.727 1516.39L201.697 1503.58L205.793 1490.88L209.974 1478.3L214.204 1465.85L218.447 1453.53L222.669 1441.35L226.838 1429.3L230.925 1417.4L234.9 1405.63L238.738 1394L242.415 1382.49L245.909 1371.12L249.199 1359.86L252.266 1348.72L255.095 1337.68L257.671 1326.74L259.979 1315.89L262.01 1305.12L263.752 1294.42L265.198 1283.78L266.341 1273.18L267.176 1262.62L267.698 1252.08L267.906 1241.56L267.798 1231.04L267.376 1220.51L266.64 1209.96L265.595 1199.37L264.245 1188.74L262.596 1178.06L260.657 1167.31L258.435 1156.49L255.944 1145.58L253.194 1134.57L250.201 1123.47L246.98 1112.25L243.549 1100.91L239.928 1089.45L236.139 1077.86L232.204 1066.13L228.15 1054.27L224.004 1042.27L219.796 1030.13L215.556 1017.86L211.318 1005.45L207.117 992.91L202.99 980.249L198.976 967.473L195.113 954.593L191.443 941.62L188.007 928.571L184.849 915.459L182.011 902.304L179.535 889.125L177.464 875.944L175.838 862.784L174.698 849.669L174.081 836.627L174.022 823.682L174.555 810.864L175.707 798.199L177.506 785.716L179.97 773.442L183.117 761.404L186.959 749.628L191.5 738.138L196.743 726.956L202.682 716.104L209.306 705.599L216.602 695.456L224.547 685.688L233.116 676.304L242.278 667.31L251.999 658.708L262.24 650.498L272.96 642.674L284.114 635.229L295.655 628.153L307.535 621.431L319.704 615.046L332.112 608.978L344.709 603.205L357.444 597.702L370.269 592.443L383.135 587.399L395.997 582.539L408.808 577.833L421.526 573.247L434.11 568.747L446.521 564.298L458.723 559.864L470.681 555.41L482.363 550.897L493.739 546.287L504.78 541.543L515.461 536.624L525.756 531.49L535.644 526.1L545.102 520.412L554.11 514.381L562.647 507.963L570.696 501.11L578.237 493.772L585.278 485.923L591.863 477.578L598.043 468.755L603.862 459.474L609.365 449.755L614.596 439.619L619.596 429.089L624.405 418.188L629.063 406.942L633.61 395.379L638.084 383.527L642.521 371.418L646.96 359.086L651.435 346.566L655.983 333.897L660.638 321.118L665.432 308.271L670.399 295.401L675.569 282.554L680.971 269.777L686.634 257.119L692.581 244.63L698.837 232.36L705.423 220.359L712.357 208.677L719.653 197.363L727.325 186.465L735.381 176.028L743.827 166.095L752.665 156.706L761.894 147.897L771.51 139.7L781.505 132.143L791.867 125.249L802.583 119.036L813.636 113.515L825.006 108.694L836.671 104.575L848.608 101.152L860.791 98.4175L873.194 96.3563L885.79 94.9494L898.55 94.1731L911.448 94L924.455 94.3988L937.544 95.3351L950.689 96.7722L963.864 98.671L977.047 100.991L990.214 103.69L1003.34 106.726L1016.42 110.056L1029.43 113.638L1042.34 117.428L1055.16 121.388L1067.87 125.474L1080.46 129.65L1092.92 133.878L1105.25 138.121L1117.44 142.346L1129.5 146.52L1141.42 150.614L1153.19 154.599L1164.84 158.45L1176.35 162.14L1187.74 165.649L1199 168.956L1210.15 172.042L1221.2 174.891L1232.14 177.487L1243 179.817L1253.78 181.87L1264.49 183.635L1275.13 185.105L1285.73 186.273L1296.3 187.132L1306.84 187.679L1317.36 187.912L1327.88 187.83L1338.41 187.433L1348.96 186.722L1359.54 185.701L1370.16 184.375L1380.84 182.75L1391.58 180.833L1402.4 178.634L1413.3 176.163L1424.3 173.434L1435.4 170.459L1446.61 167.256L1457.94 163.841L1469.39 160.234L1480.97 156.457L1492.68 152.534L1504.53 148.488L1516.52 144.349L1528.65 140.144L1540.91 135.905L1553.31 131.666L1565.84 127.461L1578.49 123.327L1591.26 119.302L1604.13 115.425L1617.1 111.738L1630.14 108.283L1643.25 105.101L1656.4 102.236L1669.58 99.7294L1682.76 97.6243L1695.92 95.9617L1709.04 94.7813L1722.09 94.1212L1735.05 94.017L1747.88 94.5014L1760.55 95.6038L1773.05 97.3497L1785.34 99.7605L1797.4 102.853L1809.2 106.639L1820.71 111.124L1831.92 116.311L1842.8 122.195L1853.33 128.766L1863.5 136.008L1873.3 143.902L1882.72 152.423L1891.74 161.539L1900.38 171.217L1908.62 181.418L1916.47 192.102L1923.95 203.223L1931.05 214.735L1937.8 226.589L1944.21 238.737L1950.31 251.128L1956.1 263.711L1961.62 276.438L1966.9 289.257L1971.96 302.122L1976.83 314.985L1981.55 327.802L1986.15 340.529L1990.65 353.125L1995.1 365.552L1999.54 377.772L2003.99 389.75L2008.5 401.455L2013.1 412.856L2017.83 423.925L2022.73 434.635L2027.85 444.963L2033.22 454.884L2038.88 464.377L2044.88 473.421L2051.27 481.997L2058.08 490.085L2065.38 497.667L2073.19 504.746L2081.49 511.366L2090.28 517.576L2099.53 523.422L2109.21 528.949L2119.31 534.2L2129.81 539.217L2140.69 544.039L2151.91 548.708L2163.44 553.263L2175.27 557.741L2187.36 562.18L2199.68 566.617L2212.19 571.088L2224.84 575.629L2237.62 580.274L2250.46 585.056L2263.33 590.008L2276.18 595.161L2288.96 600.543L2301.63 606.184L2314.14 612.108L2326.43 618.339L2338.45 624.898L2350.16 631.803L2361.51 639.07L2372.44 646.712L2382.91 654.737L2392.89 663.151L2402.32 671.958L2411.18 681.156L2419.43 690.742L2427.03 700.707L2433.98 711.04L2440.25 721.729L2445.83 732.755L2450.7 744.101L2454.88 755.743L2458.36 767.659L2461.14 779.824L2463.26 792.211L2464.72 804.792L2465.54 817.54L2465.76 830.428L2465.41 843.427L2464.51 856.511L2463.11 869.652L2461.25 882.826L2458.96 896.009L2456.29 909.178L2453.28 922.313L2449.97 935.394L2446.41 948.405L2442.64 961.331L2438.69 974.158L2434.61 986.875L2430.44 999.474L2426.22 1011.95L2421.97 1024.29L2417.74 1036.49L2413.56 1048.56L2409.46 1060.48L2405.47 1072.27L2401.61 1083.93L2397.9 1095.45L2394.38 1106.85L2391.05 1118.12L2387.95 1129.28L2385.08 1140.33L2382.47 1151.29L2380.11 1162.15L2378.04 1172.93L2376.25 1183.65L2374.76 1194.3L2373.56 1204.9L2372.68 1215.47L2372.11 1226.01L2371.85 1236.53L2371.83 1239.88Z" fill="url(#paint1_linear_7_15)"/>
<path d="M2371.83 1239.88V1239.88ZM2371.83 1239.88L2371.99 1250.4L2372.46 1260.94L2373.25 1271.49L2374.34 1282.08L2375.74 1292.72L2377.44 1303.41L2379.42 1314.17L2381.69 1325.01L2384.22 1335.93L2387.01 1346.95L2390.04 1358.08L2393.3 1369.32L2396.76 1380.67L2400.41 1392.15L2404.22 1403.77L2408.18 1415.51L2412.25 1427.4L2416.41 1439.42L2420.62 1451.58L2424.86 1463.88L2429.1 1476.31L2433.29 1488.87L2437.4 1501.55L2441.39 1514.34L2445.23 1527.23L2448.86 1540.22L2452.26 1553.28L2455.37 1566.4L2458.15 1579.56L2460.57 1592.74L2462.57 1605.92L2464.12 1619.08L2465.18 1632.18L2465.71 1645.21L2465.68 1658.14L2465.05 1670.93L2463.79 1683.57L2461.89 1696.02L2459.32 1708.26L2456.06 1720.26L2452.11 1731.99L2447.46 1743.43L2442.1 1754.56L2436.05 1765.36L2429.32 1775.81L2421.92 1785.89L2413.87 1795.6L2405.21 1804.92L2395.95 1813.85L2386.15 1822.39L2375.83 1830.54L2365.03 1838.3L2353.82 1845.69L2342.22 1852.71L2330.29 1859.38L2318.08 1865.71L2305.64 1871.73L2293.01 1877.46L2280.26 1882.92L2267.43 1888.14L2254.56 1893.15L2241.7 1897.99L2228.9 1902.67L2216.2 1907.24L2203.64 1911.73L2191.26 1916.18L2179.1 1920.61L2167.18 1925.07L2155.55 1929.6L2144.22 1934.23L2133.24 1938.99L2122.62 1943.95L2112.38 1949.12L2102.56 1954.55L2093.18 1960.29L2084.24 1966.38L2075.78 1972.86L2067.81 1979.79L2060.35 1987.21L2053.39 1995.14L2046.87 2003.56L2040.75 2012.46L2034.99 2021.81L2029.53 2031.6L2024.34 2041.8L2019.37 2052.39L2014.59 2063.35L2009.95 2074.65L2005.42 2086.26L2000.95 2098.15L1996.52 2110.3L1992.07 2122.66L1987.59 2135.21L1983.03 2147.9L1978.35 2160.69L1973.53 2173.55L1968.54 2186.41L1963.33 2199.25L1957.89 2212.01L1952.18 2224.65L1946.19 2237.11L1939.88 2249.34L1933.24 2261.29L1926.25 2272.92L1918.89 2284.17L1911.16 2295L1903.04 2305.36L1894.54 2315.2L1885.64 2324.5L1876.34 2333.22L1866.67 2341.31L1856.61 2348.77L1846.19 2355.55L1835.42 2361.66L1824.32 2367.07L1812.9 2371.78L1801.19 2375.78L1789.21 2379.1L1776.99 2381.72L1764.56 2383.68L1751.93 2384.98L1739.15 2385.66L1726.23 2385.74L1713.21 2385.25L1700.11 2384.24L1686.96 2382.72L1673.78 2380.75L1660.6 2378.37L1647.44 2375.61L1634.31 2372.53L1621.25 2369.16L1608.25 2365.54L1595.35 2361.72L1582.55 2357.74L1569.86 2353.63L1557.29 2349.45L1544.85 2345.21L1532.54 2340.97L1520.37 2336.75L1508.34 2332.59L1496.44 2328.51L1484.69 2324.54L1473.06 2320.72L1461.57 2317.05L1450.2 2313.58L1438.96 2310.3L1427.82 2307.25L1416.8 2304.45L1405.87 2301.89L1395.02 2299.6L1384.26 2297.6L1373.56 2295.88L1362.92 2294.46L1352.32 2293.34L1341.77 2292.53L1331.23 2292.03L1320.71 2291.85L1310.19 2291.98L1299.66 2292.43L1289.1 2293.19L1278.52 2294.26L1267.88 2295.63L1257.2 2297.3L1246.44 2299.27L1235.61 2301.51L1224.69 2304.02L1213.68 2306.79L1202.57 2309.8L1191.34 2313.04L1179.99 2316.49L1168.52 2320.12L1156.92 2323.93L1145.18 2327.87L1133.31 2331.93L1121.3 2336.08L1109.15 2340.3L1096.86 2344.54L1084.44 2348.77L1071.89 2352.97L1059.22 2357.09L1046.44 2361.09L1033.55 2364.94L1020.57 2368.6L1007.52 2372.01L994.401 2375.14L981.243 2377.96L968.063 2380.4L954.883 2382.44L941.726 2384.03L928.616 2385.13L915.581 2385.7L902.645 2385.71L889.838 2385.13L877.187 2383.93L864.719 2382.08L852.463 2379.56L840.445 2376.36L828.69 2372.46L817.224 2367.86L806.068 2362.56L795.243 2356.57L784.766 2349.89L774.653 2342.54L764.915 2334.55L755.562 2325.93L746.599 2316.72L738.029 2306.96L729.849 2296.68L722.056 2285.92L714.641 2274.74L707.593 2263.17L700.899 2251.26L694.539 2239.07L688.496 2226.65L682.745 2214.04L677.263 2201.29L672.022 2188.46L666.994 2175.59L662.148 2162.74L657.452 2149.93L652.874 2137.22L648.38 2124.65L643.933 2112.25L639.499 2100.07L635.041 2088.13L630.522 2076.47L625.903 2065.12L621.146 2054.11L616.212 2043.46L611.059 2033.2L605.647 2023.34L599.933 2013.92L593.874 2004.95L587.422 1996.45L580.532 1988.44L573.154 1980.94L565.265 1973.94L556.881 1967.39L548.021 1961.24L538.704 1955.44L528.951 1949.96L518.783 1944.75L508.222 1939.77L497.293 1934.97L486.021 1930.33L474.434 1925.79L462.56 1921.32L450.433 1916.88L438.084 1912.44L425.551 1907.96L412.871 1903.41L400.085 1898.74L387.235 1893.93L374.365 1888.95L361.522 1883.76L348.753 1878.34L336.106 1872.66L323.633 1866.69L311.382 1860.41L299.405 1853.79L287.751 1846.83L276.468 1839.51L265.605 1831.8L255.207 1823.72L245.316 1815.24L235.971 1806.37L227.21 1797.11L219.063 1787.46L211.558 1777.44L204.718 1767.05L198.559 1756.3L193.094 1745.23L188.329 1733.83L184.265 1722.14L180.898 1710.19L178.217 1697.98L176.209 1685.56L174.853 1672.95L174.126 1660.18L174 1647.28L174.443 1634.26L175.42 1621.17L176.896 1608.02L178.829 1594.84L181.181 1581.66L183.908 1568.49L186.969 1555.37L190.321 1542.3L193.921 1529.3L197.727 1516.39L201.697 1503.58L205.793 1490.88L209.974 1478.3L214.204 1465.85L218.447 1453.53L222.669 1441.35L226.838 1429.3L230.925 1417.4L234.9 1405.63L238.738 1394L242.415 1382.49L245.909 1371.12L249.199 1359.86L252.266 1348.72L255.095 1337.68L257.671 1326.74L259.979 1315.89L262.01 1305.12L263.752 1294.42L265.198 1283.78L266.341 1273.18L267.176 1262.62L267.698 1252.08L267.906 1241.56L267.798 1231.04L267.376 1220.51L266.64 1209.96L265.595 1199.37L264.245 1188.74L262.596 1178.06L260.657 1167.31L258.435 1156.49L255.944 1145.58L253.194 1134.57L250.201 1123.47L246.98 1112.25L243.549 1100.91L239.928 1089.45L236.139 1077.86L232.204 1066.13L228.15 1054.27L224.004 1042.27L219.796 1030.13L215.556 1017.86L211.318 1005.45L207.117 992.91L202.99 980.249L198.976 967.473L195.113 954.593L191.443 941.62L188.007 928.571L184.849 915.459L182.011 902.304L179.535 889.125L177.464 875.944L175.838 862.784L174.698 849.669L174.081 836.627L174.022 823.683L174.555 810.864L175.707 798.199L177.506 785.716L179.97 773.442L183.117 761.404L186.959 749.628L191.5 738.138L196.743 726.956L202.682 716.104L209.306 705.599L216.602 695.456L224.547 685.688L233.116 676.304L242.278 667.31L251.999 658.708L262.24 650.498L272.96 642.674L284.114 635.229L295.655 628.153L307.535 621.431L319.704 615.046L332.112 608.978L344.709 603.205L357.444 597.702L370.269 592.443L383.135 587.399L395.997 582.539L408.808 577.833L421.526 573.247L434.11 568.747L446.521 564.298L458.723 559.864L470.681 555.41L482.363 550.897L493.739 546.287L504.78 541.543L515.461 536.624L525.756 531.49L535.644 526.1L545.102 520.412L554.11 514.381L562.647 507.963L570.696 501.11L578.237 493.772L585.278 485.923L591.863 477.578L598.043 468.755L603.862 459.474L609.365 449.755L614.596 439.619L619.596 429.089L624.405 418.188L629.063 406.942L633.61 395.379L638.084 383.527L642.521 371.418L646.96 359.086L651.435 346.566L655.983 333.897L660.638 321.118L665.432 308.271L670.399 295.401L675.569 282.554L680.971 269.777L686.634 257.119L692.581 244.63L698.837 232.36L705.423 220.359L712.357 208.677L719.653 197.363L727.325 186.465L735.381 176.028L743.827 166.095L752.665 156.706L761.894 147.897L771.51 139.7L781.505 132.143L791.867 125.249L802.583 119.036L813.636 113.515L825.006 108.694L836.671 104.575L848.608 101.152L860.791 98.4175L873.194 96.3563L885.79 94.9494L898.55 94.1731L911.448 94L924.455 94.3988L937.544 95.3351L950.689 96.7722L963.864 98.671L977.047 100.991L990.214 103.69L1003.34 106.726L1016.42 110.056L1029.43 113.638L1042.34 117.428L1055.16 121.388L1067.87 125.474L1080.46 129.65L1092.92 133.878L1105.25 138.121L1117.44 142.346L1129.5 146.52L1141.42 150.614L1153.19 154.599L1164.84 158.45L1176.35 162.14L1187.74 165.649L1199 168.956L1210.15 172.042L1221.2 174.891L1232.14 177.487L1243 179.817L1253.78 181.87L1264.49 183.635L1275.13 185.105L1285.73 186.273L1296.3 187.132L1306.84 187.679L1317.36 187.912L1327.88 187.83L1338.41 187.433L1348.96 186.722L1359.54 185.701L1370.16 184.375L1380.84 182.75L1391.58 180.833L1402.4 178.634L1413.3 176.163L1424.3 173.434L1435.4 170.459L1446.61 167.256L1457.94 163.841L1469.39 160.234L1480.97 156.457L1492.68 152.534L1504.53 148.488L1516.52 144.349L1528.65 140.144L1540.91 135.905L1553.31 131.666L1565.84 127.461L1578.49 123.327L1591.26 119.302L1604.13 115.425L1617.1 111.738L1630.14 108.283L1643.25 105.101L1656.4 102.236L1669.58 99.7294L1682.76 97.6243L1695.92 95.9617L1709.04 94.7813L1722.09 94.1212L1735.05 94.017L1747.88 94.5014L1760.55 95.6038L1773.05 97.3497L1785.34 99.7605L1797.4 102.853L1809.2 106.639L1820.71 111.124L1831.92 116.311L1842.8 122.195L1853.33 128.766L1863.5 136.008L1873.3 143.902L1882.72 152.423L1891.74 161.539L1900.38 171.217L1908.62 181.418L1916.47 192.102L1923.95 203.223L1931.05 214.735L1937.8 226.589L1944.21 238.737L1950.31 251.128L1956.1 263.711L1961.62 276.438L1966.9 289.257L1971.96 302.122L1976.83 314.985L1981.55 327.802L1986.15 340.529L1990.65 353.125L1995.1 365.552L1999.54 377.772L2003.99 389.75L2008.5 401.455L2013.1 412.856L2017.83 423.925L2022.73 434.635L2027.85 444.963L2033.22 454.884L2038.88 464.377L2044.88 473.421L2051.27 481.997L2058.08 490.085L2065.38 497.667L2073.19 504.746L2081.49 511.366L2090.28 517.576L2099.53 523.422L2109.21 528.949L2119.31 534.2L2129.81 539.217L2140.69 544.039L2151.91 548.708L2163.44 553.263L2175.27 557.741L2187.36 562.18L2199.68 566.617L2212.19 571.088L2224.84 575.629L2237.62 580.274L2250.46 585.056L2263.33 590.008L2276.18 595.161L2288.96 600.543L2301.63 606.184L2314.14 612.108L2326.43 618.339L2338.45 624.898L2350.16 631.803L2361.51 639.07L2372.44 646.712L2382.91 654.737L2392.89 663.151L2402.32 671.958L2411.18 681.156L2419.43 690.742L2427.03 700.707L2433.98 711.04L2440.25 721.729L2445.83 732.755L2450.7 744.101L2454.88 755.743L2458.36 767.659L2461.14 779.824L2463.26 792.21L2464.72 804.792L2465.54 817.54L2465.76 830.428L2465.41 843.427L2464.51 856.511L2463.11 869.652L2461.25 882.826L2458.96 896.009L2456.29 909.178L2453.28 922.313L2449.97 935.394L2446.41 948.405L2442.64 961.331L2438.69 974.158L2434.61 986.875L2430.44 999.474L2426.22 1011.95L2421.97 1024.29L2417.74 1036.49L2413.56 1048.56L2409.46 1060.48L2405.47 1072.27L2401.61 1083.93L2397.9 1095.45L2394.38 1106.85L2391.05 1118.12L2387.95 1129.28L2385.08 1140.33L2382.47 1151.29L2380.11 1162.15L2378.04 1172.93L2376.25 1183.65L2374.76 1194.3L2373.56 1204.9L2372.68 1215.47L2372.11 1226.01L2371.85 1236.53L2371.83 1239.88Z" stroke="#DC6969" stroke-width="186.518"/>
<path d="M554 414C565.202 364.713 703.501 331.488 747.636 330C793.427 328.456 839.534 330 885.364 330C999.838 330 1107.56 354 1222.86 354C1375.91 354 1527.6 367.124 1670.82 312.667C1718.65 294.477 1770.5 296.191 1811.95 264.666C1830.51 250.552 1881.17 234 1904 234" stroke="#F4C542" stroke-width="20" stroke-linecap="round"/>
<path d="M474 546.166C554.316 546.166 626.684 567.534 706.05 570.195C761.391 572.05 794.596 616.858 844.732 618.251C903.794 619.891 957.742 642.279 1020.49 642.279C1096.92 642.279 1177.9 649.095 1253.22 635.605C1417.55 606.175 1563.69 575.99 1714.58 510.792C1807.81 470.505 1893.75 474.082 1994 474.082" stroke="#F4C542" stroke-width="20" stroke-linecap="round"/>
<path d="M194 954C238.275 928.676 278.293 893.922 322.804 869.803C376.791 840.549 441.865 832.64 499.094 812.766C581.18 784.259 685.839 793.796 770.948 795.111C920.423 797.422 1078.4 842.08 1223.25 880.667C1342.39 912.408 1448.3 951.954 1572.26 939.062C1647.95 931.191 1732.08 936.127 1796.63 883.383C1832.22 854.305 1882.51 822.156 1924.84 810.05C2009.67 785.79 2084.88 734.26 2149.21 660.667C2175.62 630.461 2183.66 624 2224 624" stroke="#F4C542" stroke-width="20" stroke-linecap="round"/>
<path d="M194 1134C504.876 1042.66 828.443 984 1161.43 984C1321.77 984 1494.73 1036.31 1651.08 1063.48C1703.18 1072.53 1754.61 1083.2 1806.15 1091.46C1904.22 1107.18 2064.62 1107.32 2162.39 1088.66C2219.21 1077.82 2286.97 1053.4 2344 1053.4" stroke="#F4C542" stroke-width="20" stroke-linecap="round"/>
<path d="M154 1395.57C182.712 1395.57 213.77 1392.32 242.296 1396.24C277.622 1401.09 307.267 1427.44 343.205 1431.28C396.551 1436.98 453.531 1431.95 507.182 1431.95C596.607 1431.95 665.58 1434.97 747.542 1395.57C859.289 1341.85 996.79 1312.74 1114.04 1268.9C1213.96 1231.53 1353.57 1273.73 1450.4 1294.5C1539.95 1313.71 1645.52 1318.58 1731.41 1347.73C1793.89 1368.93 1848.85 1383.44 1915 1383.44C2001.16 1383.44 2131.98 1406.75 2210.02 1371.31C2255.03 1350.88 2342.4 1328.93 2374 1298.54" stroke="#F4C542" stroke-width="20" stroke-linecap="round"/>
<path d="M124 1664C244.241 1658.39 373.665 1623.11 493.503 1605.21C583.776 1591.73 664.253 1569.94 756.633 1569.94C852.885 1569.94 963.904 1583.7 1056.85 1558.18C1178.54 1524.77 1330.24 1460.87 1459.25 1464.12C1554.62 1466.53 1641.13 1506.01 1730.78 1529.44C1771.76 1540.15 1804.92 1562.96 1844.15 1575.16C1886.05 1588.2 1931.45 1590.59 1972.91 1605.21C2116.49 1655.84 2253.06 1652.24 2404 1652.24" stroke="#F4C542" stroke-width="20" stroke-linecap="round"/>
<path d="M473.997 1953.18C535.921 1897.45 627.147 1886.78 704.754 1863C755.617 1847.41 803.821 1825.28 855.94 1812.6C898.738 1802.19 958.937 1806.84 1001.82 1812.6C1135.86 1830.61 1270.24 1853.36 1403.66 1875.6C1564.45 1902.4 1719.6 1929.31 1882.41 1929.31C1920.87 1929.31 1959.33 1929.31 1997.79 1929.31C2057.2 1929.31 2110.16 1905.44 2168.87 1905.44" stroke="#F4C542" stroke-width="20" stroke-linecap="round"/>
<path fill-rule="evenodd" clip-rule="evenodd" d="M2291.83 1239.88L2291.99 1250.4L2292.46 1260.94L2293.25 1271.49L2294.34 1282.08L2295.74 1292.72L2297.44 1303.41L2299.42 1314.17L2301.69 1325.01L2304.22 1335.93L2307.01 1346.95L2310.04 1358.08L2313.3 1369.32L2316.76 1380.67L2320.41 1392.15L2324.22 1403.77L2328.18 1415.51L2332.25 1427.4L2336.41 1439.42L2340.62 1451.58L2344.86 1463.88L2349.1 1476.31L2353.29 1488.87L2357.4 1501.55L2361.39 1514.34L2365.23 1527.23L2368.87 1540.22L2372.26 1553.28L2375.37 1566.4L2378.15 1579.56L2380.57 1592.74L2382.57 1605.92L2384.12 1619.08L2385.18 1632.18L2385.71 1645.21L2385.68 1658.14L2385.05 1670.93L2383.79 1683.57L2381.89 1696.02L2379.32 1708.26L2376.06 1720.26L2372.11 1731.99L2367.46 1743.43L2362.1 1754.56L2356.05 1765.36L2349.32 1775.81L2341.92 1785.89L2333.87 1795.6L2325.21 1804.92L2315.95 1813.85L2306.15 1822.39L2295.83 1830.54L2285.04 1838.3L2273.82 1845.69L2262.22 1852.71L2250.29 1859.38L2238.08 1865.71L2225.64 1871.73L2213.01 1877.46L2200.26 1882.92L2187.43 1888.14L2174.56 1893.15L2161.7 1897.99L2148.9 1902.67L2136.2 1907.24L2123.64 1911.73L2111.26 1916.18L2099.1 1920.61L2087.18 1925.07L2075.55 1929.6L2064.22 1934.23L2053.24 1938.99L2042.62 1943.95L2032.39 1949.12L2022.56 1954.55L2013.18 1960.29L2004.24 1966.38L1995.78 1972.86L1987.81 1979.79L1980.35 1987.21L1973.39 1995.14L1966.87 2003.56L1960.75 2012.46L1954.99 2021.81L1949.53 2031.6L1944.34 2041.8L1939.37 2052.39L1934.59 2063.35L1929.95 2074.65L1925.42 2086.26L1920.95 2098.15L1916.52 2110.3L1912.07 2122.66L1907.59 2135.21L1903.03 2147.9L1898.35 2160.69L1893.53 2173.55L1888.54 2186.41L1883.33 2199.25L1877.89 2212.01L1872.18 2224.65L1866.19 2237.11L1859.88 2249.34L1853.24 2261.29L1846.25 2272.92L1838.89 2284.17L1831.16 2295L1823.04 2305.36L1814.54 2315.2L1805.64 2324.5L1796.34 2333.22L1786.67 2341.31L1776.61 2348.77L1766.19 2355.55L1755.42 2361.66L1744.32 2367.07L1732.9 2371.78L1721.19 2375.78L1709.21 2379.1L1696.99 2381.72L1684.56 2383.68L1671.93 2384.98L1659.15 2385.66L1646.23 2385.74L1633.21 2385.25L1620.11 2384.24L1606.96 2382.72L1593.78 2380.75L1580.6 2378.37L1567.44 2375.61L1554.31 2372.53L1541.25 2369.16L1528.25 2365.54L1515.35 2361.72L1502.55 2357.74L1489.86 2353.63L1477.29 2349.45L1464.85 2345.21L1452.54 2340.97L1440.37 2336.75L1428.34 2332.59L1416.44 2328.51L1404.69 2324.54L1393.06 2320.72L1381.57 2317.06L1370.2 2313.58L1358.96 2310.3L1347.83 2307.25L1336.8 2304.45L1325.87 2301.89L1315.02 2299.6L1304.26 2297.6L1293.56 2295.88L1282.92 2294.46L1272.32 2293.34L1261.77 2292.53L1251.23 2292.03L1240.71 2291.85L1230.19 2291.98L1219.66 2292.43L1209.1 2293.19L1198.52 2294.26L1187.88 2295.63L1177.2 2297.3L1166.44 2299.27L1155.61 2301.51L1144.69 2304.02L1133.68 2306.79L1122.57 2309.8L1111.34 2313.04L1099.99 2316.49L1088.52 2320.12L1076.92 2323.93L1065.18 2327.87L1053.31 2331.93L1041.3 2336.08L1029.15 2340.3L1016.86 2344.54L1004.44 2348.77L991.895 2352.97L979.224 2357.09L966.439 2361.09L953.552 2364.94L940.573 2368.6L927.517 2372.01L914.402 2375.14L901.244 2377.96L888.064 2380.4L874.883 2382.44L861.726 2384.03L848.617 2385.13L835.581 2385.7L822.645 2385.71L809.838 2385.13L797.187 2383.93L784.719 2382.08L772.463 2379.56L760.445 2376.36L748.691 2372.46L737.224 2367.86L726.068 2362.56L715.243 2356.57L704.766 2349.89L694.653 2342.54L684.916 2334.55L675.563 2325.93L666.6 2316.72L658.029 2306.96L649.849 2296.68L642.056 2285.92L634.641 2274.74L627.593 2263.17L620.899 2251.26L614.54 2239.07L608.496 2226.65L602.746 2214.04L597.263 2201.29L592.023 2188.46L586.994 2175.59L582.148 2162.74L577.453 2149.93L572.875 2137.22L568.38 2124.65L563.933 2112.25L559.5 2100.07L555.042 2088.13L550.522 2076.47L545.903 2065.12L541.147 2054.11L536.212 2043.46L531.059 2033.2L525.647 2023.34L519.934 2013.92L513.874 2004.95L507.423 1996.45L500.533 1988.44L493.154 1980.94L485.265 1973.94L476.881 1967.39L468.021 1961.24L458.705 1955.44L448.952 1949.96L438.783 1944.75L428.223 1939.77L417.293 1934.97L406.021 1930.33L394.434 1925.79L382.56 1921.32L370.433 1916.88L358.084 1912.44L345.551 1907.96L332.871 1903.41L320.085 1898.74L307.235 1893.93L294.365 1888.95L281.522 1883.77L268.753 1878.34L256.107 1872.66L243.633 1866.69L231.383 1860.41L219.405 1853.79L207.751 1846.83L196.469 1839.51L185.605 1831.8L175.207 1823.72L165.316 1815.24L155.972 1806.37L147.21 1797.11L139.063 1787.46L131.559 1777.44L124.718 1767.05L118.56 1756.3L113.094 1745.23L108.329 1733.83L104.265 1722.14L100.898 1710.19L98.2177 1697.98L96.2093 1685.56L94.8535 1672.95L94.1264 1660.18L94 1647.28L94.4429 1634.26L95.4205 1621.17L96.8958 1608.02L98.8296 1594.84L101.181 1581.66L103.909 1568.49L106.97 1555.37L110.321 1542.3L113.921 1529.3L117.727 1516.39L121.698 1503.58L125.793 1490.88L129.974 1478.3L134.204 1465.85L138.447 1453.53L142.669 1441.35L146.838 1429.3L150.925 1417.4L154.9 1405.63L158.738 1394L162.415 1382.49L165.909 1371.12L169.199 1359.86L172.267 1348.72L175.095 1337.68L177.671 1326.74L179.979 1315.89L182.01 1305.12L183.752 1294.42L185.198 1283.78L186.341 1273.18L187.176 1262.62L187.698 1252.08L187.906 1241.56L187.799 1231.04L187.376 1220.51L186.641 1209.96L185.595 1199.37L184.245 1188.74L182.596 1178.06L180.657 1167.31L178.436 1156.49L175.944 1145.58L173.194 1134.57L170.201 1123.47L166.98 1112.25L163.549 1100.91L159.928 1089.45L156.139 1077.86L152.204 1066.13L148.15 1054.27L144.004 1042.27L139.796 1030.13L135.556 1017.86L131.318 1005.45L127.117 992.91L122.99 980.249L118.976 967.473L115.113 954.593L111.443 941.62L108.008 928.571L104.85 915.459L102.011 902.304L99.5353 889.125L97.4639 875.944L95.8382 862.784L94.698 849.669L94.0809 836.627L94.0224 823.683L94.555 810.864L95.7077 798.199L97.5059 785.716L99.9704 773.442L103.118 761.404L106.959 749.628L111.501 738.138L116.743 726.956L122.682 716.104L129.307 705.599L136.602 695.456L144.547 685.688L153.116 676.304L162.278 667.31L171.999 658.708L182.241 650.498L192.961 642.674L204.114 635.229L215.656 628.153L227.535 621.431L239.704 615.046L252.112 608.978L264.709 603.205L277.444 597.702L290.269 592.443L303.136 587.399L315.997 582.539L328.808 577.833L341.526 573.247L354.11 568.747L366.522 564.298L378.723 559.864L390.681 555.41L402.363 550.897L413.739 546.287L424.78 541.543L435.461 536.624L445.757 531.49L455.644 526.1L465.102 520.412L474.11 514.381L482.648 507.963L490.696 501.11L498.238 493.772L505.278 485.923L511.864 477.578L518.043 468.755L523.862 459.474L529.366 449.755L534.596 439.619L539.596 429.089L544.405 418.188L549.064 406.942L553.61 395.379L558.084 383.527L562.521 371.418L566.96 359.086L571.435 346.566L575.983 333.897L580.638 321.118L585.432 308.271L590.399 295.401L595.569 282.554L600.972 269.777L606.634 257.119L612.581 244.63L618.838 232.36L625.423 220.359L632.357 208.677L639.653 197.363L647.325 186.465L655.381 176.028L663.827 166.095L672.665 156.706L681.894 147.897L691.51 139.7L701.505 132.143L711.867 125.249L722.583 119.036L733.636 113.515L745.006 108.694L756.671 104.575L768.608 101.152L780.791 98.4175L793.194 96.3563L805.79 94.9494L818.551 94.1731L831.448 94L844.455 94.3988L857.544 95.3351L870.689 96.7722L883.864 98.671L897.047 100.991L910.214 103.69L923.345 106.726L936.422 110.056L949.427 113.638L962.345 117.428L975.164 121.388L987.872 125.474L1000.46 129.65L1012.92 133.878L1025.25 138.121L1037.44 142.346L1049.5 146.52L1061.42 150.614L1073.19 154.599L1084.84 158.45L1096.35 162.14L1107.74 165.649L1119 168.956L1130.15 172.042L1141.2 174.891L1152.14 177.487L1163 179.817L1173.78 181.87L1184.49 183.635L1195.13 185.105L1205.73 186.273L1216.3 187.132L1226.84 187.679L1237.36 187.912L1247.88 187.83L1258.41 187.433L1268.96 186.722L1279.54 185.701L1290.16 184.375L1300.84 182.75L1311.58 180.833L1322.4 178.634L1333.3 176.163L1344.3 173.434L1355.4 170.459L1366.61 167.256L1377.94 163.841L1389.39 160.234L1400.97 156.457L1412.68 152.534L1424.53 148.488L1436.52 144.349L1448.65 140.144L1460.92 135.905L1473.31 131.666L1485.84 127.461L1498.49 123.327L1511.26 119.302L1524.13 115.425L1537.1 111.738L1550.14 108.283L1563.25 105.101L1576.4 102.236L1589.58 99.7294L1602.76 97.6243L1615.93 95.9617L1629.04 94.7813L1642.09 94.1212L1655.05 94.017L1667.88 94.5014L1680.55 95.6038L1693.05 97.3497L1705.34 99.7605L1717.4 102.853L1729.2 106.639L1740.71 111.124L1751.92 116.311L1762.8 122.195L1773.33 128.766L1783.51 136.008L1793.3 143.902L1802.72 152.423L1811.74 161.539L1820.38 171.217L1828.62 181.418L1836.47 192.102L1843.95 203.223L1851.05 214.735L1857.8 226.589L1864.21 238.737L1870.31 251.128L1876.1 263.711L1881.62 276.438L1886.9 289.257L1891.96 302.122L1896.84 314.985L1901.55 327.802L1906.15 340.529L1910.65 353.125L1915.1 365.552L1919.54 377.772L1923.99 389.75L1928.5 401.455L1933.1 412.856L1937.83 423.925L1942.73 434.635L1947.85 444.963L1953.22 454.884L1958.88 464.377L1964.88 473.421L1971.27 481.997L1978.08 490.085L1985.38 497.667L1993.19 504.746L2001.5 511.366L2010.28 517.576L2019.53 523.422L2029.21 528.949L2039.31 534.2L2049.81 539.217L2060.69 544.039L2071.91 548.709L2083.45 553.263L2095.27 557.741L2107.36 562.18L2119.68 566.617L2132.19 571.088L2144.85 575.629L2157.62 580.274L2170.46 585.056L2183.33 590.008L2196.18 595.161L2208.96 600.543L2221.63 606.184L2234.14 612.108L2246.43 618.339L2258.45 624.898L2270.16 631.803L2281.51 639.07L2292.44 646.712L2302.91 654.737L2312.89 663.151L2322.32 671.958L2331.18 681.156L2339.43 690.742L2347.03 700.707L2353.98 711.04L2360.25 721.729L2365.83 732.755L2370.7 744.101L2374.88 755.743L2378.36 767.659L2381.15 779.824L2383.26 792.211L2384.72 804.792L2385.54 817.54L2385.76 830.428L2385.41 843.427L2384.51 856.511L2383.11 869.652L2381.25 882.826L2378.96 896.009L2376.29 909.178L2373.28 922.313L2369.97 935.394L2366.41 948.405L2362.64 961.331L2358.69 974.158L2354.61 986.875L2350.44 999.474L2346.22 1011.95L2341.97 1024.29L2337.74 1036.49L2333.56 1048.56L2329.46 1060.48L2325.47 1072.27L2321.61 1083.93L2317.9 1095.45L2314.38 1106.85L2311.05 1118.12L2307.95 1129.28L2305.08 1140.33L2302.47 1151.29L2300.11 1162.15L2298.04 1172.93L2296.25 1183.65L2294.76 1194.3L2293.56 1204.9L2292.68 1215.47L2292.11 1226.01L2291.85 1236.53L2291.83 1239.88Z" stroke="#E989C2" stroke-width="186.518"/>
<defs>
<linearGradient id="paint0_linear_7_15" x1="1321.53" y1="129.562" x2="1250.55" y2="2420.2" gradientUnits="userSpaceOnUse">
<stop stop-color="#2B384F"/>
<stop offset="1" stop-color="#428F1A"/>
</linearGradient>
<linearGradient id="paint1_linear_7_15" x1="1321.53" y1="129.562" x2="1250.55" y2="2420.2" gradientUnits="userSpaceOnUse">
<stop stop-color="#2B384F"/>
<stop offset="1" stop-color="#428F1A"/>
</linearGradient>
</defs>
</svg>
