<svg width="2627" height="3040" viewBox="0 0 2627 3040" fill="none" xmlns="http://www.w3.org/2000/svg">
<path d="M162.598 2813.15L15.8691 2625.41H110.596L211.914 2756.76L313.721 2625.41H406.982L257.568 2812.42L412.109 3007H317.139L208.496 2869.79L97.4121 3007H3.90625L162.598 2813.15ZM470.215 2625.41H671.387C700.684 2625.41 726.074 2628.58 747.559 2634.93C769.043 2641.28 786.865 2650.47 801.025 2662.52C815.186 2674.4 825.684 2688.97 832.52 2706.22C839.518 2723.47 843.018 2742.92 843.018 2764.57C843.018 2784.91 839.6 2803.71 832.764 2820.96C825.928 2838.22 815.43 2853.19 801.27 2865.89C787.272 2878.42 769.531 2888.27 748.047 2895.43C726.562 2902.43 701.172 2905.93 671.875 2905.93L547.607 2905.68V3007H470.215V2625.41ZM673.34 2838.79C687.988 2838.79 700.765 2837.08 711.67 2833.66C722.738 2830.08 731.934 2825.12 739.258 2818.77C746.745 2812.26 752.279 2804.44 755.859 2795.33C759.603 2786.05 761.475 2775.8 761.475 2764.57C761.475 2741.94 754.069 2724.37 739.258 2711.83C724.609 2699.14 702.637 2692.79 673.34 2692.79H547.607V2838.79H673.34ZM927.734 2625.41H1005.13V2939.13H1227.05V3007H927.734V2625.41ZM1279.79 2815.11C1279.79 2786.3 1285.07 2759.93 1295.65 2736C1306.23 2712.08 1321.04 2691.57 1340.09 2674.48C1359.29 2657.23 1382.24 2643.88 1408.94 2634.44C1435.79 2625 1465.49 2620.28 1498.05 2620.28C1530.44 2620.28 1560.06 2625 1586.91 2634.44C1613.77 2643.88 1636.72 2657.23 1655.76 2674.48C1674.97 2691.57 1689.86 2712.08 1700.44 2736C1711.02 2759.93 1716.31 2786.3 1716.31 2815.11C1716.31 2844.08 1711.02 2870.69 1700.44 2894.94C1689.86 2919.03 1674.97 2939.78 1655.76 2957.2C1636.72 2974.61 1613.77 2988.2 1586.91 2997.97C1560.06 3007.57 1530.44 3012.37 1498.05 3012.37C1465.49 3012.37 1435.79 3007.57 1408.94 2997.97C1382.24 2988.2 1359.29 2974.61 1340.09 2957.2C1321.04 2939.78 1306.23 2919.03 1295.65 2894.94C1285.07 2870.69 1279.79 2844.08 1279.79 2815.11ZM1357.18 2815.11C1357.18 2834.8 1360.68 2852.54 1367.68 2868.33C1374.84 2884.12 1384.68 2897.62 1397.22 2908.86C1409.91 2919.92 1424.8 2928.47 1441.89 2934.49C1459.15 2940.51 1477.86 2943.52 1498.05 2943.52C1518.23 2943.52 1536.87 2940.51 1553.96 2934.49C1571.21 2928.47 1586.1 2919.92 1598.63 2908.86C1611.17 2897.62 1621.01 2884.12 1628.17 2868.33C1635.34 2852.54 1638.92 2834.8 1638.92 2815.11C1638.92 2795.41 1635.34 2777.75 1628.17 2762.13C1621.01 2746.5 1611.17 2733.32 1598.63 2722.58C1586.1 2711.67 1571.21 2703.37 1553.96 2697.67C1536.87 2691.98 1518.23 2689.13 1498.05 2689.13C1477.86 2689.13 1459.15 2691.98 1441.89 2697.67C1424.8 2703.37 1409.91 2711.67 1397.22 2722.58C1384.68 2733.32 1374.84 2746.5 1367.68 2762.13C1360.68 2777.75 1357.18 2795.41 1357.18 2815.11ZM1802.25 2625.41H1996.34C2025.63 2625.41 2051.03 2628.5 2072.51 2634.69C2093.99 2640.71 2111.82 2649.5 2125.98 2661.05C2140.14 2672.61 2150.63 2686.69 2157.47 2703.29C2164.47 2719.89 2167.97 2738.69 2167.97 2759.69C2167.97 2773.85 2166.26 2787.35 2162.84 2800.21C2159.42 2812.91 2154.13 2824.63 2146.97 2835.37C2139.97 2846.11 2131.1 2855.71 2120.36 2864.18C2109.62 2872.48 2097.01 2879.4 2082.52 2884.93L2165.53 3007H2070.8L1999.02 2898.6H1996.83L1879.64 2898.36V3007H1802.25V2625.41ZM1998.29 2831.46C2012.94 2831.46 2025.72 2829.75 2036.62 2826.34C2047.69 2822.92 2056.88 2818.12 2064.21 2811.93C2071.7 2805.75 2077.23 2798.26 2080.81 2789.47C2084.55 2780.52 2086.43 2770.59 2086.43 2759.69C2086.43 2738.36 2079.1 2721.93 2064.45 2710.37C2049.8 2698.65 2027.75 2692.79 1998.29 2692.79H1879.64V2831.46H1998.29ZM2259.77 2625.41H2584.72V2693.28H2337.16V2769.45H2556.4V2833.17H2337.16V2939.37H2589.84V3007H2259.77V2625.41Z" fill="white"/>
<path fill-rule="evenodd" clip-rule="evenodd" d="M2405.83 1239.88V1239.88L2405.99 1250.4L2406.46 1260.94L2407.25 1271.49L2408.34 1282.08L2409.74 1292.72L2411.44 1303.41L2413.42 1314.17L2415.69 1325.01L2418.22 1335.93L2421.01 1346.95L2424.04 1358.08L2427.3 1369.32L2430.76 1380.67L2434.41 1392.15L2438.22 1403.77L2442.18 1415.51L2446.25 1427.4L2450.41 1439.42L2454.62 1451.58L2458.86 1463.88L2463.1 1476.31L2467.29 1488.87L2471.4 1501.55L2475.39 1514.34L2479.23 1527.23L2482.86 1540.22L2486.26 1553.28L2489.37 1566.4L2492.15 1579.56L2494.57 1592.74L2496.57 1605.92L2498.12 1619.08L2499.18 1632.18L2499.71 1645.21L2499.68 1658.14L2499.05 1670.93L2497.79 1683.57L2495.89 1696.02L2493.32 1708.26L2490.06 1720.26L2486.11 1731.99L2481.46 1743.43L2476.1 1754.56L2470.05 1765.36L2463.32 1775.81L2455.92 1785.89L2447.87 1795.6L2439.21 1804.92L2429.95 1813.85L2420.15 1822.39L2409.83 1830.54L2399.03 1838.3L2387.82 1845.69L2376.22 1852.71L2364.29 1859.38L2352.08 1865.71L2339.64 1871.73L2327.01 1877.46L2314.26 1882.92L2301.43 1888.14L2288.56 1893.15L2275.7 1897.99L2262.9 1902.67L2250.2 1907.24L2237.64 1911.73L2225.26 1916.18L2213.1 1920.61L2201.18 1925.07L2189.55 1929.6L2178.22 1934.23L2167.24 1938.99L2156.62 1943.95L2146.38 1949.12L2136.56 1954.55L2127.18 1960.29L2118.24 1966.38L2109.78 1972.86L2101.81 1979.79L2094.35 1987.21L2087.39 1995.14L2080.87 2003.56L2074.75 2012.46L2068.99 2021.81L2063.53 2031.6L2058.34 2041.8L2053.37 2052.39L2048.59 2063.35L2043.95 2074.65L2039.42 2086.26L2034.95 2098.15L2030.52 2110.3L2026.07 2122.66L2021.59 2135.21L2017.03 2147.9L2012.35 2160.69L2007.53 2173.55L2002.54 2186.41L1997.33 2199.25L1991.89 2212.01L1986.18 2224.65L1980.19 2237.11L1973.88 2249.34L1967.24 2261.29L1960.25 2272.92L1952.89 2284.17L1945.16 2295L1937.04 2305.36L1928.54 2315.2L1919.64 2324.5L1910.34 2333.22L1900.67 2341.31L1890.61 2348.77L1880.19 2355.55L1869.42 2361.66L1858.32 2367.07L1846.9 2371.78L1835.19 2375.78L1823.21 2379.1L1810.99 2381.72L1798.56 2383.68L1785.93 2384.98L1773.15 2385.66L1760.23 2385.74L1747.21 2385.25L1734.11 2384.24L1720.96 2382.72L1707.78 2380.75L1694.6 2378.37L1681.44 2375.61L1668.31 2372.53L1655.25 2369.16L1642.25 2365.54L1629.35 2361.72L1616.55 2357.74L1603.86 2353.63L1591.29 2349.45L1578.85 2345.21L1566.54 2340.97L1554.37 2336.75L1542.34 2332.59L1530.44 2328.51L1518.69 2324.54L1507.06 2320.72L1495.57 2317.05L1484.2 2313.58L1472.96 2310.3L1461.82 2307.25L1450.8 2304.45L1439.87 2301.89L1429.02 2299.6L1418.26 2297.6L1407.56 2295.88L1396.92 2294.46L1386.32 2293.34L1375.77 2292.53L1365.23 2292.03L1354.71 2291.85L1344.19 2291.98L1333.66 2292.43L1323.1 2293.19L1312.52 2294.26L1301.88 2295.63L1291.2 2297.3L1280.44 2299.27L1269.61 2301.51L1258.69 2304.02L1247.68 2306.79L1236.57 2309.8L1225.34 2313.04L1213.99 2316.49L1202.52 2320.12L1190.92 2323.93L1179.18 2327.87L1167.31 2331.93L1155.3 2336.08L1143.15 2340.3L1130.86 2344.54L1118.44 2348.77L1105.89 2352.97L1093.22 2357.09L1080.44 2361.09L1067.55 2364.94L1054.57 2368.6L1041.52 2372.01L1028.4 2375.14L1015.24 2377.96L1002.06 2380.4L988.883 2382.44L975.726 2384.03L962.616 2385.13L949.581 2385.7L936.645 2385.71L923.838 2385.13L911.187 2383.93L898.719 2382.08L886.463 2379.56L874.445 2376.36L862.69 2372.46L851.224 2367.86L840.068 2362.56L829.243 2356.57L818.766 2349.89L808.653 2342.54L798.915 2334.55L789.562 2325.93L780.599 2316.72L772.029 2306.96L763.849 2296.68L756.056 2285.92L748.641 2274.74L741.593 2263.17L734.899 2251.26L728.539 2239.07L722.496 2226.65L716.745 2214.04L711.263 2201.29L706.022 2188.46L700.994 2175.59L696.148 2162.74L691.452 2149.93L686.874 2137.22L682.38 2124.65L677.933 2112.25L673.499 2100.07L669.041 2088.13L664.522 2076.47L659.903 2065.12L655.146 2054.11L650.212 2043.46L645.059 2033.2L639.647 2023.34L633.933 2013.92L627.874 2004.95L621.422 1996.45L614.532 1988.44L607.154 1980.94L599.265 1973.94L590.881 1967.39L582.021 1961.24L572.704 1955.44L562.951 1949.96L552.783 1944.75L542.222 1939.77L531.293 1934.97L520.021 1930.33L508.434 1925.79L496.56 1921.32L484.433 1916.88L472.084 1912.44L459.551 1907.96L446.871 1903.41L434.085 1898.74L421.235 1893.93L408.365 1888.95L395.522 1883.76L382.753 1878.34L370.106 1872.66L357.633 1866.69L345.382 1860.41L333.405 1853.79L321.751 1846.83L310.468 1839.51L299.605 1831.8L289.207 1823.72L279.316 1815.24L269.971 1806.37L261.21 1797.11L253.063 1787.46L245.558 1777.44L238.718 1767.05L232.559 1756.3L227.094 1745.23L222.329 1733.83L218.265 1722.14L214.898 1710.19L212.217 1697.98L210.209 1685.56L208.853 1672.95L208.126 1660.18L208 1647.28L208.443 1634.26L209.42 1621.17L210.896 1608.02L212.829 1594.84L215.181 1581.66L217.908 1568.49L220.969 1555.37L224.321 1542.3L227.921 1529.3L231.727 1516.39L235.697 1503.58L239.793 1490.88L243.974 1478.3L248.204 1465.85L252.447 1453.53L256.669 1441.35L260.838 1429.3L264.925 1417.4L268.9 1405.63L272.738 1394L276.415 1382.49L279.909 1371.12L283.199 1359.86L286.266 1348.72L289.095 1337.68L291.671 1326.74L293.979 1315.89L296.01 1305.12L297.752 1294.42L299.198 1283.78L300.341 1273.18L301.176 1262.62L301.698 1252.08L301.906 1241.56L301.798 1231.04L301.376 1220.51L300.64 1209.96L299.595 1199.37L298.245 1188.74L296.596 1178.06L294.657 1167.31L292.435 1156.49L289.944 1145.58L287.194 1134.57L284.201 1123.47L280.98 1112.25L277.549 1100.91L273.928 1089.45L270.139 1077.86L266.204 1066.13L262.15 1054.27L258.004 1042.27L253.796 1030.13L249.556 1017.86L245.318 1005.45L241.117 992.91L236.99 980.249L232.976 967.473L229.113 954.593L225.443 941.62L222.007 928.571L218.849 915.459L216.011 902.304L213.535 889.125L211.464 875.944L209.838 862.784L208.698 849.669L208.081 836.627L208.022 823.683L208.555 810.864L209.707 798.199L211.506 785.716L213.97 773.442L217.117 761.404L220.959 749.628L225.5 738.138L230.743 726.956L236.682 716.104L243.306 705.599L250.602 695.456L258.547 685.688L267.116 676.304L276.278 667.31L285.999 658.708L296.24 650.498L306.96 642.674L318.114 635.229L329.655 628.153L341.535 621.431L353.704 615.046L366.112 608.978L378.709 603.205L391.444 597.702L404.269 592.443L417.135 587.399L429.997 582.539L442.808 577.833L455.526 573.247L468.11 568.747L480.521 564.298L492.723 559.864L504.681 555.41L516.363 550.897L527.739 546.287L538.78 541.543L549.461 536.624L559.756 531.49L569.644 526.1L579.102 520.412L588.11 514.381L596.647 507.963L604.696 501.11L612.237 493.772L619.278 485.923L625.863 477.578L632.043 468.755L637.862 459.474L643.365 449.755L648.596 439.619L653.596 429.089L658.405 418.188L663.063 406.942L667.61 395.379L672.084 383.527L676.521 371.418L680.96 359.086L685.435 346.566L689.983 333.897L694.638 321.118L699.432 308.271L704.399 295.401L709.569 282.554L714.971 269.777L720.634 257.119L726.581 244.63L732.837 232.36L739.423 220.359L746.357 208.677L753.653 197.363L761.325 186.465L769.381 176.028L777.827 166.095L786.665 156.706L795.894 147.897L805.51 139.7L815.505 132.143L825.867 125.249L836.583 119.036L847.636 113.515L859.006 108.694L870.671 104.575L882.608 101.152L894.791 98.4175L907.194 96.3563L919.79 94.9494L932.55 94.1731L945.448 94L958.455 94.3988L971.544 95.3351L984.689 96.7722L997.864 98.671L1011.05 100.991L1024.21 103.69L1037.34 106.726L1050.42 110.056L1063.43 113.638L1076.34 117.428L1089.16 121.388L1101.87 125.474L1114.46 129.65L1126.92 133.878L1139.25 138.121L1151.44 142.346L1163.5 146.52L1175.42 150.614L1187.19 154.599L1198.84 158.45L1210.35 162.14L1221.74 165.649L1233 168.956L1244.15 172.042L1255.2 174.891L1266.14 177.487L1277 179.817L1287.78 181.87L1298.49 183.635L1309.13 185.105L1319.73 186.273L1330.3 187.132L1340.84 187.679L1351.36 187.912L1361.88 187.83L1372.41 187.433L1382.96 186.722L1393.54 185.701L1404.16 184.375L1414.84 182.75L1425.58 180.833L1436.4 178.634L1447.3 176.163L1458.3 173.434L1469.4 170.459L1480.61 167.256L1491.94 163.841L1503.39 160.234L1514.97 156.457L1526.68 152.534L1538.53 148.488L1550.52 144.349L1562.65 140.144L1574.91 135.905L1587.31 131.666L1599.84 127.461L1612.49 123.327L1625.26 119.302L1638.13 115.425L1651.1 111.738L1664.14 108.283L1677.25 105.101L1690.4 102.236L1703.58 99.7294L1716.76 97.6243L1729.92 95.9617L1743.04 94.7813L1756.09 94.1212L1769.05 94.017L1781.88 94.5014L1794.55 95.6038L1807.05 97.3497L1819.34 99.7605L1831.4 102.853L1843.2 106.639L1854.71 111.124L1865.92 116.311L1876.8 122.195L1887.33 128.766L1897.5 136.008L1907.3 143.902L1916.72 152.423L1925.74 161.539L1934.38 171.217L1942.62 181.418L1950.47 192.102L1957.95 203.223L1965.05 214.735L1971.8 226.589L1978.21 238.737L1984.31 251.128L1990.1 263.711L1995.62 276.438L2000.9 289.257L2005.96 302.122L2010.83 314.985L2015.55 327.802L2020.15 340.529L2024.65 353.125L2029.1 365.552L2033.54 377.772L2037.99 389.75L2042.5 401.455L2047.1 412.856L2051.83 423.925L2056.73 434.635L2061.85 444.963L2067.22 454.884L2072.88 464.377L2078.88 473.421L2085.27 481.997L2092.08 490.085L2099.38 497.667L2107.19 504.746L2115.49 511.366L2124.28 517.576L2133.53 523.422L2143.21 528.949L2153.31 534.2L2163.81 539.217L2174.69 544.039L2185.91 548.708L2197.44 553.263L2209.27 557.741L2221.36 562.18L2233.68 566.617L2246.19 571.088L2258.84 575.629L2271.62 580.274L2284.46 585.056L2297.33 590.008L2310.18 595.161L2322.96 600.543L2335.63 606.184L2348.14 612.108L2360.43 618.339L2372.45 624.898L2384.16 631.803L2395.51 639.07L2406.44 646.712L2416.91 654.737L2426.89 663.151L2436.32 671.958L2445.18 681.156L2453.43 690.742L2461.03 700.707L2467.98 711.04L2474.25 721.729L2479.83 732.755L2484.7 744.101L2488.88 755.743L2492.36 767.659L2495.14 779.824L2497.26 792.21L2498.72 804.792L2499.54 817.54L2499.76 830.428L2499.41 843.427L2498.51 856.511L2497.11 869.652L2495.25 882.826L2492.96 896.009L2490.29 909.178L2487.28 922.313L2483.97 935.394L2480.41 948.405L2476.64 961.331L2472.69 974.158L2468.61 986.875L2464.44 999.474L2460.22 1011.95L2455.97 1024.29L2451.74 1036.49L2447.56 1048.56L2443.46 1060.48L2439.47 1072.27L2435.61 1083.93L2431.9 1095.45L2428.38 1106.85L2425.05 1118.12L2421.95 1129.28L2419.08 1140.33L2416.47 1151.29L2414.11 1162.15L2412.04 1172.93L2410.25 1183.65L2408.76 1194.3L2407.56 1204.9L2406.68 1215.47L2406.11 1226.01L2405.85 1236.53L2405.83 1239.88Z" fill="url(#paint0_linear_7_17)"/>
<path d="M2405.83 1239.88V1239.88ZM2405.83 1239.88L2405.99 1250.4L2406.46 1260.94L2407.25 1271.49L2408.34 1282.08L2409.74 1292.72L2411.44 1303.41L2413.42 1314.17L2415.69 1325.01L2418.22 1335.93L2421.01 1346.95L2424.04 1358.08L2427.3 1369.32L2430.76 1380.67L2434.41 1392.15L2438.22 1403.77L2442.18 1415.51L2446.25 1427.4L2450.41 1439.42L2454.62 1451.58L2458.86 1463.88L2463.1 1476.31L2467.29 1488.87L2471.4 1501.55L2475.39 1514.34L2479.23 1527.23L2482.86 1540.22L2486.26 1553.28L2489.37 1566.4L2492.15 1579.56L2494.57 1592.74L2496.57 1605.92L2498.12 1619.08L2499.18 1632.18L2499.71 1645.21L2499.68 1658.14L2499.05 1670.93L2497.79 1683.57L2495.89 1696.02L2493.32 1708.26L2490.06 1720.26L2486.11 1731.99L2481.46 1743.43L2476.1 1754.56L2470.05 1765.36L2463.32 1775.81L2455.92 1785.89L2447.87 1795.6L2439.21 1804.92L2429.95 1813.85L2420.15 1822.39L2409.83 1830.54L2399.03 1838.3L2387.82 1845.69L2376.22 1852.71L2364.29 1859.38L2352.08 1865.71L2339.64 1871.73L2327.01 1877.46L2314.26 1882.92L2301.43 1888.14L2288.56 1893.15L2275.7 1897.99L2262.9 1902.67L2250.2 1907.24L2237.64 1911.73L2225.26 1916.18L2213.1 1920.61L2201.18 1925.07L2189.55 1929.6L2178.22 1934.23L2167.24 1938.99L2156.62 1943.95L2146.38 1949.12L2136.56 1954.55L2127.18 1960.29L2118.24 1966.38L2109.78 1972.86L2101.81 1979.79L2094.35 1987.21L2087.39 1995.14L2080.87 2003.56L2074.75 2012.46L2068.99 2021.81L2063.53 2031.6L2058.34 2041.8L2053.37 2052.39L2048.59 2063.35L2043.95 2074.65L2039.42 2086.26L2034.95 2098.15L2030.52 2110.3L2026.07 2122.66L2021.59 2135.21L2017.03 2147.9L2012.35 2160.69L2007.53 2173.55L2002.54 2186.41L1997.33 2199.25L1991.89 2212.01L1986.18 2224.65L1980.19 2237.11L1973.88 2249.34L1967.24 2261.29L1960.25 2272.92L1952.89 2284.17L1945.16 2295L1937.04 2305.36L1928.54 2315.2L1919.64 2324.5L1910.34 2333.22L1900.67 2341.31L1890.61 2348.77L1880.19 2355.55L1869.42 2361.66L1858.32 2367.07L1846.9 2371.78L1835.19 2375.78L1823.21 2379.1L1810.99 2381.72L1798.56 2383.68L1785.93 2384.98L1773.15 2385.66L1760.23 2385.74L1747.21 2385.25L1734.11 2384.24L1720.96 2382.72L1707.78 2380.75L1694.6 2378.37L1681.44 2375.61L1668.31 2372.53L1655.25 2369.16L1642.25 2365.54L1629.35 2361.72L1616.55 2357.74L1603.86 2353.63L1591.29 2349.45L1578.85 2345.21L1566.54 2340.97L1554.37 2336.75L1542.34 2332.59L1530.44 2328.51L1518.69 2324.54L1507.06 2320.72L1495.57 2317.05L1484.2 2313.58L1472.96 2310.3L1461.82 2307.25L1450.8 2304.45L1439.87 2301.89L1429.02 2299.6L1418.26 2297.6L1407.56 2295.88L1396.92 2294.46L1386.32 2293.34L1375.77 2292.53L1365.23 2292.03L1354.71 2291.85L1344.19 2291.98L1333.66 2292.43L1323.1 2293.19L1312.52 2294.26L1301.88 2295.63L1291.2 2297.3L1280.44 2299.27L1269.61 2301.51L1258.69 2304.02L1247.68 2306.79L1236.57 2309.8L1225.34 2313.04L1213.99 2316.49L1202.52 2320.12L1190.92 2323.93L1179.18 2327.87L1167.31 2331.93L1155.3 2336.08L1143.15 2340.3L1130.86 2344.54L1118.44 2348.77L1105.89 2352.97L1093.22 2357.09L1080.44 2361.09L1067.55 2364.94L1054.57 2368.6L1041.52 2372.01L1028.4 2375.14L1015.24 2377.96L1002.06 2380.4L988.883 2382.44L975.726 2384.03L962.616 2385.13L949.581 2385.7L936.645 2385.71L923.838 2385.13L911.187 2383.93L898.719 2382.08L886.463 2379.56L874.445 2376.36L862.69 2372.46L851.224 2367.86L840.068 2362.56L829.243 2356.57L818.766 2349.89L808.653 2342.54L798.915 2334.55L789.562 2325.93L780.599 2316.72L772.029 2306.96L763.849 2296.68L756.056 2285.92L748.641 2274.74L741.593 2263.17L734.899 2251.26L728.539 2239.07L722.496 2226.65L716.745 2214.04L711.263 2201.29L706.022 2188.46L700.994 2175.59L696.148 2162.74L691.452 2149.93L686.874 2137.22L682.38 2124.65L677.933 2112.25L673.499 2100.07L669.041 2088.13L664.522 2076.47L659.903 2065.12L655.146 2054.11L650.212 2043.46L645.059 2033.2L639.647 2023.34L633.933 2013.92L627.874 2004.95L621.422 1996.45L614.532 1988.44L607.154 1980.94L599.265 1973.94L590.881 1967.39L582.021 1961.24L572.704 1955.44L562.951 1949.96L552.783 1944.75L542.222 1939.77L531.293 1934.97L520.021 1930.33L508.434 1925.79L496.56 1921.32L484.433 1916.88L472.084 1912.44L459.551 1907.96L446.871 1903.41L434.085 1898.74L421.235 1893.93L408.365 1888.95L395.522 1883.76L382.753 1878.34L370.106 1872.66L357.633 1866.69L345.382 1860.41L333.405 1853.79L321.751 1846.83L310.468 1839.51L299.605 1831.8L289.207 1823.72L279.316 1815.24L269.971 1806.37L261.21 1797.11L253.063 1787.46L245.558 1777.44L238.718 1767.05L232.559 1756.3L227.094 1745.23L222.329 1733.83L218.265 1722.14L214.898 1710.19L212.217 1697.98L210.209 1685.56L208.853 1672.95L208.126 1660.18L208 1647.28L208.443 1634.26L209.42 1621.17L210.896 1608.02L212.829 1594.84L215.181 1581.66L217.908 1568.49L220.969 1555.37L224.321 1542.3L227.921 1529.3L231.727 1516.39L235.697 1503.58L239.793 1490.88L243.974 1478.3L248.204 1465.85L252.447 1453.53L256.669 1441.35L260.838 1429.3L264.925 1417.4L268.9 1405.63L272.738 1394L276.415 1382.49L279.909 1371.12L283.199 1359.86L286.266 1348.72L289.095 1337.68L291.671 1326.74L293.979 1315.89L296.01 1305.12L297.752 1294.42L299.198 1283.78L300.341 1273.18L301.176 1262.62L301.698 1252.08L301.906 1241.56L301.798 1231.04L301.376 1220.51L300.64 1209.96L299.595 1199.37L298.245 1188.74L296.596 1178.06L294.657 1167.31L292.435 1156.49L289.944 1145.58L287.194 1134.57L284.201 1123.47L280.98 1112.25L277.549 1100.91L273.928 1089.45L270.139 1077.86L266.204 1066.13L262.15 1054.27L258.004 1042.27L253.796 1030.13L249.556 1017.86L245.318 1005.45L241.117 992.91L236.99 980.249L232.976 967.473L229.113 954.593L225.443 941.62L222.007 928.571L218.849 915.459L216.011 902.304L213.535 889.125L211.464 875.944L209.838 862.784L208.698 849.669L208.081 836.627L208.022 823.683L208.555 810.864L209.707 798.199L211.506 785.716L213.97 773.442L217.117 761.404L220.959 749.628L225.5 738.138L230.743 726.956L236.682 716.104L243.306 705.599L250.602 695.456L258.547 685.688L267.116 676.304L276.278 667.31L285.999 658.708L296.24 650.498L306.96 642.674L318.114 635.229L329.655 628.153L341.535 621.431L353.704 615.046L366.112 608.978L378.709 603.205L391.444 597.702L404.269 592.443L417.135 587.399L429.997 582.539L442.808 577.833L455.526 573.247L468.11 568.747L480.521 564.298L492.723 559.864L504.681 555.41L516.363 550.897L527.739 546.287L538.78 541.543L549.461 536.624L559.756 531.49L569.644 526.1L579.102 520.412L588.11 514.381L596.647 507.963L604.696 501.11L612.237 493.772L619.278 485.923L625.863 477.578L632.043 468.755L637.862 459.474L643.365 449.755L648.596 439.619L653.596 429.089L658.405 418.188L663.063 406.942L667.61 395.379L672.084 383.527L676.521 371.418L680.96 359.086L685.435 346.566L689.983 333.897L694.638 321.118L699.432 308.271L704.399 295.401L709.569 282.554L714.971 269.777L720.634 257.119L726.581 244.63L732.837 232.36L739.423 220.359L746.357 208.677L753.653 197.363L761.325 186.465L769.381 176.028L777.827 166.095L786.665 156.706L795.894 147.897L805.51 139.7L815.505 132.143L825.867 125.249L836.583 119.036L847.636 113.515L859.006 108.694L870.671 104.575L882.608 101.152L894.791 98.4175L907.194 96.3563L919.79 94.9494L932.55 94.1731L945.448 94L958.455 94.3988L971.544 95.3351L984.689 96.7722L997.864 98.671L1011.05 100.991L1024.21 103.69L1037.34 106.726L1050.42 110.056L1063.43 113.638L1076.34 117.428L1089.16 121.388L1101.87 125.474L1114.46 129.65L1126.92 133.878L1139.25 138.121L1151.44 142.346L1163.5 146.52L1175.42 150.614L1187.19 154.599L1198.84 158.45L1210.35 162.14L1221.74 165.649L1233 168.956L1244.15 172.042L1255.2 174.891L1266.14 177.487L1277 179.817L1287.78 181.87L1298.49 183.635L1309.13 185.105L1319.73 186.273L1330.3 187.132L1340.84 187.679L1351.36 187.912L1361.88 187.83L1372.41 187.433L1382.96 186.722L1393.54 185.701L1404.16 184.375L1414.84 182.75L1425.58 180.833L1436.4 178.634L1447.3 176.163L1458.3 173.434L1469.4 170.459L1480.61 167.256L1491.94 163.841L1503.39 160.234L1514.97 156.457L1526.68 152.534L1538.53 148.488L1550.52 144.349L1562.65 140.144L1574.91 135.905L1587.31 131.666L1599.84 127.461L1612.49 123.327L1625.26 119.302L1638.13 115.425L1651.1 111.738L1664.14 108.283L1677.25 105.101L1690.4 102.236L1703.58 99.7294L1716.76 97.6243L1729.92 95.9617L1743.04 94.7813L1756.09 94.1212L1769.05 94.017L1781.88 94.5014L1794.55 95.6038L1807.05 97.3497L1819.34 99.7605L1831.4 102.853L1843.2 106.639L1854.71 111.124L1865.92 116.311L1876.8 122.195L1887.33 128.766L1897.5 136.008L1907.3 143.902L1916.72 152.423L1925.74 161.539L1934.38 171.217L1942.62 181.418L1950.47 192.102L1957.95 203.223L1965.05 214.735L1971.8 226.589L1978.21 238.737L1984.31 251.128L1990.1 263.711L1995.62 276.438L2000.9 289.257L2005.96 302.122L2010.83 314.985L2015.55 327.802L2020.15 340.529L2024.65 353.125L2029.1 365.552L2033.54 377.772L2037.99 389.75L2042.5 401.455L2047.1 412.856L2051.83 423.925L2056.73 434.635L2061.85 444.963L2067.22 454.884L2072.88 464.377L2078.88 473.421L2085.27 481.997L2092.08 490.085L2099.38 497.667L2107.19 504.746L2115.49 511.366L2124.28 517.576L2133.53 523.422L2143.21 528.949L2153.31 534.2L2163.81 539.217L2174.69 544.039L2185.91 548.708L2197.44 553.263L2209.27 557.741L2221.36 562.18L2233.68 566.617L2246.19 571.088L2258.84 575.629L2271.62 580.274L2284.46 585.056L2297.33 590.008L2310.18 595.161L2322.96 600.543L2335.63 606.184L2348.14 612.108L2360.43 618.339L2372.45 624.898L2384.16 631.803L2395.51 639.07L2406.44 646.712L2416.91 654.737L2426.89 663.151L2436.32 671.958L2445.18 681.156L2453.43 690.742L2461.03 700.707L2467.98 711.04L2474.25 721.729L2479.83 732.755L2484.7 744.101L2488.88 755.743L2492.36 767.659L2495.14 779.824L2497.26 792.21L2498.72 804.792L2499.54 817.54L2499.76 830.428L2499.41 843.427L2498.51 856.511L2497.11 869.652L2495.25 882.826L2492.96 896.009L2490.29 909.178L2487.28 922.313L2483.97 935.394L2480.41 948.405L2476.64 961.331L2472.69 974.158L2468.61 986.875L2464.44 999.474L2460.22 1011.95L2455.97 1024.29L2451.74 1036.49L2447.56 1048.56L2443.46 1060.48L2439.47 1072.27L2435.61 1083.93L2431.9 1095.45L2428.38 1106.85L2425.05 1118.12L2421.95 1129.28L2419.08 1140.33L2416.47 1151.29L2414.11 1162.15L2412.04 1172.93L2410.25 1183.65L2408.76 1194.3L2407.56 1204.9L2406.68 1215.47L2406.11 1226.01L2405.85 1236.53L2405.83 1239.88Z" stroke="#EB7D7D" stroke-width="186.518"/>
<path fill-rule="evenodd" clip-rule="evenodd" d="M2405.83 1239.88V1239.88L2405.99 1250.4L2406.46 1260.94L2407.25 1271.49L2408.34 1282.08L2409.74 1292.72L2411.44 1303.41L2413.42 1314.17L2415.69 1325.01L2418.22 1335.93L2421.01 1346.95L2424.04 1358.08L2427.3 1369.32L2430.76 1380.67L2434.41 1392.15L2438.22 1403.77L2442.18 1415.51L2446.25 1427.4L2450.41 1439.42L2454.62 1451.58L2458.86 1463.88L2463.1 1476.31L2467.29 1488.87L2471.4 1501.55L2475.39 1514.34L2479.23 1527.23L2482.86 1540.22L2486.26 1553.28L2489.37 1566.4L2492.15 1579.56L2494.57 1592.74L2496.57 1605.92L2498.12 1619.08L2499.18 1632.18L2499.71 1645.21L2499.68 1658.14L2499.05 1670.93L2497.79 1683.57L2495.89 1696.02L2493.32 1708.26L2490.06 1720.26L2486.11 1731.99L2481.46 1743.43L2476.1 1754.56L2470.05 1765.36L2463.32 1775.81L2455.92 1785.89L2447.87 1795.6L2439.21 1804.92L2429.95 1813.85L2420.15 1822.39L2409.83 1830.54L2399.03 1838.3L2387.82 1845.69L2376.22 1852.71L2364.29 1859.38L2352.08 1865.71L2339.64 1871.73L2327.01 1877.46L2314.26 1882.92L2301.43 1888.14L2288.56 1893.15L2275.7 1897.99L2262.9 1902.67L2250.2 1907.24L2237.64 1911.73L2225.26 1916.18L2213.1 1920.61L2201.18 1925.07L2189.55 1929.6L2178.22 1934.23L2167.24 1938.99L2156.62 1943.95L2146.38 1949.12L2136.56 1954.55L2127.18 1960.29L2118.24 1966.38L2109.78 1972.86L2101.81 1979.79L2094.35 1987.21L2087.39 1995.14L2080.87 2003.56L2074.75 2012.46L2068.99 2021.81L2063.53 2031.6L2058.34 2041.8L2053.37 2052.39L2048.59 2063.35L2043.95 2074.65L2039.42 2086.26L2034.95 2098.15L2030.52 2110.3L2026.07 2122.66L2021.59 2135.21L2017.03 2147.9L2012.35 2160.69L2007.53 2173.55L2002.54 2186.41L1997.33 2199.25L1991.89 2212.01L1986.18 2224.65L1980.19 2237.11L1973.88 2249.34L1967.24 2261.29L1960.25 2272.92L1952.89 2284.17L1945.16 2295L1937.04 2305.36L1928.54 2315.2L1919.64 2324.5L1910.34 2333.22L1900.67 2341.31L1890.61 2348.77L1880.19 2355.55L1869.42 2361.66L1858.32 2367.07L1846.9 2371.78L1835.19 2375.78L1823.21 2379.1L1810.99 2381.72L1798.56 2383.68L1785.93 2384.98L1773.15 2385.66L1760.23 2385.74L1747.21 2385.25L1734.11 2384.24L1720.96 2382.72L1707.78 2380.75L1694.6 2378.37L1681.44 2375.61L1668.31 2372.53L1655.25 2369.16L1642.25 2365.54L1629.35 2361.72L1616.55 2357.74L1603.86 2353.63L1591.29 2349.45L1578.85 2345.21L1566.54 2340.97L1554.37 2336.75L1542.34 2332.59L1530.44 2328.51L1518.69 2324.54L1507.06 2320.72L1495.57 2317.05L1484.2 2313.58L1472.96 2310.3L1461.82 2307.25L1450.8 2304.45L1439.87 2301.89L1429.02 2299.6L1418.26 2297.6L1407.56 2295.88L1396.92 2294.46L1386.32 2293.34L1375.77 2292.53L1365.23 2292.03L1354.71 2291.85L1344.19 2291.98L1333.66 2292.43L1323.1 2293.19L1312.52 2294.26L1301.88 2295.63L1291.2 2297.3L1280.44 2299.27L1269.61 2301.51L1258.69 2304.02L1247.68 2306.79L1236.57 2309.8L1225.34 2313.04L1213.99 2316.49L1202.52 2320.12L1190.92 2323.93L1179.18 2327.87L1167.31 2331.93L1155.3 2336.08L1143.15 2340.3L1130.86 2344.54L1118.44 2348.77L1105.89 2352.97L1093.22 2357.09L1080.44 2361.09L1067.55 2364.94L1054.57 2368.6L1041.52 2372.01L1028.4 2375.14L1015.24 2377.96L1002.06 2380.4L988.883 2382.44L975.726 2384.03L962.616 2385.13L949.581 2385.7L936.645 2385.71L923.838 2385.13L911.187 2383.93L898.719 2382.08L886.463 2379.56L874.445 2376.36L862.69 2372.46L851.224 2367.86L840.068 2362.56L829.243 2356.57L818.766 2349.89L808.653 2342.54L798.915 2334.55L789.562 2325.93L780.599 2316.72L772.029 2306.96L763.849 2296.68L756.056 2285.92L748.641 2274.74L741.593 2263.17L734.899 2251.26L728.539 2239.07L722.496 2226.65L716.745 2214.04L711.263 2201.29L706.022 2188.46L700.994 2175.59L696.148 2162.74L691.452 2149.93L686.874 2137.22L682.38 2124.65L677.933 2112.25L673.499 2100.07L669.041 2088.13L664.522 2076.47L659.903 2065.12L655.146 2054.11L650.212 2043.46L645.059 2033.2L639.647 2023.34L633.933 2013.92L627.874 2004.95L621.422 1996.45L614.532 1988.44L607.154 1980.94L599.265 1973.94L590.881 1967.39L582.021 1961.24L572.704 1955.44L562.951 1949.96L552.783 1944.75L542.222 1939.77L531.293 1934.97L520.021 1930.33L508.434 1925.79L496.56 1921.32L484.433 1916.88L472.084 1912.44L459.551 1907.96L446.871 1903.41L434.085 1898.74L421.235 1893.93L408.365 1888.95L395.522 1883.76L382.753 1878.34L370.106 1872.66L357.633 1866.69L345.382 1860.41L333.405 1853.79L321.751 1846.83L310.468 1839.51L299.605 1831.8L289.207 1823.72L279.316 1815.24L269.971 1806.37L261.21 1797.11L253.063 1787.46L245.558 1777.44L238.718 1767.05L232.559 1756.3L227.094 1745.23L222.329 1733.83L218.265 1722.14L214.898 1710.19L212.217 1697.98L210.209 1685.56L208.853 1672.95L208.126 1660.18L208 1647.28L208.443 1634.26L209.42 1621.17L210.896 1608.02L212.829 1594.84L215.181 1581.66L217.908 1568.49L220.969 1555.37L224.321 1542.3L227.921 1529.3L231.727 1516.39L235.697 1503.58L239.793 1490.88L243.974 1478.3L248.204 1465.85L252.447 1453.53L256.669 1441.35L260.838 1429.3L264.925 1417.4L268.9 1405.63L272.738 1394L276.415 1382.49L279.909 1371.12L283.199 1359.86L286.266 1348.72L289.095 1337.68L291.671 1326.74L293.979 1315.89L296.01 1305.12L297.752 1294.42L299.198 1283.78L300.341 1273.18L301.176 1262.62L301.698 1252.08L301.906 1241.56L301.798 1231.04L301.376 1220.51L300.64 1209.96L299.595 1199.37L298.245 1188.74L296.596 1178.06L294.657 1167.31L292.435 1156.49L289.944 1145.58L287.194 1134.57L284.201 1123.47L280.98 1112.25L277.549 1100.91L273.928 1089.45L270.139 1077.86L266.204 1066.13L262.15 1054.27L258.004 1042.27L253.796 1030.13L249.556 1017.86L245.318 1005.45L241.117 992.91L236.99 980.249L232.976 967.473L229.113 954.593L225.443 941.62L222.007 928.571L218.849 915.459L216.011 902.304L213.535 889.125L211.464 875.944L209.838 862.784L208.698 849.669L208.081 836.627L208.022 823.683L208.555 810.864L209.707 798.199L211.506 785.716L213.97 773.442L217.117 761.404L220.959 749.628L225.5 738.138L230.743 726.956L236.682 716.104L243.306 705.599L250.602 695.456L258.547 685.688L267.116 676.304L276.278 667.31L285.999 658.708L296.24 650.498L306.96 642.674L318.114 635.229L329.655 628.153L341.535 621.431L353.704 615.046L366.112 608.978L378.709 603.205L391.444 597.702L404.269 592.443L417.135 587.399L429.997 582.539L442.808 577.833L455.526 573.247L468.11 568.747L480.521 564.298L492.723 559.864L504.681 555.41L516.363 550.897L527.739 546.287L538.78 541.543L549.461 536.624L559.756 531.49L569.644 526.1L579.102 520.412L588.11 514.381L596.647 507.963L604.696 501.11L612.237 493.772L619.278 485.923L625.863 477.578L632.043 468.755L637.862 459.474L643.365 449.755L648.596 439.619L653.596 429.089L658.405 418.188L663.063 406.942L667.61 395.379L672.084 383.527L676.521 371.418L680.96 359.086L685.435 346.566L689.983 333.897L694.638 321.118L699.432 308.271L704.399 295.401L709.569 282.554L714.971 269.777L720.634 257.119L726.581 244.63L732.837 232.36L739.423 220.359L746.357 208.677L753.653 197.363L761.325 186.465L769.381 176.028L777.827 166.095L786.665 156.706L795.894 147.897L805.51 139.7L815.505 132.143L825.867 125.249L836.583 119.036L847.636 113.515L859.006 108.694L870.671 104.575L882.608 101.152L894.791 98.4175L907.194 96.3563L919.79 94.9494L932.55 94.1731L945.448 94L958.455 94.3988L971.544 95.3351L984.689 96.7722L997.864 98.671L1011.05 100.991L1024.21 103.69L1037.34 106.726L1050.42 110.056L1063.43 113.638L1076.34 117.428L1089.16 121.388L1101.87 125.474L1114.46 129.65L1126.92 133.878L1139.25 138.121L1151.44 142.346L1163.5 146.52L1175.42 150.614L1187.19 154.599L1198.84 158.45L1210.35 162.14L1221.74 165.649L1233 168.956L1244.15 172.042L1255.2 174.891L1266.14 177.487L1277 179.817L1287.78 181.87L1298.49 183.635L1309.13 185.105L1319.73 186.273L1330.3 187.132L1340.84 187.679L1351.36 187.912L1361.88 187.83L1372.41 187.433L1382.96 186.722L1393.54 185.701L1404.16 184.375L1414.84 182.75L1425.58 180.833L1436.4 178.634L1447.3 176.163L1458.3 173.434L1469.4 170.459L1480.61 167.256L1491.94 163.841L1503.39 160.234L1514.97 156.457L1526.68 152.534L1538.53 148.488L1550.52 144.349L1562.65 140.144L1574.91 135.905L1587.31 131.666L1599.84 127.461L1612.49 123.327L1625.26 119.302L1638.13 115.425L1651.1 111.738L1664.14 108.283L1677.25 105.101L1690.4 102.236L1703.58 99.7294L1716.76 97.6243L1729.92 95.9617L1743.04 94.7813L1756.09 94.1212L1769.05 94.017L1781.88 94.5014L1794.55 95.6038L1807.05 97.3497L1819.34 99.7605L1831.4 102.853L1843.2 106.639L1854.71 111.124L1865.92 116.311L1876.8 122.195L1887.33 128.766L1897.5 136.008L1907.3 143.902L1916.72 152.423L1925.74 161.539L1934.38 171.217L1942.62 181.418L1950.47 192.102L1957.95 203.223L1965.05 214.735L1971.8 226.589L1978.21 238.737L1984.31 251.128L1990.1 263.711L1995.62 276.438L2000.9 289.257L2005.96 302.122L2010.83 314.985L2015.55 327.802L2020.15 340.529L2024.65 353.125L2029.1 365.552L2033.54 377.772L2037.99 389.75L2042.5 401.455L2047.1 412.856L2051.83 423.925L2056.73 434.635L2061.85 444.963L2067.22 454.884L2072.88 464.377L2078.88 473.421L2085.27 481.997L2092.08 490.085L2099.38 497.667L2107.19 504.746L2115.49 511.366L2124.28 517.576L2133.53 523.422L2143.21 528.949L2153.31 534.2L2163.81 539.217L2174.69 544.039L2185.91 548.708L2197.44 553.263L2209.27 557.741L2221.36 562.18L2233.68 566.617L2246.19 571.088L2258.84 575.629L2271.62 580.274L2284.46 585.056L2297.33 590.008L2310.18 595.161L2322.96 600.543L2335.63 606.184L2348.14 612.108L2360.43 618.339L2372.45 624.898L2384.16 631.803L2395.51 639.07L2406.44 646.712L2416.91 654.737L2426.89 663.151L2436.32 671.958L2445.18 681.156L2453.43 690.742L2461.03 700.707L2467.98 711.04L2474.25 721.729L2479.83 732.755L2484.7 744.101L2488.88 755.743L2492.36 767.659L2495.14 779.824L2497.26 792.21L2498.72 804.792L2499.54 817.54L2499.76 830.428L2499.41 843.427L2498.51 856.511L2497.11 869.652L2495.25 882.826L2492.96 896.009L2490.29 909.178L2487.28 922.313L2483.97 935.394L2480.41 948.405L2476.64 961.331L2472.69 974.158L2468.61 986.875L2464.44 999.474L2460.22 1011.95L2455.97 1024.29L2451.74 1036.49L2447.56 1048.56L2443.46 1060.48L2439.47 1072.27L2435.61 1083.93L2431.9 1095.45L2428.38 1106.85L2425.05 1118.12L2421.95 1129.28L2419.08 1140.33L2416.47 1151.29L2414.11 1162.15L2412.04 1172.93L2410.25 1183.65L2408.76 1194.3L2407.56 1204.9L2406.68 1215.47L2406.11 1226.01L2405.85 1236.53L2405.83 1239.88Z" fill="url(#paint1_linear_7_17)"/>
<path d="M2405.83 1239.88V1239.88ZM2405.83 1239.88L2405.99 1250.4L2406.46 1260.94L2407.25 1271.49L2408.34 1282.08L2409.74 1292.72L2411.44 1303.41L2413.42 1314.17L2415.69 1325.01L2418.22 1335.93L2421.01 1346.95L2424.04 1358.08L2427.3 1369.32L2430.76 1380.67L2434.41 1392.15L2438.22 1403.77L2442.18 1415.51L2446.25 1427.4L2450.41 1439.42L2454.62 1451.58L2458.86 1463.88L2463.1 1476.31L2467.29 1488.87L2471.4 1501.55L2475.39 1514.34L2479.23 1527.23L2482.86 1540.22L2486.26 1553.28L2489.37 1566.4L2492.15 1579.56L2494.57 1592.74L2496.57 1605.92L2498.12 1619.08L2499.18 1632.18L2499.71 1645.21L2499.68 1658.14L2499.05 1670.93L2497.79 1683.57L2495.89 1696.02L2493.32 1708.26L2490.06 1720.26L2486.11 1731.99L2481.46 1743.43L2476.1 1754.56L2470.05 1765.36L2463.32 1775.81L2455.92 1785.89L2447.87 1795.6L2439.21 1804.92L2429.95 1813.85L2420.15 1822.39L2409.83 1830.54L2399.03 1838.3L2387.82 1845.69L2376.22 1852.71L2364.29 1859.38L2352.08 1865.71L2339.64 1871.73L2327.01 1877.46L2314.26 1882.92L2301.43 1888.14L2288.56 1893.15L2275.7 1897.99L2262.9 1902.67L2250.2 1907.24L2237.64 1911.73L2225.26 1916.18L2213.1 1920.61L2201.18 1925.07L2189.55 1929.6L2178.22 1934.23L2167.24 1938.99L2156.62 1943.95L2146.38 1949.12L2136.56 1954.55L2127.18 1960.29L2118.24 1966.38L2109.78 1972.86L2101.81 1979.79L2094.35 1987.21L2087.39 1995.14L2080.87 2003.56L2074.75 2012.46L2068.99 2021.81L2063.53 2031.6L2058.34 2041.8L2053.37 2052.39L2048.59 2063.35L2043.95 2074.65L2039.42 2086.26L2034.95 2098.15L2030.52 2110.3L2026.07 2122.66L2021.59 2135.21L2017.03 2147.9L2012.35 2160.69L2007.53 2173.55L2002.54 2186.41L1997.33 2199.25L1991.89 2212.01L1986.18 2224.65L1980.19 2237.11L1973.88 2249.34L1967.24 2261.29L1960.25 2272.92L1952.89 2284.17L1945.16 2295L1937.04 2305.36L1928.54 2315.2L1919.64 2324.5L1910.34 2333.22L1900.67 2341.31L1890.61 2348.77L1880.19 2355.55L1869.42 2361.66L1858.32 2367.07L1846.9 2371.78L1835.19 2375.78L1823.21 2379.1L1810.99 2381.72L1798.56 2383.68L1785.93 2384.98L1773.15 2385.66L1760.23 2385.74L1747.21 2385.25L1734.11 2384.24L1720.96 2382.72L1707.78 2380.75L1694.6 2378.37L1681.44 2375.61L1668.31 2372.53L1655.25 2369.16L1642.25 2365.54L1629.35 2361.72L1616.55 2357.74L1603.86 2353.63L1591.29 2349.45L1578.85 2345.21L1566.54 2340.97L1554.37 2336.75L1542.34 2332.59L1530.44 2328.51L1518.69 2324.54L1507.06 2320.72L1495.57 2317.05L1484.2 2313.58L1472.96 2310.3L1461.82 2307.25L1450.8 2304.45L1439.87 2301.89L1429.02 2299.6L1418.26 2297.6L1407.56 2295.88L1396.92 2294.46L1386.32 2293.34L1375.77 2292.53L1365.23 2292.03L1354.71 2291.85L1344.19 2291.98L1333.66 2292.43L1323.1 2293.19L1312.52 2294.26L1301.88 2295.63L1291.2 2297.3L1280.44 2299.27L1269.61 2301.51L1258.69 2304.02L1247.68 2306.79L1236.57 2309.8L1225.34 2313.04L1213.99 2316.49L1202.52 2320.12L1190.92 2323.93L1179.18 2327.87L1167.31 2331.93L1155.3 2336.08L1143.15 2340.3L1130.86 2344.54L1118.44 2348.77L1105.89 2352.97L1093.22 2357.09L1080.44 2361.09L1067.55 2364.94L1054.57 2368.6L1041.52 2372.01L1028.4 2375.14L1015.24 2377.96L1002.06 2380.4L988.883 2382.44L975.726 2384.03L962.616 2385.13L949.581 2385.7L936.645 2385.71L923.838 2385.13L911.187 2383.93L898.719 2382.08L886.463 2379.56L874.445 2376.36L862.69 2372.46L851.224 2367.86L840.068 2362.56L829.243 2356.57L818.766 2349.89L808.653 2342.54L798.915 2334.55L789.562 2325.93L780.599 2316.72L772.029 2306.96L763.849 2296.68L756.056 2285.92L748.641 2274.74L741.593 2263.17L734.899 2251.26L728.539 2239.07L722.496 2226.65L716.745 2214.04L711.263 2201.29L706.022 2188.46L700.994 2175.59L696.148 2162.74L691.452 2149.93L686.874 2137.22L682.38 2124.65L677.933 2112.25L673.499 2100.07L669.041 2088.13L664.522 2076.47L659.903 2065.12L655.146 2054.11L650.212 2043.46L645.059 2033.2L639.647 2023.34L633.933 2013.92L627.874 2004.95L621.422 1996.45L614.532 1988.44L607.154 1980.94L599.265 1973.94L590.881 1967.39L582.021 1961.24L572.704 1955.44L562.951 1949.96L552.783 1944.75L542.222 1939.77L531.293 1934.97L520.021 1930.33L508.434 1925.79L496.56 1921.32L484.433 1916.88L472.084 1912.44L459.551 1907.96L446.871 1903.41L434.085 1898.74L421.235 1893.93L408.365 1888.95L395.522 1883.76L382.753 1878.34L370.106 1872.66L357.633 1866.69L345.382 1860.41L333.405 1853.79L321.751 1846.83L310.468 1839.51L299.605 1831.8L289.207 1823.72L279.316 1815.24L269.971 1806.37L261.21 1797.11L253.063 1787.46L245.558 1777.44L238.718 1767.05L232.559 1756.3L227.094 1745.23L222.329 1733.83L218.265 1722.14L214.898 1710.19L212.217 1697.98L210.209 1685.56L208.853 1672.95L208.126 1660.18L208 1647.28L208.443 1634.26L209.42 1621.17L210.896 1608.02L212.829 1594.84L215.181 1581.66L217.908 1568.49L220.969 1555.37L224.321 1542.3L227.921 1529.3L231.727 1516.39L235.697 1503.58L239.793 1490.88L243.974 1478.3L248.204 1465.85L252.447 1453.53L256.669 1441.35L260.838 1429.3L264.925 1417.4L268.9 1405.63L272.738 1394L276.415 1382.49L279.909 1371.12L283.199 1359.86L286.266 1348.72L289.095 1337.68L291.671 1326.74L293.979 1315.89L296.01 1305.12L297.752 1294.42L299.198 1283.78L300.341 1273.18L301.176 1262.62L301.698 1252.08L301.906 1241.56L301.798 1231.04L301.376 1220.51L300.64 1209.96L299.595 1199.37L298.245 1188.74L296.596 1178.06L294.657 1167.31L292.435 1156.49L289.944 1145.58L287.194 1134.57L284.201 1123.47L280.98 1112.25L277.549 1100.91L273.928 1089.45L270.139 1077.86L266.204 1066.13L262.15 1054.27L258.004 1042.27L253.796 1030.13L249.556 1017.86L245.318 1005.45L241.117 992.91L236.99 980.249L232.976 967.473L229.113 954.593L225.443 941.62L222.007 928.571L218.849 915.459L216.011 902.304L213.535 889.125L211.464 875.944L209.838 862.784L208.698 849.669L208.081 836.627L208.022 823.683L208.555 810.864L209.707 798.199L211.506 785.716L213.97 773.442L217.117 761.404L220.959 749.628L225.5 738.138L230.743 726.956L236.682 716.104L243.306 705.599L250.602 695.456L258.547 685.688L267.116 676.304L276.278 667.31L285.999 658.708L296.24 650.498L306.96 642.674L318.114 635.229L329.655 628.153L341.535 621.431L353.704 615.046L366.112 608.978L378.709 603.205L391.444 597.702L404.269 592.443L417.135 587.399L429.997 582.539L442.808 577.833L455.526 573.247L468.11 568.747L480.521 564.298L492.723 559.864L504.681 555.41L516.363 550.897L527.739 546.287L538.78 541.543L549.461 536.624L559.756 531.49L569.644 526.1L579.102 520.412L588.11 514.381L596.647 507.963L604.696 501.11L612.237 493.772L619.278 485.923L625.863 477.578L632.043 468.755L637.862 459.474L643.365 449.755L648.596 439.619L653.596 429.089L658.405 418.188L663.063 406.942L667.61 395.379L672.084 383.527L676.521 371.418L680.96 359.086L685.435 346.566L689.983 333.897L694.638 321.118L699.432 308.271L704.399 295.401L709.569 282.554L714.971 269.777L720.634 257.119L726.581 244.63L732.837 232.36L739.423 220.359L746.357 208.677L753.653 197.363L761.325 186.465L769.381 176.028L777.827 166.095L786.665 156.706L795.894 147.897L805.51 139.7L815.505 132.143L825.867 125.249L836.583 119.036L847.636 113.515L859.006 108.694L870.671 104.575L882.608 101.152L894.791 98.4175L907.194 96.3563L919.79 94.9494L932.55 94.1731L945.448 94L958.455 94.3988L971.544 95.3351L984.689 96.7722L997.864 98.671L1011.05 100.991L1024.21 103.69L1037.34 106.726L1050.42 110.056L1063.43 113.638L1076.34 117.428L1089.16 121.388L1101.87 125.474L1114.46 129.65L1126.92 133.878L1139.25 138.121L1151.44 142.346L1163.5 146.52L1175.42 150.614L1187.19 154.599L1198.84 158.45L1210.35 162.14L1221.74 165.649L1233 168.956L1244.15 172.042L1255.2 174.891L1266.14 177.487L1277 179.817L1287.78 181.87L1298.49 183.635L1309.13 185.105L1319.73 186.273L1330.3 187.132L1340.84 187.679L1351.36 187.912L1361.88 187.83L1372.41 187.433L1382.96 186.722L1393.54 185.701L1404.16 184.375L1414.84 182.75L1425.58 180.833L1436.4 178.634L1447.3 176.163L1458.3 173.434L1469.4 170.459L1480.61 167.256L1491.94 163.841L1503.39 160.234L1514.97 156.457L1526.68 152.534L1538.53 148.488L1550.52 144.349L1562.65 140.144L1574.91 135.905L1587.31 131.666L1599.84 127.461L1612.49 123.327L1625.26 119.302L1638.13 115.425L1651.1 111.738L1664.14 108.283L1677.25 105.101L1690.4 102.236L1703.58 99.7294L1716.76 97.6243L1729.92 95.9617L1743.04 94.7813L1756.09 94.1212L1769.05 94.017L1781.88 94.5014L1794.55 95.6038L1807.05 97.3497L1819.34 99.7605L1831.4 102.853L1843.2 106.639L1854.71 111.124L1865.92 116.311L1876.8 122.195L1887.33 128.766L1897.5 136.008L1907.3 143.902L1916.72 152.423L1925.74 161.539L1934.38 171.217L1942.62 181.418L1950.47 192.102L1957.95 203.223L1965.05 214.735L1971.8 226.589L1978.21 238.737L1984.31 251.128L1990.1 263.711L1995.62 276.438L2000.9 289.257L2005.96 302.122L2010.83 314.985L2015.55 327.802L2020.15 340.529L2024.65 353.125L2029.1 365.552L2033.54 377.772L2037.99 389.75L2042.5 401.455L2047.1 412.856L2051.83 423.925L2056.73 434.635L2061.85 444.963L2067.22 454.884L2072.88 464.377L2078.88 473.421L2085.27 481.997L2092.08 490.085L2099.38 497.667L2107.19 504.746L2115.49 511.366L2124.28 517.576L2133.53 523.422L2143.21 528.949L2153.31 534.2L2163.81 539.217L2174.69 544.039L2185.91 548.708L2197.44 553.263L2209.27 557.741L2221.36 562.18L2233.68 566.617L2246.19 571.088L2258.84 575.629L2271.62 580.274L2284.46 585.056L2297.33 590.008L2310.18 595.161L2322.96 600.543L2335.63 606.184L2348.14 612.108L2360.43 618.339L2372.45 624.898L2384.16 631.803L2395.51 639.07L2406.44 646.712L2416.91 654.737L2426.89 663.151L2436.32 671.958L2445.18 681.156L2453.43 690.742L2461.03 700.707L2467.98 711.04L2474.25 721.729L2479.83 732.755L2484.7 744.101L2488.88 755.743L2492.36 767.659L2495.14 779.824L2497.26 792.21L2498.72 804.792L2499.54 817.54L2499.76 830.428L2499.41 843.427L2498.51 856.511L2497.11 869.652L2495.25 882.826L2492.96 896.009L2490.29 909.178L2487.28 922.313L2483.97 935.394L2480.41 948.405L2476.64 961.331L2472.69 974.158L2468.61 986.875L2464.44 999.474L2460.22 1011.95L2455.97 1024.29L2451.74 1036.49L2447.56 1048.56L2443.46 1060.48L2439.47 1072.27L2435.61 1083.93L2431.9 1095.45L2428.38 1106.85L2425.05 1118.12L2421.95 1129.28L2419.08 1140.33L2416.47 1151.29L2414.11 1162.15L2412.04 1172.93L2410.25 1183.65L2408.76 1194.3L2407.56 1204.9L2406.68 1215.47L2406.11 1226.01L2405.85 1236.53L2405.83 1239.88Z" stroke="#DC6969" stroke-width="186.518"/>
<path d="M588 414C599.202 364.713 737.501 331.488 781.636 330C827.427 328.456 873.534 330 919.364 330C1033.84 330 1141.56 354 1256.86 354C1409.91 354 1561.6 367.124 1704.82 312.667C1752.65 294.477 1804.5 296.191 1845.95 264.666C1864.51 250.552 1915.17 234 1938 234" stroke="#F4C542" stroke-width="20" stroke-linecap="round"/>
<path d="M508 546.166C588.316 546.166 660.684 567.534 740.05 570.194C795.391 572.05 828.596 616.858 878.732 618.251C937.794 619.891 991.742 642.279 1054.49 642.279C1130.92 642.279 1211.9 649.095 1287.22 635.604C1451.55 606.175 1597.69 575.989 1748.58 510.791C1841.81 470.505 1927.75 474.082 2028 474.082" stroke="#F4C542" stroke-width="20" stroke-linecap="round"/>
<path d="M228 954C272.275 928.676 312.293 893.922 356.804 869.803C410.791 840.549 475.865 832.64 533.094 812.766C615.18 784.259 719.839 793.796 804.948 795.111C954.423 797.422 1112.4 842.08 1257.25 880.667C1376.39 912.408 1482.3 951.954 1606.26 939.062C1681.95 931.191 1766.08 936.127 1830.63 883.383C1866.22 854.305 1916.51 822.156 1958.84 810.05C2043.67 785.79 2118.88 734.26 2183.21 660.667C2209.62 630.461 2217.66 624 2258 624" stroke="#F4C542" stroke-width="20" stroke-linecap="round"/>
<path d="M228 1134C538.876 1042.66 862.443 984 1195.43 984C1355.77 984 1528.73 1036.31 1685.08 1063.48C1737.18 1072.53 1788.61 1083.2 1840.15 1091.46C1938.22 1107.18 2098.62 1107.32 2196.39 1088.66C2253.21 1077.82 2320.97 1053.4 2378 1053.4" stroke="#F4C542" stroke-width="20" stroke-linecap="round"/>
<path d="M188 1395.57C216.712 1395.57 247.77 1392.32 276.295 1396.24C311.622 1401.09 341.267 1427.44 377.204 1431.28C430.551 1436.98 487.531 1431.95 541.182 1431.95C630.607 1431.95 699.579 1434.97 781.542 1395.57C893.289 1341.85 1030.79 1312.74 1148.04 1268.9C1247.96 1231.53 1387.57 1273.73 1484.4 1294.5C1573.95 1313.71 1679.52 1318.58 1765.4 1347.73C1827.89 1368.93 1882.85 1383.44 1949 1383.44C2035.16 1383.44 2165.98 1406.75 2244.02 1371.31C2289.03 1350.88 2376.4 1328.93 2408 1298.54" stroke="#F4C542" stroke-width="20" stroke-linecap="round"/>
<path d="M158 1664C278.241 1658.39 407.665 1623.11 527.503 1605.21C617.776 1591.73 698.253 1569.94 790.633 1569.94C886.885 1569.94 997.904 1583.7 1090.85 1558.18C1212.54 1524.77 1364.24 1460.87 1493.25 1464.12C1588.62 1466.53 1675.13 1506.01 1764.78 1529.44C1805.76 1540.15 1838.92 1562.96 1878.15 1575.16C1920.05 1588.2 1965.45 1590.59 2006.91 1605.21C2150.49 1655.84 2287.06 1652.24 2438 1652.24" stroke="#F4C542" stroke-width="20" stroke-linecap="round"/>
<path d="M507.997 1953.18C569.921 1897.45 661.147 1886.78 738.754 1863C789.617 1847.41 837.821 1825.28 889.94 1812.6C932.738 1802.19 992.937 1806.84 1035.82 1812.6C1169.86 1830.61 1304.24 1853.36 1437.66 1875.6C1598.45 1902.4 1753.6 1929.31 1916.41 1929.31C1954.87 1929.31 1993.33 1929.31 2031.79 1929.31C2091.2 1929.31 2144.16 1905.44 2202.87 1905.44" stroke="#F4C542" stroke-width="20" stroke-linecap="round"/>
<path fill-rule="evenodd" clip-rule="evenodd" d="M2325.83 1239.88L2325.99 1250.4L2326.46 1260.94L2327.25 1271.49L2328.34 1282.08L2329.74 1292.72L2331.44 1303.41L2333.42 1314.17L2335.69 1325.01L2338.22 1335.93L2341.01 1346.95L2344.04 1358.08L2347.3 1369.32L2350.76 1380.67L2354.41 1392.15L2358.22 1403.77L2362.18 1415.51L2366.25 1427.4L2370.41 1439.42L2374.62 1451.58L2378.86 1463.88L2383.1 1476.31L2387.29 1488.87L2391.4 1501.55L2395.39 1514.34L2399.23 1527.23L2402.87 1540.22L2406.26 1553.28L2409.37 1566.4L2412.15 1579.56L2414.57 1592.74L2416.57 1605.92L2418.12 1619.08L2419.18 1632.18L2419.71 1645.21L2419.68 1658.14L2419.05 1670.93L2417.79 1683.57L2415.89 1696.02L2413.32 1708.26L2410.06 1720.26L2406.11 1731.99L2401.46 1743.43L2396.1 1754.56L2390.05 1765.36L2383.32 1775.81L2375.92 1785.89L2367.87 1795.6L2359.21 1804.92L2349.95 1813.85L2340.15 1822.39L2329.83 1830.54L2319.04 1838.3L2307.82 1845.69L2296.22 1852.71L2284.29 1859.38L2272.08 1865.71L2259.64 1871.73L2247.01 1877.46L2234.26 1882.92L2221.43 1888.14L2208.56 1893.15L2195.7 1897.99L2182.9 1902.67L2170.2 1907.24L2157.64 1911.73L2145.26 1916.18L2133.1 1920.61L2121.18 1925.07L2109.55 1929.6L2098.22 1934.23L2087.24 1938.99L2076.62 1943.95L2066.39 1949.12L2056.56 1954.55L2047.18 1960.29L2038.24 1966.38L2029.78 1972.86L2021.81 1979.79L2014.35 1987.21L2007.39 1995.14L2000.87 2003.56L1994.75 2012.46L1988.99 2021.81L1983.53 2031.6L1978.34 2041.8L1973.37 2052.39L1968.59 2063.35L1963.95 2074.65L1959.42 2086.26L1954.95 2098.15L1950.52 2110.3L1946.07 2122.66L1941.59 2135.21L1937.03 2147.9L1932.35 2160.69L1927.53 2173.55L1922.54 2186.41L1917.33 2199.25L1911.89 2212.01L1906.18 2224.65L1900.19 2237.11L1893.88 2249.34L1887.24 2261.29L1880.25 2272.92L1872.89 2284.17L1865.16 2295L1857.04 2305.36L1848.54 2315.2L1839.64 2324.5L1830.34 2333.22L1820.67 2341.31L1810.61 2348.77L1800.19 2355.55L1789.42 2361.66L1778.32 2367.07L1766.9 2371.78L1755.19 2375.78L1743.21 2379.1L1730.99 2381.72L1718.56 2383.68L1705.93 2384.98L1693.15 2385.66L1680.23 2385.74L1667.21 2385.25L1654.11 2384.24L1640.96 2382.72L1627.78 2380.75L1614.6 2378.37L1601.44 2375.61L1588.31 2372.53L1575.25 2369.16L1562.25 2365.54L1549.35 2361.72L1536.55 2357.74L1523.86 2353.63L1511.29 2349.45L1498.85 2345.21L1486.54 2340.97L1474.37 2336.75L1462.34 2332.59L1450.44 2328.51L1438.69 2324.54L1427.06 2320.72L1415.57 2317.06L1404.2 2313.58L1392.96 2310.3L1381.83 2307.25L1370.8 2304.45L1359.87 2301.89L1349.02 2299.6L1338.26 2297.6L1327.56 2295.88L1316.92 2294.46L1306.32 2293.34L1295.77 2292.53L1285.23 2292.03L1274.71 2291.85L1264.19 2291.98L1253.66 2292.43L1243.1 2293.19L1232.52 2294.26L1221.88 2295.63L1211.2 2297.3L1200.44 2299.27L1189.61 2301.51L1178.69 2304.02L1167.68 2306.79L1156.57 2309.8L1145.34 2313.04L1133.99 2316.49L1122.52 2320.12L1110.92 2323.93L1099.18 2327.87L1087.31 2331.93L1075.3 2336.08L1063.15 2340.3L1050.86 2344.54L1038.44 2348.77L1025.89 2352.97L1013.22 2357.09L1000.44 2361.09L987.552 2364.94L974.573 2368.6L961.517 2372.01L948.402 2375.14L935.244 2377.96L922.064 2380.4L908.883 2382.44L895.726 2384.03L882.617 2385.13L869.581 2385.7L856.645 2385.71L843.838 2385.13L831.187 2383.93L818.719 2382.08L806.463 2379.56L794.445 2376.36L782.691 2372.46L771.224 2367.86L760.068 2362.56L749.243 2356.57L738.766 2349.89L728.653 2342.54L718.916 2334.55L709.563 2325.93L700.6 2316.72L692.029 2306.96L683.849 2296.68L676.056 2285.92L668.641 2274.74L661.593 2263.17L654.899 2251.26L648.54 2239.07L642.496 2226.65L636.746 2214.04L631.263 2201.29L626.023 2188.46L620.994 2175.59L616.148 2162.74L611.453 2149.93L606.875 2137.22L602.38 2124.65L597.933 2112.25L593.5 2100.07L589.042 2088.13L584.522 2076.47L579.903 2065.12L575.147 2054.11L570.212 2043.46L565.059 2033.2L559.647 2023.34L553.934 2013.92L547.874 2004.95L541.423 1996.45L534.533 1988.44L527.154 1980.94L519.265 1973.94L510.881 1967.39L502.021 1961.24L492.705 1955.44L482.952 1949.96L472.783 1944.75L462.223 1939.77L451.293 1934.97L440.021 1930.33L428.434 1925.79L416.56 1921.32L404.433 1916.88L392.084 1912.44L379.551 1907.96L366.871 1903.41L354.085 1898.74L341.235 1893.93L328.365 1888.95L315.522 1883.77L302.753 1878.34L290.107 1872.66L277.633 1866.69L265.383 1860.41L253.405 1853.79L241.751 1846.83L230.469 1839.51L219.605 1831.8L209.207 1823.72L199.316 1815.24L189.972 1806.37L181.21 1797.11L173.063 1787.46L165.559 1777.44L158.718 1767.05L152.56 1756.3L147.094 1745.23L142.329 1733.83L138.265 1722.14L134.898 1710.19L132.218 1697.98L130.209 1685.56L128.854 1672.95L128.126 1660.18L128 1647.28L128.443 1634.26L129.42 1621.17L130.896 1608.02L132.83 1594.84L135.181 1581.66L137.909 1568.49L140.97 1555.37L144.321 1542.3L147.921 1529.3L151.727 1516.39L155.698 1503.58L159.793 1490.88L163.974 1478.3L168.204 1465.85L172.447 1453.53L176.669 1441.35L180.838 1429.3L184.925 1417.4L188.9 1405.63L192.738 1394L196.415 1382.49L199.909 1371.12L203.199 1359.86L206.267 1348.72L209.095 1337.68L211.671 1326.74L213.979 1315.89L216.01 1305.12L217.752 1294.42L219.198 1283.78L220.341 1273.18L221.176 1262.62L221.698 1252.08L221.906 1241.56L221.799 1231.04L221.376 1220.51L220.641 1209.96L219.595 1199.37L218.245 1188.74L216.596 1178.06L214.657 1167.31L212.436 1156.49L209.944 1145.58L207.194 1134.57L204.201 1123.47L200.98 1112.25L197.549 1100.91L193.928 1089.45L190.139 1077.86L186.204 1066.13L182.15 1054.27L178.004 1042.27L173.796 1030.13L169.556 1017.86L165.318 1005.45L161.117 992.91L156.99 980.249L152.976 967.473L149.113 954.593L145.443 941.62L142.008 928.571L138.85 915.459L136.011 902.304L133.535 889.125L131.464 875.944L129.838 862.784L128.698 849.669L128.081 836.627L128.022 823.683L128.555 810.864L129.708 798.199L131.506 785.716L133.97 773.442L137.118 761.404L140.959 749.628L145.501 738.138L150.743 726.956L156.682 716.104L163.307 705.599L170.602 695.456L178.547 685.688L187.116 676.304L196.278 667.31L205.999 658.708L216.241 650.498L226.961 642.674L238.114 635.229L249.656 628.153L261.535 621.431L273.704 615.046L286.112 608.978L298.709 603.205L311.444 597.702L324.269 592.443L337.136 587.399L349.997 582.539L362.808 577.833L375.526 573.247L388.11 568.747L400.522 564.298L412.723 559.864L424.681 555.41L436.363 550.897L447.739 546.287L458.78 541.543L469.461 536.624L479.757 531.49L489.644 526.1L499.102 520.412L508.11 514.381L516.648 507.963L524.696 501.11L532.238 493.772L539.278 485.923L545.864 477.578L552.043 468.755L557.862 459.474L563.366 449.755L568.596 439.619L573.596 429.089L578.405 418.188L583.064 406.942L587.61 395.379L592.084 383.527L596.521 371.418L600.96 359.086L605.435 346.566L609.983 333.897L614.638 321.118L619.432 308.271L624.399 295.401L629.569 282.554L634.972 269.777L640.634 257.119L646.581 244.63L652.838 232.36L659.423 220.359L666.357 208.677L673.653 197.363L681.325 186.465L689.381 176.028L697.827 166.095L706.665 156.706L715.894 147.897L725.51 139.7L735.505 132.143L745.867 125.249L756.583 119.036L767.636 113.515L779.006 108.694L790.671 104.575L802.608 101.152L814.791 98.4175L827.194 96.3563L839.79 94.9494L852.551 94.1731L865.448 94L878.455 94.3988L891.544 95.3351L904.689 96.7722L917.864 98.671L931.047 100.991L944.214 103.69L957.345 106.726L970.422 110.056L983.427 113.638L996.345 117.428L1009.16 121.388L1021.87 125.474L1034.46 129.65L1046.92 133.878L1059.25 138.121L1071.44 142.346L1083.5 146.52L1095.42 150.614L1107.19 154.599L1118.84 158.45L1130.35 162.14L1141.74 165.649L1153 168.956L1164.15 172.042L1175.2 174.891L1186.14 177.487L1197 179.817L1207.78 181.87L1218.49 183.635L1229.13 185.105L1239.73 186.273L1250.3 187.132L1260.84 187.679L1271.36 187.912L1281.88 187.83L1292.41 187.433L1302.96 186.722L1313.54 185.701L1324.16 184.375L1334.84 182.75L1345.58 180.833L1356.4 178.634L1367.3 176.163L1378.3 173.434L1389.4 170.459L1400.61 167.256L1411.94 163.841L1423.39 160.234L1434.97 156.457L1446.68 152.534L1458.53 148.488L1470.52 144.349L1482.65 140.144L1494.92 135.905L1507.31 131.666L1519.84 127.461L1532.49 123.327L1545.26 119.302L1558.13 115.425L1571.1 111.738L1584.14 108.283L1597.25 105.101L1610.4 102.236L1623.58 99.7294L1636.76 97.6243L1649.93 95.9617L1663.04 94.7813L1676.09 94.1212L1689.05 94.017L1701.88 94.5014L1714.55 95.6038L1727.05 97.3497L1739.34 99.7605L1751.4 102.853L1763.2 106.639L1774.71 111.124L1785.92 116.311L1796.8 122.195L1807.33 128.766L1817.51 136.008L1827.3 143.902L1836.72 152.423L1845.74 161.539L1854.38 171.217L1862.62 181.418L1870.47 192.102L1877.95 203.223L1885.05 214.735L1891.8 226.589L1898.21 238.737L1904.31 251.128L1910.1 263.711L1915.62 276.438L1920.9 289.257L1925.96 302.122L1930.84 314.985L1935.55 327.802L1940.15 340.529L1944.65 353.125L1949.1 365.552L1953.54 377.772L1957.99 389.75L1962.5 401.455L1967.1 412.856L1971.83 423.925L1976.73 434.635L1981.85 444.963L1987.22 454.884L1992.88 464.377L1998.88 473.421L2005.27 481.997L2012.08 490.085L2019.38 497.667L2027.19 504.746L2035.5 511.366L2044.28 517.576L2053.53 523.422L2063.21 528.949L2073.31 534.2L2083.81 539.217L2094.69 544.039L2105.91 548.709L2117.45 553.263L2129.27 557.741L2141.36 562.18L2153.68 566.617L2166.19 571.088L2178.85 575.629L2191.62 580.274L2204.46 585.056L2217.33 590.008L2230.18 595.161L2242.96 600.543L2255.63 606.184L2268.14 612.108L2280.43 618.339L2292.45 624.898L2304.16 631.803L2315.51 639.07L2326.44 646.712L2336.91 654.737L2346.89 663.151L2356.32 671.958L2365.18 681.156L2373.43 690.742L2381.03 700.707L2387.98 711.04L2394.25 721.729L2399.83 732.755L2404.7 744.101L2408.88 755.743L2412.36 767.659L2415.15 779.824L2417.26 792.211L2418.72 804.792L2419.54 817.54L2419.76 830.428L2419.41 843.427L2418.51 856.511L2417.11 869.652L2415.25 882.826L2412.96 896.009L2410.29 909.178L2407.28 922.313L2403.97 935.394L2400.41 948.405L2396.64 961.331L2392.69 974.158L2388.61 986.875L2384.44 999.474L2380.22 1011.95L2375.97 1024.29L2371.74 1036.49L2367.56 1048.56L2363.46 1060.48L2359.47 1072.27L2355.61 1083.93L2351.9 1095.45L2348.38 1106.85L2345.05 1118.12L2341.95 1129.28L2339.08 1140.33L2336.47 1151.29L2334.11 1162.15L2332.04 1172.93L2330.25 1183.65L2328.76 1194.3L2327.56 1204.9L2326.68 1215.47L2326.11 1226.01L2325.85 1236.53L2325.83 1239.88Z" stroke="#E989C2" stroke-width="186.518"/>
<defs>
<linearGradient id="paint0_linear_7_17" x1="1355.53" y1="129.562" x2="1284.55" y2="2420.2" gradientUnits="userSpaceOnUse">
<stop stop-color="#2B384F"/>
<stop offset="1" stop-color="#428F1A"/>
</linearGradient>
<linearGradient id="paint1_linear_7_17" x1="1355.53" y1="129.562" x2="1284.55" y2="2420.2" gradientUnits="userSpaceOnUse">
<stop stop-color="#2B384F"/>
<stop offset="1" stop-color="#428F1A"/>
</linearGradient>
</defs>
</svg>
