<svg width="277" height="277" viewBox="0 0 277 277" fill="none" xmlns="http://www.w3.org/2000/svg">
<mask id="path-1-inside-1_83_64" fill="white">
<path fill-rule="evenodd" clip-rule="evenodd" d="M20.85 139.506C7.84233 124.739 0 105.642 0 84.7865C0 37.9602 39.5354 0 88.3047 0C106.347 0 123.125 5.19513 137.105 14.1124C151.085 5.19533 167.863 0.000339432 185.905 0.000339432C234.674 0.000339432 274.209 37.9605 274.209 84.7868C274.209 104.438 267.247 122.527 255.561 136.905C268.569 151.673 276.411 170.769 276.411 191.625C276.411 238.451 236.875 276.411 188.106 276.411C170.064 276.411 153.286 271.216 139.306 262.299C125.326 271.216 108.548 276.411 90.5063 276.411C41.7369 276.411 2.20157 238.451 2.20157 191.625C2.20157 171.974 9.16419 153.884 20.85 139.506Z"/>
</mask>
<path fill-rule="evenodd" clip-rule="evenodd" d="M20.85 139.506C7.84233 124.739 0 105.642 0 84.7865C0 37.9602 39.5354 0 88.3047 0C106.347 0 123.125 5.19513 137.105 14.1124C151.085 5.19533 167.863 0.000339432 185.905 0.000339432C234.674 0.000339432 274.209 37.9605 274.209 84.7868C274.209 104.438 267.247 122.527 255.561 136.905C268.569 151.673 276.411 170.769 276.411 191.625C276.411 238.451 236.875 276.411 188.106 276.411C170.064 276.411 153.286 271.216 139.306 262.299C125.326 271.216 108.548 276.411 90.5063 276.411C41.7369 276.411 2.20157 238.451 2.20157 191.625C2.20157 171.974 9.16419 153.884 20.85 139.506Z" fill="#D9CBCB"/>
<path d="M20.85 139.506L29.7874 146.77L35.9344 139.207L29.4925 131.894L20.85 139.506ZM137.105 14.1124L130.911 23.8224L137.105 27.7729L143.298 23.8224L137.105 14.1124ZM255.561 136.905L246.624 129.641L240.477 137.204L246.918 144.517L255.561 136.905ZM139.306 262.299L145.5 252.589L139.306 248.638L133.113 252.589L139.306 262.299ZM29.4925 131.894C18.2312 119.109 11.5171 102.683 11.5171 84.7865H-11.5171C-11.5171 108.601 -2.54655 130.369 12.2074 147.119L29.4925 131.894ZM11.5171 84.7865C11.5171 44.7578 45.4503 11.5171 88.3047 11.5171V-11.5171C33.6205 -11.5171 -11.5171 31.1626 -11.5171 84.7865H11.5171ZM88.3047 11.5171C104.113 11.5171 118.748 16.0642 130.911 23.8224L143.298 4.40234C127.501 -5.67398 108.58 -11.5171 88.3047 -11.5171V11.5171ZM143.298 23.8224C155.461 16.0645 170.096 11.5175 185.905 11.5175V-11.5168C165.63 -11.5168 146.709 -5.67379 130.911 4.40229L143.298 23.8224ZM185.905 11.5175C228.759 11.5175 262.692 44.7581 262.692 84.7868H285.726C285.726 31.163 240.589 -11.5168 185.905 -11.5168V11.5175ZM262.692 84.7868C262.692 101.654 256.729 117.207 246.624 129.641L264.498 144.169C277.764 127.847 285.726 107.221 285.726 84.7868H262.692ZM287.928 191.625C287.928 167.81 278.957 146.043 264.204 129.292L246.918 144.517C258.18 157.303 264.894 173.729 264.894 191.625H287.928ZM188.106 287.928C242.79 287.928 287.928 245.248 287.928 191.625H264.894C264.894 231.653 230.96 264.894 188.106 264.894V287.928ZM133.113 272.009C148.91 282.085 167.831 287.928 188.106 287.928V264.894C172.298 264.894 157.663 260.347 145.5 252.589L133.113 272.009ZM90.5063 287.928C110.781 287.928 129.702 282.085 145.5 272.009L133.113 252.589C120.95 260.347 106.315 264.894 90.5063 264.894V287.928ZM-9.31555 191.625C-9.31555 245.248 35.822 287.928 90.5063 287.928V264.894C47.6519 264.894 13.7187 231.653 13.7187 191.625H-9.31555ZM11.9125 132.242C-1.35305 148.564 -9.31555 169.19 -9.31555 191.625H13.7187C13.7187 174.757 19.6814 159.204 29.7874 146.77L11.9125 132.242Z" fill="#191919" mask="url(#path-1-inside-1_83_64)"/>
<path d="M76.4791 137.33L134.484 133.321L180.502 130.556L190.147 133.321V123.92H169.756L154.324 126.271H143.302H134.484L105.137 128.206L74.1368 130.556L76.4791 137.33Z" fill="#6D6D6D"/>
<path fill-rule="evenodd" clip-rule="evenodd" d="M80.888 248.613V263.543H105.137H154.324H194.556V253.866V237.969V226.771V209.353L192.489 189.585V170.507L190.147 147.836V133.321L180.502 130.556L134.484 133.321L76.4791 137.33V147.836L80.888 248.613ZM98.2482 160.001H88.1903V176.175L91.7726 202.026V214.191V237.969L94.2526 253.866H184.498V241.701V226.771V211.288L183.258 194.838V178.249L180.502 154.333L175.542 151.983L180.502 137.33L171.547 145.486H138.48L100.728 147.836L90.3772 139.119L98.2482 151.983V160.001Z" fill="#9A9393"/>
<path fill-rule="evenodd" clip-rule="evenodd" d="M74.1368 130.556L105.137 128.206L134.484 126.271H143.302H154.324L169.756 123.92H190.147V107.608L184.498 104.014H180.502L173.338 93.0928L166.173 84.3837L151.844 77.0569L141.235 73.7392L138.48 71.1126H124.702L121.808 73.7392L111.751 77.0569L100.728 82.4483L91.7726 89.0839L86.3992 96.4106L80.888 107.608L76.4791 111.617L72.0701 118.667V126.271L74.1368 130.556ZM80.888 118.667V123.92H88.1903L97.146 122.123L108.444 121.709H121.808L141.235 120.188H155.151L169.756 118.944L177.885 118.253H183.671L185.325 115.488L184.498 111.617H180.502H173.338L169.756 109.129L166.173 100.973L161.351 93.0928L147.849 89.0839L136.689 86.1808H126.769L119.053 89.0839L108.444 91.0192L98.2482 98.8989L91.7726 111.617V118.667H88.1903H80.888Z" fill="#868686"/>
<path d="M124.013 96.4106L123.324 101.111L124.426 102.078L124.013 103.876L124.84 106.087L125.804 106.917L125.666 108.99L126.08 110.788H128.422L131.866 110.096L133.106 108.99V107.193L133.933 104.29L134.071 101.525L134.553 100.212L135.035 98.8989V95.8576L131.591 93.784H128.973L126.08 94.1987L124.013 96.4106Z" fill="#9B9595"/>
<path d="M135.035 95.8576V98.8989L134.553 100.212L137.515 100.558L140.271 100.973L142.062 102.631L145.506 106.779L146.609 109.82L147.435 112.585L149.089 109.82L148.4 106.226L145.093 100.973L146.609 101.525L149.778 105.258L151.707 108.438L152.395 112.585L153.222 114.105L155.978 112.308L156.391 109.543L153.222 104.29L152.12 100.973L155.151 104.981L158.32 110.649L160.387 115.211L160.938 118.667L162.316 116.732L163.418 111.755L162.316 105.811L159.147 100.143L157.907 98.8989L152.947 94.337L149.364 92.1251L144.404 90.6045L140.271 90.0515L139.72 92.6781L138.204 95.1664L135.035 95.8576Z" fill="#5A5A5A"/>
<path fill-rule="evenodd" clip-rule="evenodd" d="M88.1903 160.001H98.2482V151.983L90.3772 139.119L100.728 147.836L138.48 145.486H171.547L180.502 137.33L175.542 151.983L180.502 154.333L183.258 178.249V194.838L184.498 211.288V226.771V241.701V253.866H94.2526L91.7726 237.969V214.191V202.026L88.1903 176.175V160.001ZM80.888 118.667V123.92H88.1903L97.146 122.123L108.444 121.709H121.808L141.235 120.188H155.151L169.756 118.944L177.885 118.253H183.671L185.325 115.488L184.498 111.617H180.502H173.338L169.756 109.129L166.173 100.973L161.351 93.0928L147.849 89.0839L136.689 86.1808H126.769L119.053 89.0839L108.444 91.0192L98.2482 98.8989L91.7726 111.617V118.667H88.1903H80.888ZM124.013 96.4106L126.08 94.1987L128.973 93.784H131.591L135.035 95.8576L138.204 95.1664L139.72 92.6781L140.271 90.0515L144.404 90.6045L149.364 92.1251L152.947 94.337L157.907 98.8989L159.147 100.143L162.316 105.811L163.418 111.755L162.316 116.732L160.938 118.667L160.387 115.211L158.32 110.649L155.151 104.981L152.12 100.973L153.222 104.29L156.391 109.543L155.978 112.308L153.222 114.105L152.395 112.585L151.707 108.438L149.778 105.258L146.609 101.525L145.093 100.973L148.4 106.226L149.089 109.82L147.435 112.585L146.609 109.82L145.506 106.779L142.062 102.631L140.271 100.973L137.515 100.558L134.553 100.212L134.071 101.525L133.933 104.29L133.106 107.193V108.99L131.866 110.096L128.422 110.788H126.08L125.666 108.99L125.804 106.917L124.84 106.087L124.013 103.876L124.426 102.078L123.324 101.111H118.088L115.195 104.567V111.617L114.093 114.52L111.751 111.617L112.302 105.534L109.684 109.267L108.444 114.52L109.684 118.253L105.137 115.626L103.622 110.511L106.239 102.77L112.302 98.8989L106.239 100.281L102.795 105.534L100.728 111.617L98.2482 118.253L97.8349 120.879L96.5948 118.253L95.7682 110.511L97.146 106.226L101.968 98.8989L107.617 96.4106L111.751 91.8487L120.706 90.1898L119.053 92.8163L121.808 96.4106H124.013Z" fill="#D9D9D9"/>
<path d="M95.7682 110.511L96.5948 118.253L97.8349 120.879L98.2482 118.253L100.728 111.617L102.795 105.534L106.239 100.281L112.302 98.8989L106.239 102.77L103.622 110.511L105.137 115.626L109.684 118.253L108.444 114.52L109.684 109.267L112.302 105.534L111.751 111.617L114.093 114.52L115.195 111.617V104.567L118.088 101.111H123.324L124.013 96.4106H121.808L119.053 92.8163L120.706 90.1898L111.751 91.8487L107.617 96.4106L101.968 98.8989L97.146 106.226L95.7682 110.511Z" fill="#5A5A5A"/>
<path d="M190.147 133.321V147.836L192.489 170.507V189.585L194.556 209.353V226.771V237.969V253.866V263.543L209.591 261.331L207.194 196.605L202.835 100.558L190.147 107.608V123.92V133.321Z" fill="#444444"/>
<path d="M184.498 104.014L190.147 107.608L202.835 100.558L188.7 97.3304L183.878 91.2479L178.918 83.2299L169.549 76.6899L162.316 73.7391L155.082 70.7883L148.4 71.1126H138.48L141.235 73.7392L151.844 77.0569L166.173 84.3837L173.338 93.0928L180.502 104.014H184.498Z" fill="#505050"/>
<path d="M76.4791 137.33V147.836L80.888 248.613V263.543H105.137H154.324H194.556M76.4791 137.33L134.484 133.321L180.502 130.556L190.147 133.321M76.4791 137.33L74.1368 130.556M190.147 133.321V147.836L192.489 170.507V189.585L194.556 209.353V226.771V237.969V253.866V263.543M190.147 133.321V123.92M194.556 263.543L209.591 261.331L207.194 196.605L202.835 100.558M74.1368 130.556L105.137 128.206L134.484 126.271H143.302H154.324L169.756 123.92H190.147M74.1368 130.556L72.0701 126.271V118.667L76.4791 111.617L80.888 107.608L86.3992 96.4106L91.7726 89.0839L100.728 82.4483L111.751 77.0569L121.808 73.7392L124.702 71.1126H138.48M190.147 123.92V107.608M190.147 107.608L184.498 104.014H180.502L173.338 93.0928L166.173 84.3837L151.844 77.0569L141.235 73.7392L138.48 71.1126M190.147 107.608L202.835 100.558M138.48 71.1126H148.4L155.082 70.7883L162.316 73.7391L169.549 76.6899L178.918 83.2299L183.878 91.2479L188.7 97.3304L202.835 100.558M124.013 96.4106H121.808L119.053 92.8163L120.706 90.1898L111.751 91.8487L107.617 96.4106L101.968 98.8989L97.146 106.226L95.7682 110.511L96.5948 118.253L97.8349 120.879L98.2482 118.253L100.728 111.617L102.795 105.534L106.239 100.281L112.302 98.8989L106.239 102.77L103.622 110.511L105.137 115.626L109.684 118.253L108.444 114.52L109.684 109.267L112.302 105.534L111.751 111.617L114.093 114.52L115.195 111.617V104.567L118.088 101.111H123.324M124.013 96.4106L123.324 101.111M124.013 96.4106L126.08 94.1987L128.973 93.784H131.591L135.035 95.8576M123.324 101.111L124.426 102.078L124.013 103.876L124.84 106.087L125.804 106.917L125.666 108.99L126.08 110.788H128.422L131.866 110.096L133.106 108.99V107.193L133.933 104.29L134.071 101.525L134.553 100.212M135.035 95.8576V98.8989L134.553 100.212M135.035 95.8576L138.204 95.1664L139.72 92.6781L140.271 90.0515L144.404 90.6045L149.364 92.1251L152.947 94.337L157.907 98.8989L159.147 100.143L162.316 105.811L163.418 111.755L162.316 116.732L160.938 118.667L160.387 115.211L158.32 110.649L155.151 104.981L152.12 100.973L153.222 104.29L156.391 109.543L155.978 112.308L153.222 114.105L152.395 112.585L151.707 108.438L149.778 105.258L146.609 101.525L145.093 100.973L148.4 106.226L149.089 109.82L147.435 112.585L146.609 109.82L145.506 106.779L142.062 102.631L140.271 100.973L137.515 100.558L134.553 100.212M88.1903 160.001H98.2482V151.983L90.3772 139.119L100.728 147.836L138.48 145.486H171.547L180.502 137.33L175.542 151.983L180.502 154.333L183.258 178.249V194.838L184.498 211.288V226.771V241.701V253.866H94.2526L91.7726 237.969V214.191V202.026L88.1903 176.175V160.001ZM80.888 123.92V118.667H88.1903H91.7726V111.617L98.2482 98.8989L108.444 91.0192L119.053 89.0839L126.769 86.1808H136.689L147.849 89.0839L161.351 93.0928L166.173 100.973L169.756 109.129L173.338 111.617H180.502H184.498L185.325 115.488L183.671 118.253H177.885L169.756 118.944L155.151 120.188H141.235L121.808 121.709H108.444L97.146 122.123L88.1903 123.92H80.888Z" stroke="black" stroke-width="1.1161"/>
<path d="M67.2895 246.871C73.7792 252.398 76.8855 266.595 76.8855 266.595H112.676L99.9677 259.232L92.1871 249.764C92.1871 249.764 91.3294 242.572 93.7887 239.244C95.0321 237.561 96.9887 235.952 97.8929 235.825C102.058 235.242 102.821 238.192 102.821 238.192C102.821 238.192 103.828 234.858 102.821 233.195C101.178 230.485 97.6746 231.962 94.7806 233.195C91.8074 234.462 89.0749 239.244 89.0749 239.244L89.853 255.813L88.2969 245.293L89.0749 239.244C89.0749 239.244 89.1325 235.463 89.853 233.195C91.3516 228.478 97.8929 223.464 97.8929 223.464L105.155 220.834L114.751 219.256H118.122C118.122 219.256 110.76 215.818 105.733 215.703C100.27 215.579 97.2207 216.278 92.1871 219.256C86.312 222.733 89.2842 232.07 82.5912 230.828C77.3363 229.853 76.8783 224.347 75.07 219.256C72.461 211.911 75.07 199.269 75.07 199.269L78.9603 184.804L84.666 174.021L72.4765 187.434C72.4765 187.434 64.1989 203.282 65.2147 213.996C65.9724 221.988 72.4765 233.195 72.4765 233.195C72.4765 233.195 68.7287 226.63 65.2147 223.464C57.2834 216.318 49.5843 217.167 39.0203 216.1C32.8725 215.479 34.2655 216.1 34.2655 216.1L45.7634 223.464L61.3244 230.828L72.4765 245.293L76.8855 255.813C76.8855 255.813 71.724 244.304 65.2147 240.822C60.6479 238.379 52.2471 238.192 52.2471 238.192H45.7634L43.1699 240.822H54.322C54.322 240.822 63.0223 243.237 67.2895 246.871Z" fill="#49987E"/>
<path d="M168.955 266.595C168.955 266.595 171.48 257.899 168.955 253.446C166.618 249.323 163.367 248.127 158.84 246.871C154.835 245.76 148.207 246.871 148.207 246.871C148.207 246.871 154.518 243.931 158.84 243.715C164.042 243.455 168.463 242.828 171.808 246.871C173.561 248.99 174.401 253.446 174.401 253.446C174.401 253.446 177.105 249.633 176.995 246.871C176.851 243.257 174.601 241.497 171.808 239.244C168.997 236.977 163.249 235.825 163.249 235.825C163.249 235.825 171.192 232.844 174.401 235.825C176.006 237.315 176.995 240.822 176.995 240.822L182.182 253.446C182.182 253.446 183.069 240.737 185.813 233.195C188.8 224.983 189.705 218.31 197.224 213.996C200.542 212.093 206.561 211.103 206.561 211.103H220.047C220.047 211.103 222.433 210.886 223.937 211.103C229.093 211.849 234.571 219.256 234.571 219.256H214.601H209.154C209.154 219.256 204.452 218.421 201.633 219.256C195.344 221.12 192.037 233.195 192.037 233.195V246.871C192.037 246.871 192.325 230.465 199.818 226.883C204.489 224.65 213.045 226.883 213.045 226.883L226.012 230.828H216.416L205.264 232.406C205.264 232.406 200.534 239.867 199.818 245.293C198.85 252.625 204.227 263.703 204.227 263.703C204.227 263.703 200.466 252.228 204.227 246.871C206.935 243.012 214.601 240.822 214.601 240.822L216.416 243.715L210.71 246.871L206.561 259.232V263.703L168.955 266.595Z" fill="#49987E"/>
<path d="M106.97 243.715C100.897 250.578 112.676 266.595 112.676 266.595H121.234L118.122 262.651C118.122 262.651 114.818 257.279 114.751 253.446C114.68 249.419 115.666 246.882 118.122 243.715C119.813 241.534 123.569 239.244 123.569 239.244C123.569 239.244 118.082 238.36 114.751 239.244C111.371 240.14 109.302 241.08 106.97 243.715Z" fill="#49987E"/>
<path d="M76.8855 266.595C76.8855 266.595 73.7792 252.398 67.2895 246.871C63.0223 243.237 54.322 240.822 54.322 240.822H43.1699L45.7634 238.192H52.2471C52.2471 238.192 60.6479 238.379 65.2147 240.822C71.724 244.304 76.8855 255.813 76.8855 255.813L72.4765 245.293L61.3244 230.828L45.7634 223.464L34.2655 216.1C34.2655 216.1 32.8725 215.479 39.0203 216.1C49.5843 217.167 57.2834 216.318 65.2147 223.464C68.7287 226.63 72.4765 233.195 72.4765 233.195C72.4765 233.195 65.9724 221.988 65.2147 213.996C64.1989 203.282 72.4765 187.434 72.4765 187.434L84.666 174.021L78.9603 184.804L75.07 199.269C75.07 199.269 72.461 211.911 75.07 219.256C76.8783 224.347 77.3363 229.853 82.5912 230.828C89.2842 232.07 86.312 222.733 92.1871 219.256C97.2207 216.278 100.27 215.579 105.733 215.703C110.76 215.818 118.122 219.256 118.122 219.256H114.751L105.155 220.834L97.8929 223.464C97.8929 223.464 91.3516 228.478 89.853 233.195C89.1325 235.463 89.0749 239.244 89.0749 239.244M76.8855 266.595H121.234M76.8855 266.595H112.676M89.0749 239.244L88.2969 245.293L89.853 255.813L89.0749 239.244ZM89.0749 239.244C89.0749 239.244 91.8074 234.462 94.7806 233.195C97.6746 231.962 101.178 230.485 102.821 233.195C103.828 234.858 102.821 238.192 102.821 238.192C102.821 238.192 102.058 235.242 97.8929 235.825C96.9887 235.952 95.0321 237.561 93.7887 239.244C91.3294 242.572 92.1871 249.764 92.1871 249.764L99.9677 259.232L112.676 266.595M112.676 266.595C112.676 266.595 100.897 250.578 106.97 243.715C109.302 241.08 111.371 240.14 114.751 239.244C118.082 238.36 123.569 239.244 123.569 239.244C123.569 239.244 119.813 241.534 118.122 243.715C115.666 246.882 114.68 249.419 114.751 253.446C114.818 257.279 118.122 262.651 118.122 262.651L121.234 266.595M112.676 266.595H121.234M168.955 266.595C168.955 266.595 171.48 257.899 168.955 253.446C166.618 249.323 163.367 248.127 158.84 246.871C154.835 245.76 148.207 246.871 148.207 246.871C148.207 246.871 154.518 243.931 158.84 243.715C164.042 243.455 168.463 242.828 171.808 246.871C173.561 248.99 174.401 253.446 174.401 253.446C174.401 253.446 177.105 249.633 176.995 246.871C176.851 243.257 174.601 241.497 171.808 239.244C168.997 236.977 163.249 235.825 163.249 235.825C163.249 235.825 171.192 232.844 174.401 235.825C176.006 237.315 176.995 240.822 176.995 240.822L182.182 253.446C182.182 253.446 183.069 240.737 185.813 233.195C188.8 224.983 189.705 218.31 197.224 213.996C200.542 212.093 206.561 211.103 206.561 211.103H220.047C220.047 211.103 222.433 210.886 223.937 211.103C229.093 211.849 234.571 219.256 234.571 219.256H214.601H209.154C209.154 219.256 204.452 218.421 201.633 219.256C195.344 221.12 192.037 233.195 192.037 233.195V246.871C192.037 246.871 192.325 230.465 199.818 226.883C204.489 224.65 213.045 226.883 213.045 226.883L226.012 230.828H216.416L205.264 232.406C205.264 232.406 200.534 239.867 199.818 245.293C198.85 252.625 204.227 263.703 204.227 263.703C204.227 263.703 200.466 252.228 204.227 246.871C206.935 243.012 214.601 240.822 214.601 240.822L216.416 243.715L210.71 246.871L206.561 259.232V263.703L168.955 266.595Z" stroke="#7D0D0D" stroke-width="0.962234"/>
<path d="M76.8855 266.595C76.8855 266.595 73.7792 252.398 67.2895 246.871C63.0223 243.237 54.322 240.822 54.322 240.822H43.1699L45.7634 238.192H52.2471C52.2471 238.192 60.6479 238.379 65.2147 240.822C71.724 244.304 76.8855 255.813 76.8855 255.813L72.4765 245.293L61.3244 230.828L45.7634 223.464L34.2655 216.1C34.2655 216.1 32.8725 215.479 39.0203 216.1C49.5843 217.167 57.2834 216.318 65.2147 223.464C68.7287 226.63 72.4765 233.195 72.4765 233.195C72.4765 233.195 65.9724 221.988 65.2147 213.996C64.1989 203.282 72.4765 187.434 72.4765 187.434L84.666 174.021L78.9603 184.804L75.07 199.269C75.07 199.269 72.461 211.911 75.07 219.256C76.8783 224.347 77.3363 229.853 82.5912 230.828C89.2842 232.07 86.312 222.733 92.1871 219.256C97.2207 216.278 100.27 215.579 105.733 215.703C110.76 215.818 118.122 219.256 118.122 219.256H114.751L105.155 220.834L97.8929 223.464C97.8929 223.464 91.3516 228.478 89.853 233.195C89.1325 235.463 89.0749 239.244 89.0749 239.244M76.8855 266.595H121.234M76.8855 266.595H112.676M89.0749 239.244L88.2969 245.293L89.853 255.813L89.0749 239.244ZM89.0749 239.244C89.0749 239.244 91.8074 234.462 94.7806 233.195C97.6746 231.962 101.178 230.485 102.821 233.195C103.828 234.858 102.821 238.192 102.821 238.192C102.821 238.192 102.058 235.242 97.8929 235.825C96.9887 235.952 95.0321 237.561 93.7887 239.244C91.3294 242.572 92.1871 249.764 92.1871 249.764L99.9677 259.232L112.676 266.595M112.676 266.595C112.676 266.595 100.897 250.578 106.97 243.715C109.302 241.08 111.371 240.14 114.751 239.244C118.082 238.36 123.569 239.244 123.569 239.244C123.569 239.244 119.813 241.534 118.122 243.715C115.666 246.882 114.68 249.419 114.751 253.446C114.818 257.279 118.122 262.651 118.122 262.651L121.234 266.595M112.676 266.595H121.234M168.955 266.595C168.955 266.595 171.48 257.899 168.955 253.446C166.618 249.323 163.367 248.127 158.84 246.871C154.835 245.76 148.207 246.871 148.207 246.871C148.207 246.871 154.518 243.931 158.84 243.715C164.042 243.455 168.463 242.828 171.808 246.871C173.561 248.99 174.401 253.446 174.401 253.446C174.401 253.446 177.105 249.633 176.995 246.871C176.851 243.257 174.601 241.497 171.808 239.244C168.997 236.977 163.249 235.825 163.249 235.825C163.249 235.825 171.192 232.844 174.401 235.825C176.006 237.315 176.995 240.822 176.995 240.822L182.182 253.446C182.182 253.446 183.069 240.737 185.813 233.195C188.8 224.983 189.705 218.31 197.224 213.996C200.542 212.093 206.561 211.103 206.561 211.103H220.047C220.047 211.103 222.433 210.886 223.937 211.103C229.093 211.849 234.571 219.256 234.571 219.256H214.601H209.154C209.154 219.256 204.452 218.421 201.633 219.256C195.344 221.12 192.037 233.195 192.037 233.195V246.871C192.037 246.871 192.325 230.465 199.818 226.883C204.489 224.65 213.045 226.883 213.045 226.883L226.012 230.828H216.416L205.264 232.406C205.264 232.406 200.534 239.867 199.818 245.293C198.85 252.625 204.227 263.703 204.227 263.703C204.227 263.703 200.466 252.228 204.227 246.871C206.935 243.012 214.601 240.822 214.601 240.822L216.416 243.715L210.71 246.871L206.561 259.232V263.703L168.955 266.595Z" stroke="black" stroke-width="0.962234"/>
<mask id="path-7-inside-2_83_64" fill="white">
<path fill-rule="evenodd" clip-rule="evenodd" d="M20.85 139.506C7.84233 124.739 0 105.642 0 84.7865C0 37.9602 39.5354 0 88.3047 0C106.347 0 123.125 5.19513 137.105 14.1124C151.085 5.19533 167.863 0.000339432 185.905 0.000339432C234.674 0.000339432 274.209 37.9605 274.209 84.7868C274.209 104.438 267.247 122.527 255.561 136.905C268.569 151.673 276.411 170.769 276.411 191.625C276.411 238.451 236.875 276.411 188.106 276.411C170.064 276.411 153.286 271.216 139.306 262.299C125.326 271.216 108.548 276.411 90.5063 276.411C41.7369 276.411 2.20157 238.451 2.20157 191.625C2.20157 171.974 9.16419 153.884 20.85 139.506Z"/>
</mask>
<path d="M20.85 139.506L29.7874 146.77L35.9344 139.207L29.4925 131.894L20.85 139.506ZM137.105 14.1124L130.911 23.8224L137.105 27.7729L143.298 23.8224L137.105 14.1124ZM255.561 136.905L246.624 129.641L240.477 137.204L246.918 144.517L255.561 136.905ZM139.306 262.299L145.5 252.589L139.306 248.638L133.113 252.589L139.306 262.299ZM29.4925 131.894C18.2312 119.109 11.5171 102.683 11.5171 84.7865H-11.5171C-11.5171 108.601 -2.54655 130.369 12.2074 147.119L29.4925 131.894ZM11.5171 84.7865C11.5171 44.7578 45.4503 11.5171 88.3047 11.5171V-11.5171C33.6205 -11.5171 -11.5171 31.1626 -11.5171 84.7865H11.5171ZM88.3047 11.5171C104.113 11.5171 118.748 16.0642 130.911 23.8224L143.298 4.40234C127.501 -5.67398 108.58 -11.5171 88.3047 -11.5171V11.5171ZM143.298 23.8224C155.461 16.0645 170.096 11.5175 185.905 11.5175V-11.5168C165.63 -11.5168 146.709 -5.67379 130.911 4.40229L143.298 23.8224ZM185.905 11.5175C228.759 11.5175 262.692 44.7581 262.692 84.7868H285.726C285.726 31.163 240.589 -11.5168 185.905 -11.5168V11.5175ZM262.692 84.7868C262.692 101.654 256.729 117.207 246.624 129.641L264.498 144.169C277.764 127.847 285.726 107.221 285.726 84.7868H262.692ZM287.928 191.625C287.928 167.81 278.957 146.043 264.204 129.292L246.918 144.517C258.18 157.303 264.894 173.729 264.894 191.625H287.928ZM188.106 287.928C242.79 287.928 287.928 245.248 287.928 191.625H264.894C264.894 231.653 230.96 264.894 188.106 264.894V287.928ZM133.113 272.009C148.91 282.085 167.831 287.928 188.106 287.928V264.894C172.298 264.894 157.663 260.347 145.5 252.589L133.113 272.009ZM90.5063 287.928C110.781 287.928 129.702 282.085 145.5 272.009L133.113 252.589C120.95 260.347 106.315 264.894 90.5063 264.894V287.928ZM-9.31555 191.625C-9.31555 245.248 35.822 287.928 90.5063 287.928V264.894C47.6519 264.894 13.7187 231.653 13.7187 191.625H-9.31555ZM11.9125 132.242C-1.35305 148.564 -9.31555 169.19 -9.31555 191.625H13.7187C13.7187 174.757 19.6814 159.204 29.7874 146.77L11.9125 132.242Z" fill="#525492" mask="url(#path-7-inside-2_83_64)"/>
</svg>
