<svg width="142" height="162" viewBox="0 0 142 162" fill="none" xmlns="http://www.w3.org/2000/svg">
<mask id="path-1-inside-1_68_133" fill="white">
<path fill-rule="evenodd" clip-rule="evenodd" d="M11.1547 91.6212C4.52443 84.0938 0.527039 74.3598 0.527039 63.7294C0.527039 39.8611 20.679 20.5121 45.5377 20.5121C54.734 20.5121 63.2861 23.1601 70.4121 27.7054C77.538 23.1603 86.09 20.5123 95.2862 20.5123C120.145 20.5123 140.297 39.8613 140.297 63.7296C140.297 73.746 136.748 82.9666 130.791 90.2952C137.422 97.8226 141.419 107.557 141.419 118.187C141.419 142.055 121.267 161.404 96.4083 161.404C87.2121 161.404 78.66 158.756 71.5341 154.211C64.4081 158.756 55.856 161.404 46.6598 161.404C21.8012 161.404 1.64922 142.055 1.64922 118.187C1.64922 108.17 5.1982 98.9498 11.1547 91.6212Z"/>
</mask>
<path fill-rule="evenodd" clip-rule="evenodd" d="M11.1547 91.6212C4.52443 84.0938 0.527039 74.3598 0.527039 63.7294C0.527039 39.8611 20.679 20.5121 45.5377 20.5121C54.734 20.5121 63.2861 23.1601 70.4121 27.7054C77.538 23.1603 86.09 20.5123 95.2862 20.5123C120.145 20.5123 140.297 39.8613 140.297 63.7296C140.297 73.746 136.748 82.9666 130.791 90.2952C137.422 97.8226 141.419 107.557 141.419 118.187C141.419 142.055 121.267 161.404 96.4083 161.404C87.2121 161.404 78.66 158.756 71.5341 154.211C64.4081 158.756 55.856 161.404 46.6598 161.404C21.8012 161.404 1.64922 142.055 1.64922 118.187C1.64922 108.17 5.1982 98.9498 11.1547 91.6212Z" fill="#D9CBCB"/>
<path d="M11.1547 91.6212L20.0921 98.8852L26.2391 91.3221L19.7972 84.0086L11.1547 91.6212ZM70.4121 27.7054L64.2186 37.4155L70.412 41.3659L76.6055 37.4155L70.4121 27.7054ZM130.791 90.2952L121.854 83.0312L115.707 90.5942L122.149 97.9077L130.791 90.2952ZM71.5341 154.211L77.7275 144.501L71.5341 140.55L65.3406 144.501L71.5341 154.211ZM19.7972 84.0086C14.9133 78.4639 12.0442 71.4004 12.0442 63.7294H-10.9901C-10.9901 77.3192 -5.86444 89.7237 2.51213 99.2337L19.7972 84.0086ZM12.0442 63.7294C12.0442 46.6587 26.5939 32.0292 45.5377 32.0292V8.99496C14.7641 8.99496 -10.9901 33.0636 -10.9901 63.7294H12.0442ZM45.5377 32.0292C52.5006 32.0292 58.9097 34.0293 64.2186 37.4155L76.6056 17.9954C67.6624 12.291 56.9673 8.99496 45.5377 8.99496V32.0292ZM76.6055 37.4155C81.9143 34.0294 88.3233 32.0294 95.2862 32.0294V8.99518C83.8568 8.99518 73.1618 12.2912 64.2187 17.9954L76.6055 37.4155ZM95.2862 32.0294C114.23 32.0294 128.78 46.6589 128.78 63.7296H151.814C151.814 33.0638 126.06 8.99518 95.2862 8.99518V32.0294ZM128.78 63.7296C128.78 70.9626 126.231 77.6463 121.854 83.0312L139.729 97.5592C147.265 88.2869 151.814 76.5295 151.814 63.7296H128.78ZM122.149 97.9077C127.033 103.452 129.902 110.516 129.902 118.187H152.936C152.936 104.597 147.81 92.1927 139.434 82.6827L122.149 97.9077ZM129.902 118.187C129.902 135.258 115.352 149.887 96.4083 149.887V172.921C127.182 172.921 152.936 148.853 152.936 118.187H129.902ZM96.4083 149.887C89.4454 149.887 83.0363 147.887 77.7275 144.501L65.3406 163.921C74.2837 169.625 84.9788 172.921 96.4083 172.921V149.887ZM65.3406 144.501C60.0318 147.887 53.6227 149.887 46.6598 149.887V172.921C58.0893 172.921 68.7844 169.625 77.7275 163.921L65.3406 144.501ZM46.6598 149.887C27.7161 149.887 13.1663 135.258 13.1663 118.187H-9.8679C-9.8679 148.853 15.8862 172.921 46.6598 172.921V149.887ZM13.1663 118.187C13.1663 110.954 15.7154 104.27 20.0921 98.8852L2.21723 84.3571C-5.31903 93.6295 -9.8679 105.387 -9.8679 118.187H13.1663Z" fill="#191919" mask="url(#path-1-inside-1_68_133)"/>
<path d="M39.51 90.5117L69.0763 88.4683L92.5327 87.059L97.4487 88.4683V83.6767H87.0548L79.1892 84.8746H73.5709H69.0763L54.1175 85.8611L38.3161 87.059L39.51 90.5117Z" fill="#6D6D6D"/>
<path fill-rule="evenodd" clip-rule="evenodd" d="M41.7573 147.235V154.845H54.1175H79.1892H99.696V149.913V141.809V136.102V127.223L98.6426 117.147V107.423L97.4487 95.867V88.4683L92.5327 87.059L69.0763 88.4683L39.51 90.5117V95.867L41.7573 147.235ZM50.6061 102.068H45.4794V110.312L47.3053 123.489V129.69V141.809L48.5695 149.913H94.5693V143.712V136.102V128.21L93.9372 119.825V111.369L92.5327 99.1788L90.0044 97.9809L92.5327 90.5117L87.9678 94.6691H71.1129L51.8702 95.867L46.5941 91.4239L50.6061 97.9809V102.068Z" fill="#9A9393"/>
<path fill-rule="evenodd" clip-rule="evenodd" d="M38.3161 87.059L54.1175 85.8611L69.0763 84.8746H73.5709H79.1892L87.0548 83.6767H97.4487V75.362L94.5693 73.5299H92.5327L88.8808 67.9633L85.2289 63.5241L77.9251 59.7895L72.5175 58.0984L71.1129 56.7595H64.09L62.6152 58.0984L57.4885 59.7895L51.8702 62.5376L47.3053 65.9198L44.5664 69.6544L41.7573 75.362L39.51 77.4054L37.2626 80.9991V84.8746L38.3161 87.059ZM41.7573 80.9991V83.6767H45.4794L50.0443 82.7607L55.803 82.5493H62.6152L72.5175 81.7742H79.6106L87.0548 81.14L91.1983 80.7877H94.1479L94.9907 79.3784L94.5693 77.4054H92.5327H88.8808L87.0548 76.1371L85.2289 71.9797L82.7709 67.9633L75.8885 65.9198L70.1999 64.4401H65.1434L61.2106 65.9198L55.803 66.9063L50.6061 70.9228L47.3053 77.4054V80.9991H45.4794H41.7573Z" fill="#868686"/>
<path d="M63.7389 69.6544L63.3877 72.0502L63.9496 72.5434L63.7389 73.4595L64.1602 74.5869L64.6519 75.0097L64.5816 76.0666L64.7923 76.9827H65.9862L67.7419 76.6303L68.374 76.0666V75.1506L68.7953 73.6709L68.8656 72.2616L69.1114 71.5922L69.3572 70.9228V69.3726L67.6015 68.3156H66.2671L64.7923 68.527L63.7389 69.6544Z" fill="#9B9595"/>
<path d="M69.3572 69.3726V70.9228L69.1114 71.5922L70.6213 71.7683L72.0259 71.9797L72.9388 72.8253L74.6946 74.9392L75.2564 76.4894L75.6778 77.8987L76.5205 76.4894L76.1694 74.6574L74.4839 71.9797L75.2564 72.2616L76.8717 74.1641L77.8549 75.7848L78.206 77.8987L78.6274 78.6738L80.0319 77.7578L80.2426 76.3485L78.6274 73.6709L78.0655 71.9797L79.6106 74.0232L81.2258 76.9122L82.2793 79.2375L82.5602 80.9991L83.2625 80.0126L83.8243 77.4759L83.2625 74.446L81.6472 71.5569L81.0152 70.9228L78.4869 68.5975L76.661 67.47L74.1327 66.6949L72.0259 66.4131L71.745 67.7519L70.9724 69.0202L69.3572 69.3726Z" fill="#5A5A5A"/>
<path fill-rule="evenodd" clip-rule="evenodd" d="M45.4794 102.068H50.6061V97.9809L46.5941 91.4239L51.8702 95.867L71.1129 94.6691H87.9678L92.5327 90.5117L90.0044 97.9809L92.5327 99.1788L93.9372 111.369V119.825L94.5693 128.21V136.102V143.712V149.913H48.5695L47.3053 141.809V129.69V123.489L45.4794 110.312V102.068ZM41.7573 80.9991V83.6767H45.4794L50.0443 82.7607L55.803 82.5493H62.6152L72.5175 81.7742H79.6106L87.0548 81.14L91.1983 80.7877H94.1479L94.9907 79.3784L94.5693 77.4054H92.5327H88.8808L87.0548 76.1371L85.2289 71.9797L82.7709 67.9633L75.8885 65.9198L70.1999 64.4401H65.1434L61.2106 65.9198L55.803 66.9063L50.6061 70.9228L47.3053 77.4054V80.9991H45.4794H41.7573ZM63.7389 69.6544L64.7923 68.527L66.2671 68.3156H67.6015L69.3572 69.3726L70.9724 69.0202L71.745 67.7519L72.0259 66.4131L74.1327 66.6949L76.661 67.47L78.4869 68.5975L81.0152 70.9228L81.6472 71.5569L83.2625 74.446L83.8243 77.4759L83.2625 80.0126L82.5602 80.9991L82.2793 79.2375L81.2258 76.9122L79.6106 74.0232L78.0655 71.9797L78.6274 73.6709L80.2426 76.3485L80.0319 77.7578L78.6274 78.6738L78.206 77.8987L77.8549 75.7848L76.8717 74.1641L75.2564 72.2616L74.4839 71.9797L76.1694 74.6574L76.5205 76.4894L75.6778 77.8987L75.2564 76.4894L74.6946 74.9392L72.9388 72.8253L72.0259 71.9797L70.6213 71.7683L69.1114 71.5922L68.8656 72.2616L68.7953 73.6709L68.374 75.1506V76.0666L67.7419 76.6303L65.9862 76.9827H64.7923L64.5816 76.0666L64.6519 75.0097L64.1602 74.5869L63.7389 73.4595L63.9496 72.5434L63.3877 72.0502H60.719L59.2442 73.8118V77.4054L58.6824 78.8852L57.4885 77.4054L57.7694 74.305L56.4351 76.2076L55.803 78.8852L56.4351 80.7877L54.1175 79.4489L53.345 76.8417L54.6794 72.8958L57.7694 70.9228L54.6794 71.6274L52.9236 74.305L51.8702 77.4054L50.6061 80.7877L50.3954 82.1265L49.7634 80.7877L49.342 76.8417L50.0443 74.6574L52.5023 70.9228L55.3817 69.6544L57.4885 67.3291L62.0534 66.4836L61.2106 67.8224L62.6152 69.6544H63.7389Z" fill="#D9D9D9"/>
<path d="M49.342 76.8417L49.7634 80.7877L50.3954 82.1265L50.6061 80.7877L51.8702 77.4054L52.9236 74.305L54.6794 71.6274L57.7694 70.9228L54.6794 72.8958L53.345 76.8417L54.1175 79.4489L56.4351 80.7877L55.803 78.8852L56.4351 76.2076L57.7694 74.305L57.4885 77.4054L58.6824 78.8852L59.2442 77.4054V73.8118L60.719 72.0502H63.3877L63.7389 69.6544H62.6152L61.2106 67.8224L62.0534 66.4836L57.4885 67.3291L55.3817 69.6544L52.5023 70.9228L50.0443 74.6574L49.342 76.8417Z" fill="#5A5A5A"/>
<path d="M97.4487 88.4683V95.867L98.6426 107.423V117.147L99.696 127.223V136.102V141.809V149.913V154.845L107.36 153.718L106.138 120.725L103.916 71.7683L97.4487 75.362V83.6767V88.4683Z" fill="#444444"/>
<path d="M94.5693 73.5299L97.4487 75.362L103.916 71.7683L96.7113 70.1233L94.2533 67.0229L91.725 62.936L86.9495 59.6024L83.2625 58.0983L79.5755 56.5942L76.1694 56.7595H71.1129L72.5175 58.0984L77.9251 59.7895L85.2289 63.5241L88.8808 67.9633L92.5327 73.5299H94.5693Z" fill="#505050"/>
<path d="M39.51 90.5117V95.867L41.7573 147.235V154.845H54.1175H79.1892H99.696M39.51 90.5117L69.0763 88.4683L92.5327 87.059L97.4487 88.4683M39.51 90.5117L38.3161 87.059M97.4487 88.4683V95.867L98.6426 107.423V117.147L99.696 127.223V136.102V141.809V149.913V154.845M97.4487 88.4683V83.6767M99.696 154.845L107.36 153.718L106.138 120.725L103.916 71.7683M38.3161 87.059L54.1175 85.8611L69.0763 84.8746H73.5709H79.1892L87.0548 83.6767H97.4487M38.3161 87.059L37.2626 84.8746V80.9991L39.51 77.4054L41.7573 75.362L44.5664 69.6544L47.3053 65.9198L51.8702 62.5376L57.4885 59.7895L62.6152 58.0984L64.09 56.7595H71.1129M97.4487 83.6767V75.362M97.4487 75.362L94.5693 73.5299H92.5327L88.8808 67.9633L85.2289 63.5241L77.9251 59.7895L72.5175 58.0984L71.1129 56.7595M97.4487 75.362L103.916 71.7683M71.1129 56.7595H76.1694L79.5755 56.5942L83.2625 58.0983L86.9495 59.6024L91.725 62.936L94.2533 67.0229L96.7113 70.1233L103.916 71.7683M63.7389 69.6544H62.6152L61.2106 67.8224L62.0534 66.4836L57.4885 67.3291L55.3817 69.6544L52.5023 70.9228L50.0443 74.6574L49.342 76.8417L49.7634 80.7877L50.3954 82.1265L50.6061 80.7877L51.8702 77.4054L52.9236 74.305L54.6794 71.6274L57.7694 70.9228L54.6794 72.8958L53.345 76.8417L54.1175 79.4489L56.4351 80.7877L55.803 78.8852L56.4351 76.2076L57.7694 74.305L57.4885 77.4054L58.6824 78.8852L59.2442 77.4054V73.8118L60.719 72.0502H63.3877M63.7389 69.6544L63.3877 72.0502M63.7389 69.6544L64.7923 68.527L66.2671 68.3156H67.6015L69.3572 69.3726M63.3877 72.0502L63.9496 72.5434L63.7389 73.4595L64.1602 74.5869L64.6519 75.0097L64.5816 76.0666L64.7923 76.9827H65.9862L67.7419 76.6303L68.374 76.0666V75.1506L68.7953 73.6709L68.8656 72.2616L69.1114 71.5922M69.3572 69.3726V70.9228L69.1114 71.5922M69.3572 69.3726L70.9724 69.0202L71.745 67.7519L72.0259 66.4131L74.1327 66.6949L76.661 67.47L78.4869 68.5975L81.0152 70.9228L81.6472 71.5569L83.2625 74.446L83.8243 77.4759L83.2625 80.0126L82.5602 80.9991L82.2793 79.2375L81.2258 76.9122L79.6106 74.0232L78.0655 71.9797L78.6274 73.6709L80.2426 76.3485L80.0319 77.7578L78.6274 78.6738L78.206 77.8987L77.8549 75.7848L76.8717 74.1641L75.2564 72.2616L74.4839 71.9797L76.1694 74.6574L76.5205 76.4894L75.6778 77.8987L75.2564 76.4894L74.6946 74.9392L72.9388 72.8253L72.0259 71.9797L70.6213 71.7683L69.1114 71.5922M45.4794 102.068H50.6061V97.9809L46.5941 91.4239L51.8702 95.867L71.1129 94.6691H87.9678L92.5327 90.5117L90.0044 97.9809L92.5327 99.1788L93.9372 111.369V119.825L94.5693 128.21V136.102V143.712V149.913H48.5695L47.3053 141.809V129.69V123.489L45.4794 110.312V102.068ZM41.7573 83.6767V80.9991H45.4794H47.3053V77.4054L50.6061 70.9228L55.803 66.9063L61.2106 65.9198L65.1435 64.4401H70.1999L75.8885 65.9198L82.7709 67.9633L85.2289 71.9797L87.0548 76.1371L88.8808 77.4054H92.5327H94.5693L94.9907 79.3784L94.1479 80.7877H91.1983L87.0548 81.14L79.6106 81.7742H72.5175L62.6152 82.5493H55.803L50.0443 82.7607L45.4794 83.6767H41.7573Z" stroke="black" stroke-width="1.1161"/>
<path d="M34.8258 146.347C38.1338 149.164 39.7171 156.401 39.7171 156.401H57.9601L51.4825 152.647L47.5166 147.822C47.5166 147.822 47.0795 144.156 48.333 142.459C48.9668 141.602 49.9641 140.781 50.4249 140.717C52.5478 140.419 52.9367 141.923 52.9367 141.923C52.9367 141.923 53.4505 140.224 52.9367 139.376C52.0995 137.995 50.3137 138.747 48.8386 139.376C47.3231 140.022 45.9303 142.459 45.9303 142.459L46.3269 150.905L45.5337 145.543L45.9303 142.459C45.9303 142.459 45.9596 140.532 46.3269 139.376C47.0907 136.972 50.4249 134.416 50.4249 134.416L54.1264 133.076L59.0177 132.271H60.7362C60.7362 132.271 56.9836 130.519 54.421 130.46C51.6364 130.397 50.0824 130.753 47.5166 132.271C44.522 134.043 46.037 138.803 42.6254 138.17C39.9469 137.673 39.7134 134.866 38.7917 132.271C37.4618 128.527 38.7917 122.083 38.7917 122.083L40.7746 114.71L43.6829 109.214L37.4697 116.051C37.4697 116.051 33.2505 124.129 33.7683 129.59C34.1545 133.664 37.4697 139.376 37.4697 139.376C37.4697 139.376 35.5594 136.03 33.7683 134.416C29.7255 130.773 25.8011 131.206 20.4165 130.663C17.2828 130.346 17.9929 130.663 17.9929 130.663L23.8535 134.416L31.7853 138.17L37.4697 145.543L39.7171 150.905C39.7171 150.905 37.0862 145.038 33.7683 143.264C31.4405 142.019 27.1585 141.923 27.1585 141.923H23.8535L22.5316 143.264H28.216C28.216 143.264 32.6508 144.495 34.8258 146.347Z" fill="#49987E"/>
<path d="M86.6467 156.401C86.6467 156.401 87.9336 151.968 86.6467 149.698C85.4554 147.597 83.7985 146.987 81.491 146.347C79.4496 145.781 76.071 146.347 76.071 146.347C76.071 146.347 79.288 144.848 81.491 144.738C84.1426 144.606 86.3959 144.286 88.1008 146.347C88.9946 147.427 89.4228 149.698 89.4228 149.698C89.4228 149.698 90.8007 147.755 90.7447 146.347C90.6716 144.505 89.5247 143.608 88.1008 142.459C86.6683 141.304 83.7384 140.717 83.7384 140.717C83.7384 140.717 87.7868 139.197 89.4228 140.717C90.2405 141.476 90.7447 143.264 90.7447 143.264L93.3887 149.698C93.3887 149.698 93.841 143.221 95.2394 139.376C96.7619 135.191 97.2236 131.789 101.056 129.59C102.747 128.62 105.815 128.116 105.815 128.116H112.689C112.689 128.116 113.906 128.005 114.672 128.116C117.3 128.496 120.092 132.271 120.092 132.271H109.913H107.137C107.137 132.271 104.74 131.845 103.303 132.271C100.098 133.221 98.4121 139.376 98.4121 139.376V146.347C98.4121 146.347 98.559 137.985 102.378 136.159C104.759 135.021 109.12 136.159 109.12 136.159L115.73 138.17H110.839L105.154 138.974C105.154 138.974 102.743 142.777 102.378 145.543C101.885 149.28 104.625 154.926 104.625 154.926C104.625 154.926 102.708 149.078 104.625 146.347C106.006 144.38 109.913 143.264 109.913 143.264L110.839 144.738L107.93 146.347L105.815 152.647V154.926L86.6467 156.401Z" fill="#49987E"/>
<path d="M55.0518 144.738C51.9562 148.237 57.9601 156.401 57.9601 156.401H62.3226L60.7362 154.39C60.7362 154.39 59.0519 151.652 59.0177 149.698C58.9817 147.646 59.4842 146.353 60.7362 144.738C61.5982 143.627 63.5124 142.459 63.5124 142.459C63.5124 142.459 60.7157 142.009 59.0177 142.459C57.2951 142.916 56.2402 143.395 55.0518 144.738Z" fill="#49987E"/>
<path d="M39.7171 156.401C39.7171 156.401 38.1338 149.164 34.8258 146.347C32.6508 144.495 28.216 143.264 28.216 143.264H22.5316L23.8535 141.923H27.1585C27.1585 141.923 31.4405 142.019 33.7683 143.264C37.0862 145.038 39.7171 150.905 39.7171 150.905L37.4697 145.543L31.7853 138.17L23.8535 134.416L17.9929 130.663C17.9929 130.663 17.2828 130.346 20.4165 130.663C25.8011 131.206 29.7255 130.773 33.7683 134.416C35.5594 136.03 37.4697 139.376 37.4697 139.376C37.4697 139.376 34.1545 133.664 33.7683 129.59C33.2505 124.129 37.4697 116.051 37.4697 116.051L43.6829 109.214L40.7746 114.71L38.7917 122.083C38.7917 122.083 37.4618 128.527 38.7917 132.271C39.7134 134.866 39.9469 137.673 42.6254 138.17C46.037 138.803 44.522 134.043 47.5166 132.271C50.0824 130.753 51.6364 130.397 54.421 130.46C56.9836 130.519 60.7362 132.271 60.7362 132.271H59.0177L54.1264 133.076L50.4249 134.416C50.4249 134.416 47.0907 136.972 46.3269 139.376C45.9596 140.532 45.9303 142.459 45.9303 142.459M39.7171 156.401H62.3226M39.7171 156.401H57.9601M45.9303 142.459L45.5337 145.543L46.3269 150.905L45.9303 142.459ZM45.9303 142.459C45.9303 142.459 47.3231 140.022 48.8386 139.376C50.3137 138.747 52.0995 137.995 52.9367 139.376C53.4505 140.224 52.9367 141.923 52.9367 141.923C52.9367 141.923 52.5478 140.419 50.4249 140.717C49.9641 140.781 48.9668 141.602 48.333 142.459C47.0795 144.156 47.5166 147.822 47.5166 147.822L51.4825 152.647L57.9601 156.401M57.9601 156.401C57.9601 156.401 51.9562 148.237 55.0518 144.738C56.2402 143.395 57.2951 142.916 59.0177 142.459C60.7157 142.009 63.5124 142.459 63.5124 142.459C63.5124 142.459 61.5982 143.627 60.7362 144.738C59.4842 146.353 58.9817 147.646 59.0177 149.698C59.0519 151.652 60.7362 154.39 60.7362 154.39L62.3226 156.401M57.9601 156.401H62.3226M86.6467 156.401C86.6467 156.401 87.9336 151.968 86.6467 149.698C85.4554 147.597 83.7985 146.987 81.491 146.347C79.4496 145.781 76.071 146.347 76.071 146.347C76.071 146.347 79.288 144.848 81.491 144.738C84.1426 144.606 86.3959 144.286 88.1008 146.347C88.9946 147.427 89.4228 149.698 89.4228 149.698C89.4228 149.698 90.8007 147.755 90.7447 146.347C90.6716 144.505 89.5247 143.608 88.1008 142.459C86.6683 141.304 83.7384 140.717 83.7384 140.717C83.7384 140.717 87.7868 139.197 89.4228 140.717C90.2405 141.476 90.7447 143.264 90.7447 143.264L93.3887 149.698C93.3887 149.698 93.841 143.221 95.2394 139.376C96.7619 135.191 97.2236 131.789 101.056 129.59C102.747 128.62 105.815 128.116 105.815 128.116H112.689C112.689 128.116 113.906 128.005 114.672 128.116C117.3 128.496 120.092 132.271 120.092 132.271H109.913H107.137C107.137 132.271 104.74 131.845 103.303 132.271C100.098 133.221 98.4121 139.376 98.4121 139.376V146.347C98.4121 146.347 98.559 137.985 102.378 136.159C104.759 135.021 109.12 136.159 109.12 136.159L115.73 138.17H110.839L105.154 138.974C105.154 138.974 102.743 142.777 102.378 145.543C101.885 149.28 104.625 154.926 104.625 154.926C104.625 154.926 102.708 149.078 104.625 146.347C106.006 144.38 109.913 143.264 109.913 143.264L110.839 144.738L107.93 146.347L105.815 152.647V154.926L86.6467 156.401Z" stroke="#7D0D0D" stroke-width="0.962234"/>
<path d="M39.7171 156.401C39.7171 156.401 38.1338 149.164 34.8258 146.347C32.6508 144.495 28.216 143.264 28.216 143.264H22.5316L23.8535 141.923H27.1585C27.1585 141.923 31.4405 142.019 33.7683 143.264C37.0862 145.038 39.7171 150.905 39.7171 150.905L37.4697 145.543L31.7853 138.17L23.8535 134.416L17.9929 130.663C17.9929 130.663 17.2828 130.346 20.4165 130.663C25.8011 131.206 29.7255 130.773 33.7683 134.416C35.5594 136.03 37.4697 139.376 37.4697 139.376C37.4697 139.376 34.1545 133.664 33.7683 129.59C33.2505 124.129 37.4697 116.051 37.4697 116.051L43.6829 109.214L40.7746 114.71L38.7917 122.083C38.7917 122.083 37.4618 128.527 38.7917 132.271C39.7134 134.866 39.9469 137.673 42.6254 138.17C46.037 138.803 44.522 134.043 47.5166 132.271C50.0824 130.753 51.6364 130.397 54.421 130.46C56.9836 130.519 60.7362 132.271 60.7362 132.271H59.0177L54.1264 133.076L50.4249 134.416C50.4249 134.416 47.0907 136.972 46.3269 139.376C45.9596 140.532 45.9303 142.459 45.9303 142.459M39.7171 156.401H62.3226M39.7171 156.401H57.9601M45.9303 142.459L45.5337 145.543L46.3269 150.905L45.9303 142.459ZM45.9303 142.459C45.9303 142.459 47.3231 140.022 48.8386 139.376C50.3137 138.747 52.0995 137.995 52.9367 139.376C53.4505 140.224 52.9367 141.923 52.9367 141.923C52.9367 141.923 52.5478 140.419 50.4249 140.717C49.9641 140.781 48.9668 141.602 48.333 142.459C47.0795 144.156 47.5166 147.822 47.5166 147.822L51.4825 152.647L57.9601 156.401M57.9601 156.401C57.9601 156.401 51.9562 148.237 55.0518 144.738C56.2402 143.395 57.2951 142.916 59.0177 142.459C60.7157 142.009 63.5124 142.459 63.5124 142.459C63.5124 142.459 61.5982 143.627 60.7362 144.738C59.4842 146.353 58.9817 147.646 59.0177 149.698C59.0519 151.652 60.7362 154.39 60.7362 154.39L62.3226 156.401M57.9601 156.401H62.3226M86.6467 156.401C86.6467 156.401 87.9336 151.968 86.6467 149.698C85.4554 147.597 83.7985 146.987 81.491 146.347C79.4496 145.781 76.071 146.347 76.071 146.347C76.071 146.347 79.288 144.848 81.491 144.738C84.1426 144.606 86.3959 144.286 88.1008 146.347C88.9946 147.427 89.4228 149.698 89.4228 149.698C89.4228 149.698 90.8007 147.755 90.7447 146.347C90.6716 144.505 89.5247 143.608 88.1008 142.459C86.6683 141.304 83.7384 140.717 83.7384 140.717C83.7384 140.717 87.7868 139.197 89.4228 140.717C90.2405 141.476 90.7447 143.264 90.7447 143.264L93.3887 149.698C93.3887 149.698 93.841 143.221 95.2394 139.376C96.7619 135.191 97.2236 131.789 101.056 129.59C102.747 128.62 105.815 128.116 105.815 128.116H112.689C112.689 128.116 113.906 128.005 114.672 128.116C117.3 128.496 120.092 132.271 120.092 132.271H109.913H107.137C107.137 132.271 104.74 131.845 103.303 132.271C100.098 133.221 98.4121 139.376 98.4121 139.376V146.347C98.4121 146.347 98.559 137.985 102.378 136.159C104.759 135.021 109.12 136.159 109.12 136.159L115.73 138.17H110.839L105.154 138.974C105.154 138.974 102.743 142.777 102.378 145.543C101.885 149.28 104.625 154.926 104.625 154.926C104.625 154.926 102.708 149.078 104.625 146.347C106.006 144.38 109.913 143.264 109.913 143.264L110.839 144.738L107.93 146.347L105.815 152.647V154.926L86.6467 156.401Z" stroke="black" stroke-width="0.962234"/>
<mask id="path-7-inside-2_68_133" fill="white">
<path fill-rule="evenodd" clip-rule="evenodd" d="M11.1547 91.6212C4.52443 84.0938 0.527039 74.3598 0.527039 63.7294C0.527039 39.8611 20.679 20.5121 45.5377 20.5121C54.734 20.5121 63.2861 23.1601 70.4121 27.7054C77.538 23.1603 86.09 20.5123 95.2862 20.5123C120.145 20.5123 140.297 39.8613 140.297 63.7296C140.297 73.746 136.748 82.9666 130.791 90.2952C137.422 97.8226 141.419 107.557 141.419 118.187C141.419 142.055 121.267 161.404 96.4083 161.404C87.2121 161.404 78.66 158.756 71.5341 154.211C64.4081 158.756 55.856 161.404 46.6598 161.404C21.8012 161.404 1.64922 142.055 1.64922 118.187C1.64922 108.17 5.1982 98.9498 11.1547 91.6212Z"/>
</mask>
<path d="M11.1547 91.6212L20.0921 98.8852L26.2391 91.3221L19.7972 84.0086L11.1547 91.6212ZM70.4121 27.7054L64.2186 37.4155L70.412 41.3659L76.6055 37.4155L70.4121 27.7054ZM130.791 90.2952L121.854 83.0312L115.707 90.5942L122.149 97.9077L130.791 90.2952ZM71.5341 154.211L77.7275 144.501L71.5341 140.55L65.3406 144.501L71.5341 154.211ZM19.7972 84.0086C14.9133 78.4639 12.0442 71.4004 12.0442 63.7294H-10.9901C-10.9901 77.3192 -5.86444 89.7237 2.51213 99.2337L19.7972 84.0086ZM12.0442 63.7294C12.0442 46.6587 26.5939 32.0292 45.5377 32.0292V8.99496C14.7641 8.99496 -10.9901 33.0636 -10.9901 63.7294H12.0442ZM45.5377 32.0292C52.5006 32.0292 58.9097 34.0293 64.2186 37.4155L76.6056 17.9954C67.6624 12.291 56.9673 8.99496 45.5377 8.99496V32.0292ZM76.6055 37.4155C81.9143 34.0294 88.3233 32.0294 95.2862 32.0294V8.99518C83.8568 8.99518 73.1618 12.2912 64.2187 17.9954L76.6055 37.4155ZM95.2862 32.0294C114.23 32.0294 128.78 46.6589 128.78 63.7296H151.814C151.814 33.0638 126.06 8.99518 95.2862 8.99518V32.0294ZM128.78 63.7296C128.78 70.9626 126.231 77.6463 121.854 83.0312L139.729 97.5592C147.265 88.2869 151.814 76.5295 151.814 63.7296H128.78ZM122.149 97.9077C127.033 103.452 129.902 110.516 129.902 118.187H152.936C152.936 104.597 147.81 92.1927 139.434 82.6827L122.149 97.9077ZM129.902 118.187C129.902 135.258 115.352 149.887 96.4083 149.887V172.921C127.182 172.921 152.936 148.853 152.936 118.187H129.902ZM96.4083 149.887C89.4454 149.887 83.0363 147.887 77.7275 144.501L65.3406 163.921C74.2837 169.625 84.9788 172.921 96.4083 172.921V149.887ZM65.3406 144.501C60.0318 147.887 53.6227 149.887 46.6598 149.887V172.921C58.0893 172.921 68.7844 169.625 77.7275 163.921L65.3406 144.501ZM46.6598 149.887C27.7161 149.887 13.1663 135.258 13.1663 118.187H-9.8679C-9.8679 148.853 15.8862 172.921 46.6598 172.921V149.887ZM13.1663 118.187C13.1663 110.954 15.7154 104.27 20.0921 98.8852L2.21723 84.3571C-5.31903 93.6295 -9.8679 105.387 -9.8679 118.187H13.1663Z" fill="#525492" mask="url(#path-7-inside-2_68_133)"/>
<path d="M45.5918 69.5332L41.6406 68.313C42.147 65.3371 43.0955 63.1119 44.4861 61.6374C45.6502 60.403 46.9303 60.4368 48.3262 61.7388C48.7226 62.1085 49.7112 63.4818 51.2921 65.8587C52.8718 68.2024 54.196 69.8726 55.2645 70.8692C56.333 71.8658 57.344 72.3738 58.2976 72.3931C58.0987 74.0123 57.5061 75.3449 56.5198 76.3908C55.5335 77.4366 54.4855 77.861 53.3758 77.6638C52.2822 77.4494 51.0719 76.7233 49.7449 75.4856C49.1475 76.6686 48.3799 77.7574 47.4421 78.7518C45.2431 81.0836 42.7407 82.2945 39.9349 82.3844C37.1453 82.4572 34.3373 81.1755 31.5109 78.5392C30.3046 77.414 29.3235 76.0155 28.5677 74.3437C27.7947 72.6559 27.3186 70.8422 27.1394 68.9025C26.9602 66.9629 27.246 64.9252 27.9967 62.7895C28.7464 60.6206 29.8812 58.7303 31.4011 57.1186C32.9371 55.4898 34.4352 54.5023 35.8954 54.1562C37.3717 53.793 38.6441 54.1097 39.7126 55.1063C40.7811 56.103 41.2854 57.2341 41.2257 58.4996C41.1649 59.732 40.7141 60.794 39.8733 61.6855C39.0325 62.5771 38.083 63.2061 37.0248 63.5726C35.9655 63.9058 34.8718 63.9492 33.7437 63.7027C33.3187 65.0465 33.4458 66.6636 34.1249 68.5539C34.8041 70.4443 35.8589 72.0566 37.2893 73.3908C38.7197 74.725 40.0555 75.4553 41.2968 75.5818C42.5369 75.6751 43.5531 75.3016 44.3454 74.4615C45.4934 73.2442 45.9089 71.6014 45.5918 69.5332Z" fill="#301050"/>
<path d="M54.8588 67.0401L51.8132 64.7731C50.7905 65.4483 49.6517 65.9744 48.3968 66.3512C49.0309 67.7397 49.534 68.7064 49.906 69.2514C51.195 71.1394 52.4534 72.3557 53.6812 72.9004C53.0992 74.5554 52.169 75.8049 50.8907 76.649C49.6123 77.493 48.452 77.7368 47.4097 77.3803C46.3541 77.0042 45.3346 76.0961 44.3513 74.6558C43.3547 73.196 41.1637 68.6705 37.7785 61.0791L34.0822 58.9875C35.3281 56.1318 36.8754 54.0936 38.7241 52.8729C40.1401 51.9379 41.4309 51.5092 42.5965 51.5867C43.6729 50.0288 44.801 48.8603 45.981 48.0812C47.7904 46.8865 49.6379 46.5419 51.5238 47.0474C53.4097 47.553 54.9306 48.6524 56.0867 50.3457C56.9504 51.6108 57.4631 53.0513 57.6247 54.6671C57.773 56.2634 57.4702 57.8469 56.7165 59.4176C58.6741 60.8641 60.531 61.9958 62.2872 62.8129C64.063 63.6169 65.5168 63.9701 66.6484 63.8723C66.5277 64.5732 66.141 65.3651 65.4883 66.2479C64.8686 67.1371 64.2145 67.809 63.5262 68.2635C62.1888 69.1465 60.8911 69.5234 59.633 69.394C58.3616 69.2452 56.7702 68.4606 54.8588 67.0401ZM47.5222 62.3119C49.0955 61.273 50.0424 60.0689 50.3629 58.6995C50.7031 57.3172 50.5609 56.1686 49.9364 55.2538C49.3118 54.339 48.5579 53.778 47.6745 53.5706C46.7911 53.3633 45.8774 53.5713 44.9334 54.1946C44.422 54.5322 43.9572 54.9379 43.5389 55.4118C45.4476 59.5449 46.5425 61.9845 46.8237 62.7307C46.9747 62.6592 47.2075 62.5196 47.5222 62.3119Z" fill="#301050"/>
<path d="M66.56 46.9012L69.4175 54.8128C70.4932 57.5046 71.6192 59.687 72.7953 61.3601C73.9935 63.025 75.3506 63.9763 76.8665 64.2142C75.7196 65.725 74.3625 66.7735 72.7953 67.3597C70.0361 68.3918 67.4532 66.8173 65.0464 62.6362L58.292 65.1629C58.4411 66.7422 58.6687 67.9148 58.9748 68.6808C59.2721 69.4248 59.601 69.9936 59.9612 70.3871C58.7389 72.0267 57.4876 73.0859 56.2073 73.5648C54.2428 74.2997 52.7883 73.4854 51.8437 71.1219C51.3714 69.9402 51.1409 68.3158 51.1521 66.2489C51.1855 64.1736 51.3456 61.7491 51.6325 58.9753C51.9416 56.1932 52.1129 54.3682 52.1467 53.5003C51.4316 52.4094 50.6921 51.3527 49.9283 50.3304C50.7613 49.1132 51.6288 48.1095 52.5309 47.3192C53.4463 46.4988 54.522 45.8574 55.7581 45.395C57.0163 44.9244 57.9975 44.8718 58.7018 45.2372C59.7413 44.2195 60.6694 43.5579 61.4861 43.2524C62.3028 42.9469 62.9623 42.8511 63.4646 42.9651C63.9668 43.0791 64.4068 43.3547 64.7846 43.792C65.4434 44.5517 66.0353 45.5881 66.56 46.9012ZM60.2067 50.1456L59.1472 50.542C58.6824 55.0929 58.4017 58.6442 58.3051 61.1959L63.4371 59.2762C62.4838 56.8908 61.407 53.8473 60.2067 50.1456Z" fill="#301050"/>
<path d="M71.6302 57.2034L72.4804 63.0794L73.3909 62.954C74.2472 60.0061 74.9682 56.8865 75.5537 53.5953C76.1355 50.2808 76.2918 47.7978 76.0227 46.1464C75.9165 45.4951 75.6858 44.8848 75.3304 44.3154C76.9076 42.8615 78.4433 42.0317 79.9375 41.826C82.2722 41.5045 83.6537 42.658 84.082 45.2864C84.2943 46.5889 84.2016 48.2902 83.8038 50.3903C83.4256 52.4638 82.7806 55.0973 81.8688 58.2907C80.9532 61.4609 80.4677 63.1687 80.4122 63.4142L81.2152 65.2656C80.2815 66.2741 79.0235 67.1965 77.4411 68.0327C75.8549 68.8457 74.0462 69.392 72.015 69.6717C69.9839 69.9513 68.4249 69.833 67.3382 69.3168C66.2515 68.8005 65.5831 67.7748 65.3329 66.2396L64.3217 59.815C63.4537 54.4884 62.1878 50.8219 60.524 48.8155C59.754 47.8989 58.8762 47.1993 57.8904 46.7167C59.2809 45.2886 61.0034 44.4331 63.0579 44.1502C64.9256 43.893 66.4341 44.4344 67.5835 45.7744C68.729 47.0912 69.6068 48.7421 70.2167 50.7272C70.7496 52.5326 71.2208 54.6913 71.6302 57.2034Z" fill="#301050"/>
<path d="M87.5605 44.2172C90.6611 44.4693 92.9651 45.0231 94.4726 45.8784C95.9815 46.7103 96.6896 47.9143 96.5971 49.4906C96.506 51.0433 95.9547 52.1923 94.9433 52.9374C93.9568 53.6609 92.8528 53.973 91.6313 53.8737C90.4099 53.7744 89.3238 53.3788 88.3732 52.6869C87.4474 51.9734 86.827 51.0837 86.5119 50.018C85.6428 49.9474 84.7917 50.1736 83.9585 50.6969C83.1502 51.1985 82.6134 51.8994 82.3481 52.7998C86.9328 54.3072 90.1909 55.8959 92.1226 57.5658C94.0543 59.2358 94.9511 61.2471 94.813 63.5997C94.6749 65.9523 93.4957 67.7476 91.2753 68.9854C89.0784 70.2251 86.1712 70.6979 82.5539 70.4037C78.96 70.1115 76.4404 69.4103 74.9951 68.2999C73.5497 67.1896 72.8747 65.8228 72.97 64.1994C73.0653 62.5761 73.658 61.1232 74.7482 59.8408C75.1793 60.9396 76.0629 61.9688 77.3991 62.9285C78.7588 63.89 80.1198 64.4262 81.4822 64.5369C83.9955 64.7413 85.6398 64.0713 86.4149 62.5268C82.546 61.6922 79.6381 60.3684 77.6912 58.5554C75.7457 56.7189 74.842 54.6243 74.9801 52.2716C75.0726 50.6954 75.5776 49.3299 76.495 48.1753C77.4138 46.9971 78.5503 46.1322 79.9043 45.5804C82.5655 44.473 85.1175 44.0186 87.5605 44.2172Z" fill="#301050"/>
<path d="M86.5231 50.5058C87.0224 48.6634 87.8739 47.4132 89.0775 46.7553C90.2812 46.0975 91.5396 45.9583 92.8528 46.3377C94.1886 46.7236 95.9382 47.4744 98.1017 48.59C100.265 49.7057 101.921 50.4416 103.07 50.798C105.093 50.9901 107.047 51.0764 108.932 51.0569C108.953 51.7007 108.843 52.4661 108.603 53.3532C108.103 55.1957 107.195 56.4295 105.878 57.0546C104.584 57.6863 103.122 57.7667 101.492 57.2957C101.084 57.1779 100.547 56.9982 99.8801 56.7565C96.8534 62.9704 95.2352 66.4641 95.0256 67.2374C94.4277 69.4438 94.3204 71.1911 94.7037 72.4792C93.0678 73.1103 91.5141 73.2132 90.0424 72.788C88.5708 72.3628 87.632 71.6378 87.2261 70.613C86.8264 69.5655 86.8547 68.2001 87.3109 66.5169C87.7732 64.8109 89.6565 60.4741 92.9608 53.5064C90.3099 53.1084 88.0542 52.8736 86.1937 52.8021C86.1667 52.1811 86.2765 51.4157 86.5231 50.5058Z" fill="#301050"/>
<path d="M93.9984 74.8283C92.7599 74.1963 92.0417 73.3403 91.8437 72.2603C91.6563 71.1593 91.9524 69.8288 92.7321 68.2688C93.5222 66.6877 96.4117 62.5666 101.401 55.9053L101.423 51.6702C104.564 51.3418 107.11 51.6758 109.063 52.6721C110.301 53.3041 110.772 54.2854 110.476 55.6159C112.88 56.7632 116.108 57.7362 120.162 58.5348C119.982 59.3161 119.723 60.0441 119.386 60.7187C118.533 62.4262 117.323 63.4229 115.758 63.7088C114.213 64.0053 112.56 63.7036 110.796 62.8038C109.6 62.1931 108.551 61.3402 107.649 60.2451C107.007 61.108 105.939 62.5075 104.444 64.4435C105.147 64.9874 105.772 65.3987 106.317 65.6772C107.262 65.9478 108.328 66.1874 109.515 66.3961C109.44 66.8081 109.198 67.4251 108.787 68.2473C108.387 69.0483 107.74 69.5253 106.847 69.678C105.954 69.8308 105.098 69.6983 104.279 69.2805C103.482 68.8734 102.71 68.3607 101.966 67.7425C101.071 68.9527 100.329 70.1481 99.7387 71.3287L104.84 73.9319C106.551 74.5142 108.362 74.9226 110.273 75.1572C110.21 75.601 110.015 76.1496 109.688 76.8031C109.066 78.0469 108.146 78.9661 106.927 79.5609C105.728 80.1664 104.489 80.1424 103.208 79.4889C102.537 79.1461 101.619 78.5056 100.454 77.5673C99.3 76.6609 98.4239 76.0153 97.8258 75.6307C96.5127 75.7278 95.2369 75.4604 93.9984 74.8283Z" fill="#301050"/>
<path d="M115.633 83.0693L116.648 83.1797C117.365 79.9416 118.853 76.9777 121.11 74.2879C122.868 72.1938 124.876 70.8461 127.134 70.2446C129.411 69.6582 131.499 70.1577 133.399 71.7433C134.394 72.5738 135.091 73.4475 135.491 74.3643C134.462 75.2243 132.659 76.7125 130.082 78.8292C124.539 83.3812 121.435 86.0543 120.768 86.8486C119.329 88.5636 118.543 90.0869 118.41 91.4186C117.174 91.2777 116.138 91.0272 115.302 90.667C114.466 90.3069 113.514 89.6813 112.447 88.7904C111.397 87.9145 110.628 86.8886 110.138 85.7124C109.666 84.5514 109.461 83.3667 109.521 82.1585C109.614 80.9473 109.933 79.6325 110.477 78.2142C111.429 75.7239 113.082 72.929 115.437 69.8296L115.003 69.4672C111.02 72.5274 108.399 74.8067 107.142 76.3051C105.884 77.8034 105.163 79.2123 104.979 80.5319C103.212 80.4382 101.74 79.9006 100.564 78.919C99.3878 77.9375 98.8267 76.9013 98.8806 75.8106C98.9497 74.7018 99.5448 73.4795 100.666 72.1436C101.802 70.7897 105.576 67.4473 111.988 62.1164L112.981 58.0185C116.099 58.4101 118.453 59.2702 120.046 60.5991C121.638 61.9279 122.606 63.2119 122.951 64.4511C123.31 65.6722 123.206 66.9512 122.638 68.2881C122.07 69.625 121.358 70.9495 120.503 72.2618C119.681 73.5711 118.763 75.2147 117.75 77.1926C116.754 79.1856 116.048 81.1445 115.633 83.0693Z" fill="#301050"/>
<path d="M54.1443 109.287C55.8244 107.865 57.9026 106.822 60.1322 106.936C61.7944 107.021 63.3975 107.613 65.1222 107.632C68.3565 107.668 71.3316 107.966 74.4586 107.054C76.3151 106.513 78.4227 106.22 80.3677 106.463C81.0083 106.543 81.5054 107.132 82.2192 107.159C82.9964 107.189 83.6729 107.104 84.399 106.923" stroke="#9A9393" stroke-width="3.37087" stroke-linecap="round"/>
<path d="M57.4534 116.85C60.5911 116.85 64.5911 117.437 67.6565 116.601C69.041 116.223 70.2575 115.69 71.5828 115.248C72.2555 115.024 72.866 115.165 73.2899 115.668C74.4382 117.032 75.1757 116.85 76.9666 116.85C78.1117 116.85 79.1482 116.377 80.3283 116.377C81.0549 116.377 81.7815 116.377 82.5081 116.377" stroke="#9A9393" stroke-width="3.37087" stroke-linecap="round"/>
<path d="M64.5443 127.25C65.9002 127.2 67.0742 126.305 68.3786 126.305C69.8365 126.305 71.6691 127.172 72.4625 128.406C73.0623 129.339 75.3942 128.375 76.1261 128.091C77.1232 127.703 78.1515 127.723 79.1989 127.723" stroke="#9A9393" stroke-width="3.37087" stroke-linecap="round"/>
</svg>
