<svg width="277" height="315" viewBox="0 0 277 315" fill="none" xmlns="http://www.w3.org/2000/svg">
<mask id="path-1-inside-1_77_125" fill="white">
<path fill-rule="evenodd" clip-rule="evenodd" d="M20.85 178.095C7.84233 163.328 0 144.231 0 123.376C0 76.5492 39.5354 38.5891 88.3047 38.5891C106.347 38.5891 123.125 43.7842 137.105 52.7014C151.085 43.7844 167.863 38.5894 185.905 38.5894C234.674 38.5894 274.209 76.5496 274.209 123.376C274.209 143.027 267.247 161.116 255.561 175.494C268.569 190.262 276.411 209.358 276.411 230.214C276.411 277.04 236.875 315 188.106 315C170.064 315 153.286 309.805 139.306 300.888C125.326 309.805 108.548 315 90.5063 315C41.7369 315 2.20157 277.04 2.20157 230.214C2.20157 210.563 9.16419 192.473 20.85 178.095Z"/>
</mask>
<path fill-rule="evenodd" clip-rule="evenodd" d="M20.85 178.095C7.84233 163.328 0 144.231 0 123.376C0 76.5492 39.5354 38.5891 88.3047 38.5891C106.347 38.5891 123.125 43.7842 137.105 52.7014C151.085 43.7844 167.863 38.5894 185.905 38.5894C234.674 38.5894 274.209 76.5496 274.209 123.376C274.209 143.027 267.247 161.116 255.561 175.494C268.569 190.262 276.411 209.358 276.411 230.214C276.411 277.04 236.875 315 188.106 315C170.064 315 153.286 309.805 139.306 300.888C125.326 309.805 108.548 315 90.5063 315C41.7369 315 2.20157 277.04 2.20157 230.214C2.20157 210.563 9.16419 192.473 20.85 178.095Z" fill="#D9CBCB"/>
<path d="M20.85 178.095L29.7874 185.359L35.9344 177.796L29.4925 170.483L20.85 178.095ZM137.105 52.7014L130.911 62.4114L137.105 66.3619L143.298 62.4115L137.105 52.7014ZM255.561 175.494L246.624 168.23L240.477 175.793L246.918 183.107L255.561 175.494ZM139.306 300.888L145.5 291.178L139.306 287.227L133.113 291.178L139.306 300.888ZM29.4925 170.483C18.2312 157.698 11.5171 141.272 11.5171 123.376H-11.5171C-11.5171 147.19 -2.54655 168.958 12.2074 185.708L29.4925 170.483ZM11.5171 123.376C11.5171 83.3468 45.4503 50.1062 88.3047 50.1062V27.0719C33.6205 27.0719 -11.5171 69.7517 -11.5171 123.376H11.5171ZM88.3047 50.1062C104.113 50.1062 118.748 54.6533 130.911 62.4114L143.298 42.9914C127.501 32.9151 108.58 27.0719 88.3047 27.0719V50.1062ZM143.298 62.4115C155.461 54.6535 170.096 50.1065 185.905 50.1065V27.0723C165.63 27.0723 146.709 32.9153 130.911 42.9913L143.298 62.4115ZM185.905 50.1065C228.759 50.1065 262.692 83.3472 262.692 123.376H285.726C285.726 69.752 240.589 27.0723 185.905 27.0723V50.1065ZM262.692 123.376C262.692 140.243 256.729 155.796 246.624 168.23L264.498 182.758C277.764 166.436 285.726 145.81 285.726 123.376H262.692ZM287.928 230.214C287.928 206.399 278.957 184.632 264.204 167.882L246.918 183.107C258.18 195.892 264.894 212.318 264.894 230.214H287.928ZM188.106 326.517C242.79 326.517 287.928 283.837 287.928 230.214H264.894C264.894 270.242 230.96 303.483 188.106 303.483V326.517ZM133.113 310.598C148.91 320.674 167.831 326.517 188.106 326.517V303.483C172.298 303.483 157.663 298.936 145.5 291.178L133.113 310.598ZM90.5063 326.517C110.781 326.517 129.702 320.674 145.5 310.598L133.113 291.178C120.95 298.936 106.315 303.483 90.5063 303.483V326.517ZM-9.31555 230.214C-9.31555 283.838 35.822 326.517 90.5063 326.517V303.483C47.6519 303.483 13.7187 270.242 13.7187 230.214H-9.31555ZM11.9125 170.831C-1.35305 187.153 -9.31555 207.779 -9.31555 230.214H13.7187C13.7187 213.346 19.6814 197.794 29.7874 185.359L11.9125 170.831Z" fill="#191919" mask="url(#path-1-inside-1_77_125)"/>
<path d="M76.4791 175.919L134.484 171.91L180.503 169.145L190.147 171.91V162.51H169.756L154.324 164.86H143.302H134.484L105.137 166.795L74.1369 169.145L76.4791 175.919Z" fill="#6D6D6D"/>
<path fill-rule="evenodd" clip-rule="evenodd" d="M80.8881 287.202V302.132H105.137H154.324H194.556V292.456V276.558V265.36V247.942L192.489 228.174V209.097L190.147 186.425V171.91L180.503 169.145L134.484 171.91L76.4791 175.919V186.425L80.8881 287.202ZM98.2483 198.59H88.1904V214.764L91.7726 240.615V252.781V276.558L94.2527 292.456H184.498V280.29V265.36V249.877L183.258 233.427V216.838L180.503 192.922L175.542 190.572L180.503 175.919L171.547 184.075H138.48L100.728 186.425L90.3773 177.708L98.2483 190.572V198.59Z" fill="#9A9393"/>
<path fill-rule="evenodd" clip-rule="evenodd" d="M74.1369 169.145L105.137 166.795L134.484 164.86H143.302H154.324L169.756 162.51H190.147V146.197L184.498 142.603H180.503L173.338 131.682L166.173 122.973L151.844 115.646L141.235 112.328L138.48 109.702H124.702L121.809 112.328L111.751 115.646L100.728 121.037L91.7726 127.673L86.3992 135L80.8881 146.197L76.4791 150.206L72.0702 157.256V164.86L74.1369 169.145ZM80.8881 157.256V162.51H88.1904L97.146 160.712L108.444 160.298H121.809L141.235 158.777H155.151L169.756 157.533L177.885 156.842H183.671L185.325 154.077L184.498 150.206H180.503H173.338L169.756 147.718L166.173 139.562L161.351 131.682L147.849 127.673L136.689 124.77H126.769L119.053 127.673L108.444 129.608L98.2483 137.488L91.7726 150.206V157.256H88.1904H80.8881Z" fill="#868686"/>
<path d="M124.013 135L123.324 139.7L124.426 140.668L124.013 142.465L124.84 144.677L125.804 145.506L125.666 147.58L126.08 149.377H128.422L131.866 148.685L133.106 147.58V145.782L133.933 142.879L134.071 140.115L134.553 138.801L135.035 137.488V134.447L131.591 132.373H128.973L126.08 132.788L124.013 135Z" fill="#9B9595"/>
<path d="M135.035 134.447V137.488L134.553 138.801L137.515 139.147L140.271 139.562L142.062 141.221L145.507 145.368L146.609 148.409L147.435 151.174L149.089 148.409L148.4 144.815L145.093 139.562L146.609 140.115L149.778 143.847L151.707 147.027L152.396 151.174L153.222 152.694L155.978 150.897L156.391 148.133L153.222 142.879L152.12 139.562L155.151 143.571L158.32 149.238L160.387 153.8L160.938 157.256L162.316 155.321L163.418 150.344L162.316 144.4L159.147 138.732L157.907 137.488L152.947 132.926L149.364 130.714L144.404 129.194L140.271 128.641L139.72 131.267L138.204 133.756L135.035 134.447Z" fill="#5A5A5A"/>
<path fill-rule="evenodd" clip-rule="evenodd" d="M88.1904 198.59H98.2483V190.572L90.3773 177.708L100.728 186.425L138.48 184.075H171.547L180.503 175.919L175.542 190.572L180.503 192.922L183.258 216.838V233.427L184.498 249.877V265.36V280.29V292.456H94.2527L91.7726 276.558V252.781V240.615L88.1904 214.764V198.59ZM80.8881 157.256V162.51H88.1904L97.146 160.712L108.444 160.298H121.809L141.235 158.777H155.151L169.756 157.533L177.885 156.842H183.671L185.325 154.077L184.498 150.206H180.503H173.338L169.756 147.718L166.173 139.562L161.351 131.682L147.849 127.673L136.689 124.77H126.769L119.053 127.673L108.444 129.608L98.2483 137.488L91.7726 150.206V157.256H88.1904H80.8881ZM124.013 135L126.08 132.788L128.973 132.373H131.591L135.035 134.447L138.204 133.756L139.72 131.267L140.271 128.641L144.404 129.194L149.364 130.714L152.947 132.926L157.907 137.488L159.147 138.732L162.316 144.4L163.418 150.344L162.316 155.321L160.938 157.256L160.387 153.8L158.32 149.238L155.151 143.571L152.12 139.562L153.222 142.879L156.391 148.133L155.978 150.897L153.222 152.694L152.396 151.174L151.707 147.027L149.778 143.847L146.609 140.115L145.093 139.562L148.4 144.815L149.089 148.409L147.435 151.174L146.609 148.409L145.507 145.368L142.062 141.221L140.271 139.562L137.515 139.147L134.553 138.801L134.071 140.115L133.933 142.879L133.106 145.782V147.58L131.866 148.685L128.422 149.377H126.08L125.666 147.58L125.804 145.506L124.84 144.677L124.013 142.465L124.426 140.668L123.324 139.7H118.088L115.195 143.156V150.206L114.093 153.109L111.751 150.206L112.302 144.124L109.684 147.856L108.444 153.109L109.684 156.842L105.137 154.215L103.622 149.1L106.239 141.359L112.302 137.488L106.239 138.87L102.795 144.124L100.728 150.206L98.2483 156.842L97.8349 159.468L96.5949 156.842L95.7682 149.1L97.146 144.815L101.968 137.488L107.617 135L111.751 130.438L120.706 128.779L119.053 131.405L121.809 135H124.013Z" fill="#D9D9D9"/>
<path d="M95.7682 149.1L96.5949 156.842L97.8349 159.468L98.2483 156.842L100.728 150.206L102.795 144.124L106.239 138.87L112.302 137.488L106.239 141.359L103.622 149.1L105.137 154.215L109.684 156.842L108.444 153.109L109.684 147.856L112.302 144.124L111.751 150.206L114.093 153.109L115.195 150.206V143.156L118.088 139.7H123.324L124.013 135H121.809L119.053 131.405L120.706 128.779L111.751 130.438L107.617 135L101.968 137.488L97.146 144.815L95.7682 149.1Z" fill="#5A5A5A"/>
<path d="M190.147 171.91V186.425L192.489 209.097V228.174L194.556 247.942V265.36V276.558V292.456V302.132L209.591 299.92L207.194 235.194L202.835 139.147L190.147 146.197V162.51V171.91Z" fill="#444444"/>
<path d="M184.498 142.603L190.147 146.197L202.835 139.147L188.7 135.92L183.878 129.837L178.918 121.819L169.549 115.279L162.316 112.328L155.082 109.377L148.4 109.702H138.48L141.235 112.328L151.844 115.646L166.173 122.973L173.338 131.682L180.503 142.603H184.498Z" fill="#505050"/>
<path d="M76.4791 175.919V186.425L80.8881 287.202V302.132H105.137H154.324H194.556M76.4791 175.919L134.484 171.91L180.503 169.145L190.147 171.91M76.4791 175.919L74.1369 169.145M190.147 171.91V186.425L192.489 209.097V228.174L194.556 247.942V265.36V276.558V292.456V302.132M190.147 171.91V162.51M194.556 302.132L209.591 299.92L207.194 235.194L202.835 139.147M74.1369 169.145L105.137 166.795L134.484 164.86H143.302H154.324L169.756 162.51H190.147M74.1369 169.145L72.0702 164.86V157.256L76.4791 150.206L80.8881 146.197L86.3992 135L91.7726 127.673L100.728 121.037L111.751 115.646L121.809 112.328L124.702 109.702H138.48M190.147 162.51V146.197M190.147 146.197L184.498 142.603H180.503L173.338 131.682L166.173 122.973L151.844 115.646L141.235 112.328L138.48 109.702M190.147 146.197L202.835 139.147M138.48 109.702H148.4L155.082 109.377L162.316 112.328L169.549 115.279L178.918 121.819L183.878 129.837L188.7 135.92L202.835 139.147M124.013 135H121.809L119.053 131.405L120.706 128.779L111.751 130.438L107.617 135L101.968 137.488L97.146 144.815L95.7682 149.1L96.5949 156.842L97.8349 159.468L98.2483 156.842L100.728 150.206L102.795 144.124L106.239 138.87L112.302 137.488L106.239 141.359L103.622 149.1L105.137 154.215L109.684 156.842L108.444 153.109L109.684 147.856L112.302 144.124L111.751 150.206L114.093 153.109L115.195 150.206V143.156L118.088 139.7H123.324M124.013 135L123.324 139.7M124.013 135L126.08 132.788L128.973 132.373H131.591L135.035 134.447M123.324 139.7L124.426 140.668L124.013 142.465L124.84 144.677L125.804 145.506L125.666 147.58L126.08 149.377H128.422L131.866 148.685L133.106 147.58V145.782L133.933 142.879L134.071 140.115L134.553 138.801M135.035 134.447V137.488L134.553 138.801M135.035 134.447L138.204 133.756L139.72 131.267L140.271 128.641L144.404 129.194L149.364 130.714L152.947 132.926L157.907 137.488L159.147 138.732L162.316 144.4L163.418 150.344L162.316 155.321L160.938 157.256L160.387 153.8L158.32 149.238L155.151 143.571L152.12 139.562L153.222 142.879L156.391 148.133L155.978 150.897L153.222 152.694L152.396 151.174L151.707 147.027L149.778 143.847L146.609 140.115L145.093 139.562L148.4 144.815L149.089 148.409L147.435 151.174L146.609 148.409L145.507 145.368L142.062 141.221L140.271 139.562L137.515 139.147L134.553 138.801M88.1904 198.59H98.2483V190.572L90.3773 177.708L100.728 186.425L138.48 184.075H171.547L180.503 175.919L175.542 190.572L180.503 192.922L183.258 216.838V233.427L184.498 249.877V265.36V280.29V292.456H94.2527L91.7726 276.558V252.781V240.615L88.1904 214.764V198.59ZM80.8881 162.51V157.256H88.1904H91.7726V150.206L98.2483 137.488L108.444 129.608L119.053 127.673L126.769 124.77H136.689L147.849 127.673L161.351 131.682L166.173 139.562L169.756 147.718L173.338 150.206H180.503H184.498L185.325 154.077L183.671 156.842H177.885L169.756 157.533L155.151 158.777H141.235L121.809 160.298H108.444L97.146 160.712L88.1904 162.51H80.8881Z" stroke="black" stroke-width="1.1161"/>
<path d="M67.2895 285.46C73.7793 290.987 76.8855 305.185 76.8855 305.185H112.676L99.9677 297.821L92.1872 288.353C92.1872 288.353 91.3295 281.161 93.7888 277.833C95.0322 276.15 96.9887 274.541 97.8929 274.414C102.058 273.831 102.821 276.781 102.821 276.781C102.821 276.781 103.829 273.447 102.821 271.784C101.178 269.074 97.6746 270.551 94.7807 271.784C91.8074 273.051 89.075 277.833 89.075 277.833L89.853 294.402L88.2969 283.882L89.075 277.833C89.075 277.833 89.1326 274.052 89.853 271.784C91.3516 267.067 97.8929 262.053 97.8929 262.053L105.155 259.423L114.751 257.845H118.122C118.122 257.845 110.76 254.407 105.733 254.293C100.27 254.168 97.2208 254.867 92.1872 257.845C86.3121 261.322 89.2843 270.659 82.5912 269.417C77.3363 268.442 76.8784 262.936 75.0701 257.845C72.461 250.5 75.0701 237.858 75.0701 237.858L78.9603 223.393L84.666 212.61L72.4766 226.023C72.4766 226.023 64.199 241.871 65.2147 252.585C65.9724 260.577 72.4766 271.784 72.4766 271.784C72.4766 271.784 68.7287 265.22 65.2147 262.053C57.2834 254.907 49.5843 255.756 39.0203 254.689C32.8726 254.068 34.2656 254.689 34.2656 254.689L45.7634 262.053L61.3245 269.417L72.4766 283.882L76.8855 294.402C76.8855 294.402 71.7241 282.893 65.2147 279.411C60.6479 276.968 52.2472 276.781 52.2472 276.781H45.7634L43.1699 279.411H54.322C54.322 279.411 63.0223 281.826 67.2895 285.46Z" fill="#49987E"/>
<path d="M168.955 305.185C168.955 305.185 171.48 296.488 168.955 292.035C166.618 287.913 163.367 286.716 158.84 285.46C154.835 284.349 148.207 285.46 148.207 285.46C148.207 285.46 154.518 282.52 158.84 282.304C164.042 282.044 168.463 281.417 171.808 285.46C173.561 287.579 174.401 292.035 174.401 292.035C174.401 292.035 177.105 288.223 176.995 285.46C176.851 281.846 174.601 280.086 171.808 277.833C168.998 275.566 163.249 274.414 163.249 274.414C163.249 274.414 171.192 271.433 174.401 274.414C176.006 275.904 176.995 279.411 176.995 279.411L182.182 292.035C182.182 292.035 183.069 279.326 185.813 271.784C188.8 263.573 189.705 256.899 197.224 252.585C200.542 250.682 206.561 249.692 206.561 249.692H220.047C220.047 249.692 222.433 249.475 223.937 249.692C229.094 250.438 234.571 257.845 234.571 257.845H214.601H209.154C209.154 257.845 204.452 257.01 201.633 257.845C195.344 259.709 192.037 271.784 192.037 271.784V285.46C192.037 285.46 192.325 269.054 199.818 265.472C204.489 263.239 213.045 265.472 213.045 265.472L226.012 269.417H216.416L205.264 270.995C205.264 270.995 200.534 278.456 199.818 283.882C198.85 291.215 204.227 302.292 204.227 302.292C204.227 302.292 200.466 290.818 204.227 285.46C206.935 281.601 214.601 279.411 214.601 279.411L216.416 282.304L210.71 285.46L206.561 297.821V302.292L168.955 305.185Z" fill="#49987E"/>
<path d="M106.97 282.304C100.897 289.167 112.676 305.185 112.676 305.185H121.234L118.122 301.24C118.122 301.24 114.818 295.868 114.751 292.035C114.68 288.008 115.666 285.471 118.122 282.304C119.813 280.123 123.569 277.833 123.569 277.833C123.569 277.833 118.082 276.949 114.751 277.833C111.371 278.729 109.302 279.669 106.97 282.304Z" fill="#49987E"/>
<path d="M76.8855 305.185C76.8855 305.185 73.7793 290.987 67.2895 285.46C63.0223 281.826 54.322 279.411 54.322 279.411H43.1699L45.7634 276.781H52.2472C52.2472 276.781 60.6479 276.968 65.2147 279.411C71.7241 282.893 76.8855 294.402 76.8855 294.402L72.4766 283.882L61.3245 269.417L45.7634 262.053L34.2656 254.689C34.2656 254.689 32.8726 254.068 39.0203 254.689C49.5843 255.756 57.2834 254.907 65.2147 262.053C68.7287 265.22 72.4766 271.784 72.4766 271.784C72.4766 271.784 65.9724 260.577 65.2147 252.585C64.199 241.871 72.4766 226.023 72.4766 226.023L84.666 212.61L78.9603 223.393L75.0701 237.858C75.0701 237.858 72.461 250.5 75.0701 257.845C76.8784 262.936 77.3363 268.442 82.5912 269.417C89.2843 270.659 86.3121 261.322 92.1872 257.845C97.2208 254.867 100.27 254.168 105.733 254.293C110.76 254.407 118.122 257.845 118.122 257.845H114.751L105.155 259.423L97.8929 262.053C97.8929 262.053 91.3516 267.067 89.853 271.784C89.1326 274.052 89.075 277.833 89.075 277.833M76.8855 305.185H121.234M76.8855 305.185H112.676M89.075 277.833L88.2969 283.882L89.853 294.402L89.075 277.833ZM89.075 277.833C89.075 277.833 91.8074 273.051 94.7807 271.784C97.6746 270.551 101.178 269.074 102.821 271.784C103.829 273.447 102.821 276.781 102.821 276.781C102.821 276.781 102.058 273.831 97.8929 274.414C96.9887 274.541 95.0322 276.15 93.7888 277.833C91.3295 281.161 92.1872 288.353 92.1872 288.353L99.9677 297.821L112.676 305.185M112.676 305.185C112.676 305.185 100.897 289.167 106.97 282.304C109.302 279.669 111.371 278.729 114.751 277.833C118.082 276.949 123.569 277.833 123.569 277.833C123.569 277.833 119.813 280.123 118.122 282.304C115.666 285.471 114.68 288.008 114.751 292.035C114.818 295.868 118.122 301.24 118.122 301.24L121.234 305.185M112.676 305.185H121.234M168.955 305.185C168.955 305.185 171.48 296.488 168.955 292.035C166.618 287.913 163.367 286.716 158.84 285.46C154.835 284.349 148.207 285.46 148.207 285.46C148.207 285.46 154.518 282.52 158.84 282.304C164.042 282.044 168.463 281.417 171.808 285.46C173.561 287.579 174.401 292.035 174.401 292.035C174.401 292.035 177.105 288.223 176.995 285.46C176.851 281.846 174.601 280.086 171.808 277.833C168.998 275.566 163.249 274.414 163.249 274.414C163.249 274.414 171.192 271.433 174.401 274.414C176.006 275.904 176.995 279.411 176.995 279.411L182.182 292.035C182.182 292.035 183.069 279.326 185.813 271.784C188.8 263.573 189.705 256.899 197.224 252.585C200.542 250.682 206.561 249.692 206.561 249.692H220.047C220.047 249.692 222.433 249.475 223.937 249.692C229.094 250.438 234.571 257.845 234.571 257.845H214.601H209.154C209.154 257.845 204.452 257.01 201.633 257.845C195.344 259.709 192.037 271.784 192.037 271.784V285.46C192.037 285.46 192.325 269.054 199.818 265.472C204.489 263.239 213.045 265.472 213.045 265.472L226.012 269.417H216.416L205.264 270.995C205.264 270.995 200.534 278.456 199.818 283.882C198.85 291.215 204.227 302.292 204.227 302.292C204.227 302.292 200.466 290.818 204.227 285.46C206.935 281.601 214.601 279.411 214.601 279.411L216.416 282.304L210.71 285.46L206.561 297.821V302.292L168.955 305.185Z" stroke="#7D0D0D" stroke-width="0.962234"/>
<path d="M76.8855 305.185C76.8855 305.185 73.7793 290.987 67.2895 285.46C63.0223 281.826 54.322 279.411 54.322 279.411H43.1699L45.7634 276.781H52.2472C52.2472 276.781 60.6479 276.968 65.2147 279.411C71.7241 282.893 76.8855 294.402 76.8855 294.402L72.4766 283.882L61.3245 269.417L45.7634 262.053L34.2656 254.689C34.2656 254.689 32.8726 254.068 39.0203 254.689C49.5843 255.756 57.2834 254.907 65.2147 262.053C68.7287 265.22 72.4766 271.784 72.4766 271.784C72.4766 271.784 65.9724 260.577 65.2147 252.585C64.199 241.871 72.4766 226.023 72.4766 226.023L84.666 212.61L78.9603 223.393L75.0701 237.858C75.0701 237.858 72.461 250.5 75.0701 257.845C76.8784 262.936 77.3363 268.442 82.5912 269.417C89.2843 270.659 86.3121 261.322 92.1872 257.845C97.2208 254.867 100.27 254.168 105.733 254.293C110.76 254.407 118.122 257.845 118.122 257.845H114.751L105.155 259.423L97.8929 262.053C97.8929 262.053 91.3516 267.067 89.853 271.784C89.1326 274.052 89.075 277.833 89.075 277.833M76.8855 305.185H121.234M76.8855 305.185H112.676M89.075 277.833L88.2969 283.882L89.853 294.402L89.075 277.833ZM89.075 277.833C89.075 277.833 91.8074 273.051 94.7807 271.784C97.6746 270.551 101.178 269.074 102.821 271.784C103.829 273.447 102.821 276.781 102.821 276.781C102.821 276.781 102.058 273.831 97.8929 274.414C96.9887 274.541 95.0322 276.15 93.7888 277.833C91.3295 281.161 92.1872 288.353 92.1872 288.353L99.9677 297.821L112.676 305.185M112.676 305.185C112.676 305.185 100.897 289.167 106.97 282.304C109.302 279.669 111.371 278.729 114.751 277.833C118.082 276.949 123.569 277.833 123.569 277.833C123.569 277.833 119.813 280.123 118.122 282.304C115.666 285.471 114.68 288.008 114.751 292.035C114.818 295.868 118.122 301.24 118.122 301.24L121.234 305.185M112.676 305.185H121.234M168.955 305.185C168.955 305.185 171.48 296.488 168.955 292.035C166.618 287.913 163.367 286.716 158.84 285.46C154.835 284.349 148.207 285.46 148.207 285.46C148.207 285.46 154.518 282.52 158.84 282.304C164.042 282.044 168.463 281.417 171.808 285.46C173.561 287.579 174.401 292.035 174.401 292.035C174.401 292.035 177.105 288.223 176.995 285.46C176.851 281.846 174.601 280.086 171.808 277.833C168.998 275.566 163.249 274.414 163.249 274.414C163.249 274.414 171.192 271.433 174.401 274.414C176.006 275.904 176.995 279.411 176.995 279.411L182.182 292.035C182.182 292.035 183.069 279.326 185.813 271.784C188.8 263.573 189.705 256.899 197.224 252.585C200.542 250.682 206.561 249.692 206.561 249.692H220.047C220.047 249.692 222.433 249.475 223.937 249.692C229.094 250.438 234.571 257.845 234.571 257.845H214.601H209.154C209.154 257.845 204.452 257.01 201.633 257.845C195.344 259.709 192.037 271.784 192.037 271.784V285.46C192.037 285.46 192.325 269.054 199.818 265.472C204.489 263.239 213.045 265.472 213.045 265.472L226.012 269.417H216.416L205.264 270.995C205.264 270.995 200.534 278.456 199.818 283.882C198.85 291.215 204.227 302.292 204.227 302.292C204.227 302.292 200.466 290.818 204.227 285.46C206.935 281.601 214.601 279.411 214.601 279.411L216.416 282.304L210.71 285.46L206.561 297.821V302.292L168.955 305.185Z" stroke="black" stroke-width="0.962234"/>
<mask id="path-7-inside-2_77_125" fill="white">
<path fill-rule="evenodd" clip-rule="evenodd" d="M20.85 178.095C7.84233 163.328 0 144.231 0 123.376C0 76.5492 39.5354 38.5891 88.3047 38.5891C106.347 38.5891 123.125 43.7842 137.105 52.7014C151.085 43.7844 167.863 38.5894 185.905 38.5894C234.674 38.5894 274.209 76.5496 274.209 123.376C274.209 143.027 267.247 161.116 255.561 175.494C268.569 190.262 276.411 209.358 276.411 230.214C276.411 277.04 236.875 315 188.106 315C170.064 315 153.286 309.805 139.306 300.888C125.326 309.805 108.548 315 90.5063 315C41.7369 315 2.20157 277.04 2.20157 230.214C2.20157 210.563 9.16419 192.473 20.85 178.095Z"/>
</mask>
<path d="M20.85 178.095L29.7874 185.359L35.9344 177.796L29.4925 170.483L20.85 178.095ZM137.105 52.7014L130.911 62.4114L137.105 66.3619L143.298 62.4115L137.105 52.7014ZM255.561 175.494L246.624 168.23L240.477 175.793L246.918 183.107L255.561 175.494ZM139.306 300.888L145.5 291.178L139.306 287.227L133.113 291.178L139.306 300.888ZM29.4925 170.483C18.2312 157.698 11.5171 141.272 11.5171 123.376H-11.5171C-11.5171 147.19 -2.54655 168.958 12.2074 185.708L29.4925 170.483ZM11.5171 123.376C11.5171 83.3468 45.4503 50.1062 88.3047 50.1062V27.0719C33.6205 27.0719 -11.5171 69.7517 -11.5171 123.376H11.5171ZM88.3047 50.1062C104.113 50.1062 118.748 54.6533 130.911 62.4114L143.298 42.9914C127.501 32.9151 108.58 27.0719 88.3047 27.0719V50.1062ZM143.298 62.4115C155.461 54.6535 170.096 50.1065 185.905 50.1065V27.0723C165.63 27.0723 146.709 32.9153 130.911 42.9913L143.298 62.4115ZM185.905 50.1065C228.759 50.1065 262.692 83.3472 262.692 123.376H285.726C285.726 69.752 240.589 27.0723 185.905 27.0723V50.1065ZM262.692 123.376C262.692 140.243 256.729 155.796 246.624 168.23L264.498 182.758C277.764 166.436 285.726 145.81 285.726 123.376H262.692ZM287.928 230.214C287.928 206.399 278.957 184.632 264.204 167.882L246.918 183.107C258.18 195.892 264.894 212.318 264.894 230.214H287.928ZM188.106 326.517C242.79 326.517 287.928 283.837 287.928 230.214H264.894C264.894 270.242 230.96 303.483 188.106 303.483V326.517ZM133.113 310.598C148.91 320.674 167.831 326.517 188.106 326.517V303.483C172.298 303.483 157.663 298.936 145.5 291.178L133.113 310.598ZM90.5063 326.517C110.781 326.517 129.702 320.674 145.5 310.598L133.113 291.178C120.95 298.936 106.315 303.483 90.5063 303.483V326.517ZM-9.31555 230.214C-9.31555 283.838 35.822 326.517 90.5063 326.517V303.483C47.6519 303.483 13.7187 270.242 13.7187 230.214H-9.31555ZM11.9125 170.831C-1.35305 187.153 -9.31555 207.779 -9.31555 230.214H13.7187C13.7187 213.346 19.6814 197.794 29.7874 185.359L11.9125 170.831Z" fill="#525492" mask="url(#path-7-inside-2_77_125)"/>
<path d="M56.479 127.668L52.5278 126.448C53.0342 123.472 53.9827 121.247 55.3733 119.772C56.5374 118.538 57.8175 118.571 59.2134 119.873C59.6098 120.243 60.5984 121.616 62.1793 123.993C63.7591 126.337 65.0832 128.007 66.1517 129.004C67.2202 130 68.2312 130.508 69.1848 130.528C68.9859 132.147 68.3933 133.48 67.407 134.525C66.4207 135.571 65.3727 135.996 64.263 135.798C63.1694 135.584 61.9591 134.858 60.6321 133.62C60.0347 134.803 59.2671 135.892 58.3293 136.886C56.1304 139.218 53.628 140.429 50.8221 140.519C48.0325 140.592 45.2245 139.31 42.3981 136.674C41.1918 135.549 40.2107 134.15 39.4549 132.478C38.6819 130.791 38.2058 128.977 38.0266 127.037C37.8474 125.098 38.1332 123.06 38.884 120.924C39.6336 118.755 40.7684 116.865 42.2883 115.253C43.8243 113.624 45.3224 112.637 46.7826 112.291C48.2589 111.928 49.5313 112.244 50.5998 113.241C51.6683 114.238 52.1726 115.369 52.1129 116.634C52.0521 117.867 51.6013 118.929 50.7605 119.82C49.9197 120.712 48.9702 121.341 47.912 121.707C46.8527 122.04 45.759 122.084 44.631 121.837C44.2059 123.181 44.333 124.798 45.0122 126.689C45.6913 128.579 46.7461 130.191 48.1765 131.525C49.6069 132.86 50.9427 133.59 52.184 133.716C53.4241 133.81 54.4403 133.436 55.2326 132.596C56.3806 131.379 56.7961 129.736 56.479 127.668Z" fill="#301050"/>
<path d="M77.6161 113.176L74.5705 110.909C73.5478 111.584 72.409 112.11 71.1541 112.487C71.7882 113.876 72.2913 114.843 72.6634 115.388C73.9523 117.275 75.2107 118.492 76.4385 119.036C75.8565 120.691 74.9263 121.941 73.648 122.785C72.3697 123.629 71.2093 123.873 70.167 123.516C69.1114 123.14 68.0919 122.232 67.1086 120.792C66.112 119.332 63.9211 114.807 60.5358 107.215L56.8395 105.124C58.0855 102.268 59.6327 100.23 61.4814 99.009C62.8974 98.0741 64.1882 97.6453 65.3538 97.7228C66.4302 96.1649 67.5584 94.9965 68.7384 94.2173C70.5477 93.0226 72.3953 92.678 74.2811 93.1836C76.167 93.6891 77.688 94.7885 78.844 96.4818C79.7078 97.7469 80.2204 99.1874 80.382 100.803C80.5303 102.4 80.2276 103.983 79.4739 105.554C81.4315 107 83.2884 108.132 85.0445 108.949C86.8204 109.753 88.2741 110.106 89.4057 110.008C89.285 110.709 88.8984 111.501 88.2456 112.384C87.6259 113.273 86.9718 113.945 86.2835 114.4C84.9462 115.283 83.6484 115.659 82.3903 115.53C81.1189 115.381 79.5275 114.597 77.6161 113.176ZM70.2795 108.448C71.8528 107.409 72.7997 106.205 73.1202 104.836C73.4604 103.453 73.3182 102.305 72.6937 101.39C72.0692 100.475 71.3152 99.9141 70.4318 99.7067C69.5484 99.4994 68.6347 99.7074 67.6907 100.331C67.1794 100.668 66.7145 101.074 66.2962 101.548C68.2049 105.681 69.2999 108.121 69.5811 108.867C69.732 108.795 69.9648 108.656 70.2795 108.448Z" fill="#301050"/>
<path d="M103.768 84.021L106.625 91.9327C107.701 94.6244 108.827 96.8069 110.003 98.48C111.201 100.145 112.558 101.096 114.074 101.334C112.927 102.845 111.57 103.893 110.003 104.48C107.244 105.512 104.661 103.937 102.254 99.7561L95.4999 102.283C95.649 103.862 95.8766 105.035 96.1827 105.801C96.48 106.545 96.8088 107.113 97.1691 107.507C95.9467 109.147 94.6954 110.206 93.4152 110.685C91.4507 111.42 89.9962 110.605 89.0516 108.242C88.5793 107.06 88.3488 105.436 88.36 103.369C88.3933 101.294 88.5535 98.869 88.8404 96.0952C89.1494 93.3131 89.3208 91.4881 89.3545 90.6202C88.6395 89.5292 87.9 88.4726 87.1362 87.4502C87.9691 86.233 88.8367 85.2293 89.7387 84.4391C90.6541 83.6187 91.7299 82.9773 92.966 82.5149C94.2242 82.0443 95.2054 81.9917 95.9096 82.3571C96.9492 81.3394 97.8773 80.6777 98.694 80.3722C99.5107 80.0667 100.17 79.971 100.672 80.085C101.175 80.1989 101.615 80.4746 101.992 80.9118C102.651 81.6716 103.243 82.708 103.768 84.021ZM97.4146 87.2655L96.3551 87.6619C95.8903 92.2128 95.6096 95.7641 95.513 98.3158L100.645 96.3961C99.6917 94.0107 98.6149 90.9672 97.4146 87.2655Z" fill="#301050"/>
<path d="M124.39 88.8949L125.24 94.7709L126.151 94.6455C127.007 91.6975 127.728 88.5779 128.314 85.2867C128.895 81.9723 129.052 79.4893 128.783 77.8378C128.676 77.1866 128.446 76.5762 128.09 76.0068C129.668 74.553 131.203 73.7232 132.697 73.5175C135.032 73.196 136.414 74.3495 136.842 76.9778C137.054 78.2804 136.961 79.9817 136.564 82.0817C136.186 84.1553 135.541 86.7888 134.629 89.9822C133.713 93.1524 133.228 94.8602 133.172 95.1056L133.975 96.9571C133.041 97.9656 131.783 98.888 130.201 99.7242C128.615 100.537 126.806 101.083 124.775 101.363C122.744 101.643 121.185 101.524 120.098 101.008C119.011 100.492 118.343 99.4662 118.093 97.9311L117.082 91.5065C116.214 86.1799 114.948 82.5134 113.284 80.507C112.514 79.5904 111.636 78.8908 110.65 78.4082C112.041 76.98 113.763 76.1245 115.818 75.8416C117.685 75.5845 119.194 76.1259 120.343 77.4659C121.489 78.7827 122.367 80.4336 122.977 82.4186C123.51 84.224 123.981 86.3828 124.39 88.8949Z" fill="#301050"/>
<path d="M157.302 73.9962C160.402 74.2483 162.706 74.802 164.214 75.6574C165.723 76.4893 166.431 77.6933 166.338 79.2696C166.247 80.8223 165.696 81.9713 164.685 82.7164C163.698 83.4399 162.594 83.752 161.373 83.6527C160.151 83.5534 159.065 83.1578 158.114 82.4659C157.189 81.7523 156.568 80.8627 156.253 79.797C155.384 79.7263 154.533 79.9526 153.7 80.4759C152.891 80.9775 152.355 81.6784 152.089 82.5788C156.674 84.0862 159.932 85.6749 161.864 87.3448C163.796 89.0147 164.692 91.026 164.554 93.3787C164.416 95.7313 163.237 97.5266 161.017 98.7643C158.82 100.004 155.913 100.477 152.295 100.183C148.701 99.8905 146.182 99.1893 144.736 98.0789C143.291 96.9686 142.616 95.6017 142.711 93.9784C142.807 92.3551 143.399 90.9022 144.489 89.6198C144.921 90.7186 145.804 91.7478 147.14 92.7075C148.5 93.669 149.861 94.2052 151.223 94.3159C153.737 94.5203 155.381 93.8502 156.156 92.3058C152.287 91.4712 149.379 90.1474 147.432 88.3344C145.487 86.4979 144.583 84.4033 144.721 82.0506C144.814 80.4744 145.319 79.1089 146.236 77.9543C147.155 76.7761 148.292 75.9112 149.646 75.3594C152.307 74.252 154.859 73.7976 157.302 73.9962Z" fill="#301050"/>
<path d="M172.436 82.0043C172.935 80.1618 173.787 78.9117 174.99 78.2538C176.194 77.596 177.452 77.4567 178.766 77.8361C180.101 78.2221 181.851 78.9729 184.014 80.0885C186.178 81.2041 187.834 81.9401 188.982 82.2965C191.005 82.4886 192.96 82.5749 194.845 82.5554C194.866 83.1991 194.756 83.9646 194.515 84.8517C194.016 86.6941 193.108 87.928 191.791 88.5531C190.497 89.1848 189.035 89.2652 187.405 88.7942C186.997 88.6764 186.46 88.4967 185.793 88.2549C182.766 94.4689 181.148 97.9625 180.938 98.7359C180.34 100.942 180.233 102.69 180.616 103.978C178.981 104.609 177.427 104.712 175.955 104.286C174.484 103.861 173.545 103.136 173.139 102.112C172.739 101.064 172.767 99.6986 173.224 98.0154C173.686 96.3094 175.569 91.9725 178.874 85.0048C176.223 84.6069 173.967 84.3721 172.107 84.3006C172.079 83.6796 172.189 82.9142 172.436 82.0043Z" fill="#301050"/>
<path d="M193.953 110.68C192.715 110.048 191.996 109.192 191.798 108.112C191.611 107.011 191.907 105.681 192.687 104.121C193.477 102.54 196.366 98.4184 201.355 91.7572L201.377 87.5221C204.519 87.1937 207.065 87.5277 209.017 88.524C210.256 89.156 210.727 90.1373 210.431 91.4678C212.835 92.6151 216.063 93.588 220.116 94.3866C219.937 95.168 219.678 95.896 219.341 96.5706C218.488 98.2781 217.278 99.2748 215.713 99.5606C214.168 99.8572 212.514 99.5555 210.751 98.6556C209.555 98.045 208.505 97.1921 207.604 96.097C206.962 96.9599 205.893 98.3594 204.399 100.295C205.102 100.839 205.726 101.251 206.272 101.529C207.217 101.8 208.283 102.039 209.469 102.248C209.395 102.66 209.153 103.277 208.742 104.099C208.342 104.9 207.695 105.377 206.802 105.53C205.909 105.683 205.053 105.55 204.234 105.132C203.437 104.725 202.665 104.213 201.92 103.594C201.026 104.805 200.283 106 199.693 107.181L204.794 109.784C206.506 110.366 208.317 110.774 210.228 111.009C210.165 111.453 209.969 112.001 209.643 112.655C209.021 113.899 208.101 114.818 206.881 115.413C205.683 116.018 204.444 115.994 203.163 115.341C202.491 114.998 201.573 114.357 200.409 113.419C199.255 112.513 198.379 111.867 197.781 111.483C196.467 111.58 195.192 111.312 193.953 110.68Z" fill="#301050"/>
<path d="M229.561 126.29L230.576 126.4C231.294 123.162 232.781 120.198 235.039 117.508C236.796 115.414 238.804 114.066 241.062 113.465C243.339 112.879 245.427 113.378 247.327 114.964C248.322 115.794 249.02 116.668 249.419 117.585C248.39 118.445 246.587 119.933 244.011 122.05C238.468 126.602 235.363 129.275 234.696 130.069C233.257 131.784 232.471 133.307 232.338 134.639C231.103 134.498 230.067 134.248 229.231 133.887C228.395 133.527 227.443 132.902 226.375 132.011C225.326 131.135 224.556 130.109 224.067 128.933C223.595 127.772 223.389 126.587 223.449 125.379C223.543 124.168 223.862 122.853 224.406 121.435C225.357 118.944 227.011 116.149 229.366 113.05L228.931 112.688C224.948 115.748 222.328 118.027 221.07 119.525C219.813 121.024 219.092 122.433 218.907 123.752C217.14 123.659 215.668 123.121 214.492 122.139C213.316 121.158 212.755 120.122 212.809 119.031C212.878 117.922 213.473 116.7 214.594 115.364C215.731 114.01 219.505 110.668 225.917 105.337L226.91 101.239C230.027 101.63 232.382 102.491 233.974 103.819C235.566 105.148 236.535 106.432 236.879 107.671C237.239 108.893 237.135 110.172 236.567 111.508C235.998 112.845 235.287 114.17 234.432 115.482C233.61 116.791 232.692 118.435 231.678 120.413C230.682 122.406 229.977 124.365 229.561 126.29Z" fill="#301050"/>
<path d="M105.19 212.753C108.486 209.964 112.563 207.917 116.937 208.141C120.198 208.308 123.343 209.468 126.727 209.507C133.072 209.578 138.909 210.162 145.044 208.373C148.686 207.311 152.821 206.737 156.636 207.214C157.893 207.371 158.868 208.525 160.269 208.579C161.794 208.638 163.121 208.471 164.545 208.115" stroke="#9A9393" stroke-width="3.37087" stroke-linecap="round"/>
<path d="M111.682 227.591C117.838 227.591 125.685 228.742 131.699 227.102C134.415 226.361 136.802 225.315 139.402 224.448C140.722 224.008 141.919 224.285 142.751 225.273C145.004 227.948 146.451 227.591 149.964 227.591C152.211 227.591 154.244 226.664 156.559 226.664C157.985 226.664 159.41 226.664 160.836 226.664" stroke="#9A9393" stroke-width="3.37087" stroke-linecap="round"/>
<path d="M125.593 247.995C128.253 247.896 130.556 246.14 133.116 246.14C135.976 246.14 139.571 247.841 141.128 250.262C142.304 252.092 146.879 250.202 148.315 249.643C150.271 248.883 152.289 248.922 154.343 248.922" stroke="#9A9393" stroke-width="3.37087" stroke-linecap="round"/>
</svg>
