<svg width="277" height="277" viewBox="0 0 277 277" fill="none" xmlns="http://www.w3.org/2000/svg">
<path fill-rule="evenodd" clip-rule="evenodd" d="M20.85 139.506C7.84233 124.739 0 105.642 0 84.7864C0 37.9602 39.5354 0 88.3048 0C106.347 0 123.125 5.19512 137.105 14.1124C151.085 5.19533 167.863 0.000339432 185.905 0.000339432C234.674 0.000339432 274.209 37.9605 274.209 84.7868C274.209 104.438 267.247 122.527 255.561 136.905C268.569 151.673 276.411 170.769 276.411 191.625C276.411 238.451 236.875 276.411 188.106 276.411C170.064 276.411 153.286 271.216 139.306 262.299C125.326 271.216 108.548 276.411 90.5064 276.411C41.737 276.411 2.20157 238.451 2.20157 191.625C2.20157 171.974 9.16419 153.884 20.85 139.506Z" fill="#D9CBCB"/>
<path fill-rule="evenodd" clip-rule="evenodd" d="M35.9344 139.207L29.7874 146.77C19.6814 159.204 13.7187 174.757 13.7187 191.625C13.7187 231.653 47.6519 264.894 90.5064 264.894C106.315 264.894 120.95 260.347 133.113 252.589L139.306 248.638L145.5 252.589C157.663 260.347 172.298 264.894 188.106 264.894C230.961 264.894 264.894 231.653 264.894 191.625C264.894 173.729 258.18 157.302 246.919 144.517L240.477 137.204L246.624 129.641C256.73 117.207 262.692 101.654 262.692 84.7868C262.692 44.7581 228.759 11.5175 185.905 11.5175C170.096 11.5175 155.461 16.0645 143.298 23.8224L137.105 27.7729L130.911 23.8224C118.748 16.0642 104.113 11.5171 88.3048 11.5171C45.4503 11.5171 11.5171 44.7578 11.5171 84.7864C11.5171 102.682 18.2312 119.109 29.4925 131.894L35.9344 139.207ZM137.105 14.1124C123.125 5.19512 106.347 0 88.3048 0C39.5354 0 0 37.9602 0 84.7864C0 105.642 7.84233 124.739 20.85 139.506C9.16419 153.884 2.20157 171.974 2.20157 191.625C2.20157 238.451 41.737 276.411 90.5064 276.411C108.548 276.411 125.326 271.216 139.306 262.299C153.286 271.216 170.064 276.411 188.106 276.411C236.875 276.411 276.411 238.451 276.411 191.625C276.411 170.769 268.569 151.673 255.561 136.905C267.247 122.527 274.209 104.438 274.209 84.7868C274.209 37.9605 234.674 0.000339432 185.905 0.000339432C167.863 0.000339432 151.085 5.19533 137.105 14.1124Z" fill="#191919"/>
<path d="M76.4791 137.33L134.484 133.321L180.503 130.556L190.147 133.321V123.92H169.756L154.324 126.271H143.302H134.484L105.137 128.206L74.1369 130.556L76.4791 137.33Z" fill="#6D6D6D"/>
<path fill-rule="evenodd" clip-rule="evenodd" d="M80.8881 248.613V263.543H105.137H154.324H194.556V253.866V237.969V226.771V209.353L192.489 189.585V170.507L190.147 147.836V133.321L180.503 130.556L134.484 133.321L76.4791 137.33V147.836L80.8881 248.613ZM98.2483 160.001H88.1904V176.175L91.7726 202.026V214.191V237.969L94.2527 253.866H184.498V241.701V226.771V211.288L183.258 194.838V178.249L180.503 154.333L175.542 151.983L180.503 137.33L171.547 145.486H138.48L100.728 147.836L90.3773 139.119L98.2483 151.983V160.001Z" fill="#9A9393"/>
<path fill-rule="evenodd" clip-rule="evenodd" d="M74.1369 130.556L105.137 128.206L134.484 126.271H143.302H154.324L169.756 123.92H190.147V107.608L184.498 104.014H180.503L173.338 93.0928L166.173 84.3837L151.844 77.0569L141.235 73.7391L138.48 71.1126H124.702L121.809 73.7391L111.751 77.0569L100.728 82.4483L91.7726 89.0838L86.3992 96.4106L80.8881 107.608L76.4791 111.617L72.0702 118.667V126.271L74.1369 130.556ZM80.8881 118.667V123.92H88.1904L97.146 122.123L108.444 121.709H121.809L141.235 120.188H155.151L169.756 118.944L177.885 118.253H183.671L185.325 115.488L184.498 111.617H180.503H173.338L169.756 109.129L166.173 100.973L161.351 93.0928L147.849 89.0838L136.689 86.1808H126.769L119.053 89.0838L108.444 91.0192L98.2483 98.8989L91.7726 111.617V118.667H88.1904H80.8881Z" fill="#868686"/>
<path d="M124.013 96.4106L123.324 101.111L124.426 102.078L124.013 103.876L124.84 106.087L125.804 106.917L125.666 108.99L126.08 110.788H128.422L131.866 110.096L133.106 108.99V107.193L133.933 104.29L134.071 101.525L134.553 100.212L135.035 98.8989V95.8576L131.591 93.784H128.973L126.08 94.1987L124.013 96.4106Z" fill="#9B9595"/>
<path d="M135.035 95.8576V98.8989L134.553 100.212L137.515 100.558L140.271 100.973L142.062 102.631L145.507 106.779L146.609 109.82L147.435 112.585L149.089 109.82L148.4 106.226L145.093 100.973L146.609 101.525L149.778 105.258L151.707 108.437L152.396 112.585L153.222 114.105L155.978 112.308L156.391 109.543L153.222 104.29L152.12 100.973L155.151 104.981L158.32 110.649L160.387 115.211L160.938 118.667L162.316 116.732L163.418 111.755L162.316 105.811L159.147 100.143L157.907 98.8989L152.947 94.337L149.364 92.1251L144.404 90.6045L140.271 90.0515L139.72 92.6781L138.204 95.1664L135.035 95.8576Z" fill="#5A5A5A"/>
<path fill-rule="evenodd" clip-rule="evenodd" d="M88.1904 160.001H98.2483V151.983L90.3773 139.119L100.728 147.836L138.48 145.486H171.547L180.503 137.33L175.542 151.983L180.503 154.333L183.258 178.249V194.838L184.498 211.288V226.771V241.701V253.866H94.2527L91.7726 237.969V214.191V202.026L88.1904 176.175V160.001ZM80.8881 118.667V123.92H88.1904L97.146 122.123L108.444 121.709H121.809L141.235 120.188H155.151L169.756 118.944L177.885 118.253H183.671L185.325 115.488L184.498 111.617H180.503H173.338L169.756 109.129L166.173 100.973L161.351 93.0928L147.849 89.0838L136.689 86.1808H126.769L119.053 89.0838L108.444 91.0192L98.2483 98.8989L91.7726 111.617V118.667H88.1904H80.8881ZM124.013 96.4106L126.08 94.1987L128.973 93.784H131.591L135.035 95.8576L138.204 95.1664L139.72 92.6781L140.271 90.0515L144.404 90.6045L149.364 92.1251L152.947 94.337L157.907 98.8989L159.147 100.143L162.316 105.811L163.418 111.755L162.316 116.732L160.938 118.667L160.387 115.211L158.32 110.649L155.151 104.981L152.12 100.973L153.222 104.29L156.391 109.543L155.978 112.308L153.222 114.105L152.396 112.585L151.707 108.437L149.778 105.258L146.609 101.525L145.093 100.973L148.4 106.226L149.089 109.82L147.435 112.585L146.609 109.82L145.507 106.779L142.062 102.631L140.271 100.973L137.515 100.558L134.553 100.212L134.071 101.525L133.933 104.29L133.106 107.193V108.99L131.866 110.096L128.422 110.788H126.08L125.666 108.99L125.804 106.917L124.84 106.087L124.013 103.876L124.426 102.078L123.324 101.111H118.088L115.195 104.567V111.617L114.093 114.52L111.751 111.617L112.302 105.534L109.684 109.267L108.444 114.52L109.684 118.253L105.137 115.626L103.622 110.511L106.239 102.77L112.302 98.8989L106.239 100.281L102.795 105.534L100.728 111.617L98.2483 118.253L97.8349 120.879L96.5949 118.253L95.7682 110.511L97.146 106.226L101.968 98.8989L107.617 96.4106L111.751 91.8486L120.706 90.1898L119.053 92.8163L121.809 96.4106H124.013Z" fill="#D9D9D9"/>
<path d="M95.7682 110.511L96.5949 118.253L97.8349 120.879L98.2483 118.253L100.728 111.617L102.795 105.534L106.239 100.281L112.302 98.8989L106.239 102.77L103.622 110.511L105.137 115.626L109.684 118.253L108.444 114.52L109.684 109.267L112.302 105.534L111.751 111.617L114.093 114.52L115.195 111.617V104.567L118.088 101.111H123.324L124.013 96.4106H121.809L119.053 92.8163L120.706 90.1898L111.751 91.8486L107.617 96.4106L101.968 98.8989L97.146 106.226L95.7682 110.511Z" fill="#5A5A5A"/>
<path d="M190.147 133.321V147.836L192.489 170.507V189.585L194.556 209.353V226.771V237.969V253.866V263.543L209.591 261.331L207.194 196.605L202.835 100.558L190.147 107.608V123.92V133.321Z" fill="#444444"/>
<path d="M184.498 104.014L190.147 107.608L202.835 100.558L188.7 97.3304L183.878 91.2479L178.918 83.2299L169.549 76.6899L162.316 73.7391L155.082 70.7883L148.4 71.1126H138.48L141.235 73.7391L151.844 77.0569L166.173 84.3837L173.338 93.0928L180.503 104.014H184.498Z" fill="#505050"/>
<path fill-rule="evenodd" clip-rule="evenodd" d="M155.179 70.2249L169.818 76.1967L179.332 82.8383L184.336 90.9266L189.016 96.8301L203.374 100.108L207.752 196.584L210.168 261.811L194.597 264.101H80.3301V248.626L75.9211 147.848V137.424L73.6202 130.769L71.5122 126.398V118.507L76.0468 111.256L80.4343 107.267L85.9203 96.1201L91.3726 88.6857L100.437 81.9695L111.54 76.5389L121.521 73.2463L124.486 70.5546H148.386L155.179 70.2249ZM74.9009 131.058L76.867 136.744L134.446 132.764L134.451 132.764L180.564 129.993L189.589 132.58V124.478H169.798L154.367 126.829H134.503L105.179 128.762L105.174 128.763L74.9009 131.058ZM189.589 123.362V107.914L184.336 104.572H180.201L172.888 93.4241L165.816 84.8278L151.633 77.5754L140.945 74.2329L138.257 71.6707H124.917L122.096 74.232L111.962 77.575L101.019 82.9271L92.1728 89.482L86.8783 96.7011L81.342 107.95L76.9116 111.978L72.6283 118.827V126.143L74.4743 129.971L105.095 127.649L105.101 127.649L134.466 125.712H154.282L169.714 123.362H189.589ZM139.874 71.6707L141.526 73.2454L152.056 76.5385L166.531 83.9396L173.788 92.7616L180.804 103.456H184.661L190.166 106.959L201.291 100.778L188.385 97.8308L183.421 91.5691L178.504 83.6215L169.281 77.1831L154.986 71.3517L148.414 71.6707H139.874ZM202.319 101.483L190.705 107.936V147.807L193.047 170.479V189.556L195.114 209.324V262.897L209.015 260.852L206.637 196.63L206.637 196.625L202.319 101.483ZM193.998 262.985V209.382L191.931 189.614V170.536L189.589 147.865V133.741L180.441 131.119L134.523 133.878L134.518 133.878L77.0372 137.851V147.824L81.4462 248.601V262.985H193.998ZM126.667 85.6228H136.76L147.999 88.5462L161.715 92.6188L166.669 100.714L170.203 108.76L173.513 111.059H184.95L185.916 115.586L183.988 118.811H177.908L155.175 120.746H141.257L121.83 122.267H108.454L98.1219 122.646L98.1044 122.757L98.0532 122.648L97.2116 122.679L88.2459 124.478H80.3301V118.109H91.2146V111.483L97.8079 98.534L108.21 90.4946L118.903 88.5439L126.667 85.6228ZM98.2986 121.523L108.434 121.151H121.787L141.214 119.63H155.127L160.454 119.176L159.848 115.373L157.822 110.901L154.683 105.287L153.717 104.01L153.732 104.055L156.973 109.427L156.493 112.639L153.021 114.903L151.86 112.769L151.174 108.635L149.324 105.585L146.743 102.546L148.928 106.017L149.677 109.924L147.264 113.959L146.079 109.995L145.015 107.06L141.656 103.016L140.018 101.499L137.442 101.111L134.925 100.817L134.624 101.638L134.487 104.382L133.665 107.271V109.241L132.125 110.614L128.477 111.346H125.635L125.104 109.035L125.229 107.158L124.367 106.417L123.432 103.914L123.808 102.278L123.114 101.669H118.349L115.753 104.77V111.719L114.269 115.628L111.175 111.792L111.557 107.568L110.202 109.5L109.023 114.494L110.677 119.47L104.665 115.998L103.036 110.5L105.774 102.405L109.294 100.157L106.583 100.775L103.301 105.781L101.254 111.805L98.7908 118.395L98.2986 121.523ZM123.92 100.892L125.045 101.879L124.594 103.837L125.312 105.758L126.379 106.676L126.229 108.945L126.524 110.23H128.367L131.608 109.579L132.548 108.74V107.115L133.379 104.199L133.518 101.413L134.029 100.02L134.477 98.7997V96.1731L131.436 94.3421H129.013L126.353 94.7233L124.54 96.6641L123.92 100.892ZM123.771 95.8526L125.806 93.6742L128.933 93.226H131.746L135.133 95.2651L137.852 94.6721L139.193 92.4697L139.831 89.4297L144.524 90.0575L149.597 91.6126L153.285 93.8902L158.293 98.4964L159.596 99.8036L162.848 105.619L163.987 111.765L162.836 116.963L161.313 119.103L169.708 118.388L177.861 117.695H183.355L184.733 115.39L184.047 112.175H173.163L169.308 109.497L165.678 101.232L160.987 93.5668L147.699 89.6215L136.617 86.7389H126.87L119.203 89.6238L108.678 91.5438L98.6888 99.2638L92.3307 111.751V119.225H81.4462V123.362H88.135L97.0805 121.567L97.5349 121.551L96.0501 118.406L95.2009 110.453L96.6381 105.982L101.593 98.4546L107.284 95.9478L111.464 91.3343L121.857 89.4091L119.732 92.785L122.084 95.8526H123.771ZM135.593 96.3071V98.9981L135.321 99.74L137.589 100.005L140.524 100.446L142.468 102.247L145.998 106.497L147.139 109.645L147.607 111.211L148.501 109.716L147.872 106.434L143.752 99.8891L146.939 101.052L150.232 104.931L152.24 108.24L152.931 112.401L153.424 113.308L155.463 111.978L155.81 109.66L152.712 104.525L151.59 101.148L152.565 100.636L155.619 104.676L158.819 110.398L160.926 115.049L161.274 117.233L161.795 116.501L162.849 111.745L161.784 106.003L158.697 100.483L157.52 99.3015L152.608 94.7838L149.132 92.6377L144.285 91.1515L140.711 90.6734L140.246 92.8865L138.557 95.6608L135.593 96.3071ZM123.367 96.9687H121.533L118.374 92.8477L119.556 90.9705L112.038 92.363L107.951 96.8734L102.344 99.3433L97.6541 106.469L96.3357 110.569L97.1399 118.1L97.5656 119.001L97.7058 118.11L100.203 111.43L102.289 105.288L105.896 99.7873L112.178 98.3548L112.602 99.3693L106.705 103.134L104.207 110.522L105.609 115.254L108.691 117.035L107.865 114.546L109.166 109.034L113.046 103.501L112.327 111.442L113.916 113.413L114.637 111.515V104.364L117.828 100.553H122.842L123.367 96.9687ZM181.724 135.463L176.23 151.692L181.021 153.962L183.816 178.217V194.817L185.056 211.267V254.424H93.775L91.2146 238.012V202.065L87.6324 176.214V159.443H97.6903V152.14L89.9014 139.411L90.7368 138.692L100.917 147.265L138.463 144.928H171.331L181.724 135.463ZM179.282 139.197L171.763 146.044H138.497L100.54 148.407L92.6479 141.761L98.8064 151.826V160.559H88.7485V176.137L92.3307 201.988V237.926L94.7305 253.308H183.94V211.309L182.7 194.859V178.281L179.984 154.705L174.855 152.275L179.282 139.197Z" fill="black"/>
<path d="M67.2895 246.871C73.7793 252.398 76.8855 266.595 76.8855 266.595H112.676L99.9677 259.232L92.1872 249.764C92.1872 249.764 91.3295 242.572 93.7888 239.244C95.0322 237.561 96.9887 235.952 97.8929 235.825C102.058 235.242 102.821 238.192 102.821 238.192C102.821 238.192 103.829 234.858 102.821 233.195C101.178 230.485 97.6746 231.962 94.7807 233.195C91.8074 234.462 89.075 239.244 89.075 239.244L89.853 255.813L88.2969 245.293L89.075 239.244C89.075 239.244 89.1326 235.463 89.853 233.195C91.3516 228.478 97.8929 223.464 97.8929 223.464L105.155 220.834L114.751 219.256H118.122C118.122 219.256 110.76 215.818 105.733 215.703C100.27 215.579 97.2208 216.278 92.1872 219.256C86.3121 222.733 89.2843 232.07 82.5912 230.828C77.3363 229.853 76.8784 224.347 75.0701 219.256C72.461 211.911 75.0701 199.269 75.0701 199.269L78.9603 184.804L84.666 174.021L72.4766 187.434C72.4766 187.434 64.199 203.282 65.2147 213.996C65.9724 221.988 72.4766 233.195 72.4766 233.195C72.4766 233.195 68.7287 226.631 65.2147 223.464C57.2834 216.318 49.5843 217.167 39.0203 216.1C32.8726 215.479 34.2656 216.1 34.2656 216.1L45.7634 223.464L61.3245 230.828L72.4766 245.293L76.8855 255.813C76.8855 255.813 71.7241 244.304 65.2147 240.822C60.6479 238.379 52.2472 238.192 52.2472 238.192H45.7634L43.1699 240.822H54.322C54.322 240.822 63.0224 243.237 67.2895 246.871Z" fill="#49987E"/>
<path d="M168.955 266.595C168.955 266.595 171.48 257.899 168.955 253.446C166.618 249.324 163.367 248.127 158.84 246.871C154.835 245.76 148.207 246.871 148.207 246.871C148.207 246.871 154.518 243.931 158.84 243.715C164.042 243.455 168.463 242.828 171.808 246.871C173.561 248.99 174.401 253.446 174.401 253.446C174.401 253.446 177.105 249.634 176.995 246.871C176.851 243.257 174.601 241.497 171.808 239.244C168.998 236.977 163.249 235.825 163.249 235.825C163.249 235.825 171.192 232.844 174.401 235.825C176.006 237.315 176.995 240.822 176.995 240.822L182.182 253.446C182.182 253.446 183.069 240.737 185.813 233.195C188.8 224.983 189.705 218.31 197.224 213.996C200.542 212.093 206.561 211.103 206.561 211.103H220.047C220.047 211.103 222.433 210.886 223.937 211.103C229.094 211.849 234.571 219.256 234.571 219.256H214.601H209.154C209.154 219.256 204.452 218.421 201.633 219.256C195.344 221.12 192.037 233.195 192.037 233.195V246.871C192.037 246.871 192.325 230.465 199.818 226.883C204.489 224.65 213.045 226.883 213.045 226.883L226.012 230.828H216.416L205.264 232.406C205.264 232.406 200.534 239.867 199.818 245.293C198.85 252.625 204.227 263.703 204.227 263.703C204.227 263.703 200.466 252.228 204.227 246.871C206.935 243.012 214.601 240.822 214.601 240.822L216.416 243.715L210.71 246.871L206.561 259.232V263.703L168.955 266.595Z" fill="#49987E"/>
<path d="M106.97 243.715C100.897 250.578 112.676 266.595 112.676 266.595H121.234L118.122 262.651C118.122 262.651 114.818 257.279 114.751 253.446C114.68 249.419 115.666 246.882 118.122 243.715C119.813 241.534 123.569 239.244 123.569 239.244C123.569 239.244 118.082 238.36 114.751 239.244C111.371 240.14 109.302 241.08 106.97 243.715Z" fill="#49987E"/>
<path fill-rule="evenodd" clip-rule="evenodd" d="M35.9344 139.207L29.7874 146.77C19.6814 159.204 13.7187 174.757 13.7187 191.625C13.7187 231.653 47.6519 264.894 90.5064 264.894C106.315 264.894 120.95 260.347 133.113 252.589L139.306 248.638L145.5 252.589C157.663 260.347 172.298 264.894 188.106 264.894C230.961 264.894 264.894 231.653 264.894 191.625C264.894 173.729 258.18 157.302 246.919 144.517L240.477 137.204L246.624 129.641C256.73 117.207 262.692 101.654 262.692 84.7868C262.692 44.7581 228.759 11.5175 185.905 11.5175C170.096 11.5175 155.461 16.0645 143.298 23.8224L137.105 27.7729L130.911 23.8224C118.748 16.0642 104.113 11.5171 88.3048 11.5171C45.4503 11.5171 11.5171 44.7578 11.5171 84.7864C11.5171 102.682 18.2312 119.109 29.4925 131.894L35.9344 139.207ZM137.105 14.1124C123.125 5.19512 106.347 0 88.3048 0C39.5354 0 0 37.9602 0 84.7864C0 105.642 7.84233 124.739 20.85 139.506C9.16419 153.884 2.20157 171.974 2.20157 191.625C2.20157 238.451 41.737 276.411 90.5064 276.411C108.548 276.411 125.326 271.216 139.306 262.299C153.286 271.216 170.064 276.411 188.106 276.411C236.875 276.411 276.411 238.451 276.411 191.625C276.411 170.769 268.569 151.673 255.561 136.905C267.247 122.527 274.209 104.438 274.209 84.7868C274.209 37.9605 234.674 0.000339432 185.905 0.000339432C167.863 0.000339432 151.085 5.19533 137.105 14.1124Z" fill="#525492"/>
<path d="M54.2609 86.787L50.3173 85.5382C50.846 82.5674 51.8114 80.3502 53.2134 78.8865C54.3871 77.6612 55.6674 77.7044 57.0542 79.0162C57.448 79.3887 58.4268 80.7687 59.9906 83.1562C61.5536 85.5105 62.8658 87.1897 63.9273 88.1938C64.9888 89.1979 65.9964 89.7131 66.9502 89.7395C66.7392 91.3565 66.1365 92.6841 65.1421 93.7223C64.1477 94.7604 63.0961 95.1768 61.9874 94.9715C60.895 94.7492 59.6897 94.0145 58.3714 92.7675C57.765 93.9456 56.989 95.0282 56.0435 96.0153C53.8264 98.3299 51.3141 99.5218 48.5066 99.591C45.7153 99.6432 42.9158 98.3413 40.108 95.6853C38.9095 94.5517 37.9385 93.1465 37.1948 91.4699C36.4341 89.7771 35.9712 87.9607 35.8064 86.0206C35.6415 84.0804 35.9425 82.0457 36.7094 79.9165C37.4754 77.754 38.6247 75.8729 40.1571 74.2731C41.7058 72.6563 43.2118 71.6804 44.675 71.3452C46.1545 70.993 47.4251 71.3189 48.4866 72.323C49.5481 73.3271 50.0442 74.4615 49.9751 75.726C49.9051 76.9574 49.4462 78.0156 48.5985 78.9006C47.7508 79.7856 46.7963 80.4073 45.7349 80.7658C44.6728 81.0911 43.5784 81.1264 42.4517 80.8717C42.0166 82.2117 42.1317 83.8291 42.7971 85.7236C43.4625 87.6182 44.5057 89.2375 45.9267 90.5817C47.3478 91.9259 48.6786 92.6658 49.9194 92.8014C51.1593 92.9037 52.1787 92.538 52.9775 91.704C54.135 90.4957 54.5628 88.8567 54.2609 86.787Z" fill="#301050"/>
<path d="M75.8161 72.1899L72.7832 69.9015C71.7548 70.568 70.6112 71.0845 69.3524 71.4511C69.9775 72.843 70.4743 73.8127 70.843 74.36C72.12 76.256 73.3712 77.4808 74.5965 78.0346C74.0023 79.6832 73.0625 80.924 71.777 81.7572C70.4915 82.5903 69.3283 82.8247 68.2874 82.4603C67.2334 82.0764 66.2192 81.1613 65.245 79.7148C64.2575 78.2488 62.096 73.711 58.7602 66.1013L55.0749 63.9831C56.3419 61.1402 57.905 59.1164 59.764 57.9116C61.188 56.9888 62.4831 56.5706 63.6493 56.6571C64.7376 55.1095 65.8751 53.9511 67.0617 53.1821C68.8811 52.0029 70.733 51.6732 72.6172 52.193C74.5014 52.7127 76.0163 53.8229 77.1617 55.5234C78.0174 56.7939 78.5206 58.2368 78.671 59.8522C78.8083 61.4479 78.4943 63.0273 77.7289 64.5904C79.6784 66.0506 81.5292 67.1957 83.2814 68.0256C85.0534 68.8427 86.5062 69.2069 87.6396 69.1182C87.5139 69.8174 87.1213 70.6053 86.4618 71.482C85.8352 72.3654 85.1758 73.0314 84.4836 73.48C83.1388 74.3516 81.8372 74.7178 80.5787 74.5788C79.307 74.4201 77.7195 73.6238 75.8161 72.1899ZM68.5051 67.4093C70.0872 66.3839 71.0435 65.1886 71.3739 63.8232C71.7241 62.445 71.5897 61.2966 70.971 60.3779C70.3522 59.4592 69.6014 58.8928 68.7185 58.6788C67.8357 58.4647 66.9196 58.6653 65.9703 59.2805C65.4561 59.6138 64.988 60.0154 64.566 60.4855C66.4478 64.629 67.5268 67.0746 67.803 67.8222C67.9546 67.752 68.1887 67.6144 68.5051 67.4093Z" fill="#301050"/>
<path d="M102.548 43.0841L105.36 51.0113C106.42 53.7092 107.534 55.8988 108.701 57.5801C109.89 59.2534 111.242 60.2154 112.758 60.4661C111.601 61.9652 110.236 63.0008 108.663 63.5728C105.895 64.5799 103.319 62.985 100.936 58.7879L94.1588 61.2534C94.2983 62.8322 94.5188 64.0054 94.8205 64.7731C95.1136 65.5189 95.4392 66.0899 95.7974 66.486C94.5636 68.1132 93.3045 69.1604 92.02 69.6277C90.0489 70.3448 88.5979 69.5189 87.667 67.15C87.2016 65.9655 86.9809 64.3411 87.0049 62.2766C87.0511 60.204 87.2264 57.7837 87.5308 55.0155C87.8574 52.2393 88.0402 50.4179 88.0794 49.5513C87.3703 48.4555 86.6366 47.3937 85.8784 46.3659C86.7197 45.1573 87.5943 44.1622 88.5022 43.3807C89.4237 42.5691 90.5045 41.9378 91.7447 41.4866C93.0071 41.0273 93.9896 40.9833 94.6923 41.3544C95.7392 40.3467 96.6724 39.6939 97.4918 39.3958C98.3113 39.0977 98.972 39.0077 99.4741 39.1259C99.9762 39.2441 100.415 39.5232 100.79 39.9632C101.445 40.7278 102.031 41.7681 102.548 43.0841ZM96.1684 46.2701L95.1054 46.6568C94.612 51.1985 94.309 54.7433 94.1965 57.2912L99.3456 55.4179C98.4061 53.0271 97.347 49.9778 96.1684 46.2701Z" fill="#301050"/>
<path d="M123.555 48.0197L124.372 53.9L125.284 53.783C126.157 50.8446 126.896 47.7334 127.5 44.4495C128.101 41.1423 128.272 38.6623 128.012 37.0093C127.909 36.3575 127.682 35.7454 127.329 35.1731C128.916 33.7345 130.457 32.9192 131.953 32.7272C134.29 32.4273 135.666 33.5927 136.079 36.2234C136.284 37.5271 136.182 39.2266 135.772 41.3217C135.382 43.3906 134.722 46.0166 133.792 49.1998C132.858 52.3598 132.362 54.0621 132.306 54.3069L133.098 56.1646C132.159 57.164 130.895 58.0743 129.307 58.8956C127.716 59.6936 125.903 60.2231 123.869 60.484C121.836 60.745 120.277 60.6126 119.192 60.0867C118.108 59.5608 117.445 58.5296 117.204 56.993L116.228 50.563C115.39 45.2317 114.144 41.5558 112.491 39.5354C111.726 38.6123 110.852 37.9051 109.868 37.4138C111.267 35.9992 112.995 35.16 115.052 34.896C116.922 34.656 118.429 35.2109 119.571 36.5606C120.709 37.887 121.578 39.545 122.177 41.5344C122.7 43.3436 123.159 45.5054 123.555 48.0197Z" fill="#301050"/>
<path d="M157.006 33.3909C160.104 33.6709 162.404 34.2455 163.906 35.1146C165.41 35.9602 166.111 37.1708 166.009 38.7465C165.909 40.2987 165.352 41.4429 164.336 42.1791C163.346 42.8938 162.24 43.196 161.02 43.0857C159.799 42.9754 158.716 42.5699 157.77 41.8693C156.848 41.1473 156.233 40.252 155.924 39.1832C155.056 39.1047 154.204 39.3234 153.368 39.8392C152.557 40.3336 152.016 41.0299 151.746 41.928C156.32 43.477 159.568 45.0953 161.49 46.7829C163.412 48.4705 164.296 50.4902 164.145 52.8421C163.993 55.1939 162.804 56.9788 160.577 58.1968C158.374 59.417 155.465 59.8637 151.851 59.5369C148.259 59.2123 145.745 58.4882 144.306 57.3647C142.868 56.2411 142.201 54.868 142.305 53.2452C142.41 51.6225 143.011 50.1747 144.108 48.9019C144.532 50.0047 145.41 51.0421 146.74 52.0139C148.094 52.9879 149.451 53.5364 150.813 53.6594C153.324 53.8864 154.972 53.2311 155.756 51.6934C151.893 50.8238 148.993 49.4736 147.057 47.6427C145.123 45.7883 144.231 43.6852 144.383 41.3334C144.485 39.7577 144.997 38.3966 145.921 37.25C146.846 36.0799 147.987 35.225 149.344 34.6853C152.011 33.6017 154.565 33.1702 157.006 33.3909Z" fill="#301050"/>
<path d="M172.537 41.5969C173.047 39.7576 173.906 38.5138 175.113 37.8657C176.32 37.2176 177.578 37.0888 178.888 37.4795C180.221 37.8769 181.964 38.6428 184.119 39.7773C186.274 40.9118 187.924 41.6621 189.07 42.0283C191.09 42.2375 193.043 42.3403 194.926 42.3367C194.943 42.981 194.829 43.7459 194.583 44.6315C194.072 46.4709 193.157 47.6978 191.837 48.3123C190.54 48.9335 189.078 49.0016 187.452 48.5166C187.045 48.3954 186.51 48.211 185.845 47.9635C182.781 54.1557 181.142 57.6378 180.927 58.4099C180.316 60.6126 180.198 62.36 180.572 63.6521C178.934 64.2698 177.38 64.3597 175.912 63.9219C174.445 63.4841 173.511 62.7508 173.112 61.722C172.719 60.6705 172.756 59.3045 173.222 57.6241C173.695 55.921 175.605 51.5974 178.951 44.6534C176.304 44.2329 174.052 43.979 172.193 43.8918C172.17 43.2702 172.284 42.5053 172.537 41.5969Z" fill="#301050"/>
<path d="M194.243 70.6033C193.009 69.9613 192.298 69.0994 192.107 68.0174C191.928 66.9144 192.233 65.5856 193.023 64.0309C193.824 62.4552 196.741 58.3545 201.774 51.7287L201.826 47.4917C204.967 47.1875 207.51 47.5413 209.454 48.5532C210.688 49.1951 211.152 50.1805 210.847 51.5094C213.241 52.6758 216.461 53.6742 220.506 54.5045C220.321 55.2848 220.058 56.0112 219.716 56.6834C218.851 58.3852 217.635 59.373 216.069 59.6468C214.523 59.9316 212.872 59.617 211.116 58.703C209.924 58.0829 208.882 57.2215 207.988 56.1188C207.341 56.9772 206.263 58.369 204.756 60.2944C205.455 60.844 206.076 61.2603 206.619 61.5432C207.562 61.8212 208.625 62.0692 209.81 62.2872C209.733 62.6987 209.486 63.3142 209.07 64.1335C208.664 64.9319 208.014 65.404 207.121 65.55C206.227 65.6959 205.373 65.5567 204.557 65.1324C203.763 64.7189 202.996 64.2 202.256 63.5758C201.353 64.7797 200.603 65.9699 200.005 67.1464L205.085 69.7903C206.791 70.3861 208.598 70.8087 210.507 71.0582C210.44 71.5017 210.241 72.0491 209.91 72.7003C209.28 73.9399 208.354 74.8525 207.131 75.4381C205.929 76.0346 204.69 76.001 203.415 75.3373C202.746 74.9891 201.833 74.3412 200.676 73.3935C199.529 72.4777 198.658 71.8251 198.063 71.4356C196.749 71.5227 195.476 71.2452 194.243 70.6033Z" fill="#301050"/>
<path d="M230.124 86.6954L231.138 86.8132C231.88 83.5812 233.39 80.6289 235.667 77.9563C237.441 75.8756 239.459 74.5429 241.722 73.9582C244.003 73.3887 246.088 73.9035 247.977 75.5027C248.966 76.3404 249.657 77.219 250.05 78.1385C249.014 78.9907 247.2 80.4654 244.607 82.5626C239.03 87.0728 235.904 89.7225 235.232 90.5117C233.78 92.2157 232.982 93.7328 232.839 95.0632C231.604 94.9133 230.57 94.6552 229.737 94.289C228.903 93.9227 227.956 93.2903 226.895 92.3917C225.852 91.5084 225.09 90.477 224.608 89.2975C224.145 88.1332 223.948 86.9473 224.018 85.7398C224.12 84.5295 224.449 83.2174 225.004 81.8035C225.974 79.3207 227.648 76.5386 230.027 73.4572L229.595 73.0917C225.588 76.1219 222.95 78.3814 221.681 79.8702C220.413 81.3589 219.681 82.7622 219.487 84.0801C217.72 83.9734 216.252 83.4251 215.083 82.4351C213.914 81.4452 213.361 80.4051 213.423 79.315C213.5 78.207 214.104 76.9893 215.235 75.662C216.382 74.3167 220.181 71.0029 226.634 65.7204L227.658 61.6308C230.773 62.0451 233.122 62.9224 234.704 64.2627C236.287 65.603 237.246 66.8938 237.581 68.1352C237.932 69.3587 237.818 70.6366 237.24 71.969C236.662 73.3015 235.94 74.6205 235.075 75.9262C234.243 77.2291 233.313 78.8656 232.284 80.8356C231.274 82.8209 230.554 84.7741 230.124 86.6954Z" fill="#301050"/>
<path fill-rule="evenodd" clip-rule="evenodd" d="M156.427 170.297C152.903 169.857 149.008 170.383 145.516 171.402C140.215 172.948 135.077 172.81 129.996 172.674C128.898 172.644 127.802 172.615 126.708 172.603C124.845 172.582 123.075 172.252 121.463 171.937C121.358 171.917 121.254 171.896 121.15 171.876C119.62 171.576 118.242 171.307 116.851 171.235C113.064 171.041 109.394 172.814 106.279 175.45C105.568 176.051 104.504 175.963 103.903 175.252C103.302 174.542 103.391 173.478 104.101 172.877C107.578 169.935 112.062 167.614 117.024 167.869C118.665 167.953 120.271 168.268 121.75 168.559C121.87 168.582 121.99 168.606 122.109 168.629C123.731 168.946 125.225 169.215 126.746 169.232C127.951 169.246 129.121 169.276 130.263 169.305C135.311 169.435 139.823 169.551 144.572 168.166C148.364 167.06 152.738 166.439 156.846 166.952C157.77 167.068 158.575 167.516 159.068 167.79C159.118 167.818 159.164 167.844 159.208 167.867C159.792 168.187 160.071 168.296 160.334 168.306C161.68 168.358 162.847 168.214 164.137 167.891C165.04 167.665 165.955 168.214 166.181 169.117C166.406 170.021 165.857 170.936 164.954 171.161C163.395 171.551 161.907 171.74 160.204 171.674C159.066 171.63 158.158 171.135 157.59 170.825C156.909 170.452 156.666 170.327 156.427 170.297Z" fill="#9A9393"/>
<path fill-rule="evenodd" clip-rule="evenodd" d="M141.461 187.769C141.138 187.385 140.697 187.204 139.935 187.458C139.069 187.747 138.166 188.081 137.235 188.425C135.604 189.028 133.888 189.663 132.142 190.139C128.89 191.026 125.222 191.141 121.704 191.057C120.171 191.021 118.635 190.946 117.156 190.873C116.929 190.862 116.703 190.851 116.479 190.84C114.783 190.758 113.175 190.688 111.682 190.688C110.751 190.688 109.996 189.933 109.996 189.002C109.996 188.071 110.751 187.317 111.682 187.317C113.266 187.317 114.948 187.391 116.642 187.473C116.87 187.484 117.098 187.495 117.326 187.506C118.807 187.579 120.297 187.652 121.783 187.688C125.231 187.769 128.494 187.64 131.255 186.887C132.897 186.439 134.32 185.91 135.821 185.351C136.78 184.995 137.77 184.627 138.869 184.26C140.746 183.635 142.701 184.008 144.04 185.598C145.007 186.746 145.634 187.061 146.257 187.202C146.627 187.286 147.07 187.323 147.693 187.331C148.058 187.335 148.408 187.331 148.806 187.326C149.144 187.322 149.517 187.317 149.964 187.317C150.878 187.317 151.773 187.129 152.882 186.891L152.923 186.882C153.971 186.656 155.213 186.389 156.559 186.389H160.836C161.766 186.389 162.521 187.144 162.521 188.075C162.521 189.006 161.766 189.76 160.836 189.76H156.559C155.608 189.76 154.69 189.95 153.59 190.186L153.504 190.205C152.474 190.426 151.26 190.688 149.964 190.688C149.625 190.688 149.27 190.692 148.923 190.696C148.465 190.701 148.022 190.706 147.65 190.701C146.943 190.693 146.225 190.651 145.512 190.49C143.97 190.141 142.747 189.296 141.461 187.769Z" fill="#9A9393"/>
<path fill-rule="evenodd" clip-rule="evenodd" d="M129.834 210.074C128.68 210.5 127.236 211.031 125.656 211.09C124.725 211.124 123.943 210.398 123.909 209.468C123.874 208.538 124.601 207.756 125.531 207.721C126.546 207.684 127.531 207.33 128.811 206.859C128.83 206.852 128.849 206.845 128.868 206.838C130.042 206.407 131.514 205.865 133.116 205.865C134.853 205.865 136.725 206.374 138.366 207.197C139.983 208.008 141.521 209.198 142.509 210.705C142.546 210.719 142.617 210.738 142.739 210.753C143.092 210.793 143.613 210.752 144.273 210.611C145.479 210.354 146.732 209.864 147.515 209.557C147.582 209.531 147.645 209.507 147.704 209.484C149.874 208.64 152.091 208.644 153.987 208.647C154.107 208.647 154.226 208.648 154.344 208.648C155.274 208.648 156.029 209.402 156.029 210.333C156.029 211.264 155.274 212.018 154.344 212.018C154.287 212.018 154.231 212.018 154.176 212.018C152.117 212.018 150.488 212.018 148.926 212.625C148.869 212.647 148.805 212.672 148.736 212.7C147.973 212.999 146.47 213.589 144.976 213.908C144.165 214.081 143.232 214.203 142.351 214.101C141.466 213.998 140.383 213.631 139.71 212.584C139.14 211.697 138.12 210.845 136.855 210.21C135.595 209.578 134.238 209.236 133.116 209.236C132.184 209.236 131.247 209.555 129.974 210.023C129.928 210.04 129.881 210.057 129.834 210.074ZM142.476 210.69C142.477 210.689 142.482 210.692 142.489 210.697C142.48 210.693 142.476 210.69 142.476 210.69Z" fill="#9A9393"/>
</svg>
