<svg width="341" height="288" viewBox="0 0 341 288" fill="none" xmlns="http://www.w3.org/2000/svg">
<mask id="path-1-inside-1_77_23" fill="white">
<path fill-rule="evenodd" clip-rule="evenodd" d="M275.935 176.457C287.313 161.918 293.779 145.244 293.779 127.517C293.779 70.9842 228.014 25.1552 146.889 25.1552C65.7647 25.1552 0.00012207 70.9842 0.00012207 127.517C0.00012207 145.244 6.46629 161.918 17.8446 176.457V267.577C17.8446 277.192 25.639 284.986 35.2537 284.986H258.526C268.14 284.986 275.935 277.192 275.935 267.577V176.457Z"/>
</mask>
<path fill-rule="evenodd" clip-rule="evenodd" d="M275.935 176.457C287.313 161.918 293.779 145.244 293.779 127.517C293.779 70.9842 228.014 25.1552 146.889 25.1552C65.7647 25.1552 0.00012207 70.9842 0.00012207 127.517C0.00012207 145.244 6.46629 161.918 17.8446 176.457V267.577C17.8446 277.192 25.639 284.986 35.2537 284.986H258.526C268.14 284.986 275.935 277.192 275.935 267.577V176.457Z" fill="#CFD1F5"/>
<path d="M275.935 176.457L267.366 169.751L265.054 172.705V176.457H275.935ZM17.8446 176.457H28.7253V172.706L26.4132 169.751L17.8446 176.457ZM282.898 127.517C282.898 142.475 277.469 156.842 267.366 169.751L284.503 183.163C297.157 166.994 304.66 148.013 304.66 127.517H282.898ZM146.889 36.0359C185.504 36.0359 219.993 46.9606 244.535 64.0633C269.115 81.1921 282.898 103.798 282.898 127.517H304.66C304.66 94.7035 285.56 66.1282 256.977 46.2094C228.356 26.2643 189.4 14.2745 146.889 14.2745V36.0359ZM10.8808 127.517C10.8808 103.798 24.664 81.1921 49.2439 64.0633C73.7862 46.9606 108.275 36.0359 146.889 36.0359V14.2745C104.379 14.2745 65.4234 26.2643 36.8022 46.2094C8.21859 66.1282 -10.8806 94.7035 -10.8806 127.517H10.8808ZM26.4132 169.751C16.3102 156.842 10.8808 142.475 10.8808 127.517H-10.8806C-10.8806 148.013 -3.37764 166.994 9.27605 183.163L26.4132 169.751ZM28.7253 267.577V176.457H6.96394V267.577H28.7253ZM35.2537 274.106C31.6482 274.106 28.7253 271.183 28.7253 267.577H6.96394C6.96394 283.201 19.6297 295.867 35.2537 295.867V274.106ZM258.526 274.106H35.2537V295.867H258.526V274.106ZM265.054 267.577C265.054 271.183 262.131 274.106 258.526 274.106V295.867C274.15 295.867 286.815 283.201 286.815 267.577H265.054ZM265.054 176.457V267.577H286.815V176.457H265.054Z" fill="#2F2BD4" mask="url(#path-1-inside-1_77_23)"/>
<mask id="path-3-inside-2_77_23" fill="white">
<path fill-rule="evenodd" clip-rule="evenodd" d="M275.935 176.457C287.313 161.918 293.779 145.244 293.779 127.517C293.779 70.9842 228.014 25.1552 146.889 25.1552C65.7647 25.1552 0.00012207 70.9842 0.00012207 127.517C0.00012207 145.244 6.46629 161.918 17.8446 176.457V267.577C17.8446 277.192 25.639 284.986 35.2537 284.986H258.526C268.14 284.986 275.935 277.192 275.935 267.577V176.457Z"/>
</mask>
<path fill-rule="evenodd" clip-rule="evenodd" d="M275.935 176.457C287.313 161.918 293.779 145.244 293.779 127.517C293.779 70.9842 228.014 25.1552 146.889 25.1552C65.7647 25.1552 0.00012207 70.9842 0.00012207 127.517C0.00012207 145.244 6.46629 161.918 17.8446 176.457V267.577C17.8446 277.192 25.639 284.986 35.2537 284.986H258.526C268.14 284.986 275.935 277.192 275.935 267.577V176.457Z" fill="#D1CAFF"/>
<path d="M275.935 176.457L267.366 169.751L265.054 172.705V176.457H275.935ZM17.8446 176.457H28.7253V172.706L26.4132 169.751L17.8446 176.457ZM282.898 127.517C282.898 142.475 277.469 156.842 267.366 169.751L284.503 183.163C297.157 166.994 304.66 148.013 304.66 127.517H282.898ZM146.889 36.0359C185.504 36.0359 219.993 46.9606 244.535 64.0633C269.115 81.1921 282.898 103.798 282.898 127.517H304.66C304.66 94.7035 285.56 66.1282 256.977 46.2094C228.356 26.2643 189.4 14.2745 146.889 14.2745V36.0359ZM10.8808 127.517C10.8808 103.798 24.664 81.1921 49.2439 64.0633C73.7862 46.9606 108.275 36.0359 146.889 36.0359V14.2745C104.379 14.2745 65.4234 26.2643 36.8022 46.2094C8.21859 66.1282 -10.8806 94.7035 -10.8806 127.517H10.8808ZM26.4132 169.751C16.3102 156.842 10.8808 142.475 10.8808 127.517H-10.8806C-10.8806 148.013 -3.37764 166.994 9.27605 183.163L26.4132 169.751ZM28.7253 267.577V176.457H6.96394V267.577H28.7253ZM35.2537 274.106C31.6482 274.106 28.7253 271.183 28.7253 267.577H6.96394C6.96394 283.201 19.6297 295.867 35.2537 295.867V274.106ZM258.526 274.106H35.2537V295.867H258.526V274.106ZM265.054 267.577C265.054 271.183 262.131 274.106 258.526 274.106V295.867C274.15 295.867 286.815 283.201 286.815 267.577H265.054ZM265.054 176.457V267.577H286.815V176.457H265.054Z" fill="#2F2BD4" mask="url(#path-3-inside-2_77_23)"/>
<path d="M101.626 85.4342L270.059 108.066L277.458 111.366C277.458 111.366 310.549 107.561 316.411 91.5274C318.775 85.0608 319.913 77.4282 318.916 70.8541C318.409 67.508 317.348 64.4362 315.614 61.9319C313.667 59.1186 310.87 57.0215 307.053 56.0564C288.121 51.2688 251.779 56.0564 251.779 56.0564C251.779 56.0564 195.669 52.3968 160.817 44.0876C128.415 36.3627 80.1237 16.4506 80.1237 16.4506C80.1237 16.4506 52.3705 5.06563 41.4096 14.4921C40.7429 15.0655 40.1382 15.7159 39.6058 16.4506C37.8804 18.8313 36.7755 21.2263 36.1781 23.6318C33.3211 35.1346 42.0666 46.8782 50.0512 58.4501C57.5225 69.2779 69.4561 77.7227 83.2141 84.302L88.3513 80.8643L91.1803 82.3876C92.4074 82.8994 93.6272 83.1614 94.8565 83.4255C95.941 83.6584 97.0329 83.8929 98.1439 84.302L101.626 85.4342Z" fill="#B43434"/>
<path d="M137.097 108.066L139.055 120.905L159.883 122.871L196.723 126.349L209.127 127.519L221.313 128.67L230.453 129.532L241.551 130.58L298.131 135.921V126.563L137.097 108.066Z" fill="#3734B4"/>
<path d="M59.191 140.926L62.6728 137.009L80.7348 132.004L73.7712 131.74L65.2842 131.418L58.647 131.167L52.0098 130.916L49.1274 134.833L45.9166 139.196L42.87 143.336L40.2586 146.885L38.2694 149.588L36.2802 152.292L36.132 164.21H37.6473H40.2586H42.87H45.9166H49.1274H52.0098H58.3594L59.191 140.926Z" fill="#3734B4"/>
<path d="M62.6728 137.009L59.191 140.926L58.3594 164.21H60.7143V153.983V151.806L80.7348 132.004L62.6728 137.009Z" fill="#3734B4"/>
<path d="M331.426 50.3983L315.614 61.9319C317.348 64.4362 318.409 67.508 318.916 70.8541L338.825 79.341L331.426 68.4603L337.519 57.7972L328.815 61.9319L331.426 50.3983Z" fill="#B43434"/>
<path d="M36.1781 23.6318C36.7755 21.2263 37.8804 18.8313 39.6058 16.4506C40.1382 15.7159 40.7429 15.0655 41.4096 14.4921L23.5024 1L32.2069 14.4921H22.1967L29.3779 19.2796L13.0569 23.6318H36.1781Z" fill="#B43434"/>
<path d="M218.484 140.708V184.449H241.551V142.449L218.484 140.708Z" fill="#C3D4F7"/>
<path d="M189.107 138.75V184.449H212.826V162.578V140.708L199.117 139.729L189.107 138.75Z" fill="#C3D4F7"/>
<path d="M152.547 135.921V186.625H179.096V137.879L152.547 135.921Z" fill="#C3D4F7"/>
<path d="M112.724 133.092V186.625H146.889V135.921L112.724 133.092Z" fill="#C3D4F7"/>
<path d="M57.6677 183.578L59.191 183.776L65.7194 184.625L73.7712 185.672L79.4291 186.407L80.1237 157.464L60.7143 153.983V164.21H58.3594L57.6677 183.578Z" fill="url(#paint0_linear_77_23)"/>
<path d="M80.7348 132.004L60.7143 151.806L80.1655 155.724L80.7348 132.004Z" fill="url(#paint1_linear_77_23)"/>
<path fill-rule="evenodd" clip-rule="evenodd" d="M101.626 85.7034V85.4342L98.1439 84.302C99.3057 84.7297 100.466 85.2002 101.626 85.7034Z" fill="#D8D3CA"/>
<path d="M88.3513 287.162V102.408L83.2141 105.131L73.7712 110.137L65.2842 114.635L58.647 118.154L52.0098 121.672L49.1274 123.2L45.9166 124.902L42.87 126.517L40.2586 127.901L38.4089 128.881L36.5592 129.862L36.2802 152.292L38.2694 149.588L40.2586 146.885L42.87 143.336L45.9166 139.196L49.1274 134.833L52.0098 130.916L58.647 131.167L65.2842 131.418L73.7712 131.74L80.7348 132.004L80.1655 155.724L80.1237 157.464L79.4291 186.407L73.7712 185.672L65.7194 184.625L59.191 183.776L57.6677 183.578L58.3594 164.21H52.0098H49.1274H45.9166H42.87H40.2586H37.6473H36.132L35.0359 252.344L37.6473 254.049L40.2586 255.755L42.87 257.46L45.9166 259.45L49.1274 261.547L52.0098 263.429L59.191 268.119L65.2842 272.098L73.7712 277.641L83.2141 283.807L88.3513 287.162Z" fill="#C09E99"/>
<path d="M185.189 107.13L300.307 121.558L277.458 111.366L270.059 108.066L102.453 85.8133L134.56 100.52C135.791 100.771 137.012 101.012 138.223 101.244L185.189 107.13Z" fill="#3734B4"/>
<path d="M137.097 108.066L298.131 126.563L300.307 121.558L185.189 107.13C185.189 107.13 164.167 106.222 138.223 101.244L135.356 100.885L137.097 108.066Z" fill="white"/>
<path fill-rule="evenodd" clip-rule="evenodd" d="M106.631 123.081V192.283L112.724 192.14L123.387 191.892L135.356 191.613L146.889 191.343L159.883 191.04L171.48 190.77L185.189 190.45L196.723 190.181L209.127 189.892L221.313 189.607L230.453 189.394L241.551 189.135L246.557 189.018V135.921L241.551 135.461L230.453 134.443L221.313 133.604L209.127 132.486L196.723 131.348L185.189 130.29L171.48 129.032L159.883 127.968L146.889 126.775L133.833 125.577L123.387 124.619L112.724 123.641L106.631 123.081ZM112.724 186.625V133.092L146.889 135.921V186.625H112.724ZM152.547 186.625V135.921L179.096 137.879V186.625H152.547ZM189.107 184.449V138.75L199.117 139.729L212.826 140.708V162.578V184.449H189.107ZM218.484 184.449V140.708L241.551 142.449V184.449H218.484Z" fill="#E8E8E8"/>
<path d="M112.724 192.14V282.03L123.387 279.784V191.892L112.724 192.14Z" fill="#F0D3D3"/>
<path d="M135.356 191.613V277.263L146.889 274.835V191.343L135.356 191.613Z" fill="#F0D3D3"/>
<path d="M159.883 191.04V272.098L171.48 269.656V190.77L159.883 191.04Z" fill="#F0D3D3"/>
<path d="M185.189 190.45V266.769L196.723 264.34V190.181L185.189 190.45Z" fill="#F0D3D3"/>
<path d="M209.127 189.892V261.728L221.313 259.161V189.607L209.127 189.892Z" fill="#F0D3D3"/>
<path fill-rule="evenodd" clip-rule="evenodd" d="M256.784 251.691L251.779 133.092L248.457 132.732L185.189 125.893L171.48 124.411L146.889 121.752L139.055 120.905L137.097 108.066H133.833L135.356 100.885L134.56 100.52C134.318 100.471 134.075 100.419 133.833 100.364C130.358 99.5798 126.876 98.2483 123.387 96.6472C120.053 95.1171 116.711 93.3406 113.362 91.5599L112.724 91.2209C109.035 89.2607 105.336 87.3139 101.626 85.7034V100.885V284.367L112.724 282.03V192.14L106.631 192.283V123.081L112.724 123.641L123.387 124.619L133.833 125.577L146.889 126.775L159.883 127.968L171.48 129.032L185.189 130.29L196.723 131.348L209.127 132.486L221.313 133.604L230.453 134.443L241.551 135.461L246.557 135.921V189.018L241.551 189.135V254.899L251.779 252.745L256.784 251.691ZM230.453 257.236L221.313 259.161V189.607L230.453 189.394V257.236ZM196.723 190.181L209.127 189.892V261.728L196.723 264.34V190.181ZM185.189 266.769L171.48 269.656V190.77L185.189 190.45V266.769ZM146.889 191.343L159.883 191.04V272.098L146.889 274.835V191.343ZM135.356 277.263L123.387 279.784V191.892L135.356 191.613V277.263Z" fill="#D7ABA5"/>
<path d="M230.453 189.394V257.236L241.551 254.899V189.135L230.453 189.394Z" fill="#F0D3D3"/>
<path d="M88.3513 102.408V287.162L101.626 284.367V100.885H92.7036L88.3513 102.408Z" fill="#2F2BD4"/>
<path d="M88.3513 102.408V287.162M88.3513 102.408L92.7036 100.885H101.626M88.3513 102.408L83.2141 84.302M88.3513 102.408L83.2141 105.131M88.3513 287.162L101.626 284.367M88.3513 287.162L83.2141 283.807M139.055 120.905L137.097 108.066M139.055 120.905L146.889 121.752M139.055 120.905L159.883 122.871M137.097 108.066H133.833L135.356 100.885M137.097 108.066L298.131 126.563M137.097 108.066L135.356 100.885M135.356 100.885L134.56 100.52M135.356 100.885L138.223 101.244M101.626 85.4342L270.059 108.066M101.626 85.4342L98.1439 84.302M101.626 85.4342V85.7034M101.626 85.4342L102.453 85.8133M101.626 284.367V100.885M101.626 284.367L112.724 282.03M101.626 100.885V85.7034M298.131 126.563V135.921L241.551 130.58M298.131 126.563L300.307 121.558M300.307 121.558L185.189 107.13M300.307 121.558L277.458 111.366M300.307 121.558L138.223 101.244M270.059 108.066L277.458 111.366M270.059 108.066L102.453 85.8133M36.5592 129.862L30.466 133.092V119.6L83.2141 84.302M36.5592 129.862L36.2802 152.292M36.5592 129.862L38.4089 128.881L40.2586 127.901M80.7348 132.004L62.6728 137.009L59.191 140.926L58.3594 164.21M80.7348 132.004L60.7143 151.806M80.7348 132.004L80.1655 155.724M80.7348 132.004L73.7712 131.74M60.7143 151.806L80.1655 155.724M60.7143 151.806V153.983M52.0098 130.916L58.647 131.167M52.0098 130.916V121.672M52.0098 130.916L49.1274 134.833L45.9166 139.196M80.1655 155.724L80.1237 157.464M80.1237 157.464L79.4291 186.407L73.7712 185.672M80.1237 157.464L60.7143 153.983M60.7143 153.983V164.21H58.3594M185.189 107.13C185.189 107.13 164.167 106.222 138.223 101.244M185.189 107.13L138.223 101.244M277.458 111.366C277.458 111.366 310.549 107.561 316.411 91.5274C318.775 85.0608 319.913 77.4282 318.916 70.8541M315.614 61.9319C313.667 59.1186 310.87 57.0215 307.053 56.0564C288.121 51.2688 251.779 56.0564 251.779 56.0564C251.779 56.0564 195.669 52.3968 160.817 44.0876C128.415 36.3627 80.1237 16.4506 80.1237 16.4506C80.1237 16.4506 52.3705 5.06563 41.4096 14.4921M315.614 61.9319L331.426 50.3983L328.815 61.9319L337.519 57.7972L331.426 68.4603L338.825 79.341L318.916 70.8541M315.614 61.9319C317.348 64.4362 318.409 67.508 318.916 70.8541M36.1781 23.6318C36.7755 21.2263 37.8804 18.8313 39.6058 16.4506C40.1382 15.7159 40.7429 15.0655 41.4096 14.4921M36.1781 23.6318C33.3211 35.1346 42.0666 46.8782 50.0512 58.4501C57.5225 69.2779 69.4561 77.7227 83.2141 84.302M36.1781 23.6318H13.0569L29.3779 19.2796L22.1967 14.4921H32.2069L23.5024 1L41.4096 14.4921M83.2141 84.302L88.3513 80.8643L91.1803 82.3876C92.4074 82.8994 93.6272 83.1614 94.8565 83.4255C95.941 83.6584 97.0329 83.8929 98.1439 84.302M83.2141 84.302C84.9007 85.1085 81.4776 83.5505 83.2141 84.302ZM36.132 164.21L35.0359 252.344L37.6473 254.049L40.2586 255.755M36.132 164.21H35.0359V153.983L36.2802 152.292M36.132 164.21L36.2802 152.292M36.132 164.21H37.6473H40.2586M36.2802 152.292L38.2694 149.588L40.2586 146.885M98.1439 84.302C99.3057 84.7297 100.466 85.2002 101.626 85.7034M58.3594 164.21L57.6677 183.578L59.191 183.776M58.3594 164.21H52.0098M134.56 100.52C135.791 100.771 137.012 101.012 138.223 101.244M134.56 100.52C134.318 100.471 134.075 100.419 133.833 100.364M134.56 100.52L102.453 85.8133M101.626 85.7034C105.336 87.3139 109.035 89.2607 112.724 91.2209M101.626 85.7034L102.453 85.8133M83.2141 105.131V283.807M83.2141 105.131L73.7712 110.137M83.2141 283.807L73.7712 277.641M73.7712 277.641V185.672M73.7712 277.641L65.2842 272.098M73.7712 185.672L65.7194 184.625M73.7712 110.137V131.74M73.7712 110.137L65.2842 114.635M73.7712 131.74L65.2842 131.418M65.2842 114.635V131.418M65.2842 114.635L58.647 118.154M65.2842 131.418L58.647 131.167M65.7194 184.625L65.2842 272.098M65.7194 184.625L59.191 183.776M65.2842 272.098L59.191 268.119M59.191 268.119V183.776M59.191 268.119L52.0098 263.429M58.647 131.167V118.154M58.647 118.154L52.0098 121.672M52.0098 263.429V164.21M52.0098 263.429L49.1274 261.547L45.9166 259.45M52.0098 164.21H49.1274H45.9166M52.0098 121.672L49.1274 123.2L45.9166 124.902M45.9166 259.45V164.21M45.9166 259.45L42.87 257.46L40.2586 255.755M45.9166 164.21H42.87H40.2586M45.9166 139.196V124.902M45.9166 139.196L42.87 143.336L40.2586 146.885M45.9166 124.902L42.87 126.517L40.2586 127.901M40.2586 255.755V164.21M40.2586 146.885V127.901M112.724 91.2209V123.641M112.724 91.2209C112.937 91.3338 113.149 91.4469 113.362 91.5599M112.724 91.2209L113.362 91.5599M112.724 123.641L106.631 123.081V192.283L112.724 192.14M112.724 123.641L123.387 124.619M112.724 192.14V282.03M112.724 192.14L123.387 191.892M112.724 282.03L123.387 279.784M123.387 96.6472V124.619M123.387 96.6472C126.876 98.2483 130.358 99.5798 133.833 100.364M123.387 96.6472C120.053 95.1171 116.711 93.3406 113.362 91.5599M123.387 124.619L133.833 125.577M123.387 191.892V279.784M123.387 191.892L135.356 191.613M123.387 279.784L135.356 277.263M135.356 277.263V191.613M135.356 277.263L146.889 274.835M135.356 191.613L146.889 191.343M133.833 125.577V100.364M133.833 125.577L146.889 126.775M146.889 121.752V126.775M146.889 121.752L171.48 124.411M146.889 126.775L159.883 127.968M146.889 191.343V274.835M146.889 191.343L159.883 191.04M146.889 274.835L159.883 272.098M159.883 272.098V191.04M159.883 272.098L171.48 269.656M159.883 191.04L171.48 190.77M159.883 127.968V122.871M159.883 127.968L171.48 129.032M159.883 122.871L196.723 126.349M171.48 124.411V129.032M171.48 124.411L185.189 125.893M171.48 129.032L185.189 130.29M171.48 190.77V269.656M171.48 190.77L185.189 190.45M171.48 269.656L185.189 266.769M185.189 266.769V190.45M185.189 266.769L196.723 264.34M185.189 190.45L196.723 190.181M185.189 130.29V125.893M185.189 130.29L196.723 131.348M185.189 125.893L248.457 132.732M196.723 126.349V131.348M196.723 126.349L209.127 127.519M196.723 131.348L209.127 132.486M196.723 190.181V264.34M196.723 190.181L209.127 189.892M196.723 264.34L209.127 261.728M209.127 261.728V189.892M209.127 261.728L221.313 259.161M209.127 189.892L221.313 189.607M209.127 132.486V127.519M209.127 132.486L221.313 133.604M209.127 127.519L221.313 128.67M221.313 259.161V189.607M221.313 259.161L230.453 257.236M221.313 189.607L230.453 189.394M221.313 133.604V128.67M221.313 133.604L230.453 134.443M221.313 128.67L230.453 129.532M230.453 129.532V134.443M230.453 129.532L241.551 130.58M230.453 134.443L241.551 135.461M230.453 189.394V257.236M230.453 189.394L241.551 189.135M230.453 257.236L241.551 254.899M241.551 254.899V189.135M241.551 254.899L251.779 252.745M241.551 189.135L246.557 189.018V135.921L241.551 135.461M241.551 135.461V130.58M251.779 252.745L256.784 251.691L251.779 133.092L248.457 132.732M251.779 252.745L248.457 132.732M112.724 133.092V186.625H146.889V135.921L112.724 133.092ZM152.547 135.921V186.625H179.096V137.879L152.547 135.921ZM189.107 138.75V184.449H212.826V162.578V140.708L199.117 139.729L189.107 138.75ZM218.484 140.708V184.449H241.551V142.449L218.484 140.708Z" stroke="#050505" stroke-width="1.30568"/>
<path d="M101.626 85.4342L270.059 108.066L277.458 111.366C277.458 111.366 310.549 107.561 316.411 91.5274C318.775 85.0608 319.913 77.4282 318.916 70.8541C318.409 67.508 317.348 64.4362 315.614 61.9319C313.667 59.1186 310.87 57.0215 307.053 56.0564C288.121 51.2688 251.779 56.0564 251.779 56.0564C251.779 56.0564 195.669 52.3968 160.817 44.0876C128.415 36.3627 80.1237 16.4506 80.1237 16.4506C80.1237 16.4506 52.3705 5.06563 41.4096 14.4921C40.7429 15.0655 40.1382 15.7159 39.6058 16.4506C37.8804 18.8313 36.7755 21.2263 36.1781 23.6318C33.3211 35.1346 42.0666 46.8782 50.0512 58.4501C57.5225 69.2779 69.4561 77.7227 83.2141 84.302L88.3513 80.8643L91.1803 82.3876C92.4074 82.8994 93.6272 83.1614 94.8565 83.4255C95.941 83.6584 97.0329 83.8929 98.1439 84.302L101.626 85.4342Z" fill="#B43434"/>
<path d="M137.097 108.066L139.055 120.905L159.883 122.871L196.723 126.349L209.127 127.519L221.313 128.67L230.453 129.532L241.551 130.58L298.131 135.921V126.563L137.097 108.066Z" fill="#3734B4"/>
<path d="M59.191 140.926L62.6728 137.009L80.7348 132.004L73.7712 131.74L65.2842 131.418L58.647 131.167L52.0098 130.916L49.1274 134.833L45.9166 139.196L42.87 143.336L40.2586 146.885L38.2694 149.588L36.2802 152.292L36.132 164.21H37.6473H40.2586H42.87H45.9166H49.1274H52.0098H58.3594L59.191 140.926Z" fill="#3734B4"/>
<path d="M62.6728 137.009L59.191 140.926L58.3594 164.21H60.7143V153.983V151.806L80.7348 132.004L62.6728 137.009Z" fill="#3734B4"/>
<path d="M331.426 50.3983L315.614 61.9319C317.348 64.4362 318.409 67.508 318.916 70.8541L338.825 79.341L331.426 68.4603L337.519 57.7972L328.815 61.9319L331.426 50.3983Z" fill="#B43434"/>
<path d="M36.1781 23.6318C36.7755 21.2263 37.8804 18.8313 39.6058 16.4506C40.1382 15.7159 40.7429 15.0655 41.4096 14.4921L23.5024 1L32.2069 14.4921H22.1967L29.3779 19.2796L13.0569 23.6318H36.1781Z" fill="#B43434"/>
<path d="M218.484 140.708V184.449H241.551V142.449L218.484 140.708Z" fill="#C3D4F7"/>
<path d="M189.107 138.75V184.449H212.826V162.578V140.708L199.117 139.729L189.107 138.75Z" fill="#C3D4F7"/>
<path d="M152.547 135.921V186.625H179.096V137.879L152.547 135.921Z" fill="#C3D4F7"/>
<path d="M112.724 133.092V186.625H146.889V135.921L112.724 133.092Z" fill="#C3D4F7"/>
<path d="M57.6677 183.578L59.191 183.776L65.7194 184.625L73.7712 185.672L79.4291 186.407L80.1237 157.464L60.7143 153.983V164.21H58.3594L57.6677 183.578Z" fill="url(#paint2_linear_77_23)"/>
<path d="M80.7348 132.004L60.7143 151.806L80.1655 155.724L80.7348 132.004Z" fill="url(#paint3_linear_77_23)"/>
<path fill-rule="evenodd" clip-rule="evenodd" d="M101.626 85.7034V85.4342L98.1439 84.302C99.3057 84.7297 100.466 85.2002 101.626 85.7034Z" fill="#D8D3CA"/>
<path d="M88.3513 287.162V102.408L83.2141 105.131L73.7712 110.137L65.2842 114.635L58.647 118.154L52.0098 121.672L49.1274 123.2L45.9166 124.902L42.87 126.517L40.2586 127.901L38.4089 128.881L36.5592 129.862L36.2802 152.292L38.2694 149.588L40.2586 146.885L42.87 143.336L45.9166 139.196L49.1274 134.833L52.0098 130.916L58.647 131.167L65.2842 131.418L73.7712 131.74L80.7348 132.004L80.1655 155.724L80.1237 157.464L79.4291 186.407L73.7712 185.672L65.7194 184.625L59.191 183.776L57.6677 183.578L58.3594 164.21H52.0098H49.1274H45.9166H42.87H40.2586H37.6473H36.132L35.0359 252.344L37.6473 254.049L40.2586 255.755L42.87 257.46L45.9166 259.45L49.1274 261.547L52.0098 263.429L59.191 268.119L65.2842 272.098L73.7712 277.641L83.2141 283.807L88.3513 287.162Z" fill="#C09E99"/>
<path d="M185.189 107.13L300.307 121.558L277.458 111.366L270.059 108.066L102.453 85.8133L134.56 100.52C135.791 100.771 137.012 101.012 138.223 101.244L185.189 107.13Z" fill="#3734B4"/>
<path d="M137.097 108.066L298.131 126.563L300.307 121.558L185.189 107.13C185.189 107.13 164.167 106.222 138.223 101.244L135.356 100.885L137.097 108.066Z" fill="white"/>
<path d="M112.724 192.14V282.03L123.387 279.784V191.892L112.724 192.14Z" fill="#FFEAEA"/>
<path d="M135.356 191.613V277.263L146.889 274.835V191.343L135.356 191.613Z" fill="#FFEAEA"/>
<path d="M159.883 191.04V272.098L171.48 269.656V190.77L159.883 191.04Z" fill="#FFEAEA"/>
<path d="M185.189 190.45V266.769L196.723 264.34V190.181L185.189 190.45Z" fill="#FFEAEA"/>
<path d="M209.127 189.892V261.728L221.313 259.161V189.607L209.127 189.892Z" fill="#FFEAEA"/>
<path d="M230.453 189.394V257.236L241.551 254.899V189.135L230.453 189.394Z" fill="#FFEAEA"/>
<path d="M88.3513 102.408V287.162L101.626 284.367V100.885H92.7036L88.3513 102.408Z" fill="#2F2BD4"/>
<path fill-rule="evenodd" clip-rule="evenodd" d="M251.779 133.092L256.784 251.691L251.779 252.745L241.551 254.899V189.135L246.557 189.018V135.921L241.551 135.461L230.453 134.443L221.313 133.604L209.127 132.486L196.723 131.348L185.189 130.29L171.48 129.032L159.883 127.968L146.889 126.775L133.833 125.577L123.387 124.619L112.724 123.641V91.2209L113.362 91.5599C116.711 93.3406 120.053 95.1171 123.387 96.6472C126.876 98.2483 130.358 99.5798 133.833 100.364C134.075 100.419 134.318 100.471 134.56 100.52L135.356 100.885L133.833 108.066H137.097L139.055 120.905L146.889 121.752L171.48 124.411L185.189 125.893L248.457 132.732L251.779 133.092ZM221.313 259.161L230.453 257.236V189.394L221.313 189.607V259.161ZM209.127 189.892L196.723 190.181V264.34L209.127 261.728V189.892ZM171.48 269.656L185.189 266.769V190.45L171.48 190.77V269.656ZM159.883 191.04L146.889 191.343V274.835L159.883 272.098V191.04ZM123.387 279.784L135.356 277.263V191.613L123.387 191.892V279.784Z" fill="#FFEAEA"/>
<path d="M106.631 192.283V123.081L112.724 123.641V91.2209C109.035 89.2607 105.336 87.3139 101.626 85.7034V100.885V284.367L112.724 282.03V192.14L106.631 192.283Z" fill="#FFEAEA"/>
<path d="M30.466 119.6V133.092L36.5592 129.862L38.4089 128.881L40.2586 127.901L42.87 126.517L45.9166 124.902L49.1274 123.2L52.0098 121.672L58.647 118.154L65.2842 114.635L73.7712 110.137L83.2141 105.131L88.3513 102.408L83.2141 84.302L30.466 119.6Z" fill="#2F2BD4"/>
<path fill-rule="evenodd" clip-rule="evenodd" d="M106.631 123.081V192.283L112.724 192.14L123.387 191.892L135.356 191.613L146.889 191.343L159.883 191.04L171.48 190.77L185.189 190.45L196.723 190.181L209.127 189.892L221.313 189.607L230.453 189.394L241.551 189.135L246.557 189.018V135.921L241.551 135.461L230.453 134.443L221.313 133.604L209.127 132.486L196.723 131.348L185.189 130.29L171.48 129.032L159.883 127.968L146.889 126.775L133.833 125.577L123.387 124.619L112.724 123.641L106.631 123.081ZM112.724 186.625V133.092L146.889 135.921V186.625H112.724ZM152.547 186.625V135.921L179.096 137.879V186.625H152.547ZM189.107 184.449V138.75L199.117 139.729L212.826 140.708V162.578V184.449H189.107ZM218.484 184.449V140.708L241.551 142.449V184.449H218.484Z" fill="white"/>
<path d="M88.3513 102.408V287.162M88.3513 102.408L92.7036 100.885H101.626M88.3513 102.408L83.2141 84.302M88.3513 102.408L83.2141 105.131M88.3513 287.162L101.626 284.367M88.3513 287.162L83.2141 283.807M139.055 120.905L137.097 108.066M139.055 120.905L146.889 121.752M139.055 120.905L159.883 122.871M137.097 108.066H133.833L135.356 100.885M137.097 108.066L298.131 126.563M137.097 108.066L135.356 100.885M135.356 100.885L134.56 100.52M135.356 100.885L138.223 101.244M101.626 85.4342L270.059 108.066M101.626 85.4342L98.1439 84.302M101.626 85.4342V85.7034M101.626 85.4342L102.453 85.8133M101.626 284.367V100.885M101.626 284.367L112.724 282.03M101.626 100.885V85.7034M298.131 126.563V135.921L241.551 130.58M298.131 126.563L300.307 121.558M300.307 121.558L185.189 107.13M300.307 121.558L277.458 111.366M300.307 121.558L138.223 101.244M270.059 108.066L277.458 111.366M270.059 108.066L102.453 85.8133M36.5592 129.862L30.466 133.092V119.6L83.2141 84.302M36.5592 129.862L36.2802 152.292M36.5592 129.862L38.4089 128.881L40.2586 127.901M80.7348 132.004L62.6728 137.009L59.191 140.926L58.3594 164.21M80.7348 132.004L60.7143 151.806M80.7348 132.004L80.1655 155.724M80.7348 132.004L73.7712 131.74M60.7143 151.806L80.1655 155.724M60.7143 151.806V153.983M52.0098 130.916L58.647 131.167M52.0098 130.916V121.672M52.0098 130.916L49.1274 134.833L45.9166 139.196M80.1655 155.724L80.1237 157.464M80.1237 157.464L79.4291 186.407L73.7712 185.672M80.1237 157.464L60.7143 153.983M60.7143 153.983V164.21H58.3594M185.189 107.13C185.189 107.13 164.167 106.222 138.223 101.244M185.189 107.13L138.223 101.244M277.458 111.366C277.458 111.366 310.549 107.561 316.411 91.5274C318.775 85.0608 319.913 77.4282 318.916 70.8541M315.614 61.9319C313.667 59.1186 310.87 57.0215 307.053 56.0564C288.121 51.2688 251.779 56.0564 251.779 56.0564C251.779 56.0564 195.669 52.3968 160.817 44.0876C128.415 36.3627 80.1237 16.4506 80.1237 16.4506C80.1237 16.4506 52.3705 5.06563 41.4096 14.4921M315.614 61.9319L331.426 50.3983L328.815 61.9319L337.519 57.7972L331.426 68.4603L338.825 79.341L318.916 70.8541M315.614 61.9319C317.348 64.4362 318.409 67.508 318.916 70.8541M36.1781 23.6318C36.7755 21.2263 37.8804 18.8313 39.6058 16.4506C40.1382 15.7159 40.7429 15.0655 41.4096 14.4921M36.1781 23.6318C33.3211 35.1346 42.0666 46.8782 50.0512 58.4501C57.5225 69.2779 69.4561 77.7227 83.2141 84.302M36.1781 23.6318H13.0569L29.3779 19.2796L22.1967 14.4921H32.2069L23.5024 1L41.4096 14.4921M83.2141 84.302L88.3513 80.8643L91.1803 82.3876C92.4074 82.8994 93.6272 83.1614 94.8565 83.4255C95.941 83.6584 97.0329 83.8929 98.1439 84.302M83.2141 84.302C84.9007 85.1085 81.4776 83.5505 83.2141 84.302ZM36.132 164.21L35.0359 252.344L37.6473 254.049L40.2586 255.755M36.132 164.21H35.0359V153.983L36.2802 152.292M36.132 164.21L36.2802 152.292M36.132 164.21H37.6473H40.2586M36.2802 152.292L38.2694 149.588L40.2586 146.885M98.1439 84.302C99.3057 84.7297 100.466 85.2002 101.626 85.7034M58.3594 164.21L57.6677 183.578L59.191 183.776M58.3594 164.21H52.0098M134.56 100.52C135.791 100.771 137.012 101.012 138.223 101.244M134.56 100.52C134.318 100.471 134.075 100.419 133.833 100.364M134.56 100.52L102.453 85.8133M101.626 85.7034C105.336 87.3139 109.035 89.2607 112.724 91.2209M101.626 85.7034L102.453 85.8133M83.2141 105.131V283.807M83.2141 105.131L73.7712 110.137M83.2141 283.807L73.7712 277.641M73.7712 277.641V185.672M73.7712 277.641L65.2842 272.098M73.7712 185.672L65.7194 184.625M73.7712 110.137V131.74M73.7712 110.137L65.2842 114.635M73.7712 131.74L65.2842 131.418M65.2842 114.635V131.418M65.2842 114.635L58.647 118.154M65.2842 131.418L58.647 131.167M65.7194 184.625L65.2842 272.098M65.7194 184.625L59.191 183.776M65.2842 272.098L59.191 268.119M59.191 268.119V183.776M59.191 268.119L52.0098 263.429M58.647 131.167V118.154M58.647 118.154L52.0098 121.672M52.0098 263.429V164.21M52.0098 263.429L49.1274 261.547L45.9166 259.45M52.0098 164.21H49.1274H45.9166M52.0098 121.672L49.1274 123.2L45.9166 124.902M45.9166 259.45V164.21M45.9166 259.45L42.87 257.46L40.2586 255.755M45.9166 164.21H42.87H40.2586M45.9166 139.196V124.902M45.9166 139.196L42.87 143.336L40.2586 146.885M45.9166 124.902L42.87 126.517L40.2586 127.901M40.2586 255.755V164.21M40.2586 146.885V127.901M112.724 91.2209V123.641M112.724 91.2209C112.937 91.3338 113.149 91.4469 113.362 91.5599M112.724 91.2209L113.362 91.5599M112.724 123.641L106.631 123.081V192.283L112.724 192.14M112.724 123.641L123.387 124.619M112.724 192.14V282.03M112.724 192.14L123.387 191.892M112.724 282.03L123.387 279.784M123.387 96.6472V124.619M123.387 96.6472C126.876 98.2483 130.358 99.5798 133.833 100.364M123.387 96.6472C120.053 95.1171 116.711 93.3406 113.362 91.5599M123.387 124.619L133.833 125.577M123.387 191.892V279.784M123.387 191.892L135.356 191.613M123.387 279.784L135.356 277.263M135.356 277.263V191.613M135.356 277.263L146.889 274.835M135.356 191.613L146.889 191.343M133.833 125.577V100.364M133.833 125.577L146.889 126.775M146.889 121.752V126.775M146.889 121.752L171.48 124.411M146.889 126.775L159.883 127.968M146.889 191.343V274.835M146.889 191.343L159.883 191.04M146.889 274.835L159.883 272.098M159.883 272.098V191.04M159.883 272.098L171.48 269.656M159.883 191.04L171.48 190.77M159.883 127.968V122.871M159.883 127.968L171.48 129.032M159.883 122.871L196.723 126.349M171.48 124.411V129.032M171.48 124.411L185.189 125.893M171.48 129.032L185.189 130.29M171.48 190.77V269.656M171.48 190.77L185.189 190.45M171.48 269.656L185.189 266.769M185.189 266.769V190.45M185.189 266.769L196.723 264.34M185.189 190.45L196.723 190.181M185.189 130.29V125.893M185.189 130.29L196.723 131.348M185.189 125.893L248.457 132.732M196.723 126.349V131.348M196.723 126.349L209.127 127.519M196.723 131.348L209.127 132.486M196.723 190.181V264.34M196.723 190.181L209.127 189.892M196.723 264.34L209.127 261.728M209.127 261.728V189.892M209.127 261.728L221.313 259.161M209.127 189.892L221.313 189.607M209.127 132.486V127.519M209.127 132.486L221.313 133.604M209.127 127.519L221.313 128.67M221.313 259.161V189.607M221.313 259.161L230.453 257.236M221.313 189.607L230.453 189.394M221.313 133.604V128.67M221.313 133.604L230.453 134.443M221.313 128.67L230.453 129.532M230.453 129.532V134.443M230.453 129.532L241.551 130.58M230.453 134.443L241.551 135.461M230.453 189.394V257.236M230.453 189.394L241.551 189.135M230.453 257.236L241.551 254.899M241.551 254.899V189.135M241.551 254.899L251.779 252.745M241.551 189.135L246.557 189.018V135.921L241.551 135.461M241.551 135.461V130.58M251.779 252.745L256.784 251.691L251.779 133.092L248.457 132.732M251.779 252.745L248.457 132.732M112.724 133.092V186.625H146.889V135.921L112.724 133.092ZM152.547 135.921V186.625H179.096V137.879L152.547 135.921ZM189.107 138.75V184.449H212.826V162.578V140.708L199.117 139.729L189.107 138.75ZM218.484 140.708V184.449H241.551V142.449L218.484 140.708Z" stroke="#050505" stroke-width="1.30568"/>
<path d="M88.9369 66.1806L75.5831 62.6974L78.3904 57.5699L80.9616 58.2405L88.0358 45.3197L85.4646 44.649L88.272 39.5215L101.112 42.8706L98.3042 47.9981L96.2634 47.4658L93.3763 52.739L100.506 48.5724L103.313 43.4449L113.324 46.0562L110.517 51.1838L108.299 50.6053L100.135 54.8848L100.023 55.0888C101.759 55.5415 102.97 56.1683 103.658 56.9692C104.351 57.7604 104.334 58.8212 103.605 60.1517L102.313 62.5115C102.149 62.8125 102.093 63.1033 102.148 63.3839C102.218 63.6576 102.42 63.8377 102.752 63.9243L104.584 64.4022L101.776 69.5297L95.895 67.9956C92.2955 67.0567 91.3118 65.0965 92.9441 62.1152L94.3318 59.5805C94.603 59.0853 94.6921 58.5536 94.5991 57.9855C94.5114 57.4078 94.2265 57.056 93.7444 56.9302L91.4143 56.3225L89.1892 60.3866L91.7443 61.0531L88.9369 66.1806Z" fill="white"/>
<path d="M142.291 81.2066C139.573 80.741 137.402 79.7739 135.777 78.3051C134.162 76.8383 133.152 75.0301 132.746 72.8804C132.35 70.7326 132.557 68.3932 133.366 65.8622C134.206 63.2363 135.45 61.0358 137.1 59.2606C138.753 57.4748 140.731 56.2177 143.036 55.4892C145.355 54.7519 147.89 54.6189 150.64 55.0901C153.379 55.5595 155.566 56.4959 157.2 57.8995C158.821 59.3117 159.83 61.0865 160.229 63.2237C160.638 65.3629 160.425 67.7401 159.589 70.3554C158.78 72.8864 157.547 75.05 155.891 76.8463C154.235 78.6426 152.233 79.9348 149.887 80.7229C147.551 81.5128 145.019 81.6741 142.291 81.2066ZM144.086 75.591C145.264 75.7929 146.385 75.2565 147.449 73.9816C148.524 72.7085 149.43 70.9172 150.168 68.6077C150.887 66.3615 151.149 64.5322 150.956 63.1198C150.774 61.7093 150.072 60.8993 148.849 60.6899C147.616 60.4786 146.491 60.9754 145.472 62.1802C144.454 63.385 143.586 65.1106 142.868 67.3568C142.13 69.6663 141.851 71.5651 142.031 73.0532C142.211 74.5412 142.896 75.3872 144.086 75.591Z" fill="white"/>
<path d="M202.219 90.066L188.482 88.747L189.243 82.951L191.888 83.2049L193.805 68.5996L191.16 68.3456L191.92 62.5496L208.815 64.1718C211.548 64.4342 213.482 65.1757 214.617 66.3962C215.762 67.6177 216.167 69.5018 215.833 72.0486C215.61 73.7501 214.958 75.0158 213.878 75.8459C212.799 76.6759 211.356 77.1654 209.551 77.3145C211.105 77.7193 212.168 78.4216 212.739 79.4214C213.322 80.4222 213.522 81.6196 213.339 83.0137L213.06 85.1379L216.747 85.4918L215.973 91.3866L210.65 90.8755C209.515 90.7666 208.605 90.6403 207.921 90.4968C207.238 90.3423 206.713 90.0918 206.346 89.7453C205.991 89.3889 205.725 88.8631 205.548 88.1681C205.284 87.1201 205.307 85.416 205.617 83.0559C205.794 81.7057 205.705 80.6856 205.349 79.9956C204.995 79.2946 204.233 78.8881 203.065 78.7759L201.065 78.5838L200.352 84.0176L202.98 84.27L202.219 90.066ZM202.269 69.4123L201.555 74.846L203.82 75.0635C205.021 75.1788 205.942 75.0505 206.582 74.6785C207.223 74.3064 207.614 73.5825 207.755 72.5068C207.858 71.7164 207.637 71.0671 207.09 70.5588C206.554 70.0516 205.812 69.7525 204.864 69.6615L202.269 69.4123Z" fill="white"/>
<path d="M269.905 74.8632L262.598 95.0506L252.882 94.4953L247.638 73.5905L244.886 73.4332L245.091 67.591L259.417 68.4098L259.211 74.252L257.321 74.1439L260.214 86.3331L263.555 74.5002L261.383 74.3761L261.589 68.534L273.112 69.1926L272.906 75.0347L269.905 74.8632Z" fill="white"/>
<defs>
<linearGradient id="paint0_linear_77_23" x1="175.941" y1="1" x2="175.941" y2="287.162" gradientUnits="userSpaceOnUse">
<stop stop-color="#FFFEFE"/>
<stop offset="1" stop-color="#E6B2B3"/>
</linearGradient>
<linearGradient id="paint1_linear_77_23" x1="175.941" y1="1" x2="175.941" y2="287.162" gradientUnits="userSpaceOnUse">
<stop stop-color="#FFFEFE"/>
<stop offset="1" stop-color="#E6B2B3"/>
</linearGradient>
<linearGradient id="paint2_linear_77_23" x1="175.941" y1="1" x2="175.941" y2="287.162" gradientUnits="userSpaceOnUse">
<stop stop-color="#FFFEFE"/>
<stop offset="1" stop-color="#E6B2B3"/>
</linearGradient>
<linearGradient id="paint3_linear_77_23" x1="175.941" y1="1" x2="175.941" y2="287.162" gradientUnits="userSpaceOnUse">
<stop stop-color="#FFFEFE"/>
<stop offset="1" stop-color="#E6B2B3"/>
</linearGradient>
</defs>
</svg>
