<svg width="152" height="146" viewBox="0 0 152 146" fill="none" xmlns="http://www.w3.org/2000/svg">
<path fill-rule="evenodd" clip-rule="evenodd" d="M142.636 73.4152L140.168 74.0084L138.318 74.5652L136.982 75.101L136.08 75.6278L135.553 76.1559L135.352 76.6933L135.436 77.2471L135.769 77.8231L136.319 78.4257L137.051 79.0584L137.931 79.7229L138.923 80.4195L139.987 81.1466L141.08 81.9007L142.156 82.676L143.172 83.4653L144.082 84.2593L144.847 85.048L145.435 85.821L145.823 86.5687L145.999 87.2826L145.965 87.9567L145.734 88.5878L145.329 89.1753L144.781 89.7218L144.127 90.2324L143.404 90.7139L142.65 91.175L141.899 91.6248L141.182 92.0729L140.526 92.5285L139.95 93.0005L139.47 93.4968L139.098 94.0243L138.837 94.5885L138.69 95.1935L138.651 95.8417L138.712 96.5337L138.861 97.2676L139.078 98.0392L139.341 98.8415L139.625 99.6648L139.897 100.496L140.126 101.32L140.277 102.12L140.317 102.876L140.215 103.569L139.948 104.183L139.5 104.702L138.865 105.118L138.047 105.425L137.063 105.625L135.938 105.727L134.706 105.744L133.403 105.695L132.07 105.6L130.745 105.483L129.468 105.368L128.271 105.28L127.186 105.243L126.241 105.279L125.459 105.413L124.865 105.667L124.48 106.068L124.329 106.642L124.44 107.421L124.845 108.445L125.586 109.761L126.717 111.431L127.508 112.868L125.332 111.832L123.634 111.148L122.329 110.765L121.351 110.644L120.652 110.756L120.188 111.078L119.927 111.59L119.836 112.273L119.889 113.11L120.056 114.082L120.311 115.168L120.626 116.345L120.969 117.586L121.312 118.859L121.623 120.133L121.873 121.371L122.034 122.541L122.083 123.608L122.004 124.547L121.787 125.336L121.43 125.964L120.941 126.429L120.331 126.738L119.62 126.907L118.832 126.959L117.989 126.921L117.118 126.823L116.24 126.695L115.375 126.565L114.54 126.461L113.749 126.405L113.01 126.415L112.331 126.508L111.713 126.694L111.157 126.981L110.66 127.37L110.217 127.861L109.821 128.447L109.462 129.118L109.129 129.858L108.809 130.647L108.487 131.459L108.15 132.265L107.78 133.031L107.365 133.723L106.89 134.304L106.347 134.742L105.728 135.009L105.031 135.086L104.26 134.965L103.421 134.646L102.528 134.143L101.593 133.481L100.635 132.693L99.6689 131.816L98.7123 130.894L97.7795 129.968L96.883 129.081L96.033 128.274L95.237 127.582L94.5003 127.042L93.8264 126.686L93.2173 126.548L92.6738 126.66L92.1964 127.061L91.7849 127.794L91.4398 128.911L91.1616 130.478L90.9525 132.583L90.4572 133.291L89.4941 131.235L88.661 129.731L87.9277 128.692L87.2707 128.05L86.6709 127.754L86.1128 127.761L85.5832 128.034L85.0707 128.541L84.5655 129.251L84.059 130.131L83.5437 131.148L83.0136 132.264L82.4639 133.44L81.8913 134.633L81.2943 135.796L80.673 136.886L80.0297 137.859L79.3681 138.676L78.6934 139.309L78.0117 139.737L77.3293 139.952L76.6524 139.96L75.9862 139.776L75.3346 139.427L74.6998 138.945L74.0825 138.368L73.4817 137.733L72.8948 137.077L72.3183 136.436L71.7477 135.837L71.1781 135.307L70.6042 134.865L70.0209 134.526L69.4231 134.298L68.8066 134.187L68.1676 134.192L67.5034 134.307L66.8125 134.523L66.095 134.824L65.3527 135.191L64.5894 135.598L63.8111 136.016L63.0262 136.413L62.245 136.753L61.4798 136.999L60.7439 137.117L60.0509 137.077L59.4134 136.854L58.8423 136.434L58.3451 135.816L57.9255 135.006L57.5827 134.025L57.3113 132.902L57.1021 131.674L56.9422 130.382L56.8163 129.068L56.7074 127.775L56.5974 126.542L56.468 125.406L56.3007 124.398L56.0767 123.55L55.7769 122.887L55.3811 122.437L54.8676 122.226L54.2115 122.283L53.3839 122.643L52.3492 123.348L51.0629 124.452L49.4669 126.026L49.0848 125.47L49.6365 123.386L49.9346 121.791L50.0115 120.601L49.8915 119.753L49.5932 119.197L49.1319 118.893L48.5209 118.805L47.7727 118.901L46.9006 119.151L45.9193 119.525L44.8456 119.993L43.6995 120.521L42.504 121.076L41.2854 121.622L40.0723 122.125L38.8945 122.549L37.7815 122.864L36.7604 123.045L35.8538 123.072L35.0778 122.938L34.4407 122.64L33.9427 122.19L33.5757 121.604L33.3244 120.904L33.1685 120.119L33.0837 119.277L33.0441 118.407L33.0237 117.535L32.998 116.683L32.9444 115.872L32.8436 115.117L32.6793 114.428L32.4387 113.812L32.1127 113.274L31.6956 112.813L31.1857 112.425L30.5851 112.104L29.9 111.842L29.1412 111.626L28.324 111.441L27.4682 111.271L26.5985 111.096L25.7434 110.897L24.9346 110.652L24.2052 110.342L23.5877 109.95L23.1118 109.461L22.8012 108.866L22.6718 108.163L22.7295 107.355L22.9695 106.452L23.3762 105.47L23.925 104.429L24.5834 103.35L25.3142 102.259L26.0775 101.176L26.833 100.124L27.5412 99.1198L28.165 98.1802L28.6689 97.3178L29.0198 96.5428L29.1853 95.8637L29.1325 95.2879L28.8267 94.8219L28.2289 94.4726L27.2928 94.2483L25.9616 94.1592L24.1623 94.219L21.7991 94.4469L22.7351 93.4709L24.4138 92.2681L25.5965 91.2694L26.3578 90.4344L26.7545 89.7314L26.8317 89.135L26.6266 88.6243L26.1717 88.181L25.4971 87.7892L24.6327 87.4343L23.6096 87.1027L22.4615 86.7818L21.2256 86.4592L19.9422 86.1239L18.655 85.7655L17.4092 85.3753L16.2497 84.9466L15.2185 84.4747L14.3517 83.9577L13.6765 83.3965L13.2095 82.7944L12.9547 82.1573L12.9039 81.4922L13.0379 80.8073L13.3284 80.1109L13.741 79.4106L14.238 78.7129L14.7811 78.0228L15.3336 77.3439L15.8624 76.6779L16.3386 76.0251L16.7383 75.3847L17.0429 74.7546L17.2389 74.1319L17.3181 73.5135L17.2771 72.8957L17.1176 72.2748L16.8464 71.6474L16.4752 71.0105L16.0211 70.3618L15.5061 69.7001L14.9577 69.0251L14.4078 68.3383L13.892 67.6426L13.4484 66.9424L13.115 66.244L12.9277 65.5546L12.9171 64.8823L13.1055 64.2354L13.5047 63.6214L14.1148 63.0467L14.923 62.5155L15.9054 62.0293L17.0284 61.5871L18.2515 61.1853L19.5305 60.8177L20.8199 60.476L22.0755 60.1506L23.2558 59.8304L24.3225 59.5036L25.2409 59.1576L25.9792 58.779L26.5073 58.3538L26.7954 57.8664L26.8118 57.2994L26.5213 56.6329L25.8817 55.843L24.8404 54.9004L23.3291 53.7677L21.2572 52.3964L23.4761 52.5581L25.4433 52.6691L26.9148 52.6257L27.9699 52.4431L28.67 52.1327L29.0643 51.7031L29.1938 51.1616L29.0942 50.5146L28.7989 49.7694L28.3401 48.9337L27.7508 48.0175L27.0655 47.0326L26.3209 45.9938L25.5557 44.9186L24.8102 43.8273L24.1245 42.7422L23.537 41.6865L23.0819 40.6833L22.7867 39.7533L22.6699 38.9137L22.7398 38.1764L22.9939 37.5472L23.4195 37.0252L23.9949 36.6034L24.6921 36.2691L25.4792 36.0058L26.3231 35.7943L27.1914 35.614L28.0545 35.4444L28.8864 35.2661L29.6657 35.0616L30.3756 34.8153L31.004 34.5145L31.5432 34.149L31.9898 33.7115L32.3445 33.1978L32.6115 32.6068L32.7988 31.9407L32.9183 31.2054L32.9849 30.4106L33.0172 29.5702L33.0367 28.7022L33.0674 27.8285L33.135 26.9745L33.2655 26.1683L33.484 25.4386L33.8122 24.8133L34.2672 24.3174L34.8596 23.9701L35.5918 23.7832L36.4583 23.7597L37.4451 23.8931L38.5315 24.1678L39.6918 24.5604L40.897 25.0414L42.1171 25.5776L43.3229 26.1337L44.4873 26.6742L45.5864 27.1646L46.5991 27.572L47.5077 27.865L48.2968 28.0135L48.9529 27.9873L49.4633 27.7555L49.815 27.2841L49.9937 26.5342L49.9819 25.4592L49.7573 24.0006L49.2905 22.0832L48.8817 20.1895L50.5913 21.9319L51.9692 23.1767L53.0787 24.0023L53.968 24.4672L54.6753 24.617L55.2314 24.4881L55.6622 24.111L55.9904 23.5131L56.2364 22.7208L56.4198 21.7609L56.5592 20.662L56.6733 19.456L56.7806 18.1779L56.8992 16.8664L57.0465 15.5629L57.2385 14.31L57.4889 13.1495L57.8081 12.1198L58.203 11.2528L58.6757 10.5716L59.2239 10.0885L59.8412 9.80416L60.5179 9.70765L61.2416 9.77819L61.9989 9.98721L62.7764 10.301L63.5614 10.6836L64.3428 11.099L65.1116 11.5131L65.8611 11.8955L66.5868 12.2198L67.2862 12.4646L67.9589 12.6132L68.6057 12.6539L69.229 12.58L69.8323 12.3894L70.4197 12.0849L70.996 11.6744L71.5664 11.1705L72.1361 10.5914L72.7102 9.96041L73.2934 9.30576L73.8895 8.66031L74.5013 8.06034L75.1305 7.54391L75.7769 7.14866L76.4388 6.9091L77.1128 6.85364L77.7941 7.00185L78.4767 7.36227L79.1544 7.9312L79.8207 8.69269L80.4704 9.61981L81.0989 10.6768L81.7038 11.8218L82.2841 13.01L82.8409 14.1959L83.3767 15.3358L83.8961 16.3884L84.4046 17.3159L84.9094 18.0835L85.4186 18.6587L85.9416 19.0101L86.4893 19.1054L87.0742 18.9099L87.7111 18.3834L88.4178 17.4773L89.2162 16.1298L90.1341 14.2605L90.9009 13.4466L91.0874 15.7448L91.3438 17.4727L91.6678 18.725L92.0582 19.5739L92.5146 20.0755L93.037 20.2758L93.6253 20.2135L94.2787 19.9233L94.9957 19.4383L95.7733 18.7914L96.6068 18.0168L97.4895 17.1511L98.4119 16.2333L99.3624 15.3051L100.327 14.4091L101.29 13.5881L102.234 12.882L103.142 12.3258L103.999 11.9464L104.793 11.761L105.514 11.7755L106.158 11.984L106.725 12.3702L107.221 12.909L107.654 13.5689L108.036 14.3152L108.382 15.1124L108.707 15.9261L109.026 16.7255L109.353 17.4837L109.703 18.1786L110.086 18.793L110.513 19.3149L110.992 19.7368L111.529 20.0558L112.127 20.2733L112.787 20.3948L113.508 20.4302L114.283 20.3933L115.105 20.302L115.962 20.178L116.838 20.0465L117.714 19.9358L118.568 19.8755L119.376 19.8957L120.114 20.0247L120.759 20.287L121.288 20.7008L121.688 21.2765L121.95 22.0151L122.072 22.9078L122.062 23.9371L121.935 25.0773L121.711 26.2976L121.416 27.5638L121.08 28.841L120.733 30.0955L120.406 31.2957L120.129 32.4137L119.931 33.4246L119.839 34.3068L119.881 35.0409L120.085 35.609L120.48 35.9933L121.1 36.1745L121.984 36.1308L123.179 35.8347L124.744 35.2514L126.757 34.3343L127.171 34.7807L125.901 36.5796L125.042 38.0008L124.535 39.1117L124.335 39.9644L124.406 40.6L124.718 41.0525L125.248 41.3505L125.973 41.52L126.869 41.5849L127.912 41.5684L129.076 41.494L130.332 41.3854L131.645 41.2667L132.98 41.1622L134.297 41.0957L135.556 41.0894L136.719 41.1626L137.75 41.3305L138.623 41.603L139.318 41.984L139.826 42.4712L140.149 43.0562L140.301 43.726L140.303 44.464L140.184 45.2516L139.977 46.07L139.714 46.9009L139.431 47.7283L139.158 48.5385L138.923 49.3208L138.751 50.0673L138.66 50.7729L138.666 51.4351L138.778 52.0537L139.003 52.6306L139.34 53.1692L139.786 53.6747L140.333 54.1537L140.965 54.6136L141.666 55.0631L142.409 55.5113L143.166 55.9678L143.903 56.4418L144.583 56.9423L145.168 57.4767L145.622 58.0508L145.912 58.6678L146.01 59.3285L145.902 60.0303L145.581 60.768L145.055 61.534L144.343 62.3188L143.475 63.1122L142.489 63.904L141.426 64.6847L140.334 65.4462L139.256 66.1824L138.237 66.889L137.317 67.5638L136.534 68.2065L135.922 68.8184L135.517 69.4024L135.349 69.9627L135.456 70.5047L135.874 71.0349L136.651 71.5611L137.841 72.0928L139.518 72.6415L141.775 73.2212L142.636 73.4152Z" fill="#DCDECE" stroke="#0C6E39" stroke-width="10.8807"/>
<path d="M75.8648 44.887L74.7396 52.1365L76.5681 50.4473L76.3923 53.1219L77.4824 57.7672V54.1776L78.889 59.2452V54.1776L79.6626 57.7672L80.155 53.1207L81.7022 57.7672V55.9724L84.6561 51.3623L84.3044 55.9724L85.711 50.4473L86.344 53.5442L87.4692 50.4473L88.7 47.9839L86.344 49.4619V44.887L83.8121 47.4208L83.4605 43.9016L81.2802 49.4619L80.155 45.5204L76.9198 47.4208L75.8648 44.887Z" fill="#5F4027"/>
<path fill-rule="evenodd" clip-rule="evenodd" d="M62.2912 88.3841L60.6736 85.2872L56.0319 85.5687L55.5395 83.2461L53.711 84.8649L53.289 83.3868L48.4364 86.6949L47.3813 87.4141L49.9835 86.9764L47.3813 90.1437L49.4912 89.5806L52.3747 88.9472L49.9835 91.9033L48.5769 93.7332L47.9439 95.4225H48.5769L51.5308 93.7332V94.2963L48.5769 97.7451L47.3813 101.264L48.5769 100.772L49.9835 99.2232L49.4912 101.264L47.9439 104.432L50.8275 103.094H52.3747L50.8275 105.487L48.5769 106.613H53.289L51.5308 109.358L54.6956 108.443L53.289 110.414L50.8275 112.596H52.5857L55.0121 109.851L54.133 111.963L51.5308 114.426H53.289L54.6956 113.652L54.4846 116.467L56.3132 114.989V117.101L57.2275 114.989V117.101L58.0011 119.705L58.7747 114.989L59.056 119.353L59.9 117.875L59.5483 121.253L60.8846 118.579V122.098L62.2912 119.353L62.9945 124.28L65.5264 120.549V123.154L66.4407 121.605L67.5659 123.717L68.0582 121.605L69.8165 125.406V122.591L70.8714 119.986L71.3637 122.098L71.9264 120.549V123.154L73.4736 120.549L74.0363 123.717L74.7396 121.605L76.5681 123.435V121.253L76.9198 123.154L77.4121 124.772V123.154L84.4451 121.394L80.4363 124.772H82.3352L87.3286 123.294L84.7264 124.772L89.9308 122.942L89.1572 120.198L93.2363 121.746L92.1813 119.071L95.0649 119.494L92.1813 116.678L102.59 118.016L95.4868 115.2L95.0649 113.722L105.685 116.256L104.137 115.411L98.722 114.848L105.685 114.567L99.7066 112.103L96.5418 110.133H97.5967L99.4956 109.781L106.036 111.611L103.786 110.133L98.722 108.584L97.5967 107.106L103.504 107.669L98.722 104.22L103.786 105.91V104.22H105.403L103.504 101.968L105.685 101.687L106.599 100.349L103.786 99.4343H105.263L100.48 96.1967L108.568 98.5193H109.623L104.137 96.1967L103.364 95.4225L110.186 97.6747L105.122 94.6482L106.599 95.4225L105.122 92.2552L109.271 93.8036L108.779 92.7479L106.599 91.8329L106.247 90.0029H108.217L110.608 91.8329L108.779 89.0175H110.608L107.795 86.6949L111.874 86.343L109.412 85.7095L111.452 84.6538H109.412L107.443 84.4426L105.685 85.3576L104.63 87.2579L105.122 87.8914L103.364 88.3841H100.48L99.566 89.2991L97.5967 90.0029L99.0033 91.8329L96.7528 92.7479V93.8036L94.4319 92.7479L92.6033 94.7186H89.0165H87.6802L85.711 96.7597L83.1088 96.2671L79.2407 95.4928L75.8648 96.2671L74.7396 94.7186L70.8714 96.2671L69.3945 94.7186V92.396H68.0582V90.1437L67.5659 88.9472L66.7923 89.5806L66.4407 88.5952L65.0341 87.7506L64.1198 88.5952H63.6275L62.2912 88.3841Z" fill="#775941"/>
<path fill-rule="evenodd" clip-rule="evenodd" d="M88.1725 65.8613V64.1017L88.8055 63.6794L89.5791 63.8202L90.0714 64.3833L90.3528 65.2279V66.354V67.4098L89.5791 67.6209L89.4385 69.099H91.0561L93.6583 69.8732L92.0407 71.7032L91.0561 73.8147L88.8055 75.9262L89.0165 77.2635L82.9681 77.0523L77.4121 77.2635L73.1923 75.0816L69.1132 74.237L68.4099 71.9847L68.1989 69.099H71.5747L70.8714 66.5652L71.856 65.7909L70.5198 65.439L69.6758 65.1575L69.3242 64.5944L69.6758 64.1017L70.3088 63.8906L71.5747 63.5387L72.6297 63.8906L73.0517 64.7352V63.2571H74.3879L75.1615 65.439L76.2165 67.0578L77.4121 68.1136L81.2802 66.354L84.3044 67.0578L87.1879 65.7909L88.1725 65.8613Z" fill="#412B1A"/>
<path fill-rule="evenodd" clip-rule="evenodd" d="M89.5791 67.6209L88.8055 67.0578L88.1725 66.7763L87.7506 67.0578H87.1879L87.4692 66.4948L88.1725 65.8613L87.1879 65.7909L84.3044 67.0578L81.2802 66.354L77.4121 68.1136L76.2165 67.0578L75.1615 65.439L74.3879 63.2571H73.0517V64.7352L73.1923 65.6502L73.4736 65.9317L72.7 66.0021L71.856 65.7909L70.8714 66.5652L71.5747 69.099H68.1989L68.4099 71.9847L69.1132 74.237L73.1923 75.0816L77.4121 77.2635L82.9681 77.0523L89.0165 77.2635L88.8055 75.9262L91.0561 73.8147L92.0407 71.7032L93.6583 69.8732L91.0561 69.099H89.4385L89.5791 67.6209ZM78.2561 69.8732V70.7178L78.0451 70.9993L77.4824 71.8439V73.8147L78.6077 74.8704L79.6626 75.5039L80.9286 75.9262V74.8704V73.8147L81.7022 74.237V75.5039H82.6165H83.4605L84.6561 73.8147L84.3044 70.7178L83.8121 69.8732H82.6165L81.2802 70.7178L80.155 69.8732H78.2561Z" fill="#CAAC94"/>
<path d="M69.6758 64.1017L69.3242 64.5944L69.6758 65.1575L70.5198 65.439L71.856 65.7909L72.7 66.0021L73.4736 65.9317L73.1923 65.6502L73.0517 64.7352L72.6297 63.8906L71.5747 63.5387L70.3088 63.8906L69.6758 64.1017Z" fill="#181615"/>
<path d="M88.1725 64.1017V65.8613L87.4692 66.4948L87.1879 67.0578H87.7506L88.1725 66.7763L88.8055 67.0578L89.5791 67.6209L90.3528 67.4098V66.354V65.2279L90.0714 64.3833L89.5791 63.8202L88.8055 63.6794L88.1725 64.1017Z" fill="#181615"/>
<path fill-rule="evenodd" clip-rule="evenodd" d="M78.2561 70.7178V69.8732H80.155L81.2802 70.7178L82.6165 69.8732H83.8121L84.3044 70.7178L84.6561 73.8147L83.4605 75.5039H82.6165H81.7022V74.237L80.9286 73.8147V74.8704V75.9262L79.6626 75.5039L78.6077 74.8704L77.4824 73.8147V71.8439L78.0451 70.9993L78.2561 70.7178ZM78.889 72.9701V72.1958L78.2561 72.5478V73.3924L78.889 74.237L79.6626 73.8147L78.889 72.9701ZM82.9681 72.2662L82.6165 71.8439L83.3901 72.1958L83.8121 72.7589L83.6714 73.5331L83.1088 73.8147H82.5462L82.9681 73.2516L83.1088 72.7589L82.9681 72.2662Z" fill="#1D1C1B"/>
<path d="M82.6165 71.8439L82.9681 72.2662L83.1088 72.7589L82.9681 73.2516L82.5462 73.8147H83.1088L83.6714 73.5331L83.8121 72.7589L83.3901 72.1958L82.6165 71.8439Z" fill="#B8B1AC"/>
<path d="M78.889 72.1958V72.9701L79.6626 73.8147L78.889 74.237L78.2561 73.3924V72.5478L78.889 72.1958Z" fill="#A69D96"/>
<path d="M74.7396 83.8091L73.4033 85.428L74.0363 86.9764L74.7396 88.3841H76.9198L79.2407 86.6949L80.155 85.3576L81.2802 86.9764L83.1088 87.2579L85.711 85.3576L87.1879 87.5395L90.0714 89.0175L91.0561 87.8914H92.6033H94.4319L95.5572 86.343L98.5813 86.6949H99.566L103.364 83.5276L104.137 82.4015L106.599 81.6273L108.779 80.2196L109.271 79.938L106.247 80.2196L102.449 81.6273H99.566L98.5813 79.938L96.3308 79.1638L95.0649 80.2196L92.6033 81.1346L92.0407 80.2196H90.3528L86.344 81.1346H85.0077H80.9286L76.5681 81.4161L74.7396 82.1903V83.8091Z" fill="#A08C7C"/>
<path d="M109.271 79.938L108.779 80.2196L106.599 81.6273L104.137 82.4015L103.364 83.5276L99.566 86.6949H98.5813L95.5572 86.343L94.4319 87.8914H92.6033H91.0561L90.0714 89.0175L87.1879 87.5395L85.711 85.3576L83.1088 87.2579L81.2802 86.9764L80.155 85.3576L79.2407 86.6949L76.9198 88.3841H74.7396H73.4736L73.1923 89.2991L70.5198 90.1437H68.0582V92.396H69.3945V94.7186L70.8714 96.2671L74.7396 94.7186L75.8648 96.2671L79.2407 95.4928L83.1088 96.2671L85.711 96.7597L87.6802 94.7186H89.0165H92.6033L94.4319 92.7479L96.7528 93.8036V92.7479L99.0033 91.8329L97.5967 90.0029L99.566 89.2991L100.48 88.3841H103.364L105.122 87.8914L104.63 87.2579L105.685 85.3576L107.443 84.4426L112.014 82.7534V79.938L110.186 81.1346L109.271 81.6273V79.938Z" fill="#553720"/>
<path d="M102.59 72.8997L102.379 74.237L102.731 74.5889L103.504 74.8L104.63 74.5889L105.263 73.4627L105.896 72.1958L106.036 70.9289V69.7324L106.247 69.0286H105.896H105.403L104.911 69.5213L104.348 70.2955L103.786 70.9289L102.942 71.7032L102.766 72.3014L102.59 72.8997Z" fill="#3B322B"/>
<path d="M105.896 72.1958L105.544 74.1666H105.614L106.247 74.2722L106.88 74.3777L108.217 74.1666L109.271 73.322L109.623 72.3366V71.9847V71.6328V70.7882L109.834 70.2955L110.326 69.5213L111.311 69.1693L111.1 68.8174L109.834 68.6767L108.92 69.3101L107.513 70.2955L106.81 70.6474L106.247 71.6328L105.896 72.1958Z" fill="#29211B"/>
<path d="M109.623 72.3366L109.271 73.322L108.217 74.1666L106.88 74.3777L106.247 74.2722L107.091 75.0112L107.865 76.0669L107.513 76.9115L107.091 77.2635L107.865 76.9115L108.639 76.0669L109.623 75.2927L111.1 74.6593L112.225 74.1666L112.647 73.4627L112.366 72.6181L112.788 71.9847L113.21 71.6328L113.843 71.4216L113.632 71.2809L112.788 70.9993L111.663 71.2809L111.1 71.4216L110.256 71.5624L109.623 71.9847V72.3366Z" fill="#463E37"/>
<path d="M108.639 76.0669L107.865 76.9115L107.091 77.2635L106.036 77.8265L106.88 77.9673L107.513 78.1785L107.865 78.8823L108.99 78.6008H109.764L111.1 78.46L111.452 78.1785L111.663 77.4042L111.803 76.9115L112.929 77.1227L112.788 76.7004L111.663 76.0669L110.397 75.9262L109.764 76.0669H108.639Z" fill="#443C36"/>
<path d="M98.5813 76.1373V77.545H99.7066L100.41 76.8412L100.621 76.1373L100.129 75.0816L99.8473 74.8352L99.566 74.5889V74.0258L99.0737 74.4481L98.8627 74.9408H98.5813V75.6446V76.1373Z" fill="#2F2C29"/>
<path d="M98.5813 77.545V76.1373V75.6446H98.089L97.1044 76.8412L96.6121 77.9673L96.3308 79.1638L98.089 78.3192H99.144L100.41 78.2488H101.043L101.957 77.6858L103.293 77.4746L103.715 77.5098L104.63 76.9115L105.122 76.0669L105.685 75.2927L106.599 74.9408L107.091 75.0112L106.247 74.2722L105.614 74.1666H105.544L105.896 72.1958L105.263 73.4627L104.63 74.5889L103.504 74.8L102.731 74.5889L102.379 74.237L102.59 72.8997L102.766 72.3014L101.957 73.4627L100.48 74.3777L99.8473 74.8352L100.129 75.0816L100.621 76.1373L100.41 76.8412L99.7066 77.545H98.5813Z" fill="#79614D"/>
<path d="M106.036 77.8265L107.091 77.2635L107.513 76.9115L107.865 76.0669L107.091 75.0112L106.599 74.9408L105.685 75.2927L105.122 76.0669L104.63 76.9115L103.715 77.5098L104.137 77.545L104.841 77.8265H106.036Z" fill="#B3845F"/>
<path d="M106.036 77.8265H104.841L104.137 77.545L103.715 77.5098L103.293 77.4746L101.957 77.6858L101.043 78.2488L101.395 78.6008H101.957L102.942 78.7415L103.645 78.8823L104.137 79.2342L104.559 79.6565L106.247 80.2196L107.091 79.375L107.865 78.8823L107.513 78.1785L106.88 77.9673L106.036 77.8265Z" fill="#9A673E"/>
<path d="M96.3308 79.1638L98.5813 79.938L99.566 81.6273H102.449L106.247 80.2196L104.559 79.6565L104.137 79.2342L103.645 78.8823L102.942 78.7415L101.957 78.6008H101.395L101.043 78.2488H100.41L99.144 78.3192H98.089L96.3308 79.1638Z" fill="#3B2F26"/>
<path d="M65.5967 79.2342V80.4307L66.3703 80.9234L66.7923 82.1199L67.1791 82.683L67.5659 83.2461L68.4099 82.8238L68.9022 82.1199L68.1989 80.1492L67.0736 79.375L65.5967 78.8823L65.0341 77.8969L65.5967 79.2342Z" fill="#3B332C"/>
<path d="M61.3066 75.8558L61.0722 77.2635L61.9396 77.7562L62.2912 78.46L64.2604 80.5715L65.5967 80.4307V79.2342L65.0341 77.8969L64.1198 76.9115L62.8538 76.2077L61.3066 75.8558Z" fill="#322A24"/>
<path d="M58.7747 73.9554L57.6494 73.6035H57.1923L56.9461 74.4481L57.6494 75.8558V76.9819L59.1967 77.545H61.0253L61.0722 77.2635L61.3066 75.8558L60.8846 75.2223L59.478 74.4481L58.7747 73.9554Z" fill="#36302C"/>
<path d="M59.1967 69.099L58.4934 71.0697L58.9857 71.9847L60.1813 72.6885H60.8846H61.5879L61.0253 71.9847L61.3066 71.2809L61.5879 70.2955L61.0253 69.8732H59.9L59.1967 69.099Z" fill="#816E60"/>
<path d="M56.3132 69.099L57.6494 69.8732L59.1967 69.099L59.9 68.1136L59.478 66.5652L58.9857 65.5094L57.9659 65.7205L56.9461 65.9317L56.3132 66.5652L56.0319 67.6209L56.2462 68.747L56.3132 69.099Z" fill="#4B3D31"/>
<path d="M56.2462 68.747L56.0319 67.6209L56.3132 66.5652L56.9461 65.9317L57.9659 65.7205L57.9308 65.1575L56.9461 64.5944L56.0319 64.2425L54.4846 64.5944L54.133 65.5094V66.9875L54.6956 68.1136L56.2462 68.747Z" fill="#6D5847"/>
<path d="M56.3132 69.099L56.2462 68.747L54.6956 68.1136L53.711 67.3394L52.5857 67.9728L52.3747 69.5213L53.289 70.6474H54.4846H55.0121H55.5395L56.0319 70.0139L56.3132 69.099Z" fill="#4E433A"/>
<path d="M65.5967 80.4307L64.2604 80.5715L64.4011 81.2753L64.2604 83.2461L63.8385 84.8649L64.4011 85.0761L64.1198 85.7799L62.8538 86.4133L62.2912 88.3841L63.6275 88.5952H64.1198L65.0341 87.7506L66.4407 88.5952L66.7923 89.5806L67.5659 88.9472L67.0736 87.7506L67.1791 87.4141L68.1989 84.1611L68.9022 82.1199L68.4099 82.8238L67.5659 83.2461L67.1791 82.683L66.7923 82.1199L66.3703 80.9234L65.5967 80.4307Z" fill="#221C17"/>
<path fill-rule="evenodd" clip-rule="evenodd" d="M60.8846 72.6885L60.6736 73.9554H60.1813H58.7747L59.478 74.4481L60.8846 75.2223L61.3066 75.8558H62.7132L63.2055 75.5039L64.4714 75.2223V73.322L62.9945 71.0697L61.3066 68.747L59.9 68.1136L59.1967 69.099L59.9 69.8732H61.0253L61.5879 70.2955L61.3066 71.2809L61.0253 71.9847L61.5879 72.6885H60.8846Z" fill="#2D1604"/>
<path d="M57.6494 69.8732L56.3132 69.099L56.0319 70.0139L55.5395 70.6474H55.0121L54.6956 71.2809L55.0121 72.3366L55.7505 73.322L56.7352 73.6035H57.1923H57.6494L58.7747 73.9554H60.1813H60.6736L60.8846 72.6885H60.1813L58.9857 71.9847L58.4934 71.0697L59.1967 69.099L57.6494 69.8732Z" fill="#B3845F"/>
<path d="M64.4714 73.322V75.2223L63.2055 75.5039L62.7132 75.8558H61.3066L62.8538 76.2077L64.1198 76.9115L65.0341 77.8969L65.5967 78.8823L67.0736 79.375L68.1989 80.1492L68.9022 82.1199L68.1989 84.1611L67.1791 87.4141L67.0736 87.7506L67.5659 88.9472L68.0582 90.1437H70.5198L73.1923 89.2991L73.4736 88.3841H74.7396L74.0363 86.9764L73.4033 85.428L72.5593 83.8091L71.856 82.1903V81.1346V80.3603L71.5747 79.0231L70.8011 77.8969L69.1132 76.7004L68.0582 75.9262H66.7923L64.4714 73.322Z" fill="#3B291A"/>
<path fill-rule="evenodd" clip-rule="evenodd" d="M58.9857 65.5094L59.478 66.5652L59.9 68.1136L61.3066 68.747L62.9945 71.0697L64.4714 73.322L66.7923 75.9262H68.0582L69.1132 76.7004L70.8011 77.8969L71.5747 79.0231L71.856 80.3603V81.1346V82.1903L72.5593 83.8091L73.4033 85.428L74.7396 83.8091V82.1903L76.5681 81.4161L80.9286 81.1346H85.0077H86.344L90.3528 80.2196H92.0407L92.6033 81.1346L95.0649 80.2196L96.3308 79.1638L96.6121 77.9673L97.1044 76.8412L98.089 75.6446H98.5813V74.9408H98.8627L99.0737 74.4481L99.566 74.0258V74.5889L99.8473 74.8352L100.48 74.3777L101.957 73.4627L102.766 72.3014L102.942 71.7032L103.786 70.9289L104.348 70.2955L104.911 69.5213L105.403 69.0286H105.896H106.247V67.0578L101.957 69.8732L105.403 66.0021H103.364L104.841 63.046L102.942 63.6794L105.263 61.3568L102.59 61.8494L105.263 59.2452L100.41 61.3568L105.263 57.7672H98.3704L100.129 55.3741H96.3308L99.566 51.3623L93.6583 53.1207L96.4715 49.4619L92.6033 50.4473L93.6583 48.7581L89.0165 49.4619L91.0561 46.5058L88.7 47.9839L87.4692 50.4473L86.344 53.5442L85.711 50.4473L84.3044 55.9724L84.6561 51.3623L81.7022 55.9724V57.7672L80.155 53.1207L79.6626 57.7672L78.889 54.1776V59.2452L77.4824 54.1776V57.7672L76.3923 53.1219L76.5681 50.4473L74.7396 52.1365L74.0363 48.7581L71.856 51.3623L69.3242 45.5204L69.6758 52.1365L66.7923 47.4208L68.0582 52.1365L64.4714 48.7581L65.5264 53.5442L56.7352 50.5881L61.9396 55.3741H58.0011L59.056 58.2599L56.3132 56.6411L52.5857 55.3741L58.4934 60.7233L55.0121 59.0341L51.5308 58.2599L52.5857 61.216L54.133 62.3421H51.5308L50.8275 63.8906L51.5308 64.5944L47.9439 64.2425L51.5308 67.3394H49.4912L50.8275 69.099L47.3813 69.8732L49.9835 72.1958L46.6077 71.9847L49.9835 73.8147L46.6077 75.5039L49.4912 75.9262L47.9439 77.8969L44.8494 78.46L45.5527 79.375L47.3813 80.4307L49.9835 80.9234L47.9439 82.683L45.5527 81.4161L46.6077 84.1611L48.5769 84.8649L46.1154 85.7799L48.4364 86.6949L53.289 83.3868L53.711 84.8649L55.5395 83.2461L56.0319 85.5687L60.6736 85.2872L62.2912 88.3841L62.8538 86.4133L64.1198 85.7799L64.4011 85.0761L63.8385 84.8649L64.2604 83.2461L64.4011 81.2753L64.2604 80.5715L62.2912 78.46L61.9396 77.7562L61.0722 77.2635L61.0253 77.545H59.1967L57.6494 76.9819V75.8558L56.9461 74.4481L57.1923 73.6035H56.7352L55.7505 73.322L55.0121 72.3366L54.6956 71.2809L55.0121 70.6474H54.4846H53.289L52.3747 69.5213L52.5857 67.9728L53.711 67.3394L54.6956 68.1136L54.133 66.9875V65.5094L54.4846 64.5944L56.0319 64.2425L56.9461 64.5944L57.9308 65.1575L57.9659 65.7205L58.9857 65.5094ZM88.1725 65.8613V64.1017L88.8055 63.6794L89.5791 63.8202L90.0714 64.3833L90.3528 65.2279V66.354V67.4098L89.5791 67.6209L89.4385 69.099H91.0561L93.6583 69.8732L92.0407 71.7032L91.0561 73.8147L88.8055 75.9262L89.0165 77.2635L82.9681 77.0523L77.4121 77.2635L73.1923 75.0816L69.1132 74.237L68.4099 71.9847L68.1989 69.099H71.5747L70.8714 66.5652L71.856 65.7909L70.5198 65.439L69.6758 65.1575L69.3242 64.5944L69.6758 64.1017L70.3088 63.8906L71.5747 63.5387L72.6297 63.8906L73.0517 64.7352V63.2571H74.3879L75.1615 65.439L76.2165 67.0578L77.4121 68.1136L81.2802 66.354L84.3044 67.0578L87.1879 65.7909L88.1725 65.8613Z" fill="#E1D5CC"/>
<path d="M88.1725 65.8613V64.1017L88.8055 63.6794L89.5791 63.8202L90.0714 64.3833L90.3528 65.2279V66.354V67.4098L89.5791 67.6209M88.1725 65.8613L87.4692 66.4948L87.1879 67.0578H87.7506L88.1725 66.7763L88.8055 67.0578L89.5791 67.6209M88.1725 65.8613L87.1879 65.7909L84.3044 67.0578L81.2802 66.354L77.4121 68.1136L76.2165 67.0578L75.1615 65.439L74.3879 63.2571H73.0517V64.7352M89.5791 67.6209L89.4385 69.099H91.0561L93.6583 69.8732L92.0407 71.7032L91.0561 73.8147L88.8055 75.9262L89.0165 77.2635L82.9681 77.0523L77.4121 77.2635L73.1923 75.0816L69.1132 74.237L68.4099 71.9847L68.1989 69.099H71.5747L70.8714 66.5652L71.856 65.7909M73.0517 64.7352L72.6297 63.8906L71.5747 63.5387L70.3088 63.8906L69.6758 64.1017L69.3242 64.5944L69.6758 65.1575L70.5198 65.439L71.856 65.7909M73.0517 64.7352L73.1923 65.6502L73.4736 65.9317L72.7 66.0021L71.856 65.7909M56.3132 69.099L57.6494 69.8732L59.1967 69.099M56.3132 69.099L56.0319 67.6209M56.3132 69.099L56.2462 68.747M56.3132 69.099L56.0319 70.0139L55.5395 70.6474H55.0121M56.0319 67.6209L56.3132 66.5652L56.9461 65.9317L57.9659 65.7205M56.0319 67.6209L56.2462 68.747M59.9 68.1136L59.478 66.5652L58.9857 65.5094L57.9659 65.7205M59.9 68.1136L59.1967 69.099M59.9 68.1136L61.3066 68.747L62.9945 71.0697L64.4714 73.322M59.1967 69.099L58.4934 71.0697L58.9857 71.9847L60.1813 72.6885H60.8846M59.1967 69.099L59.9 69.8732H61.0253L61.5879 70.2955L61.3066 71.2809L61.0253 71.9847L61.5879 72.6885H60.8846M56.2462 68.747L54.6956 68.1136M54.6956 68.1136L54.133 66.9875V65.5094L54.4846 64.5944L56.0319 64.2425L56.9461 64.5944L57.9308 65.1575L57.9659 65.7205M54.6956 68.1136L53.711 67.3394L52.5857 67.9728L52.3747 69.5213L53.289 70.6474H54.4846H55.0121M55.0121 70.6474L54.6956 71.2809L55.0121 72.3366L55.7505 73.322L56.7352 73.6035H57.1923M58.7747 73.9554L57.6494 73.6035H57.1923M58.7747 73.9554H60.1813H60.6736L60.8846 72.6885M58.7747 73.9554L59.478 74.4481L60.8846 75.2223L61.3066 75.8558M57.1923 73.6035L56.9461 74.4481L57.6494 75.8558V76.9819L59.1967 77.545H61.0253L61.0722 77.2635M61.3066 75.8558H62.7132L63.2055 75.5039L64.4714 75.2223V73.322M61.3066 75.8558L61.0722 77.2635M61.3066 75.8558L62.8538 76.2077L64.1198 76.9115L65.0341 77.8969M64.4714 73.322L66.7923 75.9262H68.0582L69.1132 76.7004L70.8011 77.8969L71.5747 79.0231L71.856 80.3603V81.1346V82.1903L72.5593 83.8091L73.4033 85.428M61.0722 77.2635L61.9396 77.7562L62.2912 78.46L64.2604 80.5715M64.2604 80.5715L65.5967 80.4307M64.2604 80.5715L64.4011 81.2753L64.2604 83.2461L63.8385 84.8649L64.4011 85.0761L64.1198 85.7799L62.8538 86.4133L62.2912 88.3841M65.5967 80.4307V79.2342L65.0341 77.8969M65.5967 80.4307L66.3703 80.9234L66.7923 82.1199L67.1791 82.683L67.5659 83.2461L68.4099 82.8238L68.9022 82.1199M65.0341 77.8969L65.5967 78.8823L67.0736 79.375L68.1989 80.1492L68.9022 82.1199M68.9022 82.1199L68.1989 84.1611L67.1791 87.4141L67.0736 87.7506L67.5659 88.9472M73.4033 85.428L74.7396 83.8091V82.1903L76.5681 81.4161L80.9286 81.1346H85.0077H86.344L90.3528 80.2196H92.0407L92.6033 81.1346L95.0649 80.2196L96.3308 79.1638M73.4033 85.428L74.0363 86.9764L74.7396 88.3841M96.3308 79.1638L98.5813 79.938L99.566 81.6273H102.449L106.247 80.2196M96.3308 79.1638L98.089 78.3192H99.144L100.41 78.2488H101.043M96.3308 79.1638L96.6121 77.9673L97.1044 76.8412L98.089 75.6446H98.5813M106.247 80.2196L109.271 79.938M106.247 80.2196L107.091 79.375L107.865 78.8823M106.247 80.2196L104.559 79.6565L104.137 79.2342L103.645 78.8823L102.942 78.7415L101.957 78.6008H101.395L101.043 78.2488M109.271 79.938L108.779 80.2196L106.599 81.6273L104.137 82.4015L103.364 83.5276L99.566 86.6949H98.5813L95.5572 86.343L94.4319 87.8914H92.6033H91.0561L90.0714 89.0175L87.1879 87.5395L85.711 85.3576L83.1088 87.2579L81.2802 86.9764L80.155 85.3576L79.2407 86.6949L76.9198 88.3841H74.7396M109.271 79.938V81.6273L110.186 81.1346L112.014 79.938V82.7534L107.443 84.4426M74.7396 88.3841H73.4736L73.1923 89.2991L70.5198 90.1437H68.0582M68.0582 90.1437L67.5659 88.9472M68.0582 90.1437V92.396H69.3945V94.7186L70.8714 96.2671L74.7396 94.7186L75.8648 96.2671L79.2407 95.4928L83.1088 96.2671L85.711 96.7597L87.6802 94.7186H89.0165H92.6033L94.4319 92.7479L96.7528 93.8036V92.7479L99.0033 91.8329L97.5967 90.0029L99.566 89.2991L100.48 88.3841H103.364L105.122 87.8914L104.63 87.2579L105.685 85.3576L107.443 84.4426M62.2912 88.3841L63.6275 88.5952H64.1198L65.0341 87.7506L66.4407 88.5952L66.7923 89.5806L67.5659 88.9472M62.2912 88.3841L60.6736 85.2872L56.0319 85.5687L55.5395 83.2461L53.711 84.8649L53.289 83.3868L48.4364 86.6949M107.443 84.4426L109.412 84.6538H111.452L109.412 85.7095L111.874 86.343L107.795 86.6949L110.608 89.0175H108.779L110.608 91.8329L108.217 90.0029H106.247L106.599 91.8329L108.779 92.7479L109.271 93.8036L105.122 92.2552L106.599 95.4225L105.122 94.6482L110.186 97.6747L103.364 95.4225L104.137 96.1967L109.623 98.5193H108.568L100.48 96.1967L105.263 99.4343H103.786L106.599 100.349L105.685 101.687L103.504 101.968L105.403 104.22H103.786V105.91L98.722 104.22L103.504 107.669L97.5967 107.106L98.722 108.584L103.786 110.133L106.036 111.611L99.4956 109.781L97.5967 110.133H96.5418L99.7066 112.103L105.685 114.567L98.722 114.848L104.137 115.411L105.685 116.256L95.0649 113.722L95.4868 115.2L102.59 118.016L92.1813 116.678L95.0649 119.494L92.1813 119.071L93.2363 121.746L89.1572 120.198L89.9308 122.942L84.7264 124.772L87.3286 123.294L82.3352 124.772H80.4363L84.4451 121.394L77.4121 123.154V124.772L76.9198 123.154L76.5681 121.253V123.435L74.7396 121.605L74.0363 123.717L73.4736 120.549L71.9264 123.154V120.549L71.3637 122.098L70.8714 119.986L69.8165 122.591V125.406L68.0582 121.605L67.5659 123.717L66.4407 121.605L65.5264 123.154V120.549L62.9945 124.28L62.2912 119.353L60.8846 122.098V118.579L59.5483 121.253L59.9 117.875L59.056 119.353L58.7747 114.989L58.0011 119.705L57.2275 117.101V114.989L56.3132 117.101V114.989L54.4846 116.467L54.6956 113.652L53.289 114.426H51.5308L54.133 111.963L55.0121 109.851L52.5857 112.596H50.8275L53.289 110.414L54.6956 108.443L51.5308 109.358L53.289 106.613H48.5769L50.8275 105.487L52.3747 103.094H50.8275L47.9439 104.432L49.4912 101.264L49.9835 99.2232L48.5769 100.772L47.3813 101.264L48.5769 97.7451L51.5308 94.2963V93.7332L48.5769 95.4225H47.9439L48.5769 93.7332L49.9835 91.9033L52.3747 88.9472L49.4912 89.5806L47.3813 90.1437L49.9835 86.9764L47.3813 87.4141L48.4364 86.6949M106.247 69.0286H105.896H105.403L104.911 69.5213L104.348 70.2955L103.786 70.9289L102.942 71.7032L102.766 72.3014M106.247 69.0286L106.036 69.7324V70.9289L105.896 72.1958M106.247 69.0286V67.0578L101.957 69.8732L105.403 66.0021H103.364L104.841 63.046L102.942 63.6794L105.263 61.3568L102.59 61.8494L105.263 59.2452L100.41 61.3568L105.263 57.7672H98.3704L100.129 55.3741H96.3308L99.566 51.3623L93.6583 53.1207L96.4715 49.4619L92.6033 50.4473L93.6583 48.7581L89.0165 49.4619L91.0561 46.5058L88.7 47.9839M105.896 72.1958L105.263 73.4628L104.63 74.5889L103.504 74.8L102.731 74.5889L102.379 74.237L102.59 72.8997L102.766 72.3014M105.896 72.1958L105.544 74.1666H105.614L106.247 74.2722M105.896 72.1958L106.247 71.6328L106.81 70.6474L107.513 70.2955L108.92 69.3101L109.834 68.6767L111.1 68.8174L111.311 69.1693L110.326 69.5213L109.834 70.2955L109.623 70.7882V71.6328V71.9847M109.623 71.9847V72.3366L109.271 73.322L108.217 74.1666L106.88 74.3777L106.247 74.2722M109.623 71.9847L110.256 71.5624L111.1 71.4216L111.663 71.2809L112.788 70.9993L113.632 71.2809L113.843 71.4216L113.21 71.6328L112.788 71.9847L112.366 72.6181L112.647 73.4628L112.225 74.1666L111.1 74.6593L109.623 75.2927L108.639 76.0669M108.639 76.0669L107.865 76.9115L107.091 77.2635M108.639 76.0669H109.764L110.397 75.9262L111.663 76.0669L112.788 76.7004L112.929 77.1227L111.803 76.9115L111.663 77.4042L111.452 78.1785L111.1 78.46L109.764 78.6008H108.99L107.865 78.8823M107.091 77.2635L106.036 77.8265M107.091 77.2635L107.513 76.9115L107.865 76.0669L107.091 75.0112M106.036 77.8265H104.841L104.137 77.545L103.715 77.5098M106.036 77.8265L106.88 77.9673L107.513 78.1785L107.865 78.8823M101.043 78.2488L101.957 77.6858L103.293 77.4746L103.715 77.5098M106.247 74.2722L107.091 75.0112M107.091 75.0112L106.599 74.9408L105.685 75.2927L105.122 76.0669L104.63 76.9115L103.715 77.5098M98.5813 75.6446V76.1373V77.545H99.7066L100.41 76.8412L100.621 76.1373L100.129 75.0816L99.8473 74.8352M98.5813 75.6446V74.9408H98.8627L99.0737 74.4481L99.566 74.0258V74.5889L99.8473 74.8352M99.8473 74.8352L100.48 74.3777L101.957 73.4628L102.766 72.3014M48.4364 86.6949L46.1154 85.7799L48.5769 84.8649L46.6077 84.1611L45.5527 81.4161L47.9439 82.683L49.9835 80.9234L47.3813 80.4307L45.5527 79.375L44.8494 78.46L47.9439 77.8969L49.4912 75.9262L46.6077 75.5039L49.9835 73.8147L46.6077 71.9847L49.9835 72.1958L47.3813 69.8732L50.8275 69.099L49.4912 67.3394H51.5308L47.9439 64.2425L51.5308 64.5944L50.8275 63.8906L51.5308 62.3421H54.133L52.5857 61.216L51.5308 58.2599L55.0121 59.0341L58.4934 60.7233L52.5857 55.3741L56.3132 56.6411L59.056 58.2599L58.0011 55.3741H61.9396L56.7352 50.5881L65.5264 53.5442L64.4714 48.7581L68.0582 52.1365L66.7923 47.4208L69.6758 52.1365L69.3242 45.5204L71.856 51.3623L74.0363 48.7581L74.7396 52.1365M74.7396 52.1365L75.8648 44.887L76.9198 47.4208L80.155 45.5204L81.2802 49.4619L83.4605 43.9016L83.8121 47.4208L86.344 44.887V49.4619L88.7 47.9839M74.7396 52.1365L76.5681 50.4473L76.3923 53.1219M76.2165 55.7965L76.3923 53.1219M76.3923 53.1219L77.4824 57.7672V54.1776L78.889 59.2452V54.1776L79.6626 57.7672L80.155 53.1207L81.7022 57.7672V55.9724M81.7022 54.1776V55.9724M81.7022 55.9724L84.6561 51.3623L84.3044 55.9724L85.711 50.4473L86.344 53.5442L87.4692 50.4473L88.7 47.9839M78.2561 70.7178V69.8732H80.155L81.2802 70.7178L82.6165 69.8732H83.8121L84.3044 70.7178L84.6561 73.8147L83.4605 75.5039H82.6165H81.7022V74.237L80.9286 73.8147V74.8704V75.9262L79.6626 75.5039L78.6077 74.8704L77.4824 73.8147V71.8439L78.0451 70.9993L78.2561 70.7178ZM78.889 72.1958V72.9701L79.6626 73.8147L78.889 74.237L78.2561 73.3924V72.5478L78.889 72.1958ZM82.6165 71.8439L82.9681 72.2662L83.1088 72.7589L82.9681 73.2516L82.5462 73.8147H83.1088L83.6714 73.5331L83.8121 72.7589L83.3901 72.1958L82.6165 71.8439Z" stroke="black" stroke-width="1.08285"/>
<path d="M34.4843 70.0446L39.9403 56.5765L46.4639 59.2192L46.0602 61.2955L55.3496 65.0587L56.5048 63.2869L63.0284 65.9296L57.5724 79.3977L51.0488 76.755L51.4524 74.6787L42.1631 70.9155L41.0079 72.6873L34.4843 70.0446Z" fill="#910000"/>
<path d="M48.2452 67.202C46.4953 65.7723 45.2227 64.3138 44.4275 62.8264C43.6391 61.3306 43.2428 59.7991 43.2387 58.232C43.2338 56.7342 43.523 55.2182 44.1061 53.6842C44.6893 52.1502 45.6205 50.6003 46.8997 49.0346C47.7821 47.9545 48.6114 47.0334 49.3876 46.2714C50.1637 45.5094 50.894 44.8634 51.5782 44.3334C52.2694 43.7951 52.9199 43.3492 53.5297 42.9958C54.1464 42.6341 54.7407 42.3168 55.3126 42.044L61.0521 46.7333L57.9636 50.5136C57.0118 50.4481 56.1782 50.5628 55.4625 50.8577C54.7537 51.1442 54.1736 51.5638 53.7221 52.1164C53.339 52.5853 53.0583 53.1169 52.88 53.7111C52.7085 54.297 52.6583 54.9052 52.7295 55.5358C52.8007 56.1664 53.0061 56.795 53.3459 57.4216C53.6772 58.0414 54.1694 58.618 54.8225 59.1516C56.271 60.335 57.5969 60.8738 58.8003 60.768C60.0106 60.6538 61.1116 59.9897 62.1035 58.7756C62.3498 58.4742 62.5793 58.1591 62.7921 57.8303C63.0117 57.4932 63.2146 57.1423 63.4007 56.7778L61.881 55.5362L59.9109 57.9476L56.4697 55.1361L62.852 47.3243L72.0202 54.8148C71.7561 55.702 71.4452 56.6208 71.0876 57.5712C70.7284 58.5064 70.3366 59.4218 69.9119 60.3175C69.4858 61.1979 69.0155 62.0214 68.501 62.7878C67.9949 63.561 67.4956 64.2491 67.0031 64.8519C66.1959 65.8399 65.3517 66.7279 64.4706 67.5159C63.5895 68.3038 62.6432 68.9408 61.6318 69.4269C60.6272 69.9046 59.5852 70.24 58.5059 70.4332C57.4182 70.6196 56.3094 70.6352 55.1796 70.4801C54.0483 70.3097 52.9028 69.9602 51.7431 69.4316C50.575 68.8961 49.409 68.1529 48.2452 67.202Z" fill="#910000"/>
<path d="M70.6945 56.0946C71.3211 55.71 71.8798 55.2974 72.3705 54.8568C72.8555 54.4069 73.2776 53.9576 73.6365 53.509C74.0047 53.0547 74.3127 52.6057 74.5604 52.1619C74.8082 51.7181 75.0099 51.3026 75.1655 50.9153L77.4739 49.4988L81.8169 56.5761L63.3358 67.917L59.6544 61.9179L61.2117 60.4866L55.9866 51.9717L54.0052 52.7119L50.3069 46.6851L68.788 35.3442L73.1309 42.4215L70.9055 43.7871C70.4862 43.7654 70.018 43.7673 69.5009 43.7928C68.9838 43.8184 68.4347 43.8952 67.8538 44.0234C67.2763 44.1367 66.6801 44.3124 66.065 44.5503C65.4442 44.779 64.8159 45.0884 64.18 45.4786L66.4957 49.2523L70.0912 45.8091L73.094 50.7023L68.3958 52.3486L70.6945 56.0946Z" fill="#910000"/>
<path d="M80.2813 54.4278C80.7852 54.3036 81.2434 54.1295 81.6559 53.9054C82.0658 53.6708 82.4364 53.4124 82.7678 53.1304C83.0991 52.8483 83.3873 52.549 83.6323 52.2326C83.8877 51.9135 84.1012 51.6048 84.2726 51.3065L86.9024 50.6586L88.8887 58.7211L69.6773 63.4541L67.9936 56.6199L69.9122 55.7296L67.5147 45.9979L65.4021 46.1008L63.7184 39.2666L77.8277 35.7905L79.5114 42.6248L77.5928 43.515L80.2813 54.4278Z" fill="#910000"/>
<path d="M107.023 43.3767C106.465 43.6957 105.916 44.0428 105.374 44.418C104.832 44.7932 104.31 45.1814 103.809 45.5829C103.308 45.9843 102.828 46.3881 102.37 46.7942C101.922 47.2016 101.508 47.5964 101.129 47.9786C100.666 48.4278 100.225 48.874 99.806 49.3171C99.3871 49.7603 98.9838 50.2106 98.596 50.6681C98.9784 51.3413 99.3572 51.9978 99.7324 52.6376C100.12 53.2679 100.507 53.8981 100.894 54.5283C101.216 55.0535 101.553 55.5966 101.905 56.1576C102.268 56.7091 102.632 57.2498 102.998 57.7797C103.364 58.3097 103.721 58.8116 104.071 59.2854C104.433 59.7497 104.774 60.1573 105.095 60.5082L104.706 64.1691L91.9392 62.7567L88.5206 51.9193L87.3774 62.252L74.9976 60.8823L75.7716 53.8864L77.8795 53.7117L78.9816 43.7498L76.9629 43.1186L77.7369 36.1227L90.1167 37.4923L89.0181 47.422L94.6785 37.997L107.445 39.4095L107.023 43.3767Z" fill="#910000"/>
<path d="M96.6252 67.8786C95.4738 67.235 94.3997 66.5418 93.4029 65.7989C92.4155 65.0612 91.5581 64.2352 90.8306 63.3207C90.1125 62.4116 89.5353 61.4387 89.099 60.4021C88.668 59.3561 88.4115 58.2528 88.3294 57.0921C88.2526 55.9221 88.367 54.6979 88.6728 53.4196C88.9932 52.1371 89.5411 50.8022 90.3166 49.4149C91.0445 48.1124 91.8523 47.0218 92.7398 46.143C93.6273 45.2642 94.5716 44.572 95.5727 44.0663C96.5737 43.5606 97.62 43.2288 98.7115 43.0709C99.8125 42.9183 100.933 42.9191 102.073 43.0733C103.228 43.2233 104.393 43.5093 105.569 43.9313C106.755 44.3586 107.933 44.8993 109.103 45.5534C110.274 46.2075 111.351 46.9275 112.336 47.7135C113.321 48.4994 114.18 49.3449 114.913 50.2499C115.646 51.1549 116.231 52.1137 116.668 53.1261C117.115 54.1438 117.386 55.2114 117.479 56.329C117.573 57.4466 117.478 58.6136 117.195 59.83C116.916 61.037 116.413 62.2917 115.685 63.5941C114.546 65.6327 113.232 67.1961 111.745 68.2845C110.272 69.3686 108.701 70.0514 107.033 70.3327C105.364 70.6141 103.65 70.5231 101.89 70.0596C100.136 69.5867 98.3806 68.8597 96.6252 67.8786ZM105.487 52.023C104.883 51.6854 104.329 51.4808 103.824 51.4092C103.334 51.3333 102.88 51.3463 102.464 51.4482C102.058 51.5553 101.694 51.7298 101.373 51.9715C101.052 52.2133 100.761 52.4782 100.501 52.7663C100.251 53.0597 100.033 53.3595 99.85 53.6657C99.6664 53.9719 99.5087 54.2429 99.3769 54.4789C99.245 54.7148 99.0967 54.9912 98.9321 55.3079C98.7675 55.6246 98.6232 55.9713 98.4994 56.348C98.3903 56.7205 98.3142 57.1115 98.2711 57.521C98.2281 57.9304 98.2648 58.3411 98.3814 58.7531C98.5126 59.1609 98.7364 59.5584 99.0525 59.9457C99.3781 60.3382 99.8429 60.7033 100.447 61.0409C101.051 61.3785 101.601 61.5805 102.096 61.6469C102.601 61.7185 103.062 61.7034 103.478 61.6016C103.899 61.4903 104.273 61.309 104.599 61.0578C104.935 60.8119 105.228 60.5423 105.479 60.2489C105.735 59.946 105.954 59.6415 106.138 59.3353C106.331 59.0344 106.493 58.766 106.625 58.5301C106.757 58.2941 106.901 58.0152 107.056 57.6932C107.22 57.3764 107.362 57.0345 107.481 56.6672C107.599 56.3 107.673 55.9137 107.701 55.5084C107.739 55.1084 107.692 54.7045 107.561 54.2967C107.429 53.8889 107.198 53.4934 106.867 53.1103C106.551 52.7231 106.091 52.3606 105.487 52.023Z" fill="#910000"/>
<path d="M126.752 65.8453L120.405 71.1991L118.648 69.1165C118.711 68.8226 118.762 68.5046 118.798 68.1624C118.835 67.8203 118.834 67.4749 118.794 67.1263C118.763 66.7707 118.681 66.4223 118.549 66.0812C118.425 65.733 118.234 65.4061 117.976 65.1003L109.385 72.3468L110.414 74.195L105.034 78.7332L95.6646 67.6257L101.045 63.0875L102.693 64.4129L111.284 57.1664C111.026 56.8606 110.736 56.6173 110.414 56.4365C110.1 56.2487 109.77 56.1095 109.425 56.0188C109.088 55.9211 108.748 55.8616 108.404 55.8401C108.061 55.8186 107.739 55.8143 107.439 55.8272L105.682 53.7445L112.029 48.3907L126.752 65.8453Z" fill="#910000"/>
<path d="M130.184 81.4689L122.479 84.5655L121.463 82.0374C121.615 81.7782 121.763 81.4918 121.905 81.1784C122.047 80.8649 122.153 80.5365 122.225 80.1931C122.307 79.8456 122.338 79.4892 122.32 79.1238C122.311 78.7544 122.232 78.3841 122.083 78.0129L111.655 82.2041L112.053 84.2814L105.522 86.9062L100.103 73.4232L106.634 70.7984L107.784 72.5734L118.212 68.3821C118.063 68.011 117.864 67.689 117.615 67.4164C117.375 67.1397 117.106 66.9043 116.806 66.71C116.517 66.5117 116.212 66.3486 115.893 66.2206C115.573 66.0927 115.269 65.9877 114.98 65.9059L113.964 63.3778L121.668 60.2813L130.184 81.4689Z" fill="#910000"/>
</svg>
