<svg width="274" height="273" viewBox="0 0 274 273" fill="none" xmlns="http://www.w3.org/2000/svg">
<path fill-rule="evenodd" clip-rule="evenodd" d="M260.628 136.806L255.788 137.97L252.158 139.062L249.536 140.113L247.768 141.147L246.733 142.183L246.339 143.237L246.503 144.323L247.157 145.453L248.235 146.636L249.672 147.877L251.399 149.181L253.345 150.547L255.432 151.974L257.576 153.453L259.688 154.974L261.681 156.523L263.466 158.08L264.967 159.628L266.12 161.144L266.881 162.611L267.226 164.012L267.16 165.334L266.706 166.572L265.912 167.725L264.838 168.797L263.554 169.799L262.136 170.744L260.656 171.648L259.183 172.531L257.777 173.41L256.489 174.304L255.359 175.23L254.419 176.203L253.688 177.238L253.177 178.345L252.887 179.532L252.811 180.804L252.931 182.161L253.222 183.601L253.648 185.115L254.165 186.689L254.721 188.304L255.256 189.935L255.705 191.552L256.001 193.121L256.079 194.603L255.88 195.964L255.356 197.168L254.477 198.187L253.23 199.002L251.626 199.604L249.696 199.997L247.489 200.197L245.071 200.231L242.515 200.134L239.899 199.947L237.301 199.718L234.795 199.494L232.447 199.321L230.319 199.248L228.464 199.319L226.93 199.581L225.764 200.08L225.01 200.866L224.714 201.992L224.931 203.521L225.725 205.529L227.178 208.111L229.399 211.387L230.95 214.207L226.681 212.175L223.349 210.833L220.789 210.081L218.871 209.844L217.499 210.064L216.59 210.695L216.076 211.699L215.899 213.039L216.002 214.681L216.33 216.588L216.831 218.72L217.448 221.029L218.122 223.462L218.795 225.961L219.405 228.459L219.894 230.889L220.21 233.183L220.307 235.278L220.152 237.119L219.726 238.667L219.027 239.899L218.066 240.811L216.869 241.417L215.475 241.749L213.928 241.851L212.276 241.776L210.566 241.584L208.843 241.333L207.146 241.079L205.509 240.875L203.957 240.764L202.508 240.785L201.174 240.967L199.962 241.332L198.871 241.894L197.896 242.658L197.027 243.62L196.25 244.77L195.546 246.086L194.892 247.538L194.264 249.086L193.634 250.68L192.971 252.261L192.247 253.765L191.432 255.121L190.501 256.261L189.434 257.12L188.22 257.644L186.853 257.796L185.34 257.557L183.695 256.932L181.942 255.946L180.109 254.648L178.228 253.101L176.333 251.381L174.457 249.571L172.627 247.755L170.868 246.015L169.2 244.43L167.639 243.074L166.193 242.014L164.871 241.316L163.676 241.044L162.61 241.265L161.673 242.052L160.866 243.49L160.189 245.681L159.643 248.756L159.233 252.885L158.261 254.275L156.372 250.24L154.737 247.29L153.299 245.251L152.01 243.992L150.833 243.411L149.738 243.424L148.699 243.96L147.694 244.956L146.703 246.348L145.709 248.075L144.698 250.07L143.658 252.26L142.58 254.567L141.456 256.906L140.285 259.189L139.066 261.327L137.804 263.235L136.506 264.839L135.182 266.08L133.845 266.92L132.506 267.342L131.178 267.358L129.871 266.997L128.593 266.312L127.347 265.367L126.136 264.234L124.958 262.988L123.806 261.702L122.675 260.443L121.556 259.269L120.438 258.229L119.312 257.362L118.168 256.697L116.995 256.25L115.786 256.033L114.532 256.042L113.229 256.268L111.874 256.691L110.466 257.282L109.01 258.001L107.512 258.8L105.985 259.621L104.445 260.399L102.913 261.066L101.412 261.549L99.9678 261.78L98.6082 261.701L97.3576 261.263L96.2371 260.441L95.2618 259.227L94.4385 257.638L93.7659 255.713L93.2336 253.511L92.8231 251.102L92.5094 248.567L92.2624 245.99L92.0487 243.453L91.833 241.034L91.5792 238.804L91.2509 236.828L90.8114 235.163L90.2232 233.863L89.4468 232.98L88.4393 232.565L87.1522 232.678L85.5285 233.385L83.4986 234.768L80.975 236.933L77.844 240.021L77.0942 238.93L78.1767 234.843L78.7615 231.712L78.9124 229.377L78.6769 227.714L78.0917 226.624L77.1867 226.027L75.9879 225.854L74.5201 226.043L72.8092 226.534L70.8839 227.268L68.7775 228.185L66.529 229.221L64.1837 230.31L61.793 231.382L59.4129 232.367L57.1022 233.2L54.9187 233.818L52.9154 234.172L51.1368 234.226L49.6143 233.962L48.3646 233.379L47.3875 232.495L46.6674 231.345L46.1746 229.973L45.8687 228.433L45.7023 226.781L45.6245 225.074L45.5846 223.362L45.5341 221.692L45.429 220.101L45.2313 218.619L44.9089 217.267L44.4369 216.06L43.7972 215.003L42.979 214.098L41.9786 213.337L40.8003 212.709L39.4564 212.194L37.9677 211.77L36.3644 211.407L34.6855 211.073L32.9792 210.73L31.3017 210.339L29.7149 209.859L28.2838 209.252L27.0724 208.482L26.1387 207.522L25.5294 206.356L25.2755 204.976L25.3887 203.391L25.8595 201.62L26.6575 199.693L27.7341 197.65L29.0258 195.535L30.4595 193.393L31.9571 191.269L33.4392 189.204L34.8287 187.235L36.0524 185.391L37.0411 183.699L37.7295 182.179L38.0541 180.847L37.9506 179.717L37.3507 178.803L36.1778 178.118L34.3414 177.678L31.7296 177.503L28.1997 177.62L23.5635 178.067L25.3998 176.152L28.6931 173.793L31.0135 171.833L32.5069 170.195L33.2852 168.816L33.4366 167.646L33.0343 166.644L32.1418 165.774L30.8184 165.006L29.1225 164.309L27.1153 163.659L24.863 163.029L22.4383 162.396L19.9205 161.738L17.3952 161.035L14.9511 160.27L12.6763 159.429L10.6532 158.503L8.95254 157.489L7.62806 156.388L6.71183 155.207L6.21192 153.957L6.1123 152.652L6.37516 151.308L6.94509 149.942L7.75455 148.568L8.72953 147.199L9.79497 145.845L10.879 144.513L11.9165 143.207L12.8507 141.926L13.6349 140.67L14.2324 139.433L14.6169 138.212L14.7722 136.999L14.6918 135.787L14.379 134.568L13.8469 133.338L13.1187 132.088L12.2277 130.815L11.2175 129.517L10.1415 128.193L9.06262 126.846L8.05075 125.481L7.18039 124.107L6.52641 122.737L6.15903 121.384L6.13814 120.065L6.5077 118.796L7.29103 117.592L8.48783 116.464L10.0735 115.422L12.0009 114.468L14.204 113.601L16.6036 112.812L19.1127 112.091L21.6424 111.421L24.1057 110.782L26.4212 110.154L28.5139 109.513L30.3158 108.834L31.7643 108.092L32.8004 107.257L33.3654 106.301L33.3977 105.189L32.8278 103.881L31.573 102.332L29.53 100.482L26.5651 98.26L22.5003 95.5698L26.8535 95.8869L30.7128 96.1047L33.5997 96.0196L35.6697 95.6615L37.0433 95.0525L37.8168 94.2097L38.0707 93.1472L37.8754 91.878L37.2961 90.4159L36.396 88.7765L35.2399 86.9789L33.8954 85.0467L32.4346 83.0087L30.9334 80.8993L29.4707 78.7584L28.1255 76.6295L26.973 74.5585L26.0802 72.5902L25.5009 70.7657L25.2717 69.1185L25.4089 67.6721L25.9075 66.4377L26.7424 65.4136L27.8712 64.586L29.239 63.9302L30.7833 63.4138L32.4389 62.9987L34.1424 62.6449L35.8357 62.3122L37.4678 61.9626L38.9966 61.5613L40.3894 61.0781L41.6222 60.4879L42.68 59.7708L43.5563 58.9126L44.252 57.9048L44.7758 56.7453L45.1434 55.4385L45.3778 53.9959L45.5085 52.4367L45.5718 50.7879L45.6101 49.0849L45.6703 47.3708L45.8029 45.6955L46.059 44.1138L46.4875 42.6822L47.1314 41.4556L48.0242 40.4826L49.1863 39.8012L50.6229 39.4346L52.3227 39.3885L54.2587 39.6501L56.3902 40.189L58.6666 40.9593L61.0309 41.903L63.4245 42.955L65.7901 44.0459L68.0747 45.1063L70.2309 46.0684L72.2177 46.8677L74.0002 47.4426L75.5484 47.7338L76.8355 47.6825L77.8368 47.2277L78.5269 46.3028L78.8774 44.8317L78.8542 42.7227L78.4136 39.8612L77.4978 36.0994L76.6958 32.3842L80.0499 35.8027L82.7531 38.2448L84.9297 39.8643L86.6745 40.7765L88.0622 41.0705L89.1531 40.8175L89.9983 40.0776L90.642 38.9047L91.1247 37.3503L91.4844 35.467L91.758 33.3112L91.9819 30.9451L92.1924 28.4377L92.425 25.8648L92.714 23.3074L93.0907 20.8494L93.5819 18.5727L94.2083 16.5525L94.9829 14.8516L95.9102 13.5152L96.9857 12.5675L98.1969 12.0096L99.5244 11.8203L100.944 11.9586L102.43 12.3687L103.955 12.9844L105.495 13.735L107.028 14.5498L108.537 15.3623L110.007 16.1125L111.431 16.7488L112.803 17.2289L114.123 17.5205L115.392 17.6004L116.614 17.4554L117.798 17.0815L118.95 16.4842L120.081 15.6787L121.2 14.6902L122.318 13.5541L123.444 12.3161L124.588 11.0318L125.758 9.76552L126.958 8.58845L128.192 7.57529L129.461 6.79987L130.759 6.32988L132.081 6.22107L133.418 6.51184L134.757 7.21894L136.087 8.3351L137.394 9.82905L138.668 11.6479L139.902 13.7215L141.088 15.9679L142.227 18.299L143.319 20.6257L144.37 22.8619L145.389 24.9269L146.387 26.7466L147.377 28.2526L148.376 29.3811L149.402 30.0704L150.477 30.2574L151.624 29.8739L152.874 28.841L154.26 27.0632L155.827 24.4196L157.627 20.7523L159.132 19.1555L159.498 23.6643L160.001 27.0542L160.636 29.5111L161.402 31.1764L162.298 32.1606L163.323 32.5535L164.477 32.4313L165.759 31.862L167.165 30.9105L168.691 29.6413L170.326 28.1216L172.058 26.4232L173.867 24.6228L175.732 22.8016L177.624 21.0439L179.513 19.4332L181.365 18.048L183.147 16.9567L184.829 16.2124L186.386 15.8487L187.801 15.8771L189.064 16.2862L190.177 17.0439L191.149 18.1008L191.998 19.3955L192.749 20.8597L193.428 22.4235L194.065 24.0201L194.691 25.5884L195.333 27.0758L196.019 28.4391L196.771 29.6446L197.609 30.6685L198.549 31.4962L199.602 32.1219L200.775 32.5486L202.07 32.7871L203.483 32.8565L205.004 32.7841L206.617 32.6049L208.298 32.3616L210.016 32.1037L211.735 31.8864L213.411 31.7681L214.997 31.8078L216.445 32.0609L217.708 32.5755L218.748 33.3873L219.533 34.5167L220.046 35.9657L220.286 37.7172L220.266 39.7364L220.016 41.9734L219.576 44.3674L218.998 46.8516L218.34 49.3573L217.659 51.8184L217.018 54.1731L216.474 56.3664L216.084 58.3497L215.904 60.0805L215.986 61.5207L216.386 62.6352L217.162 63.389L218.379 63.7447L220.113 63.6588L222.457 63.078L225.527 61.9337L229.477 60.1344L230.29 61.0101L227.796 64.5394L226.112 67.3275L225.118 69.507L224.725 71.1799L224.863 72.4269L225.477 73.3145L226.517 73.8993L227.938 74.2318L229.696 74.359L231.742 74.3268L234.026 74.1808L236.489 73.9677L239.066 73.7347L241.685 73.5298L244.268 73.3993L246.739 73.3869L249.02 73.5305L251.044 73.8599L252.757 74.3946L254.119 75.1421L255.116 76.0978L255.75 77.2456L256.048 78.5597L256.053 80.0075L255.819 81.5527L255.412 83.1582L254.897 84.7883L254.341 86.4116L253.805 88.0012L253.345 89.5359L253.007 91.0004L252.829 92.3847L252.84 93.6839L253.061 94.8975L253.501 96.0292L254.162 97.0859L255.038 98.0777L256.11 99.0173L257.352 99.9196L258.725 100.801L260.183 101.681L261.668 102.576L263.114 103.506L264.448 104.488L265.597 105.537L266.488 106.663L267.055 107.873L267.249 109.17L267.036 110.546L266.407 111.994L265.375 113.496L263.979 115.036L262.276 116.593L260.34 118.146L258.256 119.678L256.113 121.172L253.998 122.616L251.999 124.002L250.194 125.326L248.657 126.587L247.458 127.788L246.662 128.933L246.334 130.033L246.542 131.096L247.363 132.136L248.886 133.168L251.222 134.212L254.511 135.288L258.94 136.425L260.628 136.806Z" fill="#DCDECE" stroke="#0C6E39" stroke-width="10.8807"/>
<path d="M129.633 80.8373L127.426 95.0599L131.013 91.7459L130.668 96.9931L132.807 106.107V99.0643L135.566 109.006V99.0643L137.084 106.107L138.05 96.9907L141.085 106.107V102.585L146.88 93.541L146.19 102.585L148.95 91.7459L150.192 97.8216L152.399 91.7459L154.814 86.913L150.192 89.8127V80.8373L145.225 85.8083L144.535 78.9042L140.257 89.8127L138.05 82.0801L131.703 85.8083L129.633 80.8373Z" fill="#5F4027"/>
<path fill-rule="evenodd" clip-rule="evenodd" d="M103.004 166.173L99.8301 160.097L90.7236 160.649L89.7577 156.093L86.1703 159.269L85.3424 156.369L75.8222 162.859L73.7523 164.27L78.8575 163.411L73.7523 169.625L77.8917 168.52L83.5487 167.277L78.8575 173.077L76.098 176.667L74.8562 179.981H76.098L81.893 176.667V177.772L76.098 184.538L73.7523 191.442L76.098 190.475L78.8575 187.438L77.8917 191.442L74.8562 197.656L80.5132 195.032H83.5487L80.5132 199.727L76.098 201.936H85.3424L81.893 207.322L88.102 205.526L85.3424 209.393L80.5132 213.673H83.9627L88.7229 208.288L86.9982 212.431L81.893 217.264H85.3424L88.102 215.745L87.6881 221.268L91.2755 218.368V222.511L93.0692 218.368V222.511L94.5869 227.62L96.1047 218.368L96.6566 226.929L98.3123 224.03L97.6224 230.658L100.244 225.41V232.315L103.004 226.929L104.383 236.595L109.351 229.277V234.386L111.144 231.348L113.352 235.491L114.318 231.348L117.767 238.805V233.281L119.837 228.172L120.803 232.315L121.906 229.277V234.386L124.942 229.277L126.046 235.491L127.426 231.348L131.013 234.938V230.658L131.703 234.386L132.669 237.562V234.386L146.466 230.934L138.602 237.562H142.327L152.124 234.662L147.018 237.562L157.229 233.972L155.711 228.586L163.714 231.624L161.644 226.377L167.301 227.206L161.644 221.682L182.065 224.306L168.129 218.782L167.301 215.883L188.136 220.854L185.1 219.197L174.476 218.092L188.136 217.54L176.408 212.707L170.199 208.84H172.268L175.994 208.15L188.825 211.74L184.41 208.84L174.476 205.803L172.268 202.903L183.858 204.008L174.476 197.241L184.41 200.555V197.241H187.584L183.858 192.823L188.136 192.27L189.929 189.647L184.41 187.852H187.308L177.925 181.5L193.793 186.057H195.862L185.1 181.5L183.582 179.981L196.966 184.4L187.032 178.462L189.929 179.981L187.032 173.767L195.172 176.805L194.207 174.734L189.929 172.939L189.239 169.349H193.103L197.794 172.939L194.207 167.416H197.794L192.275 162.859L200.278 162.168L195.448 160.926L199.45 158.854H195.448L191.585 158.44L188.136 160.235L186.066 163.963L187.032 165.206L183.582 166.173H177.925L176.132 167.968L172.268 169.349L175.028 172.939L170.612 174.734V176.805L166.059 174.734L162.472 178.6H155.435H152.813L148.95 182.605L143.845 181.638L136.256 180.119L129.633 181.638L127.426 178.6L119.837 181.638L116.939 178.6V174.044H114.318V169.625L113.352 167.277L111.834 168.52L111.144 166.587L108.385 164.93L106.591 166.587H105.625L103.004 166.173Z" fill="#775941"/>
<path fill-rule="evenodd" clip-rule="evenodd" d="M153.779 121.986V118.534L155.021 117.706L156.539 117.982L157.505 119.086L158.057 120.743V122.953V125.024L156.539 125.438L156.263 128.338H159.436L164.541 129.857L161.368 133.447L159.436 137.59L155.021 141.732L155.435 144.356L143.569 143.941L132.669 144.356L124.39 140.075L116.387 138.418L115.008 133.999L114.594 128.338H121.217L119.837 123.367L121.768 121.848L119.147 121.158L117.491 120.605L116.801 119.501L117.491 118.534L118.733 118.12L121.217 117.429L123.286 118.12L124.114 119.777V116.877H126.736L128.253 121.158L130.323 124.334L132.669 126.405L140.257 122.953L146.19 124.334L151.848 121.848L153.779 121.986Z" fill="#412B1A"/>
<path fill-rule="evenodd" clip-rule="evenodd" d="M156.539 125.438L155.021 124.334L153.779 123.781L152.951 124.334H151.848L152.399 123.229L153.779 121.986L151.848 121.848L146.19 124.334L140.257 122.953L132.669 126.405L130.323 124.334L128.253 121.158L126.736 116.877H124.114V119.777L124.39 121.572L124.942 122.124L123.424 122.262L121.768 121.848L119.837 123.367L121.217 128.338H114.594L115.008 133.999L116.387 138.418L124.39 140.075L132.669 144.356L143.569 143.941L155.435 144.356L155.021 141.732L159.436 137.59L161.368 133.447L164.541 129.857L159.436 128.338H156.263L156.539 125.438ZM134.324 129.857V131.514L133.91 132.066L132.807 133.723V137.59L135.014 139.661L137.084 140.904L139.568 141.732V139.661V137.59L141.085 138.418V140.904H142.879H144.535L146.88 137.59L146.19 131.514L145.225 129.857H142.879L140.257 131.514L138.05 129.857H134.324Z" fill="#CAAC94"/>
<path d="M117.491 118.534L116.801 119.501L117.491 120.605L119.147 121.158L121.768 121.848L123.424 122.262L124.942 122.124L124.39 121.572L124.114 119.777L123.286 118.12L121.217 117.429L118.733 118.12L117.491 118.534Z" fill="#181615"/>
<path d="M153.779 118.534V121.986L152.399 123.229L151.848 124.334H152.951L153.779 123.781L155.021 124.334L156.539 125.438L158.057 125.024V122.953V120.743L157.505 119.086L156.539 117.982L155.021 117.706L153.779 118.534Z" fill="#181615"/>
<path fill-rule="evenodd" clip-rule="evenodd" d="M134.324 131.514V129.857H138.05L140.257 131.514L142.879 129.857H145.225L146.19 131.514L146.88 137.59L144.535 140.904H142.879H141.085V138.418L139.568 137.59V139.661V141.732L137.084 140.904L135.014 139.661L132.807 137.59V133.723L133.91 132.066L134.324 131.514ZM135.566 135.933V134.414L134.324 135.104V136.761L135.566 138.418L137.084 137.59L135.566 135.933ZM143.569 134.552L142.879 133.723L144.397 134.414L145.225 135.518L144.949 137.037L143.845 137.59H142.741L143.569 136.485L143.845 135.518L143.569 134.552Z" fill="#1D1C1B"/>
<path d="M142.879 133.723L143.569 134.552L143.845 135.518L143.569 136.485L142.741 137.59H143.845L144.949 137.037L145.225 135.518L144.397 134.414L142.879 133.723Z" fill="#B8B1AC"/>
<path d="M135.566 134.414V135.933L137.084 137.59L135.566 138.418L134.324 136.761V135.104L135.566 134.414Z" fill="#A69D96"/>
<path d="M127.426 157.197L124.804 160.373L126.046 163.411L127.426 166.173H131.703L136.256 162.859L138.05 160.235L140.257 163.411L143.845 163.963L148.95 160.235L151.848 164.516L157.505 167.416L159.436 165.206H162.472H166.059L168.267 162.168L174.2 162.859H176.132L183.582 156.645L185.1 154.436L189.929 152.917L194.207 150.155L195.172 149.603L189.239 150.155L181.789 152.917H176.132L174.2 149.603L169.785 148.084L167.301 150.155L162.472 151.95L161.368 150.155H158.057L150.192 151.95H147.57H139.568L131.013 152.503L127.426 154.021V157.197Z" fill="#A08C7C"/>
<path d="M195.172 149.603L194.207 150.155L189.929 152.917L185.1 154.436L183.582 156.645L176.132 162.859H174.2L168.267 162.168L166.059 165.206H162.472H159.436L157.505 167.416L151.848 164.516L148.95 160.235L143.845 163.963L140.257 163.411L138.05 160.235L136.256 162.859L131.703 166.173H127.426H124.942L124.39 167.968L119.147 169.625H114.318V174.044H116.939V178.6L119.837 181.638L127.426 178.6L129.633 181.638L136.256 180.119L143.845 181.638L148.95 182.605L152.813 178.6H155.435H162.472L166.059 174.734L170.612 176.805V174.734L175.028 172.939L172.268 169.349L176.132 167.968L177.925 166.173H183.582L187.032 165.206L186.066 163.963L188.136 160.235L191.585 158.44L200.554 155.126V149.603L196.966 151.95L195.172 152.917V149.603Z" fill="#553720"/>
<path d="M182.065 135.794L181.651 138.418L182.341 139.108L183.858 139.523L186.066 139.108L187.308 136.899L188.55 134.414L188.825 131.928V129.581L189.239 128.2H188.55H187.584L186.618 129.166L185.514 130.685L184.41 131.928L182.754 133.447L182.41 134.621L182.065 135.794Z" fill="#3B322B"/>
<path d="M188.55 134.414L187.86 138.28H187.998L189.239 138.487L190.481 138.694L193.103 138.28L195.172 136.623L195.862 134.69V133.999V133.309V131.652L196.276 130.685L197.242 129.166L199.174 128.476L198.76 127.786L196.276 127.509L194.483 128.752L191.723 130.685L190.343 131.376L189.239 133.309L188.55 134.414Z" fill="#29211B"/>
<path d="M195.862 134.69L195.172 136.623L193.103 138.28L190.481 138.694L189.239 138.487L190.895 139.937L192.413 142.008L191.723 143.665L190.895 144.356L192.413 143.665L193.931 142.008L195.862 140.489L198.76 139.247L200.967 138.28L201.795 136.899L201.243 135.242L202.071 133.999L202.899 133.309L204.141 132.895L203.727 132.619L202.071 132.066L199.864 132.619L198.76 132.895L197.104 133.171L195.862 133.999V134.69Z" fill="#463E37"/>
<path d="M193.931 142.008L192.413 143.665L190.895 144.356L188.825 145.46L190.481 145.736L191.723 146.151L192.413 147.532L194.621 146.979H196.138L198.76 146.703L199.45 146.151L199.864 144.632L200.14 143.665L202.347 144.079L202.071 143.251L199.864 142.008L197.38 141.732L196.138 142.008H193.931Z" fill="#443C36"/>
<path d="M174.2 142.146V144.908H176.408L177.787 143.527L178.201 142.146L177.235 140.075L176.683 139.592L176.132 139.108V138.004L175.166 138.832L174.752 139.799H174.2V141.18V142.146Z" fill="#2F2C29"/>
<path d="M174.2 144.908V142.146V141.18H173.234L171.302 143.527L170.337 145.736L169.785 148.084L173.234 146.427H175.304L177.787 146.289H179.029L180.823 145.184L183.444 144.77L184.272 144.839L186.066 143.665L187.032 142.008L188.136 140.489L189.929 139.799L190.895 139.937L189.239 138.487L187.998 138.28H187.86L188.55 134.414L187.308 136.899L186.066 139.108L183.858 139.523L182.341 139.108L181.651 138.418L182.065 135.794L182.41 134.621L180.823 136.899L177.925 138.694L176.683 139.592L177.235 140.075L178.201 142.146L177.787 143.527L176.408 144.908H174.2Z" fill="#79614D"/>
<path d="M188.825 145.46L190.895 144.356L191.723 143.665L192.413 142.008L190.895 139.937L189.929 139.799L188.136 140.489L187.032 142.008L186.066 143.665L184.272 144.839L185.1 144.908L186.48 145.46H188.825Z" fill="#B3845F"/>
<path d="M188.825 145.46H186.48L185.1 144.908L184.272 144.839L183.444 144.77L180.823 145.184L179.029 146.289L179.719 146.979H180.823L182.754 147.255L184.134 147.532L185.1 148.222L185.928 149.05L189.239 150.155L190.895 148.498L192.413 147.532L191.723 146.151L190.481 145.736L188.825 145.46Z" fill="#9A673E"/>
<path d="M169.785 148.084L174.2 149.603L176.132 152.917H181.789L189.239 150.155L185.928 149.05L185.1 148.222L184.134 147.532L182.754 147.255L180.823 146.979H179.719L179.029 146.289H177.787L175.304 146.427H173.234L169.785 148.084Z" fill="#3B2F26"/>
<path d="M109.488 148.222V150.569L111.006 151.536L111.834 153.883L112.593 154.988L113.352 156.093L115.008 155.264L115.973 153.883L114.594 150.017L112.386 148.498L109.488 147.532L108.385 145.598L109.488 148.222Z" fill="#3B332C"/>
<path d="M101.072 141.594L100.612 144.356L102.314 145.322L103.004 146.703L106.867 150.846L109.488 150.569V148.222L108.385 145.598L106.591 143.665L104.107 142.284L101.072 141.594Z" fill="#322A24"/>
<path d="M96.1047 137.866L93.897 137.175H93.0002L92.5173 138.832L93.897 141.594V143.803L96.9325 144.908H100.52L100.612 144.356L101.072 141.594L100.244 140.351L97.4845 138.832L96.1047 137.866Z" fill="#36302C"/>
<path d="M96.9325 128.338L95.5528 132.204L96.5186 133.999L98.8642 135.38H100.244H101.624L100.52 133.999L101.072 132.619L101.624 130.685L100.52 129.857H98.3123L96.9325 128.338Z" fill="#816E60"/>
<path d="M91.2755 128.338L93.897 129.857L96.9325 128.338L98.3123 126.405L97.4845 123.367L96.5186 121.296L94.5179 121.71L92.5173 122.124L91.2755 123.367L90.7236 125.438L91.1441 127.648L91.2755 128.338Z" fill="#4B3D31"/>
<path d="M91.1441 127.648L90.7236 125.438L91.2755 123.367L92.5173 122.124L94.5179 121.71L94.449 120.605L92.5173 119.501L90.7236 118.81L87.6881 119.501L86.9982 121.296V124.195L88.102 126.405L91.1441 127.648Z" fill="#6D5847"/>
<path d="M91.2755 128.338L91.1441 127.648L88.102 126.405L86.1703 124.886L83.9627 126.129L83.5487 129.166L85.3424 131.376H87.6881H88.7229H89.7577L90.7236 130.133L91.2755 128.338Z" fill="#4E433A"/>
<path d="M109.488 150.569L106.867 150.846L107.143 152.226L106.867 156.093L106.039 159.269L107.143 159.683L106.591 161.064L104.107 162.306L103.004 166.173L105.625 166.587H106.591L108.385 164.93L111.144 166.587L111.834 168.52L113.352 167.277L112.386 164.93L112.593 164.27L114.594 157.888L115.973 153.883L115.008 155.264L113.352 156.093L112.593 154.988L111.834 153.883L111.006 151.536L109.488 150.569Z" fill="#221C17"/>
<path fill-rule="evenodd" clip-rule="evenodd" d="M100.244 135.38L99.8301 137.866H98.8642H96.1047L97.4845 138.832L100.244 140.351L101.072 141.594H103.831L104.797 140.904L107.281 140.351V136.623L104.383 132.204L101.072 127.648L98.3123 126.405L96.9325 128.338L98.3123 129.857H100.52L101.624 130.685L101.072 132.619L100.52 133.999L101.624 135.38H100.244Z" fill="#2D1604"/>
<path d="M93.897 129.857L91.2755 128.338L90.7236 130.133L89.7577 131.376H88.7229L88.102 132.619L88.7229 134.69L90.1717 136.623L92.1033 137.175H93.0002H93.897L96.1047 137.866H98.8642H99.8301L100.244 135.38H98.8642L96.5186 133.999L95.5528 132.204L96.9325 128.338L93.897 129.857Z" fill="#B3845F"/>
<path d="M107.281 136.623V140.351L104.797 140.904L103.831 141.594H101.072L104.107 142.284L106.591 143.665L108.385 145.598L109.488 147.532L112.386 148.498L114.594 150.017L115.973 153.883L114.594 157.888L112.593 164.27L112.386 164.93L113.352 167.277L114.318 169.625H119.147L124.39 167.968L124.942 166.173H127.426L126.046 163.411L124.804 160.373L123.148 157.197L121.768 154.021V151.95V150.431L121.217 147.808L119.699 145.598L116.387 143.251L114.318 141.732H111.834L107.281 136.623Z" fill="#3B291A"/>
<path fill-rule="evenodd" clip-rule="evenodd" d="M96.5186 121.296L97.4845 123.367L98.3123 126.405L101.072 127.648L104.383 132.204L107.281 136.623L111.834 141.732H114.318L116.387 143.251L119.699 145.598L121.217 147.808L121.768 150.431V151.95V154.021L123.148 157.197L124.804 160.373L127.426 157.197V154.021L131.013 152.503L139.568 151.95H147.57H150.192L158.057 150.155H161.368L162.472 151.95L167.301 150.155L169.785 148.084L170.337 145.736L171.302 143.527L173.234 141.18H174.2V139.799H174.752L175.166 138.832L176.132 138.004V139.108L176.683 139.592L177.925 138.694L180.823 136.899L182.41 134.621L182.754 133.447L184.41 131.928L185.514 130.685L186.618 129.166L187.584 128.2H188.55H189.239V124.334L180.823 129.857L187.584 122.262H183.582L186.48 116.463L182.754 117.706L187.308 113.149L182.065 114.115L187.308 109.006L177.787 113.149L187.308 106.107H173.786L177.235 101.412H169.785L176.132 93.541L164.541 96.9907L170.061 89.8127L162.472 91.7459L164.541 88.4319L155.435 89.8127L159.436 84.0133L154.814 86.913L152.399 91.7459L150.192 97.8216L148.95 91.7459L146.19 102.585L146.88 93.541L141.085 102.585V106.107L138.05 96.9907L137.084 106.107L135.566 99.0643V109.006L132.807 99.0643V106.107L130.668 96.9931L131.013 91.7459L127.426 95.0599L126.046 88.4319L121.768 93.541L116.801 82.0801L117.491 95.0599L111.834 85.8083L114.318 95.0599L107.281 88.4319L109.351 97.8216L92.1033 92.0221L102.314 101.412H94.5869L96.6566 107.073L91.2755 103.897L83.9627 101.412L95.5528 111.906L88.7229 108.592L81.893 107.073L83.9627 112.873L86.9982 115.082H81.893L80.5132 118.12L81.893 119.501L74.8562 118.81L81.893 124.886H77.8917L80.5132 128.338L73.7523 129.857L78.8575 134.414L72.2346 133.999L78.8575 137.59L72.2346 140.904L77.8917 141.732L74.8562 145.598L68.7852 146.703L70.1649 148.498L73.7523 150.569L78.8575 151.536L74.8562 154.988L70.1649 152.503L72.2346 157.888L76.098 159.269L71.2687 161.064L75.8222 162.859L85.3424 156.369L86.1703 159.269L89.7577 156.093L90.7236 160.649L99.8301 160.097L103.004 166.173L104.107 162.306L106.591 161.064L107.143 159.683L106.039 159.269L106.867 156.093L107.143 152.226L106.867 150.846L103.004 146.703L102.314 145.322L100.612 144.356L100.52 144.908H96.9325L93.897 143.803V141.594L92.5173 138.832L93.0002 137.175H92.1033L90.1717 136.623L88.7229 134.69L88.102 132.619L88.7229 131.376H87.6881H85.3424L83.5487 129.166L83.9627 126.129L86.1703 124.886L88.102 126.405L86.9982 124.195V121.296L87.6881 119.501L90.7236 118.81L92.5173 119.501L94.449 120.605L94.5179 121.71L96.5186 121.296ZM153.779 121.986V118.534L155.021 117.706L156.539 117.982L157.505 119.086L158.057 120.743V122.953V125.024L156.539 125.438L156.263 128.338H159.436L164.541 129.857L161.368 133.447L159.436 137.59L155.021 141.732L155.435 144.356L143.569 143.941L132.669 144.356L124.39 140.075L116.387 138.418L115.008 133.999L114.594 128.338H121.217L119.837 123.367L121.768 121.848L119.147 121.158L117.491 120.605L116.801 119.501L117.491 118.534L118.733 118.12L121.217 117.429L123.286 118.12L124.114 119.777V116.877H126.736L128.253 121.158L130.323 124.334L132.669 126.405L140.257 122.953L146.19 124.334L151.848 121.848L153.779 121.986Z" fill="#E1D5CC"/>
<path d="M153.779 121.986V118.534L155.021 117.706L156.539 117.982L157.505 119.086L158.057 120.743V122.953V125.024L156.539 125.438M153.779 121.986L152.399 123.229L151.848 124.334H152.951L153.779 123.781L155.021 124.334L156.539 125.438M153.779 121.986L151.848 121.848L146.19 124.334L140.257 122.953L132.669 126.405L130.323 124.334L128.253 121.158L126.736 116.877H124.114V119.777M156.539 125.438L156.263 128.338H159.436L164.541 129.857L161.368 133.447L159.436 137.59L155.021 141.732L155.435 144.356L143.569 143.941L132.669 144.356L124.39 140.075L116.387 138.418L115.008 133.999L114.594 128.338H121.217L119.837 123.367L121.768 121.848M124.114 119.777L123.286 118.12L121.217 117.429L118.733 118.12L117.491 118.534L116.801 119.501L117.491 120.605L119.147 121.158L121.768 121.848M124.114 119.777L124.39 121.572L124.942 122.124L123.424 122.262L121.768 121.848M91.2755 128.338L93.897 129.857L96.9325 128.338M91.2755 128.338L90.7236 125.438M91.2755 128.338L91.1441 127.648M91.2755 128.338L90.7236 130.133L89.7577 131.376H88.7229M90.7236 125.438L91.2755 123.367L92.5173 122.124L94.5179 121.71M90.7236 125.438L91.1441 127.648M98.3123 126.405L97.4845 123.367L96.5186 121.296L94.5179 121.71M98.3123 126.405L96.9325 128.338M98.3123 126.405L101.072 127.648L104.383 132.204L107.281 136.623M96.9325 128.338L95.5528 132.204L96.5186 133.999L98.8642 135.38H100.244M96.9325 128.338L98.3123 129.857H100.52L101.624 130.685L101.072 132.619L100.52 133.999L101.624 135.38H100.244M91.1441 127.648L88.102 126.405M88.102 126.405L86.9982 124.195V121.296L87.6881 119.501L90.7236 118.81L92.5173 119.501L94.449 120.605L94.5179 121.71M88.102 126.405L86.1703 124.886L83.9627 126.129L83.5487 129.166L85.3424 131.376H87.6881H88.7229M88.7229 131.376L88.102 132.619L88.7229 134.69L90.1717 136.623L92.1033 137.175H93.0002M96.1047 137.866L93.897 137.175H93.0002M96.1047 137.866H98.8642H99.8301L100.244 135.38M96.1047 137.866L97.4845 138.832L100.244 140.351L101.072 141.594M93.0002 137.175L92.5173 138.832L93.897 141.594V143.803L96.9325 144.908H100.52L100.612 144.356M101.072 141.594H103.831L104.797 140.904L107.281 140.351V136.623M101.072 141.594L100.612 144.356M101.072 141.594L104.107 142.284L106.591 143.665L108.385 145.598M107.281 136.623L111.834 141.732H114.318L116.387 143.251L119.699 145.598L121.217 147.808L121.768 150.431V151.95V154.021L123.148 157.197L124.804 160.373M100.612 144.356L102.314 145.322L103.004 146.703L106.867 150.846M106.867 150.846L109.488 150.569M106.867 150.846L107.143 152.226L106.867 156.093L106.039 159.269L107.143 159.683L106.591 161.064L104.107 162.306L103.004 166.173M109.488 150.569V148.222L108.385 145.598M109.488 150.569L111.006 151.536L111.834 153.883L112.593 154.988L113.352 156.093L115.008 155.264L115.973 153.883M108.385 145.598L109.488 147.532L112.386 148.498L114.594 150.017L115.973 153.883M115.973 153.883L114.594 157.888L112.593 164.27L112.386 164.93L113.352 167.277M124.804 160.373L127.426 157.197V154.021L131.013 152.503L139.568 151.95H147.57H150.192L158.057 150.155H161.368L162.472 151.95L167.301 150.155L169.785 148.084M124.804 160.373L126.046 163.411L127.426 166.173M169.785 148.084L174.2 149.603L176.132 152.917H181.789L189.239 150.155M169.785 148.084L173.234 146.427H175.304L177.787 146.289H179.029M169.785 148.084L170.337 145.736L171.302 143.527L173.234 141.18H174.2M189.239 150.155L195.172 149.603M189.239 150.155L190.895 148.498L192.413 147.532M189.239 150.155L185.928 149.05L185.1 148.222L184.134 147.532L182.754 147.255L180.823 146.979H179.719L179.029 146.289M195.172 149.603L194.207 150.155L189.929 152.917L185.1 154.436L183.582 156.645L176.132 162.859H174.2L168.267 162.168L166.059 165.206H162.472H159.436L157.505 167.416L151.848 164.516L148.95 160.235L143.845 163.963L140.257 163.411L138.05 160.235L136.256 162.859L131.703 166.173H127.426M195.172 149.603V152.917L196.966 151.95L200.554 149.603V155.126L191.585 158.44M127.426 166.173H124.942L124.39 167.968L119.147 169.625H114.318M114.318 169.625L113.352 167.277M114.318 169.625V174.044H116.939V178.6L119.837 181.638L127.426 178.6L129.633 181.638L136.256 180.119L143.845 181.638L148.95 182.605L152.813 178.6H155.435H162.472L166.059 174.734L170.612 176.805V174.734L175.028 172.939L172.268 169.349L176.132 167.968L177.925 166.173H183.582L187.032 165.206L186.066 163.963L188.136 160.235L191.585 158.44M103.004 166.173L105.625 166.587H106.591L108.385 164.93L111.144 166.587L111.834 168.52L113.352 167.277M103.004 166.173L99.8301 160.097L90.7236 160.649L89.7577 156.093L86.1703 159.269L85.3424 156.369L75.8222 162.859M191.585 158.44L195.448 158.854H199.45L195.448 160.926L200.278 162.168L192.275 162.859L197.794 167.416H194.207L197.794 172.939L193.103 169.349H189.239L189.929 172.939L194.207 174.734L195.172 176.805L187.032 173.767L189.929 179.981L187.032 178.462L196.966 184.4L183.582 179.981L185.1 181.5L195.862 186.057H193.793L177.925 181.5L187.308 187.852H184.41L189.929 189.647L188.136 192.27L183.858 192.823L187.584 197.241H184.41V200.555L174.476 197.241L183.858 204.008L172.268 202.903L174.476 205.803L184.41 208.84L188.825 211.74L175.994 208.15L172.268 208.84H170.199L176.408 212.707L188.136 217.54L174.476 218.092L185.1 219.197L188.136 220.854L167.301 215.883L168.129 218.782L182.065 224.306L161.644 221.682L167.301 227.206L161.644 226.377L163.714 231.624L155.711 228.586L157.229 233.972L147.018 237.562L152.124 234.662L142.327 237.562H138.602L146.466 230.934L132.669 234.386V237.562L131.703 234.386L131.013 230.658V234.938L127.426 231.348L126.046 235.491L124.942 229.277L121.906 234.386V229.277L120.803 232.315L119.837 228.172L117.767 233.281V238.805L114.318 231.348L113.352 235.491L111.144 231.348L109.351 234.386V229.277L104.383 236.595L103.004 226.929L100.244 232.315V225.41L97.6224 230.658L98.3123 224.03L96.6566 226.929L96.1047 218.368L94.5869 227.62L93.0692 222.511V218.368L91.2755 222.511V218.368L87.6881 221.268L88.102 215.745L85.3424 217.264H81.893L86.9982 212.431L88.7229 208.288L83.9627 213.673H80.5132L85.3424 209.393L88.102 205.526L81.893 207.322L85.3424 201.936H76.098L80.5132 199.727L83.5487 195.032H80.5132L74.8562 197.656L77.8917 191.442L78.8575 187.438L76.098 190.475L73.7523 191.442L76.098 184.538L81.893 177.772V176.667L76.098 179.981H74.8562L76.098 176.667L78.8575 173.077L83.5487 167.277L77.8917 168.52L73.7523 169.625L78.8575 163.411L73.7523 164.27L75.8222 162.859M189.239 128.2H188.55H187.584L186.618 129.166L185.514 130.685L184.41 131.928L182.754 133.447L182.41 134.621M189.239 128.2L188.825 129.581V131.928L188.55 134.414M189.239 128.2V124.334L180.823 129.857L187.584 122.262H183.582L186.48 116.463L182.754 117.706L187.308 113.149L182.065 114.115L187.308 109.006L177.787 113.149L187.308 106.107H173.786L177.235 101.412H169.785L176.132 93.541L164.541 96.9907L170.061 89.8127L162.472 91.7459L164.541 88.4319L155.435 89.8127L159.436 84.0133L154.814 86.913M188.55 134.414L187.308 136.899L186.066 139.108L183.858 139.523L182.341 139.108L181.651 138.418L182.065 135.794L182.41 134.621M188.55 134.414L187.86 138.28H187.998L189.239 138.487M188.55 134.414L189.239 133.309L190.343 131.376L191.723 130.685L194.483 128.752L196.276 127.509L198.76 127.786L199.174 128.476L197.242 129.166L196.276 130.685L195.862 131.652V133.309V133.999M195.862 133.999V134.69L195.172 136.623L193.103 138.28L190.481 138.694L189.239 138.487M195.862 133.999L197.104 133.171L198.76 132.895L199.864 132.619L202.071 132.066L203.727 132.619L204.141 132.895L202.899 133.309L202.071 133.999L201.243 135.242L201.795 136.899L200.967 138.28L198.76 139.247L195.862 140.489L193.931 142.008M193.931 142.008L192.413 143.665L190.895 144.356M193.931 142.008H196.138L197.38 141.732L199.864 142.008L202.071 143.251L202.347 144.079L200.14 143.665L199.864 144.632L199.45 146.151L198.76 146.703L196.138 146.979H194.621L192.413 147.532M190.895 144.356L188.825 145.46M190.895 144.356L191.723 143.665L192.413 142.008L190.895 139.937M188.825 145.46H186.48L185.1 144.908L184.272 144.839M188.825 145.46L190.481 145.736L191.723 146.151L192.413 147.532M179.029 146.289L180.823 145.184L183.444 144.77L184.272 144.839M189.239 138.487L190.895 139.937M190.895 139.937L189.929 139.799L188.136 140.489L187.032 142.008L186.066 143.665L184.272 144.839M174.2 141.18V142.146V144.908H176.408L177.787 143.527L178.201 142.146L177.235 140.075L176.683 139.592M174.2 141.18V139.799H174.752L175.166 138.832L176.132 138.004V139.108L176.683 139.592M176.683 139.592L177.925 138.694L180.823 136.899L182.41 134.621M75.8222 162.859L71.2687 161.064L76.098 159.269L72.2346 157.888L70.1649 152.503L74.8562 154.988L78.8575 151.536L73.7523 150.569L70.1649 148.498L68.7852 146.703L74.8562 145.598L77.8917 141.732L72.2346 140.904L78.8575 137.59L72.2346 133.999L78.8575 134.414L73.7523 129.857L80.5132 128.338L77.8917 124.886H81.893L74.8562 118.81L81.893 119.501L80.5132 118.12L81.893 115.082H86.9982L83.9627 112.873L81.893 107.073L88.7229 108.592L95.5528 111.906L83.9627 101.412L91.2755 103.897L96.6566 107.073L94.5869 101.412H102.314L92.1033 92.0221L109.351 97.8216L107.281 88.4319L114.318 95.0599L111.834 85.8083L117.491 95.0599L116.801 82.0801L121.768 93.541L126.046 88.4319L127.426 95.0599M127.426 95.0599L129.633 80.8373L131.703 85.8083L138.05 82.0801L140.257 89.8127L144.535 78.9042L145.225 85.8083L150.192 80.8373V89.8127L154.814 86.913M127.426 95.0599L131.013 91.7459L130.668 96.9931M130.323 102.24L130.668 96.9931M130.668 96.9931L132.807 106.107V99.0643L135.566 109.006V99.0643L137.084 106.107L138.05 96.9907L141.085 106.107V102.585M141.085 99.0643V102.585M141.085 102.585L146.88 93.541L146.19 102.585L148.95 91.7459L150.192 97.8216L152.399 91.7459L154.814 86.913M134.324 131.514V129.857H138.05L140.257 131.514L142.879 129.857H145.225L146.19 131.514L146.88 137.59L144.535 140.904H142.879H141.085V138.418L139.568 137.59V139.661V141.732L137.084 140.904L135.014 139.661L132.807 137.59V133.723L133.91 132.066L134.324 131.514ZM135.566 134.414V135.933L137.084 137.59L135.566 138.418L134.324 136.761V135.104L135.566 134.414ZM142.879 133.723L143.569 134.552L143.845 135.518L143.569 136.485L142.741 137.59H143.845L144.949 137.037L145.225 135.518L144.397 134.414L142.879 133.723Z" stroke="black" stroke-width="1.08285"/>
<path d="M34.4006 126.218L39.8566 112.75L46.3802 115.393L45.9765 117.469L55.2659 121.232L56.4211 119.461L62.9447 122.103L57.4887 135.571L50.9651 132.929L51.3688 130.852L42.0794 127.089L40.9242 128.861L34.4006 126.218Z" fill="#910000"/>
<path d="M54.5059 108.816C52.756 107.387 51.4834 105.928 50.6882 104.441C49.8998 102.945 49.5035 101.414 49.4993 99.8465C49.4945 98.3486 49.7836 96.8327 50.3668 95.2986C50.95 93.7646 51.8811 92.2147 53.1603 90.649C54.0428 89.5689 54.8721 88.6479 55.6483 87.8858C56.4244 87.1238 57.1546 86.4778 57.8389 85.9479C58.53 85.4095 59.1805 84.9637 59.7904 84.6103C60.4071 84.2485 61.0014 83.9312 61.5732 83.6585L67.3128 88.3478L64.2242 92.1281C63.2725 92.0626 62.4388 92.1773 61.7232 92.4722C61.0144 92.7587 60.4343 93.1783 59.9828 93.7309C59.5997 94.1997 59.319 94.7313 59.1407 95.3256C58.9691 95.9114 58.919 96.5197 58.9902 97.1503C59.0614 97.7809 59.2668 98.4094 59.6065 99.036C59.9379 99.6558 60.4301 100.232 61.0832 100.766C62.5317 101.949 63.8576 102.488 65.061 102.382C66.2712 102.268 67.3723 101.604 68.3642 100.39C68.6105 100.089 68.84 99.7735 69.0528 99.4448C69.2724 99.1076 69.4752 98.7568 69.6614 98.3923L68.1417 97.1507L66.1716 99.562L62.7304 96.7505L69.1127 88.9387L78.2809 96.4292C78.0168 97.3164 77.7059 98.2352 77.3483 99.1856C76.9891 100.121 76.5972 101.036 76.1726 101.932C75.7465 102.812 75.2762 103.636 74.7617 104.402C74.2556 105.175 73.7563 105.864 73.2637 106.466C72.4566 107.454 71.6124 108.342 70.7313 109.13C69.8501 109.918 68.9039 110.555 67.8924 111.041C66.8878 111.519 65.8459 111.854 64.7666 112.048C63.6788 112.234 62.5701 112.25 61.4403 112.095C60.309 111.924 59.1635 111.575 58.0038 111.046C56.8357 110.511 55.6697 109.767 54.5059 108.816Z" fill="#910000"/>
<path d="M90.932 82.2362C91.5587 81.8516 92.1173 81.439 92.608 80.9984C93.0931 80.5485 93.5151 80.0992 93.8741 79.6506C94.2423 79.1963 94.5502 78.7473 94.798 78.3035C95.0458 77.8597 95.2474 77.4442 95.4031 77.0569L97.7115 75.6404L102.054 82.7177L83.5733 94.0586L79.892 88.0595L81.4492 86.6282L76.2241 78.1133L74.2427 78.8535L70.5444 72.8267L89.0255 61.4858L93.3685 68.5631L91.143 69.9287C90.7237 69.907 90.2555 69.9089 89.7384 69.9344C89.2213 69.96 88.6723 70.0368 88.0913 70.165C87.5139 70.2783 86.9176 70.454 86.3025 70.6919C85.6817 70.9206 85.0534 71.23 84.4176 71.6202L86.7333 75.3939L90.3287 71.9507L93.3315 76.8439L88.6333 78.4902L90.932 82.2362Z" fill="#910000"/>
<path d="M117.349 71.2603C117.853 71.1361 118.312 70.962 118.724 70.7379C119.134 70.5033 119.505 70.245 119.836 69.9629C120.167 69.6808 120.455 69.3815 120.7 69.0651C120.956 68.746 121.169 68.4373 121.341 68.139L123.971 67.4911L125.957 75.5536L106.745 80.2866L105.062 73.4524L106.98 72.5621L104.583 62.8304L102.47 62.9333L100.787 56.0991L114.896 52.6231L116.58 59.4573L114.661 60.3476L117.349 71.2603Z" fill="#910000"/>
<path d="M162.606 56.2961C162.048 56.6152 161.499 56.9623 160.957 57.3374C160.415 57.7126 159.893 58.1009 159.392 58.5023C158.891 58.9037 158.411 59.3075 157.953 59.7137C157.505 60.121 157.092 60.5158 156.712 60.8981C156.249 61.3472 155.808 61.7934 155.389 62.2366C154.97 62.6797 154.567 63.13 154.179 63.5875C154.562 64.2607 154.94 64.9172 155.316 65.557C155.703 66.1873 156.09 66.8175 156.477 67.4478C156.8 67.973 157.137 68.5161 157.488 69.0771C157.851 69.6285 158.216 70.1692 158.581 70.6992C158.947 71.2291 159.305 71.731 159.655 72.2049C160.017 72.6692 160.358 73.0767 160.678 73.4276L160.289 77.0886L147.522 75.6761L144.104 64.8388L142.961 75.1714L130.581 73.8018L131.355 66.8059L133.463 66.6311L134.565 56.6693L132.546 56.038L133.32 49.0421L145.7 50.4117L144.601 60.3414L150.262 50.9164L163.028 52.3289L162.606 56.2961Z" fill="#910000"/>
<path d="M176.212 84.8152C175.06 84.1717 173.986 83.4784 172.989 82.7355C172.002 81.9979 171.145 81.1718 170.417 80.2574C169.699 79.3482 169.122 78.3753 168.685 77.3388C168.254 76.2927 167.998 75.1894 167.916 74.0288C167.839 72.8587 167.953 71.6345 168.259 70.3562C168.58 69.0738 169.128 67.7389 169.903 66.3515C170.631 65.0491 171.439 63.9585 172.326 63.0797C173.214 62.2009 174.158 61.5086 175.159 61.0029C176.16 60.4972 177.206 60.1654 178.298 60.0076C179.399 59.855 180.519 59.8558 181.659 60.0099C182.814 60.1599 183.98 60.4459 185.156 60.8679C186.341 61.2953 187.519 61.836 188.69 62.4901C189.86 63.1442 190.938 63.8642 191.923 64.6501C192.908 65.4361 193.767 66.2816 194.5 67.1866C195.232 68.0916 195.817 69.0503 196.255 70.0627C196.702 71.0804 196.972 72.1481 197.066 73.2657C197.16 74.3833 197.065 75.5503 196.781 76.7667C196.503 77.9736 196 79.2283 195.272 80.5307C194.132 82.5693 192.819 84.1328 191.331 85.2211C189.858 86.3053 188.287 86.988 186.619 87.2694C184.951 87.5507 183.237 87.4597 181.477 86.9963C179.722 86.5234 177.967 85.7964 176.212 84.8152ZM185.074 68.9597C184.47 68.6221 183.915 68.4175 183.41 68.3458C182.92 68.27 182.467 68.283 182.051 68.3848C181.644 68.492 181.28 68.6664 180.959 68.9082C180.638 69.1499 180.348 69.4149 180.088 69.703C179.837 69.9964 179.62 70.2962 179.436 70.6023C179.253 70.9085 179.095 71.1796 178.963 71.4155C178.831 71.6515 178.683 71.9278 178.519 72.2445C178.354 72.5612 178.21 72.908 178.086 73.2846C177.977 73.6572 177.901 74.0481 177.858 74.4576C177.814 74.867 177.851 75.2777 177.968 75.6897C178.099 76.0975 178.323 76.495 178.639 76.8823C178.965 77.2748 179.429 77.6399 180.033 77.9775C180.637 78.3151 181.187 78.5171 181.683 78.5835C182.188 78.6552 182.648 78.6401 183.064 78.5382C183.486 78.4269 183.859 78.2457 184.186 77.9945C184.521 77.7486 184.814 77.4789 185.065 77.1855C185.321 76.8827 185.541 76.5782 185.724 76.272C185.917 75.9711 186.08 75.7027 186.212 75.4667C186.343 75.2308 186.487 74.9518 186.642 74.6298C186.807 74.3131 186.948 73.9711 187.067 73.6039C187.186 73.2366 187.259 72.8503 187.287 72.4451C187.325 72.045 187.278 71.6411 187.147 71.2333C187.016 70.8255 186.785 70.4301 186.454 70.047C186.138 69.6597 185.678 69.2973 185.074 68.9597Z" fill="#910000"/>
<path d="M226.037 95.3786L219.69 100.732L217.933 98.6498C217.997 98.3559 218.047 98.0379 218.084 97.6958C218.12 97.3536 218.119 97.0082 218.079 96.6596C218.048 96.304 217.967 95.9556 217.834 95.6145C217.71 95.2664 217.52 94.9394 217.262 94.6336L208.671 101.88L209.699 103.728L204.319 108.266L194.95 97.159L200.33 92.6208L201.978 93.9462L210.569 86.6997C210.311 86.3939 210.021 86.1506 209.699 85.9698C209.385 85.782 209.055 85.6428 208.71 85.5521C208.373 85.4545 208.033 85.3949 207.69 85.3734C207.346 85.3519 207.024 85.3476 206.724 85.3605L204.967 83.2778L211.314 77.924L226.037 95.3786Z" fill="#910000"/>
<path d="M241.266 126.293L233.562 129.39L232.546 126.862C232.698 126.602 232.845 126.316 232.987 126.002C233.129 125.689 233.236 125.361 233.308 125.017C233.389 124.67 233.421 124.313 233.402 123.948C233.394 123.578 233.315 123.208 233.165 122.837L222.737 127.028L223.135 129.106L216.604 131.73L211.185 118.247L217.716 115.622L218.866 117.397L229.295 113.206C229.146 112.835 228.946 112.513 228.697 112.241C228.458 111.964 228.188 111.728 227.889 111.534C227.599 111.336 227.295 111.173 226.975 111.045C226.656 110.917 226.352 110.812 226.062 110.73L225.046 108.202L232.751 105.105L241.266 126.293Z" fill="#910000"/>
</svg>
