<svg width="89" height="88" viewBox="0 0 89 88" fill="none" xmlns="http://www.w3.org/2000/svg">
<circle cx="44.5195" cy="44" r="44" fill="#D9D9D9"/>
<circle cx="44.5195" cy="44" r="37.0976" fill="white" stroke="#023B27" stroke-width="3.80488"/>
<path d="M20.1049 31.9512V31.9512C20.1049 30.2001 21.5245 28.7805 23.2756 28.7805H32.125C32.9395 28.7805 33.7044 28.3894 34.1813 27.7291L35.6455 25.7018C36.8377 24.051 38.7501 23.0732 40.7864 23.0732H48.5697C50.606 23.0732 52.5184 24.051 53.7106 25.7018L55.1748 27.7291C55.6517 28.3894 56.4166 28.7805 57.2311 28.7805H66.3976C68.1487 28.7805 69.5683 30.2001 69.5683 31.9512V31.9512V55.2566C69.5683 57.0287 69.1557 58.7764 68.3632 60.3614L68.3 60.4878H21.6903V60.4878C20.6542 58.8302 20.1049 56.9147 20.1049 54.96V31.9512Z" fill="#023B27"/>
<circle cx="44.5195" cy="44" r="9.51219" stroke="#F6F5EF" stroke-width="3.17073"/>
<circle cx="62.9097" cy="33.8537" r="1.58537" fill="#D9D9D9"/>
</svg>
