<svg width="74" height="76" viewBox="0 0 74 76" fill="none" xmlns="http://www.w3.org/2000/svg">
<path fill-rule="evenodd" clip-rule="evenodd" d="M64.6512 38.0052V38.0052L64.6835 38.2813L64.7803 38.5595L64.9409 38.8417L65.1645 39.1297L65.4494 39.4256L65.7937 39.731L66.1946 40.0477L66.6486 40.3771L67.1511 40.7206L67.6968 41.0791L68.2788 41.4533L68.8891 41.8434L69.5182 42.2492L70.1554 42.6698L70.7883 43.1038L71.4036 43.5489L71.9868 44.0022L72.5228 44.4603L72.9966 44.9188L73.3934 45.3729L73.6996 45.8175L73.9034 46.2472L73.9953 46.6567L73.9691 47.0409L73.8218 47.3955L73.5543 47.717L73.1711 48.0026L72.6802 48.2511L72.0928 48.4624L71.4227 48.6374L70.6856 48.7785L69.8983 48.889L69.078 48.9732L68.242 49.0358L67.4068 49.0823L66.5878 49.1185L65.7993 49.1504L65.0543 49.184L64.3642 49.2255L63.7395 49.2812L63.1896 49.3574L62.7233 49.4606L62.3491 49.5976L62.0757 49.7759L61.9122 50.0037L61.8634 50.2873L61.9186 50.6257L62.0662 51.0169L62.295 51.4585L62.5944 51.9482L62.9539 52.483L63.3626 53.0593L63.8088 53.6725L64.2805 54.3172L64.7647 54.9868L65.2475 55.6737L65.7149 56.369L66.1521 57.063L66.5448 57.745L66.8791 58.4041L67.1421 59.0291L67.3229 59.6094L67.4126 60.1351L67.4049 60.5977L67.2967 60.9904L67.0879 61.3088L66.7815 61.5504L66.3834 61.7153L65.9021 61.8061L65.3479 61.8271L64.7328 61.7848L64.0693 61.6868L63.3704 61.5419L62.6488 61.3594L61.9164 61.1489L61.1843 60.9199L60.4622 60.6814L59.7585 60.4419L59.0804 60.2092L58.4336 59.9904L57.8227 59.7917L57.2512 59.6186L56.7213 59.476L56.2349 59.3679L55.7926 59.2981L55.3949 59.2694L55.0414 59.2846L54.7316 59.3458L54.4644 59.4551L54.2386 59.6141L54.0528 59.8239L53.9051 60.0857L53.7937 60.4003L53.7164 60.7678L53.6706 61.1882L53.6537 61.6609L53.6625 62.1846L53.6935 62.7572L53.743 63.3759L53.8065 64.0367L53.8792 64.7344L53.9559 65.4625L54.0306 66.2132L54.0972 66.9769L54.1492 67.7429L54.1799 68.499L54.1825 69.2318L54.1505 69.9272L54.078 70.5705L53.9598 71.1473L53.7916 71.644L53.5706 72.0484L53.2955 72.3503L52.9666 72.5425L52.586 72.6206L52.1574 72.5839L51.6858 72.4353L51.1778 72.1809L50.6405 71.8302L50.0817 71.3952L49.5095 70.8901L48.9318 70.3304L48.3558 69.7324L47.7883 69.1126L47.2352 68.4872L46.7014 67.8718L46.1908 67.281L45.7067 66.7285L45.251 66.227L44.8254 65.7883L44.4305 65.4237L44.0668 65.144L43.734 64.9603L43.4316 64.8842L43.1591 64.9281L42.9133 65.0954L42.6882 65.3759L42.4783 65.7592L42.2784 66.2352L42.084 66.7942L41.891 67.4258L41.6953 68.1191L41.4934 68.8618L41.282 69.6409L41.0583 70.4416L40.8198 71.2481L40.5647 72.0436L40.2916 72.8104L39.9999 73.5305L39.6898 74.1864L39.3622 74.7614L39.0186 75.2406L38.6615 75.6116L38.2936 75.8651L37.9183 75.9952L37.5392 76L37.16 75.8812L36.7843 75.6445L36.4153 75.2987L36.0559 74.8553L35.7084 74.328L35.3746 73.7319L35.0555 73.0825L34.7516 72.3957L34.4627 71.6866L34.1883 70.9694L33.9272 70.2571L33.678 69.5613L33.439 68.892L33.2082 68.2579L32.9836 67.6661L32.763 67.1223L32.5441 66.6312L32.3248 66.1965L32.1027 65.8207L31.8757 65.506L31.6415 65.2535L31.3981 65.0641L31.1434 64.9381L30.8752 64.8755L30.5918 64.8757L30.2912 64.9381L29.9718 65.0614L29.6318 65.244L29.2699 65.4838L28.885 65.778L28.4762 66.1233L28.043 66.5156L27.5854 66.9496L27.1039 67.4193L26.5997 67.9174L26.0747 68.4354L25.5317 68.9634L24.9745 69.4905L24.4075 70.0046L23.8364 70.4925L23.2676 70.9406L22.7082 71.3349L22.1661 71.6618L21.6492 71.9084L21.1656 72.0633L20.7228 72.1173L20.3278 72.0637L19.9861 71.8989L19.702 71.6228L19.4779 71.2385L19.3143 70.7527L19.21 70.1749L19.1616 69.5173L19.1643 68.7938L19.2116 68.0198L19.2962 67.2112L19.4097 66.384L19.5434 65.5534L19.6882 64.734L19.8351 63.939L19.9752 63.1803L20.0998 62.4686L20.2004 61.8132L20.2687 61.2224L20.2964 60.7036L20.2753 60.2637L20.1963 59.9096L20.0502 59.6481L19.8268 59.4862L19.5245 59.4198L19.1479 59.4375L18.7017 59.5286L18.1906 59.6832L17.6194 59.8914L16.9938 60.1436L16.3202 60.4297L15.6059 60.7392L14.8596 61.0613L14.0911 61.3844L13.3117 61.6967L12.5336 61.9862L11.7699 62.2408L11.0344 62.4491L10.3407 62.6004L9.7024 62.6855L9.13166 62.6968L8.63921 62.6288L8.23359 62.4787L7.92078 62.246L7.70388 61.933L7.58302 61.5441L7.55541 61.0862L7.61559 60.5677L7.75578 59.9984L7.9664 59.3886L8.23653 58.7492L8.55448 58.0906L8.90825 57.4229L9.28601 56.7552L9.67639 56.0956L10.0688 55.4511L10.4535 54.8275L10.8219 54.2294L11.1662 53.6605L11.4799 53.1233L11.7574 52.6195L11.9937 52.1501L12.1849 51.7155L12.3276 51.3155L12.4191 50.9494L12.457 50.6164L12.4395 50.315L12.3652 50.044L12.2329 49.8016L12.0418 49.5859L11.7914 49.395L11.4819 49.2268L11.1134 49.0789L10.6869 48.9489L10.204 48.8341L9.66701 48.7318L9.07904 48.6388L8.44436 48.552L7.7684 48.4679L7.0579 48.3828L6.32108 48.2928L5.56764 48.1941L4.80882 48.0826L4.05731 47.9545L3.32705 47.806L2.63293 47.6336L1.99041 47.4345L1.4149 47.2063L0.921236 46.9475L0.522875 46.6577L0.23126 46.3371L0.0551342 45.9873L0 45.6107L0.0677378 45.2106L0.256431 44.7912L0.560421 44.357L0.970574 43.9131L1.47476 43.4645L2.05843 43.0159L2.70535 42.5719L3.39826 42.1364L4.11957 41.7127L4.8519 41.3032L5.57853 40.9098L6.28375 40.5334L6.95297 40.1743L7.57277 39.8321L8.13084 39.5061L8.61571 39.1945L9.01655 38.8957L9.32272 38.6071L9.52339 38.326L9.60696 38.0491L9.5633 37.7729L9.39862 37.4935L9.12485 37.2076L8.75302 36.9123L8.29375 36.605L7.75779 36.2838L7.15636 35.9469L6.50148 35.5933L5.80621 35.2224L5.08474 34.8343L4.35246 34.4297L3.62578 34.0103L2.92191 33.5782L2.25844 33.1366L1.65279 32.689L1.12162 32.2399L0.680068 31.7939L0.341117 31.3561L0.114911 30.9315L0.00825555 30.5247L0.0242756 30.1402L0.162292 29.7816L0.417925 29.4515L0.783409 29.1518L1.2481 28.8831L1.79909 28.6453L2.42193 28.4372L3.1013 28.2566L3.8217 28.1008L4.56801 27.9665L5.32594 27.8502L6.08238 27.7479L6.82562 27.6555L7.54547 27.5693L8.23324 27.4852L8.88172 27.3997L9.48507 27.309L10.0387 27.21L10.5391 27.0996L10.9838 26.9747L11.3708 26.8328L11.6993 26.6713L11.9685 26.4879L12.1784 26.2803L12.3294 26.0466L12.4221 25.7849L12.4575 25.4933L12.4371 25.1705L12.3624 24.8151L12.2358 24.426L12.0597 24.0024L11.8373 23.5441L11.5725 23.0512L11.2698 22.5245L10.9345 21.9655L10.573 21.3763L10.1926 20.7604L9.80165 20.122L9.40951 19.4665L9.02653 18.8005L8.66385 18.1319L8.33319 17.4693L8.04654 16.8227L7.81573 16.2023L7.65198 15.619L7.56538 15.0832L7.56431 14.605L7.65504 14.1933L7.84122 13.8555L8.12367 13.5969L8.50024 13.4204L8.96584 13.3264L9.51272 13.313L10.1308 13.3752L10.8082 13.5064L11.5319 13.6977L12.2881 13.9388L13.0631 14.2184L13.8435 14.5247L14.6167 14.8457L15.3712 15.1694L16.0967 15.4841L16.7841 15.7789L17.4258 16.0429L18.0149 16.2662L18.5457 16.4389L19.0131 16.5513L19.4123 16.5935L19.7388 16.5551L19.9878 16.4248L20.1576 16.1944L20.2568 15.869L20.2954 15.4558L20.2823 14.9614L20.226 14.3927L20.1348 13.757L20.017 13.0623L19.8809 12.3175L19.7352 11.5329L19.5888 10.7198L19.4506 9.89131L19.3296 9.06137L19.2349 8.24513L19.1748 7.45839L19.1572 6.71712L19.1887 6.03689L19.2748 5.43223L19.4192 4.91594L19.624 4.49846L19.8892 4.18737L20.2129 3.987L20.5915 3.89823L21.0197 3.91854L21.4911 4.04221L21.9983 4.26074L22.5333 4.56336L23.088 4.93765L23.6546 5.37012L24.2257 5.84688L24.7947 6.35407L25.3556 6.87839L25.9035 7.40738L26.4346 7.92966L26.9456 8.43505L27.4345 8.91464L27.8999 9.36077L28.3409 9.76693L28.7574 10.1277L29.1499 10.4386L29.519 10.6961L29.8658 10.8971L30.1916 11.0395L30.498 11.1214L30.7867 11.1416L31.0595 11.0991L31.3183 10.9933L31.5651 10.8241L31.8019 10.5916L32.031 10.2966L32.2544 9.94008L32.4744 9.52387L32.6932 9.0504L32.913 8.52296L33.1361 7.94585L33.3647 7.32448L33.6008 6.66557L33.8466 5.9772L34.1037 5.26898L34.3738 4.55199L34.6579 3.83879L34.957 3.14325L35.2713 2.48029L35.6006 1.8655L35.9438 1.31462L36.2996 0.842953L36.6659 0.464666L37.0398 0.192079L37.4182 0.0349738L37.7978 0L38.1747 0.0902236L38.5453 0.304876L38.9062 0.639332L39.2544 1.08531L39.5873 1.6313L39.9031 2.26312L40.2007 2.96465L40.4797 3.71851L40.7404 4.5068L40.9841 5.31171L41.2122 6.11605L41.4272 6.90363L41.6318 7.65945L41.8291 8.36983L42.0226 9.02231L42.2161 9.60557L42.4137 10.1091L42.62 10.523L42.8397 10.8373L43.0782 11.0419L43.3417 11.1258L43.6344 11.0865L43.9574 10.9358L44.3113 10.6855L44.6963 10.3467L45.1121 9.93044L45.5583 9.4477L46.0336 8.91013L46.5361 8.33011L47.0629 7.721L47.6103 7.09715L48.1738 6.47383L48.7478 5.86709L49.3257 5.29338L49.9005 4.76914L50.4644 4.31022L51.0094 3.93126L51.5276 3.64505L52.0115 3.46187L52.4545 3.38904L52.8508 3.4305L53.1965 3.58662L53.4888 3.85427L53.727 4.227L53.9118 4.69554L54.0456 5.24827L54.1321 5.87193L54.1764 6.55228L54.1841 7.27472L54.1616 8.02489L54.1157 8.78913L54.053 9.55485L53.9802 10.3107L53.9035 11.047L53.8289 11.7551L53.7619 12.4283L53.7075 13.0609L53.6701 13.6486L53.6538 14.1881L53.6622 14.6772L53.6985 15.1144L53.7655 15.4988L53.8658 15.8302L54.0017 16.1087L54.1752 16.335L54.388 16.5101L54.6419 16.635L54.938 16.7114L55.2775 16.741L55.6611 16.726L56.0892 16.669L56.5616 16.5727L57.0778 16.4407L57.6363 16.2768L58.235 16.0858L58.8707 15.8727L59.5394 15.6437L60.2357 15.4055L60.9528 15.1658L61.6827 14.9328L62.4162 14.7154L63.1424 14.523L63.8499 14.3651L64.5261 14.2512L65.158 14.1902L65.7329 14.1903L66.2387 14.2582L66.6643 14.3992L67.0006 14.6163L67.241 14.9103L67.3814 15.2797L67.4209 15.7207L67.3617 16.2271L67.2091 16.791L66.9712 17.4029L66.6583 18.0524L66.2827 18.7283L65.8581 19.4196L65.3988 20.1156L64.9193 20.8062L64.434 21.4822L63.9569 22.1356L63.5012 22.7595L63.0793 23.3481L62.7029 23.8965L62.3832 24.4009L62.1307 24.8582L61.9562 25.2656L61.8703 25.6211L61.8846 25.9224L62.0112 26.1676L62.2506 26.3608L62.5937 26.5102L63.0316 26.6234L63.5558 26.7074L64.1577 26.7689L64.828 26.8143L65.5567 26.8498L66.3327 26.8815L67.1434 26.9157L67.9751 26.9583L68.8126 27.0152L69.6397 27.0919L70.4394 27.1935L71.1944 27.3245L71.8876 27.4884L72.5029 27.6879L73.0259 27.9245L73.4445 28.1984L73.7495 28.5087L73.9354 28.8531L74 29.2283L73.9452 29.6303L73.7761 30.0541L73.5014 30.4945L73.132 30.9462L72.6812 31.4038L72.1634 31.8625L71.5936 32.3178L70.9869 32.7659L70.3581 33.2037L69.7209 33.6287L69.0879 34.0394L68.4705 34.4345L67.8786 34.8138L67.3206 35.1772L66.8036 35.5254L66.3336 35.8592L65.9154 36.1798L65.5528 36.4886L65.2487 36.7873L65.0054 37.0777L64.8246 37.3615L64.7074 37.6407L64.6545 37.9173L64.6512 38.0052Z" fill="#888888"/>
</svg>
