<svg width="76" height="76" viewBox="0 0 76 76" fill="none" xmlns="http://www.w3.org/2000/svg">
<path fill-rule="evenodd" clip-rule="evenodd" d="M76 37.8804L74.5611 38.2484L73.2808 38.5908L72.1411 38.9118L71.127 39.2153L70.2255 39.5042L69.4252 39.7814L68.7167 40.0494L68.0915 40.3102L67.5423 40.5658L67.0628 40.8178L66.6473 41.0678L66.291 41.3171L65.9896 41.5671L65.739 41.8188L65.536 42.0735L65.3774 42.332L65.2604 42.5954L65.1824 42.8644L65.1412 43.1399L65.1346 43.4227L65.1605 43.7135L65.217 44.0129L65.3024 44.3216L65.4148 44.64L65.5525 44.9688L65.7139 45.3083L65.897 45.659L66.1004 46.0211L66.322 46.3948L66.5601 46.7804L66.8128 47.1778L67.0782 47.5871L67.3542 48.0081L67.6386 48.4405L67.9292 48.884L68.2238 49.3381L68.52 49.8022L68.8153 50.2756L69.1072 50.7572L69.3932 51.2463L69.6708 51.7415L69.9374 52.2418L70.1904 52.7456L70.4273 53.2517L70.6458 53.7583L70.8436 54.264L71.0184 54.767L71.1684 55.2657L71.2918 55.7584L71.387 56.2434L71.4529 56.7192L71.4883 57.1843L71.4927 57.6371L71.4657 58.0765L71.4072 58.5013L71.3176 58.9106L71.1975 59.3036L71.0477 59.6798L70.8696 60.0388L70.6646 60.3807L70.4344 60.7055L70.1811 61.0136L69.9068 61.3057L69.6138 61.5826L69.3046 61.8453L68.9817 62.0952L68.6478 62.3336L68.3054 62.5623L67.9573 62.783L67.6061 62.9978L67.2544 63.2086L66.9047 63.4178L66.5595 63.6276L66.2213 63.8406L65.8923 64.0594L65.5748 64.2865L65.271 64.5249L64.983 64.7775L64.7127 65.0472L64.4597 65.3348L64.2211 65.6383L63.9938 65.9558L63.7752 66.2849L63.5625 66.6236L63.3532 66.9694L63.1447 67.3199L62.9347 67.6727L62.7211 68.0251L62.5016 68.3747L62.2743 68.7187L62.0375 69.0545L61.7893 69.3793L61.5285 69.6907L61.2537 69.986L60.9637 70.2628L60.6579 70.5187L60.3354 70.7515L59.996 70.9592L59.6395 71.1401L59.2658 71.2926L58.8754 71.4156L58.4687 71.5079L58.0464 71.5691L57.6095 71.5987L57.1591 71.5968L56.6965 71.5637L56.223 71.5L55.7401 71.4068L55.2495 71.2852L54.7528 71.1368L54.2517 70.9633L53.7477 70.7667L53.2427 70.5491L52.7382 70.3128L52.2357 70.0602L51.7367 69.7938L51.2425 69.5161L50.7545 69.2298L50.2737 68.9373L49.8012 68.6412L49.3378 68.3441L48.8843 68.0483L48.4413 67.7564L48.0094 67.4705L47.5888 67.1929L47.1798 66.9258L46.7827 66.6712L46.3974 66.4311L46.0239 66.2073L45.6621 66.0019L45.3116 65.8164L44.9723 65.6528L44.6437 65.5127L44.3255 65.3978L44.017 65.31L43.7178 65.2509L43.4273 65.2223L43.1448 65.2263L42.8696 65.2648L42.6009 65.34L42.338 65.4542L42.0799 65.6099L41.8258 65.8099L41.5746 66.0573L41.3253 66.3555L41.0768 66.7084L40.8277 67.1203L40.5767 67.596L40.3223 68.1411L40.0628 68.762L39.7963 69.4658L39.5207 70.2609L39.2337 71.1569L38.9325 72.1647L38.614 73.2974L38.2746 74.57L37.91 76L37.5411 74.7867L37.1979 73.4903L36.8764 72.3364L36.5726 71.3096L36.2835 70.3966L36.0063 69.5861L35.7386 68.8683L35.4781 68.2348L35.223 67.678L34.9715 67.1916L34.7222 66.77L34.4737 66.408L34.2246 66.1013L33.9738 65.8461L33.7202 65.6387L33.4628 65.4761L33.2007 65.3555L32.933 65.2743L32.6589 65.2301L32.3776 65.2208L32.0884 65.2442L31.7906 65.2986L31.4837 65.382L31.1671 65.4927L30.8402 65.6289L30.5026 65.7889L30.1539 65.9709L29.7939 66.1734L29.4223 66.3943L29.0389 66.6319L28.6436 66.8844L28.2366 67.1496L27.8178 67.4257L27.3876 67.7104L26.9464 68.0015L26.4945 68.2968L26.0327 68.5939L25.5615 68.8903L25.082 69.1835L24.5951 69.471L24.1018 69.7503L23.6035 70.0186L23.1014 70.2736L22.5971 70.5127L22.0921 70.7334L21.5879 70.9335L21.0862 71.1108L20.5886 71.2634L20.0969 71.3893L19.6128 71.4871L19.1377 71.5556L18.6732 71.5936L18.2208 71.6005L17.7816 71.5759L17.357 71.5197L16.9477 71.4323L16.5547 71.3142L16.1783 71.1663L15.819 70.9899L15.4769 70.7863L15.1518 70.5573L14.8433 70.305L14.5509 70.0314L14.2737 69.7389L14.0107 69.4299L13.7607 69.107L13.5221 68.7728L13.2934 68.4299L13.0728 68.0811L12.8584 67.7289L12.648 67.376L12.4394 67.0249L12.2304 66.6782L12.0184 66.3383L11.8009 66.0075L11.5752 65.688L11.3386 65.3821L11.0881 65.0918L10.8207 64.8192L10.5353 64.5641L10.2339 64.3237L9.91851 64.0949L9.59123 63.875L9.25431 63.6613L8.91009 63.4511L8.56095 63.242L8.20938 63.0316L7.8579 62.8176L7.50912 62.598L7.16567 62.3707L6.83021 62.1339L6.50539 61.8859L6.19382 61.6253L5.89808 61.3508L5.62064 61.0612L5.36383 60.7557L5.12985 60.4335L4.92071 60.0944L4.73819 59.7381L4.58384 59.3646L4.45891 58.9743L4.3644 58.5676L4.30095 58.1452L4.26891 57.708L4.26832 57.2572L4.29885 56.7941L4.3599 56.3199L4.45052 55.8362L4.56951 55.3446L4.71538 54.8468L4.88641 54.3443L5.08065 53.839L5.29599 53.3324L5.53016 52.8261L5.78076 52.3218L6.04533 51.8209L6.32132 51.3248L6.60619 50.8347L6.89737 50.3517L7.1923 49.877L7.4885 49.4114L7.7835 48.9557L8.07493 48.5104L8.36047 48.0762L8.63791 47.6534L8.9051 47.2422L9.15997 46.8429L9.40056 46.4554L9.62494 46.0798L9.83129 45.7159L10.0178 45.3634L10.1827 45.0222L10.3243 44.6917L10.4409 44.3716L10.5307 44.0614L10.5919 43.7606L10.6229 43.4685L10.6215 43.1845L10.586 42.9078L10.514 42.6378L10.4034 42.3736L10.2516 42.1144L10.0558 41.8592L9.81307 41.607L9.51995 41.3568L9.17267 41.1075L8.76696 40.8577L8.298 40.6061L7.76031 40.3512L7.14767 40.0914L6.45293 39.8247L5.66792 39.5491L4.78319 39.2622L3.78782 38.9613L2.66913 38.6433L1.4123 38.3046L0 37.941L0.980222 37.5692L2.28455 37.2231L3.44553 36.8989L4.47871 36.5929L5.39742 36.3019L6.21311 36.0229L6.93565 35.7536L7.57362 35.4918L8.13447 35.2355L8.62469 34.9831L9.05 34.7329L9.4154 34.4835L9.72534 34.2337L9.98374 33.9823L10.1941 33.7282L10.3596 33.4703L10.4831 33.2078L10.5671 32.9397L10.614 32.6653L10.626 32.3837L10.6052 32.0942L10.5534 31.7963L10.4725 31.4891L10.3642 31.1722L10.2304 30.8451L10.0727 30.5074L9.89293 30.1585L9.69272 29.7983L9.47388 29.4264L9.23825 29.0427L8.98772 28.6472L8.72423 28.2398L8.44983 27.8206L8.16663 27.39L7.87683 26.9482L7.58271 26.4958L7.28663 26.0332L6.99102 25.5613L6.69838 25.0809L6.41122 24.593L6.13212 24.0986L5.86364 23.5991L5.60831 23.0957L5.36865 22.5899L5.14706 22.0832L4.94586 21.5773L4.76722 21.0738L4.61314 20.5743L4.48541 20.0805L4.38561 19.5941L4.31502 19.1167L4.27469 18.6499L4.26532 18.195L4.28733 17.7534L4.34079 17.3262L4.42547 16.9144L4.5408 16.5188L4.6859 16.1399L4.85961 15.7781L5.06045 15.4335L5.28672 15.106L5.53649 14.7953L5.80761 14.5007L6.09778 14.2214L6.40458 13.9565L6.72546 13.7047L7.05782 13.4645L7.39901 13.2344L7.74638 13.0125L8.09729 12.797L8.44911 12.5857L8.7993 12.3764L9.14535 12.1668L9.48485 11.9545L9.81544 11.7369L10.1349 11.5112L10.441 11.2748L10.7316 11.0247L11.0049 10.7579L11.2604 10.4731L11.5012 10.1719L11.7301 9.85653L11.9499 9.52908L12.1633 9.19179L12.373 8.84697L12.5815 8.49703L12.791 8.14445L13.004 7.79175L13.2224 7.44156L13.4483 7.0965L13.6835 6.75924L13.9297 6.43245L14.1885 6.11875L14.461 5.82072L14.7485 5.54084L15.0517 5.28149L15.3715 5.04487L15.7082 4.83302L16.062 4.64774L16.4329 4.4906L16.8207 4.36289L17.2249 4.26561L17.6448 4.19946L18.0794 4.16481L18.5277 4.16171L18.9885 4.18987L19.4604 4.24871L19.9418 4.3373L20.4313 4.45445L20.9271 4.59869L21.4277 4.76832L21.9313 4.96139L22.4363 5.17581L22.941 5.4093L23.4439 5.65947L23.9436 5.92385L24.4386 6.1999L24.9277 6.48506L25.4097 6.77674L25.8836 7.0724L26.3485 7.36952L26.8036 7.66564L27.2483 7.95836L27.682 8.24536L28.1044 8.52441L28.5152 8.79333L28.9142 9.05007L29.3014 9.29263L29.6768 9.51909L30.0405 9.72759L30.3927 9.91633L30.7338 10.0836L31.0641 10.2275L31.3839 10.3465L31.6939 10.4388L31.9945 10.5026L32.2864 10.5361L32.5701 10.5374L32.8464 10.5046L33.1161 10.4354L33.3799 10.3276L33.6387 10.1787L33.8934 9.98592L34.1449 9.74629L34.3945 9.4564L34.6431 9.1125L34.892 8.71034L35.1426 8.24514L35.3963 7.71147L35.6549 7.10312L35.9201 6.41304L36.1941 5.63308L36.4791 4.7539L36.7778 3.76467L37.0933 2.6528L37.4292 1.40364L37.7895 0L38.1614 0.753423L38.5084 2.07408L38.8331 3.24957L39.1395 4.29571L39.4307 5.22602L39.7096 6.05213L39.9787 6.78407L40.2402 7.43053L40.4961 7.99906L40.748 8.49625L40.9975 8.9279L41.2461 9.29907L41.4951 9.61427L41.7455 9.87747L41.9986 10.0922L42.2553 10.2617L42.5166 10.3889L42.7833 10.4762L43.0564 10.5261L43.3365 10.5409L43.6244 10.5225L43.9207 10.473L44.2262 10.3941L44.5412 10.2876L44.8665 10.1554L45.2023 9.99903L45.5492 9.82034L45.9074 9.62106L46.2772 9.40295L46.6587 9.16785L47.0521 8.91765L47.4572 8.65429L47.8741 8.37982L48.3025 8.09635L48.742 7.80607L49.1922 7.51128L49.6525 7.21434L50.1222 6.91767L50.6005 6.62376L51.0863 6.33517L51.5787 6.05445L52.0763 5.78417L52.5778 5.5269L53.0819 5.28514L53.5869 5.06132L54.0914 4.85777L54.5936 4.67669L55.0919 4.52009L55.5846 4.38979L56.0701 4.28739L56.5468 4.21421L57.013 4.1713L57.4675 4.15941L57.9088 4.17897L58.3358 4.23009L58.7476 4.31256L59.1433 4.42584L59.5223 4.56906L59.8843 4.74108L60.2292 4.94044L60.557 5.16547L60.8681 5.41422L61.163 5.68458L61.4425 5.97424L61.7077 6.28077L61.9597 6.60163L62.2 6.93422L62.4301 7.27589L62.6519 7.62396L62.8672 7.97579L63.0781 8.32874L63.2868 8.68026L63.4956 9.02783L63.7069 9.36901L63.9234 9.70145L64.1476 10.0229L64.3823 10.3311L64.6304 10.624L64.8949 10.8995L65.1775 11.1572L65.4765 11.3998L65.7898 11.6302L66.1154 11.8513L66.4509 12.0659L66.7941 12.2765L67.1426 12.4856L67.494 12.6956L67.8456 12.9089L68.195 13.1275L68.5395 13.3534L68.8764 13.5886L69.2031 13.8347L69.517 14.0932L69.8154 14.3654L70.0959 14.6525L70.3562 14.9555L70.5939 15.2749L70.8071 15.6113L70.994 15.9649L71.1529 16.3356L71.2826 16.7233L71.382 17.1275L71.4505 17.5474L71.4875 17.9823L71.4931 18.431L71.4675 18.8923L71.4112 19.3648L71.3253 19.8471L71.2107 20.3375L71.069 20.8345L70.9018 21.3363L70.7112 21.8413L70.499 22.3478L70.2677 22.8542L70.0196 23.3589L69.7571 23.8605L69.4827 24.3575L69.1991 24.8486L68.9087 25.3328L68.6142 25.8089L68.3181 26.276L68.0227 26.7333L67.7306 27.1803L67.4439 27.6163L67.1651 28.041L66.8961 28.454L66.6391 28.8552L66.3961 29.2445L66.169 29.6221L65.9597 29.9878L65.7699 30.3421L65.6014 30.6851L65.456 31.0173L65.3354 31.339L65.2412 31.6507L65.1752 31.953L65.1394 32.2464L65.1354 32.5317L65.1654 32.8095L65.2314 33.0805L65.3357 33.3455L65.4808 33.6055L65.6694 33.8613L65.9044 34.1139L66.1893 34.3643L66.5276 34.6137L66.9237 34.8633L67.3823 35.1145L67.9086 35.3688L68.5089 35.6277L69.19 35.8932L69.96 36.1672L70.8282 36.4522L71.8052 36.7506L72.9033 37.0657L74.137 37.4008L75.5233 37.7602L76 37.8804Z" fill="#888888"/>
</svg>
