<svg width="76" height="76" viewBox="0 0 76 76" fill="none" xmlns="http://www.w3.org/2000/svg">
<path fill-rule="evenodd" clip-rule="evenodd" d="M76 37.9992L73.2903 38.3533L71.1545 38.6647L69.4779 38.9472L68.1762 39.2113L67.1862 39.4652L66.46 39.7154L65.9609 39.9672L65.66 40.2253L65.5346 40.4937L65.566 40.7757L65.7387 41.0747L66.0388 41.3931L66.4536 41.7333L66.9705 42.0972L67.5768 42.4859L68.2588 42.9003L69.0013 43.3401L69.7879 43.8043L70.6004 44.291L71.4191 44.7972L72.2232 45.3187L72.9914 45.8505L73.7024 46.3868L74.3364 46.921L74.8759 47.4463L75.3068 47.9563L75.6194 48.4448L75.8092 48.9069L75.8769 49.339L75.8289 49.7393L75.6766 50.1076L75.4361 50.4459L75.1268 50.758L74.7707 51.0495L74.3919 51.3275L74.0149 51.6007L73.6649 51.8789L73.3669 52.1729L73.1459 52.4951L73.0236 52.8573L72.9899 53.2586L73.0184 53.6906L73.083 54.1436L73.1587 54.6074L73.2214 55.0707L73.248 55.5219L73.2178 55.9492L73.1124 56.3411L72.9171 56.6869L72.6212 56.9775L72.2189 57.2056L71.7093 57.3668L71.0968 57.4591L70.3902 57.4836L69.6022 57.4442L68.7488 57.3474L67.848 57.2017L66.9187 57.0172L65.9799 56.8053L65.0499 56.5775L64.1456 56.3459L63.2823 56.122L62.4733 55.9172L61.7303 55.7423L61.0632 55.6075L60.4808 55.5231L59.9908 55.4989L59.6006 55.5453L59.3179 55.6734L59.1509 55.8954L59.109 56.2258L59.2043 56.6814L59.4515 57.2832L59.8699 58.0574L60.4847 59.0376L61.3291 60.2673L62.4477 61.804L63.9008 63.7248L63.794 64.1366L61.8418 62.6513L60.2802 61.5067L59.0304 60.6408L58.0337 60.008L57.2457 59.5743L56.6322 59.3138L56.1666 59.2069L55.8275 59.2383L55.5977 59.396L55.4629 59.6703L55.4104 60.0528L55.4294 60.5359L55.5093 61.1122L55.6402 61.7739L55.812 62.5124L56.0145 63.3179L56.2369 64.1787L56.4679 65.0818L56.696 66.0118L56.9094 66.9521L57.0961 67.8844L57.2451 68.7897L57.3459 69.6489L57.3901 70.444L57.3709 71.1588L57.2842 71.7802L57.1288 72.299L56.9062 72.7106L56.6208 73.0153L56.2797 73.2186L55.8917 73.3309L55.4675 73.3665L55.0185 73.3436L54.5564 73.2829L54.093 73.2072L53.6395 73.1407L53.2062 73.1084L52.8028 73.1362L52.4378 73.2507L52.1134 73.4649L51.818 73.7581L51.5395 74.1055L51.2667 74.4818L50.9898 74.8621L50.7002 75.2214L50.3904 75.5358L50.0549 75.783L49.6897 75.9431L49.2927 76L48.8638 75.9417L48.4047 75.7615L47.9189 75.4581L47.4112 75.0356L46.8877 74.5034L46.3549 73.8753L45.8194 73.1686L45.2879 72.403L44.7662 71.5997L44.2595 70.78L43.7719 69.9649L43.3066 69.1743L42.8655 68.4264L42.4498 67.7379L42.0596 67.1241L41.6944 66.5987L41.3529 66.1746L41.0334 65.8644L40.7335 65.6808L40.4506 65.6375L40.1817 65.75L39.9234 66.0366L39.6716 66.5198L39.4219 67.2278L39.169 68.1968L38.9064 69.4737L38.6261 71.1203L38.318 73.2192L37.9685 75.8825L37.6112 73.6022L37.2975 71.4218L37.0136 69.7093L36.7487 68.3781L36.4947 67.3636L36.2449 66.6167L35.9938 66.0997L35.7367 65.7834L35.4698 65.6445L35.1894 65.6641L34.8924 65.8263L34.5761 66.1173L34.2383 66.524L33.8769 67.0341L33.4908 67.6348L33.0792 68.3123L32.6421 69.0518L32.1805 69.8369L31.6963 70.6493L31.1923 71.4697L30.6727 72.277L30.1424 73.05L29.6071 73.7675L29.0734 74.4094L28.548 74.9579L28.0374 75.3986L27.5478 75.7214L27.0841 75.9213L26.6502 75.9987L26.2481 75.9595L25.8779 75.8148L25.5379 75.5802L25.2244 75.2751L24.932 74.9213L24.6536 74.5428L24.3808 74.1641L24.1039 73.8105L23.812 73.5069L23.4931 73.2785L23.1349 73.1479L22.737 73.1081L22.3078 73.1326L21.8569 73.1954L21.3943 73.2712L20.9313 73.3359L20.4794 73.3663L20.0504 73.3413L19.656 73.2423L19.3067 73.0542L19.012 72.7662L18.779 72.3718L18.6127 71.8699L18.5151 71.2643L18.4853 70.5636L18.5198 69.7803L18.6121 68.9301L18.7541 68.0309L18.9355 67.1016L19.1454 66.1614L19.372 65.2285L19.6033 64.3201L19.8279 63.4516L20.0342 62.6365L20.2117 61.8866L20.3498 61.212L20.4385 60.6216L20.4678 60.1232L20.4274 59.7242L20.3065 59.4321L20.0927 59.2552L19.7722 59.203L19.328 59.2869L18.7396 59.5218L17.9815 59.9264L17.0207 60.5254L15.8147 61.3514L14.3075 62.448L12.4238 63.8741L11.7086 64.0726L13.2218 62.0819L14.3892 60.4898L15.2739 59.2154L15.9228 58.1987L16.3706 57.3941L16.6437 56.7668L16.762 56.2894L16.7412 55.9404L16.5934 55.7021L16.3285 55.5599L15.955 55.5013L15.4804 55.5149L14.9122 55.5905L14.258 55.7179L13.5264 55.8871L12.7272 56.0878L11.8717 56.3094L10.973 56.5406L10.046 56.7697L9.1074 56.985L8.17531 57.1746L7.26866 57.3272L6.40649 57.4324L5.60698 57.4814L4.88642 57.4674L4.25821 57.3861L3.73188 57.2359L3.31242 57.0181L2.99983 56.7371L2.78906 56.3995L2.67023 56.0143L2.62918 55.5919L2.64815 55.1437L2.70655 54.6815L2.78179 54.217L2.84984 53.7616L2.88573 53.3256L2.86371 52.9188L2.75722 52.5499L2.5508 52.222L2.26339 51.9243L1.92001 51.6444L1.54567 51.3711L1.16544 51.0944L0.804153 50.8056L0.48583 50.4972L0.232942 50.1634L0.0654816 49.8L0 49.4049L0.0487177 48.9778L0.218821 48.5203L0.512054 48.0356L0.92466 47.5287L1.44771 47.0054L2.06776 46.4722L2.76777 45.9358L3.52818 45.4029L4.32799 44.8793L5.14581 44.3704L5.96065 43.8804L6.75265 43.4124L7.50335 42.9686L8.19597 42.5502L8.81527 42.1574L9.34733 41.7896L9.77922 41.4457L10.0984 41.124L10.2923 40.8222L10.3472 40.5376L10.2479 40.2673L9.9764 40.0078L9.51056 39.7552L8.82275 39.5051L7.87765 39.2523L6.62936 38.9903L5.01754 38.7113L2.96164 38.4054L0.352584 38.0592L2.19681 37.6982L4.41541 37.3811L6.15878 37.0947L7.51548 36.8283L8.55158 36.5732L9.31707 36.3229L9.8503 36.0716L10.1811 35.8148L10.3331 35.5483L10.3255 35.2686L10.1744 34.9726L9.89372 34.6575L9.49637 34.3208L8.99485 33.9608L8.40188 33.5761L7.73104 33.1658L6.99709 32.73L6.21632 32.2696L5.40666 31.7863L4.58755 31.283L3.77969 30.7636L3.00441 30.233L2.28295 29.6971L1.63544 29.1621L1.07984 28.6349L0.630852 28.1221L0.298931 27.6298L0.089532 27.1632L0.00267457 26.7261L0.0328781 26.3207L0.169462 25.9474L0.397163 25.6045L0.696983 25.2886L1.04714 24.9943L1.424 24.7146L1.80293 24.4413L2.1589 24.1646L2.46685 23.8738L2.70178 23.557L2.84026 23.2017L2.88625 22.806L2.86598 22.3783L2.80542 21.9279L2.72981 21.4652L2.66351 21.001L2.62964 20.547L2.6495 20.1151L2.74182 19.7169L2.92202 19.3631L3.20139 19.0632L3.58657 18.8247L4.07917 18.6527L4.67576 18.5494L5.36818 18.5143L6.1442 18.5439L6.98832 18.6321L7.88284 18.7707L8.8089 18.9497L9.74744 19.158L10.68 19.3841L11.5895 19.6159L12.4603 19.8417L13.2787 20.0503L14.0329 20.2307L14.7127 20.3725L15.3092 20.4657L15.8144 20.5001L16.2209 20.4657L16.5213 20.3514L16.7074 20.1452L16.7699 19.8332L16.6973 19.3988L16.4755 18.8219L16.0859 18.0771L15.5044 17.1324L14.6992 15.9458L13.6278 14.4626L12.2328 12.6092L11.729 11.5886L13.7525 13.1352L15.3705 14.3295L16.6655 15.2364L17.6993 15.9037L18.518 16.3672L19.1573 16.6538L19.645 16.7841L20.003 16.7739L20.2491 16.6355L20.3982 16.3792L20.463 16.0135L20.4547 15.5459L20.3838 14.984L20.2604 14.3353L20.0944 13.6084L19.8961 12.8129L19.6762 11.96L19.4457 11.0627L19.2163 10.1358L18.9999 9.196L18.8081 8.26118L18.6524 7.35031L18.5433 6.4825L18.4896 5.67605L18.4984 4.94748L18.5741 4.31048L18.7186 3.77491L18.9308 3.34617L19.2065 3.02467L19.5393 2.80573L19.9205 2.67984L20.3397 2.63313L20.7856 2.64806L21.2463 2.70423L21.7103 2.77911L22.1661 2.84875L22.6033 2.8882L23.0121 2.87173L23.3837 2.77279L23.7139 2.57357L24.0131 2.29124L24.2935 1.95084L24.5665 1.57744L24.8422 1.19614L25.1293 0.831855L25.4354 0.508734L25.7665 0.249441L26.1268 0.0742336L26.5186 0L26.9426 0.0393547L27.397 0.199917L27.8789 0.483874L28.3834 0.887895L28.9048 1.40343L29.4366 2.01734L29.9721 2.71281L30.5047 3.4704L31.0283 4.26917L31.5377 5.08766L32.0286 5.90482L32.4976 6.70063L32.9427 7.4565L33.3624 8.15546L33.7567 8.78214L34.1258 9.32252L34.4709 9.76356L34.7938 10.0927L35.0967 10.2974L35.3821 10.364L35.653 10.2775L35.9127 10.02L36.1653 9.56984L36.415 8.89979L36.667 7.97519L36.9276 6.75104L37.2044 5.16823L37.5073 3.14794L37.8491 0.583615L38.2119 1.99848L38.5316 4.2633L38.8195 6.04383L39.0867 7.43091L39.342 8.49226L39.5921 9.27905L39.8427 9.83048L40.0985 10.177L40.3636 10.3428L40.6417 10.3473L40.9358 10.2068L41.2488 9.93556L41.5831 9.54641L41.9406 9.05192L42.3227 8.46479L42.7303 7.79854L43.1634 7.06784L43.6212 6.2889L44.1019 5.47952L44.603 4.65909L45.1204 3.84823L45.6494 3.0683L46.1843 2.3406L46.7187 1.68544L47.2459 1.12101L47.7593 0.662344L48.2526 0.320274L48.7207 0.100685L49.1595 0.00404124L49.5667 0.0252836L49.942 0.15411L50.2866 0.375569L50.604 0.670896L50.8993 1.01846L51.1794 1.3947L51.4525 1.775L51.728 2.1343L52.0168 2.4475L52.3305 2.68957L52.6819 2.83642L53.074 2.88892L53.4988 2.87293L53.947 2.81456L54.4084 2.73912L54.8721 2.6711L55.3266 2.63377L55.76 2.64865L56.1607 2.73473L56.5178 2.90774L56.8218 3.17935L57.065 3.55659L57.2421 4.04149L57.3507 4.631L57.3911 5.31731L57.3665 6.08846L57.2829 6.92915L57.1482 7.8218L56.9723 8.74757L56.7662 9.68733L56.5415 10.6226L56.3101 11.5359L56.0837 12.4118L55.8737 13.2362L55.691 13.9972L55.5459 14.6843L55.4487 15.2887L55.4092 15.8023L55.4378 16.2177L55.5451 16.5273L55.7432 16.7231L56.0457 16.7959L56.469 16.7345L57.0327 16.5248L57.7619 16.1488L58.6878 15.5827L59.8514 14.7954L61.3062 13.7453L63.1239 12.3765L64.4464 11.5651L62.8709 13.6286L61.6532 15.2782L60.7269 16.5986L60.043 17.653L59.5651 18.4888L59.2657 19.1424L59.1239 19.642L59.1234 20.0102L59.2517 20.2651L59.4986 20.4217L59.8553 20.4929L60.3143 20.4901L60.8681 20.4237L61.5091 20.3039L62.229 20.1406L63.0181 19.9442L63.8655 19.7252L64.7583 19.4948L65.6819 19.2646L66.6198 19.0463L67.5542 18.8518L68.4662 18.6926L69.3367 18.5792L70.1473 18.5207L70.8814 18.5243L71.5251 18.5948L72.0681 18.734L72.5047 18.9412L72.8341 19.2125L73.0606 19.5417L73.1932 19.92L73.2455 20.3372L73.2348 20.7821L73.1812 21.2429L73.1071 21.7077L73.0362 22.1653L72.9935 22.6051L73.0045 23.0172L73.0958 23.3927L73.287 23.7265L73.5632 24.0282L73.8993 24.3101L74.2704 24.5838L74.6514 24.8593L75.0173 25.1457L75.344 25.4505L75.6087 25.78L75.791 26.1384L75.8737 26.5284L75.8438 26.9505L75.6933 27.4034L75.4195 27.884L75.0255 28.3877L74.5192 28.9088L73.9135 29.4409L73.225 29.9772L72.4728 30.5111L71.6779 31.0365L70.8615 31.5481L70.0448 32.0414L69.2479 32.513L68.4895 32.9608L67.7865 33.3833L67.1546 33.7802L66.6078 34.1518L66.1591 34.4994L65.8211 34.8246L65.6064 35.1294L65.5284 35.4165L65.602 35.6889L65.8447 35.9499L66.2779 36.2032L66.9282 36.4534L67.8296 36.7054L69.026 36.9655L70.5751 37.2411L72.5538 37.542L75.066 37.8807L76 37.9992Z" fill="#888888"/>
</svg>
