<svg width="43" height="40" viewBox="0 0 43 40" fill="none" xmlns="http://www.w3.org/2000/svg">
<path d="M28.5 7.0106C28.5 7.0106 28.5 5.18452 28.5 3.6193C28.5 2.61078 27.6824 1.79321 26.6739 1.79321C23.8043 1.79321 17.7174 1.79323 14.0652 1.79321C13.126 1.79321 12.5 2.68005 12.5 3.6193C12.5 8.83667 12.5 13.5323 12.5 17.9671C12.5 18.9064 13.126 19.7932 14.0652 19.7932C18.5 19.7932 23.2101 19.7932 26.6739 19.7932C27.9783 19.7932 28.5 18.9756 28.5 17.9671C28.5 16.6628 28.5 15.0976 28.5 15.0976M20.587 7.0106L16.9348 10.6628M16.9348 10.6628L20.587 14.315M16.9348 10.6628H30.5" stroke="#023B27" stroke-width="3" stroke-linecap="round" stroke-linejoin="round"/>
<path d="M0.632102 33.7932V26.5205H2.16974V32.5255H5.28764V33.7932H0.632102ZM8.74201 33.8997C8.1904 33.8997 7.71336 33.7826 7.3109 33.5482C6.91081 33.3114 6.60186 32.9824 6.38406 32.561C6.16625 32.1372 6.05735 31.646 6.05735 31.0872C6.05735 30.5238 6.16625 30.0314 6.38406 29.61C6.60186 29.1862 6.91081 28.8571 7.3109 28.6228C7.71336 28.386 8.1904 28.2676 8.74201 28.2676C9.29362 28.2676 9.76947 28.386 10.1696 28.6228C10.572 28.8571 10.8822 29.1862 11.1 29.61C11.3178 30.0314 11.4267 30.5238 11.4267 31.0872C11.4267 31.646 11.3178 32.1372 11.1 32.561C10.8822 32.9824 10.572 33.3114 10.1696 33.5482C9.76947 33.7826 9.29362 33.8997 8.74201 33.8997ZM8.74911 32.7279C9.00006 32.7279 9.20958 32.6568 9.37766 32.5148C9.54575 32.3704 9.67241 32.1739 9.75763 31.9253C9.84523 31.6767 9.88903 31.3938 9.88903 31.0766C9.88903 30.7594 9.84523 30.4765 9.75763 30.2279C9.67241 29.9793 9.54575 29.7828 9.37766 29.6384C9.20958 29.494 9.00006 29.4218 8.74911 29.4218C8.4958 29.4218 8.28273 29.494 8.10991 29.6384C7.93945 29.7828 7.81043 29.9793 7.72283 30.2279C7.63761 30.4765 7.59499 30.7594 7.59499 31.0766C7.59499 31.3938 7.63761 31.6767 7.72283 31.9253C7.81043 32.1739 7.93945 32.3704 8.10991 32.5148C8.28273 32.6568 8.4958 32.7279 8.74911 32.7279ZM14.8677 35.9523C14.3777 35.9523 13.9574 35.8848 13.6071 35.7499C13.2591 35.6173 12.9821 35.4362 12.7761 35.2066C12.5701 34.9769 12.4364 34.7189 12.3748 34.4324L13.774 34.2442C13.8166 34.3531 13.8841 34.4549 13.9764 34.5496C14.0687 34.6443 14.1906 34.7201 14.3422 34.7769C14.496 34.8361 14.6831 34.8657 14.9032 34.8657C15.2323 34.8657 15.5034 34.7852 15.7164 34.6242C15.9319 34.4656 16.0396 34.1992 16.0396 33.8252V32.8273H15.9757C15.9094 32.9788 15.81 33.122 15.6774 33.257C15.5448 33.3919 15.3743 33.502 15.166 33.5872C14.9577 33.6725 14.7091 33.7151 14.4203 33.7151C14.0107 33.7151 13.6378 33.6204 13.3017 33.431C12.9679 33.2392 12.7015 32.9469 12.5027 32.5539C12.3062 32.1585 12.2079 31.659 12.2079 31.0553C12.2079 30.4374 12.3085 29.9213 12.5098 29.507C12.711 29.0927 12.9785 28.7826 13.3123 28.5766C13.6485 28.3706 14.0166 28.2676 14.4167 28.2676C14.7221 28.2676 14.9778 28.3197 15.1838 28.4239C15.3897 28.5257 15.5555 28.6535 15.6809 28.8074C15.8088 28.9589 15.907 29.1081 15.9757 29.2549H16.0325V28.3387H17.5346V33.8465C17.5346 34.3105 17.421 34.6988 17.1937 35.0113C16.9664 35.3238 16.6516 35.5581 16.2491 35.7144C15.849 35.873 15.3886 35.9523 14.8677 35.9523ZM14.8997 32.5787C15.1435 32.5787 15.3495 32.5184 15.5176 32.3976C15.688 32.2745 15.8182 32.0993 15.9082 31.872C16.0005 31.6424 16.0467 31.3678 16.0467 31.0482C16.0467 30.7286 16.0017 30.4516 15.9118 30.2172C15.8218 29.9805 15.6916 29.797 15.5211 29.6668C15.3507 29.5366 15.1435 29.4715 14.8997 29.4715C14.6511 29.4715 14.4416 29.539 14.2711 29.6739C14.1007 29.8065 13.9717 29.9911 13.8841 30.2279C13.7965 30.4646 13.7527 30.7381 13.7527 31.0482C13.7527 31.3631 13.7965 31.6353 13.8841 31.8649C13.974 32.0922 14.103 32.2686 14.2711 32.3941C14.4416 32.5172 14.6511 32.5787 14.8997 32.5787ZM21.1958 35.9523C20.7058 35.9523 20.2856 35.8848 19.9352 35.7499C19.5872 35.6173 19.3102 35.4362 19.1042 35.2066C18.8983 34.9769 18.7645 34.7189 18.7029 34.4324L20.1021 34.2442C20.1447 34.3531 20.2122 34.4549 20.3045 34.5496C20.3968 34.6443 20.5188 34.7201 20.6703 34.7769C20.8242 34.8361 21.0112 34.8657 21.2314 34.8657C21.5604 34.8657 21.8315 34.7852 22.0446 34.6242C22.26 34.4656 22.3677 34.1992 22.3677 33.8252V32.8273H22.3038C22.2375 32.9788 22.1381 33.122 22.0055 33.257C21.8729 33.3919 21.7025 33.502 21.4941 33.5872C21.2858 33.6725 21.0372 33.7151 20.7484 33.7151C20.3388 33.7151 19.966 33.6204 19.6298 33.431C19.296 33.2392 19.0297 32.9469 18.8308 32.5539C18.6343 32.1585 18.536 31.659 18.536 31.0553C18.536 30.4374 18.6367 29.9213 18.8379 29.507C19.0391 29.0927 19.3066 28.7826 19.6404 28.5766C19.9766 28.3706 20.3448 28.2676 20.7449 28.2676C21.0502 28.2676 21.3059 28.3197 21.5119 28.4239C21.7179 28.5257 21.8836 28.6535 22.0091 28.8074C22.1369 28.9589 22.2351 29.1081 22.3038 29.2549H22.3606V28.3387H23.8627V33.8465C23.8627 34.3105 23.7491 34.6988 23.5218 35.0113C23.2946 35.3238 22.9797 35.5581 22.5772 35.7144C22.1771 35.873 21.7167 35.9523 21.1958 35.9523ZM21.2278 32.5787C21.4717 32.5787 21.6776 32.5184 21.8457 32.3976C22.0162 32.2745 22.1464 32.0993 22.2363 31.872C22.3287 31.6424 22.3748 31.3678 22.3748 31.0482C22.3748 30.7286 22.3298 30.4516 22.2399 30.2172C22.1499 29.9805 22.0197 29.797 21.8493 29.6668C21.6788 29.5366 21.4717 29.4715 21.2278 29.4715C20.9792 29.4715 20.7697 29.539 20.5993 29.6739C20.4288 29.8065 20.2998 29.9911 20.2122 30.2279C20.1246 30.4646 20.0808 30.7381 20.0808 31.0482C20.0808 31.3631 20.1246 31.6353 20.2122 31.8649C20.3021 32.0922 20.4312 32.2686 20.5993 32.3941C20.7697 32.5172 20.9792 32.5787 21.2278 32.5787ZM26.622 33.8962C26.274 33.8962 25.9638 33.8358 25.6916 33.7151C25.4193 33.592 25.2039 33.4109 25.0453 33.1718C24.889 32.9303 24.8109 32.6296 24.8109 32.2698C24.8109 31.9667 24.8665 31.7122 24.9778 31.5063C25.0891 31.3003 25.2406 31.1346 25.4324 31.0091C25.6241 30.8836 25.8419 30.789 26.0858 30.725C26.332 30.6611 26.59 30.6161 26.8599 30.5901C27.1771 30.5569 27.4328 30.5262 27.627 30.4978C27.8211 30.467 27.9619 30.422 28.0495 30.3628C28.1371 30.3036 28.1809 30.216 28.1809 30.1V30.0787C28.1809 29.8538 28.1099 29.6798 27.9679 29.5567C27.8282 29.4336 27.6293 29.372 27.3713 29.372C27.099 29.372 26.8824 29.4324 26.7214 29.5532C26.5604 29.6715 26.4539 29.8207 26.4018 30.0006L25.0027 29.887C25.0737 29.5555 25.2134 29.2691 25.4217 29.0276C25.63 28.7837 25.8987 28.5967 26.2278 28.4665C26.5592 28.3339 26.9428 28.2676 27.3784 28.2676C27.6814 28.2676 27.9714 28.3032 28.2484 28.3742C28.5278 28.4452 28.7752 28.5553 28.9906 28.7044C29.2084 28.8536 29.38 29.0453 29.5055 29.2797C29.631 29.5117 29.6937 29.7899 29.6937 30.1142V33.7932H28.2591V33.0368H28.2164C28.1288 33.2073 28.0117 33.3576 27.8649 33.4878C27.7181 33.6157 27.5417 33.7163 27.3358 33.7897C27.1298 33.8607 26.8919 33.8962 26.622 33.8962ZM27.0552 32.8522C27.2778 32.8522 27.4743 32.8084 27.6447 32.7208C27.8152 32.6308 27.9489 32.5101 28.046 32.3586C28.1431 32.207 28.1916 32.0354 28.1916 31.8436V31.2648C28.1442 31.2956 28.0791 31.324 27.9963 31.35C27.9158 31.3737 27.8246 31.3962 27.7228 31.4175C27.621 31.4364 27.5192 31.4542 27.4174 31.4708C27.3156 31.485 27.2233 31.498 27.1404 31.5098C26.9629 31.5359 26.8078 31.5773 26.6752 31.6341C26.5427 31.6909 26.4397 31.7679 26.3663 31.8649C26.2929 31.9596 26.2562 32.078 26.2562 32.2201C26.2562 32.426 26.3308 32.5835 26.4799 32.6924C26.6315 32.7989 26.8232 32.8522 27.0552 32.8522ZM36.6797 31.4708V28.3387H38.1925V33.7932H36.7401V32.8024H36.6832C36.5601 33.122 36.3554 33.3789 36.0689 33.573C35.7848 33.7672 35.438 33.8642 35.0284 33.8642C34.6638 33.8642 34.343 33.7814 34.0661 33.6157C33.7891 33.4499 33.5724 33.2144 33.4162 32.909C33.2623 32.6036 33.1842 32.2378 33.1818 31.8117V28.3387H34.6946V31.5418C34.697 31.8638 34.7834 32.1183 34.9538 32.3053C35.1243 32.4923 35.3527 32.5858 35.6392 32.5858C35.8215 32.5858 35.992 32.5444 36.1506 32.4615C36.3092 32.3763 36.437 32.2508 36.5341 32.0851C36.6335 31.9194 36.6821 31.7146 36.6797 31.4708ZM42.3038 28.3387V29.475H39.019V28.3387H42.3038ZM39.7647 27.0318H41.2775V32.1171C41.2775 32.2568 41.2988 32.3657 41.3414 32.4438C41.3841 32.5195 41.4432 32.5728 41.519 32.6036C41.5971 32.6344 41.6871 32.6497 41.7889 32.6497C41.8599 32.6497 41.9309 32.6438 42.002 32.632C42.073 32.6178 42.1274 32.6071 42.1653 32.6L42.4032 33.7257C42.3275 33.7494 42.2209 33.7766 42.0836 33.8074C41.9463 33.8406 41.7794 33.8607 41.5829 33.8678C41.2183 33.882 40.8987 33.8335 40.6241 33.7222C40.3519 33.6109 40.14 33.4381 39.9885 33.2037C39.8369 32.9693 39.7624 32.6734 39.7647 32.3159V27.0318Z" fill="#023B27"/>
<path d="M0 35.7818H42.6838V36.4637H0V35.7818Z" fill="#023B27"/>
</svg>
