<svg width="266" height="266" viewBox="0 0 266 266" fill="none" xmlns="http://www.w3.org/2000/svg">
<path fill-rule="evenodd" clip-rule="evenodd" d="M249.59 132.523V132.523L249.608 133.694L249.661 134.866L249.748 136.041L249.87 137.22L250.025 138.403L250.214 139.593L250.435 140.791L250.687 141.997L250.969 143.213L251.279 144.439L251.617 145.677L251.979 146.928L252.364 148.191L252.77 149.469L253.195 150.761L253.635 152.069L254.088 153.391L254.551 154.729L255.02 156.082L255.492 157.451L255.963 158.834L256.43 160.232L256.887 161.643L257.332 163.067L257.758 164.502L258.163 165.947L258.541 167.401L258.887 168.861L259.197 170.325L259.465 171.792L259.688 173.259L259.861 174.723L259.979 176.181L260.038 177.631L260.034 179.07L259.964 180.494L259.824 181.9L259.613 183.286L259.326 184.648L258.964 185.983L258.524 187.289L258.006 188.562L257.41 189.801L256.737 191.002L255.988 192.165L255.164 193.287L254.269 194.368L253.304 195.405L252.275 196.399L251.183 197.35L250.035 198.256L248.834 199.12L247.585 199.942L246.295 200.723L244.967 201.465L243.608 202.17L242.224 202.84L240.819 203.477L239.4 204.085L237.971 204.667L236.539 205.224L235.108 205.762L233.684 206.284L232.271 206.792L230.873 207.292L229.495 207.786L228.142 208.28L226.815 208.776L225.521 209.28L224.26 209.795L223.038 210.326L221.856 210.877L220.717 211.452L219.624 212.057L218.579 212.696L217.585 213.374L216.644 214.095L215.757 214.866L214.927 215.692L214.152 216.574L213.426 217.512L212.745 218.502L212.104 219.543L211.496 220.632L210.919 221.767L210.366 222.946L209.834 224.165L209.317 225.422L208.813 226.715L208.316 228.038L207.822 229.39L207.328 230.766L206.829 232.162L206.321 233.575L205.801 234.998L205.265 236.429L204.709 237.861L204.129 239.29L203.524 240.71L202.889 242.116L202.221 243.502L201.52 244.863L200.781 246.194L200.003 247.488L199.184 248.74L198.324 249.945L197.42 251.098L196.473 252.194L195.483 253.229L194.449 254.198L193.372 255.099L192.253 255.929L191.093 256.684L189.895 257.363L188.659 257.965L187.388 258.489L186.085 258.935L184.752 259.304L183.392 259.596L182.008 259.814L180.603 259.959L179.181 260.035L177.743 260.043L176.294 259.989L174.836 259.876L173.373 259.708L171.906 259.488L170.439 259.223L168.974 258.917L167.514 258.573L166.06 258.198L164.614 257.795L163.178 257.37L161.753 256.927L160.341 256.47L158.942 256.004L157.558 255.533L156.188 255.061L154.834 254.592L153.495 254.128L152.171 253.674L150.862 253.233L149.569 252.807L148.29 252.4L147.025 252.012L145.773 251.648L144.534 251.309L143.307 250.996L142.091 250.712L140.884 250.457L139.686 250.234L138.495 250.043L137.311 249.884L136.132 249.76L134.957 249.67L133.785 249.615L132.614 249.594L131.443 249.609L130.271 249.659L129.096 249.743L127.918 249.862L126.735 250.015L125.546 250.201L124.349 250.42L123.144 250.669L121.929 250.949L120.703 251.257L119.466 251.592L118.217 251.953L116.954 252.336L115.677 252.741L114.386 253.164L113.08 253.603L111.759 254.055L110.422 254.517L109.07 254.986L107.703 255.458L106.321 255.929L104.924 256.396L103.514 256.855L102.091 257.301L100.657 257.729L99.2125 258.135L97.7596 258.515L96.3 258.864L94.8357 259.177L93.369 259.449L91.9022 259.676L90.438 259.853L88.979 259.975L87.5283 260.039L86.0888 260.04L84.6635 259.976L83.2556 259.842L81.8681 259.636L80.5041 259.356L79.1667 258.999L77.8586 258.566L76.5825 258.054L75.341 257.464L74.1363 256.797L72.9704 256.054L71.8449 255.236L70.7612 254.346L69.7204 253.387L68.7229 252.363L67.7691 251.276L66.8588 250.132L65.9915 248.935L65.1663 247.69L64.382 246.402L63.637 245.077L62.9293 243.721L62.2567 242.338L61.6168 240.935L61.0067 239.517L60.4234 238.089L59.8639 236.657L59.3246 235.226L58.802 233.801L58.2925 232.386L57.7923 230.987L57.2975 229.608L56.8041 228.252L56.3079 226.923L55.805 225.626L55.291 224.363L54.7616 223.137L54.2125 221.952L53.639 220.809L53.0368 219.713L52.4009 218.664L51.7265 217.666L51.0086 216.72L50.2418 215.829L49.4207 214.994L48.5428 214.215L47.6097 213.486L46.6237 212.801L45.5869 212.157L44.5015 211.547L43.3699 210.967L42.1946 210.412L40.9784 209.879L39.7239 209.361L38.4344 208.856L37.113 208.359L35.7634 207.865L34.3892 207.371L32.9944 206.872L31.5833 206.365L30.1604 205.846L28.7303 205.311L27.2981 204.757L25.8688 204.18L24.4477 203.576L23.0404 202.944L21.6522 202.279L20.2889 201.58L18.956 200.844L17.659 200.069L16.4034 199.254L15.1945 198.397L14.0373 197.497L12.9365 196.553L11.8966 195.566L10.9216 194.536L10.015 193.462L9.17979 192.347L8.41854 191.19L7.73316 189.995L7.12497 188.762L6.59468 187.494L6.14242 186.193L5.76767 184.862L5.46937 183.504L5.24587 182.122L5.09499 180.719L5.01407 179.297L5 177.861L5.04929 176.413L5.15808 174.955L5.32226 173.492L5.53747 172.026L5.79917 170.559L6.10271 169.094L6.44335 167.633L6.81635 166.178L7.21695 164.731L7.6405 163.295L8.08238 161.869L8.53815 160.456L9.00348 159.056L9.47422 157.67L9.9464 156.299L10.4163 154.944L10.8802 153.603L11.335 152.278L11.7774 150.969L12.2045 149.674L12.6137 148.394L13.0025 147.128L13.3687 145.875L13.71 144.635L14.0249 143.407L14.3115 142.19L14.5684 140.982L14.7943 139.784L14.9882 138.592L15.1492 137.408L15.2764 136.229L15.3693 135.053L15.4274 133.881L15.4505 132.71L15.4386 131.539L15.3916 130.367L15.3097 129.193L15.1934 128.015L15.0431 126.832L14.8596 125.643L14.6438 124.447L14.3966 123.242L14.1193 122.028L13.8133 120.804L13.4802 119.567L13.1217 118.319L12.7399 117.057L12.337 115.782L11.9152 114.492L11.4774 113.187L11.0262 111.867L10.5648 110.531L10.0965 109.18L9.62465 107.814L9.15303 106.433L8.68554 105.038L8.22626 103.629L7.77948 102.207L7.3496 100.774L6.94118 99.3301L6.55888 97.8778L6.20741 96.4186L5.89154 94.9546L5.61601 93.4879L5.38549 92.021L5.20457 90.5565L5.07767 89.097L5.009 87.6455L5.00249 86.205L5.06176 84.7784L5.19004 83.369L5.39016 81.9798L5.66443 80.6138L6.01468 79.2741L6.44217 77.9636L6.94758 76.6848L7.53101 75.4405L8.19192 74.2328L8.92918 73.0637L9.74105 71.9349L10.6252 70.8479L11.5788 69.8036L12.5985 68.8026L13.6803 67.8453L14.82 66.9316L16.013 66.0609L17.2543 65.2324L18.5387 64.4449L19.8608 63.6968L21.215 62.9862L22.5958 62.3109L23.9977 61.6684L25.415 61.056L26.8422 60.4708L28.2741 59.9094L29.7054 59.3686L31.1311 58.8449L32.5465 58.3345L33.9469 57.8337L35.3281 57.3386L36.686 56.8452L38.0168 56.3494L39.3168 55.8471L40.5828 55.3342L41.8115 54.8062L43.0002 54.2587L44.1459 53.6874L45.2463 53.0876L46.2989 52.4546L47.3013 51.7834L48.2514 51.0692L49.1472 50.3065L49.9864 49.4899L50.7699 48.6164L51.5028 47.6877L52.1905 46.7058L52.8381 45.6729L53.4506 44.5913L54.0327 43.4633L54.589 42.2914L55.1242 41.0782L55.6427 39.8267L56.1487 38.5399L56.6465 37.2209L57.1404 35.8734L57.6343 34.5009L58.1324 33.1076L58.6385 31.6977L59.1565 30.2755L59.69 28.8458L60.2428 27.4136L60.8181 25.9838L61.4193 24.5619L62.0495 23.1532L62.7114 21.7633L63.4076 20.3978L64.1405 19.0623L64.9121 17.7622L65.7241 16.5031L66.5779 15.2903L67.4744 14.1288L68.4143 13.0233L69.3979 11.9784L70.425 10.9981L71.4951 10.0859L72.6074 9.24491L73.7606 8.47769L74.9532 7.7862L76.1832 7.17182L77.4485 6.63531L78.7467 6.17684L80.0751 5.79595L81.4309 5.49162L82.8113 5.26223L84.213 5.10565L85.6331 5.01927L87.0684 5L88.5159 5.04438L89.9725 5.14858L91.4354 5.30851L92.9016 5.51983L94.3687 5.778L95.834 6.07838L97.2954 6.41624L98.7506 6.78684L100.198 7.18542L101.636 7.60731L103.062 8.04791L104.476 8.50274L105.877 8.96746L107.264 9.43792L108.636 9.91013L109.993 10.3803L111.335 10.8449L112.661 11.3005L113.972 11.744L115.267 12.1725L116.549 12.5832L117.816 12.9737L119.069 13.3417L120.31 13.6851L121.539 14.0022L122.758 14.2911L123.966 14.5504L125.165 14.7789L126.357 14.9754L127.542 15.1389L128.722 15.2688L129.897 15.3645L131.07 15.4254L132.241 15.4513L133.412 15.4422L134.584 15.3979L135.758 15.3188L136.935 15.2052L138.118 15.0577L139.306 14.8768L140.501 14.6635L141.705 14.4187L142.919 14.1438L144.142 13.84L145.377 13.509L146.625 13.1525L147.886 12.7724L149.16 12.3711L150.449 11.9508L151.752 11.5141L153.071 11.0639L154.405 10.6032L155.755 10.1353L157.12 9.66356L158.5 9.19178L159.894 8.7238L161.302 8.26372L162.723 7.81577L164.155 7.38438L165.598 6.97408L167.05 6.58952L168.509 6.23542L169.972 5.91654L171.439 5.63762L172.906 5.40334L174.371 5.21831L175.83 5.08695L177.283 5.01349L178.724 5.00189L180.152 5.0558L181.563 5.17848L182.954 5.37278L184.322 5.64108L185.664 5.98523L186.977 6.40654L188.258 6.90574L189.505 7.48297L190.716 8.13775L191.888 8.86899L193.02 9.67501L194.11 10.5535L195.158 11.5017L196.163 12.5163L197.123 13.5933L198.041 14.7286L198.915 15.9176L199.746 17.1552L200.537 18.4363L201.288 19.7556L202.002 21.1075L202.68 22.4865L203.325 23.8869L203.939 25.3031L204.527 26.7298L205.09 28.1615L205.632 29.593L206.157 31.0194L206.668 32.4358L207.17 33.8376L207.665 35.2205L208.159 36.5804L208.654 37.9135L209.156 39.2161L209.668 40.4849L210.194 41.7167L210.74 42.9087L211.309 44.058L211.907 45.1621L212.537 46.2185L213.205 47.225L213.915 48.1794L214.674 49.0796L215.486 49.9234L216.355 50.7111L217.279 51.4479L218.257 52.139L219.286 52.7896L220.364 53.4047L221.488 53.989L222.657 54.5473L223.867 55.084L225.115 55.6036L226.399 56.1105L227.716 56.6088L229.061 57.1028L230.432 57.5966L231.824 58.0942L233.232 58.5996L234.654 59.1165L236.083 59.6487L237.515 60.1998L238.945 60.7732L240.368 61.3723L241.778 62L243.17 62.6593L244.537 63.3527L245.875 64.0826L247.178 64.8511L248.441 65.6598L249.658 66.5102L250.823 67.4033L251.934 68.3398L252.983 69.3199L253.969 70.3435L254.887 71.4103L255.733 72.5192L256.507 73.6693L257.204 74.8587L257.825 76.0859L258.367 77.3485L258.832 78.6441L259.219 79.9703L259.53 81.324L259.765 82.7025L259.927 84.1027L260.019 85.5214L260.043 86.9557L260.004 88.4023L259.904 89.8583L259.749 91.3208L259.541 92.7869L259.287 94.254L258.99 95.7196L258.655 97.1813L258.286 98.6371L257.89 100.085L257.47 101.524L257.03 102.951L256.577 104.366L256.112 105.768L255.642 107.156L255.17 108.53L254.7 109.888L254.235 111.231L253.778 112.558L253.334 113.87L252.904 115.167L252.491 116.45L252.099 117.718L251.729 118.972L251.384 120.214L251.065 121.444L250.774 122.663L250.512 123.872L250.281 125.072L250.082 126.265L249.916 127.45L249.783 128.63L249.685 129.806L249.621 130.979L249.592 132.15L249.59 132.523Z" fill="white"/>
<path d="M249.59 132.523V132.523ZM249.59 132.523L249.608 133.694L249.661 134.866L249.748 136.041L249.87 137.22L250.025 138.403L250.214 139.593L250.435 140.791L250.687 141.997L250.969 143.213L251.279 144.439L251.617 145.677L251.979 146.928L252.364 148.191L252.77 149.469L253.195 150.761L253.635 152.069L254.088 153.391L254.551 154.729L255.02 156.082L255.492 157.451L255.963 158.834L256.43 160.232L256.887 161.643L257.332 163.067L257.758 164.502L258.163 165.947L258.541 167.401L258.887 168.861L259.197 170.325L259.465 171.792L259.688 173.259L259.861 174.723L259.979 176.181L260.038 177.631L260.034 179.07L259.964 180.494L259.824 181.9L259.613 183.286L259.326 184.648L258.964 185.983L258.524 187.289L258.006 188.562L257.41 189.801L256.737 191.002L255.988 192.165L255.164 193.287L254.269 194.368L253.304 195.405L252.275 196.399L251.183 197.35L250.035 198.256L248.834 199.12L247.585 199.942L246.295 200.723L244.967 201.465L243.608 202.17L242.224 202.84L240.819 203.477L239.4 204.085L237.971 204.667L236.539 205.224L235.108 205.762L233.684 206.284L232.271 206.792L230.873 207.292L229.495 207.786L228.142 208.28L226.815 208.776L225.521 209.28L224.26 209.795L223.038 210.326L221.856 210.877L220.717 211.452L219.624 212.057L218.579 212.696L217.585 213.374L216.644 214.095L215.757 214.866L214.927 215.692L214.152 216.574L213.426 217.512L212.745 218.502L212.104 219.543L211.496 220.632L210.919 221.767L210.366 222.946L209.834 224.165L209.317 225.422L208.813 226.715L208.316 228.038L207.822 229.39L207.328 230.766L206.829 232.162L206.321 233.575L205.801 234.998L205.265 236.429L204.709 237.861L204.129 239.29L203.524 240.71L202.889 242.116L202.221 243.502L201.52 244.863L200.781 246.194L200.003 247.488L199.184 248.74L198.324 249.945L197.42 251.098L196.473 252.194L195.483 253.229L194.449 254.198L193.372 255.099L192.253 255.929L191.093 256.684L189.895 257.363L188.659 257.965L187.388 258.489L186.085 258.935L184.752 259.304L183.392 259.596L182.008 259.814L180.603 259.959L179.181 260.035L177.743 260.043L176.294 259.989L174.836 259.876L173.373 259.708L171.906 259.488L170.439 259.223L168.974 258.917L167.514 258.573L166.06 258.198L164.614 257.795L163.178 257.37L161.753 256.927L160.341 256.47L158.942 256.004L157.558 255.533L156.188 255.061L154.834 254.592L153.495 254.128L152.171 253.674L150.862 253.233L149.569 252.807L148.29 252.4L147.025 252.012L145.773 251.648L144.534 251.309L143.307 250.996L142.091 250.712L140.884 250.457L139.686 250.234L138.495 250.043L137.311 249.884L136.132 249.76L134.957 249.67L133.785 249.615L132.614 249.594L131.443 249.609L130.271 249.659L129.096 249.743L127.918 249.862L126.735 250.015L125.546 250.201L124.349 250.42L123.144 250.669L121.929 250.949L120.703 251.257L119.466 251.592L118.217 251.953L116.954 252.336L115.677 252.741L114.386 253.164L113.08 253.603L111.759 254.055L110.422 254.517L109.07 254.986L107.703 255.458L106.321 255.929L104.924 256.396L103.514 256.855L102.091 257.301L100.657 257.729L99.2125 258.135L97.7596 258.515L96.3 258.864L94.8357 259.177L93.369 259.449L91.9022 259.676L90.438 259.853L88.979 259.975L87.5283 260.039L86.0888 260.04L84.6635 259.976L83.2556 259.842L81.8681 259.636L80.5041 259.356L79.1667 258.999L77.8586 258.566L76.5825 258.054L75.341 257.464L74.1363 256.797L72.9704 256.054L71.8449 255.236L70.7612 254.346L69.7204 253.387L68.7229 252.363L67.7691 251.276L66.8588 250.132L65.9915 248.935L65.1663 247.69L64.382 246.402L63.637 245.077L62.9293 243.721L62.2567 242.338L61.6168 240.935L61.0067 239.517L60.4234 238.089L59.8639 236.657L59.3246 235.226L58.802 233.801L58.2925 232.386L57.7923 230.987L57.2975 229.608L56.8041 228.252L56.3079 226.923L55.805 225.626L55.291 224.363L54.7616 223.137L54.2125 221.952L53.639 220.809L53.0368 219.713L52.4009 218.664L51.7265 217.666L51.0086 216.72L50.2418 215.829L49.4207 214.994L48.5428 214.215L47.6097 213.486L46.6237 212.801L45.5869 212.157L44.5015 211.547L43.3699 210.967L42.1946 210.412L40.9784 209.879L39.7239 209.361L38.4344 208.856L37.113 208.359L35.7634 207.865L34.3892 207.371L32.9944 206.872L31.5833 206.365L30.1604 205.846L28.7303 205.311L27.2981 204.757L25.8688 204.18L24.4477 203.576L23.0404 202.944L21.6522 202.279L20.2889 201.58L18.956 200.844L17.659 200.069L16.4034 199.254L15.1945 198.397L14.0373 197.497L12.9365 196.553L11.8966 195.566L10.9216 194.536L10.015 193.462L9.17979 192.347L8.41854 191.19L7.73316 189.995L7.12497 188.762L6.59468 187.494L6.14242 186.193L5.76767 184.862L5.46937 183.504L5.24587 182.122L5.09499 180.719L5.01407 179.297L5 177.861L5.04929 176.413L5.15808 174.955L5.32226 173.492L5.53747 172.026L5.79917 170.559L6.10271 169.094L6.44335 167.633L6.81635 166.178L7.21695 164.731L7.6405 163.295L8.08238 161.869L8.53815 160.456L9.00348 159.056L9.47422 157.67L9.9464 156.299L10.4163 154.944L10.8802 153.603L11.335 152.278L11.7774 150.969L12.2045 149.674L12.6137 148.394L13.0025 147.128L13.3687 145.875L13.71 144.635L14.0249 143.407L14.3115 142.19L14.5684 140.982L14.7943 139.784L14.9882 138.592L15.1492 137.408L15.2764 136.229L15.3693 135.053L15.4274 133.881L15.4505 132.71L15.4386 131.539L15.3916 130.367L15.3097 129.193L15.1934 128.015L15.0431 126.832L14.8596 125.643L14.6438 124.447L14.3966 123.242L14.1193 122.028L13.8133 120.804L13.4802 119.567L13.1217 118.319L12.7399 117.057L12.337 115.782L11.9152 114.492L11.4774 113.187L11.0262 111.867L10.5648 110.531L10.0965 109.18L9.62465 107.814L9.15303 106.433L8.68554 105.038L8.22626 103.629L7.77948 102.207L7.3496 100.774L6.94118 99.3301L6.55888 97.8778L6.20741 96.4186L5.89154 94.9546L5.61601 93.4879L5.38549 92.021L5.20457 90.5565L5.07767 89.097L5.009 87.6455L5.00249 86.205L5.06176 84.7784L5.19004 83.369L5.39016 81.9798L5.66443 80.6138L6.01468 79.2741L6.44217 77.9636L6.94758 76.6848L7.53101 75.4405L8.19192 74.2328L8.92918 73.0637L9.74105 71.9349L10.6252 70.8479L11.5788 69.8036L12.5985 68.8026L13.6803 67.8453L14.82 66.9316L16.013 66.0609L17.2543 65.2324L18.5387 64.4449L19.8608 63.6968L21.215 62.9862L22.5958 62.3109L23.9977 61.6684L25.415 61.056L26.8422 60.4708L28.2741 59.9094L29.7054 59.3686L31.1311 58.8449L32.5465 58.3345L33.9469 57.8337L35.3281 57.3386L36.686 56.8452L38.0168 56.3494L39.3168 55.8471L40.5828 55.3342L41.8115 54.8062L43.0002 54.2587L44.1459 53.6874L45.2463 53.0876L46.2989 52.4546L47.3013 51.7834L48.2514 51.0692L49.1472 50.3065L49.9864 49.4899L50.7699 48.6164L51.5028 47.6877L52.1905 46.7058L52.8381 45.6729L53.4506 44.5913L54.0327 43.4633L54.589 42.2914L55.1242 41.0782L55.6427 39.8267L56.1487 38.5399L56.6465 37.2209L57.1404 35.8734L57.6343 34.5009L58.1324 33.1076L58.6385 31.6977L59.1565 30.2755L59.69 28.8458L60.2428 27.4136L60.8181 25.9838L61.4193 24.5619L62.0495 23.1532L62.7114 21.7633L63.4076 20.3978L64.1405 19.0623L64.9121 17.7622L65.7241 16.5031L66.5779 15.2903L67.4744 14.1288L68.4143 13.0233L69.3979 11.9784L70.425 10.9981L71.4951 10.0859L72.6074 9.24491L73.7606 8.47769L74.9532 7.7862L76.1832 7.17182L77.4485 6.63531L78.7467 6.17684L80.0751 5.79595L81.4309 5.49162L82.8113 5.26223L84.213 5.10565L85.6331 5.01927L87.0684 5L88.5159 5.04438L89.9725 5.14858L91.4354 5.30851L92.9016 5.51983L94.3687 5.778L95.834 6.07838L97.2954 6.41624L98.7506 6.78684L100.198 7.18542L101.636 7.60731L103.062 8.04791L104.476 8.50274L105.877 8.96746L107.264 9.43792L108.636 9.91013L109.993 10.3803L111.335 10.8449L112.661 11.3005L113.972 11.744L115.267 12.1725L116.549 12.5832L117.816 12.9737L119.069 13.3417L120.31 13.6851L121.539 14.0022L122.758 14.2911L123.966 14.5504L125.165 14.7789L126.357 14.9754L127.542 15.1389L128.722 15.2688L129.897 15.3645L131.07 15.4254L132.241 15.4513L133.412 15.4422L134.584 15.3979L135.758 15.3188L136.935 15.2052L138.118 15.0577L139.306 14.8768L140.501 14.6635L141.705 14.4187L142.919 14.1438L144.142 13.84L145.377 13.509L146.625 13.1525L147.886 12.7724L149.16 12.3711L150.449 11.9508L151.752 11.5141L153.071 11.0639L154.405 10.6032L155.755 10.1353L157.12 9.66356L158.5 9.19178L159.894 8.7238L161.302 8.26372L162.723 7.81577L164.155 7.38438L165.598 6.97408L167.05 6.58952L168.509 6.23542L169.972 5.91654L171.439 5.63762L172.906 5.40334L174.371 5.21831L175.83 5.08695L177.283 5.01349L178.724 5.00189L180.152 5.0558L181.563 5.17848L182.954 5.37278L184.322 5.64108L185.664 5.98523L186.977 6.40654L188.258 6.90574L189.505 7.48297L190.716 8.13775L191.888 8.86899L193.02 9.67501L194.11 10.5535L195.158 11.5017L196.163 12.5163L197.123 13.5933L198.041 14.7286L198.915 15.9176L199.746 17.1552L200.537 18.4363L201.288 19.7556L202.002 21.1075L202.68 22.4865L203.325 23.8869L203.939 25.3031L204.527 26.7298L205.09 28.1615L205.632 29.593L206.157 31.0194L206.668 32.4358L207.17 33.8376L207.665 35.2205L208.159 36.5804L208.654 37.9135L209.156 39.2161L209.668 40.4849L210.194 41.7167L210.74 42.9087L211.309 44.058L211.907 45.1621L212.537 46.2185L213.205 47.225L213.915 48.1794L214.674 49.0796L215.486 49.9234L216.355 50.7111L217.279 51.4479L218.257 52.139L219.286 52.7896L220.364 53.4047L221.488 53.989L222.657 54.5473L223.867 55.084L225.115 55.6036L226.399 56.1105L227.716 56.6088L229.061 57.1028L230.432 57.5966L231.824 58.0942L233.232 58.5996L234.654 59.1165L236.083 59.6487L237.515 60.1998L238.945 60.7732L240.368 61.3723L241.778 62L243.17 62.6593L244.537 63.3527L245.875 64.0826L247.178 64.8511L248.441 65.6598L249.658 66.5102L250.823 67.4033L251.934 68.3398L252.983 69.3199L253.969 70.3435L254.887 71.4103L255.733 72.5192L256.507 73.6693L257.204 74.8587L257.825 76.0859L258.367 77.3485L258.832 78.6441L259.219 79.9703L259.53 81.324L259.765 82.7025L259.927 84.1027L260.019 85.5214L260.043 86.9557L260.004 88.4023L259.904 89.8583L259.749 91.3208L259.541 92.7869L259.287 94.254L258.99 95.7196L258.655 97.1813L258.286 98.6371L257.89 100.085L257.47 101.524L257.03 102.951L256.577 104.366L256.112 105.768L255.642 107.156L255.17 108.53L254.7 109.888L254.235 111.231L253.778 112.558L253.334 113.87L252.904 115.167L252.491 116.45L252.099 117.718L251.729 118.972L251.384 120.214L251.065 121.444L250.774 122.663L250.512 123.872L250.281 125.072L250.082 126.265L249.916 127.45L249.783 128.63L249.685 129.806L249.621 130.979L249.592 132.15L249.59 132.523Z" stroke="#257E2E" stroke-width="10"/>
<path d="M177.396 114.088C176.381 112.918 173.789 111.683 173.789 111.683L162.564 111.682L154.145 111.682C142.656 111.682 127.49 111.682 112.454 111.682L104.436 111.682L93.2115 111.683C91.6079 111.683 90.697 112.276 89.6035 113.687C88.7458 114.794 88.0001 116.296 88.0001 117.696C88 133.657 88 146.686 88 160.407L88.0001 172.216C88.0001 173.478 88.7746 174.872 89.6035 175.824C90.7157 177.101 93.2115 177.427 93.2115 177.427H173.789C173.789 177.427 176.376 176.443 177.396 175.423C178.417 174.402 179 172.216 179 172.216V117.696C179 117.696 178.423 115.27 177.396 114.088Z" fill="#257E2E"/>
<path d="M133.3 74C99.6255 74 104.436 111.682 104.436 111.682L112.454 111.682C112.454 111.682 108.445 82.0176 133.3 82.0176C157.352 82.0176 154.145 111.682 154.145 111.682L162.564 111.682C162.564 111.682 166.172 74 133.3 74Z" fill="#257E2E"/>
<path d="M93.2115 111.683C91.6079 111.683 90.697 112.276 89.6035 113.687C88.7458 114.794 88.0001 116.296 88.0001 117.696C88 133.657 88 146.686 88 160.407M93.2115 111.683C96.8569 111.683 100.62 111.682 104.436 111.682M93.2115 111.683L104.436 111.682M173.789 111.683C173.789 111.683 176.381 112.918 177.396 114.088C178.423 115.27 179 117.696 179 117.696V172.216C179 172.216 178.417 174.402 177.396 175.423C176.376 176.443 173.789 177.427 173.789 177.427H93.2115C93.2115 177.427 90.7157 177.101 89.6035 175.824C88.7746 174.872 88.0001 173.478 88.0001 172.216M173.789 111.683C173.789 111.683 169.507 111.683 162.564 111.682M173.789 111.683L162.564 111.682M88.0001 172.216L88 160.407M88.0001 172.216C88.0001 168.171 88 164.262 88 160.407M104.436 111.682C104.436 111.682 99.6255 74 133.3 74C166.172 74 162.564 111.682 162.564 111.682M104.436 111.682C107.09 111.682 109.77 111.682 112.454 111.682M104.436 111.682L112.454 111.682M162.564 111.682C160.075 111.682 157.244 111.682 154.145 111.682M162.564 111.682L154.145 111.682M112.454 111.682C112.454 111.682 108.445 82.0176 133.3 82.0176C157.352 82.0176 154.145 111.682 154.145 111.682M112.454 111.682C127.49 111.682 142.656 111.682 154.145 111.682" stroke="black" stroke-width="2.40529"/>
<path d="M126.621 154.225C126.621 151.314 127.354 148.644 128.822 146.215C130.289 143.762 132.297 141.837 134.847 140.442C135.857 139.889 136.651 139.095 137.228 138.061C137.805 137.003 138.094 135.824 138.094 134.525C138.094 133.323 137.793 132.228 137.192 131.242C136.615 130.256 135.821 129.474 134.811 128.897C133.825 128.32 132.73 128.031 131.528 128.031C130.325 128.031 129.219 128.32 128.208 128.897C127.222 129.474 126.428 130.256 125.827 131.242C125.25 132.228 124.961 133.323 124.961 134.525H114.137C114.137 131.35 114.919 128.452 116.483 125.83C118.046 123.208 120.139 121.116 122.76 119.552C125.406 117.989 128.329 117.207 131.528 117.207C134.727 117.207 137.637 117.989 140.259 119.552C142.905 121.116 145.009 123.208 146.573 125.83C148.136 128.452 148.918 131.35 148.918 134.525C148.918 137.797 148.124 140.815 146.537 143.581C144.949 146.347 142.76 148.476 139.97 149.967C139.176 150.376 138.551 150.965 138.094 151.735C137.661 152.481 137.445 153.311 137.445 154.225H126.621ZM132.61 169.594C131.095 169.594 129.808 169.065 128.75 168.007C127.715 166.949 127.198 165.65 127.198 164.11C127.198 162.619 127.715 161.356 128.75 160.322C129.808 159.288 131.095 158.771 132.61 158.771C134.101 158.771 135.364 159.288 136.398 160.322C137.433 161.356 137.95 162.619 137.95 164.11C137.95 165.65 137.433 166.949 136.398 168.007C135.364 169.065 134.101 169.594 132.61 169.594Z" fill="white"/>
</svg>
