<svg width="130" height="130" viewBox="0 0 130 130" fill="none" xmlns="http://www.w3.org/2000/svg">
<path fill-rule="evenodd" clip-rule="evenodd" d="M124.672 65.0007V65.0007L124.681 65.5976L124.708 66.1951L124.752 66.7939L124.814 67.3946L124.894 67.998L124.99 68.6045L125.102 69.2149L125.231 69.8296L125.375 70.4493L125.533 71.0744L125.705 71.7054L125.889 72.3429L126.086 72.9871L126.293 73.6384L126.509 74.2971L126.734 74.9634L126.964 75.6375L127.2 76.3195L127.439 77.0093L127.68 77.7068L127.92 78.4119L128.158 79.1243L128.391 79.8436L128.618 80.5693L128.835 81.3008L129.041 82.0375L129.234 82.7783L129.41 83.5226L129.568 84.2691L129.705 85.0168L129.819 85.7644L129.907 86.5106L129.967 87.2539L129.997 87.993L129.995 88.7262L129.959 89.4521L129.888 90.169L129.78 90.8753L129.634 91.5695L129.45 92.2501L129.225 92.9156L128.962 93.5647L128.658 94.1961L128.315 94.8086L127.933 95.4013L127.513 95.9733L127.057 96.5239L126.565 97.0527L126.04 97.5594L125.484 98.0438L124.898 98.5061L124.286 98.9464L123.65 99.3653L122.992 99.7635L122.315 100.142L121.623 100.501L120.917 100.842L120.201 101.167L119.477 101.477L118.749 101.773L118.019 102.058L117.29 102.332L116.564 102.598L115.844 102.857L115.131 103.112L114.429 103.364L113.739 103.615L113.063 103.868L112.403 104.125L111.761 104.388L111.138 104.658L110.535 104.939L109.955 105.232L109.398 105.541L108.865 105.866L108.358 106.212L107.878 106.579L107.426 106.972L107.003 107.393L106.608 107.843L106.238 108.321L105.891 108.825L105.564 109.356L105.255 109.911L104.96 110.49L104.678 111.091L104.407 111.712L104.144 112.353L103.887 113.012L103.634 113.686L103.382 114.375L103.13 115.077L102.876 115.788L102.617 116.508L102.352 117.234L102.078 117.963L101.795 118.693L101.5 119.421L101.191 120.145L100.867 120.862L100.527 121.569L100.169 122.262L99.7927 122.941L99.3962 123.6L98.9789 124.238L98.5403 124.852L98.0798 125.44L97.5972 125.999L97.0923 126.526L96.5653 127.021L96.0164 127.48L95.446 127.903L94.855 128.288L94.244 128.634L93.6141 128.941L92.9664 129.208L92.3022 129.435L91.6227 129.623L90.9295 129.772L90.2241 129.883L89.508 129.957L88.7828 129.995L88.0501 130L87.3115 129.972L86.5684 129.915L85.8224 129.829L85.0749 129.717L84.3271 129.582L83.5805 129.426L82.836 129.251L82.0949 129.059L81.3579 128.854L80.626 128.637L79.8998 128.411L79.18 128.179L78.467 127.941L77.7613 127.701L77.0632 127.46L76.3728 127.221L75.6902 126.985L75.0155 126.754L74.3485 126.529L73.6892 126.312L73.0373 126.104L72.3926 125.906L71.7546 125.721L71.1231 125.548L70.4975 125.388L69.8774 125.244L69.2623 125.114L68.6517 125L68.0448 124.902L67.4413 124.822L66.8403 124.758L66.2414 124.712L65.6438 124.684L65.047 124.674L64.4502 124.681L63.8528 124.707L63.2541 124.75L62.6535 124.811L62.0504 124.888L61.4442 124.983L60.8341 125.095L60.2198 125.222L59.6005 125.364L58.9759 125.522L58.3453 125.692L57.7084 125.876L57.0648 126.072L56.414 126.278L55.7559 126.493L55.0902 126.717L54.4167 126.948L53.7354 127.183L53.0462 127.422L52.3493 127.663L51.6448 127.903L50.933 128.141L50.2142 128.375L49.489 128.602L48.758 128.82L48.0217 129.027L47.2812 129.221L46.5372 129.399L45.7908 129.558L45.0432 129.697L44.2955 129.813L43.5492 129.903L42.8055 129.965L42.0661 129.998L41.3323 129.998L40.6058 129.965L39.8882 129.897L39.181 129.792L38.4857 129.649L37.804 129.468L37.1373 129.247L36.4868 128.986L35.854 128.685L35.24 128.345L34.6457 127.966L34.072 127.55L33.5196 127.096L32.9891 126.607L32.4806 126.085L31.9945 125.531L31.5305 124.948L31.0884 124.338L30.6678 123.703L30.268 123.047L29.8883 122.372L29.5276 121.68L29.1847 120.975L28.8585 120.26L28.5476 119.537L28.2503 118.809L27.965 118.079L27.6902 117.35L27.4238 116.624L27.1641 115.903L26.9091 115.19L26.6569 114.486L26.4054 113.795L26.1525 113.118L25.8962 112.457L25.6342 111.813L25.3643 111.188L25.0844 110.584L24.7921 110.002L24.4852 109.443L24.161 108.908L23.8173 108.399L23.4514 107.917L23.0605 107.463L22.642 107.037L22.1945 106.64L21.7189 106.269L21.2163 105.92L20.6878 105.591L20.1346 105.28L19.5578 104.985L18.9587 104.702L18.3388 104.43L17.6994 104.166L17.0421 103.909L16.3686 103.655L15.6806 103.404L14.9802 103.152L14.2692 102.898L13.55 102.639L12.8247 102.375L12.0957 102.102L11.3657 101.819L10.6372 101.525L9.91284 101.218L9.19548 100.895L8.48792 100.556L7.79301 100.2L7.1136 99.825L6.45251 99.4301L5.81252 99.0145L5.19631 98.5776L4.60646 98.1189L4.04538 97.638L3.51533 97.1349L3.01834 96.6096L2.55622 96.0624L2.13051 95.4938L1.74249 94.9044L1.39314 94.2949L1.08313 93.6665L0.812837 93.0201L0.582309 92.3572L0.391297 91.6789L0.239248 90.9867L0.125324 90.2822L0.0484171 89.5669L0.00717038 88.8424L0 88.1102L0.0251217 87.372L0.0805776 86.6292L0.164264 85.8834L0.273959 85.1359L0.407353 84.3881L0.56207 83.6413L0.735702 82.8967L0.925823 82.1552L1.13002 81.4178L1.34591 80.6855L1.57114 79.9588L1.80346 79.2385L2.04064 78.5249L2.28058 77.8186L2.52126 77.1199L2.76076 76.4288L2.99726 75.7456L3.22905 75.0703L3.45455 74.4027L3.67228 73.7428L3.88085 73.0903L4.07903 72.445L4.26564 71.8065L4.43966 71.1745L4.60013 70.5484L4.74622 69.9279L4.87717 69.3125L4.99234 68.7015L5.09118 68.0943L5.17321 67.4905L5.23804 66.8894L5.28538 66.2903L5.31502 65.6927L5.32682 65.0958L5.32072 64.499L5.29675 63.9016L5.25503 63.3031L5.19574 62.7027L5.11915 62.0998L5.02562 61.4938L4.9156 60.8841L4.7896 60.2701L4.64826 59.6512L4.49229 59.027L4.32249 58.397L4.13978 57.7606L3.94517 57.1175L3.73977 56.4673L3.52481 55.8098L3.30164 55.1447L3.07168 54.4718L2.8365 53.7911L2.59777 53.1026L2.35726 52.4062L2.11687 51.7023L1.87858 50.9911L1.64448 50.2728L1.41675 49.5481L1.19763 48.8175L0.989453 48.0816L0.794587 47.3414L0.61544 46.5976L0.454435 45.8514L0.313989 45.1038L0.196491 44.3561L0.104274 43.6096L0.0395915 42.8657L0.00458741 42.1258L0.00126927 41.3916L0.0314797 40.6644L0.096869 39.946L0.198869 39.2379L0.33867 38.5416L0.517198 37.8588L0.735096 37.1908L0.992715 36.539L1.2901 35.9047L1.62697 35.2891L2.00277 34.6932L2.4166 34.1179L2.86728 33.5638L3.35334 33.0315L3.87308 32.5213L4.4245 32.0333L5.00544 31.5676L5.61353 31.1238L6.24623 30.7015L6.9009 30.3001L7.57478 29.9187L8.26506 29.5565L8.9689 29.2123L9.68345 28.8849L10.4059 28.5727L11.1334 28.2744L11.8632 27.9883L12.5928 27.7126L13.3195 27.4456L14.0409 27.1855L14.7547 26.9302L15.4588 26.6778L16.1509 26.4264L16.8292 26.1737L17.4919 25.9177L18.1371 25.6562L18.7635 25.387L19.3693 25.108L19.9534 24.8168L20.5142 24.5111L21.0507 24.1884L21.5617 23.8463L22.046 23.4822L22.5026 23.0935L22.9303 22.6772L23.3297 22.232L23.7033 21.7586L24.0538 21.2581L24.3839 20.7317L24.6961 20.1804L24.9928 19.6054L25.2764 19.0081L25.5492 18.3897L25.8134 17.7518L26.0714 17.0958L26.3251 16.4235L26.5768 15.7367L26.8286 15.0371L27.0825 14.3269L27.3404 13.6083L27.6045 12.8833L27.8764 12.1546L28.1582 11.4246L28.4515 10.6958L28.7579 9.97103L29.0791 9.25301L29.4165 8.54456L29.7714 7.84853L30.1449 7.16777L30.5382 6.50512L30.9521 5.86334L31.3873 5.24514L31.8443 4.65309L32.3234 4.08963L32.8247 3.55703L33.3482 3.05733L33.8937 2.59236L34.4607 2.1637L35.0485 1.77264L35.6563 1.42017L36.2833 1.10701L36.9282 0.833548L37.5899 0.599856L38.2671 0.405712L38.9582 0.250585L39.6617 0.133661L40.3762 0.0538528L41.1001 0.00982116L41.8317 0L42.5695 0.0226201L43.3119 0.0757362L44.0576 0.157255L44.805 0.264964L45.5527 0.396558L46.2996 0.549667L47.0445 0.721883L47.7863 0.910781L48.524 1.11395L49.2568 1.32899L49.9839 1.55357L50.7048 1.7854L51.4188 2.02228L52.1257 2.26208L52.8251 2.50278L53.5167 2.74244L54.2006 2.97924L54.8765 3.21147L55.5447 3.43753L56.2052 3.65593L56.8583 3.86528L57.5041 4.06433L58.1431 4.25191L58.7757 4.42697L59.4022 4.58855L60.0231 4.73581L60.6389 4.868L61.2503 4.98445L61.8577 5.08461L62.4617 5.16799L63.063 5.2342L63.6622 5.28295L64.26 5.314L64.8569 5.32722L65.4537 5.32255L66.051 5.3L66.6494 5.25969L67.2496 5.20179L67.8523 5.12656L68.458 5.03437L69.0674 4.92564L69.681 4.80089L70.2994 4.66075L70.9232 4.50591L71.5528 4.33717L72.1887 4.15545L72.8312 3.96175L73.4808 3.75717L74.1377 3.54292L74.8022 3.32035L75.4744 3.09087L76.1545 2.85604L76.8424 2.61753L77.5381 2.3771L78.2414 2.13662L78.9521 1.89809L79.6698 1.66357L80.394 1.43525L81.1242 1.21536L81.8596 1.00622L82.5996 0.810205L83.3431 0.629716L84.0891 0.467176L84.8367 0.325004L85.5844 0.205591L86.331 0.111276L87.0752 0.0443198L87.8154 0.00687637L88.5502 0.000965058L89.2779 0.0284426L89.9971 0.0909756L90.7061 0.190014L91.4033 0.326769L92.0873 0.502187L92.7566 0.716936L93.4097 0.971388L94.0454 1.26561L94.6625 1.59936L95.26 1.97209L95.837 2.38293L96.3928 2.83073L96.9268 3.31405L97.4388 3.83117L97.9285 4.38016L98.396 4.95884L98.8416 5.56486L99.2656 6.1957L99.6686 6.84873L100.051 7.52119L100.415 8.21028L100.761 8.91315L101.089 9.62695L101.403 10.3488L101.702 11.076L101.989 11.8058L102.266 12.5355L102.533 13.2625L102.794 13.9845L103.049 14.699L103.302 15.4039L103.553 16.0971L103.806 16.7766L104.062 17.4405L104.323 18.0872L104.591 18.7151L104.869 19.3227L105.159 19.9085L105.464 20.4713L105.785 21.0098L106.125 21.5228L106.488 22.0093L106.874 22.4681L107.288 22.8982L107.731 23.2997L108.202 23.6753L108.701 24.0275L109.225 24.3592L109.775 24.6727L110.348 24.9705L110.943 25.2551L111.56 25.5287L112.196 25.7935L112.851 26.0519L113.522 26.3059L114.208 26.5577L114.906 26.8094L115.616 27.063L116.334 27.3206L117.058 27.5841L117.787 27.8554L118.517 28.1363L119.246 28.4286L119.971 28.7339L120.69 29.0539L121.399 29.3899L122.096 29.7434L122.778 30.1154L123.442 30.5071L124.086 30.9193L124.706 31.3528L125.3 31.808L125.866 32.2854L126.401 32.7849L126.904 33.3067L127.372 33.8504L127.803 34.4157L128.197 35.0019L128.553 35.6082L128.869 36.2337L129.146 36.8772L129.383 37.5377L129.58 38.2136L129.738 38.9037L129.858 39.6063L129.941 40.32L129.988 41.0431L130 41.7742L129.98 42.5116L129.929 43.2537L129.85 43.9992L129.744 44.7465L129.614 45.4943L129.463 46.2413L129.292 46.9864L129.104 47.7284L128.902 48.4665L128.688 49.1997L128.464 49.9273L128.233 50.6487L127.996 51.3634L127.757 52.0708L127.516 52.7708L127.276 53.4631L127.039 54.1476L126.806 54.8242L126.58 55.493L126.361 56.1541L126.151 56.8077L125.951 57.4542L125.762 58.0937L125.586 58.7267L125.423 59.3537L125.275 59.9751L125.142 60.5913L125.024 61.203L124.922 61.8107L124.838 62.415L124.77 63.0165L124.72 63.6158L124.687 64.2137L124.673 64.8107L124.672 65.0007Z" fill="white"/>
<path fill-rule="evenodd" clip-rule="evenodd" d="M124.672 65.0007V65.0007L124.681 65.5976L124.708 66.1951L124.752 66.7939L124.814 67.3946L124.894 67.998L124.99 68.6045L125.102 69.2149L125.231 69.8296L125.375 70.4493L125.533 71.0744L125.705 71.7054L125.889 72.3429L126.086 72.9871L126.293 73.6384L126.509 74.2971L126.734 74.9634L126.964 75.6375L127.2 76.3195L127.439 77.0093L127.68 77.7068L127.92 78.4119L128.158 79.1243L128.391 79.8436L128.618 80.5693L128.835 81.3008L129.041 82.0375L129.234 82.7783L129.41 83.5226L129.568 84.2691L129.705 85.0168L129.819 85.7644L129.907 86.5106L129.967 87.2539L129.997 87.993L129.995 88.7262L129.959 89.4521L129.888 90.169L129.78 90.8753L129.634 91.5695L129.45 92.2501L129.225 92.9156L128.962 93.5647L128.658 94.1961L128.315 94.8086L127.933 95.4013L127.513 95.9733L127.057 96.5239L126.565 97.0527L126.04 97.5594L125.484 98.0438L124.898 98.5061L124.286 98.9464L123.65 99.3653L122.992 99.7635L122.315 100.142L121.623 100.501L120.917 100.842L120.201 101.167L119.477 101.477L118.749 101.773L118.019 102.058L117.29 102.332L116.564 102.598L115.844 102.857L115.131 103.112L114.429 103.364L113.739 103.615L113.063 103.868L112.403 104.125L111.761 104.388L111.138 104.658L110.535 104.939L109.955 105.232L109.398 105.541L108.865 105.866L108.358 106.212L107.878 106.579L107.426 106.972L107.003 107.393L106.608 107.843L106.238 108.321L105.891 108.825L105.564 109.356L105.255 109.911L104.96 110.49L104.678 111.091L104.407 111.712L104.144 112.353L103.887 113.012L103.634 113.686L103.382 114.375L103.13 115.077L102.876 115.788L102.617 116.508L102.352 117.234L102.078 117.963L101.795 118.693L101.5 119.421L101.191 120.145L100.867 120.862L100.527 121.569L100.169 122.262L99.7927 122.941L99.3962 123.6L98.9789 124.238L98.5403 124.852L98.0798 125.44L97.5972 125.999L97.0923 126.526L96.5653 127.021L96.0164 127.48L95.446 127.903L94.855 128.288L94.244 128.634L93.6141 128.941L92.9664 129.208L92.3022 129.435L91.6227 129.623L90.9295 129.772L90.2241 129.883L89.508 129.957L88.7828 129.995L88.0501 130L87.3115 129.972L86.5684 129.915L85.8224 129.829L85.0749 129.717L84.3271 129.582L83.5805 129.426L82.836 129.251L82.0949 129.059L81.3579 128.854L80.626 128.637L79.8998 128.411L79.18 128.179L78.467 127.941L77.7613 127.701L77.0632 127.46L76.3728 127.221L75.6902 126.985L75.0155 126.754L74.3485 126.529L73.6892 126.312L73.0373 126.104L72.3926 125.906L71.7546 125.721L71.1231 125.548L70.4975 125.388L69.8774 125.244L69.2623 125.114L68.6517 125L68.0448 124.902L67.4413 124.822L66.8403 124.758L66.2414 124.712L65.6438 124.684L65.047 124.674L64.4502 124.681L63.8528 124.707L63.2541 124.75L62.6535 124.811L62.0504 124.888L61.4442 124.983L60.8341 125.095L60.2198 125.222L59.6005 125.364L58.9759 125.522L58.3453 125.692L57.7084 125.876L57.0648 126.072L56.414 126.278L55.7559 126.493L55.0902 126.717L54.4167 126.948L53.7354 127.183L53.0462 127.422L52.3493 127.663L51.6448 127.903L50.933 128.141L50.2142 128.375L49.489 128.602L48.758 128.82L48.0217 129.027L47.2812 129.221L46.5372 129.399L45.7908 129.558L45.0432 129.697L44.2955 129.813L43.5492 129.903L42.8055 129.965L42.0661 129.998L41.3323 129.998L40.6058 129.965L39.8882 129.897L39.181 129.792L38.4857 129.649L37.804 129.468L37.1373 129.247L36.4868 128.986L35.854 128.685L35.24 128.345L34.6457 127.966L34.072 127.55L33.5196 127.096L32.9891 126.607L32.4806 126.085L31.9945 125.531L31.5305 124.948L31.0884 124.338L30.6678 123.703L30.268 123.047L29.8883 122.372L29.5276 121.68L29.1847 120.975L28.8585 120.26L28.5476 119.537L28.2503 118.809L27.965 118.079L27.6902 117.35L27.4238 116.624L27.1641 115.903L26.9091 115.19L26.6569 114.486L26.4054 113.795L26.1525 113.118L25.8962 112.457L25.6342 111.813L25.3643 111.188L25.0844 110.584L24.7921 110.002L24.4852 109.443L24.161 108.908L23.8173 108.399L23.4514 107.917L23.0605 107.463L22.642 107.037L22.1945 106.64L21.7189 106.269L21.2163 105.92L20.6878 105.591L20.1346 105.28L19.5578 104.985L18.9587 104.702L18.3388 104.43L17.6994 104.166L17.0421 103.909L16.3686 103.655L15.6806 103.404L14.9802 103.152L14.2692 102.898L13.55 102.639L12.8247 102.375L12.0957 102.102L11.3657 101.819L10.6372 101.525L9.91284 101.218L9.19548 100.895L8.48792 100.556L7.79301 100.2L7.1136 99.825L6.45251 99.4301L5.81252 99.0145L5.19631 98.5776L4.60646 98.1189L4.04538 97.638L3.51533 97.1349L3.01834 96.6096L2.55622 96.0624L2.13051 95.4938L1.74249 94.9044L1.39314 94.2949L1.08313 93.6665L0.812837 93.0201L0.582309 92.3572L0.391297 91.6789L0.239248 90.9867L0.125324 90.2822L0.0484171 89.5669L0.00717038 88.8424L0 88.1102L0.0251217 87.372L0.0805776 86.6292L0.164264 85.8834L0.273959 85.1359L0.407353 84.3881L0.56207 83.6413L0.735702 82.8967L0.925823 82.1552L1.13002 81.4178L1.34591 80.6855L1.57114 79.9588L1.80346 79.2385L2.04064 78.5249L2.28058 77.8186L2.52126 77.1199L2.76076 76.4288L2.99726 75.7456L3.22905 75.0703L3.45455 74.4027L3.67228 73.7428L3.88085 73.0903L4.07903 72.445L4.26564 71.8065L4.43966 71.1745L4.60013 70.5484L4.74622 69.9279L4.87717 69.3125L4.99234 68.7015L5.09118 68.0943L5.17321 67.4905L5.23804 66.8894L5.28538 66.2903L5.31502 65.6927L5.32682 65.0958L5.32072 64.499L5.29675 63.9016L5.25503 63.3031L5.19574 62.7027L5.11915 62.0998L5.02562 61.4938L4.9156 60.8841L4.7896 60.2701L4.64826 59.6512L4.49229 59.027L4.32249 58.397L4.13978 57.7606L3.94517 57.1175L3.73977 56.4673L3.52481 55.8098L3.30164 55.1447L3.07168 54.4718L2.8365 53.7911L2.59777 53.1026L2.35726 52.4062L2.11687 51.7023L1.87858 50.9911L1.64448 50.2728L1.41675 49.5481L1.19763 48.8175L0.989453 48.0816L0.794587 47.3414L0.61544 46.5976L0.454435 45.8514L0.313989 45.1038L0.196491 44.3561L0.104274 43.6096L0.0395915 42.8657L0.00458741 42.1258L0.00126927 41.3916L0.0314797 40.6644L0.096869 39.946L0.198869 39.2379L0.33867 38.5416L0.517198 37.8588L0.735096 37.1908L0.992715 36.539L1.2901 35.9047L1.62697 35.2891L2.00277 34.6932L2.4166 34.1179L2.86728 33.5638L3.35334 33.0315L3.87308 32.5213L4.4245 32.0333L5.00544 31.5676L5.61353 31.1238L6.24623 30.7015L6.9009 30.3001L7.57478 29.9187L8.26506 29.5565L8.9689 29.2123L9.68345 28.8849L10.4059 28.5727L11.1334 28.2744L11.8632 27.9883L12.5928 27.7126L13.3195 27.4456L14.0409 27.1855L14.7547 26.9302L15.4588 26.6778L16.1509 26.4264L16.8292 26.1737L17.4919 25.9177L18.1371 25.6562L18.7635 25.387L19.3693 25.108L19.9534 24.8168L20.5142 24.5111L21.0507 24.1884L21.5617 23.8463L22.046 23.4822L22.5026 23.0935L22.9303 22.6772L23.3297 22.232L23.7033 21.7586L24.0538 21.2581L24.3839 20.7317L24.6961 20.1804L24.9928 19.6054L25.2764 19.0081L25.5492 18.3897L25.8134 17.7518L26.0714 17.0958L26.3251 16.4235L26.5768 15.7367L26.8286 15.0371L27.0825 14.3269L27.3404 13.6083L27.6045 12.8833L27.8764 12.1546L28.1582 11.4246L28.4515 10.6958L28.7579 9.97103L29.0791 9.25301L29.4165 8.54456L29.7714 7.84853L30.1449 7.16777L30.5382 6.50512L30.9521 5.86334L31.3873 5.24514L31.8443 4.65309L32.3234 4.08963L32.8247 3.55703L33.3482 3.05733L33.8937 2.59236L34.4607 2.1637L35.0485 1.77264L35.6563 1.42017L36.2833 1.10701L36.9282 0.833548L37.5899 0.599856L38.2671 0.405712L38.9582 0.250585L39.6617 0.133661L40.3762 0.0538528L41.1001 0.00982116L41.8317 0L42.5695 0.0226201L43.3119 0.0757362L44.0576 0.157255L44.805 0.264964L45.5527 0.396558L46.2996 0.549667L47.0445 0.721883L47.7863 0.910781L48.524 1.11395L49.2568 1.32899L49.9839 1.55357L50.7048 1.7854L51.4188 2.02228L52.1257 2.26208L52.8251 2.50278L53.5167 2.74244L54.2006 2.97924L54.8765 3.21147L55.5447 3.43753L56.2052 3.65593L56.8583 3.86528L57.5041 4.06433L58.1431 4.25191L58.7757 4.42697L59.4022 4.58855L60.0231 4.73581L60.6389 4.868L61.2503 4.98445L61.8577 5.08461L62.4617 5.16799L63.063 5.2342L63.6622 5.28295L64.26 5.314L64.8569 5.32722L65.4537 5.32255L66.051 5.3L66.6494 5.25969L67.2496 5.20179L67.8523 5.12656L68.458 5.03437L69.0674 4.92564L69.681 4.80089L70.2994 4.66075L70.9232 4.50591L71.5528 4.33717L72.1887 4.15545L72.8312 3.96175L73.4808 3.75717L74.1377 3.54292L74.8022 3.32035L75.4744 3.09087L76.1545 2.85604L76.8424 2.61753L77.5381 2.3771L78.2414 2.13662L78.9521 1.89809L79.6698 1.66357L80.394 1.43525L81.1242 1.21536L81.8596 1.00622L82.5996 0.810205L83.3431 0.629716L84.0891 0.467176L84.8367 0.325004L85.5844 0.205591L86.331 0.111276L87.0752 0.0443198L87.8154 0.00687637L88.5502 0.000965058L89.2779 0.0284426L89.9971 0.0909756L90.7061 0.190014L91.4033 0.326769L92.0873 0.502187L92.7566 0.716936L93.4097 0.971388L94.0454 1.26561L94.6625 1.59936L95.26 1.97209L95.837 2.38293L96.3928 2.83073L96.9268 3.31405L97.4388 3.83117L97.9285 4.38016L98.396 4.95884L98.8416 5.56486L99.2656 6.1957L99.6686 6.84873L100.051 7.52119L100.415 8.21028L100.761 8.91315L101.089 9.62695L101.403 10.3488L101.702 11.076L101.989 11.8058L102.266 12.5355L102.533 13.2625L102.794 13.9845L103.049 14.699L103.302 15.4039L103.553 16.0971L103.806 16.7766L104.062 17.4405L104.323 18.0872L104.591 18.7151L104.869 19.3227L105.159 19.9085L105.464 20.4713L105.785 21.0098L106.125 21.5228L106.488 22.0093L106.874 22.4681L107.288 22.8982L107.731 23.2997L108.202 23.6753L108.701 24.0275L109.225 24.3592L109.775 24.6727L110.348 24.9705L110.943 25.2551L111.56 25.5287L112.196 25.7935L112.851 26.0519L113.522 26.3059L114.208 26.5577L114.906 26.8094L115.616 27.063L116.334 27.3206L117.058 27.5841L117.787 27.8554L118.517 28.1363L119.246 28.4286L119.971 28.7339L120.69 29.0539L121.399 29.3899L122.096 29.7434L122.778 30.1154L123.442 30.5071L124.086 30.9193L124.706 31.3528L125.3 31.808L125.866 32.2854L126.401 32.7849L126.904 33.3067L127.372 33.8504L127.803 34.4157L128.197 35.0019L128.553 35.6082L128.869 36.2337L129.146 36.8772L129.383 37.5377L129.58 38.2136L129.738 38.9037L129.858 39.6063L129.941 40.32L129.988 41.0431L130 41.7742L129.98 42.5116L129.929 43.2537L129.85 43.9992L129.744 44.7465L129.614 45.4943L129.463 46.2413L129.292 46.9864L129.104 47.7284L128.902 48.4665L128.688 49.1997L128.464 49.9273L128.233 50.6487L127.996 51.3634L127.757 52.0708L127.516 52.7708L127.276 53.4631L127.039 54.1476L126.806 54.8242L126.58 55.493L126.361 56.1541L126.151 56.8077L125.951 57.4542L125.762 58.0937L125.586 58.7267L125.423 59.3537L125.275 59.9751L125.142 60.5913L125.024 61.203L124.922 61.8107L124.838 62.415L124.77 63.0165L124.72 63.6158L124.687 64.2137L124.673 64.8107L124.672 65.0007Z" fill="white"/>
<path fill-rule="evenodd" clip-rule="evenodd" d="M124.672 65.0007V65.0007L124.681 65.5976L124.708 66.1951L124.752 66.7939L124.814 67.3946L124.894 67.998L124.99 68.6045L125.102 69.2149L125.231 69.8296L125.375 70.4493L125.533 71.0744L125.705 71.7054L125.889 72.3429L126.086 72.9871L126.293 73.6384L126.509 74.2971L126.734 74.9634L126.964 75.6375L127.2 76.3195L127.439 77.0093L127.68 77.7068L127.92 78.4119L128.158 79.1243L128.391 79.8436L128.618 80.5693L128.835 81.3008L129.041 82.0375L129.234 82.7783L129.41 83.5226L129.568 84.2691L129.705 85.0168L129.819 85.7644L129.907 86.5106L129.967 87.2539L129.997 87.993L129.995 88.7262L129.959 89.4521L129.888 90.169L129.78 90.8753L129.634 91.5695L129.45 92.2501L129.225 92.9156L128.962 93.5647L128.658 94.1961L128.315 94.8086L127.933 95.4013L127.513 95.9733L127.057 96.5239L126.565 97.0527L126.04 97.5594L125.484 98.0438L124.898 98.5061L124.286 98.9464L123.65 99.3653L122.992 99.7635L122.315 100.142L121.623 100.501L120.917 100.842L120.201 101.167L119.477 101.477L118.749 101.773L118.019 102.058L117.29 102.332L116.564 102.598L115.844 102.857L115.131 103.112L114.429 103.364L113.739 103.615L113.063 103.868L112.403 104.125L111.761 104.388L111.138 104.658L110.535 104.939L109.955 105.232L109.398 105.541L108.865 105.866L108.358 106.212L107.878 106.579L107.426 106.972L107.003 107.393L106.608 107.843L106.238 108.321L105.891 108.825L105.564 109.356L105.255 109.911L104.96 110.49L104.678 111.091L104.407 111.712L104.144 112.353L103.887 113.012L103.634 113.686L103.382 114.375L103.13 115.077L102.876 115.788L102.617 116.508L102.352 117.234L102.078 117.963L101.795 118.693L101.5 119.421L101.191 120.145L100.867 120.862L100.527 121.569L100.169 122.262L99.7927 122.941L99.3962 123.6L98.9789 124.238L98.5403 124.852L98.0798 125.44L97.5972 125.999L97.0923 126.526L96.5653 127.021L96.0164 127.48L95.446 127.903L94.855 128.288L94.244 128.634L93.6141 128.941L92.9664 129.208L92.3022 129.435L91.6227 129.623L90.9295 129.772L90.2241 129.883L89.508 129.957L88.7828 129.995L88.0501 130L87.3115 129.972L86.5684 129.915L85.8224 129.829L85.0749 129.717L84.3271 129.582L83.5805 129.426L82.836 129.251L82.0949 129.059L81.3579 128.854L80.626 128.637L79.8998 128.411L79.18 128.179L78.467 127.941L77.7613 127.701L77.0632 127.46L76.3728 127.221L75.6902 126.985L75.0155 126.754L74.3485 126.529L73.6892 126.312L73.0373 126.104L72.3926 125.906L71.7546 125.721L71.1231 125.548L70.4975 125.388L69.8774 125.244L69.2623 125.114L68.6517 125L68.0448 124.902L67.4413 124.822L66.8403 124.758L66.2414 124.712L65.6438 124.684L65.047 124.674L64.4502 124.681L63.8528 124.707L63.2541 124.75L62.6535 124.811L62.0504 124.888L61.4442 124.983L60.8341 125.095L60.2198 125.222L59.6005 125.364L58.9759 125.522L58.3453 125.692L57.7084 125.876L57.0648 126.072L56.414 126.278L55.7559 126.493L55.0902 126.717L54.4167 126.948L53.7354 127.183L53.0462 127.422L52.3493 127.663L51.6448 127.903L50.933 128.141L50.2142 128.375L49.489 128.602L48.758 128.82L48.0217 129.027L47.2812 129.221L46.5372 129.399L45.7908 129.558L45.0432 129.697L44.2955 129.813L43.5492 129.903L42.8055 129.965L42.0661 129.998L41.3323 129.998L40.6058 129.965L39.8882 129.897L39.181 129.792L38.4857 129.649L37.804 129.468L37.1373 129.247L36.4868 128.986L35.854 128.685L35.24 128.345L34.6457 127.966L34.072 127.55L33.5196 127.096L32.9891 126.607L32.4806 126.085L31.9945 125.531L31.5305 124.948L31.0884 124.338L30.6678 123.703L30.268 123.047L29.8883 122.372L29.5276 121.68L29.1847 120.975L28.8585 120.26L28.5476 119.537L28.2503 118.809L27.965 118.079L27.6902 117.35L27.4238 116.624L27.1641 115.903L26.9091 115.19L26.6569 114.486L26.4054 113.795L26.1525 113.118L25.8962 112.457L25.6342 111.813L25.3643 111.188L25.0844 110.584L24.7921 110.002L24.4852 109.443L24.161 108.908L23.8173 108.399L23.4514 107.917L23.0605 107.463L22.642 107.037L22.1945 106.64L21.7189 106.269L21.2163 105.92L20.6878 105.591L20.1346 105.28L19.5578 104.985L18.9587 104.702L18.3388 104.43L17.6994 104.166L17.0421 103.909L16.3686 103.655L15.6806 103.404L14.9802 103.152L14.2692 102.898L13.55 102.639L12.8247 102.375L12.0957 102.102L11.3657 101.819L10.6372 101.525L9.91284 101.218L9.19548 100.895L8.48792 100.556L7.79301 100.2L7.1136 99.825L6.45251 99.4301L5.81252 99.0145L5.19631 98.5776L4.60646 98.1189L4.04538 97.638L3.51533 97.1349L3.01834 96.6096L2.55622 96.0624L2.13051 95.4938L1.74249 94.9044L1.39314 94.2949L1.08313 93.6665L0.812837 93.0201L0.582309 92.3572L0.391297 91.6789L0.239248 90.9867L0.125324 90.2822L0.0484171 89.5669L0.00717038 88.8424L0 88.1102L0.0251217 87.372L0.0805776 86.6292L0.164264 85.8834L0.273959 85.1359L0.407353 84.3881L0.56207 83.6413L0.735702 82.8967L0.925823 82.1552L1.13002 81.4178L1.34591 80.6855L1.57114 79.9588L1.80346 79.2385L2.04064 78.5249L2.28058 77.8186L2.52126 77.1199L2.76076 76.4288L2.99726 75.7456L3.22905 75.0703L3.45455 74.4027L3.67228 73.7428L3.88085 73.0903L4.07903 72.445L4.26564 71.8065L4.43966 71.1745L4.60013 70.5484L4.74622 69.9279L4.87717 69.3125L4.99234 68.7015L5.09118 68.0943L5.17321 67.4905L5.23804 66.8894L5.28538 66.2903L5.31502 65.6927L5.32682 65.0958L5.32072 64.499L5.29675 63.9016L5.25503 63.3031L5.19574 62.7027L5.11915 62.0998L5.02562 61.4938L4.9156 60.8841L4.7896 60.2701L4.64826 59.6512L4.49229 59.027L4.32249 58.397L4.13978 57.7606L3.94517 57.1175L3.73977 56.4673L3.52481 55.8098L3.30164 55.1447L3.07168 54.4718L2.8365 53.7911L2.59777 53.1026L2.35726 52.4062L2.11687 51.7023L1.87858 50.9911L1.64448 50.2728L1.41675 49.5481L1.19763 48.8175L0.989453 48.0816L0.794587 47.3414L0.61544 46.5976L0.454435 45.8514L0.313989 45.1038L0.196491 44.3561L0.104274 43.6096L0.0395915 42.8657L0.00458741 42.1258L0.00126927 41.3916L0.0314797 40.6644L0.096869 39.946L0.198869 39.2379L0.33867 38.5416L0.517198 37.8588L0.735096 37.1908L0.992715 36.539L1.2901 35.9047L1.62697 35.2891L2.00277 34.6932L2.4166 34.1179L2.86728 33.5638L3.35334 33.0315L3.87308 32.5213L4.4245 32.0333L5.00544 31.5676L5.61353 31.1238L6.24623 30.7015L6.9009 30.3001L7.57478 29.9187L8.26506 29.5565L8.9689 29.2123L9.68345 28.8849L10.4059 28.5727L11.1334 28.2744L11.8632 27.9883L12.5928 27.7126L13.3195 27.4456L14.0409 27.1855L14.7547 26.9302L15.4588 26.6778L16.1509 26.4264L16.8292 26.1737L17.4919 25.9177L18.1371 25.6562L18.7635 25.387L19.3693 25.108L19.9534 24.8168L20.5142 24.5111L21.0507 24.1884L21.5617 23.8463L22.046 23.4822L22.5026 23.0935L22.9303 22.6772L23.3297 22.232L23.7033 21.7586L24.0538 21.2581L24.3839 20.7317L24.6961 20.1804L24.9928 19.6054L25.2764 19.0081L25.5492 18.3897L25.8134 17.7518L26.0714 17.0958L26.3251 16.4235L26.5768 15.7367L26.8286 15.0371L27.0825 14.3269L27.3404 13.6083L27.6045 12.8833L27.8764 12.1546L28.1582 11.4246L28.4515 10.6958L28.7579 9.97103L29.0791 9.25301L29.4165 8.54456L29.7714 7.84853L30.1449 7.16777L30.5382 6.50512L30.9521 5.86334L31.3873 5.24514L31.8443 4.65309L32.3234 4.08963L32.8247 3.55703L33.3482 3.05733L33.8937 2.59236L34.4607 2.1637L35.0485 1.77264L35.6563 1.42017L36.2833 1.10701L36.9282 0.833548L37.5899 0.599856L38.2671 0.405712L38.9582 0.250585L39.6617 0.133661L40.3762 0.0538528L41.1001 0.00982116L41.8317 0L42.5695 0.0226201L43.3119 0.0757362L44.0576 0.157255L44.805 0.264964L45.5527 0.396558L46.2996 0.549667L47.0445 0.721883L47.7863 0.910781L48.524 1.11395L49.2568 1.32899L49.9839 1.55357L50.7048 1.7854L51.4188 2.02228L52.1257 2.26208L52.8251 2.50278L53.5167 2.74244L54.2006 2.97924L54.8765 3.21147L55.5447 3.43753L56.2052 3.65593L56.8583 3.86528L57.5041 4.06433L58.1431 4.25191L58.7757 4.42697L59.4022 4.58855L60.0231 4.73581L60.6389 4.868L61.2503 4.98445L61.8577 5.08461L62.4617 5.16799L63.063 5.2342L63.6622 5.28295L64.26 5.314L64.8569 5.32722L65.4537 5.32255L66.051 5.3L66.6494 5.25969L67.2496 5.20179L67.8523 5.12656L68.458 5.03437L69.0674 4.92564L69.681 4.80089L70.2994 4.66075L70.9232 4.50591L71.5528 4.33717L72.1887 4.15545L72.8312 3.96175L73.4808 3.75717L74.1377 3.54292L74.8022 3.32035L75.4744 3.09087L76.1545 2.85604L76.8424 2.61753L77.5381 2.3771L78.2414 2.13662L78.9521 1.89809L79.6698 1.66357L80.394 1.43525L81.1242 1.21536L81.8596 1.00622L82.5996 0.810205L83.3431 0.629716L84.0891 0.467176L84.8367 0.325004L85.5844 0.205591L86.331 0.111276L87.0752 0.0443198L87.8154 0.00687637L88.5502 0.000965058L89.2779 0.0284426L89.9971 0.0909756L90.7061 0.190014L91.4033 0.326769L92.0873 0.502187L92.7566 0.716936L93.4097 0.971388L94.0454 1.26561L94.6625 1.59936L95.26 1.97209L95.837 2.38293L96.3928 2.83073L96.9268 3.31405L97.4388 3.83117L97.9285 4.38016L98.396 4.95884L98.8416 5.56486L99.2656 6.1957L99.6686 6.84873L100.051 7.52119L100.415 8.21028L100.761 8.91315L101.089 9.62695L101.403 10.3488L101.702 11.076L101.989 11.8058L102.266 12.5355L102.533 13.2625L102.794 13.9845L103.049 14.699L103.302 15.4039L103.553 16.0971L103.806 16.7766L104.062 17.4405L104.323 18.0872L104.591 18.7151L104.869 19.3227L105.159 19.9085L105.464 20.4713L105.785 21.0098L106.125 21.5228L106.488 22.0093L106.874 22.4681L107.288 22.8982L107.731 23.2997L108.202 23.6753L108.701 24.0275L109.225 24.3592L109.775 24.6727L110.348 24.9705L110.943 25.2551L111.56 25.5287L112.196 25.7935L112.851 26.0519L113.522 26.3059L114.208 26.5577L114.906 26.8094L115.616 27.063L116.334 27.3206L117.058 27.5841L117.787 27.8554L118.517 28.1363L119.246 28.4286L119.971 28.7339L120.69 29.0539L121.399 29.3899L122.096 29.7434L122.778 30.1154L123.442 30.5071L124.086 30.9193L124.706 31.3528L125.3 31.808L125.866 32.2854L126.401 32.7849L126.904 33.3067L127.372 33.8504L127.803 34.4157L128.197 35.0019L128.553 35.6082L128.869 36.2337L129.146 36.8772L129.383 37.5377L129.58 38.2136L129.738 38.9037L129.858 39.6063L129.941 40.32L129.988 41.0431L130 41.7742L129.98 42.5116L129.929 43.2537L129.85 43.9992L129.744 44.7465L129.614 45.4943L129.463 46.2413L129.292 46.9864L129.104 47.7284L128.902 48.4665L128.688 49.1997L128.464 49.9273L128.233 50.6487L127.996 51.3634L127.757 52.0708L127.516 52.7708L127.276 53.4631L127.039 54.1476L126.806 54.8242L126.58 55.493L126.361 56.1541L126.151 56.8077L125.951 57.4542L125.762 58.0937L125.586 58.7267L125.423 59.3537L125.275 59.9751L125.142 60.5913L125.024 61.203L124.922 61.8107L124.838 62.415L124.77 63.0165L124.72 63.6158L124.687 64.2137L124.673 64.8107L124.672 65.0007Z" fill="white"/>
<path fill-rule="evenodd" clip-rule="evenodd" d="M124.672 65.0007V65.0007L124.681 65.5976L124.708 66.1951L124.752 66.7939L124.814 67.3946L124.894 67.998L124.99 68.6045L125.102 69.2149L125.231 69.8296L125.375 70.4493L125.533 71.0744L125.705 71.7054L125.889 72.3429L126.086 72.9871L126.293 73.6384L126.509 74.2971L126.734 74.9634L126.964 75.6375L127.2 76.3195L127.439 77.0093L127.68 77.7068L127.92 78.4119L128.158 79.1243L128.391 79.8436L128.618 80.5693L128.835 81.3008L129.041 82.0375L129.234 82.7783L129.41 83.5226L129.568 84.2691L129.705 85.0168L129.819 85.7644L129.907 86.5106L129.967 87.2539L129.997 87.993L129.995 88.7262L129.959 89.4521L129.888 90.169L129.78 90.8753L129.634 91.5695L129.45 92.2501L129.225 92.9156L128.962 93.5647L128.658 94.1961L128.315 94.8086L127.933 95.4013L127.513 95.9733L127.057 96.5239L126.565 97.0527L126.04 97.5594L125.484 98.0438L124.898 98.5061L124.286 98.9464L123.65 99.3653L122.992 99.7635L122.315 100.142L121.623 100.501L120.917 100.842L120.201 101.167L119.477 101.477L118.749 101.773L118.019 102.058L117.29 102.332L116.564 102.598L115.844 102.857L115.131 103.112L114.429 103.364L113.739 103.615L113.063 103.868L112.403 104.125L111.761 104.388L111.138 104.658L110.535 104.939L109.955 105.232L109.398 105.541L108.865 105.866L108.358 106.212L107.878 106.579L107.426 106.972L107.003 107.393L106.608 107.843L106.238 108.321L105.891 108.825L105.564 109.356L105.255 109.911L104.96 110.49L104.678 111.091L104.407 111.712L104.144 112.353L103.887 113.012L103.634 113.686L103.382 114.375L103.13 115.077L102.876 115.788L102.617 116.508L102.352 117.234L102.078 117.963L101.795 118.693L101.5 119.421L101.191 120.145L100.867 120.862L100.527 121.569L100.169 122.262L99.7927 122.941L99.3962 123.6L98.9789 124.238L98.5403 124.852L98.0798 125.44L97.5972 125.999L97.0923 126.526L96.5653 127.021L96.0164 127.48L95.446 127.903L94.855 128.288L94.244 128.634L93.6141 128.941L92.9664 129.208L92.3022 129.435L91.6227 129.623L90.9295 129.772L90.2241 129.883L89.508 129.957L88.7828 129.995L88.0501 130L87.3115 129.972L86.5684 129.915L85.8224 129.829L85.0749 129.717L84.3271 129.582L83.5805 129.426L82.836 129.251L82.0949 129.059L81.3579 128.854L80.626 128.637L79.8998 128.411L79.18 128.179L78.467 127.941L77.7613 127.701L77.0632 127.46L76.3728 127.221L75.6902 126.985L75.0155 126.754L74.3485 126.529L73.6892 126.312L73.0373 126.104L72.3926 125.906L71.7546 125.721L71.1231 125.548L70.4975 125.388L69.8774 125.244L69.2623 125.114L68.6517 125L68.0448 124.902L67.4413 124.822L66.8403 124.758L66.2414 124.712L65.6438 124.684L65.047 124.674L64.4502 124.681L63.8528 124.707L63.2541 124.75L62.6535 124.811L62.0504 124.888L61.4442 124.983L60.8341 125.095L60.2198 125.222L59.6005 125.364L58.9759 125.522L58.3453 125.692L57.7084 125.876L57.0648 126.072L56.414 126.278L55.7559 126.493L55.0902 126.717L54.4167 126.948L53.7354 127.183L53.0462 127.422L52.3493 127.663L51.6448 127.903L50.933 128.141L50.2142 128.375L49.489 128.602L48.758 128.82L48.0217 129.027L47.2812 129.221L46.5372 129.399L45.7908 129.558L45.0432 129.697L44.2955 129.813L43.5492 129.903L42.8055 129.965L42.0661 129.998L41.3323 129.998L40.6058 129.965L39.8882 129.897L39.181 129.792L38.4857 129.649L37.804 129.468L37.1373 129.247L36.4868 128.986L35.854 128.685L35.24 128.345L34.6457 127.966L34.072 127.55L33.5196 127.096L32.9891 126.607L32.4806 126.085L31.9945 125.531L31.5305 124.948L31.0884 124.338L30.6678 123.703L30.268 123.047L29.8883 122.372L29.5276 121.68L29.1847 120.975L28.8585 120.26L28.5476 119.537L28.2503 118.809L27.965 118.079L27.6902 117.35L27.4238 116.624L27.1641 115.903L26.9091 115.19L26.6569 114.486L26.4054 113.795L26.1525 113.118L25.8962 112.457L25.6342 111.813L25.3643 111.188L25.0844 110.584L24.7921 110.002L24.4852 109.443L24.161 108.908L23.8173 108.399L23.4514 107.917L23.0605 107.463L22.642 107.037L22.1945 106.64L21.7189 106.269L21.2163 105.92L20.6878 105.591L20.1346 105.28L19.5578 104.985L18.9587 104.702L18.3388 104.43L17.6994 104.166L17.0421 103.909L16.3686 103.655L15.6806 103.404L14.9802 103.152L14.2692 102.898L13.55 102.639L12.8247 102.375L12.0957 102.102L11.3657 101.819L10.6372 101.525L9.91284 101.218L9.19548 100.895L8.48792 100.556L7.79301 100.2L7.1136 99.825L6.45251 99.4301L5.81252 99.0145L5.19631 98.5776L4.60646 98.1189L4.04538 97.638L3.51533 97.1349L3.01834 96.6096L2.55622 96.0624L2.13051 95.4938L1.74249 94.9044L1.39314 94.2949L1.08313 93.6665L0.812837 93.0201L0.582309 92.3572L0.391297 91.6789L0.239248 90.9867L0.125324 90.2822L0.0484171 89.5669L0.00717038 88.8424L0 88.1102L0.0251217 87.372L0.0805776 86.6292L0.164264 85.8834L0.273959 85.1359L0.407353 84.3881L0.56207 83.6413L0.735702 82.8967L0.925823 82.1552L1.13002 81.4178L1.34591 80.6855L1.57114 79.9588L1.80346 79.2385L2.04064 78.5249L2.28058 77.8186L2.52126 77.1199L2.76076 76.4288L2.99726 75.7456L3.22905 75.0703L3.45455 74.4027L3.67228 73.7428L3.88085 73.0903L4.07903 72.445L4.26564 71.8065L4.43966 71.1745L4.60013 70.5484L4.74622 69.9279L4.87717 69.3125L4.99234 68.7015L5.09118 68.0943L5.17321 67.4905L5.23804 66.8894L5.28538 66.2903L5.31502 65.6927L5.32682 65.0958L5.32072 64.499L5.29675 63.9016L5.25503 63.3031L5.19574 62.7027L5.11915 62.0998L5.02562 61.4938L4.9156 60.8841L4.7896 60.2701L4.64826 59.6512L4.49229 59.027L4.32249 58.397L4.13978 57.7606L3.94517 57.1175L3.73977 56.4673L3.52481 55.8098L3.30164 55.1447L3.07168 54.4718L2.8365 53.7911L2.59777 53.1026L2.35726 52.4062L2.11687 51.7023L1.87858 50.9911L1.64448 50.2728L1.41675 49.5481L1.19763 48.8175L0.989453 48.0816L0.794587 47.3414L0.61544 46.5976L0.454435 45.8514L0.313989 45.1038L0.196491 44.3561L0.104274 43.6096L0.0395915 42.8657L0.00458741 42.1258L0.00126927 41.3916L0.0314797 40.6644L0.096869 39.946L0.198869 39.2379L0.33867 38.5416L0.517198 37.8588L0.735096 37.1908L0.992715 36.539L1.2901 35.9047L1.62697 35.2891L2.00277 34.6932L2.4166 34.1179L2.86728 33.5638L3.35334 33.0315L3.87308 32.5213L4.4245 32.0333L5.00544 31.5676L5.61353 31.1238L6.24623 30.7015L6.9009 30.3001L7.57478 29.9187L8.26506 29.5565L8.9689 29.2123L9.68345 28.8849L10.4059 28.5727L11.1334 28.2744L11.8632 27.9883L12.5928 27.7126L13.3195 27.4456L14.0409 27.1855L14.7547 26.9302L15.4588 26.6778L16.1509 26.4264L16.8292 26.1737L17.4919 25.9177L18.1371 25.6562L18.7635 25.387L19.3693 25.108L19.9534 24.8168L20.5142 24.5111L21.0507 24.1884L21.5617 23.8463L22.046 23.4822L22.5026 23.0935L22.9303 22.6772L23.3297 22.232L23.7033 21.7586L24.0538 21.2581L24.3839 20.7317L24.6961 20.1804L24.9928 19.6054L25.2764 19.0081L25.5492 18.3897L25.8134 17.7518L26.0714 17.0958L26.3251 16.4235L26.5768 15.7367L26.8286 15.0371L27.0825 14.3269L27.3404 13.6083L27.6045 12.8833L27.8764 12.1546L28.1582 11.4246L28.4515 10.6958L28.7579 9.97103L29.0791 9.25301L29.4165 8.54456L29.7714 7.84853L30.1449 7.16777L30.5382 6.50512L30.9521 5.86334L31.3873 5.24514L31.8443 4.65309L32.3234 4.08963L32.8247 3.55703L33.3482 3.05733L33.8937 2.59236L34.4607 2.1637L35.0485 1.77264L35.6563 1.42017L36.2833 1.10701L36.9282 0.833548L37.5899 0.599856L38.2671 0.405712L38.9582 0.250585L39.6617 0.133661L40.3762 0.0538528L41.1001 0.00982116L41.8317 0L42.5695 0.0226201L43.3119 0.0757362L44.0576 0.157255L44.805 0.264964L45.5527 0.396558L46.2996 0.549667L47.0445 0.721883L47.7863 0.910781L48.524 1.11395L49.2568 1.32899L49.9839 1.55357L50.7048 1.7854L51.4188 2.02228L52.1257 2.26208L52.8251 2.50278L53.5167 2.74244L54.2006 2.97924L54.8765 3.21147L55.5447 3.43753L56.2052 3.65593L56.8583 3.86528L57.5041 4.06433L58.1431 4.25191L58.7757 4.42697L59.4022 4.58855L60.0231 4.73581L60.6389 4.868L61.2503 4.98445L61.8577 5.08461L62.4617 5.16799L63.063 5.2342L63.6622 5.28295L64.26 5.314L64.8569 5.32722L65.4537 5.32255L66.051 5.3L66.6494 5.25969L67.2496 5.20179L67.8523 5.12656L68.458 5.03437L69.0674 4.92564L69.681 4.80089L70.2994 4.66075L70.9232 4.50591L71.5528 4.33717L72.1887 4.15545L72.8312 3.96175L73.4808 3.75717L74.1377 3.54292L74.8022 3.32035L75.4744 3.09087L76.1545 2.85604L76.8424 2.61753L77.5381 2.3771L78.2414 2.13662L78.9521 1.89809L79.6698 1.66357L80.394 1.43525L81.1242 1.21536L81.8596 1.00622L82.5996 0.810205L83.3431 0.629716L84.0891 0.467176L84.8367 0.325004L85.5844 0.205591L86.331 0.111276L87.0752 0.0443198L87.8154 0.00687637L88.5502 0.000965058L89.2779 0.0284426L89.9971 0.0909756L90.7061 0.190014L91.4033 0.326769L92.0873 0.502187L92.7566 0.716936L93.4097 0.971388L94.0454 1.26561L94.6625 1.59936L95.26 1.97209L95.837 2.38293L96.3928 2.83073L96.9268 3.31405L97.4388 3.83117L97.9285 4.38016L98.396 4.95884L98.8416 5.56486L99.2656 6.1957L99.6686 6.84873L100.051 7.52119L100.415 8.21028L100.761 8.91315L101.089 9.62695L101.403 10.3488L101.702 11.076L101.989 11.8058L102.266 12.5355L102.533 13.2625L102.794 13.9845L103.049 14.699L103.302 15.4039L103.553 16.0971L103.806 16.7766L104.062 17.4405L104.323 18.0872L104.591 18.7151L104.869 19.3227L105.159 19.9085L105.464 20.4713L105.785 21.0098L106.125 21.5228L106.488 22.0093L106.874 22.4681L107.288 22.8982L107.731 23.2997L108.202 23.6753L108.701 24.0275L109.225 24.3592L109.775 24.6727L110.348 24.9705L110.943 25.2551L111.56 25.5287L112.196 25.7935L112.851 26.0519L113.522 26.3059L114.208 26.5577L114.906 26.8094L115.616 27.063L116.334 27.3206L117.058 27.5841L117.787 27.8554L118.517 28.1363L119.246 28.4286L119.971 28.7339L120.69 29.0539L121.399 29.3899L122.096 29.7434L122.778 30.1154L123.442 30.5071L124.086 30.9193L124.706 31.3528L125.3 31.808L125.866 32.2854L126.401 32.7849L126.904 33.3067L127.372 33.8504L127.803 34.4157L128.197 35.0019L128.553 35.6082L128.869 36.2337L129.146 36.8772L129.383 37.5377L129.58 38.2136L129.738 38.9037L129.858 39.6063L129.941 40.32L129.988 41.0431L130 41.7742L129.98 42.5116L129.929 43.2537L129.85 43.9992L129.744 44.7465L129.614 45.4943L129.463 46.2413L129.292 46.9864L129.104 47.7284L128.902 48.4665L128.688 49.1997L128.464 49.9273L128.233 50.6487L127.996 51.3634L127.757 52.0708L127.516 52.7708L127.276 53.4631L127.039 54.1476L126.806 54.8242L126.58 55.493L126.361 56.1541L126.151 56.8077L125.951 57.4542L125.762 58.0937L125.586 58.7267L125.423 59.3537L125.275 59.9751L125.142 60.5913L125.024 61.203L124.922 61.8107L124.838 62.415L124.77 63.0165L124.72 63.6158L124.687 64.2137L124.673 64.8107L124.672 65.0007Z" fill="white"/>
<path fill-rule="evenodd" clip-rule="evenodd" d="M124.672 65.0007V65.0007L124.681 65.5976L124.708 66.1951L124.752 66.7939L124.814 67.3946L124.894 67.998L124.99 68.6045L125.102 69.2149L125.231 69.8296L125.375 70.4493L125.533 71.0744L125.705 71.7054L125.889 72.3429L126.086 72.9871L126.293 73.6384L126.509 74.2971L126.734 74.9634L126.964 75.6375L127.2 76.3195L127.439 77.0093L127.68 77.7068L127.92 78.4119L128.158 79.1243L128.391 79.8436L128.618 80.5693L128.835 81.3008L129.041 82.0375L129.234 82.7783L129.41 83.5226L129.568 84.2691L129.705 85.0168L129.819 85.7644L129.907 86.5106L129.967 87.2539L129.997 87.993L129.995 88.7262L129.959 89.4521L129.888 90.169L129.78 90.8753L129.634 91.5695L129.45 92.2501L129.225 92.9156L128.962 93.5647L128.658 94.1961L128.315 94.8086L127.933 95.4013L127.513 95.9733L127.057 96.5239L126.565 97.0527L126.04 97.5594L125.484 98.0438L124.898 98.5061L124.286 98.9464L123.65 99.3653L122.992 99.7635L122.315 100.142L121.623 100.501L120.917 100.842L120.201 101.167L119.477 101.477L118.749 101.773L118.019 102.058L117.29 102.332L116.564 102.598L115.844 102.857L115.131 103.112L114.429 103.364L113.739 103.615L113.063 103.868L112.403 104.125L111.761 104.388L111.138 104.658L110.535 104.939L109.955 105.232L109.398 105.541L108.865 105.866L108.358 106.212L107.878 106.579L107.426 106.972L107.003 107.393L106.608 107.843L106.238 108.321L105.891 108.825L105.564 109.356L105.255 109.911L104.96 110.49L104.678 111.091L104.407 111.712L104.144 112.353L103.887 113.012L103.634 113.686L103.382 114.375L103.13 115.077L102.876 115.788L102.617 116.508L102.352 117.234L102.078 117.963L101.795 118.693L101.5 119.421L101.191 120.145L100.867 120.862L100.527 121.569L100.169 122.262L99.7927 122.941L99.3962 123.6L98.9789 124.238L98.5403 124.852L98.0798 125.44L97.5972 125.999L97.0923 126.526L96.5653 127.021L96.0164 127.48L95.446 127.903L94.855 128.288L94.244 128.634L93.6141 128.941L92.9664 129.208L92.3022 129.435L91.6227 129.623L90.9295 129.772L90.2241 129.883L89.508 129.957L88.7828 129.995L88.0501 130L87.3115 129.972L86.5684 129.915L85.8224 129.829L85.0749 129.717L84.3271 129.582L83.5805 129.426L82.836 129.251L82.0949 129.059L81.3579 128.854L80.626 128.637L79.8998 128.411L79.18 128.179L78.467 127.941L77.7613 127.701L77.0632 127.46L76.3728 127.221L75.6902 126.985L75.0155 126.754L74.3485 126.529L73.6892 126.312L73.0373 126.104L72.3926 125.906L71.7546 125.721L71.1231 125.548L70.4975 125.388L69.8774 125.244L69.2623 125.114L68.6517 125L68.0448 124.902L67.4413 124.822L66.8403 124.758L66.2414 124.712L65.6438 124.684L65.047 124.674L64.4502 124.681L63.8528 124.707L63.2541 124.75L62.6535 124.811L62.0504 124.888L61.4442 124.983L60.8341 125.095L60.2198 125.222L59.6005 125.364L58.9759 125.522L58.3453 125.692L57.7084 125.876L57.0648 126.072L56.414 126.278L55.7559 126.493L55.0902 126.717L54.4167 126.948L53.7354 127.183L53.0462 127.422L52.3493 127.663L51.6448 127.903L50.933 128.141L50.2142 128.375L49.489 128.602L48.758 128.82L48.0217 129.027L47.2812 129.221L46.5372 129.399L45.7908 129.558L45.0432 129.697L44.2955 129.813L43.5492 129.903L42.8055 129.965L42.0661 129.998L41.3323 129.998L40.6058 129.965L39.8882 129.897L39.181 129.792L38.4857 129.649L37.804 129.468L37.1373 129.247L36.4868 128.986L35.854 128.685L35.24 128.345L34.6457 127.966L34.072 127.55L33.5196 127.096L32.9891 126.607L32.4806 126.085L31.9945 125.531L31.5305 124.948L31.0884 124.338L30.6678 123.703L30.268 123.047L29.8883 122.372L29.5276 121.68L29.1847 120.975L28.8585 120.26L28.5476 119.537L28.2503 118.809L27.965 118.079L27.6902 117.35L27.4238 116.624L27.1641 115.903L26.9091 115.19L26.6569 114.486L26.4054 113.795L26.1525 113.118L25.8962 112.457L25.6342 111.813L25.3643 111.188L25.0844 110.584L24.7921 110.002L24.4852 109.443L24.161 108.908L23.8173 108.399L23.4514 107.917L23.0605 107.463L22.642 107.037L22.1945 106.64L21.7189 106.269L21.2163 105.92L20.6878 105.591L20.1346 105.28L19.5578 104.985L18.9587 104.702L18.3388 104.43L17.6994 104.166L17.0421 103.909L16.3686 103.655L15.6806 103.404L14.9802 103.152L14.2692 102.898L13.55 102.639L12.8247 102.375L12.0957 102.102L11.3657 101.819L10.6372 101.525L9.91284 101.218L9.19548 100.895L8.48792 100.556L7.79301 100.2L7.1136 99.825L6.45251 99.4301L5.81252 99.0145L5.19631 98.5776L4.60646 98.1189L4.04538 97.638L3.51533 97.1349L3.01834 96.6096L2.55622 96.0624L2.13051 95.4938L1.74249 94.9044L1.39314 94.2949L1.08313 93.6665L0.812837 93.0201L0.582309 92.3572L0.391297 91.6789L0.239248 90.9867L0.125324 90.2822L0.0484171 89.5669L0.00717038 88.8424L0 88.1102L0.0251217 87.372L0.0805776 86.6292L0.164264 85.8834L0.273959 85.1359L0.407353 84.3881L0.56207 83.6413L0.735702 82.8967L0.925823 82.1552L1.13002 81.4178L1.34591 80.6855L1.57114 79.9588L1.80346 79.2385L2.04064 78.5249L2.28058 77.8186L2.52126 77.1199L2.76076 76.4288L2.99726 75.7456L3.22905 75.0703L3.45455 74.4027L3.67228 73.7428L3.88085 73.0903L4.07903 72.445L4.26564 71.8065L4.43966 71.1745L4.60013 70.5484L4.74622 69.9279L4.87717 69.3125L4.99234 68.7015L5.09118 68.0943L5.17321 67.4905L5.23804 66.8894L5.28538 66.2903L5.31502 65.6927L5.32682 65.0958L5.32072 64.499L5.29675 63.9016L5.25503 63.3031L5.19574 62.7027L5.11915 62.0998L5.02562 61.4938L4.9156 60.8841L4.7896 60.2701L4.64826 59.6512L4.49229 59.027L4.32249 58.397L4.13978 57.7606L3.94517 57.1175L3.73977 56.4673L3.52481 55.8098L3.30164 55.1447L3.07168 54.4718L2.8365 53.7911L2.59777 53.1026L2.35726 52.4062L2.11687 51.7023L1.87858 50.9911L1.64448 50.2728L1.41675 49.5481L1.19763 48.8175L0.989453 48.0816L0.794587 47.3414L0.61544 46.5976L0.454435 45.8514L0.313989 45.1038L0.196491 44.3561L0.104274 43.6096L0.0395915 42.8657L0.00458741 42.1258L0.00126927 41.3916L0.0314797 40.6644L0.096869 39.946L0.198869 39.2379L0.33867 38.5416L0.517198 37.8588L0.735096 37.1908L0.992715 36.539L1.2901 35.9047L1.62697 35.2891L2.00277 34.6932L2.4166 34.1179L2.86728 33.5638L3.35334 33.0315L3.87308 32.5213L4.4245 32.0333L5.00544 31.5676L5.61353 31.1238L6.24623 30.7015L6.9009 30.3001L7.57478 29.9187L8.26506 29.5565L8.9689 29.2123L9.68345 28.8849L10.4059 28.5727L11.1334 28.2744L11.8632 27.9883L12.5928 27.7126L13.3195 27.4456L14.0409 27.1855L14.7547 26.9302L15.4588 26.6778L16.1509 26.4264L16.8292 26.1737L17.4919 25.9177L18.1371 25.6562L18.7635 25.387L19.3693 25.108L19.9534 24.8168L20.5142 24.5111L21.0507 24.1884L21.5617 23.8463L22.046 23.4822L22.5026 23.0935L22.9303 22.6772L23.3297 22.232L23.7033 21.7586L24.0538 21.2581L24.3839 20.7317L24.6961 20.1804L24.9928 19.6054L25.2764 19.0081L25.5492 18.3897L25.8134 17.7518L26.0714 17.0958L26.3251 16.4235L26.5768 15.7367L26.8286 15.0371L27.0825 14.3269L27.3404 13.6083L27.6045 12.8833L27.8764 12.1546L28.1582 11.4246L28.4515 10.6958L28.7579 9.97103L29.0791 9.25301L29.4165 8.54456L29.7714 7.84853L30.1449 7.16777L30.5382 6.50512L30.9521 5.86334L31.3873 5.24514L31.8443 4.65309L32.3234 4.08963L32.8247 3.55703L33.3482 3.05733L33.8937 2.59236L34.4607 2.1637L35.0485 1.77264L35.6563 1.42017L36.2833 1.10701L36.9282 0.833548L37.5899 0.599856L38.2671 0.405712L38.9582 0.250585L39.6617 0.133661L40.3762 0.0538528L41.1001 0.00982116L41.8317 0L42.5695 0.0226201L43.3119 0.0757362L44.0576 0.157255L44.805 0.264964L45.5527 0.396558L46.2996 0.549667L47.0445 0.721883L47.7863 0.910781L48.524 1.11395L49.2568 1.32899L49.9839 1.55357L50.7048 1.7854L51.4188 2.02228L52.1257 2.26208L52.8251 2.50278L53.5167 2.74244L54.2006 2.97924L54.8765 3.21147L55.5447 3.43753L56.2052 3.65593L56.8583 3.86528L57.5041 4.06433L58.1431 4.25191L58.7757 4.42697L59.4022 4.58855L60.0231 4.73581L60.6389 4.868L61.2503 4.98445L61.8577 5.08461L62.4617 5.16799L63.063 5.2342L63.6622 5.28295L64.26 5.314L64.8569 5.32722L65.4537 5.32255L66.051 5.3L66.6494 5.25969L67.2496 5.20179L67.8523 5.12656L68.458 5.03437L69.0674 4.92564L69.681 4.80089L70.2994 4.66075L70.9232 4.50591L71.5528 4.33717L72.1887 4.15545L72.8312 3.96175L73.4808 3.75717L74.1377 3.54292L74.8022 3.32035L75.4744 3.09087L76.1545 2.85604L76.8424 2.61753L77.5381 2.3771L78.2414 2.13662L78.9521 1.89809L79.6698 1.66357L80.394 1.43525L81.1242 1.21536L81.8596 1.00622L82.5996 0.810205L83.3431 0.629716L84.0891 0.467176L84.8367 0.325004L85.5844 0.205591L86.331 0.111276L87.0752 0.0443198L87.8154 0.00687637L88.5502 0.000965058L89.2779 0.0284426L89.9971 0.0909756L90.7061 0.190014L91.4033 0.326769L92.0873 0.502187L92.7566 0.716936L93.4097 0.971388L94.0454 1.26561L94.6625 1.59936L95.26 1.97209L95.837 2.38293L96.3928 2.83073L96.9268 3.31405L97.4388 3.83117L97.9285 4.38016L98.396 4.95884L98.8416 5.56486L99.2656 6.1957L99.6686 6.84873L100.051 7.52119L100.415 8.21028L100.761 8.91315L101.089 9.62695L101.403 10.3488L101.702 11.076L101.989 11.8058L102.266 12.5355L102.533 13.2625L102.794 13.9845L103.049 14.699L103.302 15.4039L103.553 16.0971L103.806 16.7766L104.062 17.4405L104.323 18.0872L104.591 18.7151L104.869 19.3227L105.159 19.9085L105.464 20.4713L105.785 21.0098L106.125 21.5228L106.488 22.0093L106.874 22.4681L107.288 22.8982L107.731 23.2997L108.202 23.6753L108.701 24.0275L109.225 24.3592L109.775 24.6727L110.348 24.9705L110.943 25.2551L111.56 25.5287L112.196 25.7935L112.851 26.0519L113.522 26.3059L114.208 26.5577L114.906 26.8094L115.616 27.063L116.334 27.3206L117.058 27.5841L117.787 27.8554L118.517 28.1363L119.246 28.4286L119.971 28.7339L120.69 29.0539L121.399 29.3899L122.096 29.7434L122.778 30.1154L123.442 30.5071L124.086 30.9193L124.706 31.3528L125.3 31.808L125.866 32.2854L126.401 32.7849L126.904 33.3067L127.372 33.8504L127.803 34.4157L128.197 35.0019L128.553 35.6082L128.869 36.2337L129.146 36.8772L129.383 37.5377L129.58 38.2136L129.738 38.9037L129.858 39.6063L129.941 40.32L129.988 41.0431L130 41.7742L129.98 42.5116L129.929 43.2537L129.85 43.9992L129.744 44.7465L129.614 45.4943L129.463 46.2413L129.292 46.9864L129.104 47.7284L128.902 48.4665L128.688 49.1997L128.464 49.9273L128.233 50.6487L127.996 51.3634L127.757 52.0708L127.516 52.7708L127.276 53.4631L127.039 54.1476L126.806 54.8242L126.58 55.493L126.361 56.1541L126.151 56.8077L125.951 57.4542L125.762 58.0937L125.586 58.7267L125.423 59.3537L125.275 59.9751L125.142 60.5913L125.024 61.203L124.922 61.8107L124.838 62.415L124.77 63.0165L124.72 63.6158L124.687 64.2137L124.673 64.8107L124.672 65.0007Z" fill="white"/>
</svg>
