<svg width="151" height="146" viewBox="0 0 151 146" fill="none" xmlns="http://www.w3.org/2000/svg">
<path fill-rule="evenodd" clip-rule="evenodd" d="M141.628 73.5083V73.5083L139.163 74.101L137.314 74.6574L135.979 75.1928L135.078 75.7192L134.551 76.2468L134.35 76.7838L134.434 77.3372L134.767 77.9127L135.316 78.5149L136.048 79.147L136.927 79.811L137.919 80.5071L138.981 81.2336L140.073 81.987L141.149 82.7618L142.164 83.5504L143.073 84.3438L143.838 85.1318L144.425 85.9043L144.812 86.6513L144.988 87.3647L144.954 88.0383L144.724 88.6688L144.319 89.2559L143.772 89.802L143.118 90.3121L142.396 90.7933L141.642 91.254L140.892 91.7034L140.176 92.1511L139.52 92.6064L138.944 93.078L138.465 93.5739L138.093 94.101L137.833 94.6647L137.685 95.2692L137.647 95.917L137.708 96.6084L137.856 97.3417L138.073 98.1127L138.336 98.9144L138.619 99.737L138.892 100.568L139.121 101.391L139.271 102.19L139.311 102.945L139.21 103.638L138.943 104.251L138.495 104.771L137.86 105.186L137.043 105.492L136.06 105.693L134.936 105.794L133.705 105.812L132.403 105.762L131.07 105.667L129.747 105.55L128.471 105.436L127.275 105.348L126.191 105.311L125.246 105.347L124.465 105.481L123.871 105.735L123.487 106.135L123.336 106.708L123.447 107.487L123.851 108.51L124.592 109.825L125.723 111.493L126.513 112.93L124.338 111.895L122.641 111.211L121.337 110.828L120.361 110.708L119.662 110.82L119.199 111.141L118.937 111.652L118.847 112.335L118.899 113.171L119.067 114.143L119.322 115.228L119.636 116.404L119.979 117.644L120.322 118.916L120.632 120.189L120.882 121.426L121.042 122.595L121.092 123.661L121.013 124.599L120.796 125.388L120.44 126.015L119.95 126.479L119.341 126.788L118.631 126.957L117.843 127.009L117.002 126.971L116.131 126.873L115.253 126.745L114.389 126.616L113.555 126.512L112.764 126.456L112.027 126.466L111.347 126.559L110.73 126.745L110.174 127.031L109.678 127.42L109.235 127.91L108.839 128.496L108.481 129.166L108.148 129.906L107.828 130.694L107.507 131.506L107.17 132.311L106.801 133.077L106.385 133.768L105.911 134.348L105.368 134.786L104.749 135.053L104.053 135.13L103.283 135.009L102.445 134.69L101.552 134.188L100.618 133.527L99.6606 132.739L98.6956 131.863L97.7397 130.941L96.8077 130.016L95.912 129.13L95.0626 128.323L94.2672 127.632L93.5311 127.092L92.8578 126.737L92.2491 126.598L91.7061 126.711L91.2291 127.112L90.818 127.844L90.4731 128.96L90.1952 130.526L89.9862 132.629L89.4912 133.337L88.5289 131.282L87.6965 129.779L86.9638 128.741L86.3073 128.1L85.708 127.804L85.1504 127.81L84.6212 128.083L84.1091 128.59L83.6043 129.3L83.0982 130.179L82.5833 131.195L82.0537 132.31L81.5044 133.485L80.9322 134.677L80.3357 135.84L79.7149 136.928L79.0721 137.9L78.4111 138.717L77.7369 139.349L77.0557 139.777L76.3739 139.992L75.6975 140L75.0319 139.817L74.3808 139.468L73.7465 138.986L73.1297 138.409L72.5293 137.775L71.9429 137.12L71.3669 136.478L70.7968 135.88L70.2276 135.351L69.6542 134.909L69.0713 134.57L68.474 134.343L67.858 134.232L67.2195 134.237L66.5558 134.352L65.8655 134.567L65.1486 134.868L64.4068 135.234L63.6441 135.641L62.8665 136.059L62.0822 136.456L61.3017 136.795L60.5371 137.041L59.8017 137.159L59.1092 137.119L58.4723 136.896L57.9017 136.477L57.4049 135.859L56.9856 135.05L56.643 134.069L56.3719 132.948L56.1629 131.721L56.0031 130.43L55.8773 129.117L55.7684 127.825L55.6586 126.593L55.5293 125.457L55.3621 124.451L55.1383 123.603L54.8387 122.941L54.4432 122.491L53.9301 122.28L53.2746 122.337L52.4476 122.697L51.4137 123.402L50.1284 124.504L48.5338 126.077L48.1519 125.521L48.7033 123.44L49.0011 121.845L49.078 120.656L48.958 119.809L48.66 119.254L48.199 118.95L47.5885 118.862L46.8409 118.958L45.9695 119.208L44.9889 119.582L43.9161 120.049L42.7709 120.577L41.5765 121.131L40.3588 121.677L39.1466 122.179L37.9698 122.603L36.8577 122.918L35.8374 123.098L34.9315 123.126L34.1561 122.991L33.5196 122.694L33.022 122.244L32.6552 121.658L32.4042 120.959L32.2484 120.175L32.1636 119.334L32.124 118.464L32.1037 117.593L32.078 116.742L32.0245 115.931L31.9237 115.177L31.7596 114.488L31.5192 113.873L31.1934 113.335L30.7766 112.874L30.2671 112.487L29.667 112.167L28.9825 111.904L28.2243 111.688L27.4077 111.504L26.5527 111.334L25.6836 111.159L24.8292 110.96L24.0211 110.715L23.2922 110.406L22.6753 110.014L22.1997 109.525L21.8893 108.931L21.76 108.228L21.8177 107.421L22.0575 106.519L22.4639 105.538L23.0122 104.497L23.6701 103.42L24.4003 102.329L25.163 101.247L25.9179 100.195L26.6256 99.1924L27.2488 98.2536L27.7524 97.3918L28.103 96.6174L28.2683 95.939L28.2156 95.3636L27.9101 94.8979L27.3127 94.549L26.3774 94.3248L25.0472 94.2358L23.2494 94.2956L20.8881 94.5233L21.8233 93.548L23.5007 92.3462L24.6825 91.3483L25.4431 90.5139L25.8395 89.8115L25.9166 89.2156L25.7117 88.7053L25.2572 88.2623L24.5831 87.8708L23.7194 87.5162L22.6971 87.185L21.55 86.8642L20.315 86.542L19.0327 86.2069L17.7465 85.8488L16.5017 85.4589L15.3431 85.0305L14.3127 84.559L13.4466 84.0424L12.772 83.4816L12.3053 82.8801L12.0507 82.2434L12 81.5789L12.1339 80.8946L12.4241 80.1987L12.8364 79.4989L13.333 78.8018L13.8756 78.1123L14.4278 77.4339L14.9561 76.7684L15.432 76.1162L15.8313 75.4763L16.1357 74.8467L16.3315 74.2245L16.4106 73.6066L16.3696 72.9893L16.2103 72.3688L15.9393 71.7419L15.5685 71.1056L15.1147 70.4574L14.6001 69.7962L14.0521 69.1218L13.5026 68.4355L12.9873 67.7403L12.544 67.0408L12.2109 66.3429L12.0238 65.654L12.0132 64.9823L12.2014 64.3359L12.6003 63.7224L13.2099 63.1482L14.0175 62.6173L14.9991 62.1315L16.1212 61.6897L17.3433 61.2883L18.6213 60.9209L19.9097 60.5795L21.1643 60.2544L22.3436 59.9344L23.4094 59.6079L24.3271 59.2621L25.0649 58.8839L25.5925 58.459L25.8803 57.972L25.8968 57.4055L25.6065 56.7395L24.9674 55.9502L23.9269 55.0083L22.4169 53.8765L20.3466 52.5063L22.5637 52.6679L24.5293 52.7788L25.9997 52.7354L27.0539 52.5531L27.7535 52.2429L28.1475 51.8137L28.2768 51.2725L28.1773 50.6261L27.8823 49.8814L27.4238 49.0465L26.835 48.1309L26.1503 47.1468L25.4062 46.1088L24.6417 45.0345L23.8967 43.9441L23.2116 42.8599L22.6246 41.805L22.1699 40.8026L21.8748 39.8733L21.7581 39.0344L21.828 38.2977L22.082 37.669L22.5071 37.1475L23.0821 36.726L23.7787 36.392L24.5652 36.1289L25.4084 35.9175L26.2761 35.7373L27.1385 35.5679L27.9697 35.3898L28.7484 35.1854L29.4577 34.9393L30.0856 34.6388L30.6244 34.2735L31.0707 33.8364L31.425 33.3231L31.6918 32.7326L31.879 32.067L31.9984 31.3323L32.0649 30.5381L32.0972 29.6984L32.1167 28.8311L32.1474 27.9581L32.2149 27.1048L32.3453 26.2992L32.5636 25.5701L32.8915 24.9454L33.3462 24.4498L33.9381 24.1028L34.6698 23.916L35.5355 23.8925L36.5215 24.0258L37.6071 24.3003L38.7665 24.6926L39.9707 25.1733L41.1898 25.709L42.3946 26.2646L43.5582 26.8047L44.6563 27.2947L45.6683 27.7018L46.5761 27.9946L47.3646 28.1429L48.0202 28.1168L48.5302 27.8851L48.8816 27.4141L49.0601 26.6649L49.0483 25.5907L48.8239 24.1333L48.3575 22.2174L47.949 20.3252L49.6573 22.0663L51.0341 23.3101L52.1426 24.1349L53.0313 24.5995L53.738 24.7492L54.2937 24.6204L54.7241 24.2435L55.052 23.6462L55.2978 22.8545L55.481 21.8953L55.6204 20.7973L55.7344 19.5923L55.8416 18.3152L55.9601 17.0048L56.1073 15.7023L56.2991 14.4504L56.5493 13.2908L56.8683 12.2619L57.2629 11.3956L57.7351 10.715L58.2829 10.2323L58.8998 9.94816L59.5759 9.85173L60.299 9.92222L61.0558 10.1311L61.8326 10.4446L62.6169 10.8269L63.3977 11.2419L64.1659 11.6557L64.9149 12.0378L65.64 12.3619L66.3389 12.6064L67.0109 12.7549L67.6572 12.7956L68.28 12.7218L68.8828 12.5313L69.4698 12.2271L70.0457 11.8169L70.6156 11.3134L71.1849 10.7348L71.7585 10.1043L72.3412 9.45016L72.9368 8.80523L73.5482 8.20574L74.1768 7.68972L74.8227 7.29479L75.4841 7.05542L76.1576 7L76.8383 7.14809L77.5204 7.50823L78.1975 8.0767L78.8633 8.83759L79.5124 9.76396L80.1405 10.8201L80.7449 11.9642L81.3247 13.1514L81.881 14.3364L82.4165 15.4754L82.9354 16.5271L83.4436 17.4539L83.9479 18.2209L84.4567 18.7957L84.9793 19.1467L85.5265 19.242L86.111 19.0466L86.7474 18.5206L87.4535 17.6151L88.2513 16.2687L89.1684 14.4009L89.9346 13.5877L90.121 15.884L90.3772 17.6105L90.7009 18.8619L91.091 19.7101L91.547 20.2113L92.069 20.4114L92.6568 20.3492L93.3097 20.0592L94.0261 19.5746L94.8031 18.9282L95.636 18.1542L96.5179 17.2892L97.4396 16.3722L98.3894 15.4447L99.3532 14.5495L100.315 13.7291L101.258 13.0236L102.166 12.4678L103.023 12.0887L103.816 11.9035L104.536 11.9179L105.179 12.1263L105.746 12.5122L106.241 13.0505L106.674 13.7099L107.056 14.4556L107.402 15.2521L107.727 16.0652L108.045 16.864L108.372 17.6216L108.722 18.3159L109.105 18.9299L109.531 19.4513L110.01 19.8729L110.547 20.1916L111.144 20.4089L111.804 20.5304L112.523 20.5657L113.298 20.5289L114.119 20.4376L114.976 20.3137L115.851 20.1823L116.726 20.0717L117.58 20.0114L118.387 20.0316L119.125 20.1606L119.768 20.4226L120.298 20.8361L120.698 21.4113L120.959 22.1493L121.081 23.0414L121.071 24.0698L120.944 25.2091L120.72 26.4284L120.425 27.6936L120.09 28.9698L119.743 30.2232L119.417 31.4226L119.14 32.5396L118.941 33.5497L118.849 34.4312L118.891 35.1648L119.095 35.7324L119.49 36.1163L120.11 36.2975L120.993 36.2537L122.187 35.9579L123.751 35.3751L125.762 34.4587L126.176 34.9047L124.906 36.7022L124.048 38.1222L123.542 39.2323L123.342 40.0843L123.412 40.7194L123.725 41.1715L124.255 41.4693L124.979 41.6387L125.874 41.7035L126.916 41.6871L128.079 41.6127L129.334 41.5041L130.646 41.3855L131.98 41.2811L133.296 41.2147L134.554 41.2084L135.716 41.2815L136.747 41.4493L137.619 41.7216L138.313 42.1023L138.82 42.5891L139.144 43.1736L139.295 43.8429L139.298 44.5803L139.179 45.3673L138.971 46.185L138.709 47.0152L138.426 47.842L138.153 48.6516L137.919 49.4332L137.746 50.1791L137.656 50.8842L137.662 51.5459L137.774 52.164L137.998 52.7403L138.335 53.2785L138.781 53.7837L139.327 54.2622L139.959 54.7218L140.659 55.1709L141.401 55.6188L142.158 56.0749L142.894 56.5485L143.574 57.0486L144.159 57.5826L144.612 58.1562L144.901 58.7728L145 59.4329L144.892 60.1341L144.571 60.8713L144.046 61.6366L143.334 62.4208L142.467 63.2136L141.481 64.0048L140.42 64.7848L139.328 65.5458L138.251 66.2814L137.233 66.9874L136.313 67.6616L135.531 68.3038L134.92 68.9152L134.515 69.4988L134.348 70.0586L134.454 70.6002L134.872 71.1299L135.648 71.6557L136.837 72.1871L138.512 72.7353L140.768 73.3145L141.628 73.5083Z" fill="white"/>
<path d="M141.628 73.5083V73.5083ZM141.628 73.5083L139.163 74.101L137.314 74.6574L135.979 75.1928L135.078 75.7192L134.551 76.2468L134.35 76.7838L134.434 77.3372L134.767 77.9127L135.316 78.5149L136.048 79.147L136.927 79.811L137.919 80.5071L138.981 81.2336L140.073 81.987L141.149 82.7618L142.164 83.5504L143.073 84.3438L143.838 85.1318L144.425 85.9043L144.812 86.6513L144.988 87.3647L144.954 88.0383L144.724 88.6688L144.319 89.2559L143.772 89.802L143.118 90.3121L142.396 90.7933L141.642 91.254L140.892 91.7034L140.176 92.1511L139.52 92.6064L138.944 93.078L138.465 93.5739L138.093 94.101L137.833 94.6647L137.685 95.2692L137.647 95.917L137.708 96.6084L137.856 97.3417L138.073 98.1127L138.336 98.9144L138.619 99.737L138.892 100.568L139.121 101.391L139.271 102.19L139.311 102.945L139.21 103.638L138.943 104.251L138.495 104.771L137.86 105.186L137.043 105.492L136.06 105.693L134.936 105.794L133.705 105.812L132.403 105.762L131.07 105.667L129.747 105.55L128.471 105.436L127.275 105.348L126.191 105.311L125.246 105.347L124.465 105.481L123.871 105.735L123.487 106.135L123.336 106.708L123.447 107.487L123.851 108.51L124.592 109.825L125.723 111.493L126.513 112.93L124.338 111.895L122.641 111.211L121.337 110.828L120.361 110.708L119.662 110.82L119.199 111.141L118.937 111.652L118.847 112.335L118.899 113.171L119.067 114.143L119.322 115.228L119.636 116.404L119.979 117.644L120.322 118.916L120.632 120.189L120.882 121.426L121.042 122.595L121.092 123.661L121.013 124.599L120.796 125.388L120.44 126.015L119.95 126.479L119.341 126.788L118.631 126.957L117.843 127.009L117.002 126.971L116.131 126.873L115.253 126.745L114.389 126.616L113.555 126.512L112.764 126.456L112.027 126.466L111.347 126.559L110.73 126.745L110.174 127.031L109.678 127.42L109.235 127.91L108.839 128.496L108.481 129.166L108.148 129.906L107.828 130.694L107.507 131.506L107.17 132.311L106.801 133.077L106.385 133.768L105.911 134.348L105.368 134.786L104.749 135.053L104.053 135.13L103.283 135.009L102.445 134.69L101.552 134.188L100.618 133.527L99.6606 132.739L98.6956 131.863L97.7397 130.941L96.8077 130.016L95.912 129.13L95.0626 128.323L94.2672 127.632L93.5311 127.092L92.8578 126.737L92.2491 126.598L91.7061 126.711L91.2291 127.112L90.818 127.844L90.4731 128.96L90.1952 130.526L89.9862 132.629L89.4912 133.337L88.5289 131.282L87.6965 129.779L86.9638 128.741L86.3073 128.1L85.708 127.804L85.1504 127.81L84.6212 128.083L84.1091 128.59L83.6043 129.3L83.0982 130.179L82.5833 131.195L82.0537 132.31L81.5044 133.485L80.9322 134.677L80.3357 135.84L79.7149 136.928L79.0721 137.9L78.4111 138.717L77.7369 139.349L77.0557 139.777L76.3739 139.992L75.6975 140L75.0319 139.817L74.3808 139.468L73.7465 138.986L73.1297 138.409L72.5293 137.775L71.9429 137.12L71.3669 136.478L70.7968 135.88L70.2276 135.351L69.6542 134.909L69.0713 134.57L68.474 134.343L67.858 134.232L67.2195 134.237L66.5558 134.352L65.8655 134.567L65.1486 134.868L64.4068 135.234L63.6441 135.641L62.8665 136.059L62.0822 136.456L61.3017 136.795L60.5371 137.041L59.8017 137.159L59.1092 137.119L58.4723 136.896L57.9017 136.477L57.4049 135.859L56.9856 135.05L56.643 134.069L56.3719 132.948L56.1629 131.721L56.0031 130.43L55.8773 129.117L55.7684 127.825L55.6586 126.593L55.5293 125.457L55.3621 124.451L55.1383 123.603L54.8387 122.941L54.4432 122.491L53.9301 122.28L53.2746 122.337L52.4476 122.697L51.4137 123.402L50.1284 124.504L48.5338 126.077L48.1519 125.521L48.7033 123.44L49.0011 121.845L49.078 120.656L48.958 119.809L48.66 119.254L48.199 118.95L47.5885 118.862L46.8409 118.958L45.9695 119.208L44.9889 119.582L43.9161 120.049L42.7709 120.577L41.5765 121.131L40.3588 121.677L39.1466 122.179L37.9698 122.603L36.8577 122.918L35.8374 123.098L34.9315 123.126L34.1561 122.991L33.5196 122.694L33.022 122.244L32.6552 121.658L32.4042 120.959L32.2484 120.175L32.1636 119.334L32.124 118.464L32.1037 117.593L32.078 116.742L32.0245 115.931L31.9237 115.177L31.7596 114.488L31.5192 113.873L31.1934 113.335L30.7766 112.874L30.2671 112.487L29.667 112.167L28.9825 111.904L28.2243 111.688L27.4077 111.504L26.5527 111.334L25.6836 111.159L24.8292 110.96L24.0211 110.715L23.2922 110.406L22.6753 110.014L22.1997 109.525L21.8893 108.931L21.76 108.228L21.8177 107.421L22.0575 106.519L22.4639 105.538L23.0122 104.497L23.6701 103.42L24.4003 102.329L25.163 101.247L25.9179 100.195L26.6256 99.1924L27.2488 98.2536L27.7524 97.3918L28.103 96.6174L28.2683 95.939L28.2156 95.3636L27.9101 94.8979L27.3127 94.549L26.3774 94.3248L25.0472 94.2358L23.2494 94.2956L20.8881 94.5233L21.8233 93.548L23.5007 92.3462L24.6825 91.3483L25.4431 90.5139L25.8395 89.8115L25.9166 89.2156L25.7117 88.7053L25.2572 88.2623L24.5831 87.8708L23.7194 87.5162L22.6971 87.185L21.55 86.8642L20.315 86.542L19.0327 86.2069L17.7465 85.8488L16.5017 85.4589L15.3431 85.0305L14.3127 84.559L13.4466 84.0424L12.772 83.4816L12.3053 82.8801L12.0507 82.2434L12 81.5789L12.1339 80.8946L12.4241 80.1987L12.8364 79.4989L13.333 78.8018L13.8756 78.1123L14.4278 77.4339L14.9561 76.7684L15.432 76.1162L15.8313 75.4763L16.1357 74.8467L16.3315 74.2245L16.4106 73.6066L16.3696 72.9893L16.2103 72.3688L15.9393 71.7419L15.5685 71.1056L15.1147 70.4574L14.6001 69.7962L14.0521 69.1218L13.5026 68.4355L12.9873 67.7403L12.544 67.0408L12.2109 66.3429L12.0238 65.654L12.0132 64.9823L12.2014 64.3359L12.6003 63.7224L13.2099 63.1482L14.0175 62.6173L14.9991 62.1315L16.1212 61.6897L17.3433 61.2883L18.6213 60.9209L19.9097 60.5795L21.1643 60.2544L22.3436 59.9344L23.4094 59.6079L24.3271 59.2621L25.0649 58.8839L25.5925 58.459L25.8803 57.972L25.8968 57.4055L25.6065 56.7395L24.9674 55.9502L23.9269 55.0083L22.4169 53.8765L20.3466 52.5063L22.5637 52.6679L24.5293 52.7788L25.9997 52.7354L27.0539 52.5531L27.7535 52.2429L28.1475 51.8137L28.2768 51.2725L28.1773 50.6261L27.8823 49.8814L27.4238 49.0465L26.835 48.1309L26.1503 47.1468L25.4062 46.1088L24.6417 45.0345L23.8967 43.9441L23.2116 42.8599L22.6246 41.805L22.1699 40.8026L21.8748 39.8733L21.7581 39.0344L21.828 38.2977L22.082 37.669L22.5071 37.1475L23.0821 36.726L23.7787 36.392L24.5652 36.1289L25.4084 35.9175L26.2761 35.7373L27.1385 35.5679L27.9697 35.3898L28.7484 35.1854L29.4577 34.9393L30.0856 34.6388L30.6244 34.2735L31.0707 33.8364L31.425 33.3231L31.6918 32.7326L31.879 32.067L31.9984 31.3323L32.0649 30.5381L32.0972 29.6984L32.1167 28.8311L32.1474 27.9581L32.2149 27.1048L32.3453 26.2992L32.5636 25.5701L32.8915 24.9454L33.3462 24.4498L33.9381 24.1028L34.6698 23.916L35.5355 23.8925L36.5215 24.0258L37.6071 24.3003L38.7665 24.6926L39.9707 25.1733L41.1898 25.709L42.3946 26.2646L43.5582 26.8047L44.6563 27.2947L45.6683 27.7018L46.5761 27.9946L47.3646 28.1429L48.0202 28.1168L48.5302 27.8851L48.8816 27.4141L49.0601 26.6649L49.0483 25.5907L48.8239 24.1333L48.3575 22.2174L47.949 20.3252L49.6573 22.0663L51.0341 23.3101L52.1426 24.1349L53.0313 24.5995L53.738 24.7492L54.2937 24.6204L54.7241 24.2435L55.052 23.6462L55.2978 22.8545L55.481 21.8953L55.6204 20.7973L55.7344 19.5923L55.8416 18.3152L55.9601 17.0048L56.1073 15.7023L56.2991 14.4504L56.5493 13.2908L56.8683 12.2619L57.2629 11.3956L57.7351 10.715L58.2829 10.2323L58.8998 9.94816L59.5759 9.85173L60.299 9.92222L61.0558 10.1311L61.8326 10.4446L62.6169 10.8269L63.3977 11.2419L64.1659 11.6557L64.9149 12.0378L65.64 12.3619L66.3389 12.6064L67.0109 12.7549L67.6572 12.7956L68.28 12.7218L68.8828 12.5313L69.4698 12.2271L70.0457 11.8169L70.6156 11.3134L71.1849 10.7348L71.7585 10.1043L72.3412 9.45016L72.9368 8.80523L73.5482 8.20574L74.1768 7.68972L74.8227 7.29479L75.4841 7.05542L76.1576 7L76.8383 7.14809L77.5204 7.50823L78.1975 8.0767L78.8633 8.83759L79.5124 9.76396L80.1405 10.8201L80.7449 11.9642L81.3247 13.1514L81.881 14.3364L82.4165 15.4754L82.9354 16.5271L83.4436 17.4539L83.9479 18.2209L84.4567 18.7957L84.9793 19.1467L85.5265 19.242L86.111 19.0466L86.7474 18.5206L87.4535 17.6151L88.2513 16.2687L89.1684 14.4009L89.9346 13.5877L90.121 15.884L90.3772 17.6105L90.7009 18.8619L91.091 19.7101L91.547 20.2113L92.069 20.4114L92.6568 20.3492L93.3097 20.0592L94.0261 19.5746L94.8031 18.9282L95.636 18.1542L96.5179 17.2892L97.4396 16.3722L98.3894 15.4447L99.3532 14.5495L100.315 13.7291L101.258 13.0236L102.166 12.4678L103.023 12.0887L103.816 11.9035L104.536 11.9179L105.179 12.1263L105.746 12.5122L106.241 13.0505L106.674 13.7099L107.056 14.4556L107.402 15.2521L107.727 16.0652L108.045 16.864L108.372 17.6216L108.722 18.3159L109.105 18.9299L109.531 19.4513L110.01 19.8729L110.547 20.1916L111.144 20.4089L111.804 20.5304L112.523 20.5657L113.298 20.5289L114.119 20.4376L114.976 20.3137L115.851 20.1823L116.726 20.0717L117.58 20.0114L118.387 20.0316L119.125 20.1606L119.768 20.4226L120.298 20.8361L120.698 21.4113L120.959 22.1493L121.081 23.0414L121.071 24.0698L120.944 25.2091L120.72 26.4284L120.425 27.6936L120.09 28.9698L119.743 30.2232L119.417 31.4226L119.14 32.5396L118.941 33.5497L118.849 34.4312L118.891 35.1648L119.095 35.7324L119.49 36.1163L120.11 36.2975L120.993 36.2537L122.187 35.9579L123.751 35.3751L125.762 34.4587L126.176 34.9047L124.906 36.7022L124.048 38.1222L123.542 39.2323L123.342 40.0843L123.412 40.7194L123.725 41.1715L124.255 41.4693L124.979 41.6387L125.874 41.7035L126.916 41.6871L128.079 41.6127L129.334 41.5041L130.646 41.3855L131.98 41.2811L133.296 41.2147L134.554 41.2084L135.716 41.2815L136.747 41.4493L137.619 41.7216L138.313 42.1023L138.82 42.5891L139.144 43.1736L139.295 43.8429L139.298 44.5803L139.179 45.3673L138.971 46.185L138.709 47.0152L138.426 47.842L138.153 48.6516L137.919 49.4332L137.746 50.1791L137.656 50.8842L137.662 51.5459L137.774 52.164L137.998 52.7403L138.335 53.2785L138.781 53.7837L139.327 54.2622L139.959 54.7218L140.659 55.1709L141.401 55.6188L142.158 56.0749L142.894 56.5485L143.574 57.0486L144.159 57.5826L144.612 58.1562L144.901 58.7728L145 59.4329L144.892 60.1341L144.571 60.8713L144.046 61.6366L143.334 62.4208L142.467 63.2136L141.481 64.0048L140.42 64.7848L139.328 65.5458L138.251 66.2814L137.233 66.9874L136.313 67.6616L135.531 68.3038L134.92 68.9152L134.515 69.4988L134.348 70.0586L134.454 70.6002L134.872 71.1299L135.648 71.6557L136.837 72.1871L138.512 72.7353L140.768 73.3145L141.628 73.5083Z" stroke="white" stroke-width="10.8807"/>
</svg>
