<svg width="295" height="262" viewBox="0 0 295 262" fill="none" xmlns="http://www.w3.org/2000/svg">
<mask id="path-1-inside-1_77_196" fill="white">
<path fill-rule="evenodd" clip-rule="evenodd" d="M276.724 151.88C288.102 137.341 294.568 120.667 294.568 102.941C294.568 46.4076 228.804 0.578613 147.679 0.578613C66.5542 0.578613 0.789551 46.4076 0.789551 102.941C0.789551 120.667 7.25564 137.341 18.6339 151.88V244.306C18.6339 253.921 26.4282 261.715 36.043 261.715H259.315C268.93 261.715 276.724 253.921 276.724 244.306V151.88Z"/>
</mask>
<path fill-rule="evenodd" clip-rule="evenodd" d="M276.724 151.88C288.102 137.341 294.568 120.667 294.568 102.941C294.568 46.4076 228.804 0.578613 147.679 0.578613C66.5542 0.578613 0.789551 46.4076 0.789551 102.941C0.789551 120.667 7.25564 137.341 18.6339 151.88V244.306C18.6339 253.921 26.4282 261.715 36.043 261.715H259.315C268.93 261.715 276.724 253.921 276.724 244.306V151.88Z" fill="white"/>
<path d="M276.724 151.88L268.849 145.717L266.724 148.432V151.88H276.724ZM18.6339 151.88H28.6339V148.432L26.5089 145.717L18.6339 151.88ZM284.568 102.941C284.568 118.122 279.055 132.676 268.849 145.717L284.599 158.043C297.149 142.007 304.568 123.212 304.568 102.941H284.568ZM147.679 10.5786C186.451 10.5786 221.121 21.5464 245.828 38.7641C270.57 56.0059 284.568 78.8532 284.568 102.941H304.568C304.568 70.4949 285.684 42.1613 257.263 22.3553C228.807 2.52528 190.032 -9.42139 147.679 -9.42139V10.5786ZM10.7896 102.941C10.7896 78.8532 24.7878 56.0059 49.5298 38.7641C74.2372 21.5464 108.907 10.5786 147.679 10.5786V-9.42139C105.326 -9.42139 66.5512 2.52528 38.0951 22.3553C9.67357 42.1613 -9.21045 70.4949 -9.21045 102.941H10.7896ZM26.5089 145.717C16.3028 132.676 10.7896 118.122 10.7896 102.941H-9.21045C-9.21045 123.212 -1.79153 142.007 10.7588 158.043L26.5089 145.717ZM28.6339 244.306V151.88H8.63386V244.306H28.6339ZM36.043 251.715C31.951 251.715 28.6339 248.398 28.6339 244.306H8.63386C8.63386 259.444 20.9053 271.715 36.043 271.715V251.715ZM259.315 251.715H36.043V271.715H259.315V251.715ZM266.724 244.306C266.724 248.398 263.407 251.715 259.315 251.715V271.715C274.452 271.715 286.724 259.444 286.724 244.306H266.724ZM266.724 151.88V244.306H286.724V151.88H266.724Z" fill="#194C63" mask="url(#path-1-inside-1_77_196)"/>
<path d="M192.396 121.088C191.381 119.918 188.789 118.683 188.789 118.683L177.564 118.682L169.145 118.682C157.656 118.682 142.49 118.682 127.454 118.682L119.436 118.682L108.212 118.683C106.608 118.683 105.697 119.276 104.604 120.687C103.746 121.794 103 123.296 103 124.696C103 140.657 103 153.686 103 167.407L103 179.216C103 180.478 103.775 181.872 104.604 182.824C105.716 184.101 108.212 184.427 108.212 184.427H188.789C188.789 184.427 191.376 183.443 192.396 182.423C193.417 181.402 194 179.216 194 179.216V124.696C194 124.696 193.423 122.27 192.396 121.088Z" fill="#194C63"/>
<path d="M148.3 81C114.626 81 119.436 118.682 119.436 118.682L127.454 118.682C127.454 118.682 123.445 89.0176 148.3 89.0176C172.352 89.0176 169.145 118.682 169.145 118.682L177.564 118.682C177.564 118.682 181.172 81 148.3 81Z" fill="#194C63"/>
<path d="M108.212 118.683C106.608 118.683 105.697 119.276 104.604 120.687C103.746 121.794 103 123.296 103 124.696C103 140.657 103 153.686 103 167.407M108.212 118.683C111.857 118.683 115.62 118.682 119.436 118.682M108.212 118.683L119.436 118.682M188.789 118.683C188.789 118.683 191.381 119.918 192.396 121.088C193.423 122.27 194 124.696 194 124.696V179.216C194 179.216 193.417 181.402 192.396 182.423C191.376 183.443 188.789 184.427 188.789 184.427H108.212C108.212 184.427 105.716 184.101 104.604 182.824C103.775 181.872 103 180.478 103 179.216M188.789 118.683C188.789 118.683 184.507 118.683 177.564 118.682M188.789 118.683L177.564 118.682M103 179.216L103 167.407M103 179.216C103 175.171 103 171.262 103 167.407M119.436 118.682C119.436 118.682 114.626 81 148.3 81C181.172 81 177.564 118.682 177.564 118.682M119.436 118.682C122.09 118.682 124.77 118.682 127.454 118.682M119.436 118.682L127.454 118.682M177.564 118.682C175.075 118.682 172.244 118.682 169.145 118.682M177.564 118.682L169.145 118.682M127.454 118.682C127.454 118.682 123.445 89.0176 148.3 89.0176C172.352 89.0176 169.145 118.682 169.145 118.682M127.454 118.682C142.49 118.682 157.656 118.682 169.145 118.682" stroke="black" stroke-width="2.40529"/>
<path d="M141.621 161.225C141.621 158.314 142.354 155.644 143.822 153.215C145.289 150.762 147.297 148.837 149.847 147.442C150.857 146.889 151.651 146.095 152.228 145.061C152.805 144.003 153.094 142.824 153.094 141.525C153.094 140.323 152.793 139.228 152.192 138.242C151.615 137.256 150.821 136.474 149.811 135.897C148.825 135.32 147.73 135.031 146.528 135.031C145.325 135.031 144.219 135.32 143.208 135.897C142.222 136.474 141.428 137.256 140.827 138.242C140.25 139.228 139.961 140.323 139.961 141.525H129.137C129.137 138.35 129.919 135.452 131.483 132.83C133.046 130.208 135.139 128.116 137.76 126.552C140.406 124.989 143.329 124.207 146.528 124.207C149.727 124.207 152.637 124.989 155.259 126.552C157.905 128.116 160.009 130.208 161.573 132.83C163.136 135.452 163.918 138.35 163.918 141.525C163.918 144.797 163.124 147.815 161.537 150.581C159.949 153.347 157.76 155.476 154.97 156.967C154.176 157.376 153.551 157.965 153.094 158.735C152.661 159.481 152.445 160.311 152.445 161.225H141.621ZM147.61 176.594C146.095 176.594 144.808 176.065 143.75 175.007C142.715 173.949 142.198 172.65 142.198 171.11C142.198 169.619 142.715 168.356 143.75 167.322C144.808 166.288 146.095 165.771 147.61 165.771C149.101 165.771 150.364 166.288 151.398 167.322C152.433 168.356 152.95 169.619 152.95 171.11C152.95 172.65 152.433 173.949 151.398 175.007C150.364 176.065 149.101 176.594 147.61 176.594Z" fill="white"/>
</svg>
