<svg width="262" height="262" viewBox="0 0 262 262" fill="none" xmlns="http://www.w3.org/2000/svg">
<mask id="path-1-inside-1_77_187" fill="white">
<path fill-rule="evenodd" clip-rule="evenodd" d="M241.439 129.34C252.479 115.756 259.057 98.6663 259.057 80.1012C259.057 35.8625 221.706 0 175.632 0C158.587 0 142.736 4.90801 129.528 13.3324C116.321 4.90804 100.47 5.16221e-05 83.4251 5.16221e-05C37.3507 5.16221e-05 0 35.8626 0 80.1013C0 99.8042 7.40891 117.846 19.6977 131.797C8.65767 145.381 2.07983 162.47 2.07983 181.035C2.07983 225.274 39.4305 261.137 85.5049 261.137C102.55 261.137 118.4 256.229 131.608 247.804C144.816 256.229 160.667 261.137 177.712 261.137C223.786 261.137 261.137 225.274 261.137 181.035C261.137 161.333 253.728 143.291 241.439 129.34Z"/>
</mask>
<path fill-rule="evenodd" clip-rule="evenodd" d="M241.439 129.34C252.479 115.756 259.057 98.6663 259.057 80.1012C259.057 35.8625 221.706 0 175.632 0C158.587 0 142.736 4.90801 129.528 13.3324C116.321 4.90804 100.47 5.16221e-05 83.4251 5.16221e-05C37.3507 5.16221e-05 0 35.8626 0 80.1013C0 99.8042 7.40891 117.846 19.6977 131.797C8.65767 145.381 2.07983 162.47 2.07983 181.035C2.07983 225.274 39.4305 261.137 85.5049 261.137C102.55 261.137 118.4 256.229 131.608 247.804C144.816 256.229 160.667 261.137 177.712 261.137C223.786 261.137 261.137 225.274 261.137 181.035C261.137 161.333 253.728 143.291 241.439 129.34Z" fill="white"/>
<path d="M241.439 129.34L233.679 123.032L228.341 129.599L233.935 135.949L241.439 129.34ZM129.528 13.3324L124.151 21.7634L129.528 25.1935L134.906 21.7634L129.528 13.3324ZM19.6977 131.797L27.4578 138.104L32.795 131.538L27.2018 125.187L19.6977 131.797ZM131.608 247.804L136.986 239.373L131.608 235.943L126.23 239.373L131.608 247.804ZM249.199 135.647C261.611 120.376 269.057 101.083 269.057 80.1012H249.057C249.057 96.2495 243.347 111.137 233.679 123.032L249.199 135.647ZM269.057 80.1012C269.057 29.9604 226.842 -10 175.632 -10V10C216.57 10 249.057 41.7647 249.057 80.1012H269.057ZM175.632 -10C156.648 -10 138.936 -4.52934 124.151 4.90147L134.906 21.7634C146.536 14.3454 160.526 10 175.632 10V-10ZM134.906 4.90146C120.121 -4.52931 102.409 -9.99995 83.4251 -9.99995V10.0001C98.5307 10.0001 112.521 14.3454 124.151 21.7634L134.906 4.90146ZM83.4251 -9.99995C32.2149 -9.99995 -10 29.9604 -10 80.1013H10C10 41.7647 42.4864 10.0001 83.4251 10.0001V-9.99995ZM-10 80.1013C-10 102.374 -1.61147 122.734 12.1936 138.407L27.2018 125.187C16.4293 112.957 10 97.2346 10 80.1013H-10ZM12.0798 181.035C12.0798 164.887 17.7895 150 27.4578 138.104L11.9375 125.49C-0.474157 140.761 -7.92017 160.054 -7.92017 181.035H12.0798ZM85.5049 251.137C44.5663 251.137 12.0798 219.372 12.0798 181.035H-7.92017C-7.92017 231.176 34.2947 271.137 85.5049 271.137V251.137ZM126.23 239.373C114.601 246.791 100.611 251.137 85.5049 251.137V271.137C104.489 271.137 122.2 265.666 136.986 256.235L126.23 239.373ZM177.712 251.137C162.606 251.137 148.616 246.791 136.986 239.373L126.23 256.235C141.016 265.666 158.728 271.137 177.712 271.137V251.137ZM251.137 181.035C251.137 219.372 218.65 251.137 177.712 251.137V271.137C228.922 271.137 271.137 231.176 271.137 181.035H251.137ZM233.935 135.949C244.707 148.179 251.137 163.902 251.137 181.035H271.137C271.137 158.763 262.748 138.403 248.943 122.73L233.935 135.949Z" fill="#EC7E2D" mask="url(#path-1-inside-1_77_187)"/>
<path d="M174.228 112.277C173.212 111.106 170.62 109.871 170.62 109.871L159.395 109.871L150.977 109.871C139.487 109.871 124.321 109.87 109.285 109.871L101.267 109.871L90.0428 109.871C88.4392 109.871 87.5282 110.465 86.4348 111.876C85.5771 112.982 84.8314 114.484 84.8314 115.884C84.8313 131.845 84.8313 144.874 84.8313 158.596L84.8314 170.404C84.8314 171.666 85.6059 173.06 86.4348 174.012C87.547 175.289 90.0428 175.616 90.0428 175.616H170.62C170.62 175.616 173.207 174.632 174.228 173.611C175.248 172.591 175.831 170.404 175.831 170.404V115.884C175.831 115.884 175.254 113.459 174.228 112.277Z" fill="#EC7E2D"/>
<path d="M130.131 72.1885C96.4568 72.1885 101.267 109.871 101.267 109.871L109.285 109.871C109.285 109.871 105.276 80.2061 130.131 80.2061C154.184 80.2061 150.977 109.871 150.977 109.871L159.395 109.871C159.395 109.871 163.003 72.1885 130.131 72.1885Z" fill="#EC7E2D"/>
<path d="M90.0428 109.871C88.4392 109.871 87.5282 110.465 86.4348 111.876C85.5771 112.982 84.8314 114.484 84.8314 115.884C84.8313 131.845 84.8313 144.874 84.8313 158.596M90.0428 109.871C93.6882 109.871 97.4511 109.871 101.267 109.871M90.0428 109.871L101.267 109.871M170.62 109.871C170.62 109.871 173.212 111.106 174.228 112.277C175.254 113.459 175.831 115.884 175.831 115.884V170.404C175.831 170.404 175.248 172.591 174.228 173.611C173.207 174.632 170.62 175.616 170.62 175.616H90.0428C90.0428 175.616 87.547 175.289 86.4348 174.012C85.6059 173.06 84.8314 171.666 84.8314 170.404M170.62 109.871C170.62 109.871 166.338 109.871 159.395 109.871M170.62 109.871L159.395 109.871M84.8314 170.404L84.8313 158.596M84.8314 170.404C84.8314 166.36 84.8313 162.45 84.8313 158.596M101.267 109.871C101.267 109.871 96.4568 72.1885 130.131 72.1885C163.003 72.1885 159.395 109.871 159.395 109.871M101.267 109.871C103.921 109.871 106.601 109.871 109.285 109.871M101.267 109.871L109.285 109.871M159.395 109.871C156.906 109.871 154.075 109.871 150.977 109.871M159.395 109.871L150.977 109.871M109.285 109.871C109.285 109.871 105.276 80.2061 130.131 80.2061C154.184 80.2061 150.977 109.871 150.977 109.871M109.285 109.871C124.321 109.87 139.487 109.871 150.977 109.871" stroke="black" stroke-width="2.40529"/>
<path d="M123.452 152.413C123.452 149.503 124.186 146.833 125.653 144.403C127.12 141.95 129.129 140.026 131.678 138.631C132.688 138.078 133.482 137.284 134.059 136.25C134.637 135.191 134.925 134.013 134.925 132.714C134.925 131.511 134.625 130.417 134.023 129.431C133.446 128.444 132.652 127.663 131.642 127.085C130.656 126.508 129.562 126.22 128.359 126.22C127.156 126.22 126.05 126.508 125.04 127.085C124.053 127.663 123.26 128.444 122.658 129.431C122.081 130.417 121.793 131.511 121.793 132.714H110.969C110.969 129.539 111.75 126.64 113.314 124.019C114.877 121.397 116.97 119.304 119.592 117.741C122.238 116.177 125.16 115.396 128.359 115.396C131.558 115.396 134.468 116.177 137.09 117.741C139.736 119.304 141.841 121.397 143.404 124.019C144.967 126.64 145.749 129.539 145.749 132.714C145.749 135.985 144.955 139.004 143.368 141.77C141.78 144.536 139.592 146.664 136.802 148.156C136.008 148.565 135.382 149.154 134.925 149.924C134.492 150.669 134.276 151.499 134.276 152.413H123.452ZM129.441 167.783C127.926 167.783 126.639 167.254 125.581 166.195C124.547 165.137 124.029 163.838 124.029 162.299C124.029 160.808 124.547 159.545 125.581 158.51C126.639 157.476 127.926 156.959 129.441 156.959C130.933 156.959 132.195 157.476 133.23 158.51C134.264 159.545 134.781 160.808 134.781 162.299C134.781 163.838 134.264 165.137 133.23 166.195C132.195 167.254 130.933 167.783 129.441 167.783Z" fill="white"/>
</svg>
