<svg width="273" height="273" viewBox="0 0 273 273" fill="none" xmlns="http://www.w3.org/2000/svg">
<path fill-rule="evenodd" clip-rule="evenodd" d="M260.516 136.585V136.585L255.675 137.748L252.046 138.841L249.424 139.892L247.655 140.926L246.621 141.962L246.226 143.016L246.391 144.102L247.045 145.232L248.123 146.415L249.559 147.656L251.287 148.96L253.233 150.326L255.319 151.753L257.463 153.232L259.576 154.753L261.568 156.302L263.354 157.859L264.855 159.407L266.008 160.923L266.768 162.39L267.114 163.791L267.047 165.113L266.594 166.351L265.8 167.504L264.726 168.576L263.442 169.578L262.024 170.523L260.544 171.427L259.071 172.309L257.665 173.189L256.376 174.082L255.247 175.008L254.306 175.982L253.575 177.017L253.064 178.124L252.775 179.311L252.699 180.583L252.819 181.94L253.11 183.38L253.536 184.894L254.053 186.468L254.609 188.083L255.144 189.714L255.593 191.331L255.889 192.9L255.967 194.382L255.768 195.743L255.244 196.947L254.364 197.966L253.118 198.781L251.513 199.383L249.583 199.776L247.377 199.976L244.959 200.01L242.403 199.912L239.787 199.726L237.189 199.497L234.682 199.272L232.335 199.1L230.206 199.027L228.351 199.098L226.818 199.36L225.652 199.859L224.897 200.645L224.602 201.771L224.818 203.3L225.613 205.308L227.066 207.89L229.287 211.166L230.838 213.986L226.569 211.954L223.237 210.612L220.676 209.86L218.759 209.623L217.386 209.843L216.477 210.474L215.964 211.478L215.787 212.818L215.889 214.46L216.218 216.367L216.719 218.499L217.336 220.808L218.01 223.241L218.682 225.74L219.292 228.238L219.782 230.668L220.098 232.962L220.194 235.057L220.04 236.898L219.614 238.446L218.914 239.678L217.953 240.59L216.757 241.196L215.363 241.528L213.816 241.63L212.164 241.555L210.454 241.363L208.731 241.112L207.034 240.858L205.397 240.654L203.844 240.543L202.395 240.564L201.062 240.746L199.85 241.111L198.759 241.673L197.784 242.437L196.915 243.399L196.138 244.549L195.433 245.865L194.78 247.317L194.152 248.865L193.522 250.459L192.859 252.04L192.135 253.544L191.32 254.9L190.389 256.04L189.322 256.899L188.107 257.423L186.741 257.575L185.227 257.336L183.583 256.711L181.829 255.725L179.996 254.426L178.116 252.879L176.221 251.16L174.344 249.35L172.514 247.533L170.756 245.794L169.088 244.209L167.526 242.853L166.081 241.793L164.759 241.095L163.564 240.823L162.498 241.044L161.561 241.831L160.754 243.269L160.077 245.46L159.531 248.535L159.121 252.664L158.149 254.054L156.259 250.019L154.625 247.069L153.186 245.03L151.897 243.771L150.721 243.19L149.626 243.203L148.587 243.739L147.581 244.734L146.59 246.127L145.596 247.854L144.586 249.849L143.546 252.039L142.467 254.346L141.344 256.685L140.173 258.968L138.954 261.106L137.692 263.014L136.394 264.618L135.07 265.859L133.733 266.699L132.394 267.121L131.066 267.137L129.759 266.776L128.48 266.091L127.235 265.146L126.024 264.013L124.845 262.767L123.694 261.481L122.563 260.222L121.444 259.048L120.326 258.008L119.2 257.141L118.056 256.476L116.883 256.029L115.673 255.811L114.42 255.821L113.117 256.047L111.761 256.47L110.354 257.061L108.897 257.78L107.4 258.579L105.873 259.4L104.333 260.178L102.801 260.845L101.299 261.328L99.8555 261.559L98.4959 261.48L97.2453 261.042L96.1248 260.22L95.1495 259.006L94.3262 257.417L93.6537 255.492L93.1213 253.29L92.7108 250.881L92.3971 248.346L92.1501 245.769L91.9364 243.232L91.7207 240.813L91.4669 238.583L91.1386 236.607L90.6991 234.942L90.1109 233.642L89.3345 232.758L88.327 232.344L87.0399 232.457L85.4162 233.163L83.3863 234.547L80.8627 236.712L77.7317 239.8L76.9819 238.709L78.0644 234.622L78.6492 231.491L78.8001 229.156L78.5646 227.493L77.9794 226.403L77.0744 225.806L75.8756 225.633L74.4078 225.822L72.6969 226.312L70.7716 227.047L68.6652 227.964L66.4167 229L64.0714 230.089L61.6807 231.161L59.3006 232.146L56.9899 232.979L54.8064 233.597L52.8031 233.951L51.0245 234.005L49.502 233.741L48.2523 233.158L47.2752 232.274L46.5551 231.124L46.0623 229.752L45.7564 228.212L45.59 226.56L45.5122 224.853L45.4723 223.141L45.4218 221.471L45.3167 219.88L45.119 218.397L44.7966 217.046L44.3246 215.839L43.6849 214.782L42.8667 213.877L41.8663 213.116L40.688 212.488L39.344 211.973L37.8554 211.549L36.252 211.186L34.5732 210.852L32.8669 210.509L31.1894 210.118L29.6026 209.638L28.1715 209.031L26.9601 208.261L26.0264 207.301L25.4171 206.135L25.1632 204.755L25.2764 203.17L25.7472 201.399L26.5452 199.472L27.6218 197.429L28.9135 195.314L30.3472 193.172L31.8448 191.048L33.3269 188.983L34.7164 187.014L35.9401 185.17L36.9288 183.478L37.6172 181.958L37.9418 180.626L37.8383 179.496L37.2384 178.582L36.0655 177.897L34.2291 177.456L31.6173 177.282L28.0874 177.399L23.4512 177.846L25.2875 175.931L28.5808 173.572L30.9012 171.612L32.3946 169.974L33.1729 168.595L33.3243 167.425L32.922 166.423L32.0295 165.553L30.7061 164.785L29.0102 164.088L27.003 163.438L24.7507 162.808L22.3259 162.175L19.8082 161.517L17.2829 160.814L14.8388 160.049L12.564 159.208L10.5409 158.282L8.84024 157.268L7.51576 156.167L6.59953 154.986L6.09961 153.735L6 152.431L6.26286 151.087L6.83279 149.721L7.64224 148.347L8.61723 146.978L9.68266 145.624L10.7667 144.292L11.8042 142.986L12.7384 141.705L13.5226 140.449L14.1201 139.212L14.5046 137.991L14.6599 136.778L14.5795 135.566L14.2667 134.347L13.7346 133.116L13.0064 131.867L12.1154 130.594L11.1052 129.296L10.0292 127.972L8.95031 126.625L7.93844 125.26L7.06808 123.886L6.4141 122.516L6.04672 121.163L6.02584 119.844L6.3954 118.575L7.17872 117.371L8.37553 116.243L9.9612 115.201L11.8886 114.247L14.0917 113.38L16.4913 112.591L19.0004 111.87L21.5301 111.2L23.9934 110.561L26.3089 109.933L28.4016 109.292L30.2035 108.613L31.652 107.871L32.688 107.036L33.2531 106.08L33.2854 104.968L32.7155 103.66L31.4607 102.111L29.4177 100.261L26.4528 98.0389L22.388 95.3487L26.7412 95.6659L30.6005 95.8836L33.4874 95.7985L35.5574 95.4404L36.931 94.8315L37.7045 93.9886L37.9584 92.9261L37.7631 91.657L37.1838 90.1948L36.2837 88.5554L35.1276 86.7578L33.7831 84.8256L32.3223 82.7876L30.8211 80.6783L29.3584 78.5373L28.0132 76.4084L26.8607 74.3374L25.9679 72.3691L25.3886 70.5446L25.1594 68.8974L25.2966 67.451L25.7952 66.2166L26.6301 65.1926L27.7589 64.3649L29.1267 63.7092L30.671 63.1927L32.3266 62.7776L34.0301 62.4238L35.7233 62.0912L37.3555 61.7415L38.8843 61.3402L40.2771 60.8571L41.5099 60.2669L42.5677 59.5498L43.444 58.6915L44.1397 57.6837L44.6635 56.5242L45.0311 55.2174L45.2654 53.7748L45.3962 52.2156L45.4595 50.5668L45.4978 48.8638L45.558 47.1498L45.6906 45.4745L45.9467 43.8927L46.3752 42.4611L47.0191 41.2345L47.9119 40.2616L49.074 39.5802L50.5106 39.2135L52.2104 39.1674L54.1464 39.4291L56.2779 39.968L58.5542 40.7382L60.9186 41.682L63.3122 42.7339L65.6778 43.8248L67.9624 44.8852L70.1186 45.8473L72.1054 46.6466L73.8879 47.2215L75.4361 47.5127L76.7232 47.4614L77.7245 47.0066L78.4146 46.0817L78.7651 44.6106L78.7418 42.5016L78.3013 39.6401L77.3855 35.8783L76.5835 32.1631L79.9376 35.5816L82.6408 38.0237L84.8174 39.6433L86.5622 40.5555L87.9498 40.8494L89.0408 40.5964L89.886 39.8566L90.5297 38.6837L91.0124 37.1292L91.3721 35.2459L91.6457 33.0902L91.8696 30.7241L92.0801 28.2167L92.3127 25.6437L92.6017 23.0864L92.9784 20.6283L93.4696 18.3516L94.096 16.3314L94.8706 14.6305L95.7979 13.2941L96.8734 12.3464L98.0846 11.7885L99.4121 11.5992L100.832 11.7376L102.318 12.1476L103.843 12.7633L105.383 13.5139L106.916 14.3288L108.424 15.1412L109.895 15.8914L111.319 16.5277L112.691 17.0079L114.01 17.2994L115.279 17.3794L116.502 17.2343L117.686 16.8604L118.838 16.2631L119.969 15.4576L121.088 14.4691L122.206 13.3331L123.332 12.0951L124.476 10.8107L125.645 9.54445L126.846 8.36738L128.08 7.35422L129.348 6.5788L130.647 6.10881L131.969 6L133.306 6.29077L134.645 6.99787L135.974 8.11403L137.282 9.60798L138.556 11.4268L139.789 13.5005L140.976 15.7468L142.115 18.0779L143.207 20.4046L144.258 22.6408L145.277 24.7059L146.275 26.5255L147.265 28.0315L148.264 29.16L149.29 29.8493L150.364 30.0363L151.512 29.6528L152.762 28.6199L154.148 26.8421L155.714 24.1985L157.515 20.5313L159.019 18.9345L159.385 23.4432L159.888 26.8331L160.524 29.29L161.29 30.9553L162.185 31.9396L163.21 32.3325L164.364 32.2102L165.646 31.6409L167.053 30.6894L168.578 29.4202L170.214 27.9006L171.945 26.2021L173.755 24.4017L175.62 22.5806L177.512 20.8229L179.401 19.2121L181.253 17.8269L183.035 16.7356L184.717 15.9913L186.274 15.6277L187.688 15.656L188.952 16.0651L190.064 16.8228L191.037 17.8798L191.886 19.1744L192.637 20.6386L193.316 22.2025L193.953 23.799L194.578 25.3673L195.221 26.8548L195.906 28.218L196.658 29.4235L197.496 30.4474L198.436 31.2751L199.49 31.9009L200.663 32.3275L201.958 32.566L203.371 32.6354L204.892 32.563L206.505 32.3838L208.186 32.1405L209.904 31.8827L211.623 31.6653L213.299 31.5471L214.885 31.5867L216.333 31.8399L217.596 32.3544L218.636 33.1663L219.42 34.2957L219.934 35.7446L220.174 37.4962L220.154 39.5154L219.904 41.7523L219.464 44.1464L218.886 46.6305L218.227 49.1363L217.547 51.5973L216.905 53.9521L216.362 56.1454L215.972 58.1286L215.791 59.8594L215.874 61.2996L216.274 62.4142L217.05 63.168L218.267 63.5236L220.001 63.4377L222.344 62.8569L225.415 61.7126L229.364 59.9134L230.177 60.789L227.684 64.3183L225.999 67.1065L225.005 69.286L224.612 70.9588L224.751 72.2059L225.365 73.0935L226.405 73.6782L227.826 74.0107L229.583 74.138L231.63 74.1057L233.914 73.9598L236.377 73.7466L238.954 73.5137L241.572 73.3087L244.156 73.1783L246.626 73.1659L248.908 73.3095L250.932 73.6389L252.644 74.1735L254.007 74.9211L255.003 75.8768L255.638 77.0245L255.936 78.3386L255.941 79.7865L255.707 81.3317L255.299 82.9371L254.784 84.5673L254.228 86.1905L253.693 87.7801L253.233 89.3148L252.895 90.7793L252.717 92.1637L252.728 93.4628L252.948 94.6765L253.388 95.8081L254.05 96.8648L254.925 97.8566L255.998 98.7962L257.239 99.6986L258.613 100.58L260.071 101.46L261.556 102.355L263.002 103.285L264.336 104.267L265.485 105.316L266.375 106.442L266.943 107.652L267.137 108.949L266.924 110.325L266.294 111.773L265.263 113.275L263.866 114.815L262.163 116.372L260.228 117.925L258.144 119.457L256 120.951L253.886 122.395L251.886 123.781L250.081 125.105L248.545 126.366L247.346 127.566L246.549 128.712L246.221 129.811L246.43 130.875L247.251 131.915L248.774 132.947L251.11 133.99L254.399 135.067L258.828 136.204L260.516 136.585Z" fill="white"/>
<path d="M260.516 136.585V136.585ZM260.516 136.585L255.675 137.748L252.046 138.841L249.424 139.892L247.655 140.926L246.621 141.962L246.226 143.016L246.391 144.102L247.045 145.232L248.123 146.415L249.559 147.656L251.287 148.96L253.233 150.326L255.319 151.753L257.463 153.232L259.576 154.753L261.568 156.302L263.354 157.859L264.855 159.407L266.008 160.923L266.768 162.39L267.114 163.791L267.047 165.113L266.594 166.351L265.8 167.504L264.726 168.576L263.442 169.578L262.024 170.523L260.544 171.427L259.071 172.309L257.665 173.189L256.376 174.082L255.247 175.008L254.306 175.982L253.575 177.017L253.064 178.124L252.775 179.311L252.699 180.583L252.819 181.94L253.11 183.38L253.536 184.894L254.053 186.468L254.609 188.083L255.144 189.714L255.593 191.331L255.889 192.9L255.967 194.382L255.768 195.743L255.244 196.947L254.364 197.966L253.118 198.781L251.513 199.383L249.583 199.776L247.377 199.976L244.959 200.01L242.403 199.912L239.787 199.726L237.189 199.497L234.682 199.272L232.335 199.1L230.206 199.027L228.351 199.098L226.818 199.36L225.652 199.859L224.897 200.645L224.602 201.771L224.818 203.3L225.613 205.308L227.066 207.89L229.287 211.166L230.838 213.986L226.569 211.954L223.237 210.612L220.676 209.86L218.759 209.623L217.386 209.843L216.477 210.474L215.964 211.478L215.787 212.818L215.889 214.46L216.218 216.367L216.719 218.499L217.336 220.808L218.01 223.241L218.682 225.74L219.292 228.238L219.782 230.668L220.098 232.962L220.194 235.057L220.04 236.898L219.614 238.446L218.914 239.678L217.953 240.59L216.757 241.196L215.363 241.528L213.816 241.63L212.164 241.555L210.454 241.363L208.731 241.112L207.034 240.858L205.397 240.654L203.844 240.543L202.395 240.564L201.062 240.746L199.85 241.111L198.759 241.673L197.784 242.437L196.915 243.399L196.138 244.549L195.433 245.865L194.78 247.317L194.152 248.865L193.522 250.459L192.859 252.04L192.135 253.544L191.32 254.9L190.389 256.04L189.322 256.899L188.107 257.423L186.741 257.575L185.227 257.336L183.583 256.711L181.829 255.725L179.996 254.426L178.116 252.879L176.221 251.16L174.344 249.35L172.514 247.533L170.756 245.794L169.088 244.209L167.526 242.853L166.081 241.793L164.759 241.095L163.564 240.823L162.498 241.044L161.561 241.831L160.754 243.269L160.077 245.46L159.531 248.535L159.121 252.664L158.149 254.054L156.259 250.019L154.625 247.069L153.186 245.03L151.897 243.771L150.721 243.19L149.626 243.203L148.587 243.739L147.581 244.734L146.59 246.127L145.596 247.854L144.586 249.849L143.546 252.039L142.467 254.346L141.344 256.685L140.173 258.968L138.954 261.106L137.692 263.014L136.394 264.618L135.07 265.859L133.733 266.699L132.394 267.121L131.066 267.137L129.759 266.776L128.48 266.091L127.235 265.146L126.024 264.013L124.845 262.767L123.694 261.481L122.563 260.222L121.444 259.048L120.326 258.008L119.2 257.141L118.056 256.476L116.883 256.029L115.673 255.811L114.42 255.821L113.117 256.047L111.761 256.47L110.354 257.061L108.897 257.78L107.4 258.579L105.873 259.4L104.333 260.178L102.801 260.845L101.299 261.328L99.8555 261.559L98.4959 261.48L97.2453 261.042L96.1248 260.22L95.1495 259.006L94.3262 257.417L93.6537 255.492L93.1213 253.29L92.7108 250.881L92.3971 248.346L92.1501 245.769L91.9364 243.232L91.7207 240.813L91.4669 238.583L91.1386 236.607L90.6991 234.942L90.1109 233.642L89.3345 232.758L88.327 232.344L87.0399 232.457L85.4162 233.163L83.3863 234.547L80.8627 236.712L77.7317 239.8L76.9819 238.709L78.0644 234.622L78.6492 231.491L78.8001 229.156L78.5646 227.493L77.9794 226.403L77.0744 225.806L75.8756 225.633L74.4078 225.822L72.6969 226.312L70.7716 227.047L68.6652 227.964L66.4167 229L64.0714 230.089L61.6807 231.161L59.3006 232.146L56.9899 232.979L54.8064 233.597L52.8031 233.951L51.0245 234.005L49.502 233.741L48.2523 233.158L47.2752 232.274L46.5551 231.124L46.0623 229.752L45.7564 228.212L45.59 226.56L45.5122 224.853L45.4723 223.141L45.4218 221.471L45.3167 219.88L45.119 218.397L44.7966 217.046L44.3246 215.839L43.6849 214.782L42.8667 213.877L41.8663 213.116L40.688 212.488L39.344 211.973L37.8554 211.549L36.252 211.186L34.5732 210.852L32.8669 210.509L31.1894 210.118L29.6026 209.638L28.1715 209.031L26.9601 208.261L26.0264 207.301L25.4171 206.135L25.1632 204.755L25.2764 203.17L25.7472 201.399L26.5452 199.472L27.6218 197.429L28.9135 195.314L30.3472 193.172L31.8448 191.048L33.3269 188.983L34.7164 187.014L35.9401 185.17L36.9288 183.478L37.6172 181.958L37.9418 180.626L37.8383 179.496L37.2384 178.582L36.0655 177.897L34.2291 177.456L31.6173 177.282L28.0874 177.399L23.4512 177.846L25.2875 175.931L28.5808 173.572L30.9012 171.612L32.3946 169.974L33.1729 168.595L33.3243 167.425L32.922 166.423L32.0295 165.553L30.7061 164.785L29.0102 164.088L27.003 163.438L24.7507 162.808L22.3259 162.175L19.8082 161.517L17.2829 160.814L14.8388 160.049L12.564 159.208L10.5409 158.282L8.84024 157.268L7.51576 156.167L6.59953 154.986L6.09961 153.735L6 152.431L6.26286 151.087L6.83279 149.721L7.64224 148.347L8.61723 146.978L9.68266 145.624L10.7667 144.292L11.8042 142.986L12.7384 141.705L13.5226 140.449L14.1201 139.212L14.5046 137.991L14.6599 136.778L14.5795 135.566L14.2667 134.347L13.7346 133.116L13.0064 131.867L12.1154 130.594L11.1052 129.296L10.0292 127.972L8.95031 126.625L7.93844 125.26L7.06808 123.886L6.4141 122.516L6.04672 121.163L6.02584 119.844L6.3954 118.575L7.17872 117.371L8.37553 116.243L9.9612 115.201L11.8886 114.247L14.0917 113.38L16.4913 112.591L19.0004 111.87L21.5301 111.2L23.9934 110.561L26.3089 109.933L28.4016 109.292L30.2035 108.613L31.652 107.871L32.688 107.036L33.2531 106.08L33.2854 104.968L32.7155 103.66L31.4607 102.111L29.4177 100.261L26.4528 98.0389L22.388 95.3487L26.7412 95.6659L30.6005 95.8836L33.4874 95.7985L35.5574 95.4404L36.931 94.8315L37.7045 93.9886L37.9584 92.9261L37.7631 91.657L37.1838 90.1948L36.2837 88.5554L35.1276 86.7578L33.7831 84.8256L32.3223 82.7876L30.8211 80.6783L29.3584 78.5373L28.0132 76.4084L26.8607 74.3374L25.9679 72.3691L25.3886 70.5446L25.1594 68.8974L25.2966 67.451L25.7952 66.2166L26.6301 65.1926L27.7589 64.3649L29.1267 63.7092L30.671 63.1927L32.3266 62.7776L34.0301 62.4238L35.7233 62.0912L37.3555 61.7415L38.8843 61.3402L40.2771 60.8571L41.5099 60.2669L42.5677 59.5498L43.444 58.6915L44.1397 57.6837L44.6635 56.5242L45.0311 55.2174L45.2654 53.7748L45.3962 52.2156L45.4595 50.5668L45.4978 48.8638L45.558 47.1498L45.6906 45.4745L45.9467 43.8927L46.3752 42.4611L47.0191 41.2345L47.9119 40.2616L49.074 39.5802L50.5106 39.2135L52.2104 39.1674L54.1464 39.4291L56.2779 39.968L58.5542 40.7382L60.9186 41.682L63.3122 42.7339L65.6778 43.8248L67.9624 44.8852L70.1186 45.8473L72.1054 46.6466L73.8879 47.2215L75.4361 47.5127L76.7232 47.4614L77.7245 47.0066L78.4146 46.0817L78.7651 44.6106L78.7418 42.5016L78.3013 39.6401L77.3855 35.8783L76.5835 32.1631L79.9376 35.5816L82.6408 38.0237L84.8174 39.6433L86.5622 40.5555L87.9498 40.8494L89.0408 40.5964L89.886 39.8566L90.5297 38.6837L91.0124 37.1292L91.3721 35.2459L91.6457 33.0902L91.8696 30.7241L92.0801 28.2167L92.3127 25.6437L92.6017 23.0864L92.9784 20.6283L93.4696 18.3516L94.096 16.3314L94.8706 14.6305L95.7979 13.2941L96.8734 12.3464L98.0846 11.7885L99.4121 11.5992L100.832 11.7376L102.318 12.1476L103.843 12.7633L105.383 13.5139L106.916 14.3288L108.424 15.1412L109.895 15.8914L111.319 16.5277L112.691 17.0079L114.01 17.2994L115.279 17.3794L116.502 17.2343L117.686 16.8604L118.838 16.2631L119.969 15.4576L121.088 14.4691L122.206 13.3331L123.332 12.0951L124.476 10.8107L125.645 9.54445L126.846 8.36738L128.08 7.35422L129.348 6.5788L130.647 6.10881L131.969 6L133.306 6.29077L134.645 6.99787L135.974 8.11403L137.282 9.60798L138.556 11.4268L139.789 13.5005L140.976 15.7468L142.115 18.0779L143.207 20.4046L144.258 22.6408L145.277 24.7059L146.275 26.5255L147.265 28.0315L148.264 29.16L149.29 29.8493L150.364 30.0363L151.512 29.6528L152.762 28.6199L154.148 26.8421L155.714 24.1985L157.515 20.5313L159.019 18.9345L159.385 23.4432L159.888 26.8331L160.524 29.29L161.29 30.9553L162.185 31.9396L163.21 32.3325L164.364 32.2102L165.646 31.6409L167.053 30.6894L168.578 29.4202L170.214 27.9006L171.945 26.2021L173.755 24.4017L175.62 22.5806L177.512 20.8229L179.401 19.2121L181.253 17.8269L183.035 16.7356L184.717 15.9913L186.274 15.6277L187.688 15.656L188.952 16.0651L190.064 16.8228L191.037 17.8798L191.886 19.1744L192.637 20.6386L193.316 22.2025L193.953 23.799L194.578 25.3673L195.221 26.8548L195.906 28.218L196.658 29.4235L197.496 30.4474L198.436 31.2751L199.49 31.9009L200.663 32.3275L201.958 32.566L203.371 32.6354L204.892 32.563L206.505 32.3838L208.186 32.1405L209.904 31.8827L211.623 31.6653L213.299 31.5471L214.885 31.5867L216.333 31.8399L217.596 32.3544L218.636 33.1663L219.42 34.2957L219.934 35.7446L220.174 37.4962L220.154 39.5154L219.904 41.7523L219.464 44.1464L218.886 46.6305L218.227 49.1363L217.547 51.5973L216.905 53.9521L216.362 56.1454L215.972 58.1286L215.791 59.8594L215.874 61.2996L216.274 62.4142L217.05 63.168L218.267 63.5236L220.001 63.4377L222.344 62.8569L225.415 61.7126L229.364 59.9134L230.177 60.789L227.684 64.3183L225.999 67.1065L225.005 69.286L224.612 70.9588L224.751 72.2059L225.365 73.0935L226.405 73.6782L227.826 74.0107L229.583 74.138L231.63 74.1057L233.914 73.9598L236.377 73.7466L238.954 73.5137L241.572 73.3087L244.156 73.1783L246.626 73.1659L248.908 73.3095L250.932 73.6389L252.644 74.1735L254.007 74.9211L255.003 75.8768L255.638 77.0245L255.936 78.3386L255.941 79.7865L255.707 81.3317L255.299 82.9371L254.784 84.5673L254.228 86.1905L253.693 87.7801L253.233 89.3148L252.895 90.7793L252.717 92.1637L252.728 93.4628L252.948 94.6765L253.388 95.8081L254.05 96.8648L254.925 97.8566L255.998 98.7962L257.239 99.6986L258.613 100.58L260.071 101.46L261.556 102.355L263.002 103.285L264.336 104.267L265.485 105.316L266.375 106.442L266.943 107.652L267.137 108.949L266.924 110.325L266.294 111.773L265.263 113.275L263.866 114.815L262.163 116.372L260.228 117.925L258.144 119.457L256 120.951L253.886 122.395L251.886 123.781L250.081 125.105L248.545 126.366L247.346 127.566L246.549 128.712L246.221 129.811L246.43 130.875L247.251 131.915L248.774 132.947L251.11 133.99L254.399 135.067L258.828 136.204L260.516 136.585Z" stroke="#D13535" stroke-width="10"/>
<path d="M181.396 118.088C180.381 116.918 177.789 115.683 177.789 115.683L166.564 115.682L158.145 115.682C146.656 115.682 131.49 115.682 116.454 115.682L108.436 115.682L97.2115 115.683C95.6079 115.683 94.697 116.276 93.6035 117.687C92.7458 118.794 92.0001 120.296 92.0001 121.696C92 137.657 92 150.686 92 164.407L92.0001 176.216C92.0001 177.478 92.7746 178.872 93.6035 179.824C94.7157 181.101 97.2115 181.427 97.2115 181.427H177.789C177.789 181.427 180.376 180.443 181.396 179.423C182.417 178.402 183 176.216 183 176.216V121.696C183 121.696 182.423 119.27 181.396 118.088Z" fill="#D13535"/>
<path d="M137.3 78C103.626 78 108.436 115.682 108.436 115.682L116.454 115.682C116.454 115.682 112.445 86.0176 137.3 86.0176C161.352 86.0176 158.145 115.682 158.145 115.682L166.564 115.682C166.564 115.682 170.172 78 137.3 78Z" fill="#D13535"/>
<path d="M97.2115 115.683C95.6079 115.683 94.697 116.276 93.6035 117.687C92.7458 118.794 92.0001 120.296 92.0001 121.696C92 137.657 92 150.686 92 164.407M97.2115 115.683C100.857 115.683 104.62 115.682 108.436 115.682M97.2115 115.683L108.436 115.682M177.789 115.683C177.789 115.683 180.381 116.918 181.396 118.088C182.423 119.27 183 121.696 183 121.696V176.216C183 176.216 182.417 178.402 181.396 179.423C180.376 180.443 177.789 181.427 177.789 181.427H97.2115C97.2115 181.427 94.7157 181.101 93.6035 179.824C92.7746 178.872 92.0001 177.478 92.0001 176.216M177.789 115.683C177.789 115.683 173.507 115.683 166.564 115.682M177.789 115.683L166.564 115.682M92.0001 176.216L92 164.407M92.0001 176.216C92.0001 172.171 92 168.262 92 164.407M108.436 115.682C108.436 115.682 103.626 78 137.3 78C170.172 78 166.564 115.682 166.564 115.682M108.436 115.682C111.09 115.682 113.77 115.682 116.454 115.682M108.436 115.682L116.454 115.682M166.564 115.682C164.075 115.682 161.244 115.682 158.145 115.682M166.564 115.682L158.145 115.682M116.454 115.682C116.454 115.682 112.445 86.0176 137.3 86.0176C161.352 86.0176 158.145 115.682 158.145 115.682M116.454 115.682C131.49 115.682 146.656 115.682 158.145 115.682" stroke="black" stroke-width="2.40529"/>
<path d="M130.621 158.225C130.621 155.314 131.354 152.644 132.822 150.215C134.289 147.762 136.297 145.837 138.847 144.442C139.857 143.889 140.651 143.095 141.228 142.061C141.805 141.003 142.094 139.824 142.094 138.525C142.094 137.323 141.793 136.228 141.192 135.242C140.615 134.256 139.821 133.474 138.811 132.897C137.825 132.32 136.73 132.031 135.528 132.031C134.325 132.031 133.218 132.32 132.208 132.897C131.222 133.474 130.428 134.256 129.827 135.242C129.25 136.228 128.961 137.323 128.961 138.525H118.137C118.137 135.35 118.919 132.452 120.482 129.83C122.046 127.208 124.139 125.116 126.76 123.552C129.406 121.989 132.329 121.207 135.528 121.207C138.727 121.207 141.637 121.989 144.259 123.552C146.905 125.116 149.009 127.208 150.573 129.83C152.136 132.452 152.918 135.35 152.918 138.525C152.918 141.797 152.124 144.815 150.537 147.581C148.949 150.347 146.76 152.476 143.97 153.967C143.176 154.376 142.551 154.965 142.094 155.735C141.661 156.481 141.445 157.311 141.445 158.225H130.621ZM136.61 173.594C135.095 173.594 133.808 173.065 132.749 172.007C131.715 170.949 131.198 169.65 131.198 168.11C131.198 166.619 131.715 165.356 132.749 164.322C133.808 163.288 135.095 162.771 136.61 162.771C138.101 162.771 139.364 163.288 140.398 164.322C141.433 165.356 141.95 166.619 141.95 168.11C141.95 169.65 141.433 170.949 140.398 172.007C139.364 173.065 138.101 173.594 136.61 173.594Z" fill="white"/>
</svg>
