<svg width="287" height="255" viewBox="0 0 287 255" fill="none" xmlns="http://www.w3.org/2000/svg">
<mask id="path-1-inside-1_52_59" fill="white">
<path fill-rule="evenodd" clip-rule="evenodd" d="M269.262 147.747C280.333 133.6 286.625 117.376 286.625 100.127C286.625 45.1192 222.634 0.526367 143.697 0.526367C64.7608 0.526367 0.77002 45.1192 0.77002 100.127C0.77002 117.376 7.06175 133.6 18.1331 147.747V237.68C18.1331 247.035 25.7172 254.619 35.0727 254.619H252.322C261.678 254.619 269.262 247.035 269.262 237.68V147.747Z"/>
</mask>
<path fill-rule="evenodd" clip-rule="evenodd" d="M269.262 147.747C280.333 133.6 286.625 117.376 286.625 100.127C286.625 45.1192 222.634 0.526367 143.697 0.526367C64.7608 0.526367 0.77002 45.1192 0.77002 100.127C0.77002 117.376 7.06175 133.6 18.1331 147.747V237.68C18.1331 247.035 25.7172 254.619 35.0727 254.619H252.322C261.678 254.619 269.262 247.035 269.262 237.68V147.747Z" fill="#D9D9D9"/>
<path d="M269.262 147.747L260.924 141.222L258.675 144.097V147.747H269.262ZM18.1331 147.747H28.7203V144.097L26.4706 141.222L18.1331 147.747ZM276.037 100.127C276.037 114.681 270.755 128.661 260.924 141.222L277.599 154.272C289.911 138.54 297.212 120.07 297.212 100.127H276.037ZM143.697 11.1136C181.27 11.1136 214.829 21.7436 238.709 38.385C262.626 55.0518 276.037 77.0478 276.037 100.127H297.212C297.212 68.1987 278.628 40.3942 250.815 21.0126C222.966 1.60553 185.061 -10.0608 143.697 -10.0608V11.1136ZM11.3572 100.127C11.3572 77.0478 24.7686 55.0518 48.6855 38.385C72.5658 21.7436 106.125 11.1136 143.697 11.1136V-10.0608C102.333 -10.0608 64.4286 1.60553 36.5794 21.0126C8.76681 40.3942 -9.81719 68.1987 -9.81719 100.127H11.3572ZM26.4706 141.222C16.6402 128.661 11.3572 114.681 11.3572 100.127H-9.81719C-9.81719 120.07 -2.51667 138.54 9.79566 154.272L26.4706 141.222ZM28.7203 237.68V147.747H7.54592V237.68H28.7203ZM35.0727 244.032C31.5644 244.032 28.7203 241.188 28.7203 237.68H7.54592C7.54592 252.882 19.8701 265.207 35.0727 265.207V244.032ZM252.322 244.032H35.0727V265.207H252.322V244.032ZM258.675 237.68C258.675 241.188 255.83 244.032 252.322 244.032V265.207C267.525 265.207 279.849 252.882 279.849 237.68H258.675ZM258.675 147.747V237.68H279.849V147.747H258.675Z" fill="#BF561C" mask="url(#path-1-inside-1_52_59)"/>
<ellipse cx="141.58" cy="119.95" rx="81.945" ry="67.3346" fill="url(#paint0_linear_52_59)"/>
<path d="M171.075 204.053C171.075 204.053 194.413 192.374 202.775 178.989C210.658 166.371 211.663 141.942 211.663 141.942L208.799 136.723L201.112 122.713L188.901 123.329L184.451 140.952L181.243 148.429L176.742 158.839L169.59 166.099L153.955 171.222L126.008 169.457L111.07 163.025L102.79 162.056L96.995 161.558L94.7885 159.234L95.9046 165.659L89.1335 171.649L86.6354 169.375L88.3096 179.014L98.4544 195.906L126.909 207.512L152.993 207.194L171.075 204.053Z" fill="#FDCA4D"/>
<path d="M184.209 113.614L181.863 126.056L175.866 145.151L167.422 162.263L153.955 171.222L169.59 166.099L176.742 158.839L181.243 148.429L184.451 140.952L188.901 123.329L184.209 113.614Z" fill="#DC941B"/>
<path d="M175.866 145.151L181.863 126.056L174.42 119.526L169.576 129.695L163.414 139.19C163.414 139.19 157.015 149.374 150.912 153.698C143.2 159.16 127.846 161.014 127.846 161.014L113.619 158.671L112.09 158.315L97.3371 154.879L87.852 148.704L78.6206 143.989L65.8134 142.904L64.9132 146.37L61.9208 149.899L57.8125 153.922L54.338 151.216L55.7585 159.394L61.2622 173.782L74.8558 182.855L88.232 190.761L90.5925 192.157L94.5234 194.031L98.4544 195.906L88.3096 179.014L86.6354 169.375L85.516 162.93L89.8306 160.095L94.7885 159.234L96.995 161.558L102.79 162.056L111.07 163.025L126.008 169.457L153.955 171.222L167.422 162.263L175.866 145.151Z" fill="#FDCA4D"/>
<path d="M113.619 158.671L127.846 161.014C127.846 161.014 143.2 159.16 150.912 153.698C157.015 149.374 163.414 139.19 163.414 139.19L169.576 129.695L174.42 119.526L168.004 120.641L161.029 125.463C161.029 125.463 154.054 135.745 148.832 141.723C145.346 145.712 143.682 148.349 139.41 151.483C134.12 155.364 124.08 158.358 124.08 158.358L113.619 158.671Z" fill="#F5D161"/>
<path d="M201.112 122.713L197.105 113.48L194.67 99.4605L191.753 99.9671L189.458 112.702L188.901 123.329L201.112 122.713Z" fill="#FDCA4D"/>
<path d="M203.66 104.518L199.298 100.161L194.67 99.4605L198.119 105.481L202.506 113.444L206.653 121.75L214.122 124.966L203.66 104.518Z" fill="#FDCA4D"/>
<path d="M214.591 115.557L207.198 102.399L203.66 104.518L214.122 124.966L218.902 119.623L214.591 115.557Z" fill="#FDCA4D"/>
<path d="M191.753 99.9671L188.063 94.2896L186.744 86.6958L184.436 97.6274L184.209 113.614L188.901 123.329L189.458 112.702L191.753 99.9671Z" fill="#FDCA4D"/>
<path d="M184.209 113.614L184.436 97.6274L181.875 100.178L177.526 111.465L174.42 119.526L181.863 126.056L184.209 113.614Z" fill="#FDCA4D"/>
<path d="M174.42 119.526L177.526 111.465L181.875 100.178L183.523 92.3701L185.983 82.3147L182.23 81.4623L177.449 86.8058L176.232 93.6366L176.258 104.163L168.004 120.641L174.42 119.526Z" fill="#FDCA4D"/>
<path d="M171.857 94.3964L165.213 104.577L157.288 112.573L159.71 117.869L168.004 120.641L176.258 104.163L176.232 93.6366L171.857 94.3964Z" fill="#FDCA4D"/>
<path d="M161.029 125.463L168.004 120.641L159.71 117.869L150.53 127.286C150.53 127.286 145.879 132.626 142.707 135.866C138.556 140.107 136.293 142.608 131.586 146.223C127.6 149.283 120.783 153.214 120.783 153.214L112.09 158.315L113.619 158.671L124.08 158.358C124.08 158.358 134.12 155.364 139.41 151.483C143.682 148.349 145.346 145.712 148.832 141.723C154.054 135.745 161.029 125.463 161.029 125.463Z" fill="#DC941B"/>
<path d="M157.288 112.573L152.445 115.821L140.88 125.352L125.208 138.906L108.584 148.714L96.8806 152.251L87.852 148.704L97.3371 154.879L112.09 158.315L120.783 153.214C120.783 153.214 127.6 149.283 131.586 146.223C136.293 142.608 138.556 140.107 142.707 135.866C145.879 132.626 150.53 127.286 150.53 127.286L159.71 117.869L157.288 112.573Z" fill="#FDCA4D"/>
<path d="M55.7585 159.394L54.338 151.216L56.4682 149.642L48.6191 147.696L38.6904 147.615L38.8555 157.215L33.8595 159.587L31.2347 160.043L36.041 172.146L47.2634 183.134L65.853 189.834L80.9554 192.025L88.232 190.761L74.8558 182.855L61.2622 173.782L55.7585 159.394Z" fill="#FDCA4D"/>
<path d="M90.5925 192.157L88.232 190.761L80.9554 192.025L76.8851 194.538L69.8856 195.753L74.7043 202.739L71.7119 206.268L67.0456 207.078L70.1144 214.368L79.2064 220.01L89.3508 223.062L93.7109 222.305L91.4556 217.882L86.751 213.284L85.1276 203.938L84.1637 198.388L88.79 193.974L90.5925 192.157Z" fill="#EFA005"/>
<path d="M91.4556 217.882L93.7109 222.305L110.426 230.233L127.101 231.549L121.749 224.505L113.19 221.93L98.9114 212.375L90.3627 203.028L85.1276 203.938L86.751 213.284L91.4556 217.882Z" fill="#DD9006"/>
<path d="M126.909 207.512L98.4544 195.906L94.5234 194.031L91.9115 199.75L90.3627 203.028L98.9114 212.375L113.19 221.93L121.749 224.505L119.023 220.917L117.704 213.323L122.497 209.783L126.909 207.512Z" fill="#EFA005"/>
<path d="M234.487 134.969L218.902 119.623L214.122 124.966L218.7 139.215C218.7 139.215 221.541 151.813 220.159 159.722C218.494 169.251 208.976 181.824 208.976 181.824L190.222 200.125L162.884 208.785L145.131 210.364L134.911 210.334L125.87 211.905L125.071 215.955L142.748 224.318L161.718 229.749L179.039 229.147L197.413 225.956L212.276 218.123C212.276 218.123 219.568 213.887 223.534 210.286C235.606 199.325 239.114 188.552 240.981 172.353C242.676 157.632 234.487 134.969 234.487 134.969Z" fill="#FDCA4D"/>
<path d="M202.775 178.989C194.413 192.374 171.075 204.053 171.075 204.053L152.993 207.194L134.911 210.334L145.131 210.364L162.884 208.785L190.222 200.125L208.976 181.824C208.976 181.824 218.494 169.251 220.159 159.722C221.541 151.813 218.7 139.215 218.7 139.215L214.122 124.966L206.653 121.75L208.175 130.512L208.799 136.723L211.663 141.942C211.663 141.942 210.658 166.371 202.775 178.989Z" fill="#DC941B"/>
<path d="M191.753 99.9671L194.67 99.4605L199.298 100.161L203.66 104.518L207.198 102.399L201.022 89.3307L199.399 79.9845L194.732 73.8748L185.437 73.9848L177.005 72.1398L174.963 72.4944L175.775 77.1675L178.476 80.6098L182.23 81.4623L185.983 82.3147L186.744 86.6958L188.063 94.2896L191.753 99.9671Z" fill="#795908"/>
<path d="M178.476 80.6098L175.775 77.1675L172.352 81.6736L170.741 87.9709L171.857 94.3964L176.232 93.6366L177.449 86.8058L182.23 81.4623L178.476 80.6098Z" fill="#C69B32"/>
<path d="M184.436 97.6274L186.744 86.6958L185.983 82.3147L183.523 92.3701L181.875 100.178L184.436 97.6274Z" fill="#C8A245"/>
<path d="M152.994 241.795C163.846 243.084 170.457 243.121 180.916 239.954C195.198 235.629 212.276 218.123 212.276 218.123L197.413 225.956L179.039 229.147L161.718 229.749L142.748 224.318L125.071 215.955L124.272 220.005L119.023 220.917L121.749 224.505L127.101 231.549L129.928 235.27C129.928 235.27 143.698 240.691 152.994 241.795Z" fill="#C38B02"/>
<path d="M64.9132 146.37L65.8134 142.904L60.5003 141.721L56.1891 144.576L56.4682 149.642L54.338 151.216L57.8125 153.922L61.9208 149.899L64.9132 146.37Z" fill="#83610E"/>
<path d="M74.7043 202.739L69.8856 195.753L67.8316 201.225L67.0456 207.078L71.7119 206.268L74.7043 202.739Z" fill="#926800"/>
<path d="M38.8555 157.215L38.6904 147.615L32.2869 150.533L31.2347 160.043L33.8595 159.587L38.8555 157.215Z" fill="#8B6917"/>
<path d="M95.9046 165.659L94.7885 159.234L89.8306 160.095L85.516 162.93L86.6354 169.375L89.1335 171.649L95.9046 165.659Z" fill="#7C5C0D"/>
<path d="M119.023 220.917L124.272 220.005L125.071 215.955L125.87 211.905L126.909 207.512L122.497 209.783L117.704 213.323L119.023 220.917Z" fill="#795C15"/>
<path d="M84.1637 198.388L85.1276 203.938L90.3627 203.028L91.9115 199.75L94.5234 194.031L90.5925 192.157L88.79 193.974L84.1637 198.388Z" fill="#735200"/>
<path d="M125.87 211.905L134.911 210.334L152.993 207.194L126.909 207.512L125.87 211.905Z" fill="#FDCA4D"/>
<path d="M207.198 102.399L214.591 115.557L218.902 119.623M207.198 102.399L203.66 104.518M207.198 102.399L201.022 89.3307L199.399 79.9845L194.732 73.8748L185.437 73.9848L177.005 72.1398L174.963 72.4944L175.775 77.1675M218.902 119.623L234.487 134.969C234.487 134.969 242.676 157.632 240.981 172.353C239.114 188.552 235.606 199.325 223.534 210.286C219.568 213.887 212.276 218.123 212.276 218.123M218.902 119.623L214.122 124.966M119.023 220.917L124.272 220.005L125.071 215.955M119.023 220.917L117.704 213.323L122.497 209.783L126.909 207.512M119.023 220.917L121.749 224.505M125.87 211.905L134.911 210.334M125.87 211.905L126.909 207.512M125.87 211.905L125.071 215.955M134.911 210.334L152.993 207.194M134.911 210.334L145.131 210.364L162.884 208.785L190.222 200.125L208.976 181.824C208.976 181.824 218.494 169.251 220.159 159.722C221.541 151.813 218.7 139.215 218.7 139.215L214.122 124.966M201.112 122.713L197.105 113.48L194.67 99.4605M201.112 122.713L208.799 136.723M201.112 122.713L188.901 123.329M194.67 99.4605L191.753 99.9671M194.67 99.4605L199.298 100.161L203.66 104.518M194.67 99.4605L198.119 105.481L202.506 113.444L206.653 121.75M191.753 99.9671L188.063 94.2896L186.744 86.6958M191.753 99.9671L189.458 112.702L188.901 123.329M186.744 86.6958L184.436 97.6274M186.744 86.6958L185.983 82.3147M184.436 97.6274L184.209 113.614M184.436 97.6274L181.875 100.178M184.209 113.614L181.863 126.056M184.209 113.614L188.901 123.329M181.863 126.056L175.866 145.151L167.422 162.263L153.955 171.222M181.863 126.056L174.42 119.526M153.955 171.222L126.008 169.457L111.07 163.025L102.79 162.056L96.995 161.558L94.7885 159.234M153.955 171.222L169.59 166.099L176.742 158.839L181.243 148.429L184.451 140.952L188.901 123.329M94.7885 159.234L95.9046 165.659L89.1335 171.649L86.6354 169.375M94.7885 159.234L89.8306 160.095L85.516 162.93L86.6354 169.375M86.6354 169.375L88.3096 179.014L98.4544 195.906M98.4544 195.906L126.909 207.512M98.4544 195.906L94.5234 194.031M126.909 207.512L152.993 207.194M152.993 207.194L171.075 204.053C171.075 204.053 194.413 192.374 202.775 178.989C210.658 166.371 211.663 141.942 211.663 141.942L208.799 136.723M203.66 104.518L214.122 124.966M206.653 121.75L208.175 130.512L208.799 136.723M206.653 121.75L214.122 124.966M185.983 82.3147L182.23 81.4623M185.983 82.3147L183.523 92.3701L181.875 100.178M175.775 77.1675L178.476 80.6098L182.23 81.4623M175.775 77.1675L172.352 81.6736L170.741 87.9709L171.857 94.3964M171.857 94.3964L165.213 104.577L157.288 112.573M171.857 94.3964L176.232 93.6366M157.288 112.573L152.445 115.821L140.88 125.352L125.208 138.906L108.584 148.714L96.8806 152.251L87.852 148.704M157.288 112.573L159.71 117.869M87.852 148.704L78.6206 143.989L65.8134 142.904M87.852 148.704L97.3371 154.879L112.09 158.315M65.8134 142.904L64.9132 146.37L61.9208 149.899L57.8125 153.922L54.338 151.216M65.8134 142.904L60.5003 141.721L56.1891 144.576L56.4682 149.642M54.338 151.216L55.7585 159.394L61.2622 173.782L74.8558 182.855L88.232 190.761M54.338 151.216L56.4682 149.642M90.5925 192.157L88.232 190.761M90.5925 192.157L88.79 193.974L84.1637 198.388L85.1276 203.938M90.5925 192.157L94.5234 194.031M113.619 158.671L127.846 161.014C127.846 161.014 143.2 159.16 150.912 153.698C157.015 149.374 163.414 139.19 163.414 139.19L169.576 129.695L174.42 119.526M113.619 158.671L124.08 158.358C124.08 158.358 134.12 155.364 139.41 151.483C143.682 148.349 145.346 145.712 148.832 141.723C154.054 135.745 161.029 125.463 161.029 125.463L168.004 120.641M113.619 158.671L112.09 158.315M174.42 119.526L177.526 111.465L181.875 100.178M174.42 119.526L168.004 120.641M176.232 93.6366L176.258 104.163L168.004 120.641M176.232 93.6366L177.449 86.8058L182.23 81.4623M168.004 120.641L159.71 117.869M168.459 102.509L166.329 111.002L159.71 117.869M159.71 117.869L150.53 127.286C150.53 127.286 145.879 132.626 142.707 135.866C138.556 140.107 136.293 142.608 131.586 146.223C127.6 149.283 120.783 153.214 120.783 153.214L112.09 158.315M56.4682 149.642L48.6191 147.696L38.6904 147.615M38.6904 147.615L38.8555 157.215L33.8595 159.587L31.2347 160.043M38.6904 147.615L32.2869 150.533L31.2347 160.043M31.2347 160.043L36.041 172.146L47.2634 183.134L65.853 189.834L80.9554 192.025M80.9554 192.025L88.232 190.761M80.9554 192.025L76.8851 194.538L69.8856 195.753M69.8856 195.753L74.7043 202.739L71.7119 206.268L67.0456 207.078M69.8856 195.753L67.8316 201.225L67.0456 207.078M67.0456 207.078L70.1144 214.368L79.2064 220.01L89.3508 223.062L93.7109 222.305M93.7109 222.305L91.4556 217.882L86.751 213.284L85.1276 203.938M93.7109 222.305L110.426 230.233L127.101 231.549M85.1276 203.938L90.3627 203.028M94.5234 194.031L91.9115 199.75L90.3627 203.028M90.3627 203.028L98.9114 212.375L113.19 221.93L121.749 224.505M127.101 231.549L129.928 235.27C129.928 235.27 143.698 240.691 152.994 241.795C163.846 243.084 170.457 243.121 180.916 239.954C195.198 235.629 212.276 218.123 212.276 218.123M127.101 231.549L121.749 224.505M125.071 215.955L142.748 224.318L161.718 229.749L179.039 229.147L197.413 225.956L212.276 218.123" stroke="black" stroke-width="1.27047"/>
<path d="M42.8258 102.812C43.525 103.29 44.0745 103.622 44.4745 103.808C46.5165 104.757 48.1894 105.15 49.4932 104.988C49.8538 106.691 49.7163 108.227 49.0807 109.595C48.4451 110.963 47.6009 111.761 46.5483 111.989C45.4745 112.207 44.1588 111.954 42.601 111.23C41.0221 110.497 36.8779 107.766 30.1681 103.037L26.012 103.141C25.5802 100.048 25.819 97.5229 26.7284 95.5651C26.9827 95.0178 27.3666 94.4667 27.8802 93.9119C28.3728 93.3473 28.809 92.9869 29.1887 92.8306C29.3018 90.9892 29.6664 89.4054 30.2824 88.0792C31.2016 86.1004 32.6199 84.8653 34.5373 84.3739C36.4434 83.8517 38.3754 84.0453 40.3331 84.9547C42.6908 86.0498 44.3999 87.8802 45.4604 90.4459C45.9842 91.6873 46.1971 93.1299 46.0991 94.7735C46.0011 96.4171 45.6147 97.9652 44.94 99.4177C44.275 100.849 43.5703 101.981 42.8258 102.812ZM39.5047 100.54C39.7048 100.275 39.8782 99.9841 40.0248 99.6683C40.6506 98.321 40.7344 96.9011 40.276 95.4085C39.8176 93.9159 38.8937 92.847 37.5043 92.2016C36.536 91.7518 35.583 91.6546 34.6453 91.9101C33.7175 92.1445 33.0188 92.767 32.5495 93.7774C32.3539 94.1984 32.2132 94.7217 32.1274 95.3473C34.8158 97.1079 37.2749 98.8389 39.5047 100.54Z" fill="#E9A803"/>
<path d="M62.3931 76.6329L58.9099 75.3221C58.1383 76.2503 57.2165 77.0687 56.1446 77.7774C57.1237 78.9233 57.8632 79.704 58.363 80.1195C60.0945 81.5587 61.6111 82.3667 62.913 82.5434C62.826 84.282 62.3003 85.7315 61.3359 86.8917C60.3714 88.052 59.3513 88.6075 58.2754 88.5583C57.1816 88.4943 55.9743 87.9133 54.6534 86.8153C53.3147 85.7025 50.0069 82.0021 44.7299 75.7141L40.6854 74.7518C41.062 71.6843 41.9477 69.3116 43.3424 67.6337C44.4107 66.3485 45.5019 65.5804 46.6161 65.3294C47.1934 63.5456 47.9272 62.1181 48.8174 61.0472C50.1825 59.405 51.819 58.5619 53.7269 58.5179C55.6348 58.474 57.3652 59.0974 58.9181 60.3883C60.0784 61.3527 60.9581 62.582 61.5573 64.0761C62.1386 65.5554 62.2937 67.1482 62.0224 68.8544C64.2583 69.6867 66.3126 70.2473 68.1852 70.5363C70.0727 70.8074 71.5333 70.7387 72.567 70.3303C72.6481 71.0315 72.5051 71.8936 72.1378 72.9163C71.8033 73.9361 71.3763 74.7584 70.857 75.3831C69.8481 76.5969 68.736 77.3175 67.5207 77.5449C66.2877 77.7574 64.5784 77.4534 62.3931 76.6329ZM54.2054 74.1734C55.3924 72.7454 55.9464 71.3345 55.8674 69.9408C55.8032 68.5292 55.3517 67.4747 54.5128 66.7774C53.6738 66.08 52.8116 65.7557 51.926 65.8043C51.0404 65.853 50.2415 66.3057 49.5293 67.1625C49.1436 67.6266 48.8203 68.1426 48.5594 68.7105C51.494 72.1157 53.1964 74.1345 53.6667 74.7669C53.7884 74.6568 53.968 74.4589 54.2054 74.1734Z" fill="#E9A803"/>
<path d="M79.3559 67.8524C78.254 68.6656 77.1866 68.9197 76.1537 68.6146C75.107 68.2908 74.0737 67.4379 73.0538 66.0558C72.0201 64.6551 69.6933 60.271 66.0735 52.9033L62.3766 51.0015C63.4809 48.0807 64.9014 45.9794 66.6383 44.6976C67.7402 43.8844 68.8078 43.9043 69.8411 44.7572C71.9102 43.1437 74.1921 40.7241 76.6868 37.4983C77.291 38.0044 77.8137 38.5562 78.2547 39.1538C79.3711 40.6666 79.7076 42.178 79.2642 43.688C78.8394 45.1842 77.8427 46.5112 76.2739 47.6689C75.2093 48.4546 73.9981 49.0023 72.6401 49.3121C73.1109 50.2628 73.8625 51.8285 74.8948 54.0091C75.6823 53.6299 76.3189 53.2611 76.8044 52.9027C77.4599 52.1882 78.1418 51.3532 78.8502 50.3977C79.1779 50.6463 79.6105 51.1348 80.148 51.8631C80.6718 52.5728 80.8027 53.3561 80.5407 54.2129C80.2788 55.0697 79.7836 55.7669 79.0552 56.3044C78.3455 56.8282 77.5551 57.2817 76.6841 57.6649C77.3469 58.9931 78.0643 60.1801 78.8361 61.226L83.3744 57.8768C84.6422 56.6239 85.8022 55.2053 86.8543 53.6211C87.2145 53.8745 87.6082 54.2908 88.0355 54.8697C88.8486 55.9716 89.2454 57.1933 89.2258 58.5348C89.2248 59.8625 88.6547 60.9468 87.5154 61.7875C86.9178 62.2286 85.9504 62.755 84.6133 63.3667C83.3087 63.9834 82.3555 64.4704 81.7539 64.8279C81.2571 66.0311 80.4578 67.0392 79.3559 67.8524Z" fill="#E9A803"/>
<path d="M95.5377 28.2172C98.3553 27.0137 100.61 26.442 102.301 26.502C103.984 26.5406 105.13 27.275 105.741 28.7051C106.343 30.114 106.366 31.3788 105.81 32.4997C105.266 33.5902 104.439 34.3725 103.329 34.8466C102.219 35.3207 101.097 35.4717 99.9636 35.2996C98.8423 35.0971 97.9102 34.5992 97.1675 33.8058C96.3778 34.1432 95.7339 34.7337 95.2361 35.5773C94.7505 36.3905 94.5895 37.2543 94.7529 38.1689C99.417 37.3882 102.959 37.2889 105.378 37.871C107.797 38.453 109.463 39.8113 110.374 41.9459C111.286 44.0804 111.044 46.2029 109.649 48.3134C108.275 50.4147 105.944 52.1674 102.657 53.5714C99.391 54.9664 96.8835 55.5074 95.1345 55.1943C93.3854 54.8813 92.1963 53.9884 91.5672 52.5155C90.9381 51.0427 90.8181 49.4912 91.2072 47.8611C92.0657 48.6302 93.2888 49.13 94.8764 49.3605C96.4854 49.5819 97.9089 49.4282 99.147 48.8994C101.431 47.9239 102.572 46.5781 102.572 44.8622C98.8275 45.9061 95.7079 46.0775 93.2126 45.3766C90.7082 44.6542 89.0001 43.2258 88.0884 41.0912C87.4775 39.661 87.3193 38.2268 87.6136 36.7886C87.8989 35.3291 88.5115 34.0452 89.4516 32.9369C91.289 30.7387 93.3177 29.1654 95.5377 28.2172Z" fill="#E9A803"/>
<path d="M125.629 19.988C128.654 19.503 130.98 19.4945 132.606 19.9625C134.229 20.4076 135.164 21.3979 135.41 22.9334C135.652 24.4461 135.368 25.6788 134.557 26.6316C133.765 27.5578 132.773 28.1164 131.582 28.3074C130.39 28.4985 129.265 28.3732 128.207 27.9317C127.168 27.4635 126.384 26.7546 125.856 25.805C125.008 25.9409 124.24 26.3578 123.553 27.0557C122.885 27.727 122.519 28.5261 122.456 29.453C127.171 29.8256 130.631 30.5873 132.837 31.7382C135.043 32.889 136.33 34.6103 136.697 36.9022C137.065 39.1941 136.316 41.1947 134.451 42.9042C132.608 44.61 129.923 45.7458 126.393 46.3116C122.886 46.8738 120.323 46.7911 118.702 46.0637C117.08 45.3362 116.143 44.1818 115.89 42.6004C115.636 41.019 115.896 39.4847 116.668 37.9974C117.315 38.9516 118.38 39.7328 119.865 40.3411C121.372 40.9458 122.79 41.1415 124.12 40.9284C126.572 40.5353 128.005 39.5062 128.42 37.8412C124.535 37.9469 121.467 37.3574 119.216 36.0728C116.961 34.7652 115.65 32.9655 115.282 30.6736C115.036 29.138 115.23 27.7082 115.864 26.3842C116.494 25.0372 117.4 23.94 118.58 23.0925C120.896 21.4049 123.245 20.3701 125.629 19.988Z" fill="#E9A803"/>
<path d="M146.496 44.5827C145.018 44.4345 143.999 43.9007 143.438 42.9813C142.879 42.0389 142.686 40.7131 142.857 39.004C143.031 37.2718 144.248 32.4601 146.509 24.5688L145.045 20.6778C147.823 19.2536 150.287 18.6491 152.435 18.8645C153.867 19.0081 154.652 19.7867 154.79 21.2002C157.305 20.0761 159.706 19.6287 161.993 19.858C163.494 20.0085 164.776 20.487 165.838 21.2933C167.096 22.236 167.626 23.7004 167.427 25.6866C167.098 28.9662 165.046 31.1632 161.272 32.2777C164.903 33.295 166.543 35.5473 166.193 39.0347C165.966 41.2981 164.85 43.0057 162.845 44.1577C160.84 45.3096 158.671 45.7686 156.339 45.5347C154.029 45.3031 152.219 44.6317 150.907 43.5204C149.445 44.3768 147.975 44.731 146.496 44.5827ZM158.267 37.4701C158.376 36.3846 158.132 35.5554 157.537 34.9824C156.964 34.4118 156.147 34.0732 155.084 33.9667C154.022 33.8601 152.81 33.9603 151.45 34.2671C150.884 36.1931 150.531 37.849 150.392 39.2347C151.47 39.8794 152.622 40.2631 153.846 40.3859C155.07 40.5086 156.08 40.3184 156.877 39.8151C157.697 39.3141 158.161 38.5325 158.267 37.4701ZM157.342 24.0105C156.442 23.9202 155.454 23.9962 154.38 24.2384C154.151 25.1252 153.492 27.3919 152.404 31.0385C154.334 31.0921 156.009 30.7935 157.427 30.1426C158.848 29.4686 159.633 28.381 159.784 26.8797C159.958 25.1476 159.144 24.1912 157.342 24.0105Z" fill="#E9A803"/>
<path d="M174.046 41.6368C174.185 41.1932 174.479 40.2624 174.927 38.8445C175.375 37.4266 175.699 36.3462 175.899 35.6034C176.128 34.8469 176.378 33.8009 176.648 32.4655C176.939 31.1381 177.084 30.0411 177.082 29.1745C177.123 26.9139 176.673 25.1153 175.731 23.7785C177.807 23.3811 179.368 23.375 180.413 23.7604C181.48 24.1538 182.298 24.6532 182.867 25.2585C183.435 25.8639 183.845 26.4973 184.096 27.1588C184.376 27.8065 184.53 28.6302 184.558 29.6298C184.585 30.6294 184.553 31.5206 184.463 32.3035C184.372 33.0865 184.172 34.0642 183.864 35.2369C183.577 36.4176 183.316 37.3604 183.081 38.0653C182.868 38.7783 182.559 39.7159 182.155 40.8782C181.781 42.0268 181.525 42.8229 181.386 43.2665L181.844 43.4351C183.44 41.7227 185.068 39.6883 186.728 37.3317C188.41 34.9832 189.536 33.0358 190.106 31.4895C190.387 30.7273 190.485 29.9592 190.399 29.1855C192.41 28.764 194.047 28.786 195.31 29.2517C197.705 30.1348 198.438 31.8395 197.506 34.3658C197.033 35.6508 195.748 37.6262 193.652 40.2922C191.556 42.9582 189.322 45.4619 186.95 47.8035C183.872 50.8499 181.118 52.8526 178.687 53.8116C176.277 54.7787 173.645 54.7364 170.792 53.6847C169.529 53.219 168.478 52.5471 167.639 51.6689C166.615 50.6232 166.359 49.4035 166.873 48.0097C167.387 46.6158 168.45 45.3751 170.063 44.2875C170.286 45.1611 170.727 45.9424 171.389 46.6314C172.058 47.2987 172.872 47.809 173.83 48.1622C174.81 48.5235 175.821 48.5993 176.863 48.3897C177.935 48.1664 178.841 47.622 179.58 46.7567C178.322 46.6143 177.213 46.3665 176.255 46.0133C174.186 45.2506 173.45 43.7918 174.046 41.6368Z" fill="#E9A803"/>
<path d="M206.088 58.9208L207.081 55.334C206.087 54.6489 205.19 53.8043 204.388 52.8002C203.334 53.8783 202.623 54.6849 202.254 55.22C200.976 57.0736 200.308 58.6567 200.248 59.9693C198.509 60.0387 197.018 59.6452 195.776 58.7888C194.534 57.9324 193.889 56.9663 193.842 55.8903C193.807 54.7952 194.277 53.5406 195.252 52.1265C196.24 50.6933 199.629 47.0666 205.418 41.2464L206.013 37.1319C209.102 37.2316 211.545 37.9007 213.341 39.1392C214.717 40.0878 215.58 41.1056 215.93 42.1928C217.758 42.6076 219.246 43.2103 220.393 44.0008C222.151 45.2129 223.137 46.7671 223.352 48.6633C223.567 50.5596 223.102 52.339 221.955 54.0016C221.099 55.2437 219.954 56.2302 218.519 56.9611C217.098 57.6729 215.526 57.9703 213.802 57.8533C213.174 60.1549 212.8 62.2512 212.68 64.1422C212.58 66.0464 212.779 67.495 213.279 68.4879C212.588 68.6316 211.716 68.5665 210.665 68.2925C209.619 68.0509 208.762 67.6995 208.093 67.2384C206.794 66.3424 205.976 65.2995 205.64 64.1096C205.318 62.9006 205.467 61.171 206.088 58.9208ZM207.803 50.5454C209.332 51.5994 210.787 52.0245 212.168 51.8207C213.568 51.6301 214.577 51.0857 215.197 50.1875C215.816 49.2894 216.062 48.4015 215.934 47.5239C215.806 46.6462 215.283 45.8912 214.366 45.2588C213.869 44.9163 213.326 44.6406 212.737 44.4318C209.609 47.6602 207.751 49.5369 207.163 50.0622C207.284 50.1735 207.497 50.3346 207.803 50.5454Z" fill="#E9A803"/>
<path d="M242.8 73.4492L236.316 78.6163C234.144 80.4695 232.467 82.2055 231.285 83.8243C230.119 85.4607 229.675 87.0144 229.953 88.4853C228.155 87.9148 226.72 87.0028 225.651 85.7492C223.767 83.5422 224.39 80.6609 227.52 77.1053L222.909 71.7024C221.475 72.3463 220.45 72.9319 219.832 73.4592C219.231 73.9715 218.806 74.4565 218.556 74.9142C216.611 74.3157 215.202 73.5045 214.328 72.4804C212.987 70.909 213.27 69.3096 215.177 67.6824C216.13 66.8688 217.579 66.1356 219.524 65.4827C221.484 64.8475 223.815 64.217 226.515 63.591C229.23 62.9826 231.001 62.5547 231.827 62.3073C232.615 61.2995 233.362 60.2802 234.07 59.2495C235.489 59.6252 236.719 60.1013 237.76 60.6776C238.834 61.2565 239.792 62.0403 240.636 63.029C241.495 64.0355 241.869 64.9212 241.76 65.6863C243.06 66.3161 243.989 66.9576 244.546 67.6109C245.104 68.2642 245.412 68.8401 245.471 69.3388C245.531 69.8374 245.418 70.3306 245.132 70.8184C244.637 71.6683 243.859 72.5452 242.8 73.4492ZM237.648 68.6456L236.925 67.7981C232.497 68.8307 229.068 69.7119 226.64 70.4417L230.143 74.5468C232.067 72.9045 234.569 70.9374 237.648 68.6456ZM244.555 60.3262C244.078 60.733 243.77 61.1943 243.63 61.7101C243.523 62.2285 243.658 62.7084 244.035 63.1498C244.426 63.6089 245.045 63.7978 245.891 63.7166C246.753 63.653 247.519 63.3349 248.19 62.7624C249.196 61.9036 249.247 60.9445 248.343 59.8851C248.253 59.7791 248.039 59.5647 247.703 59.2417C246.487 59.2113 245.437 59.5728 244.555 60.3262ZM250.74 65.8042C249.451 66.9041 248.017 67.334 246.439 67.0939C244.894 66.8564 243.541 66.0578 242.381 64.6983C241.221 63.3387 240.64 62.0497 240.637 60.8312C240.635 59.6126 241.137 58.5739 242.143 57.7151C243.432 56.6152 244.849 56.184 246.395 56.4216C247.973 56.6617 249.342 57.4615 250.502 58.8211C251.662 60.1806 252.243 61.4697 252.246 62.6882C252.248 63.9067 251.746 64.9454 250.74 65.8042Z" fill="#E9A803"/>
<path d="M244.022 105.928L244.874 106.459C246.896 103.889 249.482 101.891 252.633 100.466C255.087 99.3563 257.442 99.0168 259.701 99.4474C261.969 99.8992 263.605 101.235 264.609 103.456C265.135 104.619 265.379 105.693 265.341 106.679C264.061 107.003 261.827 107.555 258.638 108.335C251.779 110.011 247.884 111.059 246.954 111.48C244.945 112.389 243.596 113.406 242.908 114.533C241.874 113.879 241.064 113.214 240.477 112.537C239.891 111.86 239.315 110.897 238.751 109.649C238.196 108.423 237.953 107.182 238.023 105.928C238.102 104.695 238.427 103.554 238.997 102.507C239.599 101.47 240.444 100.439 241.533 99.4109C243.442 97.6049 246.103 95.8281 249.516 94.0805L249.286 93.573C244.448 94.5898 241.15 95.4952 239.395 96.2892C237.64 97.0831 236.398 98.0269 235.67 99.1206C234.144 98.2821 233.07 97.1755 232.449 95.8009C231.827 94.4262 231.773 93.2659 232.288 92.3198C232.824 91.3641 233.874 90.5323 235.439 89.8245C237.025 89.107 241.8 87.75 249.762 85.7535L252.396 82.5369C254.99 84.2168 256.708 85.9873 257.55 87.8483C258.391 89.7094 258.7 91.2641 258.475 92.5123C258.271 93.751 257.631 94.8428 256.555 95.7879C255.48 96.7329 254.282 97.6057 252.963 98.4062C251.674 99.2184 250.158 100.287 248.413 101.611C246.678 102.956 245.214 104.395 244.022 105.928Z" fill="#E9A803"/>
<defs>
<linearGradient id="paint0_linear_52_59" x1="141.58" y1="52.6154" x2="141.58" y2="187.285" gradientUnits="userSpaceOnUse">
<stop stop-color="#BF561C"/>
<stop offset="1" stop-color="#F2B313"/>
</linearGradient>
</defs>
</svg>
