<svg width="176" height="148" viewBox="0 0 176 148" fill="none" xmlns="http://www.w3.org/2000/svg">
<mask id="path-1-inside-1_68_30" fill="white">
<path fill-rule="evenodd" clip-rule="evenodd" d="M141.269 90.2762C147.069 82.8655 150.365 74.3663 150.365 65.3307C150.365 36.5148 116.843 13.1549 75.4923 13.1549C34.1414 13.1549 0.619934 36.5148 0.619934 65.3307C0.619934 74.3664 3.91587 82.8656 9.71563 90.2764V128.187C9.71563 137.802 17.51 145.596 27.1247 145.596H123.86C133.475 145.596 141.269 137.802 141.269 128.187V90.2762Z"/>
</mask>
<path fill-rule="evenodd" clip-rule="evenodd" d="M141.269 90.2762C147.069 82.8655 150.365 74.3663 150.365 65.3307C150.365 36.5148 116.843 13.1549 75.4923 13.1549C34.1414 13.1549 0.619934 36.5148 0.619934 65.3307C0.619934 74.3664 3.91587 82.8656 9.71563 90.2764V128.187C9.71563 137.802 17.51 145.596 27.1247 145.596H123.86C133.475 145.596 141.269 137.802 141.269 128.187V90.2762Z" fill="#CFD1F5"/>
<path d="M141.269 90.2762L132.7 83.5703L130.388 86.5247V90.2762H141.269ZM9.71563 90.2764H20.5963V86.5249L18.2842 83.5705L9.71563 90.2764ZM139.484 65.3307C139.484 71.5972 137.225 77.7892 132.7 83.5703L149.838 96.982C156.913 87.9417 161.245 77.1354 161.245 65.3307H139.484ZM75.4923 24.0356C94.2195 24.0356 110.704 29.3431 122.214 37.3638C133.762 45.4108 139.484 55.47 139.484 65.3307H161.245C161.245 46.3756 150.207 30.3469 134.656 19.5099C119.067 8.64672 98.1159 2.27421 75.4923 2.27421V24.0356ZM11.5006 65.3307C11.5006 55.47 17.223 45.4108 28.7704 37.3638C40.2802 29.3431 56.7651 24.0356 75.4923 24.0356V2.27421C52.8686 2.27421 31.9174 8.64672 16.3287 19.5099C0.777624 30.3469 -10.2608 46.3756 -10.2608 65.3307H11.5006ZM18.2842 83.5705C13.7598 77.7894 11.5006 71.5973 11.5006 65.3307H-10.2608C-10.2608 77.1356 -5.92807 87.9419 1.14704 96.9823L18.2842 83.5705ZM20.5963 128.187V90.2764H-1.16507V128.187H20.5963ZM27.1247 134.715C23.5192 134.715 20.5963 131.792 20.5963 128.187H-1.16507C-1.16507 143.811 11.5007 156.477 27.1247 156.477V134.715ZM123.86 134.715H27.1247V156.477H123.86V134.715ZM130.388 128.187C130.388 131.792 127.466 134.715 123.86 134.715V156.477C139.484 156.477 152.15 143.811 152.15 128.187H130.388ZM130.388 90.2762V128.187H152.15V90.2762H130.388Z" fill="#2F2BD4" mask="url(#path-1-inside-1_68_30)"/>
<mask id="path-3-inside-2_68_30" fill="white">
<path fill-rule="evenodd" clip-rule="evenodd" d="M141.269 90.2762C147.069 82.8655 150.365 74.3663 150.365 65.3307C150.365 36.5148 116.843 13.1549 75.4923 13.1549C34.1414 13.1549 0.619934 36.5148 0.619934 65.3307C0.619934 74.3664 3.91587 82.8656 9.71563 90.2764V128.187C9.71563 137.802 17.51 145.596 27.1247 145.596H123.86C133.475 145.596 141.269 137.802 141.269 128.187V90.2762Z"/>
</mask>
<path fill-rule="evenodd" clip-rule="evenodd" d="M141.269 90.2762C147.069 82.8655 150.365 74.3663 150.365 65.3307C150.365 36.5148 116.843 13.1549 75.4923 13.1549C34.1414 13.1549 0.619934 36.5148 0.619934 65.3307C0.619934 74.3664 3.91587 82.8656 9.71563 90.2764V128.187C9.71563 137.802 17.51 145.596 27.1247 145.596H123.86C133.475 145.596 141.269 137.802 141.269 128.187V90.2762Z" fill="#D1CAFF"/>
<path d="M141.269 90.2762L132.7 83.5703L130.388 86.5247V90.2762H141.269ZM9.71563 90.2764H20.5963V86.5249L18.2842 83.5705L9.71563 90.2764ZM139.484 65.3307C139.484 71.5972 137.225 77.7892 132.7 83.5703L149.838 96.982C156.913 87.9417 161.245 77.1354 161.245 65.3307H139.484ZM75.4923 24.0356C94.2195 24.0356 110.704 29.3431 122.214 37.3638C133.762 45.4108 139.484 55.47 139.484 65.3307H161.245C161.245 46.3756 150.207 30.3469 134.656 19.5099C119.067 8.64672 98.1159 2.27421 75.4923 2.27421V24.0356ZM11.5006 65.3307C11.5006 55.47 17.223 45.4108 28.7704 37.3638C40.2802 29.3431 56.7651 24.0356 75.4923 24.0356V2.27421C52.8686 2.27421 31.9174 8.64672 16.3287 19.5099C0.777624 30.3469 -10.2608 46.3756 -10.2608 65.3307H11.5006ZM18.2842 83.5705C13.7598 77.7894 11.5006 71.5973 11.5006 65.3307H-10.2608C-10.2608 77.1356 -5.92807 87.9419 1.14704 96.9823L18.2842 83.5705ZM20.5963 128.187V90.2764H-1.16507V128.187H20.5963ZM27.1247 134.715C23.5192 134.715 20.5963 131.792 20.5963 128.187H-1.16507C-1.16507 143.811 11.5007 156.477 27.1247 156.477V134.715ZM123.86 134.715H27.1247V156.477H123.86V134.715ZM130.388 128.187C130.388 131.792 127.466 134.715 123.86 134.715V156.477C139.484 156.477 152.15 143.811 152.15 128.187H130.388ZM130.388 90.2762V128.187H152.15V90.2762H130.388Z" fill="#2F2BD4" mask="url(#path-3-inside-2_68_30)"/>
<path d="M52.4205 43.8803L138.274 55.4162L142.045 57.0984C142.045 57.0984 158.913 55.1587 161.9 46.9861C163.105 43.6899 163.686 39.7994 163.178 36.4485C162.919 34.743 162.378 33.1772 161.495 31.9007C160.502 30.4667 159.076 29.3978 157.131 28.9058C147.481 26.4655 128.957 28.9058 128.957 28.9058C128.957 28.9058 100.356 27.0405 82.5913 22.8051C66.0756 18.8676 41.4605 8.71801 41.4605 8.71801C41.4605 8.71801 27.3142 2.91486 21.7272 7.71969C21.3873 8.01198 21.0791 8.34352 20.8077 8.71801C19.9283 9.9315 19.3651 11.1523 19.0605 12.3784C17.6043 18.2416 22.062 24.2275 26.132 30.1259C29.9402 35.6451 36.023 39.9496 43.0357 43.3032L45.6542 41.5509L47.0962 42.3274C47.7217 42.5882 48.3435 42.7218 48.9701 42.8564C49.5229 42.9751 50.0794 43.0946 50.6457 43.3032L52.4205 43.8803Z" fill="#B43434"/>
<path d="M70.5008 55.4162L71.4991 61.9606L82.1155 62.9627L100.893 64.7351L107.216 65.3319L113.428 65.9183L118.086 66.358L123.743 66.892L152.583 69.6142V64.8445L70.5008 55.4162Z" fill="#3734B4"/>
<path d="M30.7907 72.1654L32.5654 70.1688L41.772 67.6176L38.2225 67.4831L33.8965 67.3193L30.5134 67.1911L27.1303 67.063L25.6611 69.0595L24.0245 71.2837L22.4715 73.3941L21.1405 75.2029L20.1266 76.5808L19.1126 77.9588L19.0371 84.034H19.8094H21.1405H22.4715H24.0245H25.6611H27.1303H30.3668L30.7907 72.1654Z" fill="#3734B4"/>
<path d="M32.5654 70.1688L30.7907 72.1654L30.3668 84.034H31.5672V78.8207V77.7115L41.772 67.6176L32.5654 70.1688Z" fill="#3734B4"/>
<path d="M169.554 26.0218L161.495 31.9007C162.378 33.1772 162.919 34.743 163.178 36.4485L173.325 40.7744L169.554 35.2283L172.66 29.7932L168.223 31.9007L169.554 26.0218Z" fill="#B43434"/>
<path d="M19.0605 12.3784C19.3651 11.1523 19.9283 9.9315 20.8077 8.71801C21.0791 8.34352 21.3873 8.01198 21.7272 7.71969L12.5995 0.842529L17.0364 7.71969H11.934L15.5944 10.16L7.27524 12.3784H19.0605Z" fill="#B43434"/>
<path d="M111.986 72.0545V94.3498H123.743V72.9418L111.986 72.0545Z" fill="#C3D4F7"/>
<path d="M97.0111 71.0562V94.3498H109.102V83.2021V72.0545L102.114 71.5553L97.0111 71.0562Z" fill="#C3D4F7"/>
<path d="M78.3762 69.6142V95.459H91.9087V70.6125L78.3762 69.6142Z" fill="#C3D4F7"/>
<path d="M58.0775 68.1722V95.459H75.4923V69.6142L58.0775 68.1722Z" fill="#C3D4F7"/>
<path d="M30.0142 93.9061L30.7907 94.007L34.1184 94.4396L38.2225 94.9732L41.1064 95.3481L41.4605 80.5955L31.5672 78.8207V84.034H30.3668L30.0142 93.9061Z" fill="url(#paint0_linear_68_30)"/>
<path d="M41.772 67.6176L31.5672 77.7115L41.4818 79.7081L41.772 67.6176Z" fill="url(#paint1_linear_68_30)"/>
<path fill-rule="evenodd" clip-rule="evenodd" d="M52.4205 44.0175V43.8803L50.6457 43.3032C51.2379 43.5212 51.8295 43.761 52.4205 44.0175Z" fill="#D8D3CA"/>
<path d="M45.6542 146.705V52.5322L43.0357 53.9202L38.2225 56.4716L33.8965 58.7647L30.5134 60.558L27.1303 62.3513L25.6611 63.1301L24.0245 63.9976L22.4715 64.8208L21.1405 65.5263L20.1976 66.0261L19.2548 66.5259L19.1126 77.9588L20.1266 76.5808L21.1405 75.2029L22.4715 73.3941L24.0245 71.2837L25.6611 69.0595L27.1303 67.063L30.5134 67.1911L33.8965 67.3193L38.2225 67.4831L41.772 67.6176L41.4818 79.7081L41.4605 80.5955L41.1064 95.3481L38.2225 94.9732L34.1184 94.4396L30.7907 94.007L30.0142 93.9061L30.3668 84.034H27.1303H25.6611H24.0245H22.4715H21.1405H19.8094H19.0371L18.4784 128.957L19.8094 129.827L21.1405 130.696L22.4715 131.565L24.0245 132.579L25.6611 133.648L27.1303 134.608L30.7907 136.998L33.8965 139.026L38.2225 141.852L43.0357 144.995L45.6542 146.705Z" fill="#C09E99"/>
<path d="M95.0145 54.9393L153.692 62.2933L142.045 57.0984L138.274 55.4162L52.8423 44.0735L69.208 51.57C69.8351 51.6976 70.4577 51.8205 71.0747 51.9389L95.0145 54.9393Z" fill="#3734B4"/>
<path d="M70.5008 55.4162L152.583 64.8445L153.692 62.2933L95.0145 54.9393C95.0145 54.9393 84.2991 54.476 71.0747 51.9389L69.6134 51.7557L70.5008 55.4162Z" fill="white"/>
<path fill-rule="evenodd" clip-rule="evenodd" d="M54.9717 63.0698V98.343L58.0775 98.2705L63.5127 98.1437L69.6134 98.0014L75.4923 97.8643L82.1155 97.7098L88.0264 97.5719L95.0145 97.4088L100.893 97.2717L107.216 97.1242L113.428 96.9793L118.086 96.8706L123.743 96.7387L126.295 96.6791V69.6142L123.743 69.3801L118.086 68.861L113.428 68.4335L107.216 67.8636L100.893 67.2834L95.0145 66.744L88.0264 66.1028L82.1155 65.5604L75.4923 64.9527L68.8369 64.342L63.5127 63.8535L58.0775 63.3548L54.9717 63.0698ZM58.0775 95.459V68.1722L75.4923 69.6142V95.459H58.0775ZM78.3762 95.459V69.6142L91.9087 70.6125V95.459H78.3762ZM97.0111 94.3498V71.0562L102.114 71.5553L109.102 72.0545V83.2021V94.3498H97.0111ZM111.986 94.3498V72.0545L123.743 72.9418V94.3498H111.986Z" fill="#E8E8E8"/>
<path d="M58.0775 98.2705V144.089L63.5127 142.944V98.1437L58.0775 98.2705Z" fill="#F0D3D3"/>
<path d="M69.6134 98.0014V141.659L75.4923 140.421V97.8643L69.6134 98.0014Z" fill="#F0D3D3"/>
<path d="M82.1155 97.7098V139.026L88.0264 137.782V97.5719L82.1155 97.7098Z" fill="#F0D3D3"/>
<path d="M95.0145 97.4088V136.31L100.893 135.072V97.2717L95.0145 97.4088Z" fill="#F0D3D3"/>
<path d="M107.216 97.1242V133.74L113.428 132.432V96.9793L107.216 97.1242Z" fill="#F0D3D3"/>
<path fill-rule="evenodd" clip-rule="evenodd" d="M131.508 128.625L128.957 68.1722L127.263 67.9891L95.0145 64.5028L88.0264 63.7473L75.4923 62.3923L71.4991 61.9606L70.5008 55.4162H68.8369L69.6134 51.7557L69.208 51.57C69.0843 51.5449 68.9606 51.5183 68.8369 51.4904C67.0657 51.0905 65.2912 50.4119 63.5127 49.5957C61.8131 48.8158 60.1099 47.9103 58.4026 47.0026L58.0775 46.8298C56.1972 45.8307 54.3117 44.8384 52.4205 44.0175V51.7557V145.28L58.0775 144.089V98.2705L54.9717 98.343V63.0698L58.0775 63.3548L63.5127 63.8535L68.8369 64.342L75.4923 64.9527L82.1155 65.5604L88.0264 66.1028L95.0145 66.744L100.893 67.2834L107.216 67.8636L113.428 68.4335L118.086 68.861L123.743 69.3801L126.295 69.6142V96.6791L123.743 96.7387V130.26L128.957 129.162L131.508 128.625ZM118.086 131.451L113.428 132.432V96.9793L118.086 96.8706V131.451ZM100.893 97.2717L107.216 97.1242V133.74L100.893 135.072V97.2717ZM95.0145 136.31L88.0264 137.782V97.5719L95.0145 97.4088V136.31ZM75.4923 97.8643L82.1155 97.7098V139.026L75.4923 140.421V97.8643ZM69.6134 141.659L63.5127 142.944V98.1437L69.6134 98.0014V141.659Z" fill="#D7ABA5"/>
<path d="M118.086 96.8706V131.451L123.743 130.26V96.7387L118.086 96.8706Z" fill="#F0D3D3"/>
<path d="M45.6542 52.5322V146.705L52.4205 145.28V51.7557H47.8727L45.6542 52.5322Z" fill="#2F2BD4"/>
<path d="M45.6542 52.5322V146.705M45.6542 52.5322L47.8727 51.7557H52.4205M45.6542 52.5322L43.0357 43.3032M45.6542 52.5322L43.0357 53.9202M45.6542 146.705L52.4205 145.28M45.6542 146.705L43.0357 144.995M71.4991 61.9606L70.5008 55.4162M71.4991 61.9606L75.4923 62.3923M71.4991 61.9606L82.1155 62.9627M70.5008 55.4162H68.8369L69.6134 51.7557M70.5008 55.4162L152.583 64.8445M70.5008 55.4162L69.6134 51.7557M69.6134 51.7557L69.208 51.57M69.6134 51.7557L71.0747 51.9389M52.4205 43.8803L138.274 55.4162M52.4205 43.8803L50.6457 43.3032M52.4205 43.8803V44.0175M52.4205 43.8803L52.8423 44.0735M52.4205 145.28V51.7557M52.4205 145.28L58.0775 144.089M52.4205 51.7557V44.0175M152.583 64.8445V69.6142L123.743 66.892M152.583 64.8445L153.692 62.2933M153.692 62.2933L95.0145 54.9393M153.692 62.2933L142.045 57.0984M153.692 62.2933L71.0747 51.9389M138.274 55.4162L142.045 57.0984M138.274 55.4162L52.8423 44.0735M19.2548 66.5259L16.149 68.1722V61.295L43.0357 43.3032M19.2548 66.5259L19.1126 77.9588M19.2548 66.5259L20.1976 66.0261L21.1405 65.5263M41.772 67.6176L32.5654 70.1688L30.7907 72.1654L30.3668 84.034M41.772 67.6176L31.5672 77.7115M41.772 67.6176L41.4818 79.7081M41.772 67.6176L38.2225 67.4831M31.5672 77.7115L41.4818 79.7081M31.5672 77.7115V78.8207M27.1303 67.063L30.5134 67.1911M27.1303 67.063V62.3513M27.1303 67.063L25.6611 69.0595L24.0245 71.2837M41.4818 79.7081L41.4605 80.5955M41.4605 80.5955L41.1064 95.3481L38.2225 94.9732M41.4605 80.5955L31.5672 78.8207M31.5672 78.8207V84.034H30.3668M95.0145 54.9393C95.0145 54.9393 84.2991 54.476 71.0747 51.9389M95.0145 54.9393L71.0747 51.9389M142.045 57.0984C142.045 57.0984 158.913 55.1587 161.9 46.9861C163.105 43.6899 163.686 39.7994 163.178 36.4485M161.495 31.9007C160.502 30.4667 159.076 29.3978 157.131 28.9058C147.481 26.4655 128.957 28.9058 128.957 28.9058C128.957 28.9058 100.356 27.0405 82.5913 22.8051C66.0756 18.8676 41.4605 8.71801 41.4605 8.71801C41.4605 8.71801 27.3142 2.91486 21.7272 7.71969M161.495 31.9007L169.554 26.0218L168.223 31.9007L172.66 29.7932L169.554 35.2283L173.325 40.7744L163.178 36.4485M161.495 31.9007C162.378 33.1772 162.919 34.7429 163.178 36.4485M19.0605 12.3784C19.3651 11.1523 19.9283 9.9315 20.8077 8.71801C21.0791 8.34352 21.3873 8.01198 21.7272 7.71969M19.0605 12.3784C17.6043 18.2416 22.062 24.2275 26.132 30.1259C29.9402 35.6451 36.023 39.9496 43.0357 43.3032M19.0605 12.3784H7.27524L15.5944 10.16L11.934 7.71969H17.0364L12.5995 0.842529L21.7272 7.71969M43.0357 43.3032L45.6542 41.5509L47.0962 42.3273C47.7217 42.5883 48.3435 42.7218 48.9701 42.8564C49.5229 42.9751 50.0794 43.0946 50.6457 43.3032M43.0357 43.3032C43.8954 43.7143 42.1506 42.9201 43.0357 43.3032ZM19.0371 84.034L18.4784 128.957L19.8094 129.827L21.1405 130.696M19.0371 84.034H18.4784V78.8207L19.1126 77.9588M19.0371 84.034L19.1126 77.9588M19.0371 84.034H19.8094H21.1405M19.1126 77.9588L20.1266 76.5808L21.1405 75.2029M50.6457 43.3032C51.2379 43.5212 51.8295 43.761 52.4205 44.0175M30.3668 84.034L30.0142 93.9061L30.7907 94.007M30.3668 84.034H27.1303M69.208 51.57C69.8351 51.6976 70.4577 51.8205 71.0747 51.9389M69.208 51.57C69.0843 51.5449 68.9606 51.5183 68.8369 51.4904M69.208 51.57L52.8423 44.0735M52.4205 44.0175C54.3117 44.8384 56.1972 45.8307 58.0775 46.8298M52.4205 44.0175L52.8423 44.0735M43.0357 53.9202V144.995M43.0357 53.9202L38.2225 56.4716M43.0357 144.995L38.2225 141.852M38.2225 141.852V94.9732M38.2225 141.852L33.8965 139.026M38.2225 94.9732L34.1184 94.4396M38.2225 56.4716V67.4831M38.2225 56.4716L33.8965 58.7647M38.2225 67.4831L33.8965 67.3193M33.8965 58.7647V67.3193M33.8965 58.7647L30.5134 60.558M33.8965 67.3193L30.5134 67.1911M34.1184 94.4396L33.8965 139.026M34.1184 94.4396L30.7907 94.007M33.8965 139.026L30.7907 136.998M30.7907 136.998V94.007M30.7907 136.998L27.1303 134.608M30.5134 67.1911V60.558M30.5134 60.558L27.1303 62.3513M27.1303 134.608V84.034M27.1303 134.608L25.6611 133.648L24.0245 132.579M27.1303 84.034H25.6611H24.0245M27.1303 62.3513L25.6611 63.1301L24.0245 63.9976M24.0245 132.579V84.034M24.0245 132.579L22.4715 131.565L21.1405 130.696M24.0245 84.034H22.4715H21.1405M24.0245 71.2837V63.9976M24.0245 71.2837L22.4715 73.3941L21.1405 75.2029M24.0245 63.9976L22.4715 64.8208L21.1405 65.5263M21.1405 130.696V84.034M21.1405 75.2029V65.5263M58.0775 46.8298V63.3548M58.0775 46.8298C58.1859 46.8874 58.2942 46.945 58.4026 47.0026M58.0775 46.8298L58.4026 47.0026M58.0775 63.3548L54.9717 63.0698V98.343L58.0775 98.2705M58.0775 63.3548L63.5127 63.8535M58.0775 98.2705V144.089M58.0775 98.2705L63.5127 98.1437M58.0775 144.089L63.5127 142.944M63.5127 49.5957V63.8535M63.5127 49.5957C65.2912 50.4119 67.0657 51.0905 68.8369 51.4904M63.5127 49.5957C61.8131 48.8158 60.1099 47.9103 58.4026 47.0026M63.5127 63.8535L68.8369 64.342M63.5127 98.1437V142.944M63.5127 98.1437L69.6134 98.0014M63.5127 142.944L69.6134 141.659M69.6134 141.659V98.0014M69.6134 141.659L75.4923 140.421M69.6134 98.0014L75.4923 97.8643M68.8369 64.342V51.4904M68.8369 64.342L75.4923 64.9527M75.4923 62.3923V64.9527M75.4923 62.3923L88.0264 63.7473M75.4923 64.9527L82.1155 65.5604M75.4923 97.8643V140.421M75.4923 97.8643L82.1155 97.7098M75.4923 140.421L82.1155 139.026M82.1155 139.026V97.7098M82.1155 139.026L88.0264 137.782M82.1155 97.7098L88.0264 97.5719M82.1155 65.5604V62.9627M82.1155 65.5604L88.0264 66.1028M82.1155 62.9627L100.893 64.7351M88.0264 63.7473V66.1028M88.0264 63.7473L95.0145 64.5028M88.0264 66.1028L95.0145 66.744M88.0264 97.5719V137.782M88.0264 97.5719L95.0145 97.4088M88.0264 137.782L95.0145 136.31M95.0145 136.31V97.4088M95.0145 136.31L100.893 135.072M95.0145 97.4088L100.893 97.2717M95.0145 66.744V64.5028M95.0145 66.744L100.893 67.2834M95.0145 64.5028L127.263 67.9891M100.893 64.7351V67.2834M100.893 64.7351L107.216 65.3319M100.893 67.2834L107.216 67.8636M100.893 97.2717V135.072M100.893 97.2717L107.216 97.1242M100.893 135.072L107.216 133.74M107.216 133.74V97.1242M107.216 133.74L113.428 132.432M107.216 97.1242L113.428 96.9793M107.216 67.8636V65.3319M107.216 67.8636L113.428 68.4335M107.216 65.3319L113.428 65.9182M113.428 132.432V96.9793M113.428 132.432L118.086 131.451M113.428 96.9793L118.086 96.8706M113.428 68.4335V65.9182M113.428 68.4335L118.086 68.861M113.428 65.9182L118.086 66.358M118.086 66.358V68.861M118.086 66.358L123.743 66.892M118.086 68.861L123.743 69.3801M118.086 96.8706V131.451M118.086 96.8706L123.743 96.7387M118.086 131.451L123.743 130.26M123.743 130.26V96.7387M123.743 130.26L128.957 129.162M123.743 96.7387L126.295 96.6791V69.6142L123.743 69.3801M123.743 69.3801V66.892M128.957 129.162L131.508 128.625L128.957 68.1722L127.263 67.9891M128.957 129.162L127.263 67.9891M58.0775 68.1722V95.459H75.4923V69.6142L58.0775 68.1722ZM78.3762 69.6142V95.459H91.9087V70.6125L78.3762 69.6142ZM97.0111 71.0562V94.3498H109.102V83.2021V72.0545L102.114 71.5553L97.0111 71.0562ZM111.986 72.0545V94.3498H123.743V72.9418L111.986 72.0545Z" stroke="#050505" stroke-width="1.30568"/>
<path d="M52.4205 43.8803L138.274 55.4162L142.045 57.0984C142.045 57.0984 158.913 55.1587 161.9 46.9861C163.105 43.6899 163.686 39.7994 163.178 36.4485C162.919 34.743 162.378 33.1772 161.495 31.9007C160.502 30.4667 159.076 29.3978 157.131 28.9058C147.481 26.4655 128.957 28.9058 128.957 28.9058C128.957 28.9058 100.356 27.0405 82.5913 22.8051C66.0756 18.8676 41.4605 8.71801 41.4605 8.71801C41.4605 8.71801 27.3142 2.91486 21.7272 7.71969C21.3873 8.01198 21.0791 8.34352 20.8077 8.71801C19.9283 9.9315 19.3651 11.1523 19.0605 12.3784C17.6043 18.2416 22.062 24.2275 26.132 30.1259C29.9402 35.6451 36.023 39.9496 43.0357 43.3032L45.6542 41.5509L47.0962 42.3274C47.7217 42.5882 48.3435 42.7218 48.9701 42.8564C49.5229 42.9751 50.0794 43.0946 50.6457 43.3032L52.4205 43.8803Z" fill="#B43434"/>
<path d="M70.5008 55.4162L71.4991 61.9606L82.1155 62.9627L100.893 64.7351L107.216 65.3319L113.428 65.9183L118.086 66.358L123.743 66.892L152.583 69.6142V64.8445L70.5008 55.4162Z" fill="#3734B4"/>
<path d="M30.7907 72.1654L32.5654 70.1688L41.772 67.6176L38.2225 67.4831L33.8965 67.3193L30.5134 67.1911L27.1303 67.063L25.6611 69.0595L24.0245 71.2837L22.4715 73.3941L21.1405 75.2029L20.1266 76.5808L19.1126 77.9588L19.0371 84.034H19.8094H21.1405H22.4715H24.0245H25.6611H27.1303H30.3668L30.7907 72.1654Z" fill="#3734B4"/>
<path d="M32.5654 70.1688L30.7907 72.1654L30.3668 84.034H31.5672V78.8207V77.7115L41.772 67.6176L32.5654 70.1688Z" fill="#3734B4"/>
<path d="M169.554 26.0218L161.495 31.9007C162.378 33.1772 162.919 34.743 163.178 36.4485L173.325 40.7744L169.554 35.2283L172.66 29.7932L168.223 31.9007L169.554 26.0218Z" fill="#B43434"/>
<path d="M19.0605 12.3784C19.3651 11.1523 19.9283 9.9315 20.8077 8.71801C21.0791 8.34352 21.3873 8.01198 21.7272 7.71969L12.5995 0.842529L17.0364 7.71969H11.934L15.5944 10.16L7.27524 12.3784H19.0605Z" fill="#B43434"/>
<path d="M111.986 72.0545V94.3498H123.743V72.9418L111.986 72.0545Z" fill="#C3D4F7"/>
<path d="M97.0111 71.0562V94.3498H109.102V83.2021V72.0545L102.114 71.5553L97.0111 71.0562Z" fill="#C3D4F7"/>
<path d="M78.3762 69.6142V95.459H91.9087V70.6125L78.3762 69.6142Z" fill="#C3D4F7"/>
<path d="M58.0775 68.1722V95.459H75.4923V69.6142L58.0775 68.1722Z" fill="#C3D4F7"/>
<path d="M30.0142 93.9061L30.7907 94.007L34.1184 94.4396L38.2225 94.9732L41.1064 95.3481L41.4605 80.5955L31.5672 78.8207V84.034H30.3668L30.0142 93.9061Z" fill="url(#paint2_linear_68_30)"/>
<path d="M41.772 67.6176L31.5672 77.7115L41.4818 79.7081L41.772 67.6176Z" fill="url(#paint3_linear_68_30)"/>
<path fill-rule="evenodd" clip-rule="evenodd" d="M52.4205 44.0175V43.8803L50.6457 43.3032C51.2379 43.5212 51.8295 43.761 52.4205 44.0175Z" fill="#D8D3CA"/>
<path d="M45.6542 146.705V52.5322L43.0357 53.9202L38.2225 56.4716L33.8965 58.7647L30.5134 60.558L27.1303 62.3513L25.6611 63.1301L24.0245 63.9976L22.4715 64.8208L21.1405 65.5263L20.1976 66.0261L19.2548 66.5259L19.1126 77.9588L20.1266 76.5808L21.1405 75.2029L22.4715 73.3941L24.0245 71.2837L25.6611 69.0595L27.1303 67.063L30.5134 67.1911L33.8965 67.3193L38.2225 67.4831L41.772 67.6176L41.4818 79.7081L41.4605 80.5955L41.1064 95.3481L38.2225 94.9732L34.1184 94.4396L30.7907 94.007L30.0142 93.9061L30.3668 84.034H27.1303H25.6611H24.0245H22.4715H21.1405H19.8094H19.0371L18.4784 128.957L19.8094 129.827L21.1405 130.696L22.4715 131.565L24.0245 132.579L25.6611 133.648L27.1303 134.608L30.7907 136.998L33.8965 139.026L38.2225 141.852L43.0357 144.995L45.6542 146.705Z" fill="#C09E99"/>
<path d="M95.0145 54.9393L153.692 62.2933L142.045 57.0984L138.274 55.4162L52.8423 44.0735L69.208 51.57C69.8351 51.6976 70.4577 51.8205 71.0747 51.9389L95.0145 54.9393Z" fill="#3734B4"/>
<path d="M70.5008 55.4162L152.583 64.8445L153.692 62.2933L95.0145 54.9393C95.0145 54.9393 84.2991 54.476 71.0747 51.9389L69.6134 51.7557L70.5008 55.4162Z" fill="white"/>
<path d="M58.0775 98.2705V144.089L63.5127 142.944V98.1437L58.0775 98.2705Z" fill="#FFEAEA"/>
<path d="M69.6134 98.0014V141.659L75.4923 140.421V97.8643L69.6134 98.0014Z" fill="#FFEAEA"/>
<path d="M82.1155 97.7098V139.026L88.0264 137.782V97.5719L82.1155 97.7098Z" fill="#FFEAEA"/>
<path d="M95.0145 97.4088V136.31L100.893 135.072V97.2717L95.0145 97.4088Z" fill="#FFEAEA"/>
<path d="M107.216 97.1242V133.74L113.428 132.432V96.9793L107.216 97.1242Z" fill="#FFEAEA"/>
<path d="M118.086 96.8706V131.451L123.743 130.26V96.7387L118.086 96.8706Z" fill="#FFEAEA"/>
<path d="M45.6542 52.5322V146.705L52.4205 145.28V51.7557H47.8727L45.6542 52.5322Z" fill="#2F2BD4"/>
<path fill-rule="evenodd" clip-rule="evenodd" d="M128.957 68.1722L131.508 128.625L128.957 129.162L123.743 130.26V96.7387L126.295 96.6791V69.6142L123.743 69.3801L118.086 68.861L113.428 68.4335L107.216 67.8636L100.893 67.2834L95.0145 66.744L88.0264 66.1028L82.1155 65.5604L75.4923 64.9527L68.8369 64.342L63.5127 63.8535L58.0775 63.3548V46.8298L58.4026 47.0026C60.1099 47.9103 61.8131 48.8158 63.5127 49.5957C65.2912 50.4119 67.0657 51.0905 68.8369 51.4904C68.9606 51.5183 69.0843 51.5449 69.208 51.57L69.6134 51.7557L68.8369 55.4162H70.5008L71.4991 61.9606L75.4923 62.3923L88.0264 63.7473L95.0145 64.5028L127.263 67.9891L128.957 68.1722ZM113.428 132.432L118.086 131.451V96.8706L113.428 96.9793V132.432ZM107.216 97.1242L100.893 97.2717V135.072L107.216 133.74V97.1242ZM88.0264 137.782L95.0145 136.31V97.4088L88.0264 97.5719V137.782ZM82.1155 97.7098L75.4923 97.8643V140.421L82.1155 139.026V97.7098ZM63.5127 142.944L69.6134 141.659V98.0014L63.5127 98.1437V142.944Z" fill="#FFEAEA"/>
<path d="M54.9717 98.343V63.0698L58.0775 63.3548V46.8298C56.1972 45.8307 54.3117 44.8384 52.4205 44.0175V51.7557V145.28L58.0775 144.089V98.2705L54.9717 98.343Z" fill="#FFEAEA"/>
<path d="M16.149 61.295V68.1722L19.2548 66.5259L20.1976 66.0261L21.1405 65.5263L22.4715 64.8208L24.0245 63.9976L25.6611 63.1301L27.1303 62.3513L30.5134 60.558L33.8965 58.7647L38.2225 56.4716L43.0357 53.9202L45.6542 52.5322L43.0357 43.3032L16.149 61.295Z" fill="#2F2BD4"/>
<path fill-rule="evenodd" clip-rule="evenodd" d="M54.9717 63.0698V98.343L58.0775 98.2705L63.5127 98.1437L69.6134 98.0014L75.4923 97.8643L82.1155 97.7098L88.0264 97.5719L95.0145 97.4088L100.893 97.2717L107.216 97.1242L113.428 96.9793L118.086 96.8706L123.743 96.7387L126.295 96.6791V69.6142L123.743 69.3801L118.086 68.861L113.428 68.4335L107.216 67.8636L100.893 67.2834L95.0145 66.744L88.0264 66.1028L82.1155 65.5604L75.4923 64.9527L68.8369 64.342L63.5127 63.8535L58.0775 63.3548L54.9717 63.0698ZM58.0775 95.459V68.1722L75.4923 69.6142V95.459H58.0775ZM78.3762 95.459V69.6142L91.9087 70.6125V95.459H78.3762ZM97.0111 94.3498V71.0562L102.114 71.5553L109.102 72.0545V83.2021V94.3498H97.0111ZM111.986 94.3498V72.0545L123.743 72.9418V94.3498H111.986Z" fill="white"/>
<path d="M45.6542 52.5322V146.705M45.6542 52.5322L47.8727 51.7557H52.4205M45.6542 52.5322L43.0357 43.3032M45.6542 52.5322L43.0357 53.9202M45.6542 146.705L52.4205 145.28M45.6542 146.705L43.0357 144.995M71.4991 61.9606L70.5008 55.4162M71.4991 61.9606L75.4923 62.3923M71.4991 61.9606L82.1155 62.9627M70.5008 55.4162H68.8369L69.6134 51.7557M70.5008 55.4162L152.583 64.8445M70.5008 55.4162L69.6134 51.7557M69.6134 51.7557L69.208 51.57M69.6134 51.7557L71.0747 51.9389M52.4205 43.8803L138.274 55.4162M52.4205 43.8803L50.6457 43.3032M52.4205 43.8803V44.0175M52.4205 43.8803L52.8423 44.0735M52.4205 145.28V51.7557M52.4205 145.28L58.0775 144.089M52.4205 51.7557V44.0175M152.583 64.8445V69.6142L123.743 66.892M152.583 64.8445L153.692 62.2933M153.692 62.2933L95.0145 54.9393M153.692 62.2933L142.045 57.0984M153.692 62.2933L71.0747 51.9389M138.274 55.4162L142.045 57.0984M138.274 55.4162L52.8423 44.0735M19.2548 66.5259L16.149 68.1722V61.295L43.0357 43.3032M19.2548 66.5259L19.1126 77.9588M19.2548 66.5259L20.1976 66.0261L21.1405 65.5263M41.772 67.6176L32.5654 70.1688L30.7907 72.1654L30.3668 84.034M41.772 67.6176L31.5672 77.7115M41.772 67.6176L41.4818 79.7081M41.772 67.6176L38.2225 67.4831M31.5672 77.7115L41.4818 79.7081M31.5672 77.7115V78.8207M27.1303 67.063L30.5134 67.1911M27.1303 67.063V62.3513M27.1303 67.063L25.6611 69.0595L24.0245 71.2837M41.4818 79.7081L41.4605 80.5955M41.4605 80.5955L41.1064 95.3481L38.2225 94.9732M41.4605 80.5955L31.5672 78.8207M31.5672 78.8207V84.034H30.3668M95.0145 54.9393C95.0145 54.9393 84.2991 54.476 71.0747 51.9389M95.0145 54.9393L71.0747 51.9389M142.045 57.0984C142.045 57.0984 158.913 55.1587 161.9 46.9861C163.105 43.6899 163.686 39.7994 163.178 36.4485M161.495 31.9007C160.502 30.4667 159.076 29.3978 157.131 28.9058C147.481 26.4655 128.957 28.9058 128.957 28.9058C128.957 28.9058 100.356 27.0405 82.5913 22.8051C66.0756 18.8676 41.4605 8.71801 41.4605 8.71801C41.4605 8.71801 27.3142 2.91486 21.7272 7.71969M161.495 31.9007L169.554 26.0218L168.223 31.9007L172.66 29.7932L169.554 35.2283L173.325 40.7744L163.178 36.4485M161.495 31.9007C162.378 33.1772 162.919 34.7429 163.178 36.4485M19.0605 12.3784C19.3651 11.1523 19.9283 9.9315 20.8077 8.71801C21.0791 8.34352 21.3873 8.01198 21.7272 7.71969M19.0605 12.3784C17.6043 18.2416 22.062 24.2275 26.132 30.1259C29.9402 35.6451 36.023 39.9496 43.0357 43.3032M19.0605 12.3784H7.27524L15.5944 10.16L11.934 7.71969H17.0364L12.5995 0.842529L21.7272 7.71969M43.0357 43.3032L45.6542 41.5509L47.0962 42.3273C47.7217 42.5883 48.3435 42.7218 48.9701 42.8564C49.5229 42.9751 50.0794 43.0946 50.6457 43.3032M43.0357 43.3032C43.8954 43.7143 42.1506 42.9201 43.0357 43.3032ZM19.0371 84.034L18.4784 128.957L19.8094 129.827L21.1405 130.696M19.0371 84.034H18.4784V78.8207L19.1126 77.9588M19.0371 84.034L19.1126 77.9588M19.0371 84.034H19.8094H21.1405M19.1126 77.9588L20.1266 76.5808L21.1405 75.2029M50.6457 43.3032C51.2379 43.5212 51.8295 43.761 52.4205 44.0175M30.3668 84.034L30.0142 93.9061L30.7907 94.007M30.3668 84.034H27.1303M69.208 51.57C69.8351 51.6976 70.4577 51.8205 71.0747 51.9389M69.208 51.57C69.0843 51.5449 68.9606 51.5183 68.8369 51.4904M69.208 51.57L52.8423 44.0735M52.4205 44.0175C54.3117 44.8384 56.1972 45.8307 58.0775 46.8298M52.4205 44.0175L52.8423 44.0735M43.0357 53.9202V144.995M43.0357 53.9202L38.2225 56.4716M43.0357 144.995L38.2225 141.852M38.2225 141.852V94.9732M38.2225 141.852L33.8965 139.026M38.2225 94.9732L34.1184 94.4396M38.2225 56.4716V67.4831M38.2225 56.4716L33.8965 58.7647M38.2225 67.4831L33.8965 67.3193M33.8965 58.7647V67.3193M33.8965 58.7647L30.5134 60.558M33.8965 67.3193L30.5134 67.1911M34.1184 94.4396L33.8965 139.026M34.1184 94.4396L30.7907 94.007M33.8965 139.026L30.7907 136.998M30.7907 136.998V94.007M30.7907 136.998L27.1303 134.608M30.5134 67.1911V60.558M30.5134 60.558L27.1303 62.3513M27.1303 134.608V84.034M27.1303 134.608L25.6611 133.648L24.0245 132.579M27.1303 84.034H25.6611H24.0245M27.1303 62.3513L25.6611 63.1301L24.0245 63.9976M24.0245 132.579V84.034M24.0245 132.579L22.4715 131.565L21.1405 130.696M24.0245 84.034H22.4715H21.1405M24.0245 71.2837V63.9976M24.0245 71.2837L22.4715 73.3941L21.1405 75.2029M24.0245 63.9976L22.4715 64.8208L21.1405 65.5263M21.1405 130.696V84.034M21.1405 75.2029V65.5263M58.0775 46.8298V63.3548M58.0775 46.8298C58.1859 46.8874 58.2942 46.945 58.4026 47.0026M58.0775 46.8298L58.4026 47.0026M58.0775 63.3548L54.9717 63.0698V98.343L58.0775 98.2705M58.0775 63.3548L63.5127 63.8535M58.0775 98.2705V144.089M58.0775 98.2705L63.5127 98.1437M58.0775 144.089L63.5127 142.944M63.5127 49.5957V63.8535M63.5127 49.5957C65.2912 50.4119 67.0657 51.0905 68.8369 51.4904M63.5127 49.5957C61.8131 48.8158 60.1099 47.9103 58.4026 47.0026M63.5127 63.8535L68.8369 64.342M63.5127 98.1437V142.944M63.5127 98.1437L69.6134 98.0014M63.5127 142.944L69.6134 141.659M69.6134 141.659V98.0014M69.6134 141.659L75.4923 140.421M69.6134 98.0014L75.4923 97.8643M68.8369 64.342V51.4904M68.8369 64.342L75.4923 64.9527M75.4923 62.3923V64.9527M75.4923 62.3923L88.0264 63.7473M75.4923 64.9527L82.1155 65.5604M75.4923 97.8643V140.421M75.4923 97.8643L82.1155 97.7098M75.4923 140.421L82.1155 139.026M82.1155 139.026V97.7098M82.1155 139.026L88.0264 137.782M82.1155 97.7098L88.0264 97.5719M82.1155 65.5604V62.9627M82.1155 65.5604L88.0264 66.1028M82.1155 62.9627L100.893 64.7351M88.0264 63.7473V66.1028M88.0264 63.7473L95.0145 64.5028M88.0264 66.1028L95.0145 66.744M88.0264 97.5719V137.782M88.0264 97.5719L95.0145 97.4088M88.0264 137.782L95.0145 136.31M95.0145 136.31V97.4088M95.0145 136.31L100.893 135.072M95.0145 97.4088L100.893 97.2717M95.0145 66.744V64.5028M95.0145 66.744L100.893 67.2834M95.0145 64.5028L127.263 67.9891M100.893 64.7351V67.2834M100.893 64.7351L107.216 65.3319M100.893 67.2834L107.216 67.8636M100.893 97.2717V135.072M100.893 97.2717L107.216 97.1242M100.893 135.072L107.216 133.74M107.216 133.74V97.1242M107.216 133.74L113.428 132.432M107.216 97.1242L113.428 96.9793M107.216 67.8636V65.3319M107.216 67.8636L113.428 68.4335M107.216 65.3319L113.428 65.9182M113.428 132.432V96.9793M113.428 132.432L118.086 131.451M113.428 96.9793L118.086 96.8706M113.428 68.4335V65.9182M113.428 68.4335L118.086 68.861M113.428 65.9182L118.086 66.358M118.086 66.358V68.861M118.086 66.358L123.743 66.892M118.086 68.861L123.743 69.3801M118.086 96.8706V131.451M118.086 96.8706L123.743 96.7387M118.086 131.451L123.743 130.26M123.743 130.26V96.7387M123.743 130.26L128.957 129.162M123.743 96.7387L126.295 96.6791V69.6142L123.743 69.3801M123.743 69.3801V66.892M128.957 129.162L131.508 128.625L128.957 68.1722L127.263 67.9891M128.957 129.162L127.263 67.9891M58.0775 68.1722V95.459H75.4923V69.6142L58.0775 68.1722ZM78.3762 69.6142V95.459H91.9087V70.6125L78.3762 69.6142ZM97.0111 71.0562V94.3498H109.102V83.2021V72.0545L102.114 71.5553L97.0111 71.0562ZM111.986 72.0545V94.3498H123.743V72.9418L111.986 72.0545Z" stroke="#050505" stroke-width="1.30568"/>
<path d="M43.8627 53.671L30.5088 50.1877L33.3162 45.0602L35.8873 45.7309L42.9615 32.8101L40.3904 32.1394L43.1977 27.0119L56.0373 30.361L53.23 35.4885L51.1891 34.9562L48.302 40.2294L55.4315 36.0628L58.2388 30.9352L68.2502 33.5466L65.4428 38.6741L63.2252 38.0957L55.0607 42.3752L54.949 42.5791C56.6845 43.0318 57.8962 43.6586 58.584 44.4595C59.2772 45.2507 59.2596 46.3116 58.5312 47.642L57.2392 50.0018C57.0743 50.3029 57.0192 50.5937 57.0737 50.8743C57.1442 51.1479 57.3456 51.3281 57.6777 51.4147L59.5096 51.8925L56.7022 57.0201L50.8208 55.486C47.2212 54.547 46.2376 52.5869 47.8699 49.6055L49.2576 47.0709C49.5287 46.5756 49.6178 46.044 49.5248 45.4759C49.4371 44.8981 49.1523 44.5464 48.6702 44.4206L46.3401 43.8128L44.1149 47.877L46.67 48.5434L43.8627 53.671Z" fill="white"/>
<path d="M73.889 62.2853C71.1718 61.8197 69.0005 60.8526 67.3752 59.3839C65.7607 57.917 64.7504 56.1088 64.3442 53.9591C63.9488 51.8113 64.1557 49.4719 64.9649 46.9409C65.8043 44.315 67.0488 42.1145 68.6983 40.3393C70.3511 38.5536 72.3299 37.2964 74.6346 36.5679C76.9537 35.8307 79.4882 35.6977 82.2381 36.1689C84.9771 36.6382 87.164 37.5746 88.7986 38.9782C90.419 40.3904 91.4285 42.1652 91.8272 44.3025C92.2368 46.4416 92.0236 48.8188 91.1875 51.4342C90.3784 53.9651 89.1457 56.1288 87.4895 57.9251C85.8333 59.7213 83.8318 61.0135 81.485 61.8016C79.1491 62.5915 76.6171 62.7528 73.889 62.2853ZM75.6842 56.6697C76.8627 56.8717 77.9839 56.3352 79.0475 55.0603C80.1221 53.7872 81.0285 51.996 81.7668 49.6865C82.4849 47.4402 82.7475 45.6109 82.5544 44.1985C82.3723 42.788 81.6701 41.9781 80.4479 41.7686C79.2148 41.5573 78.0891 42.0541 77.0709 43.2589C76.0527 44.4638 75.1845 46.1893 74.4664 48.4355C73.7281 50.745 73.4491 52.6438 73.6295 54.1319C73.8098 55.62 74.4947 56.4659 75.6842 56.6697Z" fill="white"/>
<path d="M108.86 66.9189L95.1221 65.5998L95.8829 59.8038L98.5279 60.0578L100.445 45.4524L97.7999 45.1985L98.5607 39.4024L115.456 41.0246C118.189 41.2871 120.123 42.0285 121.257 43.249C122.402 44.4705 122.808 46.3547 122.473 48.9014C122.25 50.6029 121.599 51.8687 120.519 52.6987C119.439 53.5287 117.996 54.0183 116.191 54.1673C117.745 54.5722 118.808 55.2745 119.38 56.2742C119.963 57.275 120.163 58.4725 119.98 59.8666L119.701 61.9907L123.387 62.3447L122.614 68.2395L117.29 67.7284C116.155 67.6194 115.246 67.4931 114.561 67.3496C113.879 67.1952 113.354 66.9447 112.986 66.5981C112.631 66.2417 112.365 65.716 112.189 65.021C111.925 63.9729 111.947 62.2689 112.257 59.9087C112.434 58.5585 112.345 57.5384 111.989 56.8484C111.635 56.1475 110.874 55.7409 109.705 55.6287L107.705 55.4367L106.992 60.8705L109.62 61.1228L108.86 66.9189ZM108.909 46.2651L108.196 51.6989L110.46 51.9164C111.662 52.0317 112.583 51.9033 113.223 51.5313C113.863 51.1593 114.254 50.4354 114.395 49.3596C114.499 48.5692 114.277 47.9199 113.73 47.4116C113.194 46.9044 112.452 46.6053 111.504 46.5143L108.909 46.2651Z" fill="white"/>
<path d="M150.419 49.2179L143.112 69.4053L133.396 68.85L128.152 47.9452L125.399 47.7879L125.605 41.9458L139.93 42.7646L139.724 48.6067L137.834 48.4987L140.728 60.6878L144.068 48.855L141.896 48.7308L142.102 42.8887L153.625 43.5473L153.42 49.3895L150.419 49.2179Z" fill="white"/>
<defs>
<linearGradient id="paint0_linear_68_30" x1="90.3003" y1="0.842529" x2="90.3003" y2="146.705" gradientUnits="userSpaceOnUse">
<stop stop-color="#FFFEFE"/>
<stop offset="1" stop-color="#E6B2B3"/>
</linearGradient>
<linearGradient id="paint1_linear_68_30" x1="90.3003" y1="0.842529" x2="90.3003" y2="146.705" gradientUnits="userSpaceOnUse">
<stop stop-color="#FFFEFE"/>
<stop offset="1" stop-color="#E6B2B3"/>
</linearGradient>
<linearGradient id="paint2_linear_68_30" x1="90.3003" y1="0.842529" x2="90.3003" y2="146.705" gradientUnits="userSpaceOnUse">
<stop stop-color="#FFFEFE"/>
<stop offset="1" stop-color="#E6B2B3"/>
</linearGradient>
<linearGradient id="paint3_linear_68_30" x1="90.3003" y1="0.842529" x2="90.3003" y2="146.705" gradientUnits="userSpaceOnUse">
<stop stop-color="#FFFEFE"/>
<stop offset="1" stop-color="#E6B2B3"/>
</linearGradient>
</defs>
</svg>
