<svg width="32" height="33" viewBox="0 0 32 33" fill="none" xmlns="http://www.w3.org/2000/svg">
<path fill-rule="evenodd" clip-rule="evenodd" d="M13.1929 1L8.43307 2.74297L8.79921 5.73092L6.84646 7.3494L4.16142 6.22892L1.47638 10.7108L3.79528 13.2008L3.06299 15.6908L0.5 16.6867L1.47638 21.7912H4.40551L5.74803 24.0321L4.40551 26.7711L8.31102 30.1325L10.752 28.3896L12.8268 29.1365L13.5591 32H18.685L19.2953 29.1365L21.6142 28.3896L24.0551 30.1325L27.5945 26.7711L26.374 24.0321L27.5945 21.6667H30.6457L31.5 16.8112L28.815 15.6908L28.2047 13.0763L30.2795 10.7108L27.8386 6.60241L25.0315 7.3494L23.0787 5.60643L23.4449 2.74297L18.8071 1L17.3425 3.48996H14.7795L13.1929 1ZM16.122 8.22088C20.638 8.25501 24.2992 11.9554 24.2992 16.5622C24.2992 21.1691 20.638 24.8695 16.122 24.9036C11.5722 24.938 7.82283 21.2036 7.82283 16.5622C7.82283 11.9209 11.5722 8.1865 16.122 8.22088Z" fill="#023B27" stroke="#023B27" stroke-width="0.570281" stroke-linecap="round" stroke-linejoin="round"/>
</svg>
