<svg width="33" height="33" viewBox="0 0 33 33" fill="none" xmlns="http://www.w3.org/2000/svg">
<path fill-rule="evenodd" clip-rule="evenodd" d="M31.5389 16.0208L31.5411 16.1677L31.5477 16.3148L31.5587 16.4622L31.574 16.6101L31.5935 16.7586L31.6172 16.9079L31.6449 17.0581L31.6765 17.2095L31.7119 17.362L31.7508 17.5159L31.7932 17.6712L31.8386 17.8281L31.887 17.9867L31.9379 18.147L31.9912 18.3092L32.0464 18.4732L32.1032 18.6391L32.1613 18.807L32.2202 18.9768L32.2794 19.1485L32.3385 19.322L32.397 19.4974L32.4545 19.6745L32.5102 19.8531L32.5638 20.0331L32.6145 20.2145L32.6619 20.3968L32.7053 20.58L32.7442 20.7638L32.7779 20.9478L32.8059 21.1319L32.8275 21.3155L32.8423 21.4985L32.8497 21.6804L32.8493 21.8609L32.8405 22.0396L32.823 22.2161L32.7964 22.3899L32.7605 22.5608L32.715 22.7284L32.6598 22.8922L32.5948 23.0519L32.5201 23.2074L32.4356 23.3581L32.3416 23.504L32.2383 23.6448L32.1259 23.7804L32.0049 23.9105L31.8757 24.0353L31.7388 24.1545L31.5947 24.2683L31.444 24.3767L31.2873 24.4798L31.1254 24.5778L30.9588 24.6709L30.7883 24.7593L30.6146 24.8434L30.4384 24.9234L30.2603 24.9996L30.0811 25.0726L29.9014 25.1425L29.7219 25.21L29.5432 25.2754L29.3659 25.3393L29.1905 25.4019L29.0176 25.464L28.8478 25.5259L28.6814 25.5882L28.5189 25.6514L28.3608 25.716L28.2074 25.7826L28.0591 25.8518L27.9162 25.924L27.7791 25.9999L27.648 26.08L27.5233 26.165L27.4051 26.2556L27.2939 26.3523L27.1897 26.4559L27.0925 26.5666L27.0014 26.6842L26.916 26.8084L26.8355 26.939L26.7593 27.0757L26.6868 27.2181L26.6175 27.366L26.5507 27.519L26.4859 27.6768L26.4226 27.8389L26.3603 28.005L26.2984 28.1746L26.2363 28.3472L26.1737 28.5224L26.11 28.6996L26.0447 28.8782L25.9774 29.0577L25.9077 29.2374L25.835 29.4167L25.759 29.5949L25.6793 29.7713L25.5956 29.9452L25.5075 30.116L25.4148 30.2829L25.3172 30.4453L25.2145 30.6024L25.1065 30.7535L24.9932 30.8982L24.8744 31.0357L24.7501 31.1656L24.6204 31.2872L24.4853 31.4003L24.3449 31.5043L24.1994 31.5991L24.049 31.6843L23.8939 31.7599L23.7345 31.8256L23.571 31.8816L23.4037 31.9278L23.2331 31.9645L23.0595 31.9918L22.8832 32.01L22.7047 32.0195L22.5243 32.0206L22.3425 32.0138L22.1596 31.9996L21.976 31.9785L21.792 31.951L21.6079 31.9177L21.4241 31.8792L21.2409 31.8362L21.0584 31.7891L20.877 31.7385L20.6969 31.6852L20.5181 31.6296L20.3409 31.5723L20.1654 31.5138L19.9917 31.4547L19.8199 31.3955L19.6499 31.3366L19.4819 31.2785L19.3158 31.2215L19.1516 31.1661L18.9893 31.1127L18.8289 31.0616L18.6702 31.013L18.5131 30.9673L18.3577 30.9247L18.2037 30.8855L18.0511 30.8498L17.8997 30.8179L17.7493 30.7899L17.6 30.7659L17.4514 30.746L17.3035 30.7304L17.156 30.7191L17.0089 30.7121L16.862 30.7096L16.7151 30.7114L16.5681 30.7177L16.4207 30.7283L16.2729 30.7432L16.1244 30.7624L15.9752 30.7858L15.825 30.8132L15.6738 30.8445L15.5214 30.8796L15.3676 30.9182L15.2124 30.9603L15.0556 31.0055L14.8972 31.0536L14.737 31.1044L14.575 31.1575L14.4111 31.2126L14.2454 31.2693L14.0776 31.3273L13.908 31.3861L13.7364 31.4453L13.563 31.5045L13.3878 31.563L13.2109 31.6206L13.0324 31.6765L12.8524 31.7302L12.6712 31.7812L12.4889 31.8289L12.3058 31.8727L12.122 31.9119L11.938 31.9461L11.754 31.9745L11.5703 31.9967L11.3872 32.0121L11.2052 32.0201L11.0246 32.0202L10.8457 32.0121L10.6691 31.9953L10.495 31.9695L10.3239 31.9343L10.1561 31.8896L9.99194 31.8352L9.83184 31.771L9.67607 31.697L9.52491 31.6133L9.37863 31.5201L9.23742 31.4175L9.10145 31.3058L8.97085 31.1855L8.8457 31.0569L8.72603 30.9206L8.61181 30.777L8.503 30.6268L8.39946 30.4706L8.30106 30.3091L8.20758 30.1429L8.11878 29.9727L8.0344 29.7992L7.9541 29.6231L7.87756 29.4451L7.80438 29.266L7.73417 29.0863L7.6665 28.9068L7.60094 28.728L7.53701 28.5505L7.47425 28.375L7.41217 28.2019L7.35026 28.0318L7.28801 27.8651L7.22491 27.7023L7.16041 27.5438L7.09399 27.39L7.02509 27.2413L6.95315 27.098L6.87758 26.9604L6.7978 26.8288L6.71318 26.7036L6.62311 26.5849L6.5269 26.473L6.42388 26.3683L6.31372 26.2705L6.19666 26.1791L6.07294 26.0932L5.94285 26.0123L5.80667 25.9358L5.66469 25.863L5.51723 25.7935L5.36462 25.7265L5.20723 25.6616L5.04544 25.5982L4.87965 25.5358L4.71031 25.4739L4.53789 25.4119L4.36289 25.3493L4.18584 25.2857L4.0073 25.2206L3.82788 25.1534L3.64818 25.0839L3.46884 25.0115L3.29055 24.9357L3.11397 24.8564L2.9398 24.773L2.76874 24.6853L2.6015 24.5929L2.43877 24.4957L2.28124 24.3934L2.12956 24.2859L1.98436 24.173L1.84625 24.0546L1.71578 23.9308L1.59344 23.8015L1.47969 23.6668L1.3749 23.5268L1.27938 23.3817L1.19339 23.2317L1.11708 23.077L1.05055 22.9179L0.993802 22.7547L0.946783 22.5877L0.909356 22.4174L0.881313 22.2439L0.862382 22.0679L0.852229 21.8895L0.850464 21.7093L0.856648 21.5276L0.870298 21.3447L0.890898 21.1611L0.9179 20.9772L0.950735 20.7931L0.98882 20.6093L1.03156 20.426L1.07836 20.2434L1.12862 20.0619L1.18176 19.8817L1.23721 19.7028L1.29439 19.5255L1.35278 19.3498L1.41184 19.176L1.47108 19.004L1.53003 18.8339L1.58825 18.6657L1.64531 18.4995L1.70081 18.3351L1.75441 18.1727L1.80575 18.0121L1.85453 17.8532L1.90047 17.6961L1.9433 17.5405L1.9828 17.3864L2.01876 17.2337L2.051 17.0822L2.07935 16.9318L2.10368 16.7823L2.12387 16.6337L2.13983 16.4857L2.15148 16.3383L2.15878 16.1911L2.16168 16.0442L2.16018 15.8973L2.15428 15.7503L2.14401 15.6029L2.12942 15.4551L2.11056 15.3067L2.08754 15.1576L2.06046 15.0075L2.02944 14.8563L1.99465 14.704L1.95626 14.5504L1.91446 14.3953L1.86949 14.2386L1.82158 14.0803L1.77102 13.9203L1.71811 13.7584L1.66317 13.5947L1.60657 13.4291L1.54868 13.2615L1.48991 13.092L1.43071 12.9206L1.37154 12.7474L1.31288 12.5723L1.25526 12.3955L1.1992 12.2171L1.14527 12.0372L1.09402 11.8561L1.04605 11.6739L1.00196 11.4908L0.962325 11.3071L0.927754 11.1231L0.898831 10.9391L0.876131 10.7553L0.860209 10.5722L0.851593 10.3901L0.850776 10.2093L0.858213 10.0303L0.874309 9.85349L0.899416 9.67919L0.933829 9.50781L0.977774 9.33972L1.03141 9.17528L1.09482 9.01484L1.16803 8.85872L1.25095 8.70718L1.34345 8.5605L1.44532 8.41888L1.55625 8.28249L1.6759 8.15145L1.80384 8.02587L1.93957 7.90576L2.08257 7.79111L2.23226 7.68186L2.388 7.57791L2.54915 7.47911L2.71502 7.38524L2.88494 7.29609L3.05819 7.21136L3.23408 7.13075L3.41191 7.05392L3.59098 6.98048L3.77064 6.91005L3.95022 6.8422L4.1291 6.77648L4.30669 6.71244L4.4824 6.64961L4.6557 6.58749L4.82607 6.52558L4.99304 6.46338L5.15615 6.40036L5.31499 6.336L5.46916 6.26975L5.6183 6.20107L5.76206 6.12938L5.90012 6.05413L6.03218 5.9747L6.15796 5.89049L6.27717 5.80087L6.38955 5.70518L6.49486 5.60272L6.59316 5.49313L6.68512 5.3766L6.7714 5.25341L6.85265 5.12381L6.9295 4.9881L7.00253 4.84657L7.07234 4.69954L7.13949 4.54733L7.20454 4.3903L7.26803 4.22884L7.33049 4.06335L7.39245 3.89427L7.45443 3.72208L7.51692 3.54726L7.58042 3.37035L7.64541 3.19192L7.71236 3.01254L7.78171 2.83283L7.8539 2.65344L7.92933 2.47504L8.00839 2.29829L8.09144 2.12391L8.1788 1.95258L8.27076 1.785L8.36757 1.62189L8.46945 1.46391L8.57657 1.31174L8.68905 1.16601L8.80699 1.02731L8.93039 0.896205L9.05926 0.773203L9.19353 0.65875L9.33309 0.553233L9.47778 0.456971L9.62741 0.370211L9.78173 0.293125L9.94049 0.225811L10.1034 0.168287L10.27 0.120497L10.4402 0.0823124L10.6133 0.0535312L10.7892 0.033886L10.9674 0.0230474L11.1475 0.0206299L11.3291 0.0261979L11.5119 0.0392726L11.6954 0.0593389L11.8794 0.0858518L12.0634 0.118244L12.2473 0.155933L12.4307 0.198324L12.6132 0.244822L12.7948 0.294832L12.9752 0.347766L13.1542 0.403047L13.3316 0.460114L13.5074 0.518422L13.6814 0.57745L13.8536 0.636698L14.0238 0.695691L14.1921 0.753981L14.3585 0.811146L14.523 0.866791L14.6856 0.920551L14.8463 0.972085L15.0053 1.02108L15.1626 1.06725L15.3183 1.11034L15.4725 1.15012L15.6254 1.18637L15.777 1.21891L15.9275 1.24757L16.077 1.27223L16.2257 1.29275L16.3737 1.30905L16.5212 1.32105L16.6683 1.32869L16.8152 1.33195L16.9621 1.3308L17.1092 1.32525L17.2565 1.31532L17.4042 1.30107L17.5526 1.28255L17.7017 1.25986L17.8517 1.23309L18.0027 1.20239L18.1549 1.16789L18.3085 1.12978L18.4635 1.08824L18.62 1.04351L18.7781 0.99583L18.938 0.945471L19.0997 0.892734L19.2633 0.837946L19.4288 0.781459L19.5962 0.723656L19.7655 0.664945L19.9368 0.605761L20.1099 0.546567L20.2848 0.487851L20.4615 0.430125L20.6398 0.373921L20.8195 0.319795L21.0005 0.268315L21.1827 0.220065L21.3657 0.175637L21.5493 0.135627L21.7333 0.100631L21.9174 0.0712368L22.1012 0.0480209L22.2844 0.0315394L22.4666 0.0223225L22.6474 0.0208674L22.8266 0.0276311L23.0036 0.0430239L23.1781 0.0674027L23.3497 0.101065L23.5181 0.144245L23.6828 0.197106L23.8436 0.259741L24.0001 0.332165L24.152 0.41432L24.2991 0.506068L24.4411 0.607198L24.5779 0.717426L24.7094 0.836396L24.8354 0.963688L24.9559 1.09882L25.071 1.24127L25.1807 1.39044L25.2851 1.54573L25.3843 1.70647L25.4785 1.872L25.568 2.04162L25.6531 2.21464L25.734 2.39034L25.8112 2.56804L25.8848 2.74704L25.9555 2.92668L26.0235 3.10629L26.0894 3.28525L26.1536 3.46296L26.2165 3.63885L26.2786 3.81236L26.3405 3.98298L26.4027 4.15024L26.4656 4.31368L26.5299 4.47288L26.5959 4.62743L26.6644 4.77699L26.7358 4.92119L26.8108 5.05972L26.8899 5.19227L26.9737 5.31855L27.0628 5.4383L27.158 5.55124L27.2599 5.65711L27.3689 5.75595L27.4849 5.84839L27.6076 5.9351L27.7367 6.01673L27.8719 6.09391L28.013 6.16723L28.1596 6.23727L28.3114 6.30461L28.4681 6.36981L28.6292 6.4334L28.7944 6.49593L28.9632 6.55791L29.1351 6.61987L29.3098 6.6823L29.4865 6.7457L29.6649 6.81056L29.8442 6.87734L30.0239 6.94648L30.2033 7.01843L30.3818 7.09359L30.5587 7.17235L30.7333 7.25507L30.9049 7.34207L31.0728 7.43365L31.2363 7.53007L31.3947 7.63154L31.5474 7.73824L31.6936 7.8503L31.8329 7.96779L31.9646 8.09077L32.0883 8.2192L32.2035 8.35305L32.3097 8.49219L32.4067 8.63648L32.4942 8.78572L32.5721 8.93969L32.6402 9.09811L32.6985 9.26067L32.747 9.42706L32.786 9.59692L32.8155 9.76987L32.8359 9.94555L32.8474 10.1236L32.8505 10.3035L32.8455 10.485L32.833 10.6677L32.8135 10.8512L32.7875 11.0352L32.7555 11.2192L32.7182 11.4031L32.6762 11.5865L32.63 11.7692L32.5803 11.9508L32.5275 12.1313L32.4724 12.3104L32.4155 12.488L32.3572 12.6639L32.2983 12.8381L32.239 13.0104L32.18 13.1808L32.1216 13.3493L32.0644 13.5158L32.0086 13.6804L31.9546 13.8432L31.9029 14.0041L31.8537 14.1632L31.8073 14.3206L31.764 14.4764L31.7239 14.6308L31.6874 14.7837L31.6545 14.9354L31.6256 15.086L31.6006 15.2356L31.5797 15.3843L31.5631 15.5324L31.5507 15.6799L31.5428 15.8271L31.5392 15.974L31.5389 16.0208Z" fill="#023B27"/>
</svg>
