<svg width="142" height="142" viewBox="0 0 142 142" fill="none" xmlns="http://www.w3.org/2000/svg">
<path fill-rule="evenodd" clip-rule="evenodd" d="M130.731 70.8478L130.74 71.4447L130.767 72.0422L130.811 72.641L130.873 73.2417L130.952 73.8451L131.049 74.4516L131.161 75.062L131.29 75.6767L131.433 76.2964L131.592 76.9215L131.764 77.5526L131.948 78.19L132.145 78.8342L132.352 79.4855L132.568 80.1442L132.792 80.8106L133.023 81.4847L133.259 82.1666L133.498 82.8564L133.739 83.554L133.979 84.2591L134.217 84.9715L134.45 85.6908L134.677 86.4165L134.894 87.148L135.1 87.8846L135.293 88.6255L135.469 89.3697L135.627 90.1163L135.764 90.864L135.878 91.6116L135.966 92.3577L136.026 93.1011L136.056 93.8402L136.054 94.5734L136.018 95.2993L135.947 96.0162L135.839 96.7225L135.693 97.4167L135.509 98.0973L135.284 98.7628L135.02 99.4119L134.717 100.043L134.374 100.656L133.992 101.249L133.572 101.821L133.115 102.371L132.624 102.9L132.099 103.407L131.543 103.891L130.957 104.353L130.345 104.794L129.709 105.213L129.051 105.611L128.374 105.989L127.681 106.348L126.976 106.69L126.26 107.015L125.536 107.324L124.808 107.621L124.078 107.905L123.349 108.179L122.623 108.445L121.903 108.704L121.19 108.959L120.488 109.211L119.798 109.462L119.122 109.716L118.462 109.972L117.82 110.235L117.196 110.505L116.594 110.786L116.013 111.08L115.456 111.388L114.924 111.713L114.417 112.059L113.937 112.427L113.485 112.82L113.062 113.24L112.667 113.69L112.297 114.168L111.95 114.673L111.623 115.203L111.313 115.758L111.019 116.337L110.737 116.938L110.466 117.559L110.203 118.2L109.946 118.859L109.692 119.534L109.441 120.223L109.189 120.924L108.934 121.636L108.676 122.356L108.41 123.081L108.137 123.81L107.854 124.54L107.558 125.269L107.25 125.993L106.926 126.709L106.586 127.416L106.228 128.11L105.851 128.788L105.455 129.447L105.038 130.086L104.599 130.7L104.139 131.287L103.656 131.846L103.151 132.374L102.624 132.868L102.075 133.327L101.505 133.75L100.914 134.135L100.303 134.481L99.6728 134.788L99.0251 135.055L98.3609 135.283L97.6814 135.47L96.9882 135.619L96.2828 135.73L95.5667 135.804L94.8415 135.843L94.1088 135.847L93.3702 135.82L92.6271 135.762L91.8811 135.676L91.1336 135.564L90.3858 135.429L89.6392 135.273L88.8947 135.098L88.1535 134.907L87.4166 134.701L86.6846 134.485L85.9585 134.259L85.2386 134.026L84.5257 133.788L83.82 133.548L83.1218 133.308L82.4314 133.068L81.7488 132.832L81.0741 132.601L80.4072 132.376L79.7479 132.159L79.096 131.951L78.4512 131.754L77.8133 131.568L77.1817 131.395L76.5561 131.236L75.9361 131.091L75.321 130.961L74.7103 130.847L74.1035 130.75L73.4999 130.669L72.899 130.606L72.3 130.56L71.7025 130.532L71.1056 130.521L70.5088 130.529L69.9114 130.554L69.3127 130.597L68.7121 130.658L68.109 130.736L67.5027 130.831L66.8927 130.942L66.2784 131.069L65.6591 131.212L65.0344 131.369L64.4039 131.54L63.767 131.723L63.1233 131.919L62.4726 132.125L61.8145 132.341L61.1488 132.565L60.4753 132.795L59.794 133.031L59.1048 133.27L58.4079 133.51L57.7034 133.75L56.9915 133.988L56.2728 134.222L55.5476 134.449L54.8165 134.668L54.0803 134.875L53.3397 135.068L52.5957 135.246L51.8493 135.406L51.1017 135.544L50.354 135.66L49.6077 135.75L48.8641 135.813L48.1246 135.845L47.3908 135.846L46.6643 135.813L45.9467 135.745L45.2395 135.64L44.5442 135.497L43.8625 135.315L43.1957 135.094L42.5453 134.833L41.9125 134.533L41.2984 134.193L40.7041 133.814L40.1305 133.397L39.5781 132.943L39.0475 132.455L38.5391 131.932L38.0529 131.378L37.5889 130.795L37.1469 130.185L36.7263 129.551L36.3265 128.894L35.9467 128.219L35.586 127.527L35.2432 126.823L34.917 126.107L34.606 125.384L34.3087 124.657L34.0235 123.927L33.7486 123.197L33.4822 122.471L33.2225 121.75L32.9676 121.037L32.7154 120.334L32.4638 119.643L32.211 118.965L31.9546 118.304L31.6926 117.66L31.4228 117.035L31.1429 116.431L30.8506 115.849L30.5436 115.29L30.2195 114.756L29.8757 114.247L29.5098 113.765L29.1189 113.31L28.7004 112.885L28.2529 112.488L27.7773 112.116L27.2747 111.767L26.7462 111.438L26.193 111.128L25.6162 110.832L25.0171 110.549L24.3972 110.277L23.7578 110.014L23.1005 109.756L22.427 109.503L21.739 109.251L21.0385 108.999L20.3276 108.745L19.6083 108.487L18.883 108.222L18.1541 107.949L17.4241 107.667L16.6955 107.372L15.9712 107.065L15.2538 106.742L14.5463 106.404L13.8514 106.047L13.1719 105.672L12.5109 105.277L11.8709 104.862L11.2547 104.425L10.6648 103.966L10.1037 103.485L9.57366 102.982L9.07667 102.457L8.61455 101.91L8.18884 101.341L7.80082 100.752L7.45146 100.142L7.14146 99.5137L6.87116 98.8674L6.64063 98.2044L6.44962 97.5261L6.29757 96.8339L6.18364 96.1294L6.10674 95.4141L6.06549 94.6896L6.05832 93.9574L6.08344 93.2192L6.1389 92.4764L6.22258 91.7305L6.33228 90.9831L6.46567 90.2353L6.62039 89.4885L6.79402 88.7438L6.98415 88.0023L7.18834 87.265L7.40423 86.5326L7.62947 85.8059L7.86178 85.0856L8.09897 84.3721L8.33891 83.6658L8.57959 82.967L8.81909 82.276L9.05559 81.5928L9.28738 80.9174L9.51289 80.2498L9.73061 79.5899L9.93919 78.9374L10.1374 78.2921L10.324 77.6536L10.498 77.0216L10.6585 76.3956L10.8046 75.7751L10.9355 75.1596L11.0507 74.5486L11.1495 73.9414L11.2315 73.3376L11.2964 72.7365L11.3437 72.1374L11.3734 71.5398L11.3852 70.9429L11.3791 70.3461L11.3551 69.7487L11.3134 69.1502L11.2541 68.5498L11.1775 67.9469L11.084 67.3409L10.9739 66.7312L10.8479 66.1172L10.7066 65.4983L10.5506 64.8741L10.3808 64.244L10.1981 63.6076L10.0035 62.9645L9.79811 62.3144L9.58315 61.6568L9.35997 60.9917L9.13001 60.3189L8.89483 59.6381L8.6561 58.9496L8.41559 58.2533L8.1752 57.5493L7.93691 56.8381L7.70281 56.1199L7.47507 55.3951L7.25595 54.6645L7.04778 53.9287L6.85291 53.1884L6.67376 52.4446L6.51276 51.6984L6.37231 50.9508L6.25481 50.2031L6.16259 49.4566L6.09791 48.7127L6.06291 47.9728L6.05959 47.2385L6.0898 46.5114L6.15519 45.793L6.25719 45.0849L6.39699 44.3886L6.57552 43.7057L6.79342 43.0377L7.05104 42.3859L7.34842 41.7517L7.6853 41.1361L8.0611 40.5402L8.47493 39.9648L8.92561 39.4107L9.41168 38.8784L9.93141 38.3682L10.4828 37.8803L11.0638 37.4145L11.6719 36.9707L12.3046 36.5484L12.9592 36.147L13.6331 35.7657L14.3234 35.4035L15.0273 35.0593L15.7418 34.7318L16.4642 34.4196L17.1917 34.1213L17.9216 33.8352L18.6511 33.5595L19.3778 33.2926L20.0993 33.0324L20.8131 32.7771L21.5171 32.5248L22.2093 32.2733L22.8876 32.0206L23.5503 31.7646L24.1955 31.5031L24.8219 31.234L25.4277 30.9549L26.0118 30.6637L26.5726 30.358L27.1091 30.0353L27.6201 29.6932L28.1044 29.3291L28.561 28.9404L28.9888 28.5241L29.3881 28.0789L29.7617 27.6055L30.1122 27.105L30.4423 26.5786L30.7545 26.0272L31.0512 25.4523L31.3348 24.8549L31.6076 24.2366L31.8719 23.5987L32.1298 22.9427L32.3835 22.2704L32.6353 21.5835L32.887 20.884L33.1409 20.1738L33.3989 19.4551L33.6629 18.7302L33.9349 18.0015L34.2166 17.2714L34.5099 16.5427L34.8163 15.8179L35.1375 15.0999L35.4749 14.3914L35.8298 13.6954L36.2034 13.0146L36.5967 12.3519L37.0106 11.7102L37.4458 11.092L37.9027 10.4999L38.3818 9.93645L38.8832 9.40384L39.4067 8.90414L39.9522 8.43918L40.5191 8.01051L41.1069 7.61945L41.7148 7.26698L42.3418 6.95382L42.9867 6.68035L43.6484 6.44666L44.3255 6.25252L45.0166 6.09739L45.7202 5.98046L46.4347 5.90065L47.1586 5.85662L47.8902 5.8468L48.628 5.86942L49.3705 5.92254L50.1161 6.00406L50.8635 6.11177L51.6113 6.24336L52.3582 6.39647L53.103 6.56869L53.8448 6.75759L54.5825 6.96075L55.3153 7.1758L56.0424 7.40038L56.7633 7.63221L57.4774 7.86909L58.1843 8.10889L58.8836 8.34959L59.5753 8.58925L60.2591 8.82605L60.9351 9.05829L61.6033 9.28435L62.2638 9.50275L62.9168 9.7121L63.5627 9.91115L64.2017 10.0987L64.8343 10.2738L65.4607 10.4354L66.0817 10.5826L66.6975 10.7148L67.3089 10.8313L67.9163 10.9314L68.5203 11.0148L69.1216 11.081L69.7208 11.1298L70.3186 11.1608L70.9155 11.174L71.5123 11.1694L72.1096 11.1468L72.708 11.1065L73.3082 11.0486L73.9109 10.9734L74.5166 10.8812L75.126 10.7725L75.7396 10.6477L76.3581 10.5076L76.9818 10.3527L77.6114 10.184L78.2473 10.0023L78.8898 9.80857L79.5394 9.60398L80.1963 9.38974L80.8608 9.16716L81.5331 8.93768L82.2131 8.70286L82.9011 8.46434L83.5968 8.22391L84.3001 7.98343L85.0108 7.7449L85.7284 7.51038L86.4527 7.28205L87.1828 7.06216L87.9183 6.85303L88.6582 6.65701L89.4018 6.47652L90.1478 6.31398L90.8953 6.17181L91.6431 6.05239L92.3897 5.95808L93.1339 5.89112L93.8741 5.85368L94.6089 5.84777L95.3366 5.87524L96.0558 5.93778L96.7648 6.03682L97.4621 6.17357L98.146 6.34899L98.8153 6.56374L99.4684 6.81819L100.104 7.11242L100.721 7.44617L101.319 7.8189L101.896 8.22975L102.452 8.67755L102.986 9.16086L103.498 9.67799L103.987 10.227L104.455 10.8057L104.9 11.4117L105.324 12.0425L105.727 12.6956L106.11 13.368L106.474 14.0571L106.82 14.76L107.148 15.4738L107.462 16.1957L107.761 16.9229L108.048 17.6527L108.324 18.3823L108.592 19.1094L108.853 19.8313L109.108 20.5459L109.361 21.2508L109.612 21.9439L109.865 22.6234L110.12 23.2874L110.381 23.9341L110.65 24.562L110.928 25.1696L111.218 25.7554L111.523 26.3182L111.844 26.8567L112.184 27.3697L112.546 27.8562L112.933 28.315L113.347 28.7451L113.79 29.1466L114.261 29.5222L114.76 29.8744L115.284 30.2061L115.833 30.5196L116.407 30.8175L117.002 31.102L117.619 31.3756L118.255 31.6405L118.91 31.8988L119.581 32.1528L120.267 32.4046L120.965 32.6563L121.675 32.91L122.393 33.1675L123.117 33.431L123.846 33.7023L124.576 33.9832L125.305 34.2755L126.03 34.5808L126.749 34.9008L127.458 35.2368L128.155 35.5903L128.837 35.9623L129.501 36.354L130.145 36.7663L130.765 37.1997L131.359 37.655L131.925 38.1323L132.46 38.6319L132.963 39.1537L133.43 39.6974L133.862 40.2627L134.256 40.8488L134.612 41.4551L134.928 42.0806L135.205 42.7242L135.441 43.3846L135.639 44.0606L135.797 44.7506L135.917 45.4533L136 46.167L136.046 46.8901L136.059 47.6212L136.039 48.3586L135.988 49.1007L135.909 49.8462L135.803 50.5935L135.673 51.3413L135.522 52.0883L135.351 52.8334L135.163 53.5755L134.961 54.3135L134.747 55.0467L134.523 55.7744L134.292 56.4958L134.055 57.2104L133.816 57.9179L133.575 58.6179L133.335 59.3101L133.098 59.9946L132.865 60.6712L132.639 61.34L132.42 62.0011L132.21 62.6548L132.01 63.3012L131.821 63.9408L131.645 64.5738L131.482 65.2008L131.334 65.8221L131.2 66.4384L131.083 67.0501L130.981 67.6577L130.897 68.2621L130.829 68.8636L130.779 69.4629L130.746 70.0608L130.732 70.6577L130.731 70.8478Z" fill="#D6ABAB"/>
<path d="M130.731 70.8478V70.8478ZM130.731 70.8478L130.74 71.4447L130.767 72.0422L130.811 72.641L130.873 73.2417L130.952 73.8451L131.049 74.4516L131.161 75.062L131.29 75.6767L131.433 76.2964L131.592 76.9215L131.764 77.5526L131.948 78.19L132.145 78.8342L132.352 79.4855L132.568 80.1442L132.792 80.8106L133.023 81.4847L133.259 82.1666L133.498 82.8564L133.739 83.554L133.979 84.2591L134.217 84.9715L134.45 85.6908L134.677 86.4165L134.894 87.148L135.1 87.8846L135.293 88.6255L135.469 89.3697L135.627 90.1163L135.764 90.864L135.878 91.6116L135.966 92.3577L136.026 93.1011L136.056 93.8402L136.054 94.5734L136.018 95.2993L135.947 96.0162L135.839 96.7225L135.693 97.4167L135.509 98.0973L135.284 98.7628L135.02 99.4119L134.717 100.043L134.374 100.656L133.992 101.249L133.572 101.821L133.115 102.371L132.624 102.9L132.099 103.407L131.543 103.891L130.957 104.353L130.345 104.794L129.709 105.213L129.051 105.611L128.374 105.989L127.681 106.348L126.976 106.69L126.26 107.015L125.536 107.324L124.808 107.621L124.078 107.905L123.349 108.179L122.623 108.445L121.903 108.704L121.19 108.959L120.488 109.211L119.798 109.462L119.122 109.716L118.462 109.972L117.82 110.235L117.196 110.505L116.594 110.786L116.013 111.08L115.456 111.388L114.924 111.713L114.417 112.059L113.937 112.427L113.485 112.82L113.062 113.24L112.667 113.69L112.297 114.168L111.95 114.673L111.623 115.203L111.313 115.758L111.019 116.337L110.737 116.938L110.466 117.559L110.203 118.2L109.946 118.859L109.692 119.534L109.441 120.223L109.189 120.924L108.934 121.636L108.676 122.356L108.41 123.081L108.137 123.81L107.854 124.54L107.558 125.269L107.25 125.993L106.926 126.709L106.586 127.416L106.228 128.11L105.851 128.788L105.455 129.447L105.038 130.086L104.599 130.7L104.139 131.287L103.656 131.846L103.151 132.374L102.624 132.868L102.075 133.327L101.505 133.75L100.914 134.135L100.303 134.481L99.6728 134.788L99.0251 135.055L98.3609 135.283L97.6814 135.47L96.9882 135.619L96.2828 135.73L95.5667 135.804L94.8415 135.843L94.1088 135.847L93.3702 135.82L92.6271 135.762L91.8811 135.676L91.1336 135.564L90.3858 135.429L89.6392 135.273L88.8947 135.098L88.1535 134.907L87.4166 134.701L86.6846 134.485L85.9585 134.259L85.2386 134.026L84.5257 133.788L83.82 133.548L83.1218 133.308L82.4314 133.068L81.7488 132.832L81.0741 132.601L80.4072 132.376L79.7479 132.159L79.096 131.951L78.4512 131.754L77.8133 131.568L77.1817 131.395L76.5561 131.236L75.9361 131.091L75.321 130.961L74.7103 130.847L74.1035 130.75L73.4999 130.669L72.899 130.606L72.3 130.56L71.7025 130.532L71.1056 130.521L70.5088 130.529L69.9114 130.554L69.3127 130.597L68.7121 130.658L68.109 130.736L67.5027 130.831L66.8927 130.942L66.2784 131.069L65.6591 131.212L65.0344 131.369L64.4039 131.54L63.767 131.723L63.1233 131.919L62.4726 132.125L61.8145 132.341L61.1488 132.565L60.4753 132.795L59.794 133.031L59.1048 133.27L58.4079 133.51L57.7034 133.75L56.9915 133.988L56.2728 134.222L55.5476 134.449L54.8165 134.668L54.0803 134.875L53.3397 135.068L52.5957 135.246L51.8493 135.406L51.1017 135.544L50.354 135.66L49.6077 135.75L48.8641 135.813L48.1246 135.845L47.3908 135.846L46.6643 135.813L45.9467 135.745L45.2395 135.64L44.5442 135.497L43.8625 135.315L43.1957 135.094L42.5453 134.833L41.9125 134.533L41.2984 134.193L40.7041 133.814L40.1305 133.397L39.5781 132.943L39.0475 132.455L38.5391 131.932L38.0529 131.378L37.5889 130.795L37.1469 130.185L36.7263 129.551L36.3265 128.894L35.9467 128.219L35.586 127.527L35.2432 126.823L34.917 126.107L34.606 125.384L34.3087 124.657L34.0235 123.927L33.7486 123.197L33.4822 122.471L33.2225 121.75L32.9676 121.037L32.7154 120.334L32.4638 119.643L32.211 118.965L31.9546 118.304L31.6926 117.66L31.4228 117.035L31.1429 116.431L30.8506 115.849L30.5436 115.29L30.2195 114.756L29.8757 114.247L29.5098 113.765L29.1189 113.31L28.7004 112.885L28.2529 112.488L27.7773 112.116L27.2747 111.767L26.7462 111.438L26.193 111.128L25.6162 110.832L25.0171 110.549L24.3972 110.277L23.7578 110.014L23.1005 109.756L22.4269 109.503L21.739 109.251L21.0385 108.999L20.3276 108.745L19.6083 108.487L18.883 108.222L18.1541 107.949L17.4241 107.667L16.6955 107.372L15.9712 107.065L15.2538 106.742L14.5463 106.404L13.8514 106.047L13.1719 105.672L12.5109 105.277L11.8709 104.862L11.2547 104.425L10.6648 103.966L10.1037 103.485L9.57366 102.982L9.07667 102.457L8.61455 101.91L8.18884 101.341L7.80082 100.752L7.45146 100.142L7.14146 99.5137L6.87116 98.8674L6.64063 98.2044L6.44962 97.5261L6.29757 96.8339L6.18364 96.1294L6.10674 95.4141L6.06549 94.6896L6.05832 93.9574L6.08344 93.2192L6.1389 92.4764L6.22258 91.7305L6.33228 90.9831L6.46567 90.2353L6.62039 89.4885L6.79402 88.7438L6.98415 88.0024L7.18834 87.265L7.40423 86.5326L7.62947 85.8059L7.86178 85.0856L8.09897 84.3721L8.33891 83.6658L8.57959 82.967L8.81909 82.276L9.05559 81.5928L9.28738 80.9174L9.51289 80.2498L9.73061 79.5899L9.93919 78.9374L10.1374 78.2921L10.324 77.6536L10.498 77.0216L10.6585 76.3956L10.8046 75.7751L10.9355 75.1596L11.0507 74.5486L11.1495 73.9414L11.2315 73.3376L11.2964 72.7365L11.3437 72.1374L11.3734 71.5398L11.3852 70.9429L11.3791 70.3461L11.3551 69.7487L11.3134 69.1502L11.2541 68.5498L11.1775 67.9469L11.084 67.3409L10.9739 66.7312L10.8479 66.1172L10.7066 65.4983L10.5506 64.8741L10.3808 64.244L10.1981 63.6076L10.0035 62.9645L9.7981 62.3144L9.58315 61.6568L9.35997 60.9917L9.13001 60.3189L8.89483 59.6382L8.6561 58.9496L8.41559 58.2533L8.1752 57.5493L7.93691 56.8381L7.70281 56.1199L7.47507 55.3951L7.25595 54.6645L7.04778 53.9287L6.85291 53.1884L6.67376 52.4446L6.51276 51.6984L6.37231 50.9508L6.25481 50.2031L6.16259 49.4566L6.09791 48.7127L6.06291 47.9728L6.05959 47.2385L6.0898 46.5114L6.15519 45.793L6.25719 45.0849L6.39699 44.3886L6.57552 43.7057L6.79342 43.0377L7.05104 42.3859L7.34842 41.7517L7.6853 41.1361L8.0611 40.5402L8.47493 39.9648L8.92561 39.4107L9.41168 38.8784L9.93141 38.3682L10.4828 37.8803L11.0638 37.4145L11.6719 36.9707L12.3046 36.5484L12.9592 36.147L13.6331 35.7657L14.3234 35.4035L15.0273 35.0593L15.7418 34.7318L16.4642 34.4196L17.1917 34.1213L17.9216 33.8352L18.6511 33.5595L19.3778 33.2926L20.0993 33.0324L20.8131 32.7771L21.5171 32.5248L22.2093 32.2733L22.8876 32.0206L23.5503 31.7646L24.1955 31.5031L24.8219 31.234L25.4277 30.9549L26.0118 30.6637L26.5726 30.358L27.1091 30.0353L27.6201 29.6932L28.1044 29.3291L28.561 28.9404L28.9888 28.5241L29.3881 28.0789L29.7617 27.6055L30.1122 27.105L30.4423 26.5786L30.7545 26.0272L31.0512 25.4523L31.3348 24.8549L31.6076 24.2366L31.8719 23.5987L32.1298 22.9427L32.3835 22.2704L32.6353 21.5835L32.887 20.884L33.1409 20.1738L33.3989 19.4551L33.6629 18.7302L33.9349 18.0015L34.2166 17.2714L34.5099 16.5427L34.8163 15.8179L35.1375 15.0999L35.4749 14.3914L35.8298 13.6954L36.2034 13.0146L36.5967 12.3519L37.0106 11.7102L37.4458 11.092L37.9027 10.4999L38.3818 9.93645L38.8832 9.40384L39.4067 8.90414L39.9522 8.43918L40.5191 8.01051L41.1069 7.61945L41.7148 7.26698L42.3418 6.95382L42.9867 6.68035L43.6484 6.44666L44.3255 6.25252L45.0166 6.09739L45.7202 5.98046L46.4347 5.90065L47.1586 5.85662L47.8902 5.8468L48.628 5.86942L49.3705 5.92254L50.1161 6.00406L50.8635 6.11177L51.6113 6.24336L52.3582 6.39647L53.103 6.56869L53.8448 6.75759L54.5825 6.96075L55.3153 7.1758L56.0424 7.40038L56.7633 7.63221L57.4774 7.86909L58.1843 8.10889L58.8836 8.34959L59.5753 8.58925L60.2591 8.82605L60.9351 9.05829L61.6033 9.28435L62.2638 9.50275L62.9168 9.7121L63.5627 9.91115L64.2017 10.0987L64.8343 10.2738L65.4607 10.4354L66.0817 10.5826L66.6975 10.7148L67.3089 10.8313L67.9163 10.9314L68.5203 11.0148L69.1216 11.081L69.7208 11.1298L70.3186 11.1608L70.9155 11.174L71.5123 11.1694L72.1096 11.1468L72.708 11.1065L73.3082 11.0486L73.9109 10.9734L74.5166 10.8812L75.126 10.7725L75.7396 10.6477L76.3581 10.5076L76.9818 10.3527L77.6114 10.184L78.2473 10.0023L78.8898 9.80857L79.5394 9.60398L80.1963 9.38974L80.8608 9.16716L81.5331 8.93768L82.2131 8.70286L82.9011 8.46434L83.5968 8.22391L84.3001 7.98343L85.0108 7.7449L85.7285 7.51038L86.4527 7.28205L87.1828 7.06216L87.9183 6.85303L88.6582 6.65701L89.4018 6.47652L90.1478 6.31398L90.8953 6.17181L91.6431 6.05239L92.3897 5.95808L93.1339 5.89112L93.8741 5.85368L94.6089 5.84777L95.3366 5.87524L96.0558 5.93778L96.7648 6.03682L97.462 6.17357L98.146 6.34899L98.8153 6.56374L99.4684 6.81819L100.104 7.11242L100.721 7.44617L101.319 7.8189L101.896 8.22975L102.452 8.67755L102.986 9.16086L103.498 9.67799L103.987 10.227L104.455 10.8057L104.9 11.4117L105.324 12.0425L105.727 12.6956L106.11 13.368L106.474 14.0571L106.82 14.76L107.148 15.4738L107.462 16.1957L107.761 16.9229L108.048 17.6527L108.324 18.3823L108.592 19.1094L108.853 19.8313L109.108 20.5459L109.361 21.2508L109.612 21.9439L109.865 22.6234L110.12 23.2874L110.381 23.9341L110.65 24.562L110.928 25.1696L111.218 25.7554L111.523 26.3182L111.844 26.8567L112.184 27.3697L112.546 27.8562L112.933 28.315L113.347 28.7451L113.79 29.1466L114.261 29.5222L114.76 29.8744L115.284 30.2061L115.833 30.5196L116.407 30.8175L117.002 31.102L117.619 31.3756L118.255 31.6405L118.91 31.8988L119.581 32.1528L120.267 32.4046L120.965 32.6563L121.675 32.91L122.393 33.1675L123.117 33.431L123.846 33.7023L124.576 33.9832L125.305 34.2755L126.03 34.5808L126.749 34.9008L127.458 35.2368L128.155 35.5903L128.837 35.9623L129.501 36.354L130.145 36.7663L130.765 37.1997L131.359 37.655L131.925 38.1323L132.46 38.6319L132.963 39.1537L133.43 39.6974L133.862 40.2627L134.256 40.8488L134.612 41.4551L134.928 42.0806L135.205 42.7242L135.441 43.3846L135.639 44.0606L135.797 44.7506L135.917 45.4533L136 46.167L136.046 46.8901L136.059 47.6212L136.039 48.3586L135.988 49.1007L135.909 49.8462L135.803 50.5935L135.673 51.3413L135.522 52.0883L135.351 52.8334L135.163 53.5755L134.961 54.3135L134.747 55.0467L134.523 55.7744L134.292 56.4958L134.055 57.2104L133.816 57.9179L133.575 58.6179L133.335 59.3101L133.098 59.9946L132.865 60.6712L132.639 61.34L132.42 62.0011L132.21 62.6548L132.01 63.3012L131.821 63.9408L131.645 64.5738L131.482 65.2008L131.334 65.8221L131.2 66.4384L131.083 67.0501L130.981 67.6577L130.897 68.2621L130.829 68.8636L130.779 69.4629L130.746 70.0608L130.732 70.6577L130.731 70.8478Z" stroke="#702222" stroke-width="10.8807"/>
<path d="M48.7274 76.5827C48.9972 75.7983 49.1613 75.1024 49.3165 74.4444C49.6053 73.2196 49.8631 72.1262 50.7145 70.8381C52.1309 68.6954 53.4663 67.8267 55.6824 66.5297C59.0942 64.5328 65.5077 64.0993 65.5077 64.0993L64.2933 62.6631L62.0854 56.9185L60.6502 53.1624H52.5913C52.5913 53.1624 48.2804 53.0014 45.5259 53.1624C42.184 53.3578 40.173 53.127 37.0253 54.2672C34.9578 55.0161 33.5408 55.2944 32.0574 56.9185C30.437 58.6928 30.7187 60.4224 29.8495 62.6631C29.0789 64.6498 28.1527 65.6337 27.8624 67.7449C27.524 70.2049 28.6469 71.5606 28.7455 74.0419C28.785 75.0334 28.6391 75.5962 28.7455 76.5827C28.914 78.1441 29.3566 78.9584 29.8495 80.4493C30.5788 82.655 30.6405 84.1326 32.0574 85.973C33.1591 87.4039 34.111 87.9204 35.5901 88.9557C37.172 90.063 38.0371 90.8637 39.8956 91.3862C42.0124 91.9812 43.4091 91.9812 45.5259 91.3862C45.5259 89.2722 45.5259 85.973 45.5259 85.973C45.5259 85.973 47.467 80.2464 48.7274 76.5827Z" fill="#464646"/>
<path d="M88.3598 74.0419C89.5079 76.3454 89.9054 80.4493 89.9054 80.4493C91.673 81.7867 94.4317 83.874 94.4317 83.874C94.4317 83.874 96.2477 85.2334 97.5228 85.9177C99.2726 86.8568 100.305 87.4552 102.27 87.7405C103.55 87.9264 104.332 87.4071 105.582 87.7405C106.946 88.1046 107.466 88.8852 108.673 89.6186C109.837 89.1872 110.941 89.5308 111.654 88.5139C112.159 87.7935 111.833 87.1444 112.095 86.3044C112.405 85.3091 112.933 84.8819 113.199 83.874C113.607 82.3308 113.39 81.3712 113.199 79.7865C112.991 78.062 112.095 75.478 112.095 75.478L111.654 72.8267L110.991 68.6287L110.108 63.6574L109.335 60.3432C109.335 60.3432 109.554 58.3713 109.335 57.1395C109.075 55.6723 107.9 53.6043 107.9 53.6043L105.582 50.953C105.582 50.953 103.666 49.1928 102.27 48.3016C100.546 47.2016 97.5228 46.0921 97.5228 46.0921C97.5228 46.0921 95.2802 44.5089 93.6589 43.8827C91.6946 43.124 88.3598 42.8884 88.3598 42.8884H85.0479H81.5152H75.9954C75.9954 42.8884 74.0397 42.9935 72.7939 42.8884C70.3557 42.6827 66.722 41.3418 66.722 41.3418C66.722 41.3418 63.8961 41.3418 62.0854 41.3418C62.4303 42.6361 62.9686 44.656 62.9686 44.656L64.2933 47.4178L67.826 51.9472L70.4755 55.8138L71.2483 58.3547L75.9954 61.5584L83.0608 66.5297L86.166 70.7065L86.3727 70.8381L86.9209 71.7219C86.9209 71.7219 87.8843 73.0876 88.3598 74.0419Z" fill="#7B7974"/>
<path d="M65.5077 64.0993C65.5077 64.0993 75.832 64.7757 81.5152 67.7449C83.4236 68.7419 86.166 70.7065 86.166 70.7065L83.0608 66.5297L75.9954 61.5584L71.2483 58.3547L70.4755 55.8138L67.826 51.9472L64.2933 47.4178L62.9686 44.656C62.9686 44.656 62.4303 42.6361 62.0854 41.3418C61.5249 42.3341 60.6502 43.8827 60.6502 43.8827L59.6567 48.9644L60.6502 53.1624L62.0854 56.9185L64.2933 62.6631L65.5077 64.0993Z" fill="#161616"/>
<path d="M104.367 90.7233C106.102 90.651 107.118 90.3903 108.673 89.6186C107.466 88.8852 106.946 88.1046 105.582 87.7405C104.332 87.4071 103.55 87.9264 102.27 87.7405C100.305 87.4552 99.2726 86.8568 97.5228 85.9177C96.2477 85.2334 94.4317 83.874 94.4317 83.874C94.4317 83.874 91.673 81.7867 89.9054 80.4493C89.6036 82.5849 89.1326 85.9177 89.1326 85.9177C89.1326 85.9177 90.3196 87.7609 91.4509 88.5139C92.4845 89.2017 93.2367 89.2824 94.4317 89.6186C95.4491 89.9048 96.0312 90.0499 97.0812 90.171C98.4089 90.3241 99.1699 90.0824 100.503 90.171C102.024 90.272 102.844 90.7868 104.367 90.7233Z" fill="#221E17"/>
<path fill-rule="evenodd" clip-rule="evenodd" d="M49.3165 74.4444C49.6053 73.2196 49.8631 72.1262 50.7145 70.8381C52.1309 68.6954 53.4663 67.8267 55.6824 66.5297C59.0942 64.5328 65.5077 64.0993 65.5077 64.0993C65.5077 64.0993 75.832 64.7757 81.5152 67.7449C83.4236 68.7419 86.166 70.7065 86.166 70.7065L86.9209 71.7219C86.9209 71.7219 87.8843 73.0876 88.3598 74.0419C89.5079 76.3454 89.9054 80.4493 89.9054 80.4493L89.1326 85.9177L88.3598 91.3862C88.3598 91.3862 87.7041 95.0441 86.3727 96.9098C85.3175 98.3884 84.084 99.1782 82.7036 99.6868H78.6013H72.9443C72.9443 99.6868 69.8136 99.898 67.826 99.6868C65.5376 99.4436 62.9497 100.243 60.6502 100.151C57.87 100.04 57.6382 100.795 55.0858 99.6868C52.8129 98.7001 50.1662 95.2706 48.7274 93.2533C46.3744 89.9543 45.5259 85.973 45.5259 85.973C45.5259 85.973 47.467 80.2464 48.7274 76.5827C48.9972 75.7983 49.1613 75.1024 49.3165 74.4444Z" fill="#9F9B92"/>
<path d="M75.7861 101.393L75.9954 101.329C78.4691 100.565 80.7356 100.412 82.7036 99.6868H78.6013H72.9443C72.9443 99.6868 69.8136 99.898 67.826 99.6868C65.5376 99.4436 62.9497 100.243 60.6502 100.151C57.87 100.04 57.6382 100.795 55.0858 99.6868C52.8129 98.7001 50.1662 95.2706 48.7274 93.2533C46.3744 89.9543 45.5259 85.973 45.5259 85.973V91.3862C46.7761 93.5433 47.2011 94.9386 48.7274 96.9098C50.9356 99.762 52.186 102.105 55.6824 102.986C57.5637 103.46 58.7102 102.986 60.6502 102.986C63.9268 102.986 65.7899 103.399 69.0404 102.986C71.737 102.643 73.2462 102.177 75.7861 101.393Z" fill="#676561"/>
<path d="M65.5077 64.0993C65.5077 64.0993 59.0942 64.5328 55.6824 66.5297C53.4663 67.8267 52.1309 68.6954 50.7145 70.8381C49.8631 72.1262 49.6053 73.2196 49.3165 74.4444C49.1613 75.1024 48.9972 75.7983 48.7274 76.5827C47.467 80.2464 45.5259 85.973 45.5259 85.973M65.5077 64.0993C65.5077 64.0993 75.8319 64.7757 81.5152 67.7449C83.4236 68.7419 86.166 70.7065 86.166 70.7065M65.5077 64.0993L64.2933 62.6631L62.0854 56.9185L60.6502 53.1624M89.9054 80.4493C89.9054 80.4493 89.5079 76.3454 88.3598 74.0419C87.8843 73.0876 86.9209 71.7219 86.9209 71.7219M89.9054 80.4493C89.6036 82.5849 89.1326 85.9177 89.1326 85.9177M89.9054 80.4493C91.673 81.7867 94.4317 83.874 94.4317 83.874C94.4317 83.874 96.2477 85.2334 97.5228 85.9177C99.2726 86.8568 100.305 87.4552 102.27 87.7405C103.55 87.9264 104.332 87.4071 105.582 87.7405C106.946 88.1046 107.466 88.8852 108.673 89.6186M89.9054 80.4493L89.1326 85.9177M75.9954 101.329C78.4691 100.565 80.7356 100.412 82.7036 99.6868M75.9954 101.329L75.7861 101.393M75.9954 101.329C75.9248 101.351 75.8551 101.372 75.7861 101.393M45.5259 91.3862C46.7761 93.5433 47.2011 94.9386 48.7274 96.9098C50.9356 99.762 52.186 102.105 55.6824 102.986C57.5637 103.46 58.7102 102.986 60.6502 102.986C63.9268 102.986 65.7899 103.399 69.0404 102.986C71.737 102.643 73.2462 102.177 75.7861 101.393M45.5259 91.3862C45.5259 89.2722 45.5259 85.973 45.5259 85.973M45.5259 91.3862C43.4091 91.9812 42.0124 91.9812 39.8956 91.3862C38.0371 90.8637 37.172 90.063 35.5901 88.9558C34.111 87.9204 33.1591 87.4038 32.0574 85.973C30.6405 84.1326 30.5788 82.655 29.8495 80.4493C29.3566 78.9584 28.914 78.1441 28.7455 76.5827C28.6391 75.5962 28.785 75.0334 28.7455 74.0419C28.6469 71.5606 27.524 70.2049 27.8624 67.7449C28.1527 65.6337 29.0789 64.6498 29.8495 62.6631C30.7187 60.4224 30.437 58.6928 32.0574 56.9185C33.5408 55.2944 34.9578 55.0161 37.0253 54.2672C40.173 53.127 42.184 53.3578 45.5259 53.1624C48.2804 53.0014 52.5913 53.1624 52.5913 53.1624H60.6502M45.5259 91.3862V85.973M45.5259 85.973C45.5259 85.973 46.3744 89.9543 48.7274 93.2533C50.1662 95.2706 52.8129 98.7001 55.0858 99.6868C57.6382 100.795 57.87 100.04 60.6502 100.151C62.9497 100.243 65.5376 99.4436 67.826 99.6868C69.8136 99.898 72.9443 99.6868 72.9443 99.6868H78.6013H82.7036M60.6502 53.1624L59.6567 48.9644L60.6502 43.8827C60.6502 43.8827 61.5249 42.3341 62.0854 41.3418M62.0854 41.3418C63.8961 41.3418 66.7221 41.3418 66.7221 41.3418C66.7221 41.3418 70.3557 42.6827 72.7939 42.8884C74.0397 42.9935 75.9954 42.8884 75.9954 42.8884H81.5152H85.0479H88.3598C88.3598 42.8884 91.6946 43.124 93.6589 43.8827C95.2802 44.5089 97.5228 46.0921 97.5228 46.0921C97.5228 46.0921 100.546 47.2016 102.27 48.3016C103.666 49.1928 105.582 50.953 105.582 50.953L107.9 53.6043C107.9 53.6043 109.075 55.6723 109.335 57.1395C109.554 58.3713 109.335 60.3432 109.335 60.3432L110.108 63.6574L110.991 68.6287L111.654 72.8267L112.095 75.478C112.095 75.478 112.991 78.062 113.199 79.7865C113.39 81.3712 113.607 82.3308 113.199 83.874C112.933 84.8819 112.405 85.3091 112.095 86.3044C111.833 87.1444 112.159 87.7935 111.654 88.5139C110.941 89.5308 109.837 89.1872 108.673 89.6186M62.0854 41.3418C62.4303 42.6361 62.9686 44.656 62.9686 44.656L64.2933 47.4178L67.826 51.9472L70.4755 55.8138L71.2483 58.3547L75.9954 61.5584L83.0608 66.5297L86.166 70.7065M108.673 89.6186C107.118 90.3903 106.102 90.651 104.367 90.7233C102.844 90.7868 102.024 90.272 100.503 90.171C99.1699 90.0824 98.4089 90.3241 97.0812 90.171C96.0312 90.0499 95.4491 89.9048 94.4317 89.6186C93.2367 89.2824 92.4845 89.2017 91.4509 88.5139C90.3196 87.7609 89.1326 85.9177 89.1326 85.9177M89.1326 85.9177L88.3598 91.3862C88.3598 91.3862 87.7041 95.0441 86.3727 96.9098C85.3175 98.3884 84.084 99.1782 82.7036 99.6868M86.9209 71.7219L86.3727 70.8381L86.166 70.7065M86.9209 71.7219L86.166 70.7065" stroke="black" stroke-width="1.30568"/>
<path d="M130.731 70.8478V70.8478ZM130.731 70.8478L130.74 71.4447L130.767 72.0422L130.811 72.641L130.873 73.2417L130.952 73.8451L131.049 74.4516L131.161 75.062L131.29 75.6767L131.433 76.2964L131.592 76.9215L131.764 77.5526L131.948 78.19L132.145 78.8342L132.352 79.4855L132.568 80.1442L132.792 80.8106L133.023 81.4847L133.259 82.1666L133.498 82.8564L133.739 83.554L133.979 84.2591L134.217 84.9715L134.45 85.6908L134.677 86.4165L134.894 87.148L135.1 87.8846L135.293 88.6255L135.469 89.3697L135.627 90.1163L135.764 90.864L135.878 91.6116L135.966 92.3577L136.026 93.1011L136.056 93.8402L136.054 94.5734L136.018 95.2993L135.947 96.0162L135.839 96.7225L135.693 97.4167L135.509 98.0973L135.284 98.7628L135.02 99.4119L134.717 100.043L134.374 100.656L133.992 101.249L133.572 101.821L133.115 102.371L132.624 102.9L132.099 103.407L131.543 103.891L130.957 104.353L130.345 104.794L129.709 105.213L129.051 105.611L128.374 105.989L127.681 106.348L126.976 106.69L126.26 107.015L125.536 107.324L124.808 107.621L124.078 107.905L123.349 108.179L122.623 108.445L121.903 108.704L121.19 108.959L120.488 109.211L119.798 109.462L119.122 109.716L118.462 109.972L117.82 110.235L117.196 110.505L116.594 110.786L116.013 111.08L115.456 111.388L114.924 111.713L114.417 112.059L113.937 112.427L113.485 112.82L113.062 113.24L112.667 113.69L112.297 114.168L111.95 114.673L111.623 115.203L111.313 115.758L111.019 116.337L110.737 116.938L110.466 117.559L110.203 118.2L109.946 118.859L109.692 119.534L109.441 120.223L109.189 120.924L108.934 121.636L108.676 122.356L108.41 123.081L108.137 123.81L107.854 124.54L107.558 125.269L107.25 125.993L106.926 126.709L106.586 127.416L106.228 128.11L105.851 128.788L105.455 129.447L105.038 130.086L104.599 130.7L104.139 131.287L103.656 131.846L103.151 132.374L102.624 132.868L102.075 133.327L101.505 133.75L100.914 134.135L100.303 134.481L99.6728 134.788L99.0251 135.055L98.3609 135.283L97.6814 135.47L96.9882 135.619L96.2828 135.73L95.5667 135.804L94.8415 135.843L94.1088 135.847L93.3702 135.82L92.6271 135.762L91.8811 135.676L91.1336 135.564L90.3858 135.429L89.6392 135.273L88.8947 135.098L88.1535 134.907L87.4166 134.701L86.6846 134.485L85.9585 134.259L85.2386 134.026L84.5257 133.788L83.82 133.548L83.1218 133.308L82.4314 133.068L81.7488 132.832L81.0741 132.601L80.4072 132.376L79.7479 132.159L79.096 131.951L78.4512 131.754L77.8133 131.568L77.1817 131.395L76.5561 131.236L75.9361 131.091L75.321 130.961L74.7103 130.847L74.1035 130.75L73.4999 130.669L72.899 130.606L72.3 130.56L71.7025 130.532L71.1056 130.521L70.5088 130.529L69.9114 130.554L69.3127 130.597L68.7121 130.658L68.109 130.736L67.5027 130.831L66.8927 130.942L66.2784 131.069L65.6591 131.212L65.0344 131.369L64.4039 131.54L63.767 131.723L63.1233 131.919L62.4726 132.125L61.8145 132.341L61.1488 132.565L60.4753 132.795L59.794 133.031L59.1048 133.27L58.4079 133.51L57.7034 133.75L56.9915 133.988L56.2728 134.222L55.5476 134.449L54.8165 134.668L54.0803 134.875L53.3397 135.068L52.5957 135.246L51.8493 135.406L51.1017 135.544L50.354 135.66L49.6077 135.75L48.8641 135.813L48.1246 135.845L47.3908 135.846L46.6643 135.813L45.9467 135.745L45.2395 135.64L44.5442 135.497L43.8625 135.315L43.1957 135.094L42.5453 134.833L41.9125 134.533L41.2984 134.193L40.7041 133.814L40.1305 133.397L39.5781 132.943L39.0475 132.455L38.5391 131.932L38.0529 131.378L37.5889 130.795L37.1469 130.185L36.7263 129.551L36.3265 128.894L35.9467 128.219L35.586 127.527L35.2432 126.823L34.917 126.107L34.606 125.384L34.3087 124.657L34.0235 123.927L33.7486 123.197L33.4822 122.471L33.2225 121.75L32.9676 121.037L32.7154 120.334L32.4638 119.643L32.211 118.965L31.9546 118.304L31.6926 117.66L31.4228 117.035L31.1429 116.431L30.8506 115.849L30.5436 115.29L30.2195 114.756L29.8757 114.247L29.5098 113.765L29.1189 113.31L28.7004 112.885L28.2529 112.488L27.7773 112.116L27.2747 111.767L26.7462 111.438L26.193 111.128L25.6162 110.832L25.0171 110.549L24.3972 110.277L23.7578 110.014L23.1005 109.756L22.4269 109.503L21.739 109.251L21.0385 108.999L20.3276 108.745L19.6083 108.487L18.883 108.222L18.1541 107.949L17.4241 107.667L16.6955 107.372L15.9712 107.065L15.2538 106.742L14.5463 106.404L13.8514 106.047L13.1719 105.672L12.5109 105.277L11.8709 104.862L11.2547 104.425L10.6648 103.966L10.1037 103.485L9.57366 102.982L9.07667 102.457L8.61455 101.91L8.18884 101.341L7.80082 100.752L7.45146 100.142L7.14146 99.5137L6.87116 98.8674L6.64063 98.2044L6.44962 97.5261L6.29757 96.8339L6.18364 96.1294L6.10674 95.4141L6.06549 94.6896L6.05832 93.9574L6.08344 93.2192L6.1389 92.4764L6.22258 91.7305L6.33228 90.9831L6.46567 90.2353L6.62039 89.4885L6.79402 88.7438L6.98415 88.0024L7.18834 87.265L7.40423 86.5326L7.62947 85.8059L7.86178 85.0856L8.09897 84.3721L8.33891 83.6658L8.57959 82.967L8.81909 82.276L9.05559 81.5928L9.28738 80.9174L9.51289 80.2498L9.73061 79.5899L9.93919 78.9374L10.1374 78.2921L10.324 77.6536L10.498 77.0216L10.6585 76.3956L10.8046 75.7751L10.9355 75.1596L11.0507 74.5486L11.1495 73.9414L11.2315 73.3376L11.2964 72.7365L11.3437 72.1374L11.3734 71.5398L11.3852 70.9429L11.3791 70.3461L11.3551 69.7487L11.3134 69.1502L11.2541 68.5498L11.1775 67.9469L11.084 67.3409L10.9739 66.7312L10.8479 66.1172L10.7066 65.4983L10.5506 64.8741L10.3808 64.244L10.1981 63.6076L10.0035 62.9645L9.7981 62.3144L9.58315 61.6568L9.35997 60.9917L9.13001 60.3189L8.89483 59.6382L8.6561 58.9496L8.41559 58.2533L8.1752 57.5493L7.93691 56.8381L7.70281 56.1199L7.47507 55.3951L7.25595 54.6645L7.04778 53.9287L6.85291 53.1884L6.67376 52.4446L6.51276 51.6984L6.37231 50.9508L6.25481 50.2031L6.16259 49.4566L6.09791 48.7127L6.06291 47.9728L6.05959 47.2385L6.0898 46.5114L6.15519 45.793L6.25719 45.0849L6.39699 44.3886L6.57552 43.7057L6.79342 43.0377L7.05104 42.3859L7.34842 41.7517L7.6853 41.1361L8.0611 40.5402L8.47493 39.9648L8.92561 39.4107L9.41168 38.8784L9.93141 38.3682L10.4828 37.8803L11.0638 37.4145L11.6719 36.9707L12.3046 36.5484L12.9592 36.147L13.6331 35.7657L14.3234 35.4035L15.0273 35.0593L15.7418 34.7318L16.4642 34.4196L17.1917 34.1213L17.9216 33.8352L18.6511 33.5595L19.3778 33.2926L20.0993 33.0324L20.8131 32.7771L21.5171 32.5248L22.2093 32.2733L22.8876 32.0206L23.5503 31.7646L24.1955 31.5031L24.8219 31.234L25.4277 30.9549L26.0118 30.6637L26.5726 30.358L27.1091 30.0353L27.6201 29.6932L28.1044 29.3291L28.561 28.9404L28.9888 28.5241L29.3881 28.0789L29.7617 27.6055L30.1122 27.105L30.4423 26.5786L30.7545 26.0272L31.0512 25.4523L31.3348 24.8549L31.6076 24.2366L31.8719 23.5987L32.1298 22.9427L32.3835 22.2704L32.6353 21.5835L32.887 20.884L33.1409 20.1738L33.3989 19.4551L33.6629 18.7302L33.9349 18.0015L34.2166 17.2714L34.5099 16.5427L34.8163 15.8179L35.1375 15.0999L35.4749 14.3914L35.8298 13.6954L36.2034 13.0146L36.5967 12.3519L37.0106 11.7102L37.4458 11.092L37.9027 10.4999L38.3818 9.93645L38.8832 9.40384L39.4067 8.90414L39.9522 8.43918L40.5191 8.01051L41.1069 7.61945L41.7148 7.26698L42.3418 6.95382L42.9867 6.68035L43.6484 6.44666L44.3255 6.25252L45.0166 6.09739L45.7202 5.98046L46.4347 5.90065L47.1586 5.85662L47.8902 5.8468L48.628 5.86942L49.3705 5.92254L50.1161 6.00406L50.8635 6.11177L51.6113 6.24336L52.3582 6.39647L53.103 6.56869L53.8448 6.75759L54.5825 6.96075L55.3153 7.1758L56.0424 7.40038L56.7633 7.63221L57.4774 7.86909L58.1843 8.10889L58.8836 8.34959L59.5753 8.58925L60.2591 8.82605L60.9351 9.05829L61.6033 9.28435L62.2638 9.50275L62.9168 9.7121L63.5627 9.91115L64.2017 10.0987L64.8343 10.2738L65.4607 10.4354L66.0817 10.5826L66.6975 10.7148L67.3089 10.8313L67.9163 10.9314L68.5203 11.0148L69.1216 11.081L69.7208 11.1298L70.3186 11.1608L70.9155 11.174L71.5123 11.1694L72.1096 11.1468L72.708 11.1065L73.3082 11.0486L73.9109 10.9734L74.5166 10.8812L75.126 10.7725L75.7396 10.6477L76.3581 10.5076L76.9818 10.3527L77.6114 10.184L78.2473 10.0023L78.8898 9.80857L79.5394 9.60398L80.1963 9.38974L80.8608 9.16716L81.5331 8.93768L82.2131 8.70286L82.9011 8.46434L83.5968 8.22391L84.3001 7.98343L85.0108 7.7449L85.7285 7.51038L86.4527 7.28205L87.1828 7.06216L87.9183 6.85303L88.6582 6.65701L89.4018 6.47652L90.1478 6.31398L90.8953 6.17181L91.6431 6.05239L92.3897 5.95808L93.1339 5.89112L93.8741 5.85368L94.6089 5.84777L95.3366 5.87524L96.0558 5.93778L96.7648 6.03682L97.462 6.17357L98.146 6.34899L98.8153 6.56374L99.4684 6.81819L100.104 7.11242L100.721 7.44617L101.319 7.8189L101.896 8.22975L102.452 8.67755L102.986 9.16086L103.498 9.67799L103.987 10.227L104.455 10.8057L104.9 11.4117L105.324 12.0425L105.727 12.6956L106.11 13.368L106.474 14.0571L106.82 14.76L107.148 15.4738L107.462 16.1957L107.761 16.9229L108.048 17.6527L108.324 18.3823L108.592 19.1094L108.853 19.8313L109.108 20.5459L109.361 21.2508L109.612 21.9439L109.865 22.6234L110.12 23.2874L110.381 23.9341L110.65 24.562L110.928 25.1696L111.218 25.7554L111.523 26.3182L111.844 26.8567L112.184 27.3697L112.546 27.8562L112.933 28.315L113.347 28.7451L113.79 29.1466L114.261 29.5222L114.76 29.8744L115.284 30.2061L115.833 30.5196L116.407 30.8175L117.002 31.102L117.619 31.3756L118.255 31.6405L118.91 31.8988L119.581 32.1528L120.267 32.4046L120.965 32.6563L121.675 32.91L122.393 33.1675L123.117 33.431L123.846 33.7023L124.576 33.9832L125.305 34.2755L126.03 34.5808L126.749 34.9008L127.458 35.2368L128.155 35.5903L128.837 35.9623L129.501 36.354L130.145 36.7663L130.765 37.1997L131.359 37.655L131.925 38.1323L132.46 38.6319L132.963 39.1537L133.43 39.6974L133.862 40.2627L134.256 40.8488L134.612 41.4551L134.928 42.0806L135.205 42.7242L135.441 43.3846L135.639 44.0606L135.797 44.7506L135.917 45.4533L136 46.167L136.046 46.8901L136.059 47.6212L136.039 48.3586L135.988 49.1007L135.909 49.8462L135.803 50.5935L135.673 51.3413L135.522 52.0883L135.351 52.8334L135.163 53.5755L134.961 54.3135L134.747 55.0467L134.523 55.7744L134.292 56.4958L134.055 57.2104L133.816 57.9179L133.575 58.6179L133.335 59.3101L133.098 59.9946L132.865 60.6712L132.639 61.34L132.42 62.0011L132.21 62.6548L132.01 63.3012L131.821 63.9408L131.645 64.5738L131.482 65.2008L131.334 65.8221L131.2 66.4384L131.083 67.0501L130.981 67.6577L130.897 68.2621L130.829 68.8636L130.779 69.4629L130.746 70.0608L130.732 70.6577L130.731 70.8478Z" stroke="#FDCA4D" stroke-width="10.8807"/>
<path d="M85.5451 35.1838C85.471 35.8944 85.3073 36.5168 85.0541 37.051C84.8087 37.5787 84.4911 38.0272 84.1012 38.3964C83.712 38.7584 83.2672 39.0571 82.7666 39.2927C82.2668 39.521 81.7358 39.6957 81.1736 39.8168C80.612 39.9306 80.0275 39.9807 79.42 39.967C78.819 39.9612 78.2167 39.9298 77.6133 39.873C76.5213 39.7703 75.5663 39.6369 74.7482 39.4729C74.2795 39.3708 73.5867 39.1462 72.67 38.799C71.9209 38.5183 71.338 38.2424 70.9215 37.9712L71.3221 33.7147L74.5657 34.02C74.8906 34.5724 75.275 34.9927 75.719 35.2809C76.1701 35.5698 76.6436 35.7376 77.1393 35.7842C77.2686 35.7964 77.4133 35.7991 77.5733 35.7925C77.7334 35.7858 77.8864 35.7386 78.0324 35.6508C78.1856 35.5638 78.319 35.4169 78.4327 35.2102C78.5535 35.0041 78.6322 34.7071 78.6687 34.3192C78.0563 34.2036 77.4498 34.0631 76.8493 33.8979C76.256 33.7333 75.6916 33.5316 75.156 33.2928C74.6204 33.0539 74.1251 32.7718 73.6701 32.4463C73.223 32.1143 72.8424 31.7306 72.5283 31.2951C72.2213 30.8604 71.9926 30.3641 71.8422 29.8064C71.6996 29.2421 71.6618 28.6044 71.7287 27.8932C71.8004 27.1317 71.9638 26.473 72.2191 25.9172C72.475 25.3543 72.795 24.8807 73.1791 24.4964C73.571 24.1057 74.0133 23.7958 74.5059 23.5668C75.0064 23.3312 75.5339 23.1562 76.0882 23.0417C76.6498 22.9278 77.2235 22.8768 77.8095 22.8884C78.4026 22.9008 78.9902 22.9343 79.5721 22.9891C80.4198 23.0689 81.1783 23.1729 81.8475 23.3011C82.5245 23.4228 83.13 23.574 83.6638 23.7547C84.1976 23.9354 84.6651 24.128 85.0662 24.3325C85.4752 24.5304 85.8378 24.7204 86.1541 24.9023L85.7585 29.105L82.5149 28.7997C82.1972 28.248 81.8236 27.8287 81.394 27.5418C80.9715 27.2556 80.5233 27.0902 80.0491 27.0456C79.9198 27.0334 79.7708 27.0375 79.6022 27.0579C79.4343 27.0711 79.2727 27.132 79.1175 27.2406C78.963 27.342 78.8247 27.5029 78.7025 27.7233C78.5809 27.9366 78.5019 28.2372 78.4654 28.6251C79.7185 28.7865 80.812 29.0272 81.7459 29.347C82.6797 29.6668 83.4408 30.09 84.029 30.6164C84.6251 31.1364 85.0507 31.7744 85.3056 32.5304C85.5613 33.2792 85.6411 34.1637 85.5451 35.1838Z" fill="#BF561C"/>
<path d="M95.4139 27.601L93.8752 32.9248L92.1283 32.4199C92.0546 32.2334 91.9645 32.0383 91.858 31.8348C91.7516 31.6313 91.6228 31.4401 91.4717 31.2612C91.3226 31.0754 91.1482 30.9124 90.9484 30.772C90.7506 30.6247 90.5235 30.514 90.267 30.4399L88.1844 37.6458L89.4402 38.2904L88.1359 42.8032L78.8192 40.1105L80.1235 35.5977L81.5296 35.7224L83.6122 28.5165C83.3557 28.4424 83.1045 28.4149 82.8587 28.4339C82.6148 28.4461 82.3802 28.4909 82.155 28.5686C81.9318 28.6392 81.7209 28.7323 81.5223 28.8476C81.3237 28.963 81.1434 29.0799 80.9815 29.1983L79.2346 28.6935L80.7733 23.3696L95.4139 27.601Z" fill="#BF561C"/>
<path d="M91.8292 41.1646C92.2668 41.3866 92.6966 41.5602 93.1186 41.6852C93.5439 41.8039 93.9468 41.8869 94.3273 41.9343C94.7143 41.985 95.0772 42.0032 95.4162 41.9891C95.7551 41.9749 96.0618 41.9444 96.3364 41.8976L97.9484 42.7154L95.4413 47.6575L82.5356 41.1105L84.6608 36.9213L86.0188 37.3068L89.0352 31.3607L87.9221 30.4926L90.0571 26.284L102.963 32.831L100.456 37.7732L98.9015 36.9848C98.7674 36.7388 98.6027 36.4732 98.4075 36.1881C98.2123 35.903 97.9768 35.6176 97.7009 35.332C97.4348 35.0433 97.1266 34.7656 96.7764 34.4989C96.4295 34.2258 96.034 33.9766 95.59 33.7514L94.2531 36.3866L97.4672 37.2282L95.7338 40.6452L93.1563 38.5488L91.8292 41.1646Z" fill="#BF561C"/>
<path d="M97.0493 40.6269L95.0604 43.0552L95.9676 44.134L92.9841 47.7764L87.6251 43.387L90.6017 39.7529L91.845 40.4215L96.0835 35.2467L95.1832 34.1595L98.1598 30.5255L104.591 35.7928L103.48 45.8942L105.716 43.1645L104.829 42.0605L107.806 38.4265L113.165 42.8159L110.188 46.4499L108.945 45.7814L104.707 50.9561L105.607 52.0434L102.63 55.6774L96.1911 50.4032L97.0493 40.6269Z" fill="#BF561C"/>
<path d="M108.092 59.786C107.491 60.1726 106.903 60.4342 106.328 60.5708C105.763 60.7095 105.214 60.7422 104.682 60.669C104.156 60.5918 103.645 60.4316 103.148 60.1884C102.657 59.9413 102.189 59.6363 101.743 59.2733C101.303 58.9064 100.898 58.4817 100.529 57.9991C100.157 57.5266 99.805 57.0371 99.4718 56.5308C98.8689 55.6145 98.3756 54.786 97.9918 54.0452C97.7783 53.6156 97.5202 52.9346 97.2176 52.0022C96.968 51.2421 96.8187 50.6148 96.7697 50.1202L100.341 47.7702L102.132 50.4918C101.904 51.0908 101.817 51.6537 101.87 52.1803C101.926 52.713 102.092 53.1874 102.365 53.6033C102.437 53.7118 102.525 53.8264 102.631 53.9471C102.736 54.0678 102.868 54.1577 103.028 54.2167C103.192 54.2817 103.39 54.2939 103.622 54.2533C103.859 54.2187 104.14 54.0943 104.465 53.8801C104.172 53.33 103.902 52.769 103.656 52.1971C103.413 51.6313 103.217 51.0647 103.069 50.4974C102.92 49.9302 102.83 49.3672 102.8 48.8087C102.779 48.2522 102.84 47.7152 102.983 47.1977C103.131 46.6863 103.375 46.1974 103.716 45.7312C104.067 45.267 104.541 44.8385 105.138 44.4459C105.776 44.0254 106.393 43.741 106.986 43.5924C107.585 43.44 108.155 43.3934 108.695 43.4527C109.245 43.514 109.763 43.6653 110.25 43.9064C110.747 44.1495 111.214 44.4515 111.65 44.8124C112.09 45.1793 112.488 45.595 112.846 46.0594C113.207 46.5299 113.549 47.0093 113.87 47.4976C114.338 48.2089 114.731 48.8657 115.05 49.468C115.378 50.0724 115.639 50.6394 115.832 51.1689C116.025 51.6984 116.167 52.1836 116.259 52.6244C116.36 53.0673 116.439 53.4691 116.495 53.8297L112.968 56.1499L111.177 53.4283C111.409 52.8353 111.503 52.2815 111.458 51.7669C111.417 51.2583 111.265 50.8051 111.003 50.4072C110.932 50.2987 110.836 50.1851 110.714 50.0663C110.599 49.9435 110.45 49.8555 110.269 49.8024C110.093 49.7453 109.881 49.738 109.632 49.7806C109.39 49.8191 109.106 49.9455 108.78 50.1597C109.438 51.2384 109.935 52.242 110.269 53.1707C110.604 54.0993 110.75 54.9578 110.707 55.746C110.674 56.5364 110.443 57.2675 110.012 57.9393C109.588 58.6072 108.948 59.2227 108.092 59.786Z" fill="#BF561C"/>
<path d="M120.187 62.7606L115.07 64.8893L114.372 63.2104C114.471 63.0362 114.567 62.8439 114.659 62.6336C114.752 62.4232 114.82 62.2032 114.865 61.9734C114.917 61.7409 114.935 61.5028 114.92 61.2591C114.911 61.0126 114.855 60.7662 114.753 60.5197L107.828 63.4008L108.11 64.7839L103.773 66.5883L100.048 57.6342L104.385 55.8299L105.167 57.0051L112.092 54.1239C111.99 53.8774 111.854 53.6642 111.685 53.4843C111.523 53.3016 111.342 53.1466 111.14 53.0194C110.945 52.8894 110.741 52.783 110.527 52.7002C110.313 52.6173 110.109 52.5498 109.915 52.4975L109.216 50.8186L114.333 48.69L120.187 62.7606Z" fill="#BF561C"/>
<path d="M107.361 68.4551C107.461 68.9354 107.594 69.3794 107.76 69.787C107.933 70.1931 108.12 70.5595 108.321 70.8862C108.523 71.2199 108.736 71.5146 108.959 71.7703C109.182 72.026 109.397 72.2464 109.605 72.4315L109.975 74.201L104.55 75.3328L101.594 61.1665L106.193 60.2071L106.74 61.5081L113.267 60.1464L113.249 58.7349L117.869 57.7711L120.824 71.9374L115.399 73.0692L115.044 71.3633C115.152 71.1048 115.256 70.8103 115.357 70.4798C115.457 70.1492 115.533 69.787 115.583 69.3931C115.642 69.0049 115.667 68.5908 115.656 68.1507C115.652 67.7092 115.6 67.2448 115.498 66.7574L112.605 67.3608L113.957 70.3958L110.206 71.1784L110.232 67.856L107.361 68.4551Z" fill="#BF561C"/>
<path d="M111.045 72.2201L107.906 72.1869L107.631 73.5695L102.923 73.5197L102.997 66.5929L107.694 66.6426L107.95 68.0308L114.639 68.1016L114.924 66.7191L119.621 66.7688L119.533 75.081L110.957 80.5323L114.485 80.5696L114.792 79.1873L119.489 79.237L119.416 86.1638L114.719 86.1141L114.463 84.7259L107.774 84.6551L107.489 86.0376L102.791 85.9879L102.88 77.6649L111.045 72.2201Z" fill="#BF561C"/>
<path d="M102.977 92.8148C102.3 92.5865 101.729 92.2902 101.263 91.9259C100.802 91.5706 100.434 91.1623 100.16 90.7009C99.8921 90.2417 99.6983 89.7421 99.5784 89.2021C99.4653 88.6643 99.4114 88.1079 99.4168 87.5328C99.429 86.96 99.5084 86.3787 99.6552 85.789C99.7928 85.204 99.9555 84.6233 100.143 84.047C100.483 83.0043 100.823 82.1018 101.163 81.3397C101.365 80.9048 101.736 80.2783 102.276 79.4601C102.715 78.7909 103.112 78.2829 103.468 77.9359L107.533 79.2612L106.523 82.3587C105.912 82.5544 105.418 82.8371 105.039 83.207C104.659 83.5838 104.391 84.0088 104.237 84.4822C104.196 84.6057 104.162 84.7462 104.133 84.9039C104.105 85.0615 104.117 85.2212 104.171 85.3828C104.222 85.5513 104.336 85.7137 104.513 85.87C104.687 86.0332 104.96 86.1751 105.33 86.2959C105.577 85.7238 105.847 85.163 106.141 84.6134C106.431 84.0707 106.752 83.5643 107.103 83.0942C107.453 82.6241 107.837 82.2028 108.255 81.8304C108.677 81.4671 109.135 81.18 109.628 80.9691C110.12 80.7651 110.654 80.6509 111.231 80.6265C111.813 80.6113 112.444 80.7144 113.123 80.9358C113.85 81.1729 114.457 81.477 114.943 81.848C115.436 82.2213 115.828 82.6374 116.118 83.0965C116.414 83.5646 116.619 84.0641 116.734 84.595C116.854 85.135 116.909 85.688 116.899 86.254C116.887 86.8268 116.811 87.3978 116.671 87.9669C116.528 88.5429 116.367 89.1087 116.186 89.6644C115.922 90.4739 115.654 91.1911 115.382 91.8158C115.114 92.4497 114.834 93.0072 114.54 93.4883C114.247 93.9694 113.956 94.3832 113.669 94.7297C113.386 95.0852 113.121 95.3973 112.874 95.6659L108.861 94.3574L109.871 91.2599C110.479 91.0711 110.97 90.7986 111.344 90.4425C111.716 90.0932 111.976 89.6921 112.123 89.2393C112.164 89.1159 112.192 88.9696 112.209 88.8007C112.233 88.6339 112.209 88.4629 112.138 88.2877C112.073 88.1147 111.946 87.9444 111.758 87.7768C111.576 87.6114 111.3 87.4683 110.93 87.3475C110.497 88.5347 110.023 89.5487 109.506 90.3895C108.989 91.2304 108.409 91.88 107.766 92.3383C107.128 92.8057 106.412 93.0808 105.618 93.1636C104.832 93.2487 103.951 93.1324 102.977 92.8148Z" fill="#BF561C"/>
<path d="M108.197 104.109L103.342 101.437L104.219 99.8438C104.417 99.8129 104.627 99.7679 104.849 99.7089C105.071 99.6499 105.286 99.5663 105.493 99.4583C105.707 99.3537 105.905 99.2194 106.086 99.0554C106.273 98.8949 106.431 98.6977 106.56 98.4638L99.9885 94.8467L99.0834 95.9299L94.9682 93.6647L99.6448 85.1688L103.76 87.434L103.329 88.7782L109.9 92.3952C110.029 92.1613 110.111 91.9224 110.146 91.6783C110.188 91.4378 110.196 91.1991 110.17 90.9623C110.15 90.729 110.106 90.5028 110.037 90.2837C109.968 90.0646 109.894 89.863 109.814 89.679L110.691 88.086L115.545 90.7583L108.197 104.109Z" fill="#BF561C"/>
<path d="M95.7514 97.6527C95.4391 98.0312 95.1758 98.4127 94.9615 98.7971C94.7528 99.1862 94.5837 99.5612 94.4543 99.9222C94.3203 100.289 94.2232 100.639 94.1629 100.973C94.1027 101.307 94.0654 101.613 94.051 101.891L92.9007 103.285L88.626 99.7583L97.8353 88.5956L101.459 91.585L100.786 92.8259L105.929 97.0689L107.019 96.1724L110.66 99.1756L101.45 110.338L97.1755 106.812L98.2845 105.467C98.5539 105.39 98.849 105.288 99.1699 105.16C99.4908 105.031 99.8207 104.864 100.16 104.657C100.5 104.461 100.838 104.221 101.175 103.937C101.517 103.658 101.847 103.327 102.163 102.943L99.8842 101.062L98.3604 104.015L95.4049 101.576L98.014 99.5194L95.7514 97.6527Z" fill="#BF561C"/>
<path d="M95.1343 102.875L93.197 100.405L91.9466 101.056L89.0406 97.3513L94.4909 93.0758L97.3902 96.7718L96.4672 97.8398L100.596 103.103L101.853 102.461L104.752 106.157L98.2117 111.287L88.594 108.005L90.7718 110.782L92.0422 110.156L94.9415 113.852L89.4912 118.128L86.5919 114.432L87.515 113.364L83.3864 108.101L82.1294 108.743L79.2301 105.047L85.7789 99.9099L95.1343 102.875Z" fill="#BF561C"/>
<path d="M74.0423 109.447C73.7969 108.776 73.6706 108.145 73.6636 107.553C73.6523 106.972 73.7407 106.429 73.9289 105.926C74.1197 105.43 74.3882 104.966 74.7344 104.535C75.0832 104.11 75.4836 103.72 75.9356 103.365C76.3901 103.016 76.8933 102.714 77.4451 102.46C77.9877 102.201 78.5425 101.965 79.1096 101.751C80.1358 101.364 81.0524 101.064 81.8594 100.852C82.3253 100.738 83.0464 100.636 84.0225 100.545C84.8187 100.469 85.4635 100.46 85.9569 100.521L87.4659 104.521L84.4177 105.671C83.8832 105.318 83.3533 105.109 82.8279 105.045C82.2957 104.983 81.7967 105.041 81.3308 105.216C81.2093 105.262 81.0781 105.323 80.9372 105.399C80.7963 105.476 80.6796 105.585 80.5869 105.728C80.4876 105.874 80.4322 106.064 80.4209 106.3C80.4027 106.538 80.4625 106.839 80.6 107.204C81.201 107.039 81.8075 106.899 82.4196 106.784C83.0249 106.671 83.6206 106.604 84.2067 106.584C84.7927 106.563 85.3616 106.599 85.9133 106.692C86.4608 106.794 86.9712 106.972 87.4447 107.225C87.9114 107.481 88.3347 107.826 88.7148 108.261C89.0907 108.705 89.4047 109.262 89.6568 109.93C89.9268 110.646 90.0691 111.309 90.0838 111.921C90.1011 112.539 90.0216 113.105 89.8452 113.619C89.6647 114.142 89.4034 114.615 89.0613 115.037C88.7151 115.468 88.3181 115.857 87.8703 116.203C87.4158 116.552 86.9227 116.85 86.3911 117.097C85.8528 117.346 85.3102 117.574 84.7633 117.78C83.9667 118.081 83.2396 118.32 82.582 118.499C81.9203 118.687 81.3099 118.817 80.751 118.889C80.192 118.961 79.6875 118.993 79.2373 118.986C78.783 118.987 78.3737 118.976 78.0097 118.951L76.5197 115.002L79.568 113.852C80.0957 114.208 80.6155 114.421 81.1274 114.49C81.6326 114.561 82.108 114.513 82.5536 114.345C82.6751 114.299 82.8071 114.23 82.9497 114.138C83.0948 114.052 83.2132 113.927 83.3049 113.761C83.3992 113.602 83.4528 113.397 83.4659 113.145C83.4814 112.9 83.4204 112.595 83.2829 112.231C82.0861 112.636 80.998 112.9 80.0186 113.022C79.0392 113.145 78.1696 113.099 77.4099 112.884C76.6461 112.679 75.9836 112.293 75.4225 111.725C74.864 111.165 74.4039 110.405 74.0423 109.447Z" fill="#BF561C"/>
<path d="M68.4879 120.58L67.5377 115.121L69.3291 114.809C69.4772 114.944 69.6436 115.08 69.8285 115.216C70.0134 115.353 70.2129 115.468 70.4271 115.563C70.6425 115.664 70.8708 115.734 71.1119 115.773C71.3542 115.819 71.6069 115.819 71.87 115.773L70.5839 108.383L69.1725 108.354L68.3671 103.726L77.9215 102.063L78.727 106.691L77.4084 107.195L78.6945 114.585C78.9576 114.539 79.1954 114.454 79.4081 114.329C79.6219 114.211 79.8131 114.068 79.9815 113.9C80.1512 113.738 80.3 113.562 80.4279 113.372C80.5559 113.181 80.6667 112.997 80.7603 112.819L82.5517 112.508L83.5019 117.967L68.4879 120.58Z" fill="#BF561C"/>
<path d="M65.6975 106.833C65.2069 106.827 64.7446 106.86 64.3105 106.933C63.8764 107.013 63.478 107.116 63.1154 107.241C62.7456 107.365 62.4117 107.509 62.1135 107.67C61.8153 107.832 61.5532 107.995 61.3272 108.157L59.5199 108.132L59.5982 102.591L74.068 102.795L74.0016 107.492L72.6125 107.743L72.5183 114.41L73.8998 114.7L73.8331 119.419L59.3632 119.214L59.4415 113.673L61.184 113.698C61.4126 113.86 61.6773 114.026 61.978 114.196C62.2787 114.366 62.6157 114.519 62.989 114.654C63.3551 114.796 63.754 114.91 64.1858 114.996C64.6174 115.088 65.0822 115.138 65.58 115.145L65.6218 112.191L62.3651 112.848L62.4192 109.017L65.6561 109.766L65.6975 106.833Z" fill="#BF561C"/>
<path d="M61.2329 109.617L61.951 106.562L60.6617 105.992L61.7389 101.408L68.4824 102.993L67.4077 107.566L65.9971 107.513L64.4667 114.024L65.7535 114.605L64.6788 119.178L56.5867 117.276L53.1407 107.716L52.3335 111.151L53.6153 111.752L52.5406 116.325L45.7972 114.74L46.8719 110.167L48.2825 110.221L49.8128 103.709L48.526 103.129L49.6007 98.5558L57.7034 100.46L61.2329 109.617Z" fill="#BF561C"/>
<path d="M42.9448 97.2278C43.3163 96.6176 43.7309 96.1254 44.1886 95.7512C44.6365 95.3795 45.1156 95.1105 45.6261 94.944C46.1329 94.7837 46.6629 94.7044 47.2161 94.7061C47.7655 94.714 48.3202 94.7837 48.88 94.9153C49.4362 95.0531 49.9858 95.2583 50.5288 95.531C51.0693 95.7939 51.6001 96.0803 52.121 96.3902C53.0635 96.951 53.8692 97.4808 54.5381 97.9795C54.9179 98.2726 55.4475 98.7725 56.127 99.4791C56.6836 100.054 57.0919 100.553 57.3521 100.976L55.166 104.65L52.3662 102.985C52.3094 102.346 52.1422 101.802 51.8645 101.351C51.5807 100.897 51.2249 100.542 50.797 100.288C50.6854 100.221 50.5558 100.157 50.4083 100.094C50.2608 100.032 50.1023 100.009 49.9328 100.025C49.7572 100.038 49.5737 100.114 49.3824 100.252C49.1849 100.386 48.9865 100.621 48.7873 100.956C49.291 101.323 49.7788 101.71 50.2506 102.116C50.7161 102.519 51.1397 102.943 51.5212 103.389C51.9028 103.834 52.2294 104.301 52.5009 104.79C52.7626 105.282 52.9421 105.792 53.0393 106.32C53.1304 106.844 53.1243 107.39 53.0212 107.959C52.9083 108.53 52.6691 109.122 52.3039 109.736C51.9128 110.393 51.4828 110.918 51.014 111.311C50.5415 111.71 50.0494 112.001 49.5378 112.184C49.0162 112.369 48.4838 112.459 47.9405 112.455C47.3874 112.453 46.8358 112.385 46.2859 112.251C45.7297 112.113 45.1894 111.914 44.665 111.652C44.1344 111.387 43.6179 111.105 43.1156 110.806C42.3839 110.37 41.7431 109.951 41.1934 109.549C40.6338 109.149 40.1516 108.753 39.7467 108.36C39.3419 107.968 39.002 107.594 38.7272 107.237C38.4425 106.883 38.1963 106.556 37.9885 106.256L40.147 102.629L42.9468 104.295C42.9974 104.929 43.1553 105.468 43.4205 105.912C43.6795 106.351 44.0137 106.693 44.423 106.936C44.5346 107.003 44.6709 107.063 44.832 107.117C44.9894 107.177 45.1615 107.191 45.3482 107.159C45.5313 107.134 45.7252 107.048 45.9301 106.901C46.1313 106.76 46.3315 106.523 46.5308 106.188C45.4677 105.505 44.5828 104.819 43.8762 104.13C43.1695 103.441 42.6632 102.732 42.3573 102.004C42.0415 101.279 41.9305 100.52 42.0241 99.7279C42.114 98.9417 42.4209 98.1084 42.9448 97.2278Z" fill="#BF561C"/>
<path d="M30.7612 99.8544L34.4288 95.6998L35.792 96.9032C35.7789 97.1034 35.7769 97.3183 35.7861 97.5478C35.7953 97.7772 35.8299 98.0051 35.89 98.2314C35.9453 98.4632 36.0333 98.6852 36.1538 98.8975C36.2696 99.1152 36.4276 99.3124 36.6278 99.4891L41.5918 93.8659L40.7323 92.7461L43.8411 89.2245L51.1115 95.6427L48.0027 99.1643L46.785 98.4503L41.821 104.074C42.0211 104.25 42.2364 104.382 42.4668 104.47C42.6924 104.564 42.9236 104.623 43.1604 104.65C43.3925 104.681 43.6229 104.687 43.8517 104.668C44.0806 104.649 44.2935 104.62 44.4905 104.582L45.8537 105.786L42.1862 109.94L30.7612 99.8544Z" fill="#BF561C"/>
<path d="M39.7663 89.1156C39.4648 88.7285 39.1497 88.3885 38.8211 88.0957C38.4868 87.8073 38.1575 87.5607 37.8334 87.3558C37.5048 87.1453 37.1841 86.9743 36.8714 86.8428C36.5587 86.7114 36.2682 86.6084 35.9998 86.5339L34.8892 85.1077L39.2615 81.7028L48.1529 93.1204L44.4467 96.0066L43.3819 95.0798L38.1215 99.1763L38.7592 100.436L35.0359 103.335L26.1445 91.9176L30.5169 88.5127L31.5875 89.8876C31.6042 90.1673 31.6401 90.4777 31.6954 90.8188C31.7506 91.1599 31.8423 91.5183 31.9704 91.8942C32.0883 92.2687 32.249 92.6512 32.4524 93.0416C32.6501 93.4364 32.9019 93.8302 33.2078 94.223L35.5391 92.4075L32.9889 90.2778L36.012 87.9236L37.452 90.9178L39.7663 89.1156Z" fill="#BF561C"/>
<path d="M34.8119 87.3811L37.6457 86.0312L37.2843 84.6687L41.535 82.6438L44.5142 88.8976L40.2733 90.9178L39.4332 89.7834L33.3943 92.6602L33.7459 94.0274L29.505 96.0476L25.93 88.543L31.2369 79.8765L28.0514 81.394L28.3834 82.7705L24.1425 84.7908L21.1633 78.5369L25.4042 76.5167L26.2443 77.6511L32.2831 74.7743L31.9316 73.4072L36.1724 71.3869L39.7521 78.9012L34.8119 87.3811Z" fill="#BF561C"/>
<path d="M33.046 65.3829C33.7544 65.291 34.3978 65.3066 34.976 65.4297C35.5462 65.5467 36.0558 65.7522 36.505 66.0464C36.947 66.3416 37.3404 66.7055 37.6851 67.1381C38.0227 67.5718 38.3152 68.0481 38.5627 68.5673C38.8031 69.0874 38.9867 69.6446 39.1135 70.2388C39.2466 70.825 39.3551 71.4182 39.4391 72.0185C39.5911 73.1047 39.6817 74.0647 39.7109 74.8985C39.7198 75.3781 39.6611 76.104 39.5348 77.0762C39.4346 77.8698 39.3006 78.5006 39.1329 78.9685L34.8988 79.561L34.4473 76.3345C34.9098 75.8909 35.2301 75.4199 35.4081 74.9214C35.585 74.4157 35.639 73.9164 35.57 73.4233C35.552 73.2946 35.5213 73.1532 35.4779 72.999C35.4344 72.8448 35.3532 72.7068 35.2341 72.585C35.1141 72.4561 34.9404 72.3602 34.713 72.2973C34.4846 72.2272 34.1775 72.2192 33.7916 72.2732C33.8204 72.8958 33.8237 73.5183 33.8015 74.1407C33.7783 74.756 33.7123 75.3517 33.6035 75.928C33.4947 76.5043 33.3345 77.0513 33.1228 77.5691C32.9029 78.0807 32.6174 78.5396 32.2662 78.9458C31.914 79.3448 31.484 79.6819 30.976 79.957C30.4599 80.2259 29.8481 80.4099 29.1406 80.5089C28.3831 80.6149 27.7045 80.6078 27.1049 80.4877C26.498 80.3686 25.9634 80.1666 25.5009 79.8816C25.0303 79.5904 24.6267 79.2316 24.2901 78.8051C23.9454 78.3724 23.6534 77.8996 23.414 77.3867C23.1737 76.8665 22.9915 76.3201 22.8677 75.7472C22.7428 75.1672 22.6398 74.5878 22.5588 74.009C22.4408 73.1657 22.367 72.4037 22.3373 71.723C22.2995 71.0361 22.3069 70.4121 22.3595 69.851C22.4122 69.2899 22.4916 68.7906 22.598 68.3531C22.6962 67.9095 22.7974 67.5128 22.9014 67.1631L27.082 66.5781L27.5334 69.8046C27.0699 70.2411 26.7482 70.7014 26.5682 71.1856C26.3872 71.6627 26.3298 72.137 26.3958 72.6087C26.4138 72.7373 26.4521 72.8813 26.5108 73.0407C26.5624 73.201 26.659 73.3442 26.8005 73.4701C26.9348 73.597 27.1233 73.6945 27.366 73.7625C27.6015 73.8316 27.9122 73.8391 28.2981 73.7851C28.166 72.5285 28.1478 71.409 28.2434 70.4266C28.3391 69.4441 28.5752 68.606 28.9517 67.9121C29.3201 67.2121 29.8426 66.6508 30.5194 66.2282C31.189 65.8067 32.0312 65.5249 33.046 65.3829Z" fill="#BF561C"/>
<path d="M23.3782 57.4377L28.9136 57.7019L28.8269 59.5182C28.6625 59.6332 28.4936 59.766 28.3203 59.9167C28.1469 60.0673 27.9907 60.2369 27.8517 60.4253C27.7055 60.6133 27.5872 60.8208 27.4969 61.0477C27.3994 61.2742 27.3443 61.5208 27.3316 61.7875L34.8239 62.1451L35.1602 60.7741L39.8523 60.9981L39.3899 70.6851L34.6978 70.4611L34.4936 69.0644L27.0013 68.7067C26.9885 68.9734 27.0199 69.2241 27.0954 69.4589C27.1637 69.6933 27.2616 69.9111 27.3893 70.1123C27.5097 70.3131 27.6491 70.4967 27.8073 70.6632C27.9655 70.8297 28.1209 70.978 28.2737 71.1081L28.187 72.9244L22.6515 72.6601L23.3782 57.4377Z" fill="#BF561C"/>
<path d="M37.3906 57.7708C37.5045 57.2935 37.5732 56.8351 37.5966 56.3956C37.6129 55.9544 37.5998 55.5432 37.5573 55.1621C37.5165 54.774 37.4497 54.4168 37.357 54.0905C37.2643 53.7642 37.1632 53.473 37.0537 53.2168L37.4736 51.4587L42.8638 52.746L39.5022 66.8215L34.9332 65.7303L34.9919 64.3199L28.5068 62.7711L27.9218 64.0558L23.3318 62.9596L26.6933 48.8841L32.0835 50.1714L31.6787 51.8664C31.4706 52.0541 31.2507 52.2761 31.0189 52.5323C30.7871 52.7885 30.5644 53.084 30.3509 53.4188C30.1321 53.7449 29.9338 54.1093 29.756 54.5119C29.5712 54.9129 29.421 55.3555 29.3053 55.8398L32.1794 56.5262L32.2494 53.2045L35.9761 54.0945L34.5376 57.0894L37.3906 57.7708Z" fill="#BF561C"/>
<path d="M35.6565 52.8314L38.4787 54.2054L39.3187 53.0735L43.552 55.1345L40.5196 61.3627L36.2961 59.3064L36.6593 57.9423L30.6452 55.0142L29.7954 56.1414L25.5719 54.0851L29.2107 46.6112L39.2954 45.3575L36.1229 43.8129L35.2537 44.9306L31.0302 42.8743L34.0625 36.6461L38.286 38.7024L37.9228 40.0665L43.9369 42.9946L44.7867 41.8674L49.0102 43.9238L45.3666 51.4073L35.6565 52.8314Z" fill="#BF561C"/>
<path d="M51.7543 37.683C52.2688 38.1786 52.6588 38.6905 52.9242 39.2188C53.1893 39.7369 53.3474 40.2632 53.3985 40.7977C53.4444 41.3273 53.4063 41.8618 53.284 42.4013C53.1565 42.9358 52.9676 43.4619 52.7171 43.9796C52.4613 44.4923 52.1412 44.984 51.7566 45.4545C51.3823 45.9247 50.987 46.3802 50.571 46.8209C49.8181 47.6186 49.1254 48.2894 48.4929 48.8334C48.124 49.1401 47.5207 49.548 46.6829 50.0571C46.0008 50.475 45.4247 50.7647 44.9546 50.9263L41.8455 47.9917L44.0818 45.6224C44.7172 45.7062 45.285 45.6617 45.7854 45.489C46.2907 45.3111 46.7142 45.0411 47.056 44.679C47.1451 44.5846 47.2363 44.4722 47.3296 44.3419C47.4228 44.2116 47.4797 44.0619 47.5004 43.8929C47.5259 43.7186 47.4922 43.523 47.3992 43.3062C47.3111 43.0842 47.1254 42.8394 46.842 42.5719C46.3741 42.9836 45.8903 43.3753 45.3905 43.747C44.8958 44.1135 44.3895 44.4344 43.8717 44.7097C43.3539 44.985 42.8267 45.2018 42.2902 45.3602C41.7534 45.5084 41.2167 45.5724 40.6802 45.5522C40.1486 45.5267 39.6167 45.4017 39.0844 45.1771C38.5519 44.9424 38.0259 44.5798 37.5064 44.0895C36.9501 43.5645 36.5315 43.0304 36.2504 42.4872C35.964 41.9391 35.7875 41.3955 35.7209 40.8563C35.654 40.307 35.6818 39.7676 35.8044 39.2384C35.9266 38.6989 36.1131 38.1754 36.3639 37.6679C36.6196 37.1552 36.9324 36.6714 37.3021 36.2167C37.6767 35.7566 38.0646 35.3141 38.4658 34.8891C39.0503 34.2699 39.5989 33.7359 40.1117 33.2872C40.6242 32.8284 41.1159 32.4441 41.5868 32.1344C42.0577 31.8248 42.4971 31.5747 42.9051 31.3843C43.3127 31.1837 43.6856 31.0147 44.0236 30.8773L47.0934 33.7748L44.8571 36.144C44.2267 36.055 43.6663 36.0916 43.1758 36.2538C42.6903 36.4108 42.2841 36.6624 41.9572 37.0087C41.8681 37.1032 41.7797 37.2231 41.692 37.3686C41.599 37.5091 41.5477 37.6739 41.5378 37.8631C41.5227 38.0473 41.5644 38.2553 41.663 38.4873C41.7564 38.7143 41.9447 38.9615 42.2281 39.229C43.1263 38.3404 43.9888 37.6264 44.8154 37.087C45.6421 36.5476 46.4439 36.208 47.2209 36.0681C47.9975 35.9181 48.7623 35.9751 49.5151 36.2392C50.2628 36.4984 51.0092 36.9796 51.7543 37.683Z" fill="#BF561C"/>
<path d="M51.8454 25.2126L55.1019 29.6966L53.6306 30.7651C53.4381 30.7088 53.2288 30.6601 53.0029 30.6191C52.7769 30.5781 52.5469 30.5623 52.313 30.5717C52.0748 30.5752 51.8389 30.6127 51.6054 30.6842C51.3677 30.7498 51.1409 30.8611 50.9248 31.018L55.3326 37.0871L56.6126 36.4919L59.373 40.2927L51.5261 45.9917L48.7657 42.1908L49.7277 41.1577L45.3199 35.0886C45.1039 35.2455 44.9279 35.4269 44.7919 35.6326C44.6517 35.8325 44.5431 36.0452 44.466 36.2706C44.3847 36.4902 44.3286 36.7138 44.2977 36.9413C44.2668 37.1689 44.2483 37.383 44.2424 37.5835L42.7711 38.652L39.5145 34.1681L51.8454 25.2126Z" fill="#BF561C"/>
<path d="M60.3588 36.3543C60.8025 36.1449 61.2032 35.9119 61.5609 35.6553C61.9155 35.3922 62.2282 35.1249 62.499 34.8535C62.7763 34.5789 63.0134 34.3035 63.2101 34.0271C63.4068 33.7508 63.5709 33.4898 63.7023 33.2442L65.3369 32.4727L67.7024 37.4843L54.6155 43.6611L52.6105 39.413L53.7479 38.577L50.902 32.5475L49.5336 32.8941L47.5193 28.6265L60.6061 22.4496L62.9715 27.4611L61.3956 28.205C61.1191 28.16 60.8083 28.1271 60.4634 28.1064C60.1185 28.0856 59.7487 28.0966 59.3539 28.1393C58.9626 28.1724 58.5542 28.2455 58.1288 28.3585C57.7003 28.465 57.261 28.6245 56.8107 28.837L58.0719 31.5092L60.7081 29.487L62.3436 32.952L59.1068 33.7017L60.3588 36.3543Z" fill="#BF561C"/>
<path d="M63.132 31.9116L63.8238 34.9733L65.2325 34.9213L66.2702 39.5139L59.5134 41.0407L58.478 36.4587L59.7698 35.8894L58.2954 29.3649L56.8844 29.4063L55.8491 24.8243L63.9572 22.9921L71.2402 30.0795L70.4625 26.6377L69.0467 26.658L68.0113 22.0761L74.7681 20.5493L75.8035 25.1312L74.5118 25.7005L75.9861 32.2251L77.3971 32.1836L78.4325 36.7656L70.3137 38.6002L63.132 31.9116Z" fill="#BF561C"/>
</svg>
