<svg width="267" height="267" viewBox="0 0 267 267" fill="none" xmlns="http://www.w3.org/2000/svg">
<path fill-rule="evenodd" clip-rule="evenodd" d="M250.59 133.523V133.523L250.608 134.694L250.661 135.866L250.748 137.041L250.87 138.22L251.025 139.403L251.214 140.593L251.435 141.791L251.687 142.997L251.969 144.213L252.279 145.439L252.617 146.677L252.979 147.928L253.364 149.191L253.77 150.469L254.195 151.761L254.635 153.069L255.088 154.391L255.551 155.729L256.02 157.082L256.492 158.451L256.963 159.834L257.43 161.232L257.887 162.643L258.332 164.067L258.758 165.502L259.163 166.947L259.541 168.401L259.887 169.861L260.197 171.325L260.465 172.792L260.688 174.259L260.861 175.723L260.979 177.181L261.038 178.631L261.034 180.07L260.964 181.494L260.824 182.9L260.613 184.286L260.326 185.648L259.964 186.983L259.524 188.289L259.006 189.562L258.41 190.801L257.737 192.002L256.988 193.165L256.164 194.287L255.269 195.368L254.304 196.405L253.275 197.399L252.183 198.35L251.035 199.256L249.834 200.12L248.585 200.942L247.295 201.723L245.967 202.465L244.608 203.17L243.224 203.84L241.819 204.477L240.4 205.085L238.971 205.667L237.539 206.224L236.108 206.762L234.684 207.284L233.271 207.792L231.873 208.292L230.495 208.786L229.142 209.28L227.815 209.776L226.521 210.28L225.26 210.795L224.038 211.326L222.856 211.877L221.717 212.452L220.624 213.057L219.579 213.696L218.585 214.374L217.644 215.095L216.757 215.866L215.927 216.692L215.152 217.574L214.426 218.512L213.745 219.502L213.104 220.543L212.496 221.632L211.919 222.767L211.366 223.946L210.834 225.165L210.317 226.422L209.813 227.715L209.316 229.038L208.822 230.39L208.328 231.766L207.829 233.162L207.321 234.575L206.801 235.998L206.265 237.429L205.709 238.861L205.129 240.29L204.524 241.71L203.889 243.116L203.221 244.502L202.52 245.863L201.781 247.194L201.003 248.488L200.184 249.74L199.324 250.945L198.42 252.098L197.473 253.194L196.483 254.229L195.449 255.198L194.372 256.099L193.253 256.929L192.093 257.684L190.895 258.363L189.659 258.965L188.388 259.489L187.085 259.935L185.752 260.304L184.392 260.596L183.008 260.814L181.603 260.959L180.181 261.035L178.743 261.043L177.294 260.989L175.836 260.876L174.373 260.708L172.906 260.488L171.439 260.223L169.974 259.917L168.514 259.573L167.06 259.198L165.614 258.795L164.178 258.37L162.753 257.927L161.341 257.47L159.942 257.004L158.558 256.533L157.188 256.061L155.834 255.592L154.495 255.128L153.171 254.674L151.862 254.233L150.569 253.807L149.29 253.4L148.025 253.012L146.773 252.648L145.534 252.309L144.307 251.996L143.091 251.712L141.884 251.457L140.686 251.234L139.495 251.043L138.311 250.884L137.132 250.76L135.957 250.67L134.785 250.615L133.614 250.594L132.443 250.609L131.271 250.659L130.096 250.743L128.918 250.862L127.735 251.015L126.546 251.201L125.349 251.42L124.144 251.669L122.929 251.949L121.703 252.257L120.466 252.592L119.217 252.953L117.954 253.336L116.677 253.741L115.386 254.164L114.08 254.603L112.759 255.055L111.422 255.517L110.07 255.986L108.703 256.458L107.321 256.929L105.924 257.396L104.514 257.855L103.091 258.301L101.657 258.729L100.213 259.135L98.7596 259.515L97.3 259.864L95.8357 260.177L94.369 260.449L92.9022 260.676L91.438 260.853L89.979 260.975L88.5283 261.039L87.0888 261.04L85.6635 260.976L84.2556 260.842L82.8681 260.636L81.5041 260.356L80.1667 259.999L78.8586 259.566L77.5825 259.054L76.341 258.464L75.1363 257.797L73.9704 257.054L72.8449 256.236L71.7612 255.346L70.7204 254.387L69.7229 253.363L68.7691 252.276L67.8588 251.132L66.9915 249.935L66.1663 248.69L65.382 247.402L64.637 246.077L63.9293 244.721L63.2567 243.338L62.6168 241.935L62.0067 240.517L61.4234 239.089L60.8639 237.657L60.3246 236.226L59.802 234.801L59.2925 233.386L58.7923 231.987L58.2975 230.608L57.8041 229.252L57.3079 227.923L56.805 226.626L56.291 225.363L55.7616 224.137L55.2125 222.952L54.639 221.809L54.0368 220.713L53.4009 219.664L52.7265 218.666L52.0086 217.72L51.2418 216.829L50.4207 215.994L49.5428 215.215L48.6097 214.486L47.6237 213.801L46.5869 213.157L45.5015 212.547L44.3699 211.967L43.1946 211.412L41.9784 210.879L40.7239 210.361L39.4344 209.856L38.113 209.359L36.7634 208.865L35.3892 208.371L33.9944 207.872L32.5833 207.365L31.1604 206.846L29.7303 206.311L28.2981 205.757L26.8688 205.18L25.4477 204.576L24.0404 203.944L22.6522 203.279L21.2889 202.58L19.956 201.844L18.659 201.069L17.4034 200.254L16.1945 199.397L15.0373 198.497L13.9365 197.553L12.8966 196.566L11.9216 195.536L11.015 194.462L10.1798 193.347L9.41854 192.19L8.73316 190.995L8.12497 189.762L7.59468 188.494L7.14242 187.193L6.76767 185.862L6.46937 184.504L6.24587 183.122L6.09499 181.719L6.01407 180.297L6 178.861L6.04929 177.413L6.15808 175.955L6.32226 174.492L6.53747 173.026L6.79917 171.559L7.10271 170.094L7.44335 168.633L7.81635 167.178L8.21695 165.731L8.6405 164.295L9.08238 162.869L9.53815 161.456L10.0035 160.056L10.4742 158.67L10.9464 157.299L11.4163 155.944L11.8802 154.603L12.335 153.278L12.7774 151.969L13.2045 150.674L13.6137 149.394L14.0025 148.128L14.3687 146.875L14.71 145.635L15.0249 144.407L15.3115 143.19L15.5684 141.982L15.7943 140.784L15.9882 139.592L16.1492 138.408L16.2764 137.229L16.3693 136.053L16.4274 134.881L16.4505 133.71L16.4386 132.539L16.3916 131.367L16.3097 130.193L16.1934 129.015L16.0431 127.832L15.8596 126.643L15.6438 125.447L15.3966 124.242L15.1193 123.028L14.8133 121.804L14.4802 120.567L14.1217 119.319L13.7399 118.057L13.337 116.782L12.9152 115.492L12.4774 114.187L12.0262 112.867L11.5648 111.531L11.0965 110.18L10.6246 108.814L10.153 107.433L9.68554 106.038L9.22626 104.629L8.77948 103.207L8.3496 101.774L7.94118 100.33L7.55888 98.8778L7.20741 97.4186L6.89154 95.9546L6.61601 94.4879L6.38549 93.021L6.20457 91.5565L6.07767 90.097L6.009 88.6455L6.00249 87.205L6.06176 85.7784L6.19004 84.369L6.39016 82.9798L6.66443 81.6138L7.01468 80.2741L7.44217 78.9636L7.94758 77.6848L8.53101 76.4405L9.19192 75.2328L9.92918 74.0637L10.7411 72.9349L11.6252 71.8479L12.5788 70.8036L13.5985 69.8026L14.6803 68.8453L15.82 67.9316L17.013 67.0609L18.2543 66.2324L19.5387 65.4449L20.8608 64.6968L22.215 63.9862L23.5958 63.3109L24.9977 62.6684L26.415 62.056L27.8422 61.4708L29.2741 60.9094L30.7054 60.3686L32.1311 59.8449L33.5465 59.3345L34.9469 58.8337L36.3281 58.3386L37.686 57.8452L39.0168 57.3494L40.3168 56.8471L41.5828 56.3342L42.8115 55.8062L44.0002 55.2587L45.1459 54.6874L46.2463 54.0876L47.2989 53.4546L48.3013 52.7834L49.2514 52.0692L50.1472 51.3065L50.9864 50.4899L51.7699 49.6164L52.5028 48.6877L53.1905 47.7058L53.8381 46.6729L54.4506 45.5913L55.0327 44.4633L55.589 43.2914L56.1242 42.0782L56.6427 40.8267L57.1487 39.5399L57.6465 38.2209L58.1404 36.8734L58.6343 35.5009L59.1324 34.1076L59.6385 32.6977L60.1565 31.2755L60.69 29.8458L61.2428 28.4136L61.8181 26.9838L62.4193 25.5619L63.0495 24.1532L63.7114 22.7633L64.4076 21.3978L65.1405 20.0623L65.9121 18.7622L66.7241 17.5031L67.5779 16.2903L68.4744 15.1288L69.4143 14.0233L70.3979 12.9784L71.425 11.9981L72.4951 11.0859L73.6074 10.2449L74.7606 9.47769L75.9532 8.7862L77.1832 8.17182L78.4485 7.63531L79.7467 7.17684L81.0751 6.79595L82.4309 6.49162L83.8113 6.26223L85.213 6.10565L86.6331 6.01927L88.0684 6L89.5159 6.04438L90.9725 6.14858L92.4354 6.30851L93.9016 6.51983L95.3687 6.778L96.834 7.07838L98.2954 7.41624L99.7506 7.78684L101.198 8.18542L102.636 8.60731L104.062 9.04791L105.476 9.50274L106.877 9.96746L108.264 10.4379L109.636 10.9101L110.993 11.3803L112.335 11.8449L113.661 12.3005L114.972 12.744L116.267 13.1725L117.549 13.5832L118.816 13.9737L120.069 14.3417L121.31 14.6851L122.539 15.0022L123.758 15.2911L124.966 15.5504L126.165 15.7789L127.357 15.9754L128.542 16.1389L129.722 16.2688L130.897 16.3645L132.07 16.4254L133.241 16.4513L134.412 16.4422L135.584 16.3979L136.758 16.3188L137.935 16.2052L139.118 16.0577L140.306 15.8768L141.501 15.6635L142.705 15.4187L143.919 15.1438L145.142 14.84L146.377 14.509L147.625 14.1525L148.886 13.7724L150.16 13.3711L151.449 12.9508L152.752 12.5141L154.071 12.0639L155.405 11.6032L156.755 11.1353L158.12 10.6636L159.5 10.1918L160.894 9.7238L162.302 9.26372L163.723 8.81577L165.155 8.38438L166.598 7.97408L168.05 7.58952L169.509 7.23542L170.972 6.91654L172.439 6.63762L173.906 6.40334L175.371 6.21831L176.83 6.08695L178.283 6.01349L179.724 6.00189L181.152 6.0558L182.563 6.17848L183.954 6.37278L185.322 6.64108L186.664 6.98523L187.977 7.40654L189.258 7.90574L190.505 8.48297L191.716 9.13775L192.888 9.86899L194.02 10.675L195.11 11.5535L196.158 12.5017L197.163 13.5163L198.123 14.5933L199.041 15.7286L199.915 16.9176L200.746 18.1552L201.537 19.4363L202.288 20.7556L203.002 22.1075L203.68 23.4865L204.325 24.8869L204.939 26.3031L205.527 27.7298L206.09 29.1615L206.632 30.593L207.157 32.0194L207.668 33.4358L208.17 34.8376L208.665 36.2205L209.159 37.5804L209.654 38.9135L210.156 40.2161L210.668 41.4849L211.194 42.7167L211.74 43.9087L212.309 45.058L212.907 46.1621L213.537 47.2185L214.205 48.225L214.915 49.1794L215.674 50.0796L216.486 50.9234L217.355 51.7111L218.279 52.4479L219.257 53.139L220.286 53.7896L221.364 54.4047L222.488 54.989L223.657 55.5473L224.867 56.084L226.115 56.6036L227.399 57.1105L228.716 57.6088L230.061 58.1028L231.432 58.5966L232.824 59.0942L234.232 59.5996L235.654 60.1165L237.083 60.6487L238.515 61.1998L239.945 61.7732L241.368 62.3723L242.778 63L244.17 63.6593L245.537 64.3527L246.875 65.0826L248.178 65.8511L249.441 66.6598L250.658 67.5102L251.823 68.4033L252.934 69.3398L253.983 70.3199L254.969 71.3435L255.887 72.4103L256.733 73.5192L257.507 74.6693L258.204 75.8587L258.825 77.0859L259.367 78.3485L259.832 79.6441L260.219 80.9703L260.53 82.324L260.765 83.7025L260.927 85.1027L261.019 86.5214L261.043 87.9557L261.004 89.4023L260.904 90.8583L260.749 92.3208L260.541 93.7869L260.287 95.254L259.99 96.7196L259.655 98.1813L259.286 99.6371L258.89 101.085L258.47 102.524L258.03 103.951L257.577 105.366L257.112 106.768L256.642 108.156L256.17 109.53L255.7 110.888L255.235 112.231L254.778 113.558L254.334 114.87L253.904 116.167L253.491 117.45L253.099 118.718L252.729 119.972L252.384 121.214L252.065 122.444L251.774 123.663L251.512 124.872L251.281 126.072L251.082 127.265L250.916 128.45L250.783 129.63L250.685 130.806L250.621 131.979L250.592 133.15L250.59 133.523Z" fill="#D6ABAB"/>
<path d="M250.59 133.523V133.523ZM250.59 133.523L250.608 134.694L250.661 135.866L250.748 137.041L250.87 138.22L251.025 139.403L251.214 140.593L251.435 141.791L251.687 142.997L251.969 144.213L252.279 145.439L252.617 146.677L252.979 147.928L253.364 149.191L253.77 150.469L254.195 151.761L254.635 153.069L255.088 154.391L255.551 155.729L256.02 157.082L256.492 158.451L256.963 159.834L257.43 161.232L257.887 162.643L258.332 164.067L258.758 165.502L259.163 166.947L259.541 168.401L259.887 169.861L260.197 171.325L260.465 172.792L260.688 174.259L260.861 175.723L260.979 177.181L261.038 178.631L261.034 180.07L260.964 181.494L260.824 182.9L260.613 184.286L260.326 185.648L259.964 186.983L259.524 188.289L259.006 189.562L258.41 190.801L257.737 192.002L256.988 193.165L256.164 194.287L255.269 195.368L254.304 196.405L253.275 197.399L252.183 198.35L251.035 199.256L249.834 200.12L248.585 200.942L247.295 201.723L245.967 202.465L244.608 203.17L243.224 203.84L241.819 204.477L240.4 205.085L238.971 205.667L237.539 206.224L236.108 206.762L234.684 207.284L233.271 207.792L231.873 208.292L230.495 208.786L229.142 209.28L227.815 209.776L226.521 210.28L225.26 210.795L224.038 211.326L222.856 211.877L221.717 212.452L220.624 213.057L219.579 213.696L218.585 214.374L217.644 215.095L216.757 215.866L215.927 216.692L215.152 217.574L214.426 218.512L213.745 219.502L213.104 220.543L212.496 221.632L211.919 222.767L211.366 223.946L210.834 225.165L210.317 226.422L209.813 227.715L209.316 229.038L208.822 230.39L208.328 231.766L207.829 233.162L207.321 234.575L206.801 235.998L206.265 237.429L205.709 238.861L205.129 240.29L204.524 241.71L203.889 243.116L203.221 244.502L202.52 245.863L201.781 247.194L201.003 248.488L200.184 249.74L199.324 250.945L198.42 252.098L197.473 253.194L196.483 254.229L195.449 255.198L194.372 256.099L193.253 256.929L192.093 257.684L190.895 258.363L189.659 258.965L188.388 259.489L187.085 259.935L185.752 260.304L184.392 260.596L183.008 260.814L181.603 260.959L180.181 261.035L178.743 261.043L177.294 260.989L175.836 260.876L174.373 260.708L172.906 260.488L171.439 260.223L169.974 259.917L168.514 259.573L167.06 259.198L165.614 258.795L164.178 258.37L162.753 257.927L161.341 257.47L159.942 257.004L158.558 256.533L157.188 256.061L155.834 255.592L154.495 255.128L153.171 254.674L151.862 254.233L150.569 253.807L149.29 253.4L148.025 253.012L146.773 252.648L145.534 252.309L144.307 251.996L143.091 251.712L141.884 251.457L140.686 251.234L139.495 251.043L138.311 250.884L137.132 250.76L135.957 250.67L134.785 250.615L133.614 250.594L132.443 250.609L131.271 250.659L130.096 250.743L128.918 250.862L127.735 251.015L126.546 251.201L125.349 251.42L124.144 251.669L122.929 251.949L121.703 252.257L120.466 252.592L119.217 252.953L117.954 253.336L116.677 253.741L115.386 254.164L114.08 254.603L112.759 255.055L111.422 255.517L110.07 255.986L108.703 256.458L107.321 256.929L105.924 257.396L104.514 257.855L103.091 258.301L101.657 258.729L100.213 259.135L98.7596 259.515L97.3 259.864L95.8357 260.177L94.369 260.449L92.9022 260.676L91.438 260.853L89.979 260.975L88.5283 261.039L87.0888 261.04L85.6635 260.976L84.2556 260.842L82.8681 260.636L81.5041 260.356L80.1667 259.999L78.8586 259.566L77.5825 259.054L76.341 258.464L75.1363 257.797L73.9704 257.054L72.8449 256.236L71.7612 255.346L70.7204 254.387L69.7229 253.363L68.7691 252.276L67.8588 251.132L66.9915 249.935L66.1663 248.69L65.382 247.402L64.637 246.077L63.9293 244.721L63.2567 243.338L62.6168 241.935L62.0067 240.517L61.4234 239.089L60.8639 237.657L60.3246 236.226L59.802 234.801L59.2925 233.386L58.7923 231.987L58.2975 230.608L57.8041 229.252L57.3079 227.923L56.805 226.626L56.291 225.363L55.7616 224.137L55.2125 222.952L54.639 221.809L54.0368 220.713L53.4009 219.664L52.7265 218.666L52.0086 217.72L51.2418 216.829L50.4207 215.994L49.5428 215.215L48.6097 214.486L47.6237 213.801L46.5869 213.157L45.5015 212.547L44.3699 211.967L43.1946 211.412L41.9784 210.879L40.7239 210.361L39.4344 209.856L38.113 209.359L36.7634 208.865L35.3892 208.371L33.9944 207.872L32.5833 207.365L31.1604 206.846L29.7303 206.311L28.2981 205.757L26.8688 205.18L25.4477 204.576L24.0404 203.944L22.6522 203.279L21.2889 202.58L19.956 201.844L18.659 201.069L17.4034 200.254L16.1945 199.397L15.0373 198.497L13.9365 197.553L12.8966 196.566L11.9216 195.536L11.015 194.462L10.1798 193.347L9.41854 192.19L8.73316 190.995L8.12497 189.762L7.59468 188.494L7.14242 187.193L6.76767 185.862L6.46937 184.504L6.24587 183.122L6.09499 181.719L6.01407 180.297L6 178.861L6.04929 177.413L6.15808 175.955L6.32226 174.492L6.53747 173.026L6.79917 171.559L7.10271 170.094L7.44335 168.633L7.81635 167.178L8.21695 165.731L8.6405 164.295L9.08238 162.869L9.53815 161.456L10.0035 160.056L10.4742 158.67L10.9464 157.299L11.4163 155.944L11.8802 154.603L12.335 153.278L12.7774 151.969L13.2045 150.674L13.6137 149.394L14.0025 148.128L14.3687 146.875L14.71 145.635L15.0249 144.407L15.3115 143.19L15.5684 141.982L15.7943 140.784L15.9882 139.592L16.1492 138.408L16.2764 137.229L16.3693 136.053L16.4274 134.881L16.4505 133.71L16.4386 132.539L16.3916 131.367L16.3097 130.193L16.1934 129.015L16.0431 127.832L15.8596 126.643L15.6438 125.447L15.3966 124.242L15.1193 123.028L14.8133 121.804L14.4802 120.567L14.1217 119.319L13.7399 118.057L13.337 116.782L12.9152 115.492L12.4774 114.187L12.0262 112.867L11.5648 111.531L11.0965 110.18L10.6246 108.814L10.153 107.433L9.68554 106.038L9.22626 104.629L8.77948 103.207L8.3496 101.774L7.94118 100.33L7.55888 98.8778L7.20741 97.4186L6.89154 95.9546L6.61601 94.4879L6.38549 93.021L6.20457 91.5565L6.07767 90.097L6.009 88.6455L6.00249 87.205L6.06176 85.7784L6.19004 84.369L6.39016 82.9798L6.66443 81.6138L7.01468 80.2741L7.44217 78.9636L7.94758 77.6848L8.53101 76.4405L9.19192 75.2328L9.92918 74.0637L10.7411 72.9349L11.6252 71.8479L12.5788 70.8036L13.5985 69.8026L14.6803 68.8453L15.82 67.9316L17.013 67.0609L18.2543 66.2324L19.5387 65.4449L20.8608 64.6968L22.215 63.9862L23.5958 63.3109L24.9977 62.6684L26.415 62.056L27.8422 61.4708L29.2741 60.9094L30.7054 60.3686L32.1311 59.8449L33.5465 59.3345L34.9469 58.8337L36.3281 58.3386L37.686 57.8452L39.0168 57.3494L40.3168 56.8471L41.5828 56.3342L42.8115 55.8062L44.0002 55.2587L45.1459 54.6874L46.2463 54.0876L47.2989 53.4546L48.3013 52.7834L49.2514 52.0692L50.1472 51.3065L50.9864 50.4899L51.7699 49.6164L52.5028 48.6877L53.1905 47.7058L53.8381 46.6729L54.4506 45.5913L55.0327 44.4633L55.589 43.2914L56.1242 42.0782L56.6427 40.8267L57.1487 39.5399L57.6465 38.2209L58.1404 36.8734L58.6343 35.5009L59.1324 34.1076L59.6385 32.6977L60.1565 31.2755L60.69 29.8458L61.2428 28.4136L61.8181 26.9838L62.4193 25.5619L63.0495 24.1532L63.7114 22.7633L64.4076 21.3978L65.1405 20.0623L65.9121 18.7622L66.7241 17.5031L67.5779 16.2903L68.4744 15.1288L69.4143 14.0233L70.3979 12.9784L71.425 11.9981L72.4951 11.0859L73.6074 10.2449L74.7606 9.47769L75.9532 8.7862L77.1832 8.17182L78.4485 7.63531L79.7467 7.17684L81.0751 6.79595L82.4309 6.49162L83.8113 6.26223L85.213 6.10565L86.6331 6.01927L88.0684 6L89.5159 6.04438L90.9725 6.14858L92.4354 6.30851L93.9016 6.51983L95.3687 6.778L96.834 7.07838L98.2954 7.41624L99.7506 7.78684L101.198 8.18542L102.636 8.60731L104.062 9.04791L105.476 9.50274L106.877 9.96746L108.264 10.4379L109.636 10.9101L110.993 11.3803L112.335 11.8449L113.661 12.3005L114.972 12.744L116.267 13.1725L117.549 13.5832L118.816 13.9737L120.069 14.3417L121.31 14.6851L122.539 15.0022L123.758 15.2911L124.966 15.5504L126.165 15.7789L127.357 15.9754L128.542 16.1389L129.722 16.2688L130.897 16.3645L132.07 16.4254L133.241 16.4513L134.412 16.4422L135.584 16.3979L136.758 16.3188L137.935 16.2052L139.118 16.0577L140.306 15.8768L141.501 15.6635L142.705 15.4187L143.919 15.1438L145.142 14.84L146.377 14.509L147.625 14.1525L148.886 13.7724L150.16 13.3711L151.449 12.9508L152.752 12.5141L154.071 12.0639L155.405 11.6032L156.755 11.1353L158.12 10.6636L159.5 10.1918L160.894 9.7238L162.302 9.26372L163.723 8.81577L165.155 8.38438L166.598 7.97408L168.05 7.58952L169.509 7.23542L170.972 6.91654L172.439 6.63762L173.906 6.40334L175.371 6.21831L176.83 6.08695L178.283 6.01349L179.724 6.00189L181.152 6.0558L182.563 6.17848L183.954 6.37278L185.322 6.64108L186.664 6.98523L187.977 7.40654L189.258 7.90574L190.505 8.48297L191.716 9.13775L192.888 9.86899L194.02 10.675L195.11 11.5535L196.158 12.5017L197.163 13.5163L198.123 14.5933L199.041 15.7286L199.915 16.9176L200.746 18.1552L201.537 19.4363L202.288 20.7556L203.002 22.1075L203.68 23.4865L204.325 24.8869L204.939 26.3031L205.527 27.7298L206.09 29.1615L206.632 30.593L207.157 32.0194L207.668 33.4358L208.17 34.8376L208.665 36.2205L209.159 37.5804L209.654 38.9135L210.156 40.2161L210.668 41.4849L211.194 42.7167L211.74 43.9087L212.309 45.058L212.907 46.1621L213.537 47.2185L214.205 48.225L214.915 49.1794L215.674 50.0796L216.486 50.9234L217.355 51.7111L218.279 52.4479L219.257 53.139L220.286 53.7896L221.364 54.4047L222.488 54.989L223.657 55.5473L224.867 56.084L226.115 56.6036L227.399 57.1105L228.716 57.6088L230.061 58.1028L231.432 58.5966L232.824 59.0942L234.232 59.5996L235.654 60.1165L237.083 60.6487L238.515 61.1998L239.945 61.7732L241.368 62.3723L242.778 63L244.17 63.6593L245.537 64.3527L246.875 65.0826L248.178 65.8511L249.441 66.6598L250.658 67.5102L251.823 68.4033L252.934 69.3398L253.983 70.3199L254.969 71.3435L255.887 72.4103L256.733 73.5192L257.507 74.6693L258.204 75.8587L258.825 77.0859L259.367 78.3485L259.832 79.6441L260.219 80.9703L260.53 82.324L260.765 83.7025L260.927 85.1027L261.019 86.5214L261.043 87.9557L261.004 89.4023L260.904 90.8583L260.749 92.3208L260.541 93.7869L260.287 95.254L259.99 96.7196L259.655 98.1813L259.286 99.6371L258.89 101.085L258.47 102.524L258.03 103.951L257.577 105.366L257.112 106.768L256.642 108.156L256.17 109.53L255.7 110.888L255.235 112.231L254.778 113.558L254.334 114.87L253.904 116.167L253.491 117.45L253.099 118.718L252.729 119.972L252.384 121.214L252.065 122.444L251.774 123.663L251.512 124.872L251.281 126.072L251.082 127.265L250.916 128.45L250.783 129.63L250.685 130.806L250.621 131.979L250.592 133.15L250.59 133.523Z" stroke="#702222" stroke-width="10.8807"/>
<path d="M89.7109 144.774C90.2403 143.235 90.5622 141.87 90.8666 140.579C91.4332 138.176 91.9389 136.031 93.6094 133.504C96.3881 129.3 99.008 127.596 103.356 125.051C110.049 121.134 122.632 120.283 122.632 120.283L120.249 117.466L115.917 106.196L113.102 98.8267H97.2913C97.2913 98.8267 88.8339 98.5109 83.43 98.8267C76.8737 99.21 72.9283 98.7572 66.753 100.994C62.6969 102.463 59.9169 103.009 57.0068 106.196C53.8277 109.676 54.3803 113.07 52.6751 117.466C51.1633 121.363 49.3462 123.294 48.7766 127.436C48.1128 132.262 50.3157 134.921 50.5092 139.789C50.5866 141.735 50.3004 142.839 50.5092 144.774C50.8398 147.837 51.708 149.435 52.6751 152.36C54.1058 156.687 54.2268 159.586 57.0068 163.197C59.1681 166.004 61.0356 167.017 63.9374 169.048C67.0409 171.221 68.738 172.792 72.3842 173.817C76.5371 174.984 79.2771 174.984 83.43 173.817C83.43 169.669 83.43 163.197 83.43 163.197C83.43 163.197 87.2382 151.962 89.7109 144.774Z" fill="#464646"/>
<path d="M167.464 139.789C169.717 144.309 170.497 152.36 170.497 152.36C173.964 154.984 179.376 159.079 179.376 159.079C179.376 159.079 182.939 161.746 185.441 163.088C188.874 164.931 190.899 166.105 194.754 166.664C197.265 167.029 198.8 166.01 201.251 166.664C203.929 167.379 204.947 168.91 207.316 170.349C209.599 169.502 211.765 170.177 213.164 168.181C214.154 166.768 213.516 165.495 214.03 163.847C214.638 161.894 215.673 161.056 216.196 159.079C216.996 156.051 216.571 154.169 216.196 151.059C215.787 147.676 214.03 142.607 214.03 142.607L213.164 137.405L211.864 129.169L210.131 119.416L208.615 112.914C208.615 112.914 209.045 109.046 208.615 106.629C208.104 103.751 205.8 99.6937 205.8 99.6937L201.251 94.4921C201.251 94.4921 197.494 91.0388 194.754 89.2905C191.372 87.1323 185.441 84.9558 185.441 84.9558C185.441 84.9558 181.041 81.8497 177.86 80.6211C174.007 79.1327 167.464 78.6705 167.464 78.6705H160.967H154.036H143.207C143.207 78.6705 139.37 78.8767 136.926 78.6705C132.143 78.267 125.014 75.6363 125.014 75.6363C125.014 75.6363 119.47 75.6363 115.917 75.6363C116.594 78.1755 117.65 82.1383 117.65 82.1383L120.249 87.5566L127.18 96.4427L132.378 104.028L133.894 109.013L143.207 115.298L157.068 125.051L163.16 133.246L163.566 133.504L164.641 135.238C164.641 135.238 166.531 137.917 167.464 139.789Z" fill="#7B7974"/>
<path d="M122.632 120.283C122.632 120.283 142.886 121.61 154.036 127.436C157.78 129.392 163.16 133.246 163.16 133.246L157.068 125.051L143.207 115.298L133.894 109.013L132.378 104.028L127.18 96.4427L120.249 87.5566L117.65 82.1383C117.65 82.1383 116.594 78.1755 115.917 75.6363C114.818 77.583 113.102 80.6211 113.102 80.6211L111.153 90.5909L113.102 98.8267L115.917 106.196L120.249 117.466L122.632 120.283Z" fill="#161616"/>
<path d="M198.869 172.516C202.271 172.374 204.265 171.863 207.316 170.349C204.947 168.91 203.929 167.379 201.251 166.664C198.8 166.01 197.265 167.029 194.754 166.664C190.899 166.105 188.874 164.931 185.441 163.088C182.939 161.746 179.376 159.079 179.376 159.079C179.376 159.079 173.964 154.984 170.497 152.36C169.904 156.55 168.98 163.088 168.98 163.088C168.98 163.088 171.309 166.704 173.529 168.181C175.557 169.531 177.032 169.689 179.376 170.349C181.373 170.91 182.515 171.195 184.574 171.432C187.179 171.733 188.672 171.259 191.289 171.432C194.272 171.631 195.881 172.641 198.869 172.516Z" fill="#221E17"/>
<path fill-rule="evenodd" clip-rule="evenodd" d="M90.8666 140.579C91.4332 138.176 91.9389 136.031 93.6094 133.504C96.3881 129.3 99.008 127.596 103.356 125.051C110.049 121.134 122.632 120.283 122.632 120.283C122.632 120.283 142.886 121.61 154.036 127.436C157.78 129.392 163.16 133.246 163.16 133.246L164.641 135.238C164.641 135.238 166.531 137.917 167.464 139.789C169.717 144.309 170.497 152.36 170.497 152.36L168.98 163.088L167.464 173.817C167.464 173.817 166.178 180.993 163.566 184.653C161.496 187.554 159.076 189.103 156.368 190.101H148.319H137.221C137.221 190.101 131.079 190.516 127.18 190.101C122.69 189.624 117.613 191.193 113.102 191.013C107.647 190.795 107.193 192.275 102.185 190.101C97.7262 188.165 92.5336 181.437 89.7109 177.48C85.0947 171.007 83.43 163.197 83.43 163.197C83.43 163.197 87.2382 151.962 89.7109 144.774C90.2403 143.235 90.5622 141.87 90.8666 140.579Z" fill="#9F9B92"/>
<path d="M142.797 193.449L143.207 193.323C148.06 191.825 152.507 191.524 156.368 190.101H148.319H137.221C137.221 190.101 131.079 190.516 127.18 190.101C122.69 189.624 117.613 191.193 113.102 191.013C107.647 190.795 107.193 192.275 102.185 190.101C97.7262 188.165 92.5336 181.437 89.7109 177.48C85.0947 171.007 83.43 163.197 83.43 163.197V173.817C85.8828 178.048 86.7166 180.786 89.7109 184.653C94.0432 190.249 96.4962 194.845 103.356 196.574C107.047 197.504 109.296 196.574 113.102 196.574C119.53 196.574 123.185 197.383 129.562 196.574C134.853 195.902 137.814 194.988 142.797 193.449Z" fill="#676561"/>
<path d="M122.632 120.283C122.632 120.283 110.049 121.134 103.356 125.051C99.008 127.596 96.3881 129.3 93.6094 133.504C91.9389 136.031 91.4332 138.176 90.8666 140.579C90.5622 141.87 90.2403 143.235 89.7109 144.774C87.2382 151.962 83.43 163.197 83.43 163.197M122.632 120.283C122.632 120.283 142.886 121.61 154.036 127.436C157.78 129.392 163.16 133.246 163.16 133.246M122.632 120.283L120.249 117.466L115.917 106.196L113.102 98.8267M170.497 152.36C170.497 152.36 169.717 144.309 167.464 139.789C166.531 137.917 164.641 135.238 164.641 135.238M170.497 152.36C169.904 156.55 168.98 163.088 168.98 163.088M170.497 152.36C173.964 154.984 179.376 159.079 179.376 159.079C179.376 159.079 182.939 161.746 185.441 163.088C188.874 164.931 190.899 166.105 194.754 166.664C197.265 167.029 198.8 166.01 201.251 166.664C203.929 167.379 204.947 168.91 207.316 170.349M170.497 152.36L168.98 163.088M143.207 193.323C148.06 191.825 152.507 191.524 156.368 190.101M143.207 193.323L142.797 193.449M143.207 193.323C143.069 193.365 142.932 193.407 142.797 193.449M83.43 173.817C85.8828 178.048 86.7166 180.786 89.7109 184.653C94.0432 190.249 96.4962 194.845 103.356 196.574C107.047 197.504 109.296 196.574 113.102 196.574C119.53 196.574 123.185 197.383 129.562 196.574C134.853 195.902 137.814 194.988 142.797 193.449M83.43 173.817C83.43 169.669 83.43 163.197 83.43 163.197M83.43 173.817C79.2771 174.984 76.5371 174.984 72.3842 173.817C68.738 172.792 67.0409 171.221 63.9374 169.048C61.0356 167.017 59.1681 166.004 57.0068 163.197C54.2268 159.586 54.1058 156.687 52.6751 152.36C51.708 149.435 50.8398 147.837 50.5092 144.774C50.3004 142.839 50.5866 141.735 50.5092 139.789C50.3157 134.921 48.1128 132.262 48.7766 127.436C49.3462 123.294 51.1633 121.363 52.6751 117.466C54.3803 113.07 53.8277 109.676 57.0068 106.196C59.9169 103.009 62.6969 102.463 66.753 100.994C72.9283 98.7572 76.8737 99.21 83.43 98.8267C88.8339 98.5109 97.2913 98.8267 97.2913 98.8267H113.102M83.43 173.817V163.197M83.43 163.197C83.43 163.197 85.0947 171.007 89.7109 177.48C92.5336 181.437 97.7262 188.165 102.185 190.101C107.193 192.275 107.647 190.795 113.102 191.013C117.613 191.193 122.69 189.624 127.18 190.101C131.079 190.516 137.221 190.101 137.221 190.101H148.319H156.368M113.102 98.8267L111.153 90.5909L113.102 80.6211C113.102 80.6211 114.818 77.583 115.917 75.6363M115.917 75.6363C119.47 75.6363 125.014 75.6363 125.014 75.6363C125.014 75.6363 132.143 78.267 136.926 78.6705C139.37 78.8767 143.207 78.6705 143.207 78.6705H154.036H160.967H167.464C167.464 78.6705 174.007 79.1327 177.86 80.6211C181.041 81.8497 185.441 84.9558 185.441 84.9558C185.441 84.9558 191.372 87.1323 194.754 89.2905C197.494 91.0388 201.251 94.4921 201.251 94.4921L205.8 99.6937C205.8 99.6937 208.104 103.751 208.615 106.629C209.045 109.046 208.615 112.914 208.615 112.914L210.131 119.416L211.864 129.169L213.164 137.405L214.03 142.607C214.03 142.607 215.787 147.676 216.196 151.059C216.571 154.169 216.996 156.051 216.196 159.079C215.673 161.056 214.638 161.894 214.03 163.847C213.516 165.495 214.154 166.768 213.164 168.181C211.765 170.177 209.599 169.502 207.316 170.349M115.917 75.6363C116.594 78.1755 117.65 82.1383 117.65 82.1383L120.249 87.5566L127.18 96.4427L132.378 104.028L133.894 109.013L143.207 115.298L157.068 125.051L163.16 133.246M207.316 170.349C204.265 171.863 202.271 172.374 198.869 172.516C195.881 172.641 194.272 171.631 191.289 171.432C188.672 171.259 187.179 171.733 184.574 171.432C182.515 171.195 181.373 170.91 179.376 170.349C177.032 169.689 175.557 169.531 173.529 168.181C171.309 166.704 168.98 163.088 168.98 163.088M168.98 163.088L167.464 173.817C167.464 173.817 166.178 180.993 163.566 184.653C161.496 187.554 159.076 189.103 156.368 190.101M164.641 135.238L163.566 133.504L163.16 133.246M164.641 135.238L163.16 133.246" stroke="black" stroke-width="1.30568"/>
<path d="M250.59 133.523V133.523ZM250.59 133.523L250.608 134.694L250.661 135.866L250.748 137.041L250.87 138.22L251.025 139.403L251.214 140.593L251.435 141.791L251.687 142.997L251.969 144.213L252.279 145.439L252.617 146.677L252.979 147.928L253.364 149.191L253.77 150.469L254.195 151.761L254.635 153.069L255.088 154.391L255.551 155.729L256.02 157.082L256.492 158.451L256.963 159.834L257.43 161.232L257.887 162.643L258.332 164.067L258.758 165.502L259.163 166.947L259.541 168.401L259.887 169.861L260.197 171.325L260.465 172.792L260.688 174.259L260.861 175.723L260.979 177.181L261.038 178.631L261.034 180.07L260.964 181.494L260.824 182.9L260.613 184.286L260.326 185.648L259.964 186.983L259.524 188.289L259.006 189.562L258.41 190.801L257.737 192.002L256.988 193.165L256.164 194.287L255.269 195.368L254.304 196.405L253.275 197.399L252.183 198.35L251.035 199.256L249.834 200.12L248.585 200.942L247.295 201.723L245.967 202.465L244.608 203.17L243.224 203.84L241.819 204.477L240.4 205.085L238.971 205.667L237.539 206.224L236.108 206.762L234.684 207.284L233.271 207.792L231.873 208.292L230.495 208.786L229.142 209.28L227.815 209.776L226.521 210.28L225.26 210.795L224.038 211.326L222.856 211.877L221.717 212.452L220.624 213.057L219.579 213.696L218.585 214.374L217.644 215.095L216.757 215.866L215.927 216.692L215.152 217.574L214.426 218.512L213.745 219.502L213.104 220.543L212.496 221.632L211.919 222.767L211.366 223.946L210.834 225.165L210.317 226.422L209.813 227.715L209.316 229.038L208.822 230.39L208.328 231.766L207.829 233.162L207.321 234.575L206.801 235.998L206.265 237.429L205.709 238.861L205.129 240.29L204.524 241.71L203.889 243.116L203.221 244.502L202.52 245.863L201.781 247.194L201.003 248.488L200.184 249.74L199.324 250.945L198.42 252.098L197.473 253.194L196.483 254.229L195.449 255.198L194.372 256.099L193.253 256.929L192.093 257.684L190.895 258.363L189.659 258.965L188.388 259.489L187.085 259.935L185.752 260.304L184.392 260.596L183.008 260.814L181.603 260.959L180.181 261.035L178.743 261.043L177.294 260.989L175.836 260.876L174.373 260.708L172.906 260.488L171.439 260.223L169.974 259.917L168.514 259.573L167.06 259.198L165.614 258.795L164.178 258.37L162.753 257.927L161.341 257.47L159.942 257.004L158.558 256.533L157.188 256.061L155.834 255.592L154.495 255.128L153.171 254.674L151.862 254.233L150.569 253.807L149.29 253.4L148.025 253.012L146.773 252.648L145.534 252.309L144.307 251.996L143.091 251.712L141.884 251.457L140.686 251.234L139.495 251.043L138.311 250.884L137.132 250.76L135.957 250.67L134.785 250.615L133.614 250.594L132.443 250.609L131.271 250.659L130.096 250.743L128.918 250.862L127.735 251.015L126.546 251.201L125.349 251.42L124.144 251.669L122.929 251.949L121.703 252.257L120.466 252.592L119.217 252.953L117.954 253.336L116.677 253.741L115.386 254.164L114.08 254.603L112.759 255.055L111.422 255.517L110.07 255.986L108.703 256.458L107.321 256.929L105.924 257.396L104.514 257.855L103.091 258.301L101.657 258.729L100.213 259.135L98.7596 259.515L97.3 259.864L95.8357 260.177L94.369 260.449L92.9022 260.676L91.438 260.853L89.979 260.975L88.5283 261.039L87.0888 261.04L85.6635 260.976L84.2556 260.842L82.8681 260.636L81.5041 260.356L80.1667 259.999L78.8586 259.566L77.5825 259.054L76.341 258.464L75.1363 257.797L73.9704 257.054L72.8449 256.236L71.7612 255.346L70.7204 254.387L69.7229 253.363L68.7691 252.276L67.8588 251.132L66.9915 249.935L66.1663 248.69L65.382 247.402L64.637 246.077L63.9293 244.721L63.2567 243.338L62.6168 241.935L62.0067 240.517L61.4234 239.089L60.8639 237.657L60.3246 236.226L59.802 234.801L59.2925 233.386L58.7923 231.987L58.2975 230.608L57.8041 229.252L57.3079 227.923L56.805 226.626L56.291 225.363L55.7616 224.137L55.2125 222.952L54.639 221.809L54.0368 220.713L53.4009 219.664L52.7265 218.666L52.0086 217.72L51.2418 216.829L50.4207 215.994L49.5428 215.215L48.6097 214.486L47.6237 213.801L46.5869 213.157L45.5015 212.547L44.3699 211.967L43.1946 211.412L41.9784 210.879L40.7239 210.361L39.4344 209.856L38.113 209.359L36.7634 208.865L35.3892 208.371L33.9944 207.872L32.5833 207.365L31.1604 206.846L29.7303 206.311L28.2981 205.757L26.8688 205.18L25.4477 204.576L24.0404 203.944L22.6522 203.279L21.2889 202.58L19.956 201.844L18.659 201.069L17.4034 200.254L16.1945 199.397L15.0373 198.497L13.9365 197.553L12.8966 196.566L11.9216 195.536L11.015 194.462L10.1798 193.347L9.41854 192.19L8.73316 190.995L8.12497 189.762L7.59468 188.494L7.14242 187.193L6.76767 185.862L6.46937 184.504L6.24587 183.122L6.09499 181.719L6.01407 180.297L6 178.861L6.04929 177.413L6.15808 175.955L6.32226 174.492L6.53747 173.026L6.79917 171.559L7.10271 170.094L7.44335 168.633L7.81635 167.178L8.21695 165.731L8.6405 164.295L9.08238 162.869L9.53815 161.456L10.0035 160.056L10.4742 158.67L10.9464 157.299L11.4163 155.944L11.8802 154.603L12.335 153.278L12.7774 151.969L13.2045 150.674L13.6137 149.394L14.0025 148.128L14.3687 146.875L14.71 145.635L15.0249 144.407L15.3115 143.19L15.5684 141.982L15.7943 140.784L15.9882 139.592L16.1492 138.408L16.2764 137.229L16.3693 136.053L16.4274 134.881L16.4505 133.71L16.4386 132.539L16.3916 131.367L16.3097 130.193L16.1934 129.015L16.0431 127.832L15.8596 126.643L15.6438 125.447L15.3966 124.242L15.1193 123.028L14.8133 121.804L14.4802 120.567L14.1217 119.319L13.7399 118.057L13.337 116.782L12.9152 115.492L12.4774 114.187L12.0262 112.867L11.5648 111.531L11.0965 110.18L10.6246 108.814L10.153 107.433L9.68554 106.038L9.22626 104.629L8.77948 103.207L8.3496 101.774L7.94118 100.33L7.55888 98.8778L7.20741 97.4186L6.89154 95.9546L6.61601 94.4879L6.38549 93.021L6.20457 91.5565L6.07767 90.097L6.009 88.6455L6.00249 87.205L6.06176 85.7784L6.19004 84.369L6.39016 82.9798L6.66443 81.6138L7.01468 80.2741L7.44217 78.9636L7.94758 77.6848L8.53101 76.4405L9.19192 75.2328L9.92918 74.0637L10.7411 72.9349L11.6252 71.8479L12.5788 70.8036L13.5985 69.8026L14.6803 68.8453L15.82 67.9316L17.013 67.0609L18.2543 66.2324L19.5387 65.4449L20.8608 64.6968L22.215 63.9862L23.5958 63.3109L24.9977 62.6684L26.415 62.056L27.8422 61.4708L29.2741 60.9094L30.7054 60.3686L32.1311 59.8449L33.5465 59.3345L34.9469 58.8337L36.3281 58.3386L37.686 57.8452L39.0168 57.3494L40.3168 56.8471L41.5828 56.3342L42.8115 55.8062L44.0002 55.2587L45.1459 54.6874L46.2463 54.0876L47.2989 53.4546L48.3013 52.7834L49.2514 52.0692L50.1472 51.3065L50.9864 50.4899L51.7699 49.6164L52.5028 48.6877L53.1905 47.7058L53.8381 46.6729L54.4506 45.5913L55.0327 44.4633L55.589 43.2914L56.1242 42.0782L56.6427 40.8267L57.1487 39.5399L57.6465 38.2209L58.1404 36.8734L58.6343 35.5009L59.1324 34.1076L59.6385 32.6977L60.1565 31.2755L60.69 29.8458L61.2428 28.4136L61.8181 26.9838L62.4193 25.5619L63.0495 24.1532L63.7114 22.7633L64.4076 21.3978L65.1405 20.0623L65.9121 18.7622L66.7241 17.5031L67.5779 16.2903L68.4744 15.1288L69.4143 14.0233L70.3979 12.9784L71.425 11.9981L72.4951 11.0859L73.6074 10.2449L74.7606 9.47769L75.9532 8.7862L77.1832 8.17182L78.4485 7.63531L79.7467 7.17684L81.0751 6.79595L82.4309 6.49162L83.8113 6.26223L85.213 6.10565L86.6331 6.01927L88.0684 6L89.5159 6.04438L90.9725 6.14858L92.4354 6.30851L93.9016 6.51983L95.3687 6.778L96.834 7.07838L98.2954 7.41624L99.7506 7.78684L101.198 8.18542L102.636 8.60731L104.062 9.04791L105.476 9.50274L106.877 9.96746L108.264 10.4379L109.636 10.9101L110.993 11.3803L112.335 11.8449L113.661 12.3005L114.972 12.744L116.267 13.1725L117.549 13.5832L118.816 13.9737L120.069 14.3417L121.31 14.6851L122.539 15.0022L123.758 15.2911L124.966 15.5504L126.165 15.7789L127.357 15.9754L128.542 16.1389L129.722 16.2688L130.897 16.3645L132.07 16.4254L133.241 16.4513L134.412 16.4422L135.584 16.3979L136.758 16.3188L137.935 16.2052L139.118 16.0577L140.306 15.8768L141.501 15.6635L142.705 15.4187L143.919 15.1438L145.142 14.84L146.377 14.509L147.625 14.1525L148.886 13.7724L150.16 13.3711L151.449 12.9508L152.752 12.5141L154.071 12.0639L155.405 11.6032L156.755 11.1353L158.12 10.6636L159.5 10.1918L160.894 9.7238L162.302 9.26372L163.723 8.81577L165.155 8.38438L166.598 7.97408L168.05 7.58952L169.509 7.23542L170.972 6.91654L172.439 6.63762L173.906 6.40334L175.371 6.21831L176.83 6.08695L178.283 6.01349L179.724 6.00189L181.152 6.0558L182.563 6.17848L183.954 6.37278L185.322 6.64108L186.664 6.98523L187.977 7.40654L189.258 7.90574L190.505 8.48297L191.716 9.13775L192.888 9.86899L194.02 10.675L195.11 11.5535L196.158 12.5017L197.163 13.5163L198.123 14.5933L199.041 15.7286L199.915 16.9176L200.746 18.1552L201.537 19.4363L202.288 20.7556L203.002 22.1075L203.68 23.4865L204.325 24.8869L204.939 26.3031L205.527 27.7298L206.09 29.1615L206.632 30.593L207.157 32.0194L207.668 33.4358L208.17 34.8376L208.665 36.2205L209.159 37.5804L209.654 38.9135L210.156 40.2161L210.668 41.4849L211.194 42.7167L211.74 43.9087L212.309 45.058L212.907 46.1621L213.537 47.2185L214.205 48.225L214.915 49.1794L215.674 50.0796L216.486 50.9234L217.355 51.7111L218.279 52.4479L219.257 53.139L220.286 53.7896L221.364 54.4047L222.488 54.989L223.657 55.5473L224.867 56.084L226.115 56.6036L227.399 57.1105L228.716 57.6088L230.061 58.1028L231.432 58.5966L232.824 59.0942L234.232 59.5996L235.654 60.1165L237.083 60.6487L238.515 61.1998L239.945 61.7732L241.368 62.3723L242.778 63L244.17 63.6593L245.537 64.3527L246.875 65.0826L248.178 65.8511L249.441 66.6598L250.658 67.5102L251.823 68.4033L252.934 69.3398L253.983 70.3199L254.969 71.3435L255.887 72.4103L256.733 73.5192L257.507 74.6693L258.204 75.8587L258.825 77.0859L259.367 78.3485L259.832 79.6441L260.219 80.9703L260.53 82.324L260.765 83.7025L260.927 85.1027L261.019 86.5214L261.043 87.9557L261.004 89.4023L260.904 90.8583L260.749 92.3208L260.541 93.7869L260.287 95.254L259.99 96.7196L259.655 98.1813L259.286 99.6371L258.89 101.085L258.47 102.524L258.03 103.951L257.577 105.366L257.112 106.768L256.642 108.156L256.17 109.53L255.7 110.888L255.235 112.231L254.778 113.558L254.334 114.87L253.904 116.167L253.491 117.45L253.099 118.718L252.729 119.972L252.384 121.214L252.065 122.444L251.774 123.663L251.512 124.872L251.281 126.072L251.082 127.265L250.916 128.45L250.783 129.63L250.685 130.806L250.621 131.979L250.592 133.15L250.59 133.523Z" stroke="#FDCA4D" stroke-width="10.8807"/>
<path d="M149.208 41.3118C149.134 42.0223 148.97 42.6447 148.717 43.179C148.472 43.7067 148.154 44.1552 147.764 44.5243C147.375 44.8863 146.93 45.1851 146.429 45.4206C145.93 45.649 145.399 45.8237 144.836 45.9447C144.275 46.0586 143.69 46.1086 143.083 46.095C142.482 46.0891 141.88 46.0578 141.276 46.001C140.184 45.8982 139.229 45.7648 138.411 45.6009C137.942 45.4988 137.25 45.2741 136.333 44.9269C135.584 44.6462 135.001 44.3703 134.584 44.0992L134.985 39.8426L138.229 40.1479C138.553 40.7003 138.938 41.1206 139.382 41.4089C139.833 41.6977 140.306 41.8655 140.802 41.9122C140.931 41.9243 141.076 41.9271 141.236 41.9204C141.396 41.9137 141.549 41.8665 141.695 41.7788C141.848 41.6918 141.982 41.5449 142.095 41.3381C142.216 41.1321 142.295 40.8351 142.332 40.4471C141.719 40.3315 141.113 40.1911 140.512 40.0259C139.919 39.8613 139.354 39.6596 138.819 39.4207C138.283 39.1819 137.788 38.8997 137.333 38.5742C136.886 38.2422 136.505 37.8585 136.191 37.4231C135.884 36.9883 135.655 36.4921 135.505 35.9343C135.362 35.3701 135.325 34.7324 135.392 34.0211C135.463 33.2596 135.627 32.601 135.882 32.0452C136.138 31.4822 136.458 31.0086 136.842 30.6244C137.234 30.2337 137.676 29.9238 138.169 29.6947C138.669 29.4592 139.197 29.2842 139.751 29.1696C140.313 29.0558 140.886 29.0047 141.472 29.0164C142.065 29.0287 142.653 29.0623 143.235 29.1171C144.083 29.1968 144.841 29.3008 145.51 29.4291C146.187 29.5508 146.793 29.702 147.327 29.8827C147.86 30.0634 148.328 30.256 148.729 30.4604C149.138 30.6584 149.501 30.8483 149.817 31.0303L149.421 35.233L146.178 34.9277C145.86 34.3759 145.486 33.9566 145.057 33.6698C144.634 33.3836 144.186 33.2182 143.712 33.1736C143.583 33.1614 143.434 33.1655 143.265 33.1858C143.097 33.199 142.936 33.2599 142.78 33.3685C142.626 33.47 142.488 33.6309 142.365 33.8513C142.244 34.0645 142.165 34.3651 142.128 34.7531C143.381 34.9145 144.475 35.1551 145.409 35.475C146.343 35.7948 147.104 36.2179 147.692 36.7444C148.288 37.2643 148.714 37.9023 148.968 38.6584C149.224 39.4072 149.304 40.2917 149.208 41.3118Z" fill="#BF561C"/>
<path d="M169.632 34.9178L168.093 40.2417L166.346 39.7368C166.273 39.5502 166.183 39.3552 166.076 39.1517C165.97 38.9482 165.841 38.757 165.69 38.5781C165.541 38.3923 165.366 38.2292 165.167 38.0889C164.969 37.9416 164.742 37.8308 164.485 37.7567L162.402 44.9626L163.658 45.6072L162.354 50.12L153.037 47.4273L154.342 42.9146L155.748 43.0393L157.83 35.8334C157.574 35.7592 157.323 35.7317 157.077 35.7508C156.833 35.7629 156.598 35.8078 156.373 35.8854C156.15 35.9561 155.939 36.0491 155.74 36.1645C155.542 36.2799 155.362 36.3968 155.2 36.5152L153.453 36.0103L154.991 30.6865L169.632 34.9178Z" fill="#BF561C"/>
<path d="M176.134 51.5959C176.572 51.8179 177.001 51.9914 177.423 52.1165C177.849 52.2351 178.252 52.3182 178.632 52.3656C179.019 52.4162 179.382 52.4345 179.721 52.4203C180.06 52.4061 180.367 52.3756 180.641 52.3288L182.253 53.1466L179.746 58.0888L166.84 51.5418L168.966 47.3525L170.324 47.738L173.34 41.7919L172.227 40.9238L174.362 36.7153L187.267 43.2623L184.76 48.2044L183.206 47.4161C183.072 47.17 182.907 46.9044 182.712 46.6193C182.517 46.3342 182.282 46.0488 182.006 45.7633C181.74 45.4745 181.431 45.1968 181.081 44.9301C180.734 44.657 180.339 44.4079 179.895 44.1826L178.558 46.8178L181.772 47.6594L180.039 51.0765L177.461 48.98L176.134 51.5959Z" fill="#BF561C"/>
<path d="M191.082 56.1248L189.093 58.5531L190 59.6319L187.017 63.2743L181.658 58.8849L184.634 55.2509L185.878 55.9194L190.116 50.7447L189.216 49.6574L192.192 46.0234L198.623 51.2907L197.513 61.3921L199.749 58.6624L198.862 57.5584L201.839 53.9244L207.197 58.3138L204.221 61.9479L202.978 61.2793L198.739 66.4541L199.639 67.5413L196.663 71.1753L190.224 65.9012L191.082 56.1248Z" fill="#BF561C"/>
<path d="M215.565 87.9721C214.964 88.3588 214.376 88.6204 213.801 88.757C213.236 88.8957 212.687 88.9284 212.155 88.8551C211.629 88.7779 211.118 88.6177 210.621 88.3746C210.13 88.1274 209.662 87.8224 209.216 87.4595C208.775 87.0926 208.371 86.6679 208.001 86.1853C207.63 85.7127 207.278 85.2233 206.945 84.7169C206.342 83.8007 205.848 82.9722 205.465 82.2314C205.251 81.8018 204.993 81.1208 204.69 80.1883C204.441 79.4283 204.292 78.801 204.242 78.3064L207.814 75.9563L209.605 78.6779C209.377 79.277 209.29 79.8398 209.342 80.3665C209.399 80.8992 209.565 81.3735 209.838 81.7894C209.91 81.8979 209.998 82.0125 210.103 82.1333C210.209 82.254 210.341 82.3438 210.501 82.4028C210.665 82.4679 210.863 82.4801 211.095 82.4395C211.331 82.4049 211.612 82.2805 211.938 82.0663C211.645 81.5162 211.375 80.9551 211.129 80.3833C210.886 79.8174 210.69 79.2509 210.541 78.6836C210.393 78.1163 210.303 77.5534 210.272 76.9948C210.252 76.4383 210.313 75.9014 210.456 75.3839C210.603 74.8724 210.848 74.3836 211.189 73.9173C211.54 73.4531 212.014 73.0247 212.61 72.632C213.249 72.2116 213.865 71.9271 214.459 71.7786C215.058 71.6261 215.628 71.5795 216.168 71.6388C216.718 71.7002 217.236 71.8514 217.723 72.0925C218.22 72.3357 218.686 72.6377 219.122 72.9986C219.563 73.3655 219.961 73.7811 220.319 74.2456C220.68 74.7161 221.021 75.1955 221.343 75.6837C221.811 76.395 222.204 77.0519 222.523 77.6542C222.851 78.2586 223.112 78.8255 223.305 79.355C223.498 79.8846 223.64 80.3697 223.731 80.8106C223.833 81.2535 223.911 81.6552 223.967 82.0158L220.441 84.3361L218.65 81.6145C218.882 81.0215 218.975 80.4677 218.93 79.9531C218.889 79.4445 218.738 78.9912 218.476 78.5934C218.405 78.4849 218.308 78.3712 218.187 78.2524C218.072 78.1297 217.923 78.0417 217.741 77.9886C217.566 77.9315 217.354 77.9242 217.105 77.9667C216.863 78.0053 216.579 78.1316 216.253 78.3458C216.911 79.4245 217.407 80.4282 217.742 81.3568C218.077 82.2855 218.223 83.1439 218.18 83.9322C218.147 84.7225 217.915 85.4536 217.485 86.1255C217.061 86.7934 216.421 87.4089 215.565 87.9721Z" fill="#BF561C"/>
<path d="M233.344 99.9439L228.227 102.073L227.529 100.394C227.628 100.219 227.724 100.027 227.816 99.8169C227.909 99.6066 227.977 99.3865 228.022 99.1567C228.074 98.9242 228.092 98.6861 228.077 98.4424C228.068 98.196 228.012 97.9495 227.91 97.703L220.984 100.584L221.267 101.967L216.93 103.772L213.204 94.8176L217.542 93.0132L218.324 94.1884L225.249 91.3072C225.146 91.0607 225.011 90.8475 224.842 90.6676C224.68 90.4849 224.499 90.3299 224.297 90.2027C224.102 90.0727 223.898 89.9663 223.684 89.8835C223.469 89.8007 223.266 89.7331 223.072 89.6808L222.373 88.0019L227.49 85.8733L233.344 99.9439Z" fill="#BF561C"/>
<path d="M224.401 115.475C224.501 115.955 224.634 116.399 224.8 116.807C224.973 117.213 225.16 117.579 225.361 117.906C225.564 118.24 225.776 118.534 225.999 118.79C226.222 119.046 226.437 119.266 226.646 119.451L227.015 121.221L221.59 122.353L218.634 108.186L223.233 107.227L223.781 108.528L230.308 107.166L230.29 105.755L234.909 104.791L237.865 118.957L232.44 120.089L232.084 118.383C232.192 118.125 232.296 117.83 232.397 117.5C232.498 117.169 232.573 116.807 232.624 116.413C232.683 116.025 232.707 115.611 232.696 115.171C232.693 114.729 232.64 114.265 232.538 113.777L229.646 114.381L230.997 117.416L227.247 118.198L227.272 114.876L224.401 115.475Z" fill="#BF561C"/>
<path d="M230.208 130.016L227.069 129.983L226.795 131.365L222.087 131.315L222.16 124.389L226.857 124.438L227.113 125.827L233.802 125.897L234.087 124.515L238.784 124.565L238.696 132.877L230.12 138.328L233.648 138.365L233.955 136.983L238.652 137.033L238.579 143.96L233.882 143.91L233.626 142.522L226.937 142.451L226.652 143.833L221.955 143.784L222.043 135.461L230.208 130.016Z" fill="#BF561C"/>
<path d="M220.638 169.079C219.961 168.85 219.39 168.554 218.924 168.19C218.463 167.834 218.095 167.426 217.821 166.965C217.553 166.506 217.359 166.006 217.239 165.466C217.126 164.928 217.072 164.372 217.078 163.797C217.09 163.224 217.169 162.643 217.316 162.053C217.454 161.468 217.616 160.887 217.804 160.311C218.144 159.268 218.484 158.366 218.823 157.604C219.026 157.169 219.397 156.542 219.937 155.724C220.375 155.055 220.773 154.547 221.129 154.2L225.193 155.525L224.183 158.623C223.573 158.818 223.079 159.101 222.7 159.471C222.319 159.848 222.052 160.273 221.897 160.746C221.857 160.87 221.823 161.01 221.794 161.168C221.765 161.325 221.778 161.485 221.831 161.647C221.883 161.815 221.997 161.978 222.173 162.134C222.348 162.297 222.62 162.439 222.991 162.56C223.238 161.988 223.508 161.427 223.801 160.877C224.092 160.335 224.413 159.828 224.763 159.358C225.114 158.888 225.498 158.467 225.915 158.094C226.337 157.731 226.795 157.444 227.289 157.233C227.781 157.029 228.315 156.915 228.892 156.89C229.474 156.875 230.104 156.978 230.784 157.2C231.511 157.437 232.117 157.741 232.604 158.112C233.097 158.485 233.489 158.901 233.779 159.36C234.074 159.828 234.279 160.328 234.395 160.859C234.515 161.399 234.57 161.952 234.56 162.518C234.548 163.091 234.471 163.662 234.331 164.231C234.189 164.807 234.027 165.373 233.846 165.928C233.582 166.738 233.314 167.455 233.042 168.08C232.775 168.714 232.495 169.271 232.201 169.752C231.908 170.233 231.617 170.647 231.33 170.994C231.047 171.349 230.782 171.661 230.535 171.93L226.522 170.621L227.531 167.524C228.139 167.335 228.631 167.062 229.005 166.706C229.377 166.357 229.636 165.956 229.784 165.503C229.824 165.38 229.853 165.233 229.87 165.065C229.894 164.898 229.87 164.727 229.798 164.552C229.733 164.379 229.607 164.208 229.418 164.041C229.237 163.875 228.961 163.732 228.591 163.611C228.158 164.799 227.683 165.813 227.166 166.653C226.649 167.494 226.069 168.144 225.427 168.602C224.788 169.07 224.073 169.345 223.279 169.428C222.492 169.513 221.612 169.396 220.638 169.079Z" fill="#BF561C"/>
<path d="M222.373 190.419L217.518 187.747L218.395 186.154C218.593 186.123 218.803 186.078 219.025 186.019C219.247 185.96 219.462 185.877 219.67 185.769C219.884 185.664 220.081 185.53 220.262 185.366C220.449 185.205 220.607 185.008 220.736 184.774L214.165 181.157L213.26 182.24L209.145 179.975L213.821 171.479L217.936 173.744L217.505 175.088L224.076 178.706C224.205 178.472 224.287 178.233 224.323 177.989C224.365 177.748 224.372 177.509 224.346 177.273C224.326 177.039 224.282 176.813 224.213 176.594C224.144 176.375 224.07 176.173 223.99 175.989L224.867 174.396L229.722 177.069L222.373 190.419Z" fill="#BF561C"/>
<path d="M204.679 193.107C204.366 193.485 204.103 193.867 203.889 194.251C203.68 194.641 203.511 195.016 203.382 195.376C203.248 195.743 203.15 196.093 203.09 196.427C203.03 196.761 202.993 197.067 202.978 197.345L201.828 198.739L197.553 195.213L206.763 184.05L210.386 187.039L209.713 188.28L214.856 192.523L215.947 191.627L219.587 194.63L210.378 205.793L206.103 202.266L207.212 200.922C207.481 200.845 207.776 200.742 208.097 200.614C208.418 200.486 208.748 200.318 209.087 200.111C209.427 199.915 209.765 199.675 210.102 199.391C210.444 199.113 210.774 198.781 211.091 198.397L208.811 196.517L207.288 199.469L204.332 197.031L206.941 194.974L204.679 193.107Z" fill="#BF561C"/>
<path d="M197.001 206.709L195.063 204.239L193.813 204.89L190.907 201.185L196.357 196.91L199.257 200.606L198.334 201.674L202.462 206.937L203.719 206.294L206.618 209.99L200.078 215.121L190.46 211.839L192.638 214.615L193.909 213.99L196.808 217.686L191.358 221.962L188.458 218.266L189.381 217.198L185.253 211.935L183.996 212.577L181.096 208.881L187.645 203.744L197.001 206.709Z" fill="#BF561C"/>
<path d="M160.583 223.642C160.338 222.971 160.212 222.34 160.205 221.749C160.193 221.167 160.282 220.624 160.47 220.121C160.661 219.625 160.929 219.162 161.275 218.73C161.624 218.306 162.025 217.915 162.477 217.56C162.931 217.211 163.434 216.909 163.986 216.655C164.529 216.396 165.083 216.16 165.651 215.946C166.677 215.559 167.593 215.259 168.4 215.047C168.866 214.933 169.587 214.831 170.563 214.74C171.36 214.664 172.004 214.656 172.498 214.716L174.007 218.716L170.959 219.866C170.424 219.513 169.894 219.304 169.369 219.24C168.837 219.178 168.338 219.236 167.872 219.411C167.75 219.457 167.619 219.518 167.478 219.595C167.337 219.671 167.221 219.78 167.128 219.923C167.029 220.069 166.973 220.259 166.962 220.495C166.944 220.733 167.003 221.035 167.141 221.399C167.742 221.234 168.348 221.094 168.961 220.979C169.566 220.866 170.162 220.8 170.748 220.779C171.334 220.758 171.903 220.794 172.454 220.887C173.002 220.989 173.512 221.167 173.986 221.42C174.452 221.676 174.876 222.021 175.256 222.456C175.632 222.901 175.946 223.457 176.198 224.125C176.468 224.841 176.61 225.504 176.625 226.116C176.642 226.734 176.563 227.3 176.386 227.814C176.206 228.337 175.944 228.81 175.602 229.232C175.256 229.663 174.859 230.052 174.411 230.398C173.957 230.747 173.464 231.045 172.932 231.292C172.394 231.541 171.851 231.769 171.304 231.975C170.508 232.276 169.781 232.515 169.123 232.694C168.461 232.882 167.851 233.012 167.292 233.084C166.733 233.156 166.228 233.188 165.778 233.181C165.324 233.183 164.915 233.171 164.551 233.146L163.061 229.197L166.109 228.047C166.637 228.403 167.156 228.616 167.668 228.685C168.174 228.757 168.649 228.708 169.095 228.54C169.216 228.494 169.348 228.425 169.491 228.333C169.636 228.247 169.754 228.122 169.846 227.956C169.94 227.797 169.994 227.592 170.007 227.34C170.022 227.095 169.961 226.79 169.824 226.426C168.627 226.831 167.539 227.095 166.56 227.218C165.58 227.34 164.711 227.294 163.951 227.08C163.187 226.874 162.525 226.488 161.963 225.921C161.405 225.36 160.945 224.6 160.583 223.642Z" fill="#BF561C"/>
<path d="M145 238.345L144.05 232.886L145.841 232.574C145.989 232.709 146.156 232.845 146.341 232.981C146.526 233.118 146.725 233.233 146.939 233.328C147.155 233.429 147.383 233.499 147.624 233.538C147.867 233.584 148.119 233.584 148.382 233.538L147.096 226.148L145.685 226.119L144.879 221.491L154.434 219.828L155.239 224.456L153.921 224.96L155.207 232.35C155.47 232.304 155.708 232.219 155.92 232.094C156.134 231.976 156.325 231.833 156.494 231.665C156.663 231.503 156.812 231.327 156.94 231.137C157.068 230.946 157.179 230.762 157.273 230.584L159.064 230.273L160.014 235.732L145 238.345Z" fill="#BF561C"/>
<path d="M131.75 226.221C131.26 226.214 130.797 226.247 130.363 226.32C129.929 226.4 129.531 226.503 129.168 226.628C128.798 226.753 128.464 226.896 128.166 227.058C127.868 227.219 127.606 227.382 127.38 227.544L125.572 227.519L125.651 221.978L140.121 222.182L140.054 226.879L138.665 227.13L138.571 233.797L139.952 234.087L139.886 238.806L125.416 238.601L125.494 233.06L127.237 233.085C127.465 233.247 127.73 233.413 128.031 233.583C128.331 233.753 128.668 233.906 129.042 234.041C129.408 234.183 129.807 234.297 130.238 234.383C130.67 234.475 131.135 234.525 131.633 234.532L131.674 231.578L128.418 232.235L128.472 228.404L131.709 229.153L131.75 226.221Z" fill="#BF561C"/>
<path d="M116.31 228.737L117.028 225.681L115.739 225.111L116.816 220.528L123.56 222.113L122.485 226.686L121.074 226.632L119.544 233.144L120.831 233.724L119.756 238.297L111.664 236.395L108.218 226.835L107.411 230.27L108.693 230.872L107.618 235.444L100.874 233.86L101.949 229.287L103.36 229.34L104.89 222.829L103.603 222.248L104.678 217.675L112.781 219.58L116.31 228.737Z" fill="#BF561C"/>
<path d="M80.3397 210.832C80.7112 210.222 81.1258 209.729 81.5835 209.355C82.0314 208.984 82.5105 208.714 83.021 208.548C83.5278 208.388 84.0578 208.308 84.611 208.31C85.1604 208.318 85.7151 208.388 86.2749 208.519C86.8311 208.657 87.3807 208.862 87.9237 209.135C88.4642 209.398 88.995 209.684 89.5159 209.994C90.4584 210.555 91.2641 211.085 91.933 211.584C92.3128 211.877 92.8424 212.376 93.5219 213.083C94.0785 213.658 94.4868 214.157 94.747 214.58L92.5609 218.254L89.7611 216.589C89.7043 215.95 89.5371 215.406 89.2594 214.955C88.9756 214.501 88.6198 214.146 88.1919 213.892C88.0802 213.825 87.9507 213.761 87.8032 213.698C87.6557 213.636 87.4972 213.613 87.3277 213.629C87.1521 213.642 86.9686 213.718 86.7773 213.856C86.5798 213.99 86.3814 214.225 86.1821 214.56C86.6859 214.927 87.1737 215.314 87.6455 215.72C88.111 216.123 88.5346 216.547 88.9161 216.993C89.2977 217.438 89.6242 217.905 89.8958 218.394C90.1575 218.886 90.337 219.396 90.4342 219.924C90.5253 220.448 90.5192 220.994 90.4161 221.563C90.3032 222.134 90.064 222.726 89.6988 223.34C89.3077 223.997 88.8777 224.522 88.4089 224.915C87.9364 225.314 87.4443 225.605 86.9327 225.788C86.4111 225.973 85.8787 226.063 85.3354 226.059C84.7823 226.057 84.2307 225.989 83.6808 225.855C83.1246 225.717 82.5843 225.518 82.0599 225.256C81.5293 224.991 81.0128 224.709 80.5105 224.41C79.7788 223.974 79.138 223.555 78.5883 223.153C78.0287 222.753 77.5465 222.357 77.1416 221.964C76.7368 221.572 76.3969 221.198 76.1221 220.841C75.8374 220.487 75.5912 220.16 75.3834 219.86L77.5419 216.233L80.3417 217.899C80.3923 218.533 80.5502 219.072 80.8154 219.516C81.0744 219.955 81.4086 220.297 81.8179 220.54C81.9295 220.607 82.0658 220.667 82.2269 220.721C82.3843 220.781 82.5564 220.795 82.7431 220.763C82.9262 220.738 83.1201 220.652 83.325 220.505C83.5262 220.364 83.7264 220.127 83.9257 219.792C82.8626 219.109 81.9777 218.423 81.2711 217.734C80.5644 217.045 80.0581 216.336 79.7522 215.608C79.4364 214.883 79.3254 214.124 79.419 213.332C79.5089 212.546 79.8158 211.712 80.3397 210.832Z" fill="#BF561C"/>
<path d="M59.1299 207.86L62.7974 203.706L64.1606 204.909C64.1475 205.109 64.1456 205.324 64.1547 205.554C64.1639 205.783 64.1985 206.011 64.2586 206.237C64.314 206.469 64.4019 206.691 64.5225 206.904C64.6383 207.121 64.7963 207.318 64.9964 207.495L69.9605 201.872L69.1009 200.752L72.2097 197.231L79.4801 203.649L76.3714 207.17L75.1536 206.456L70.1896 212.08C70.3898 212.256 70.605 212.389 70.8354 212.476C71.0611 212.57 71.2923 212.629 71.5291 212.656C71.7611 212.687 71.9915 212.693 72.2204 212.674C72.4492 212.655 72.6622 212.626 72.8592 212.588L74.2224 213.792L70.5549 217.946L59.1299 207.86Z" fill="#BF561C"/>
<path d="M60.3596 190.009C60.0581 189.621 59.7431 189.281 59.4144 188.989C59.0801 188.7 58.7509 188.454 58.4267 188.249C58.0981 188.038 57.7775 187.867 57.4648 187.736C57.1521 187.604 56.8615 187.501 56.5931 187.427L55.4825 186.001L59.8549 182.596L68.7463 194.013L65.04 196.9L63.9753 195.973L58.7148 200.069L59.3526 201.329L55.6293 204.228L46.7379 192.811L51.1102 189.406L52.1809 190.781C52.1975 191.06 52.2335 191.371 52.2887 191.712C52.344 192.053 52.4357 192.411 52.5637 192.787C52.6817 193.162 52.8423 193.544 53.0457 193.935C53.2434 194.329 53.4952 194.723 53.8011 195.116L56.1325 193.3L53.5823 191.171L56.6054 188.817L58.0454 191.811L60.3596 190.009Z" fill="#BF561C"/>
<path d="M48.7538 179.546L51.5876 178.196L51.2262 176.833L55.4769 174.808L58.4561 181.062L54.2152 183.082L53.3751 181.948L47.3362 184.825L47.6878 186.192L43.4469 188.212L39.8719 180.708L45.1788 172.041L41.9932 173.559L42.3252 174.935L38.0844 176.955L35.1052 170.701L39.3461 168.681L40.1862 169.816L46.225 166.939L45.8735 165.572L50.1143 163.551L53.694 171.066L48.7538 179.546Z" fill="#BF561C"/>
<path d="M40.2418 140.326C40.9503 140.234 41.5937 140.249 42.1719 140.373C42.742 140.489 43.2517 140.695 43.7009 140.989C44.1429 141.284 44.5363 141.648 44.881 142.081C45.2185 142.515 45.511 142.991 45.7586 143.51C45.9989 144.03 46.1825 144.587 46.3094 145.182C46.4424 145.768 46.5509 146.361 46.6349 146.961C46.7869 148.047 46.8776 149.007 46.9068 149.841C46.9156 150.321 46.8569 151.047 46.7307 152.019C46.6304 152.813 46.4965 153.443 46.3288 153.911L42.0947 154.504L41.6432 151.277C42.1057 150.834 42.426 150.363 42.6039 149.864C42.7809 149.359 42.8349 148.859 42.7659 148.366C42.7479 148.237 42.7172 148.096 42.6737 147.942C42.6303 147.788 42.549 147.65 42.43 147.528C42.3099 147.399 42.1362 147.303 41.9088 147.24C41.6805 147.17 41.3733 147.162 40.9874 147.216C41.0163 147.839 41.0196 148.461 40.9974 149.084C40.9742 149.699 40.9082 150.295 40.7994 150.871C40.6906 151.447 40.5303 151.994 40.3186 152.512C40.0988 153.024 39.8133 153.482 39.4621 153.889C39.1099 154.288 38.6798 154.625 38.1719 154.9C37.6558 155.169 37.044 155.353 36.3365 155.452C35.579 155.558 34.9004 155.551 34.3007 155.431C33.6939 155.311 33.1592 155.109 32.6967 154.824C32.2261 154.533 31.8225 154.174 31.486 153.748C31.1413 153.315 30.8492 152.842 30.6099 152.329C30.3695 151.809 30.1874 151.263 30.0635 150.69C29.9386 150.11 29.8357 149.531 29.7547 148.952C29.6367 148.109 29.5629 147.347 29.5332 146.666C29.4954 145.979 29.5028 145.355 29.5554 144.794C29.608 144.233 29.6875 143.733 29.7939 143.296C29.8921 142.852 29.9932 142.456 30.0973 142.106L34.2778 141.521L34.7293 144.747C34.2658 145.184 33.944 145.644 33.7641 146.128C33.5831 146.605 33.5256 147.08 33.5916 147.551C33.6096 147.68 33.648 147.824 33.7067 147.983C33.7583 148.144 33.8548 148.287 33.9963 148.413C34.1307 148.54 34.3192 148.637 34.5618 148.705C34.7974 148.774 35.1081 148.782 35.494 148.728C35.3619 147.471 35.3436 146.352 35.4393 145.369C35.535 144.387 35.7711 143.549 36.1476 142.855C36.5159 142.155 37.0385 141.594 37.7153 141.171C38.3849 140.749 39.2271 140.468 40.2418 140.326Z" fill="#BF561C"/>
<path d="M29.2946 121.755L34.83 122.019L34.7433 123.835C34.5789 123.95 34.41 124.083 34.2367 124.234C34.0634 124.384 33.9072 124.554 33.7681 124.742C33.6219 124.93 33.5036 125.138 33.4134 125.365C33.3159 125.591 33.2607 125.838 33.248 126.105L40.7403 126.462L41.0766 125.091L45.7688 125.315L45.3064 135.002L40.6142 134.778L40.41 133.381L32.9177 133.024C32.905 133.291 32.9364 133.541 33.0118 133.776C33.0801 134.01 33.1781 134.228 33.3057 134.429C33.4262 134.63 33.5655 134.814 33.7237 134.98C33.8819 135.147 34.0374 135.295 34.1901 135.425L34.1034 137.241L28.568 136.977L29.2946 121.755Z" fill="#BF561C"/>
<path d="M43.9941 111.574C44.1081 111.096 44.1768 110.638 44.2001 110.198C44.2165 109.757 44.2034 109.346 44.1609 108.965C44.12 108.577 44.0533 108.22 43.9606 107.893C43.8679 107.567 43.7668 107.276 43.6573 107.02L44.0772 105.261L49.4673 106.549L46.1058 120.624L41.5368 119.533L41.5954 118.123L35.1104 116.574L34.5254 117.859L29.9353 116.762L33.2969 102.687L38.6871 103.974L38.2823 105.669C38.0742 105.857 37.8543 106.079 37.6225 106.335C37.3906 106.591 37.168 106.887 36.9545 107.222C36.7357 107.548 36.5373 107.912 36.3596 108.315C36.1748 108.716 36.0246 109.158 35.9089 109.643L38.783 110.329L38.8529 107.007L42.5797 107.897L41.1411 110.892L43.9941 111.574Z" fill="#BF561C"/>
<path d="M44.9306 95.9696L47.7528 97.3436L48.5928 96.2117L52.8261 98.2728L49.7937 104.501L45.5702 102.445L45.9334 101.081L39.9193 98.1524L39.0695 99.2796L34.846 97.2233L38.4849 89.7495L48.5695 88.4958L45.397 86.9512L44.5278 88.0689L40.3043 86.0125L43.3366 79.7843L47.5601 81.8407L47.1969 83.2048L53.211 86.1329L54.0608 85.0057L58.2843 87.062L54.6407 94.5456L44.9306 95.9696Z" fill="#BF561C"/>
<path d="M70.2793 64.8121C70.7938 65.3077 71.1838 65.8197 71.4491 66.348C71.7142 66.8661 71.8723 67.3924 71.9235 67.9269C71.9694 68.4564 71.9312 68.9909 71.809 69.5304C71.6815 70.065 71.4925 70.5911 71.242 71.1088C70.9863 71.6215 70.6661 72.1131 70.2816 72.5836C69.9072 73.0538 69.512 73.5093 69.096 73.9501C68.3431 74.7477 67.6504 75.4185 67.0178 75.9626C66.649 76.2693 66.0457 76.6772 65.2079 77.1863C64.5258 77.6041 63.9497 77.8938 63.4796 78.0554L60.3705 75.1208L62.6068 72.7516C63.2421 72.8353 63.81 72.7909 64.3104 72.6182C64.8157 72.4402 65.2392 72.1702 65.581 71.8082C65.6701 71.7137 65.7613 71.6013 65.8545 71.471C65.9477 71.3407 66.0047 71.1911 66.0253 71.022C66.0509 70.8477 66.0172 70.6522 65.9242 70.4354C65.8361 70.2133 65.6503 69.9686 65.367 69.7011C64.8991 70.1127 64.4152 70.5044 63.9155 70.8762C63.4207 71.2427 62.9145 71.5636 62.3966 71.8388C61.8788 72.1141 61.3517 72.331 60.8152 72.4894C60.2784 72.6376 59.7417 72.7016 59.2052 72.6813C58.6736 72.6558 58.1416 72.5308 57.6094 72.3063C57.0769 72.0715 56.5508 71.709 56.0313 71.2187C55.4751 70.6936 55.0564 70.1595 54.7753 69.6164C54.489 69.0683 54.3125 68.5246 54.2459 67.9855C54.179 67.4361 54.2068 66.8968 54.3293 66.3675C54.4516 65.828 54.6381 65.3045 54.8889 64.797C55.1446 64.2843 55.4573 63.8006 55.827 63.3458C56.2017 62.8858 56.5896 62.4433 56.9908 62.0182C57.5752 61.399 58.1239 60.8651 58.6367 60.4164C59.1492 59.9575 59.6409 59.5732 60.1118 59.2636C60.5827 58.9539 61.0221 58.7039 61.43 58.5135C61.8377 58.3128 62.2106 58.1438 62.5486 58.0065L65.6184 60.9039L63.3821 63.2732C62.7517 63.1842 62.1912 63.2208 61.7008 63.383C61.2153 63.5399 60.8091 63.7915 60.4822 64.1379C60.393 64.2323 60.3046 64.3523 60.2169 64.4977C60.124 64.6382 60.0726 64.8031 60.0628 64.9922C60.0477 65.1764 60.0894 65.3845 60.188 65.6165C60.2813 65.8435 60.4697 66.0907 60.753 66.3582C61.6513 65.4696 62.5137 64.7556 63.3404 64.2161C64.1671 63.6767 64.9689 63.3371 65.7458 63.1973C66.5225 63.0472 67.2872 63.1043 68.0401 63.3684C68.7877 63.6276 69.5341 64.1088 70.2793 64.8121Z" fill="#BF561C"/>
<path d="M77.8 44.7529L81.0565 49.2368L79.5853 50.3054C79.3927 50.249 79.1835 50.2003 78.9575 50.1593C78.7315 50.1183 78.5015 50.1025 78.2676 50.1119C78.0294 50.1155 77.7935 50.153 77.5601 50.2245C77.3223 50.2901 77.0955 50.4013 76.8795 50.5582L81.2872 56.6273L82.5672 56.0321L85.3276 59.833L77.4807 65.5319L74.7203 61.7311L75.6823 60.698L71.2745 54.6289C71.0585 54.7858 70.8825 54.9671 70.7466 55.1729C70.6064 55.3728 70.4977 55.5854 70.4207 55.8109C70.3393 56.0304 70.2832 56.254 70.2523 56.4816C70.2214 56.7092 70.2029 56.9232 70.197 57.1237L68.7257 58.1923L65.4691 53.7083L77.8 44.7529Z" fill="#BF561C"/>
<path d="M94.9606 49.8474C95.4043 49.638 95.805 49.405 96.1626 49.1484C96.5172 48.8853 96.8299 48.618 97.1007 48.3465C97.3781 48.072 97.6151 47.7966 97.8118 47.5202C98.0085 47.2438 98.1726 46.9829 98.3041 46.7373L99.9387 45.9658L102.304 50.9773L89.2173 57.1542L87.2122 52.9061L88.3496 52.0701L85.5037 46.0405L84.1354 46.3872L82.1211 42.1195L95.2079 35.9427L97.5733 40.9542L95.9974 41.698C95.7208 41.653 95.4101 41.6202 95.0652 41.5994C94.7202 41.5787 94.3504 41.5897 93.9557 41.6324C93.5643 41.6655 93.156 41.7385 92.7306 41.8516C92.3021 41.9581 91.8627 42.1176 91.4124 42.3301L92.6737 45.0023L95.3099 42.98L96.9453 46.4451L93.7086 47.1948L94.9606 49.8474Z" fill="#BF561C"/>
<path d="M107.73 40.819L108.422 43.8807L109.831 43.8287L110.869 48.4212L104.112 49.948L103.076 45.3661L104.368 44.7968L102.894 38.2722L101.483 38.3137L100.447 33.7317L108.556 31.8995L115.839 38.9869L115.061 35.5451L113.645 35.5654L112.61 30.9834L119.366 29.4566L120.402 34.0386L119.11 34.6079L120.584 41.1325L121.995 41.091L123.031 45.673L114.912 47.5075L107.73 40.819Z" fill="#BF561C"/>
</svg>
