<svg width="54" height="53" viewBox="0 0 54 53" fill="none" xmlns="http://www.w3.org/2000/svg">
<path fill-rule="evenodd" clip-rule="evenodd" d="M21.4483 38.3763C20.5355 37.4969 19.8119 36.7733 19.8119 36.7733L19.8409 36.7103C19.9152 36.5477 20.1255 36.0833 20.3881 35.4635C20.5463 35.0899 20.7236 34.6597 20.9015 34.2052C21.3046 33.1754 21.711 32.0204 21.9073 31.1137C22.1597 29.9484 22.0651 29.193 21.1706 29.6403C19.8747 30.2882 18.5789 31.0134 17.5777 31.5948C17.2 31.8141 16.8643 32.013 16.5863 32.1795C16.056 32.4972 15.7359 32.6973 15.7359 32.6973C15.7359 32.6973 15.2327 32.3199 14.5071 31.8116C14.2491 31.6309 13.963 31.4336 13.6614 31.2309C12.6494 30.5507 11.4629 29.809 10.5785 29.4242C9.74374 29.061 9.17809 29.0158 9.28218 29.6403C9.49594 30.9228 9.79934 32.5289 10.0652 33.8922C10.1171 34.1583 10.1676 34.4152 10.2157 34.6586C10.3682 35.4305 10.4969 36.067 10.5715 36.4337C10.6156 36.6508 10.6409 36.7733 10.6409 36.7733C10.6409 36.7733 9.64202 37.3379 8.46735 38.0633C7.27423 38.8 5.89971 39.7027 5.20614 40.3483C4.67284 40.8447 4.54215 41.189 5.20614 41.189H9.50675H12.3392L12.3594 41.2722C12.3792 41.3533 12.413 41.4911 12.4587 41.6729C12.58 42.1559 12.7845 42.9502 13.0298 43.8215C13.4348 45.2606 13.9507 46.9099 14.3858 47.7141C14.6559 48.2134 14.8947 48.387 15.0566 47.9824L16.7098 43.8494L17.4556 41.9849L17.7021 41.3685L17.7739 41.189C17.7739 41.189 18.8326 41.378 20.1335 41.5607C21.4777 41.7493 23.0804 41.9312 24.0411 41.8908C24.8488 41.8567 25.2027 41.6655 24.5673 41.189C23.8357 40.6403 22.5132 39.4023 21.4483 38.3763ZM28.4788 38.3849C28.5805 38.5083 28.6815 38.6419 28.7789 38.7859C29.2649 39.5038 30.1195 41.2231 29.3392 43.3109C28.6423 45.1756 27.1319 45.9229 26.6075 46.1485C25.9649 46.4249 25.3785 46.5258 25.0552 46.5707C23.8722 46.735 22.4115 46.6107 21.4872 46.5171C21.2571 46.4938 21.0252 46.4682 20.7948 46.4411L19.4718 49.7485C19.3047 50.1662 18.7586 51.4317 17.3464 52.2723C15.4563 53.3974 13.5185 52.9607 12.3684 52.2972C11.4528 51.769 10.9188 51.0726 10.7116 50.7885C10.4475 50.4265 10.2513 50.0744 10.1165 49.8123C9.62155 48.85 9.2 47.5918 8.90242 46.6353C8.83093 46.4055 8.76091 46.1741 8.69294 45.9444H5.20614C4.81342 45.9444 3.92587 45.9177 2.95771 45.491C1.7574 44.9621 0.280632 43.6907 0.0329742 41.5444C-0.155403 39.9119 0.518093 38.7149 0.751663 38.3272C1.05944 37.8165 1.40392 37.4324 1.62439 37.2031C2.42733 36.368 3.59311 35.5584 4.39405 35.0245C4.70148 34.8195 5.01511 34.6165 5.3236 34.4208C5.073 33.1268 4.79553 31.6462 4.59151 30.4221C4.49156 29.8224 4.40376 28.7226 4.9091 27.5098C5.49615 26.1008 6.62258 25.159 7.83685 24.7174C8.8723 24.3409 9.79013 24.3847 10.2816 24.4398C10.8215 24.5004 11.2843 24.6277 11.6143 24.7347C12.7966 25.1182 14.0395 25.8411 14.8739 26.3546C15.2412 26.5806 15.6057 26.8146 15.9535 27.044C16.8712 26.5233 17.9495 25.9342 19.0439 25.3869C19.6633 25.0773 22.3227 23.8901 24.8006 25.8609C25.8964 26.7325 26.3626 27.8258 26.5627 28.5324C26.5924 28.6373 26.6182 28.7406 26.6407 28.8417C28.9965 26.5589 32.2731 23.2138 33.5276 21.1223C36.6095 15.984 37.3082 11.1795 38.3029 4.33917C38.4674 3.20814 38.64 2.02146 38.8327 0.7684C39.3725 -2.74031 41.0569 9.86694 41.0569 9.86694C41.0569 9.86694 45.4197 9.86694 49.0536 5.05851e-06C49.0536 5.05851e-06 50.5147 9.23386 47.4576 15.6876C47.4576 15.6876 50.079 14.1373 51.7402 11.9775C51.8408 11.8467 51.9371 11.7214 52.0294 11.6013C53.2655 9.9931 53.7654 9.34278 53.7653 9.57353C55.121 17.3177 42.5396 35.8155 28.4788 38.3849ZM5.21203 36.4337L5.23037 36.4337L5.20614 36.4337L5.21203 36.4337Z" fill="#023B27"/>
</svg>
