<svg width="54" height="53" viewBox="0 0 54 53" fill="none" xmlns="http://www.w3.org/2000/svg">
<path fill-rule="evenodd" clip-rule="evenodd" d="M32.4174 14.5878C33.3302 15.4672 34.0538 16.1908 34.0538 16.1908L34.0248 16.2538C33.9505 16.4164 33.7402 16.8808 33.4777 17.5006C33.3194 17.8742 33.1421 18.3044 32.9642 18.7589C32.5611 19.7887 32.1547 20.9437 31.9584 21.8504C31.706 23.0157 31.8006 23.7711 32.6951 23.3239C33.991 22.6759 35.2869 21.9507 36.288 21.3693C36.6657 21.15 37.0014 20.9511 37.2794 20.7846C37.8097 20.4669 38.1298 20.2668 38.1298 20.2668C38.1298 20.2668 38.633 20.6442 39.3587 21.1525C39.6167 21.3332 39.9028 21.5305 40.2044 21.7332C41.2164 22.4134 42.4028 23.1551 43.2873 23.5399C44.122 23.9031 44.6876 23.9483 44.5835 23.3239C44.3698 22.0413 44.0664 20.4352 43.8005 19.0719C43.7486 18.8058 43.6981 18.5489 43.65 18.3055C43.4975 17.5336 43.3689 16.8971 43.2943 16.5305C43.2501 16.3133 43.2249 16.1908 43.2249 16.1908C43.2249 16.1908 44.2237 15.6262 45.3984 14.9008C46.5915 14.1641 47.966 13.2614 48.6596 12.6158C49.1929 12.1194 49.3236 11.7751 48.6596 11.7751H44.359H41.5265L41.5063 11.6919C41.4865 11.6108 41.4527 11.4731 41.407 11.2913C41.2857 10.8082 41.0812 10.0139 40.836 9.14261C40.4309 7.70349 39.915 6.05421 39.4799 5.24999C39.2099 4.75074 38.971 4.57716 38.8092 4.98168L37.1559 9.11475L36.4102 10.9792L36.1636 11.5956L36.0918 11.7751C36.0918 11.7751 35.0331 11.5861 33.7322 11.4035C32.3881 11.2148 30.7853 11.0329 29.8247 11.0734C29.0169 11.1074 28.663 11.2986 29.2984 11.7751C30.03 12.3238 31.3525 13.5618 32.4174 14.5878ZM25.387 14.5793C25.2853 14.4558 25.1842 14.3222 25.0868 14.1782C24.6009 13.4603 23.7462 11.741 24.5265 9.65324C25.2234 7.78852 26.7338 7.04116 27.2582 6.81562C27.9008 6.53921 28.4872 6.43827 28.8105 6.39338C29.9935 6.22913 31.4542 6.35338 32.3786 6.44704C32.6086 6.47035 32.8405 6.49592 33.0709 6.52298L34.3939 3.21559C34.561 2.79789 35.1071 1.53245 36.5193 0.691848C38.4095 -0.433253 40.3472 0.00338144 41.4973 0.666928C42.4129 1.19515 42.9469 1.89151 43.1541 2.1756C43.4182 2.53759 43.6145 2.88973 43.7493 3.1518C44.2442 4.11415 44.6657 5.37233 44.9633 6.32884C45.0348 6.55863 45.1048 6.79001 45.1728 7.0197H48.6596C49.0523 7.0197 49.9398 7.04644 50.908 7.47308C52.1083 8.00203 53.5851 9.27342 53.8327 11.4197C54.0211 13.0522 53.3476 14.2492 53.1141 14.6369C52.8063 15.1477 52.4618 15.5317 52.2413 15.761C51.4384 16.5961 50.2726 17.4057 49.4717 17.9396C49.1642 18.1446 48.8506 18.3476 48.5421 18.5433C48.7927 19.8373 49.0702 21.3179 49.2742 22.542C49.3742 23.1417 49.462 24.2415 48.9566 25.4544C48.3696 26.8633 47.2431 27.8051 46.0289 28.2467C44.9934 28.6232 44.0756 28.5794 43.5841 28.5243C43.0442 28.4637 42.5815 28.3364 42.2514 28.2294C41.0691 27.8459 39.8262 27.1231 38.9918 26.6095C38.6245 26.3836 38.2601 26.1496 37.9123 25.9201C36.9945 26.4408 35.9162 27.03 34.8218 27.5772C34.2024 27.8869 31.543 29.074 29.0652 27.1032C27.9693 26.2316 27.5031 25.1383 27.3031 24.4317C27.2734 24.3268 27.2475 24.2235 27.225 24.1224C24.8692 26.4052 21.5927 29.7503 20.3382 31.8418C17.2562 36.9801 16.5576 41.7846 15.5628 48.6249C15.3983 49.756 15.2258 50.9427 15.033 52.1957C14.4932 55.7044 12.8088 43.0972 12.8088 43.0972C12.8088 43.0972 8.44602 43.0972 4.81209 52.9641C4.81209 52.9641 3.35098 43.7303 6.4081 37.2765C6.4081 37.2765 3.78676 38.8269 2.12553 40.9866C2.02495 41.1174 1.92858 41.2428 1.83631 41.3628C0.600212 42.971 0.100371 43.6213 0.100379 43.3906C-1.25526 35.6464 11.3261 17.1486 25.387 14.5793ZM48.6537 16.5305L48.6354 16.5305L48.6596 16.5305L48.6537 16.5305Z" fill="white"/>
</svg>
