<svg width="266" height="265" viewBox="0 0 266 265" fill="none" xmlns="http://www.w3.org/2000/svg">
<path fill-rule="evenodd" clip-rule="evenodd" d="M249.823 132.464L249.84 133.636L249.893 134.81L249.98 135.985L250.102 137.165L250.258 138.35L250.447 139.541L250.668 140.739L250.92 141.947L251.203 143.163L251.513 144.391L251.851 145.63L252.213 146.882L252.599 148.147L253.006 149.426L253.431 150.719L253.871 152.028L254.324 153.352L254.788 154.691L255.257 156.045L255.73 157.415L256.201 158.8L256.668 160.199L257.126 161.611L257.571 163.036L257.998 164.473L258.403 165.919L258.781 167.374L259.128 168.835L259.438 170.301L259.707 171.769L259.93 173.238L260.103 174.703L260.221 176.163L260.28 177.614L260.276 179.054L260.206 180.479L260.066 181.887L259.854 183.274L259.568 184.637L259.205 185.974L258.765 187.28L258.246 188.555L257.65 189.795L256.976 190.998L256.226 192.161L255.402 193.285L254.505 194.366L253.54 195.404L252.509 196.399L251.417 197.351L250.268 198.258L249.065 199.123L247.816 199.946L246.524 200.727L245.195 201.47L243.835 202.176L242.449 202.846L241.043 203.484L239.623 204.093L238.193 204.674L236.759 205.233L235.327 205.771L233.902 206.293L232.487 206.802L231.088 207.302L229.709 207.797L228.354 208.291L227.027 208.788L225.731 209.292L224.469 209.808L223.246 210.339L222.062 210.89L220.923 211.467L219.829 212.072L218.783 212.711L217.788 213.389L216.845 214.112L215.958 214.883L215.127 215.71L214.351 216.593L213.625 217.531L212.943 218.522L212.301 219.564L211.693 220.654L211.115 221.79L210.562 222.97L210.029 224.191L209.512 225.449L209.008 226.743L208.51 228.068L208.016 229.421L207.521 230.798L207.022 232.195L206.514 233.609L205.993 235.034L205.456 236.466L204.899 237.899L204.32 239.329L203.713 240.751L203.078 242.158L202.41 243.546L201.707 244.908L200.968 246.24L200.189 247.535L199.37 248.788L198.508 249.994L197.604 251.148L196.656 252.245L195.665 253.281L194.63 254.252L193.552 255.154L192.432 255.984L191.272 256.74L190.072 257.42L188.835 258.022L187.563 258.547L186.259 258.993L184.924 259.362L183.563 259.655L182.178 259.873L180.772 260.018L179.348 260.094L177.909 260.102L176.459 260.048L174.999 259.935L173.534 259.766L172.067 259.547L170.598 259.281L169.132 258.975L167.67 258.631L166.215 258.255L164.768 257.852L163.33 257.427L161.904 256.983L160.491 256.526L159.091 256.06L157.705 255.588L156.334 255.116L154.978 254.646L153.638 254.182L152.313 253.727L151.003 253.286L149.709 252.86L148.429 252.451L147.162 252.064L145.91 251.699L144.67 251.36L143.441 251.047L142.224 250.762L141.016 250.508L139.817 250.284L138.625 250.092L137.44 249.934L136.26 249.809L135.084 249.719L133.91 249.664L132.738 249.643L131.566 249.658L130.393 249.708L129.217 249.793L128.038 249.912L126.854 250.065L125.663 250.251L124.465 250.47L123.259 250.72L122.043 251L120.816 251.308L119.578 251.644L118.327 252.004L117.063 252.388L115.786 252.793L114.493 253.217L113.186 253.656L111.864 254.109L110.526 254.571L109.172 255.04L107.804 255.513L106.42 255.985L105.023 256.452L103.611 256.911L102.187 257.357L100.751 257.786L99.3058 258.193L97.8515 258.573L96.3906 258.922L94.9249 259.235L93.4568 259.508L91.9887 259.735L90.5231 259.911L89.0628 260.034L87.6107 260.098L86.1699 260.099L84.7433 260.035L83.3341 259.901L81.9453 259.694L80.5801 259.414L79.2414 259.057L77.9321 258.623L76.6548 258.111L75.4122 257.521L74.2064 256.853L73.0393 256.109L71.9128 255.291L70.8282 254.4L69.7863 253.44L68.7879 252.415L67.8332 251.327L66.9221 250.182L66.054 248.984L65.2281 247.738L64.4431 246.449L63.6973 245.123L62.989 243.765L62.3158 242.381L61.6753 240.976L61.0646 239.557L60.4808 238.127L59.9207 236.694L59.3809 235.262L58.8579 233.835L58.3479 232.42L57.8472 231.019L57.352 229.638L56.8581 228.281L56.3615 226.952L55.8581 225.653L55.3436 224.389L54.8137 223.162L54.2641 221.975L53.6901 220.832L53.0873 219.735L52.4508 218.685L51.7758 217.686L51.0572 216.739L50.2897 215.847L49.4679 215.011L48.5891 214.231L47.6552 213.501L46.6683 212.817L45.6305 212.171L44.5441 211.561L43.4115 210.98L42.2351 210.425L41.0177 209.891L39.7621 209.373L38.4714 208.868L37.1488 208.37L35.7979 207.876L34.4224 207.381L33.0264 206.882L31.614 206.375L30.1897 205.855L28.7584 205.32L27.3248 204.765L25.8942 204.187L24.4718 203.583L23.0632 202.95L21.6737 202.285L20.3091 201.585L18.975 200.848L17.6768 200.073L16.4201 199.257L15.21 198.399L14.0517 197.498L12.95 196.554L11.9091 195.566L10.9332 194.534L10.0257 193.46L9.18976 192.343L8.42781 191.186L7.74179 189.989L7.13303 188.755L6.60226 187.486L6.14958 186.184L5.77449 184.852L5.47591 183.493L5.2522 182.109L5.10118 180.705L5.02018 179.282L5.0061 177.844L5.05543 176.394L5.16433 174.936L5.32867 173.471L5.54407 172.003L5.80602 170.535L6.10983 169.069L6.45079 167.606L6.82413 166.15L7.22511 164.702L7.64904 163.264L8.09134 161.837L8.54753 160.423L9.01329 159.022L9.48446 157.635L9.95708 156.262L10.4274 154.905L10.8918 153.564L11.3469 152.238L11.7898 150.927L12.2173 149.631L12.6269 148.35L13.016 147.082L13.3825 145.829L13.7242 144.588L14.0393 143.358L14.3262 142.14L14.5833 140.931L14.8095 139.731L15.0036 138.539L15.1647 137.353L15.292 136.173L15.3849 134.997L15.4431 133.823L15.4663 132.651L15.4543 131.479L15.4073 130.306L15.3253 129.131L15.2089 127.952L15.0585 126.768L14.8749 125.578L14.6588 124.38L14.4114 123.175L14.1338 121.96L13.8275 120.734L13.4941 119.496L13.1353 118.247L12.7532 116.984L12.3498 115.707L11.9277 114.416L11.4895 113.11L11.0379 111.789L10.5761 110.452L10.1073 109.1L9.63503 107.733L9.16297 106.35L8.69505 104.954L8.23535 103.543L7.78815 102.12L7.35787 100.685L6.94908 99.2404L6.56642 97.7868L6.21464 96.3263L5.89847 94.8609L5.62268 93.3929L5.39195 91.9246L5.21087 90.4587L5.08385 88.9979L5.01511 87.5451L5.0086 86.1032L5.06792 84.6753L5.19632 83.2646L5.39662 81.8741L5.67115 80.5069L6.02172 79.1659L6.4496 77.8542L6.95549 76.5743L7.53945 75.3288L8.20097 74.1199L8.93891 72.9498L9.75154 71.82L10.6365 70.7319L11.591 69.6866L12.6116 68.6847L13.6944 67.7265L14.8352 66.812L16.0293 65.9405L17.2717 65.1112L18.5573 64.323L19.8806 63.5742L21.2361 62.8629L22.6182 62.187L24.0214 61.5439L25.44 60.931L26.8685 60.3452L28.3017 59.7833L29.7343 59.242L31.1614 58.7178L32.5781 58.2069L33.9798 57.7056L35.3623 57.2101L36.7214 56.7162L38.0534 56.22L39.3547 55.7173L40.6218 55.2038L41.8517 54.6753L43.0414 54.1274L44.1883 53.5556L45.2896 52.9552L46.3432 52.3216L47.3465 51.6498L48.2975 50.9349L49.1941 50.1715L50.0341 49.3541L50.8183 48.4799L51.5519 47.5503L52.2402 46.5675L52.8884 45.5336L53.5015 44.451L54.0841 43.322L54.641 42.149L55.1767 40.9347L55.6956 39.6821L56.2021 38.394L56.7004 37.0738L57.1947 35.725L57.6891 34.3513L58.1876 32.9568L58.6942 31.5455L59.2127 30.122L59.7467 28.691L60.3 27.2574L60.8759 25.8263L61.4776 24.4031L62.1083 22.9931L62.7709 21.602L63.4677 20.2352L64.2013 18.8984L64.9737 17.5971L65.7864 16.3369L66.641 15.1229L67.5383 13.9603L68.4791 12.8539L69.4636 11.808L70.4916 10.8268L71.5627 9.91371L72.6761 9.07195L73.8303 8.30402L75.024 7.6119L76.2551 6.99695L77.5216 6.45995L78.821 6.00105L80.1506 5.61981L81.5077 5.31519L82.8893 5.08559L84.2924 4.92887L85.7138 4.84241L87.1504 4.82312L88.5992 4.86754L90.0572 4.97184L91.5214 5.13192L92.989 5.34343L94.4574 5.60184L95.9241 5.90249L97.3868 6.24067L98.8434 6.61161L100.292 7.01056L101.731 7.43284L103.159 7.87385L104.574 8.3291L105.977 8.79425L107.365 9.26514L108.738 9.73779L110.096 10.2084L111.439 10.6734L112.766 11.1294L114.079 11.5734L115.376 12.0022L116.658 12.4133L117.926 12.8042L119.181 13.1725L120.423 13.5163L121.653 13.8336L122.873 14.1228L124.082 14.3823L125.283 14.611L126.475 14.8077L127.661 14.9714L128.842 15.1015L130.019 15.1972L131.193 15.2582L132.365 15.2841L133.537 15.2749L134.71 15.2307L135.885 15.1515L137.063 15.0378L138.247 14.8901L139.436 14.709L140.633 14.4955L141.838 14.2506L143.052 13.9754L144.277 13.6713L145.513 13.34L146.762 12.9831L148.024 12.6028L149.299 12.201L150.589 11.7803L151.894 11.3432L153.214 10.8926L154.55 10.4315L155.901 9.96313L157.267 9.49099L158.648 9.01877L160.043 8.55037L161.453 8.08986L162.875 7.6415L164.309 7.2097L165.753 6.79902L167.206 6.41411L168.666 6.05969L170.131 5.74051L171.599 5.46133L173.067 5.22684L174.533 5.04163L175.995 4.91015L177.448 4.83662L178.891 4.82502L180.32 4.87897L181.732 5.00177L183.124 5.19625L184.494 5.46479L185.837 5.80926L187.151 6.23096L188.433 6.73062L189.682 7.30839L190.894 7.96377L192.067 8.69569L193.2 9.50246L194.291 10.3818L195.34 11.3309L196.345 12.3463L197.307 13.4244L198.225 14.5607L199.1 15.7508L199.933 16.9895L200.724 18.2719L201.476 19.5924L202.19 20.9455L202.869 22.3258L203.514 23.7274L204.13 25.145L204.717 26.573L205.281 28.006L205.824 29.4389L206.349 30.8666L206.861 32.2843L207.363 33.6874L207.859 35.0716L208.353 36.4327L208.849 37.767L209.351 39.0708L209.863 40.3408L210.39 41.5738L210.936 42.7668L211.506 43.9172L212.104 45.0223L212.735 46.0797L213.403 47.0872L214.115 48.0425L214.874 48.9434L215.687 49.788L216.557 50.5765L217.482 51.314L218.46 52.0057L219.49 52.6569L220.569 53.2726L221.695 53.8575L222.864 54.4162L224.075 54.9535L225.325 55.4736L226.61 55.9809L227.928 56.4797L229.275 56.9741L230.646 57.4684L232.04 57.9665L233.45 58.4723L234.872 58.9896L236.303 59.5223L237.736 60.074L239.168 60.6479L240.592 61.2475L242.003 61.8758L243.396 62.5357L244.765 63.2298L246.104 63.9604L247.409 64.7295L248.672 65.539L249.89 66.3902L251.057 67.2841L252.168 68.2215L253.219 69.2025L254.205 70.2271L255.124 71.2948L255.971 72.4048L256.745 73.5559L257.444 74.7465L258.065 75.9747L258.608 77.2385L259.073 78.5354L259.46 79.8627L259.771 81.2177L260.007 82.5975L260.169 83.999L260.261 85.419L260.285 86.8546L260.246 88.3026L260.146 89.76L259.99 91.2238L259.783 92.6912L259.528 94.1597L259.231 95.6266L258.895 97.0897L258.527 98.5469L258.13 99.9962L257.709 101.436L257.27 102.865L256.815 104.281L256.351 105.685L255.88 107.074L255.408 108.449L254.937 109.808L254.471 111.152L254.014 112.481L253.569 113.794L253.139 115.092L252.727 116.376L252.334 117.645L251.964 118.901L251.618 120.144L251.298 121.375L251.007 122.595L250.745 123.805L250.514 125.007L250.315 126.2L250.148 127.387L250.015 128.568L249.917 129.745L249.853 130.919L249.824 132.091L249.823 132.464Z" fill="#1714A5" stroke="#6EBBB1" stroke-width="9.61142"/>
<path d="M133.975 127.444C131.992 126.195 128.898 124.246 128.898 124.246C128.898 124.246 98.1505 124.775 81.6717 133.007C77.457 135.112 74.412 135.755 71.3649 139.126C68.5896 142.196 66.9038 148.443 66.9038 148.443V217.835H71.3649L74.5954 150.112C74.5954 150.112 93.844 155.5 106.593 156.369C113.571 156.845 124.514 156.369 124.514 156.369H128.898H142.435C142.435 156.369 142.218 147.752 144.589 142.88C148.116 135.634 161.049 129.113 161.049 129.113C161.049 129.113 153.823 129.333 149.204 129.113C143.221 128.829 139.859 128.46 133.975 127.444Z" fill="#D9D9D9"/>
<path d="M163.049 133.007L161.049 129.113C161.049 129.113 148.116 135.634 144.589 142.88C142.218 147.752 142.435 156.369 142.435 156.369L144.589 223.675H149.204C149.204 223.675 146.589 185.711 146.589 154.84C146.589 151.086 147.452 148.926 149.204 145.522C152.431 139.256 163.049 133.007 163.049 133.007Z" fill="#BEB6B6"/>
<path d="M111.054 63.476C108.575 70.5706 105.646 76.9184 111.054 82.5275C116.329 88.0001 122.001 88.1919 128.898 84.4743C133.224 85.098 138.11 86.4284 142.435 87.0521C146.581 87.6497 153.05 88.5825 153.05 88.5825C153.05 88.5825 158.769 89.4071 162.434 89.9354C165.69 91.5439 168.169 91.9013 171.817 91.2884C181.458 89.6687 179.899 78.4361 179.201 69.5947C177.299 45.4796 119.108 40.4222 111.054 63.476Z" fill="#D9D9D9"/>
<path d="M153.05 88.5825C153.05 88.5825 175.773 112.324 166.279 124.246C164.567 126.397 161.049 129.113 161.049 129.113L163.049 133.007H169.202C169.202 133.007 175.906 153.009 180.201 165.825C185.794 182.513 191.2 198.644 191.2 198.644H197.969C197.969 198.644 176.311 132.389 162.434 89.9354C158.769 89.4071 153.05 88.5825 153.05 88.5825Z" fill="#BEB6B6"/>
<path d="M124.514 156.369L120.745 185.711H124.514L128.898 156.369H124.514Z" fill="#BEB6B6"/>
<path d="M128.898 84.4743C129.919 86.7523 133.161 88.9431 133.975 91.2884C138.278 103.687 128.898 124.246 128.898 124.246C128.898 124.246 131.992 126.195 133.975 127.444C136.017 113.325 139.205 91.2884 139.205 91.2884C139.205 91.2884 141.174 88.7065 142.435 87.0521C138.11 86.4284 133.224 85.098 128.898 84.4743Z" fill="#BEB6B6"/>
<path d="M128.898 84.4743C122.001 88.1919 116.329 88.0001 111.054 82.5275C105.646 76.9184 108.575 70.5706 111.054 63.476C119.108 40.4222 177.299 45.4796 179.201 69.5947C179.899 78.4361 181.458 89.6687 171.817 91.2884C168.169 91.9013 165.69 91.5439 162.434 89.9354M128.898 84.4743C129.919 86.7523 133.161 88.9431 133.975 91.2884C138.278 103.687 128.898 124.246 128.898 124.246M128.898 84.4743C133.224 85.098 138.11 86.4284 142.435 87.0521M128.898 124.246C128.898 124.246 131.992 126.195 133.975 127.444M128.898 124.246C128.898 124.246 98.1505 124.775 81.6717 133.007C77.457 135.112 74.412 135.755 71.3649 139.126C68.5896 142.196 66.9038 148.443 66.9038 148.443V217.835H71.3649L74.5954 150.112C74.5954 150.112 93.844 155.5 106.593 156.369C113.571 156.845 124.514 156.369 124.514 156.369M133.975 127.444C136.017 113.325 139.205 91.2884 139.205 91.2884C139.205 91.2884 141.174 88.7065 142.435 87.0521M133.975 127.444C139.859 128.46 143.221 128.829 149.204 129.113C153.823 129.333 161.049 129.113 161.049 129.113M142.435 87.0521C146.581 87.6497 153.05 88.5825 153.05 88.5825M153.05 88.5825C153.05 88.5825 175.773 112.324 166.279 124.246C164.567 126.397 161.049 129.113 161.049 129.113M153.05 88.5825C153.05 88.5825 158.769 89.4071 162.434 89.9354M161.049 129.113L163.049 133.007M161.049 129.113C161.049 129.113 148.116 135.634 144.589 142.88C142.218 147.752 142.435 156.369 142.435 156.369M163.049 133.007H169.202C169.202 133.007 175.906 153.009 180.201 165.825C185.794 182.513 191.2 198.644 191.2 198.644H197.969C197.969 198.644 176.311 132.389 162.434 89.9354M163.049 133.007C163.049 133.007 152.431 139.256 149.204 145.522C147.452 148.926 146.589 151.086 146.589 154.84C146.589 185.711 149.204 223.675 149.204 223.675H144.589L142.435 156.369M142.435 156.369H128.898M124.514 156.369L120.745 185.711H124.514L128.898 156.369M124.514 156.369H128.898" stroke="black" stroke-width="1.12433"/>
<path d="M163.049 133.007L161.049 129.113C161.049 129.113 148.116 135.634 144.589 142.88C142.218 147.752 142.435 156.369 142.435 156.369L144.589 223.675H149.204C149.204 223.675 146.589 185.711 146.589 154.84C146.589 151.086 147.452 148.926 149.204 145.522C152.431 139.256 163.049 133.007 163.049 133.007Z" fill="#CE45B8"/>
<path d="M111.054 63.476C108.575 70.5706 105.646 76.9184 111.054 82.5275C116.329 88.0001 122.001 88.1919 128.898 84.4743C133.224 85.098 138.11 86.4284 142.435 87.0521C146.581 87.6497 153.05 88.5825 153.05 88.5825C153.05 88.5825 158.769 89.4071 162.434 89.9354C165.69 91.5439 168.169 91.9013 171.817 91.2884C181.458 89.6687 179.899 78.4361 179.201 69.5947C177.299 45.4796 119.108 40.4222 111.054 63.476Z" fill="#D9D9D9"/>
<path d="M153.05 88.5825C153.05 88.5825 175.773 112.324 166.279 124.246C164.567 126.397 161.049 129.113 161.049 129.113L163.049 133.007H169.202C169.202 133.007 175.906 153.009 180.201 165.826C185.794 182.513 191.2 198.644 191.2 198.644H197.969C197.969 198.644 176.311 132.389 162.434 89.9354C158.769 89.4071 153.05 88.5825 153.05 88.5825Z" fill="#CE45B8"/>
<path d="M124.514 156.369L120.745 185.711H124.514L128.898 156.369H124.514Z" fill="#CE45B8"/>
<path d="M128.898 84.4743C129.919 86.7523 133.161 88.9431 133.975 91.2884C138.278 103.687 128.898 124.246 128.898 124.246C128.898 124.246 131.992 126.195 133.975 127.444C136.017 113.325 139.205 91.2884 139.205 91.2884C139.205 91.2884 141.174 88.7065 142.435 87.0521C138.11 86.4284 133.224 85.098 128.898 84.4743Z" fill="#CE45B8"/>
<path fill-rule="evenodd" clip-rule="evenodd" d="M128.898 124.246L133.975 127.444C139.859 128.46 143.221 128.829 149.204 129.113C153.823 129.333 161.049 129.113 161.049 129.113C161.049 129.113 148.116 135.634 144.589 142.88C142.218 147.752 142.435 156.369 142.435 156.369H128.898H124.514C124.514 156.369 113.571 156.845 106.593 156.369C93.844 155.5 74.5954 150.112 74.5954 150.112L66.9038 148.443C66.9038 148.443 68.5896 142.196 71.3649 139.126C73.6272 136.623 75.8884 135.624 78.6279 134.414C79.5782 133.994 80.5862 133.549 81.6717 133.007C98.1505 124.775 128.898 124.246 128.898 124.246Z" fill="#D9D9D9"/>
<path d="M71.3649 217.835L74.5954 150.112L66.9038 148.443V217.835H71.3649Z" fill="#CE45B8"/>
<path d="M128.898 84.4743C122.001 88.1919 116.329 88.0001 111.054 82.5275C105.646 76.9184 108.575 70.5706 111.054 63.476C119.108 40.4222 177.299 45.4796 179.201 69.5947C179.899 78.4361 181.458 89.6687 171.817 91.2884C168.169 91.9013 165.69 91.5439 162.434 89.9354M128.898 84.4743C129.919 86.7523 133.161 88.9431 133.975 91.2884C138.278 103.687 128.898 124.246 128.898 124.246M128.898 84.4743C133.224 85.098 138.11 86.4284 142.435 87.0521M128.898 124.246C128.898 124.246 131.992 126.195 133.975 127.444M128.898 124.246C128.898 124.246 98.1505 124.775 81.6717 133.007C80.5862 133.549 79.5782 133.994 78.6279 134.414C75.8884 135.624 73.6272 136.623 71.3649 139.126C68.5896 142.196 66.9038 148.443 66.9038 148.443M128.898 124.246L133.975 127.444M133.975 127.444C136.017 113.325 139.205 91.2884 139.205 91.2884C139.205 91.2884 141.174 88.7065 142.435 87.0521M133.975 127.444C139.859 128.46 143.221 128.829 149.204 129.113C153.823 129.333 161.049 129.113 161.049 129.113M142.435 87.0521C146.581 87.6497 153.05 88.5825 153.05 88.5825M153.05 88.5825C153.05 88.5825 175.773 112.324 166.279 124.246C164.567 126.397 161.049 129.113 161.049 129.113M153.05 88.5825C153.05 88.5825 158.769 89.4071 162.434 89.9354M161.049 129.113L163.049 133.007M161.049 129.113C161.049 129.113 148.116 135.634 144.589 142.88C142.218 147.752 142.435 156.369 142.435 156.369M163.049 133.007H169.202C169.202 133.007 175.906 153.009 180.201 165.826C185.794 182.513 191.2 198.644 191.2 198.644H197.969C197.969 198.644 176.311 132.389 162.434 89.9354M163.049 133.007C163.049 133.007 152.431 139.256 149.204 145.522C147.452 148.926 146.589 151.086 146.589 154.84C146.589 185.711 149.204 223.675 149.204 223.675H144.589L142.435 156.369M142.435 156.369H128.898M74.5954 150.112C74.5954 150.112 93.844 155.5 106.593 156.369C113.571 156.845 124.514 156.369 124.514 156.369M74.5954 150.112L71.3649 217.835H66.9038V148.443M74.5954 150.112L66.9038 148.443M124.514 156.369L120.745 185.711H124.514L128.898 156.369M124.514 156.369H128.898" stroke="black" stroke-width="1.30568"/>
<path d="M38.1434 121.71C38.8237 121.803 39.421 121.796 39.9353 121.689C40.4496 121.582 40.8876 121.384 41.2495 121.095C41.6125 120.798 41.9022 120.419 42.1186 119.957C42.336 119.487 42.4875 118.94 42.5731 118.315C42.6749 117.571 42.7041 116.681 42.6608 115.643C42.6175 114.606 42.49 113.448 42.2781 112.17L47.8313 112.93C48.0841 114.262 48.2225 115.547 48.2467 116.783C48.2719 118.011 48.2044 119.211 48.0441 120.382C47.8481 121.813 47.4865 123.13 46.9594 124.331C46.4334 125.524 45.7115 126.529 44.7937 127.347C43.8691 128.155 42.7654 128.741 41.4826 129.105C40.1997 129.47 38.7395 129.54 37.1021 129.315C35.5041 129.097 34.1608 128.667 33.0719 128.026C31.9841 127.378 31.1291 126.56 30.5068 125.572C29.8777 124.575 29.4702 123.431 29.2842 122.141C29.0994 120.842 29.1109 119.433 29.3189 117.915C29.4467 116.981 29.609 116.149 29.8057 115.418C30.0035 114.68 30.2148 114.02 30.4395 113.438C30.6642 112.856 30.8989 112.349 31.1436 111.915C31.3816 111.472 31.6085 111.08 31.8245 110.739L37.2827 111.486L36.7937 115.058C36.1689 115.383 35.6879 115.777 35.3507 116.238C35.0146 116.692 34.8108 117.18 34.7393 117.702C34.6787 118.145 34.7067 118.588 34.8233 119.031C34.941 119.466 35.1438 119.868 35.4316 120.238C35.7194 120.608 36.0911 120.925 36.5466 121.189C36.9941 121.451 37.5264 121.625 38.1434 121.71Z" fill="#FDCA4D"/>
<path d="M53.3571 100.294C52.986 101.194 52.5717 102.043 52.1141 102.839C51.6597 103.627 51.129 104.328 50.5221 104.942C49.9183 105.548 49.2554 106.056 48.5335 106.467C47.8042 106.874 47.0177 107.159 46.1738 107.321C45.3226 107.479 44.4149 107.503 43.4508 107.39C42.4824 107.268 41.4556 106.983 40.3704 106.535C39.3517 106.116 38.4813 105.619 37.7593 105.045C37.0372 104.471 36.447 103.839 35.9886 103.149C35.5302 102.46 35.1953 101.721 34.984 100.935C34.7758 100.141 34.6783 99.3193 34.6916 98.4698C34.7005 97.6099 34.8083 96.7303 35.0148 95.8309C35.2244 94.9242 35.5178 94.0132 35.895 93.0978C36.2722 92.1824 36.7059 91.3292 37.196 90.538C37.6861 89.7469 38.2309 89.0431 38.8304 88.4266C39.4298 87.8101 40.0816 87.2971 40.7857 86.8878C41.4929 86.4711 42.2521 86.1795 43.0634 86.0129C43.8747 85.8464 44.7387 85.8138 45.6554 85.9153C46.5648 86.0137 47.5289 86.2728 48.5476 86.6926C50.1421 87.3497 51.4035 88.1761 52.3317 89.1717C53.2556 90.1569 53.8937 91.2489 54.246 92.4476C54.5983 93.6464 54.6815 94.9113 54.4957 96.2423C54.3025 97.5703 53.923 98.9208 53.3571 100.294ZM40.9554 95.1832C40.7607 95.6556 40.6591 96.0801 40.6508 96.4566C40.6381 96.8227 40.6873 97.1539 40.7984 97.4501C40.9125 97.7389 41.0723 97.9904 41.2776 98.2046C41.483 98.4187 41.7027 98.6086 41.9367 98.7741C42.1738 98.9323 42.4126 99.0652 42.6532 99.173C42.8937 99.2808 43.1063 99.3727 43.2908 99.4487C43.4754 99.5248 43.691 99.6093 43.9376 99.7023C44.1843 99.7953 44.4511 99.8707 44.7382 99.9286C45.0209 99.976 45.3142 99.9976 45.6182 99.9933C45.9222 99.9891 46.2202 99.9262 46.5121 99.8047C46.7996 99.6727 47.0715 99.4739 47.3278 99.2082C47.5872 98.9351 47.8142 98.5623 48.0089 98.0899C48.2036 97.6174 48.3036 97.1966 48.3089 96.8275C48.3172 96.451 48.2659 96.1146 48.1548 95.8184C48.0363 95.5191 47.8707 95.2609 47.658 95.0437C47.4483 94.8191 47.2249 94.6277 46.9878 94.4696C46.7433 94.3084 46.5008 94.1739 46.2603 94.0661C46.0228 93.951 45.8117 93.8554 45.6272 93.7793C45.4426 93.7033 45.2255 93.6224 44.9758 93.5368C44.7292 93.4438 44.466 93.3699 44.1863 93.3151C43.9067 93.2603 43.617 93.2403 43.3173 93.2549C43.0207 93.2622 42.7286 93.3319 42.4411 93.4638C42.1536 93.5957 41.8838 93.7998 41.6319 94.0759C41.3756 94.3416 41.1501 94.7107 40.9554 95.1832Z" fill="#FDCA4D"/>
<path d="M65.0627 79.6391C64.4634 80.407 63.8364 81.1128 63.182 81.7566C62.5324 82.3941 61.833 82.9269 61.0837 83.3548C60.3392 83.7765 59.5642 84.0882 58.7586 84.2899C57.9466 84.4866 57.1125 84.5496 56.2562 84.4788C55.3936 84.4031 54.513 84.1817 53.6145 83.8146C52.7146 83.4362 51.8021 82.886 50.8769 82.1638C50.0083 81.4859 49.3033 80.7735 48.7619 80.0268C48.2205 79.2801 47.8217 78.5129 47.5653 77.7254C47.309 76.9378 47.1847 76.1369 47.1924 75.3225C47.205 74.5018 47.3318 73.6841 47.5727 72.8694C47.8122 72.0435 48.1522 71.2251 48.5927 70.4143C49.0381 69.5971 49.5654 68.7984 50.1746 68.0179C50.7837 67.2375 51.4306 66.532 52.1152 65.9016C52.7997 65.2711 53.5135 64.7395 54.2565 64.3066C54.9996 63.8737 55.7652 63.5547 56.5533 63.3494C57.3464 63.1379 58.156 63.0609 58.9823 63.1184C59.8085 63.1758 60.6495 63.3765 61.5053 63.7204C62.3549 64.0594 63.2139 64.5679 64.0825 65.2459C65.4419 66.307 66.4351 67.4418 67.0618 68.6501C67.6872 69.8473 68.0086 71.0705 68.026 72.3198C68.0434 73.5691 67.7839 74.8099 67.2475 76.0421C66.7048 77.2695 65.9765 78.4685 65.0627 79.6391ZM54.489 71.3856C54.1746 71.7884 53.9628 72.1701 53.8536 72.5305C53.7431 72.8798 53.7015 73.212 53.729 73.5271C53.7614 73.836 53.8477 74.1212 53.988 74.3826C54.1283 74.644 54.289 74.8859 54.4699 75.1082C54.6558 75.3242 54.8502 75.5164 55.053 75.6849C55.2557 75.8533 55.4358 75.9989 55.5932 76.1217C55.7505 76.2445 55.9355 76.3838 56.1481 76.5397C56.3607 76.6955 56.5975 76.8398 56.8585 76.9726C57.1181 77.0942 57.3948 77.1938 57.6888 77.2713C57.9828 77.3489 58.2867 77.3683 58.6005 77.3296C58.9129 77.2798 59.2282 77.1613 59.5464 76.9741C59.8696 76.7807 60.1884 76.4826 60.5028 76.0798C60.8172 75.677 61.0266 75.2985 61.1308 74.9444C61.24 74.5839 61.2808 74.2461 61.2534 73.9309C61.2196 73.6109 61.1294 73.3176 60.9828 73.0513C60.8412 72.7786 60.6774 72.5343 60.4915 72.3183C60.2993 72.0974 60.1018 71.9027 59.899 71.7343C59.7011 71.5596 59.5235 71.4108 59.3662 71.288C59.2088 71.1652 59.0214 71.029 58.8039 70.8795C58.5913 70.7236 58.3576 70.5818 58.103 70.4539C57.8483 70.326 57.5746 70.2289 57.282 70.1626C56.9944 70.0899 56.6943 70.0786 56.3819 70.1284C56.0695 70.1783 55.7549 70.3024 55.438 70.5007C55.1198 70.6879 54.8034 70.9828 54.489 71.3856Z" fill="#FDCA4D"/>
<path d="M78.04 59.7549C78.3393 59.5155 78.5924 59.2568 78.7995 58.9788C79.0015 58.6945 79.1699 58.4065 79.3046 58.1147C79.4393 57.823 79.5398 57.5331 79.6059 57.2451C79.6783 56.952 79.7257 56.679 79.7482 56.4258L81.3102 55.1767L85.14 59.9655L73.729 69.0912L70.4827 65.0319L71.4929 63.8406L66.8702 58.0603L65.486 58.7839L62.2397 54.7246L70.6202 48.0225L73.8665 52.0818L72.8563 53.2731L78.04 59.7549Z" fill="#FDCA4D"/>
<path d="M108.076 42.7494C108.349 43.4914 108.489 44.1894 108.498 44.8435C108.512 45.4873 108.415 46.0876 108.208 46.6444C107.997 47.1937 107.701 47.7073 107.319 48.1853C106.934 48.6558 106.491 49.0882 105.992 49.4825C105.49 49.8693 104.933 50.2039 104.323 50.4865C103.723 50.7737 103.11 51.0361 102.483 51.2739C101.348 51.7041 100.334 52.0371 99.4417 52.273C98.9264 52.4001 98.1287 52.5146 97.0488 52.6166C96.1679 52.7029 95.4544 52.713 94.9085 52.6467L93.2315 48.2232L96.6023 46.9454C97.1943 47.3357 97.7811 47.5658 98.3626 47.6357C98.9516 47.7028 99.5036 47.6386 100.019 47.4433C100.153 47.3924 100.298 47.3246 100.454 47.2399C100.61 47.1553 100.739 47.0338 100.841 46.8755C100.951 46.7144 101.012 46.5034 101.024 46.2426C101.043 45.979 100.977 45.6457 100.824 45.2425C100.159 45.4262 99.4883 45.5823 98.8112 45.7109C98.1417 45.8367 97.4826 45.9115 96.8342 45.9353C96.1857 45.9591 95.5562 45.9202 94.9456 45.8187C94.3397 45.7069 93.7745 45.5113 93.2502 45.2319C92.7334 44.9496 92.2643 44.5682 91.843 44.0875C91.4263 43.5965 91.0779 42.9814 90.7977 42.2423C90.4977 41.451 90.339 40.717 90.3216 40.0405C90.3014 39.3565 90.3884 38.7301 90.5826 38.1612C90.7814 37.5821 91.0697 37.0587 91.4474 36.591C91.8298 36.113 92.2684 35.6821 92.7632 35.2981C93.2655 34.9113 93.8105 34.5808 94.3983 34.3068C94.9935 34.0299 95.5935 33.7768 96.1982 33.5476C97.0792 33.2136 97.8833 32.9472 98.6105 32.7483C99.3424 32.5392 100.018 32.3943 100.636 32.3135C101.254 32.2328 101.812 32.1963 102.311 32.2038C102.813 32.2011 103.266 32.213 103.669 32.2396L105.325 36.6071L101.954 37.8849C101.369 37.4917 100.794 37.2574 100.227 37.1819C99.6681 37.1035 99.1422 37.1577 98.6495 37.3445C98.5151 37.3955 98.3691 37.4721 98.2115 37.5746C98.0511 37.6695 97.9203 37.8088 97.8191 37.9923C97.7151 38.1684 97.6561 38.3956 97.6422 38.6742C97.6254 38.9452 97.6934 39.2823 97.8462 39.6855C99.1697 39.235 100.373 38.941 101.457 38.8035C102.54 38.6659 103.503 38.7153 104.343 38.9515C105.189 39.1774 105.923 39.6037 106.545 40.2304C107.164 40.8496 107.674 41.6893 108.076 42.7494Z" fill="#FDCA4D"/>
<path d="M126.511 26.6129L127.401 32.6799L125.411 32.9719C125.251 32.8179 125.071 32.6627 124.87 32.5065C124.67 32.3503 124.453 32.2168 124.218 32.1059C123.983 31.9871 123.733 31.9028 123.467 31.853C123.2 31.7952 122.921 31.7878 122.629 31.8307L123.833 40.0424L125.394 40.1162L126.148 45.2589L115.531 46.8165L114.776 41.6738L116.25 41.1551L115.045 32.9433C114.753 32.9862 114.487 33.0736 114.248 33.2055C114.008 33.3294 113.793 33.4821 113.601 33.6635C113.409 33.837 113.239 34.0273 113.092 34.2345C112.945 34.4417 112.817 34.6421 112.708 34.8356L110.717 35.1276L109.827 29.0607L126.511 26.6129Z" fill="#FDCA4D"/>
<path d="M142.153 45.495C141.183 45.4017 140.251 45.2519 139.356 45.0455C138.47 44.8399 137.645 44.536 136.881 44.1337C136.126 43.7322 135.447 43.2457 134.844 42.6744C134.242 42.0951 133.741 41.4253 133.341 40.6649C132.941 39.8966 132.655 39.0349 132.483 38.0798C132.318 37.1175 132.293 36.0522 132.405 34.8839C132.51 33.7872 132.733 32.8099 133.072 31.9522C133.411 31.0945 133.844 30.346 134.371 29.7069C134.897 29.0677 135.506 28.5327 136.197 28.1019C136.897 27.6718 137.654 27.3397 138.471 27.1054C139.296 26.8639 140.169 26.7113 141.09 26.6474C142.018 26.5843 142.975 26.6002 143.961 26.695C144.946 26.7897 145.889 26.9566 146.788 27.1955C147.688 27.4344 148.52 27.7511 149.284 28.1454C150.048 28.5398 150.728 29.0143 151.325 29.5689C151.929 30.1244 152.429 30.766 152.824 31.4938C153.219 32.2217 153.501 33.0389 153.671 33.9455C153.841 34.8442 153.874 35.842 153.768 36.9387C153.603 38.6554 153.179 40.1025 152.496 41.2801C151.822 42.4506 150.963 43.3786 149.918 44.0642C148.874 44.7498 147.688 45.1972 146.36 45.4064C145.033 45.6076 143.631 45.6371 142.153 45.495ZM143.437 32.143C142.928 32.0941 142.493 32.1204 142.13 32.2219C141.776 32.3161 141.473 32.4595 141.222 32.6519C140.979 32.8451 140.785 33.0711 140.64 33.3298C140.494 33.5886 140.377 33.854 140.286 34.126C140.204 34.3988 140.146 34.666 140.113 34.9275C140.08 35.189 140.054 35.4191 140.035 35.6178C140.015 35.8165 139.997 36.0473 139.98 36.3104C139.963 36.5734 139.968 36.8507 139.996 37.1421C140.033 37.4264 140.098 37.7134 140.19 38.003C140.283 38.2926 140.429 38.5594 140.631 38.8033C140.84 39.0401 141.11 39.2425 141.438 39.4104C141.775 39.5792 142.198 39.688 142.706 39.7369C143.215 39.7859 143.647 39.7592 144.002 39.657C144.364 39.5555 144.671 39.4086 144.922 39.2161C145.174 39.0158 145.373 38.7822 145.519 38.5155C145.673 38.2496 145.791 37.9802 145.873 37.7074C145.957 37.4267 146.015 37.1555 146.048 36.894C146.089 36.6333 146.119 36.4036 146.138 36.2049C146.157 36.0062 146.172 35.7749 146.181 35.5111C146.198 35.2481 146.192 34.9748 146.164 34.6913C146.135 34.4078 146.07 34.1248 145.969 33.8424C145.875 33.5607 145.724 33.3015 145.514 33.0647C145.304 32.828 145.03 32.6292 144.693 32.4684C144.364 32.3004 143.946 32.192 143.437 32.143Z" fill="#FDCA4D"/>
<path d="M165.873 45.7764C166.236 45.901 166.59 45.9764 166.936 46.0024C167.284 46.0209 167.617 46.0089 167.936 45.9665C168.254 45.9241 168.553 45.8537 168.832 45.7553C169.118 45.6596 169.374 45.5535 169.6 45.4369L171.491 46.0875L169.497 51.886L155.68 47.1336L157.37 42.2185L158.917 42.434L161.325 35.435L159.973 34.6533L161.663 29.7381L171.811 33.2284L170.12 38.1435L168.573 37.928L165.873 45.7764Z" fill="#FDCA4D"/>
<path d="M191.687 54.0326C191.27 54.5779 190.981 55.1005 190.82 55.6004C190.658 56.1003 190.614 56.579 190.686 57.0364C190.765 57.4986 190.951 57.938 191.246 58.3544C191.547 58.7757 191.948 59.178 192.449 59.5612C193.045 60.0173 193.805 60.4828 194.728 60.958C195.651 61.4331 196.721 61.8945 197.937 62.3421L194.531 66.7937C193.248 66.355 192.063 65.8406 190.976 65.2505C189.896 64.6653 188.887 64.0137 187.948 63.2957C186.8 62.4175 185.835 61.4525 185.051 60.4007C184.274 59.3536 183.757 58.2292 183.5 57.0275C183.254 55.8242 183.29 54.575 183.608 53.2797C183.925 51.9845 184.586 50.6805 185.59 49.3679C186.57 48.0869 187.608 47.1315 188.703 46.5016C189.804 45.8766 190.938 45.5377 192.105 45.485C193.282 45.4308 194.478 45.6419 195.692 46.1182C196.912 46.5994 198.131 47.3057 199.348 48.2372C200.097 48.8097 200.74 49.362 201.277 49.8941C201.822 50.4311 202.291 50.941 202.686 51.4239C203.08 51.9067 203.406 52.3618 203.662 52.789C203.929 53.2147 204.158 53.6058 204.348 53.9621L201 58.3376L198.137 56.1471C198.163 55.4431 198.059 54.8305 197.824 54.3093C197.596 53.7929 197.273 53.3746 196.854 53.0544C196.499 52.7827 196.1 52.5881 195.657 52.4704C195.221 52.3577 194.771 52.335 194.307 52.4024C193.843 52.4698 193.384 52.6363 192.929 52.9018C192.48 53.161 192.066 53.5379 191.687 54.0326Z" fill="#FDCA4D"/>
<path d="M202.839 77.8701C202.238 77.1037 201.703 76.3255 201.236 75.5355C200.773 74.7517 200.424 73.9447 200.189 73.1145C199.958 72.2905 199.842 71.4633 199.84 70.6328C199.844 69.7974 199.984 68.9725 200.258 68.1584C200.539 67.3393 200.966 66.5378 201.538 65.7538C202.121 64.9713 202.875 64.2178 203.798 63.4933C204.665 62.8132 205.526 62.3001 206.381 61.9541C207.236 61.608 208.077 61.4053 208.903 61.3458C209.729 61.2863 210.536 61.3581 211.325 61.5614C212.118 61.7709 212.882 62.0905 213.615 62.5202C214.359 62.9513 215.071 63.478 215.752 64.1005C216.439 64.7292 217.087 65.4331 217.698 66.212C218.309 66.9909 218.839 67.7884 219.286 68.6044C219.734 69.4205 220.078 70.2411 220.32 71.0664C220.561 71.8918 220.687 72.7116 220.697 73.526C220.711 74.3466 220.591 75.151 220.337 75.9392C220.083 76.7274 219.686 77.4955 219.146 78.2436C218.613 78.9867 217.913 79.6983 217.046 80.3785C215.689 81.443 214.349 82.1342 213.025 82.4521C211.713 82.7714 210.448 82.7893 209.231 82.5059C208.014 82.2225 206.872 81.6724 205.805 80.8554C204.744 80.0336 203.756 79.0385 202.839 77.8701ZM213.392 69.5904C213.077 69.1884 212.757 68.8911 212.434 68.6984C212.121 68.5072 211.809 68.387 211.496 68.3379C211.189 68.2951 210.891 68.3103 210.604 68.3837C210.316 68.457 210.043 68.5548 209.783 68.6771C209.529 68.8056 209.296 68.948 209.083 69.1044C208.871 69.2607 208.687 69.4005 208.53 69.5237C208.373 69.6469 208.193 69.793 207.99 69.9619C207.788 70.1308 207.591 70.326 207.399 70.5474C207.219 70.7701 207.056 71.0149 206.91 71.2816C206.764 71.5483 206.672 71.8386 206.634 72.1525C206.607 72.4677 206.647 72.8023 206.752 73.1562C206.862 73.5163 207.075 73.8974 207.39 74.2995C207.705 74.7015 208.023 74.9957 208.341 75.182C208.665 75.3746 208.983 75.4955 209.296 75.5446C209.614 75.5888 209.921 75.5717 210.214 75.4934C210.513 75.4215 210.79 75.3212 211.044 75.1927C211.305 75.0592 211.541 74.9143 211.753 74.758C211.97 74.6079 212.158 74.4713 212.315 74.348C212.472 74.2248 212.649 74.0756 212.846 73.9004C213.049 73.7315 213.243 73.5388 213.428 73.3224C213.613 73.1059 213.773 72.8636 213.908 72.5956C214.048 72.3338 214.131 72.0452 214.158 71.73C214.184 71.4148 214.139 71.0795 214.023 70.7243C213.918 70.3704 213.708 69.9924 213.392 69.5904Z" fill="#FDCA4D"/>
<path d="M215.079 98.2342C214.705 97.3346 214.399 96.4416 214.16 95.555C213.925 94.6759 213.805 93.8048 213.801 92.9419C213.801 92.0864 213.911 91.2583 214.131 90.4577C214.36 89.654 214.715 88.8968 215.198 88.1862C215.689 87.4725 216.315 86.8148 217.076 86.2132C217.848 85.6159 218.776 85.0922 219.86 84.642C220.878 84.2195 221.845 83.9562 222.761 83.8523C223.678 83.7483 224.542 83.7785 225.354 83.9428C226.165 84.1072 226.924 84.393 227.629 84.8004C228.337 85.2152 228.987 85.7279 229.578 86.3385C230.179 86.9534 230.724 87.652 231.213 88.4344C231.705 89.2242 232.141 90.0763 232.521 90.9906C232.901 91.905 233.197 92.8152 233.409 93.7214C233.621 94.6275 233.732 95.5105 233.744 96.3704C233.755 97.2303 233.656 98.0537 233.447 98.8409C233.241 99.6354 232.909 100.378 232.453 101.069C231.996 101.76 231.408 102.394 230.687 102.969C229.974 103.542 229.109 104.04 228.091 104.463C226.499 105.124 225.022 105.43 223.662 105.381C222.312 105.337 221.089 105.015 219.993 104.415C218.896 103.816 217.944 102.979 217.135 101.906C216.334 100.83 215.648 99.6057 215.079 98.2342ZM227.466 93.0898C227.27 92.6178 227.042 92.2457 226.782 91.9733C226.533 91.7052 226.264 91.5056 225.976 91.3745C225.691 91.2507 225.4 91.1855 225.104 91.179C224.807 91.1726 224.517 91.1934 224.235 91.2416C223.955 91.2971 223.692 91.3718 223.446 91.4654C223.2 91.5591 222.984 91.6442 222.8 91.7208C222.616 91.7973 222.403 91.8898 222.163 91.9983C221.923 92.1067 221.681 92.2418 221.437 92.4037C221.203 92.5699 220.98 92.7618 220.768 92.9796C220.556 93.1974 220.389 93.4524 220.269 93.7446C220.158 94.0411 220.106 94.3739 220.113 94.7431C220.122 95.1196 220.225 95.5438 220.421 96.0157C220.617 96.4876 220.843 96.8561 221.1 97.1211C221.36 97.3935 221.634 97.5952 221.922 97.7264C222.218 97.8545 222.517 97.9202 222.821 97.9237C223.128 97.9345 223.422 97.9121 223.701 97.8565C223.988 97.7979 224.255 97.7218 224.501 97.6281C224.75 97.5418 224.967 97.4603 225.152 97.3838C225.336 97.3072 225.547 97.2111 225.784 97.0953C226.024 96.9868 226.263 96.8532 226.499 96.6944C226.736 96.5356 226.955 96.3452 227.157 96.1231C227.362 95.9084 227.519 95.6528 227.63 95.3563C227.74 95.0597 227.787 94.7248 227.77 94.3513C227.763 93.9822 227.662 93.5617 227.466 93.0898Z" fill="#FDCA4D"/>
<path d="M225.968 119.31C226.028 119.688 226.127 120.036 226.267 120.354C226.414 120.67 226.581 120.958 226.768 121.22C226.955 121.481 227.157 121.712 227.375 121.912C227.594 122.12 227.808 122.296 228.017 122.44L228.33 124.416L222.274 125.377L219.984 110.946L225.118 110.132L225.654 111.599L232.963 110.439L233.019 108.878L238.152 108.063L239.834 118.661L234.701 119.476L234.165 118.009L225.968 119.31Z" fill="#FDCA4D"/>
<path d="M225.909 153.954C225.129 153.825 224.453 153.603 223.879 153.289C223.313 152.983 222.838 152.602 222.456 152.147C222.082 151.693 221.782 151.182 221.555 150.614C221.335 150.047 221.177 149.449 221.081 148.82C220.992 148.192 220.976 147.543 221.031 146.873C221.077 146.209 221.151 145.546 221.254 144.883C221.44 143.684 221.65 142.638 221.885 141.745C222.029 141.234 222.323 140.484 222.767 139.494C223.127 138.686 223.47 138.06 223.797 137.618L228.472 138.342L227.92 141.904C227.289 142.226 226.799 142.623 226.451 143.095C226.102 143.574 225.886 144.086 225.802 144.63C225.78 144.772 225.767 144.932 225.764 145.109C225.761 145.286 225.803 145.458 225.89 145.625C225.976 145.8 226.129 145.957 226.35 146.097C226.57 146.244 226.893 146.35 227.319 146.416C227.487 145.747 227.682 145.087 227.904 144.435C228.125 143.79 228.385 143.18 228.684 142.604C228.984 142.028 229.328 141.5 229.718 141.019C230.114 140.547 230.563 140.152 231.065 139.834C231.565 139.523 232.128 139.304 232.754 139.174C233.387 139.054 234.094 139.054 234.875 139.175C235.711 139.305 236.428 139.529 237.025 139.848C237.63 140.168 238.132 140.552 238.531 141.002C238.936 141.461 239.25 141.97 239.47 142.529C239.697 143.097 239.856 143.691 239.945 144.311C240.034 144.939 240.053 145.576 240.001 146.222C239.948 146.877 239.872 147.524 239.773 148.163C239.629 149.094 239.464 149.925 239.278 150.655C239.099 151.395 238.892 152.054 238.657 152.631C238.422 153.209 238.179 153.713 237.926 154.142C237.681 154.581 237.447 154.969 237.225 155.306L232.609 154.592L233.161 151.029C233.791 150.715 234.279 150.33 234.624 149.874C234.968 149.426 235.181 148.942 235.261 148.422C235.283 148.279 235.289 148.115 235.277 147.927C235.274 147.741 235.217 147.558 235.107 147.38C235.006 147.202 234.837 147.039 234.602 146.889C234.374 146.741 234.047 146.634 233.621 146.568C233.36 147.941 233.022 149.133 232.607 150.144C232.192 151.154 231.675 151.967 231.054 152.581C230.441 153.206 229.708 153.633 228.856 153.865C228.012 154.098 227.03 154.128 225.909 153.954Z" fill="#FDCA4D"/>
<path d="M230.859 177.945L225.143 175.727L225.87 173.851C226.083 173.788 226.307 173.708 226.542 173.61C226.776 173.513 227 173.39 227.212 173.241C227.431 173.095 227.628 172.919 227.802 172.712C227.984 172.509 228.128 172.269 228.235 171.994L220.497 168.992L219.664 170.313L214.818 168.433L218.699 158.428L223.545 160.308L223.27 161.846L231.007 164.848C231.114 164.572 231.169 164.298 231.172 164.025C231.183 163.755 231.156 163.492 231.093 163.237C231.037 162.984 230.955 162.742 230.847 162.512C230.74 162.282 230.628 162.072 230.514 161.881L231.241 160.006L236.958 162.223L230.859 177.945Z" fill="#FDCA4D"/>
<path d="M206.799 182.076C207.359 181.279 207.95 180.543 208.571 179.867C209.188 179.198 209.86 178.631 210.587 178.166C211.31 177.708 212.068 177.358 212.863 177.116C213.664 176.879 214.494 176.774 215.352 176.802C216.218 176.835 217.108 177.012 218.024 177.333C218.942 177.666 219.881 178.17 220.841 178.845C221.742 179.479 222.482 180.155 223.06 180.874C223.638 181.593 224.075 182.339 224.37 183.113C224.665 183.886 224.83 184.68 224.863 185.494C224.891 186.314 224.805 187.137 224.605 187.963C224.407 188.8 224.109 189.634 223.709 190.466C223.305 191.304 222.819 192.128 222.249 192.938C221.68 193.748 221.069 194.485 220.417 195.149C219.765 195.813 219.078 196.38 218.358 196.849C217.637 197.319 216.889 197.675 216.112 197.92C215.33 198.171 214.525 198.288 213.697 198.272C212.869 198.256 212.019 198.098 211.147 197.797C210.282 197.501 209.399 197.036 208.497 196.402C207.086 195.41 206.038 194.326 205.351 193.151C204.667 191.987 204.285 190.781 204.205 189.534C204.125 188.287 204.322 187.035 204.797 185.778C205.277 184.525 205.945 183.291 206.799 182.076ZM217.772 189.791C218.066 189.372 218.258 188.981 218.349 188.615C218.442 188.261 218.467 187.927 218.424 187.614C218.376 187.307 218.276 187.026 218.122 186.772C217.969 186.518 217.797 186.285 217.605 186.072C217.408 185.865 217.205 185.683 216.994 185.525C216.783 185.367 216.596 185.23 216.432 185.116C216.269 185.001 216.077 184.871 215.857 184.726C215.637 184.581 215.393 184.449 215.126 184.329C214.861 184.22 214.579 184.135 214.282 184.072C213.984 184.009 213.68 184.005 213.368 184.059C213.059 184.125 212.75 184.259 212.441 184.462C212.128 184.671 211.825 184.985 211.531 185.403C211.237 185.821 211.047 186.209 210.96 186.568C210.869 186.934 210.846 187.273 210.889 187.586C210.938 187.904 211.043 188.193 211.203 188.452C211.358 188.717 211.534 188.953 211.73 189.159C211.933 189.37 212.14 189.555 212.351 189.713C212.558 189.877 212.742 190.017 212.906 190.132C213.069 190.247 213.263 190.373 213.488 190.512C213.708 190.657 213.948 190.787 214.209 190.902C214.47 191.017 214.748 191.1 215.043 191.152C215.334 191.21 215.635 191.206 215.944 191.141C216.254 191.075 216.562 190.936 216.868 190.722C217.177 190.519 217.478 190.209 217.772 189.791Z" fill="#FDCA4D"/>
<path d="M194.822 202.589C194.535 202.843 194.295 203.114 194.102 203.402C193.915 203.696 193.761 203.992 193.641 204.29C193.521 204.588 193.435 204.882 193.383 205.173C193.325 205.47 193.292 205.745 193.282 205.999L191.784 207.324L187.721 202.732L198.664 193.05L202.108 196.942L201.158 198.182L206.063 203.726L207.409 202.934L210.853 206.827L202.816 213.938L199.372 210.045L200.322 208.805L194.822 202.589Z" fill="#FDCA4D"/>
<path d="M174.909 221.028C174.639 220.397 174.326 219.888 173.971 219.501C173.615 219.115 173.22 218.841 172.786 218.679C172.345 218.52 171.871 218.466 171.363 218.518C170.848 218.573 170.301 218.724 169.721 218.971C169.03 219.266 168.251 219.699 167.383 220.269C166.516 220.839 165.588 221.543 164.6 222.381L162.4 217.226C163.413 216.325 164.443 215.547 165.492 214.891C166.532 214.238 167.596 213.68 168.683 213.216C170.012 212.649 171.327 212.282 172.629 212.118C173.923 211.956 175.156 212.059 176.329 212.427C177.497 212.805 178.567 213.45 179.539 214.364C180.51 215.277 181.32 216.494 181.969 218.014C182.602 219.497 182.924 220.871 182.934 222.134C182.936 223.401 182.673 224.554 182.145 225.596C181.613 226.648 180.842 227.585 179.83 228.407C178.811 229.233 177.596 229.947 176.186 230.549C175.32 230.919 174.522 231.207 173.795 231.413C173.059 231.623 172.384 231.781 171.77 231.887C171.155 231.993 170.599 232.052 170.101 232.065C169.599 232.089 169.146 232.095 168.742 232.085L166.58 227.019L169.895 225.603C170.495 225.972 171.08 226.183 171.649 226.235C172.211 226.29 172.734 226.214 173.219 226.008C173.63 225.832 173.996 225.58 174.316 225.253C174.629 224.928 174.87 224.547 175.04 224.11C175.209 223.674 175.29 223.192 175.282 222.666C175.278 222.147 175.153 221.601 174.909 221.028Z" fill="#FDCA4D"/>
<path d="M148.696 218.973C149.659 218.829 150.6 218.749 151.518 218.734C152.428 218.719 153.302 218.815 154.14 219.021C154.97 219.228 155.746 219.536 156.469 219.944C157.193 220.361 157.841 220.89 158.413 221.531C158.986 222.18 159.472 222.947 159.871 223.832C160.262 224.727 160.545 225.754 160.718 226.915C160.881 228.005 160.901 229.007 160.779 229.921C160.657 230.835 160.418 231.666 160.061 232.414C159.704 233.161 159.243 233.827 158.676 234.412C158.102 234.999 157.446 235.504 156.711 235.929C155.968 236.362 155.158 236.721 154.28 237.006C153.394 237.291 152.462 237.507 151.483 237.653C150.503 237.799 149.548 237.865 148.618 237.85C147.687 237.836 146.804 237.729 145.967 237.531C145.13 237.333 144.355 237.037 143.643 236.643C142.922 236.25 142.282 235.748 141.723 235.137C141.163 234.526 140.692 233.802 140.309 232.963C139.926 232.132 139.654 231.171 139.491 230.082C139.237 228.376 139.299 226.869 139.677 225.562C140.048 224.263 140.658 223.155 141.506 222.237C142.354 221.32 143.396 220.599 144.634 220.075C145.873 219.56 147.227 219.192 148.696 218.973ZM150.675 232.24C151.18 232.164 151.597 232.034 151.924 231.847C152.245 231.67 152.504 231.458 152.701 231.211C152.89 230.965 153.024 230.698 153.103 230.412C153.181 230.126 153.231 229.84 153.253 229.554C153.267 229.27 153.259 228.997 153.228 228.735C153.197 228.473 153.166 228.243 153.137 228.046C153.108 227.849 153.069 227.62 153.023 227.361C152.976 227.101 152.904 226.834 152.806 226.557C152.702 226.291 152.57 226.028 152.41 225.769C152.25 225.51 152.043 225.287 151.789 225.099C151.528 224.92 151.218 224.788 150.859 224.705C150.491 224.622 150.055 224.619 149.549 224.694C149.044 224.77 148.631 224.9 148.312 225.085C147.984 225.271 147.722 225.488 147.525 225.735C147.329 225.99 147.192 226.265 147.115 226.559C147.03 226.854 146.98 227.144 146.966 227.429C146.953 227.721 146.962 227.998 146.993 228.26C147.017 228.523 147.043 228.753 147.072 228.951C147.102 229.148 147.144 229.376 147.198 229.634C147.245 229.894 147.317 230.157 147.413 230.426C147.51 230.694 147.641 230.953 147.808 231.202C147.966 231.453 148.176 231.668 148.437 231.847C148.698 232.026 149.011 232.153 149.377 232.227C149.737 232.311 150.17 232.315 150.675 232.24Z" fill="#FDCA4D"/>
<path d="M124.798 219.542C125.765 219.662 126.693 219.836 127.581 220.066C128.462 220.296 129.279 220.622 130.031 221.044C130.776 221.466 131.442 221.97 132.029 222.557C132.615 223.152 133.098 223.835 133.478 224.606C133.857 225.385 134.12 226.254 134.267 227.213C134.405 228.18 134.403 229.245 134.259 230.41C134.124 231.504 133.876 232.475 133.514 233.323C133.152 234.171 132.699 234.908 132.156 235.533C131.612 236.158 130.989 236.676 130.287 237.088C129.576 237.5 128.81 237.811 127.987 238.024C127.156 238.243 126.279 238.372 125.357 238.412C124.427 238.45 123.471 238.409 122.488 238.287C121.506 238.166 120.568 237.974 119.675 237.712C118.783 237.449 117.96 237.11 117.206 236.695C116.453 236.281 115.785 235.788 115.204 235.218C114.615 234.646 114.132 233.992 113.757 233.254C113.381 232.515 113.121 231.691 112.976 230.78C112.829 229.877 112.824 228.879 112.958 227.785C113.169 226.074 113.632 224.638 114.346 223.479C115.051 222.327 115.935 221.423 116.997 220.765C118.06 220.108 119.257 219.692 120.59 219.519C121.922 219.353 123.324 219.361 124.798 219.542ZM123.158 232.855C123.665 232.918 124.101 232.903 124.466 232.811C124.823 232.727 125.129 232.591 125.385 232.406C125.633 232.219 125.834 231.998 125.986 231.744C126.138 231.489 126.263 231.227 126.36 230.957C126.45 230.687 126.515 230.421 126.555 230.161C126.595 229.9 126.627 229.671 126.652 229.473C126.676 229.275 126.7 229.044 126.725 228.782C126.749 228.519 126.751 228.242 126.731 227.95C126.701 227.665 126.645 227.376 126.56 227.084C126.475 226.792 126.336 226.522 126.141 226.272C125.938 226.03 125.674 225.821 125.35 225.644C125.018 225.466 124.598 225.346 124.091 225.284C123.584 225.221 123.151 225.236 122.794 225.329C122.429 225.421 122.118 225.559 121.862 225.745C121.605 225.939 121.4 226.167 121.247 226.429C121.086 226.691 120.96 226.957 120.871 227.228C120.78 227.506 120.715 227.776 120.675 228.036C120.626 228.296 120.59 228.525 120.566 228.723C120.541 228.921 120.521 229.152 120.505 229.415C120.48 229.678 120.479 229.951 120.5 230.235C120.521 230.519 120.579 230.804 120.672 231.089C120.758 231.373 120.903 231.636 121.106 231.878C121.31 232.121 121.578 232.327 121.911 232.497C122.235 232.673 122.651 232.793 123.158 232.855Z" fill="#FDCA4D"/>
<path d="M101.105 218.626C100.746 218.491 100.394 218.406 100.05 218.371C99.702 218.343 99.3683 218.346 99.0488 218.38C98.7292 218.414 98.4288 218.476 98.1476 218.567C97.8588 218.655 97.6 218.754 97.3712 218.865L95.4981 218.163L97.648 212.421L111.332 217.544L109.509 222.411L107.969 222.154L105.374 229.086L106.704 229.904L104.882 234.772L94.8323 231.009L96.6546 226.141L98.1953 226.398L101.105 218.626Z" fill="#FDCA4D"/>
<path d="M71.1447 201.538C71.6422 200.924 72.1695 200.446 72.7268 200.103C73.2728 199.762 73.838 199.537 74.4224 199.43C75.0018 199.329 75.5947 199.321 76.201 199.404C76.8024 199.494 77.4003 199.652 77.9948 199.879C78.5843 200.113 79.1567 200.419 79.7119 200.798C80.2658 201.166 80.8054 201.559 81.3308 201.976C82.2816 202.73 83.0869 203.43 83.7466 204.076C84.1198 204.453 84.6267 205.08 85.2675 205.955C85.7929 206.667 86.1669 207.275 86.3897 207.778L83.4496 211.484L80.6255 209.243C80.6575 208.535 80.5546 207.913 80.3167 207.378C80.0726 206.838 79.7347 206.396 79.3031 206.054C79.1906 205.965 79.058 205.875 78.9055 205.784C78.753 205.694 78.5826 205.645 78.3943 205.639C78.1997 205.627 77.9874 205.683 77.7572 205.806C77.5207 205.924 77.2685 206.152 77.0006 206.49C77.4988 206.967 77.9765 207.463 78.4338 207.978C78.8848 208.489 79.2866 209.017 79.6392 209.561C79.9918 210.106 80.2809 210.667 80.5064 211.243C80.7208 211.821 80.8423 212.406 80.8709 213C80.8932 213.588 80.8059 214.187 80.6089 214.795C80.4006 215.404 80.0509 216.018 79.5596 216.638C79.0336 217.301 78.4846 217.813 77.9124 218.174C77.3354 218.542 76.7528 218.788 76.1647 218.913C75.5655 219.039 74.9683 219.059 74.3731 218.974C73.7668 218.891 73.172 218.735 72.5887 218.507C71.9992 218.273 71.4362 217.974 70.8998 217.61C70.3571 217.241 69.8325 216.855 69.3258 216.453C68.5877 215.868 67.947 215.313 67.4037 214.791C66.8492 214.269 66.3789 213.764 65.9928 213.274C65.6068 212.784 65.2894 212.323 65.0408 211.892C64.7809 211.461 64.5592 211.066 64.3757 210.707L67.2786 207.048L70.1027 209.288C70.0644 209.992 70.158 210.606 70.3833 211.131C70.6024 211.651 70.9184 212.075 71.3312 212.403C71.4438 212.492 71.5844 212.578 71.7531 212.661C71.9168 212.75 72.1034 212.791 72.3128 212.784C72.5173 212.783 72.7428 212.718 72.9891 212.587C73.2305 212.462 73.4852 212.231 73.7532 211.894C72.6883 210.988 71.8193 210.105 71.1462 209.245C70.4731 208.384 70.0226 207.533 69.7947 206.689C69.5556 205.848 69.5459 204.999 69.7656 204.144C69.9803 203.295 70.44 202.427 71.1447 201.538Z" fill="#FDCA4D"/>
<path d="M47.8194 194.015L52.5644 190.131L53.8388 191.688C53.7888 191.904 53.7484 192.138 53.7176 192.391C53.6868 192.643 53.684 192.898 53.7093 193.156C53.7285 193.419 53.785 193.677 53.8789 193.93C53.9666 194.188 54.104 194.432 54.2911 194.661L60.7135 189.403L59.9742 188.028L63.9963 184.735L70.7933 193.039L66.7712 196.331L65.5685 195.335L59.1461 200.592C59.3333 200.82 59.5448 201.003 59.7808 201.14C60.0106 201.282 60.2524 201.389 60.5064 201.459C60.7541 201.535 61.0047 201.583 61.2581 201.602C61.5114 201.622 61.749 201.629 61.9709 201.623L63.2454 203.179L58.5004 207.063L47.8194 194.015Z" fill="#FDCA4D"/>
<path d="M56.0426 171.028C56.4611 171.907 56.8118 172.784 57.0947 173.657C57.3742 174.523 57.5377 175.387 57.5852 176.249C57.6292 177.103 57.5611 177.936 57.381 178.746C57.1937 179.561 56.8768 180.335 56.4303 181.069C55.9766 181.806 55.3846 182.495 54.6543 183.134C53.9133 183.77 53.0129 184.34 51.9531 184.844C50.9582 185.317 50.0057 185.629 49.0956 185.779C48.1856 185.929 47.321 185.943 46.502 185.819C45.683 185.696 44.9111 185.449 44.1862 185.078C43.4579 184.699 42.7833 184.22 42.1625 183.64C41.5311 183.056 40.9514 182.386 40.4233 181.629C39.8918 180.865 39.4134 180.036 38.988 179.142C38.5626 178.248 38.2211 177.354 37.9636 176.46C37.7061 175.566 37.55 174.69 37.4953 173.831C37.4407 172.973 37.4979 172.146 37.667 171.349C37.8327 170.545 38.1261 169.787 38.5472 169.073C38.9683 168.36 39.524 167.698 40.2145 167.086C40.8978 166.478 41.737 165.938 42.7319 165.464C44.2892 164.723 45.7484 164.343 47.1094 164.323C48.4599 164.299 49.6976 164.559 50.8227 165.103C51.9478 165.646 52.9413 166.433 53.8033 167.464C54.6581 168.499 55.4045 169.687 56.0426 171.028ZM43.9302 176.791C44.1498 177.252 44.3963 177.612 44.6698 177.871C44.9327 178.127 45.2112 178.312 45.5054 178.429C45.7961 178.538 46.0897 178.588 46.3863 178.58C46.6829 178.571 46.9711 178.536 47.2509 178.474C47.5272 178.404 47.7861 178.316 48.0274 178.21C48.2688 178.104 48.4796 178.008 48.6598 177.923C48.8401 177.837 49.0474 177.734 49.2819 177.613C49.5164 177.493 49.7514 177.346 49.987 177.172C50.2118 176.994 50.4247 176.791 50.6256 176.563C50.8265 176.335 50.9799 176.071 51.0857 175.774C51.1808 175.472 51.216 175.137 51.191 174.768C51.1626 174.393 51.0387 173.974 50.8191 173.513C50.5996 173.052 50.3548 172.695 50.0847 172.443C49.8112 172.184 49.5273 171.997 49.2332 171.88C48.9318 171.767 48.6293 171.717 48.3255 171.729C48.0182 171.733 47.7264 171.771 47.4501 171.84C47.1665 171.913 46.9041 172.003 46.6627 172.109C46.4179 172.207 46.2054 172.3 46.0252 172.385C45.8449 172.471 45.6393 172.578 45.4082 172.706C45.1737 172.826 44.9423 172.971 44.714 173.142C44.4857 173.313 44.2764 173.514 44.0862 173.746C43.8925 173.971 43.7481 174.234 43.6529 174.536C43.5577 174.837 43.5279 175.174 43.5635 175.546C43.5884 175.915 43.7107 176.329 43.9302 176.791Z" fill="#FDCA4D"/>
<path d="M44.0949 150.5C44.0159 150.125 43.8989 149.782 43.7438 149.472C43.581 149.164 43.3996 148.884 43.1997 148.632C42.9999 148.381 42.7862 148.16 42.5588 147.972C42.3298 147.775 42.1073 147.61 41.8914 147.476L41.4792 145.519L47.4795 144.255L50.4907 158.553L45.4045 159.624L44.7956 158.185L37.5531 159.711L37.576 161.272L32.4899 162.344L30.2783 151.843L35.3645 150.772L35.9734 152.21L44.0949 150.5Z" fill="#FDCA4D"/>
</svg>
