<svg width="20" height="19" viewBox="0 0 20 19" fill="none" xmlns="http://www.w3.org/2000/svg">
<path fill-rule="evenodd" clip-rule="evenodd" d="M13.4558 16.1581C12.4216 16.696 11.2463 17 10 17C9.24459 17 8.51527 16.8883 7.82764 16.6806C8.39759 16.4012 9.0926 15.9461 9.22727 15.3448C9.56668 13.8295 5.95455 13.1379 5.95455 13.1379H3.43982C3.1867 12.6825 2.97963 12.1979 2.82492 11.6904L3.22727 7.62069C3.22727 7.62069 5.93328 8.24756 6.5 7.06897C6.93182 6.17092 5.95455 4.57202 5.95455 4.57202L5.68743 3.36313C5.87892 3.22832 6.077 3.10224 6.2811 2.98548L7.04545 3.75862L8.68182 4.31034L9.77273 3.2069V2.00338C9.84821 2.00113 9.92397 2 10 2C11.091 2 12.1276 2.23295 13.0628 2.65183C12.2807 3.497 11.0041 5.02782 11.9545 5.09076C12.3257 5.11534 12.5648 4.91764 12.8105 4.71442C13.0316 4.53163 13.258 4.34436 13.5909 4.31034C14.4901 4.21846 15.2956 4.31438 15.7727 5.09076C16.1759 5.74687 16.0991 6.37052 15.7727 7.06897C15.5153 7.61993 15.2356 7.93235 14.6818 8.17241C14.1236 8.41441 13.7124 8.06382 13.2794 7.6946C12.8945 7.36647 12.4924 7.02363 11.9545 7.06897C11.0052 7.14899 10.4686 7.5144 9.77273 8.17241C9.71992 8.22234 9.66805 8.27069 9.61734 8.31795C9.12928 8.77281 8.74909 9.12714 8.68182 9.82759C8.57276 10.9631 9.64877 11.3655 10.7359 11.772C10.9634 11.8571 11.1914 11.9423 11.4091 12.0345C12.2198 12.3777 13.3634 12.0013 14.3438 11.6785C15.5021 11.2971 16.4328 10.9907 16.3182 12.0345C16.2393 12.7528 15.6365 12.9738 15.006 13.205C14.433 13.4151 13.8372 13.6336 13.5909 14.2414C13.369 14.7891 13.3909 15.5677 13.4558 16.1581ZM19.5 9.5C19.5 14.7467 15.2467 19 10 19C4.75329 19 0.5 14.7467 0.5 9.5C0.5 4.25329 4.75329 0 10 0C15.2467 0 19.5 4.25329 19.5 9.5Z" fill="black"/>
</svg>
