<svg width="21" height="21" viewBox="0 0 21 21" fill="none" xmlns="http://www.w3.org/2000/svg">
<path fill-rule="evenodd" clip-rule="evenodd" d="M3.41421 0.585786C2.63316 -0.195262 1.36684 -0.195262 0.585786 0.585786C-0.195262 1.36684 -0.195262 2.63316 0.585786 3.41421L7.67157 10.5L1.08579 17.0858C0.304738 17.8668 0.304738 19.1332 1.08579 19.9142C1.86684 20.6953 3.13316 20.6953 3.91421 19.9142L10.5 13.3284L17.5858 20.4142C18.3668 21.1953 19.6332 21.1953 20.4142 20.4142C21.1953 19.6332 21.1953 18.3668 20.4142 17.5858L13.3284 10.5L19.9142 3.91421C20.6953 3.13316 20.6953 1.86684 19.9142 1.08579C19.1332 0.304738 17.8668 0.304738 17.0858 1.08579L10.5 7.67157L3.41421 0.585786Z" fill="#023B27"/>
</svg>
