<svg width="31" height="32" viewBox="0 0 31 32" fill="none" xmlns="http://www.w3.org/2000/svg">
<g clip-path="url(#clip0_48_20)">
<path d="M30.5 16C30.5 7.71573 23.7843 1 15.5 1C7.21573 1 0.5 7.71573 0.5 16C0.5 24.2843 7.21573 31 15.5 31C23.7843 31 30.5 24.2843 30.5 16Z" fill="white"/>
<path d="M30.5 16C30.5 7.71573 23.7843 1 15.5 1C7.21573 1 0.5 7.71573 0.5 16C0.5 24.2843 7.21573 31 15.5 31C23.7843 31 30.5 24.2843 30.5 16Z" stroke="black"/>
<path d="M14.9205 20.5V13.9545H15.9261V20.5H14.9205ZM15.4318 12.8636C15.2358 12.8636 15.0668 12.7969 14.9247 12.6634C14.7855 12.5298 14.7159 12.3693 14.7159 12.1818C14.7159 11.9943 14.7855 11.8338 14.9247 11.7003C15.0668 11.5668 15.2358 11.5 15.4318 11.5C15.6278 11.5 15.7955 11.5668 15.9347 11.7003C16.0767 11.8338 16.1477 11.9943 16.1477 12.1818C16.1477 12.3693 16.0767 12.5298 15.9347 12.6634C15.7955 12.7969 15.6278 12.8636 15.4318 12.8636Z" fill="black"/>
</g>
<defs>
<clipPath id="clip0_48_20">
<rect width="31" height="32" fill="white"/>
</clipPath>
</defs>
</svg>
