<svg width="39" height="77" viewBox="0 0 39 77" fill="none" xmlns="http://www.w3.org/2000/svg">
<path d="M6.03476 28.5566C5.88771 30.9434 6.01808 33.5014 5.65696 35.8555C5.02003 40.0077 5.75309 44.3653 4.93116 48.4511C4.40643 51.0595 3.83278 53.6503 3.39252 56.2769C3.13894 57.7898 3.22137 59.3547 2.67805 60.8013C1.41421 64.1663 -0.980831 68.9646 2.26955 71.8528C4.67863 73.9934 5.59865 66.1193 5.85549 64.9272C6.54756 61.715 6.17737 58.2014 7.21052 55.0847C7.93451 52.9006 8.97135 46.626 12.0061 45.9873C12.7656 45.8275 13.9677 46.438 14.636 46.7775L14.6409 46.78C16.3038 47.6245 14.079 51.3314 13.8251 52.6231C13.4308 54.6286 12.7562 56.1097 13.3403 58.1091C13.7448 59.4938 14.4047 61.3434 14.4625 62.7544C14.5292 64.3821 14.6513 64.5747 13.492 66.154C12.6869 67.2509 8.83331 71.0336 9.34521 72.6501C9.74282 73.9057 12.9567 75.2795 14.2643 75.2855C16.6873 75.2965 17.6567 70.2154 18.2913 68.5256C18.8658 66.996 19.5814 65.4502 19.9578 63.8554C20.4778 61.6525 19.8266 59.4882 20.2297 57.3046C20.4307 56.2164 23.172 49.7734 24.9035 51.9694C28.7113 56.7986 26.3416 65.091 25.5605 70.7305C25.3495 72.2539 22.7299 75.8933 25.0012 76.6481C26.1038 77.0146 27.743 75.4882 28.3544 74.7124C30.2003 72.3695 29.9628 68.8415 30.4809 66.0788C31.1311 62.6118 32.3126 59.2924 32.896 55.8028C33.495 52.2198 33.3976 48.5474 34.0621 44.9483C34.9497 40.1409 35.8183 35.2643 36.9062 30.5003C37.7562 26.7778 38.3919 22.4905 37.7778 18.6817C37.3034 15.7393 32.357 20.3193 31.7268 21.158C30.0059 23.4483 31.0807 26.3215 30.3872 28.8617C29.5308 31.9983 28.152 36.508 26.0323 39C25.6957 39.3957 24.2816 41.2312 23.6622 40.9986C22.0127 40.379 21.6183 36.2774 21.7087 34.8375C21.9398 31.1598 22.6026 27.4615 23.2754 23.8489C23.9011 20.4887 25.1853 16.4772 24.3431 13.0231C24.2281 12.551 23.8355 10.8582 23.5436 10.4906C22.383 9.02894 18.3971 16.3018 18.1115 17.0291C16.0691 22.2299 16.9366 27.2766 16.0222 32.6141C15.5814 35.1869 14.9845 37.7035 13.9897 40.1232C12.3949 44.0025 10.6062 40.2849 9.96245 37.9103C9.11462 34.783 9.2301 31.2492 10.212 28.1559C11.2861 24.7725 11.614 20.8719 12.1215 17.3618C12.5983 14.0638 12.7546 10.6934 12.8987 7.36791C12.9595 5.96572 13.659 2.11297 12.5088 0.83116C10.4875 -1.42137 8.3068 6.78331 8.15089 7.42303C7.42097 10.418 7.62328 13.4587 7.03366 16.4576C6.62486 18.5368 6.31242 20.5362 6.19124 22.6628C6.08415 24.5422 5.87942 26.6915 6.03476 28.5566Z" fill="#023B27"/>
</svg>
