<svg width="392" height="474" viewBox="0 0 392 474" fill="none" xmlns="http://www.w3.org/2000/svg">
<path d="M131.008 170.323C130.158 184.129 130.912 198.927 128.823 212.545C125.138 236.565 129.379 261.773 124.624 285.408C121.589 300.497 118.27 315.485 115.723 330.679C114.257 339.431 114.733 348.484 111.59 356.852C104.279 376.318 90.4244 404.076 109.227 420.783C123.163 433.166 128.486 387.616 129.971 380.72C133.975 362.138 131.833 341.812 137.81 323.783C141.998 311.148 147.996 274.851 165.551 271.156C169.945 270.231 176.899 273.763 180.765 275.727L180.793 275.741C190.413 280.627 177.543 302.071 176.074 309.543C173.793 321.144 169.891 329.712 173.269 341.279C175.609 349.289 179.427 359.988 179.761 368.15C180.147 377.566 180.853 378.681 174.147 387.817C169.49 394.162 147.197 416.044 150.159 425.395C152.459 432.658 171.05 440.606 178.614 440.64C192.631 440.705 198.239 411.311 201.91 401.536C205.234 392.687 209.373 383.745 211.551 374.52C214.558 361.776 210.791 349.256 213.124 336.624C214.286 330.329 230.144 293.058 240.16 305.761C262.188 333.697 248.48 381.667 243.961 414.291C242.741 423.103 227.586 444.157 240.725 448.523C247.104 450.643 256.587 441.813 260.123 437.325C270.802 423.772 269.428 403.363 272.425 387.382C276.186 367.325 283.021 348.123 286.396 327.937C289.861 307.21 289.297 285.966 293.141 265.146C298.276 237.335 303.3 209.125 309.594 181.567C314.511 160.032 318.189 135.231 314.636 113.198C311.892 96.1764 283.278 122.671 279.632 127.523C269.677 140.772 275.895 157.393 271.883 172.087C266.929 190.232 258.952 216.32 246.691 230.735C244.743 233.025 236.563 243.642 232.98 242.297C223.438 238.713 221.156 214.986 221.679 206.656C223.016 185.382 226.85 163.988 230.742 143.089C234.362 123.651 241.79 100.445 236.919 80.4641C236.253 77.7332 233.982 67.9406 232.293 65.8138C225.58 57.3585 202.522 99.4305 200.87 103.638C189.055 133.724 194.073 162.918 188.784 193.795C186.234 208.678 182.781 223.235 177.026 237.233C167.801 259.674 157.453 238.168 153.729 224.432C148.825 206.341 149.493 185.899 155.173 168.005C161.386 148.432 163.283 125.868 166.219 105.562C168.977 86.4842 169.881 66.987 170.715 47.7498C171.066 39.6383 175.113 17.3509 168.459 9.93586C156.767 -3.09464 144.152 44.368 143.25 48.0686C139.027 65.3937 140.198 82.9837 136.787 100.332C134.422 112.36 132.615 123.926 131.914 136.228C131.294 147.1 130.11 159.533 131.008 170.323Z" fill="#598F7D"/>
<path d="M115.897 165.195C115.047 179.002 115.801 193.799 113.712 207.418C110.027 231.437 114.268 256.645 109.513 280.281C106.478 295.37 103.159 310.357 100.612 325.552C99.1455 334.303 99.6223 343.356 96.4793 351.724C89.1682 371.19 75.3133 398.948 94.1162 415.655C108.052 428.038 113.374 382.488 114.86 375.592C118.864 357.01 116.722 336.685 122.699 318.655C126.887 306.021 132.885 269.723 150.44 266.028C154.834 265.104 161.788 268.636 165.654 270.599L165.682 270.614C175.302 275.499 162.432 296.943 160.963 304.415C158.682 316.017 154.78 324.584 158.158 336.151C160.498 344.161 164.316 354.86 164.65 363.023C165.036 372.439 165.742 373.553 159.036 382.689C154.379 389.034 132.086 410.917 135.048 420.268C137.348 427.531 155.939 435.478 163.503 435.513C177.52 435.577 183.128 406.183 186.799 396.408C190.123 387.56 194.262 378.617 196.44 369.392C199.447 356.648 195.68 344.129 198.013 331.497C199.175 325.202 215.033 287.93 225.049 300.633C247.077 328.569 233.369 376.539 228.85 409.163C227.629 417.975 212.475 439.029 225.614 443.396C231.993 445.515 241.476 436.686 245.012 432.198C255.691 418.645 254.316 398.235 257.314 382.254C261.075 362.198 267.909 342.996 271.284 322.809C274.75 302.082 274.186 280.838 278.03 260.018C283.165 232.208 288.189 203.997 294.483 176.439C299.4 154.904 303.078 130.103 299.525 108.071C296.781 91.0488 268.167 117.544 264.521 122.395C254.566 135.644 260.784 152.265 256.772 166.959C251.818 185.104 243.841 211.192 231.58 225.608C229.632 227.897 221.452 238.515 217.869 237.169C208.327 233.585 206.045 209.858 206.568 201.528C207.905 180.254 211.739 158.86 215.631 137.962C219.251 118.523 226.679 95.3177 221.808 75.3364C221.142 72.6055 218.871 62.8129 217.182 60.6861C210.469 52.2308 187.411 94.3028 185.759 98.5105C173.944 128.596 178.962 157.79 173.672 188.667C171.123 203.55 167.67 218.108 161.915 232.105C152.689 254.547 142.342 233.041 138.618 219.304C133.714 201.213 134.382 180.771 140.062 162.877C146.275 143.305 148.172 120.74 151.108 100.435C153.866 81.3565 154.77 61.8593 155.604 42.6221C155.955 34.5106 160.002 12.2232 153.348 4.80818C141.656 -8.22232 129.041 39.2403 128.139 42.9409C123.916 60.266 125.087 77.856 121.676 95.2041C119.311 107.232 117.503 118.798 116.802 131.1C116.183 141.972 114.999 154.405 115.897 165.195Z" fill="#023B27"/>
</svg>
