<svg width="34" height="34" viewBox="0 0 34 34" fill="none" xmlns="http://www.w3.org/2000/svg">
<g clip-path="url(#clip0_59_27)">
<path d="M14.5 8.52063C14.9364 5.73854 16.2273 4.18353 18.5 2.52063C20.3445 1.17106 24 1.02063 24 1.02063C24 1.02063 26.9336 1.40499 28.5 2.52063C30.8857 4.21977 32.0858 5.62113 32.5 8.52063C33 12.0206 33 12.0206 31.5 15.0206V33.0206L19.5 29.5206L10.5 33.0206L1 29.5206V6.52063L10.5 9.02063L14.5 11.8513C14.3037 10.8518 14.3022 9.7815 14.5 8.52063Z" fill="#023B27"/>
<path d="M31.5 15.0206C33 12.0206 33 12.0206 32.5 8.52063C32.0858 5.62113 30.8857 4.21977 28.5 2.52063C26.9336 1.40499 24 1.02063 24 1.02063C24 1.02063 20.3445 1.17106 18.5 2.52063C16.2273 4.18353 14.9364 5.73854 14.5 8.52063C14.3022 9.7815 14.3037 10.8518 14.5 11.8513M31.5 15.0206C30.3252 17.3703 27.1417 17.9698 25.5 20.0206C24.62 21.1199 24 23.5206 24 23.5206C24 23.5206 23.2372 21.1033 22.5 20.0206C20.9381 17.7267 18.1098 18.2812 16.5 16.0206C15.4494 14.5454 14.7786 13.2697 14.5 11.8513M31.5 15.0206V33.0206L19.5 29.5206M14.5 11.8513L10.5 9.02063M19.5 29.5206L10.5 33.0206M19.5 29.5206V18.0011M10.5 9.02063L1 6.52063V29.5206L10.5 33.0206M10.5 9.02063V33.0206" stroke="#035A3C"/>
</g>
<defs>
<clipPath id="clip0_59_27">
<rect width="34" height="34" fill="white"/>
</clipPath>
</defs>
</svg>
