<svg width="285" height="274" viewBox="0 0 285 274" fill="none" xmlns="http://www.w3.org/2000/svg">
<path fill-rule="evenodd" clip-rule="evenodd" d="M159.503 2.18478C177.94 -3.11589 200.871 1.36172 215.15 14.1707C230.202 27.6734 227.159 52.2082 235.698 70.5362C241.81 83.6575 250.927 94.6013 258.396 107.001C267.527 122.162 283.844 134.645 284.95 152.308C286.037 169.665 269.102 182.87 264.189 199.553C257.771 221.347 268.127 250.243 251.536 265.769C235.745 280.546 209.216 270.837 187.59 271.232C168.864 271.575 149.573 274.732 132.114 267.955C115.245 261.407 103.967 246.076 90.8023 233.663C78.8548 222.398 70.2143 208.559 57.7641 197.852C39.5824 182.216 4.25347 179.506 0.324031 155.853C-3.47571 132.98 27.1051 118.902 41.6482 100.841C52.3007 87.6122 61.6277 73.5199 75.0272 63.0809C87.3287 53.4973 103.839 51.6551 116.489 42.5361C132.613 30.9125 140.399 7.67743 159.503 2.18478Z" fill="#C4C4C4"/>
</svg>
