<svg width="248" height="318" viewBox="0 0 248 318" fill="none" xmlns="http://www.w3.org/2000/svg">
<path fill-rule="evenodd" clip-rule="evenodd" d="M106.626 23.4213C137.478 18.7338 169.126 -10.6635 196.599 4.11993C223.811 18.7631 220.413 59.5597 228.931 89.2352C235.629 112.572 239.632 135.535 241.271 159.757C243.019 185.568 256.86 217.397 238.867 236.007C219.414 256.127 180.883 232.29 157.008 246.908C132.036 262.198 134.939 309.481 106.626 316.978C80.8238 323.811 59.1406 294.731 38.0295 278.416C19.1557 263.83 0.0356007 248.614 -9.88295 226.936C-19.4059 206.123 -21.3555 182.068 -16.2615 159.757C-11.623 139.441 10.1045 127.794 17.225 108.208C26.5157 82.6514 11.441 47.9747 31.1821 29.2527C49.7895 11.6058 81.258 27.2757 106.626 23.4213Z" fill="#C4C4C4"/>
</svg>
