<svg width="134" height="134" viewBox="0 0 134 134" fill="none" xmlns="http://www.w3.org/2000/svg">
<path fill-rule="evenodd" clip-rule="evenodd" d="M10.3768 67.9367C4.11301 60.8253 0.336548 51.6293 0.336548 41.5863C0.336548 19.037 19.3749 0.757202 42.8599 0.757202C51.548 0.757202 59.6275 3.25891 66.3597 7.55301C73.0919 3.25894 81.1714 0.757253 89.8594 0.757253C113.344 0.757253 132.383 19.0371 132.383 41.5864C132.383 51.0493 129.03 59.7603 123.403 66.684C129.666 73.7954 133.443 82.9915 133.443 93.0344C133.443 115.584 114.405 133.864 90.9195 133.864C82.2315 133.864 74.152 131.362 67.4198 127.068C60.6876 131.362 52.6081 133.864 43.92 133.864C20.435 133.864 1.39668 115.584 1.39668 93.0344C1.39668 83.5715 4.74953 74.8604 10.3768 67.9367Z" fill="white"/>
</svg>
